<?xml version="1.0" encoding="UTF-8"?>
<svg width="60px" height="60px" viewBox="0 0 60 60" version="1.1" xmlns="http://www.w3.org/2000/svg" xmlns:xlink="http://www.w3.org/1999/xlink">
    <title>BSC</title>
    <g id="2022---新官网" stroke="none" stroke-width="1" fill="none" fill-rule="evenodd" opacity="0.5">
        <g id="编组-3" transform="translate(-160.000000, 0.000000)">
            <g id="BSC" transform="translate(160.000000, 0.000000)">
                <circle id="椭圆形" stroke="#E3E7EF" stroke-width="1.5" cx="30" cy="30" r="29.25"></circle>
                <path d="M33.2226898,39.9065468 L33.2226898,43.3017636 L30.235166,45 L27.2476422,43.3017636 L27.2476422,39.9065468 L30.235166,41.6047832 L33.2226898,39.9065468 Z M43.4704601,28.2875697 L43.4704601,37.4771391 L35.3444466,42.0731799 L35.3444466,38.6779631 L40.4829363,35.7801588 L40.4829363,29.9845501 L43.4704601,28.2875697 Z M17,28.2878209 L19.9875238,29.9848013 L19.9875238,35.78041 L25.1260135,38.6782143 L25.1260135,42.0734311 L17,37.4773903 L17,28.2878209 Z M35.3739119,23.692157 L38.3614357,25.3903934 L38.3614357,28.7856102 L33.222946,31.6834146 L33.222946,37.4777672 L30.2354222,39.1760036 L27.2478984,37.4777672 L27.2478984,31.6834146 L22.1094087,28.7856102 L22.1094087,25.3903934 L25.0969325,23.692157 L30.2354222,26.5899613 L35.3739119,23.692157 Z M38.3614357,31.1851228 L38.3614357,34.5803396 L35.3739119,36.2785761 L35.3739119,32.8833593 L38.3614357,31.1851228 Z M22.1087682,31.184746 L25.096292,32.8829825 L25.096292,36.2781993 L22.1087682,34.5799628 L22.1087682,31.184746 Z M40.4830644,20.7946038 L43.4705882,22.4928403 L43.4705882,25.8880571 L40.4830644,27.5850374 L40.4830644,24.1898206 L37.4955406,22.4928403 L40.4830644,20.7946038 Z M19.9875238,20.7946038 L22.9750476,22.4928403 L19.9875238,24.1898206 L19.9875238,27.5850374 L17,25.8880571 L17,22.4928403 L19.9875238,20.7946038 Z M30.235166,20.7949807 L33.2226898,22.491961 L30.235166,24.1901975 L27.2476422,22.491961 L30.235166,20.7949807 Z M30.235166,15 L38.3611795,19.5947847 L35.3736557,21.2917651 L30.235166,18.3952168 L25.0966763,21.2917651 L22.1091525,19.5947847 L30.235166,15 Z" id="形状结合" fill="#FFFFFF"></path>
            </g>
        </g>
    </g>
</svg>