<?xml version="1.0" encoding="UTF-8"?>
<svg width="60px" height="60px" viewBox="0 0 60 60" version="1.1" xmlns="http://www.w3.org/2000/svg" xmlns:xlink="http://www.w3.org/1999/xlink">
    <title>Avalanche</title>
    <g id="2022---新官网" stroke="none" stroke-width="1" fill="none" fill-rule="evenodd" opacity="0.5">
        <g id="Web-3" transform="translate(-1129.000000, -666.000000)">
            <g id="文案+-描述-+-btn-+-环境" transform="translate(359.000000, 196.000000)">
                <g id="编组-3" transform="translate(370.000000, 470.000000)">
                    <g id="编组-43" transform="translate(400.000000, 0.000000)">
                        <circle id="椭圆形" stroke="#E3E7EF" stroke-width="1.5" cx="30" cy="30" r="29.25"></circle>
                        <path d="M38.2704429,30.194273 C38.5431093,30.3339967 38.7574223,30.6929041 39.1791719,31.4082357 L39.2141267,31.4664937 L42.2153679,36.6020782 L42.2595867,36.6765721 L42.2595867,36.6765721 C42.6766566,37.3942913 42.8887729,37.7600751 42.8724416,38.0630166 C42.8561103,38.4009129 42.6766566,38.7131184 42.3900464,38.8995439 L42.392434,38.901836 C42.1489682,39.0620455 41.7566374,39.0753963 41.0109363,39.0765089 L34.8056209,39.07661 C33.9224872,39.07661 33.4774344,39.07661 33.2164195,38.9065158 C32.9298093,38.7200902 32.7551309,38.4078847 32.7341198,38.0699884 C32.7177885,37.7600751 32.9368767,37.3826397 33.3748621,36.6252859 L33.3842216,36.6066625 L36.3761033,31.4711734 C36.8164764,30.7138196 37.0378567,30.3386764 37.3128153,30.194273 C37.6156613,30.0404146 37.969889,30.0404146 38.2704429,30.194273 Z M30.8700553,17.1153365 C31.1496936,17.2574764 31.3733661,17.6442712 31.811447,18.4178704 L33.9341388,22.1227726 L33.9457904,22.141396 C34.4211182,22.970856 34.661122,23.3903135 34.7659864,23.8330742 C34.8825023,24.3153739 34.8825023,24.8233644 34.7659864,25.3056641 C34.661122,25.7507169 34.4211182,26.1747586 33.9388185,27.0159657 L28.5143316,36.6043704 L28.5166238,36.6043704 L28.50268,36.6299657 C28.0249646,37.466493 27.7826687,37.8906303 27.4470645,38.2098076 C27.0812807,38.5593555 26.6431998,38.813303 26.1609001,38.9554143 C25.7939225,39.0564107 25.3913296,39.0732435 24.6969494,39.0760489 L20.0607161,39.07661 C19.1822621,39.07661 18.7464733,39.07661 18.4831663,38.9065158 C18.1965848,38.7200902 18.0218204,38.4148566 18.0008571,38.0746682 C17.9845448,37.7624627 18.2012454,37.3802521 18.6369292,36.6183141 L28.9639687,18.4178704 C29.4044372,17.6442712 29.6257221,17.2574764 29.9053604,17.1153365 C30.2059143,16.9615545 30.5671138,16.9615545 30.8700553,17.1153365 Z" id="形状结合" fill="#FFFFFF" fill-rule="nonzero"></path>
                    </g>
                </g>
            </g>
        </g>
    </g>
</svg>