<?xml version="1.0" encoding="UTF-8"?>
<svg width="312px" height="312px" viewBox="0 0 312 312" version="1.1" xmlns="http://www.w3.org/2000/svg" xmlns:xlink="http://www.w3.org/1999/xlink">
    <title>bg-logo</title>
    <defs>
        <linearGradient x1="0%" y1="50%" x2="97.2768476%" y2="50%" id="linearGradient-1">
            <stop stop-color="#0A0B1F" offset="0%"></stop>
            <stop stop-color="#1F2034" offset="100%"></stop>
        </linearGradient>
    </defs>
    <g id="2022---新官网" stroke="none" stroke-width="1" fill="none" fill-rule="evenodd">
        <g id="bg-logo" transform="translate(1.000000, 1.000000)" fill-rule="nonzero">
            <path d="M157.587009,93 C192.572915,93 221,120.721317 221,155 C221,188.935896 193.138614,216.444918 158.634596,216.991705 L157.587009,217 L121.939283,217 L121.939283,142.145682 L135.736854,142.145682 L135.73616,203.222222 L157.587009,203.222222 C184.750591,203.222222 206.758353,182.025744 207.195792,155.796354 L207.202429,155 C207.202429,128.670584 185.466302,107.210812 158.408552,106.784249 L157.587009,106.777778 L110,106.777778 L110,93 L157.587009,93 Z M153.876671,118 C174.895645,118 192,134.670827 192,155.317623 C192,175.757951 175.236022,192.301431 154.506053,192.630257 L153.876671,192.635245 L147.653755,192.635245 L147.653755,178.926731 L153.876671,178.926731 C167.381648,178.926731 178.264485,168.319731 178.264485,155.317623 C178.264485,142.445535 167.598216,131.920894 154.281026,131.711688 L153.876671,131.708514 L110.735515,131.708271 L110.735515,204 L97,204 L97,118 L153.876671,118 Z" id="形状结合" fill="#1F2034"></path>
            <path d="M155,0 C240.604136,0 310,69.3958638 310,155 C310,240.604136 240.604136,310 155,310 C69.3958638,310 0,240.604136 0,155 C0,69.3958638 69.3958638,0 155,0 Z M155,50 C97.0101013,50 50,97.0101013 50,155 C50,212.989899 97.0101013,260 155,260 C212.989899,260 260,212.989899 260,155 C260,97.0101013 212.989899,50 155,50 Z" id="椭圆形备份" stroke="url(#linearGradient-1)"></path>
        </g>
    </g>
</svg>