<?xml version="1.0" encoding="UTF-8"?>
<svg width="60px" height="60px" viewBox="0 0 60 60" version="1.1" xmlns="http://www.w3.org/2000/svg" xmlns:xlink="http://www.w3.org/1999/xlink">
    <title>Arbitrum</title>
    <g id="2022---新官网" stroke="none" stroke-width="1" fill="none" fill-rule="evenodd" opacity="0.5">
        <g id="编组-3" transform="translate(-80.000000, 0.000000)">
            <g id="Arbitrum" transform="translate(80.000000, 0.000000)">
                <circle id="椭圆形" stroke="#E3E7EF" stroke-width="1.5" cx="30" cy="30" r="29.25"></circle>
                <path d="M21.0371393,40.0533498 L30.8020068,23.7870503 L35.1181564,23.7712315 L25.3783863,40.4479548 L29.9221269,43.0860487 C30.1272526,43.1702097 30.3691064,43.1744733 30.5759461,43.0990251 L30.5759461,43.0990251 L34.4162847,40.8524464 L30.3168914,34.3576548 L32.8193522,30.0710688 L38.2031841,38.6370729 L39.2626638,38.0172354 L33.5836614,28.7457499 L35.7661603,25.0073224 L41.632,34.231 L41.6325978,23.8170813 C41.6203857,23.5558239 41.4986,23.3140581 41.3004981,23.1497796 L41.2110218,23.0842877 L30.6197748,16.9345436 C30.372167,16.8115771 30.0578368,16.8130602 29.8105351,16.9384365 C29.795343,16.9461044 27.6131371,18.2205376 25.2324984,19.6118491 L24.6583431,19.9474192 L24.6583431,19.9474192 L24.0826155,20.283945 C21.5931244,21.7391914 19.2296832,23.1218585 19.2066781,23.1384794 C19.0116526,23.2796746 18.8821252,23.488594 18.840439,23.7227864 C18.8340116,23.7581315 18.8294818,23.793971 18.8273393,23.8303666 L18.8273393,23.8303666 L18.8434996,33.7840379 L24.3230079,25.2106805 C25.0128817,24.0738896 26.5159742,23.7077091 27.9113313,23.7276062 L27.9113313,23.7276062 L29.5489706,23.7712315 L19.8996739,39.3923588 L17.0000612,37.7056792 L17,23.7431778 C17.0427881,22.8990965 17.4593446,22.1307724 18.1427298,21.6363731 C18.2724408,21.5426343 18.4103544,21.46008 18.5535323,21.3907491 C18.5535323,21.3907491 20.865351,20.0373105 23.3127427,18.6052238 L23.8789414,18.2739264 L23.8789414,18.2739264 L24.4440101,17.9433182 C26.7878538,16.5720553 28.9474944,15.3094034 28.9882568,15.2886468 C29.7468732,14.9034961 30.6928635,14.9039905 31.4501332,15.288894 L31.4501332,15.288894 L42.1802119,21.5178557 C42.9457454,22.0034805 43.4344724,22.8376133 43.4705882,23.7488009 L43.4705882,23.7488009 L43.4705882,36.2151898 C43.4366761,37.0332566 43.0600307,37.7884189 42.4198008,38.2891828 L42.4198008,38.2891828 L31.2652078,44.8101744 C30.9468987,44.9360451 30.6104704,45 30.2654723,45 C29.8891941,45 29.471597,44.9171985 29.1813848,44.7748911 C29.1445956,44.7568477 29.0404106,44.6989485 28.887561,44.6124394 C28.7888239,44.5565175 28.6685398,44.4878045 28.5335033,44.4102553 L28.5335033,44.4102553 L24.4502091,42.0370645 L21.0371393,40.0533498 Z" id="形状结合" fill="#FFFFFF" fill-rule="nonzero"></path>
            </g>
        </g>
    </g>
</svg>