<?xml version="1.0" encoding="UTF-8"?>
<svg width="40px" height="40px" viewBox="0 0 40 40" version="1.1" xmlns="http://www.w3.org/2000/svg" xmlns:xlink="http://www.w3.org/1999/xlink">
    <title>btn-ecosystem</title>
    <g id="2022---新官网" stroke="none" stroke-width="1" fill="none" fill-rule="evenodd" opacity="0.6">
        <g id="编组" fill="#FFFFFF" fill-rule="nonzero">
            <path d="M21.3770184,0.0481756376 C23.6184987,0.203264475 25.7941913,0.724926927 27.8524059,1.60846333 C29.8730275,2.47320109 31.7291799,3.66221551 33.3691728,5.14260895 C34.9903692,6.60420375 36.353114,8.3054813 37.4245134,10.1947453 C38.5194084,12.1357056 39.2759667,14.2270551 39.6753919,16.4123978 C40.0936136,18.7058327 40.1077109,21.0368649 39.717684,23.3349995 C39.3417544,25.5485402 38.6039925,27.6680876 37.5137967,29.6372459 C36.4564947,31.5453085 35.1031481,33.2653847 33.4913499,34.7410785 C31.8560561,36.235571 30.0046028,37.443384 27.9886803,38.3269204 C25.9351649,39.2245558 23.7594723,39.7650169 21.5226911,39.9342047 C21.0104871,39.9812014 20.5029821,40 19.9954771,40 C19.3563968,40 18.7079182,39.9671024 18.073537,39.9107064 C16.1797917,39.7274196 14.3283384,39.2809518 12.5661683,38.5713028 C10.8603878,37.8851522 9.2532887,36.9687182 7.79186237,35.8360997 C6.34453339,34.7175802 5.0569745,33.4063746 3.96207953,31.9400801 C2.8530872,30.4502874 1.95555527,28.8195047 1.29767846,27.0900292 C0.625704294,25.3229564 0.20748261,23.46659 0.0618098886,21.5726264 C-0.097960193,19.5282735 0.0524116485,17.4886203 0.508226293,15.5053631 C0.926447977,13.6912936 1.59842214,11.9477191 2.50535231,10.3122369 C3.39818512,8.70495254 4.51187657,7.2245591 5.80883371,5.91805314 C7.10109172,4.61624684 8.56251805,3.49772735 10.1555198,2.59539229 C11.7861144,1.66955893 13.5341871,0.97870866 15.3480474,0.546339781 C17.3169787,0.0763736079 19.3422994,-0.0928142143 21.3770184,0.0481756376 Z M20.028371,2.28991428 C16.5792169,2.28991428 13.1770539,3.30034155 10.2729978,5.21310388 C7.31255212,7.15876383 4.94889474,10.0255575 3.6049464,13.2824231 C2.06363503,17.0233538 1.86157287,21.2201517 3.03165376,25.1114716 C4.10305313,28.6691156 6.34923251,31.8789845 9.36136846,34.1536208 C12.2701238,36.3483628 15.879048,37.6125718 19.5255651,37.7065651 C20.3620085,37.7300634 21.203151,37.6924661 22.025497,37.5984729 C25.197403,37.2365989 28.2189372,36.0146869 30.756462,34.0690269 C33.2563939,32.1515649 35.2065287,29.6043483 36.390707,26.6999573 C37.6735668,23.5605833 38.0260008,19.9841407 37.3775222,16.6332819 C36.6726542,12.9863444 34.7789088,9.57438996 32.0393218,7.03187297 C29.2856375,4.47525699 25.7237045,2.83507504 22.0067005,2.41210549 C21.3535228,2.32751158 20.6909469,2.28991428 20.028371,2.28991428 Z M24.3186676,14.4667378 C24.4737385,14.4667378 24.6194113,14.4949358 24.7603849,14.5560314 L24.7603849,14.5560314 L24.8261725,14.4949358 L29.0083894,18.7622286 C29.6897618,19.4577786 29.6850627,20.5856974 28.9989911,21.2812473 L28.9989911,21.2812473 L24.8167743,25.5062432 L24.7462875,25.440448 C24.6147121,25.4968439 24.4690394,25.5250419 24.3186676,25.5250419 C23.6889855,25.5250419 23.1767814,25.0127787 23.1767814,24.3830241 C23.1767814,24.2420342 23.200277,24.105744 23.2519673,23.9741535 L23.2519673,23.9741535 L23.1814805,23.9036586 L25.8928728,21.1637558 L11.6028487,21.1637558 C10.9731666,21.1637558 10.4609626,20.6514927 10.4609626,20.021738 C10.4609626,19.3919833 10.9731666,18.8797202 11.6028487,18.8797202 L11.6028487,18.8797202 L25.9163684,18.8797202 L23.1814805,16.0881211 L23.2519673,16.0176262 C23.2049761,15.8860357 23.1767814,15.7497455 23.1767814,15.6087556 C23.1767814,14.979001 23.6889855,14.4667378 24.3186676,14.4667378 Z" id="形状结合"></path>
        </g>
    </g>
</svg>