<?xml version="1.0" encoding="UTF-8"?>
<svg width="386px" height="150px" viewBox="0 0 386 150" version="1.1" xmlns="http://www.w3.org/2000/svg" xmlns:xlink="http://www.w3.org/1999/xlink">
    <title>CMBI</title>
    <defs>
        <polygon id="path-1" points="0 0 38.9068734 0 38.9068734 40 0 40"></polygon>
    </defs>
    <g id="2022---新官网" stroke="none" stroke-width="1" fill="none" fill-rule="evenodd">
        <g id="Web-3" transform="translate(-765.000000, -6624.000000)">
            <g id="编组-39" transform="translate(-79.000000, 2280.000000)">
                <g id="编组-41" transform="translate(438.000000, 4344.000000)">
                    <g id="CMBI" transform="translate(406.000000, 0.000000)">
                        <path d="M10,0 L376,0 C381.522847,-1.01453063e-15 386,4.4771525 386,10 L386,140 C386,145.522847 381.522847,150 376,150 L10,150 C4.4771525,150 6.76353751e-16,145.522847 0,140 L0,10 C-6.76353751e-16,4.4771525 4.4771525,1.01453063e-15 10,0 Z" id="矩形备份-2" fill="#FFFFFF" opacity="0.05"></path>
                        <g id="编组" transform="translate(115.000000, 55.000000)">
                            <g>
                                <mask id="mask-2" fill="white">
                                    <use xlink:href="#path-1"></use>
                                </mask>
                                <g id="Clip-2"></g>
                                <path d="M36.7094164,28.0957902 L32.4776323,34.2044389 L7.52981494,34.2044389 L3.29360202,27.8605861 L14.1184953,1.34465715 L19.873072,15.0626749 L25.781921,1.4689159 L30.7990911,13.6943494 L38.9068734,13.6943494 C36.2709584,5.73809141 28.784694,0 19.9594349,0 C8.93524261,0 0,8.95402611 0,19.9997411 C0,31.0454561 8.93524261,40.0002219 19.9594349,40.0002219 C28.744096,40.0002219 36.2030491,34.3131653 38.8707043,26.4138593 L36.0185129,26.4138593 L36.7094164,28.0957902 Z" id="Fill-1" fill="#FFFFFF" mask="url(#mask-2)"></path>
                            </g>
                            <path d="M31.6087621,15.6664392 L39.4485979,15.6664392 C39.3740452,15.3232484 39.2891586,14.9837558 39.1961523,14.6479613 L31.1909722,14.6479613 L31.6087621,15.6664392 Z" id="Fill-3" fill="#FFFFFF"></path>
                            <path d="M32.4131923,17.6275085 L39.7798772,17.6275085 C39.7400174,17.2887555 39.6912999,16.952961 39.6344627,16.6193855 L31.9990931,16.6193855 L32.4131923,17.6275085 Z" id="Fill-5" fill="#FFFFFF"></path>
                            <path d="M32.8038923,18.5808985 L33.2113482,19.57201 L39.914441,19.57201 C39.9070596,19.2399137 39.8930348,18.908557 39.8694142,18.5808985 L32.8038923,18.5808985 Z" id="Fill-7" fill="#FFFFFF"></path>
                            <path d="M34.043016,21.5990547 L39.8566443,21.5990547 C39.8839556,21.2440298 39.9024093,20.8860462 39.9120051,20.5251041 L33.6016054,20.5251041 L34.043016,21.5990547 Z" id="Fill-9" fill="#FFFFFF"></path>
                            <path d="M34.8179204,23.4886013 L39.6158615,23.4886013 C39.6704842,23.1786941 39.7184636,22.8665679 39.7575853,22.5522229 L34.4340851,22.5522229 L34.8179204,23.4886013 Z" id="Fill-11" fill="#FFFFFF"></path>
                            <path d="M35.6274438,25.4604693 L39.1661098,25.4604693 C39.2613305,25.1239352 39.3469553,24.7844425 39.4259368,24.4419913 L35.2096538,24.4419913 L35.6274438,25.4604693 Z" id="Fill-13" fill="#FFFFFF"></path>
                            <polygon id="Fill-15" fill="#FFFFFF" points="18.0597455 27.7302624 12.3435523 13.5410969 6.58823745 27.8604382 29.5851382 27.8604382 23.8534439 13.7126923"></polygon>
                            <path d="M53.2124146,36.9313267 C52.7769091,37.1754064 52.3052346,37.2967066 51.7996054,37.2967066 C50.9728833,37.2967066 50.4067262,36.9291078 50.1026106,36.1916913 C49.9387424,35.7989449 49.8575465,35.2982117 49.8575465,34.6880125 C49.8575465,33.8603605 49.9955796,33.2013454 50.2716457,32.7109671 C50.5499263,32.21837 51.0186483,31.9713317 51.680026,31.9713317 C52.2624222,31.9720714 52.7850287,32.2013583 53.2463692,32.6614116 C53.4936477,32.9106687 53.7350211,33.250901 53.9719655,33.682848 L54.2214585,33.682848 L54.2214585,31.6932288 L53.9476068,31.6932288 C53.9291531,31.7849436 53.8811737,31.8722206 53.8036685,31.9550598 C53.7298541,32.0378989 53.6302045,32.0793185 53.505458,32.0793185 C53.4574786,32.0793185 53.2242249,32.0149702 52.8042205,31.8847944 C52.3842161,31.75166 51.9686406,31.6850928 51.5589702,31.6850928 C50.6111923,31.6850928 49.8103053,31.9543201 49.1555708,32.4912954 C48.4609766,33.0645128 48.1133104,33.8137635 48.1133104,34.7383078 C48.1133104,35.6717276 48.4764776,36.4135819 49.2042884,36.9646103 C49.8604991,37.4631246 50.6746728,37.7123817 51.6453332,37.7123817 C52.2801377,37.7123817 52.8573669,37.563715 53.3762827,37.2678608 C53.6671117,37.1014428 54.0051821,36.8329552 54.3904936,36.4623979 L54.0974502,36.2538207 C53.7571654,36.5644675 53.4626456,36.7900563 53.2124146,36.9313267" id="Fill-17" fill="#FFFFFF"></path>
                            <path d="M59.5183854,35.7308245 L59.4371895,35.7308245 L57.5002976,31.7930056 L55.0201311,31.7930056 L55.0201311,32.0089792 C55.3471293,32.0311682 55.5737397,32.0792445 55.7021769,32.1546873 C55.8306141,32.226432 55.8948327,32.3787969 55.8948327,32.611782 L55.8948327,36.648712 C55.8948327,36.8728215 55.8387337,37.042198 55.7265357,37.1553623 C55.6143377,37.2663076 55.3707499,37.3232595 54.9957724,37.326218 L54.9957724,37.5421916 L57.2980459,37.5421916 L57.2980459,37.326218 C56.8817323,37.312165 56.6115713,37.2404203 56.4905155,37.1102445 C56.3687217,36.9800687 56.3074556,36.7737104 56.3074556,36.4911697 L56.3074556,32.6406278 L56.3510062,32.6406278 L58.7883603,37.5421916 L59.0526161,37.5421916 L61.4656114,32.540777 L61.5372114,32.540777 L61.5372114,36.6990072 C61.5372114,36.9564003 61.4641351,37.1235579 61.3165061,37.2012197 C61.1688772,37.2759228 60.9496482,37.3180821 60.658081,37.326218 L60.658081,37.5421916 L63.9265861,37.5421916 L63.9265861,37.326218 C63.5929447,37.3151235 63.3655961,37.2611301 63.2438022,37.1634983 C63.1220083,37.0673457 63.0614804,36.8624666 63.0614804,36.5488612 L63.0614804,32.7900342 C63.0614804,32.4608964 63.1220083,32.2537985 63.2438022,32.1709593 C63.3655961,32.0851616 63.5929447,32.0311682 63.9265861,32.0089792 L63.9265861,31.7930056 L61.4456815,31.7930056 L59.5183854,35.7308245 Z" id="Fill-19" fill="#FFFFFF"></path>
                            <path d="M68.2622271,36.9396106 C68.0762146,37.1585427 67.7506928,37.2680087 67.2863997,37.2680087 C67.058313,37.2680087 66.9047789,37.206619 66.8250592,37.0853188 C66.7763417,37.0157931 66.7505066,36.906327 66.747554,36.7569207 L66.747554,34.6304689 C67.282709,34.6223329 67.675402,34.6785452 67.9256331,34.8005851 C68.3389942,35.0002866 68.5456747,35.401169 68.5456747,36.0047115 C68.5456747,36.409292 68.4511922,36.7206785 68.2622271,36.9396106 L68.2622271,36.9396106 Z M66.747554,32.4618579 C66.747554,32.3065345 66.7874138,32.200027 66.8678716,32.1423354 C66.9483294,32.0816853 67.0900532,32.0506206 67.2952574,32.0506206 C67.6835216,32.0506206 67.9448249,32.161566 68.0791672,32.3827169 C68.2172003,32.6046076 68.2858477,32.877533 68.2858477,33.2014933 C68.2851096,33.6386178 68.1817693,33.9433476 67.9736125,34.114943 C67.7647175,34.2872781 67.3565235,34.3723362 66.747554,34.3723362 L66.747554,32.4618579 Z M69.4535928,34.7798753 C69.1849081,34.6356464 68.8675058,34.5335767 68.5021242,34.4721869 L68.5021242,34.3937856 C68.8483141,34.3383129 69.1686689,34.2081371 69.4631887,34.0032581 C69.7613992,33.7954205 69.9097663,33.5158384 69.9097663,33.1645116 C69.9097663,32.585377 69.5451227,32.1867136 68.8143594,31.9677815 C68.4268334,31.8516587 67.9396578,31.7932275 67.3535709,31.7932275 L64.3101999,31.7932275 L64.3101999,32.0092011 C64.595862,32.0232541 64.7936848,32.0557981 64.9021921,32.1090518 C65.0845138,32.1948495 65.1760438,32.3627468 65.1760438,32.6112643 L65.1760438,36.7280749 C65.1760438,36.977332 65.0786087,37.1459689 64.8830003,37.2347251 C64.7678497,37.2872393 64.5766702,37.3175643 64.3101999,37.3257003 L64.3101999,37.5416738 L67.4783173,37.5416738 C68.3146354,37.5416738 68.9848709,37.3967053 69.4875475,37.1060286 C69.9909622,36.8123933 70.2419314,36.4307415 70.2419314,35.9595937 C70.2419314,35.455902 69.9791519,35.062416 69.4535928,34.7798753 L69.4535928,34.7798753 Z" id="Fill-21" fill="#FFFFFF"></path>
                            <path d="M73.3377106,32.0092011 C73.6322304,32.0202956 73.8374347,32.0520999 73.9525852,32.104614 C74.1415503,32.1904117 74.236771,32.3597882 74.236771,32.6112643 L74.236771,36.7280749 C74.236771,36.9802906 74.1371214,37.1504067 73.9378224,37.2384233 C73.8167666,37.2916771 73.6159912,37.3205228 73.3377106,37.3257003 L73.3377106,37.5416738 L76.7789416,37.5416738 L76.7789416,37.3257003 C76.4711352,37.3257003 76.2408341,37.28576 76.0873,37.2051397 C75.9337658,37.1252591 75.8562606,36.9662375 75.8562606,36.7280749 L75.8562606,32.6112643 C75.8562606,32.3568297 75.9522195,32.1867136 76.1448753,32.1009159 C76.2600258,32.0506206 76.4711352,32.0202956 76.7789416,32.0092011 L76.7789416,31.7932275 L73.3377106,31.7932275 L73.3377106,32.0092011 Z" id="Fill-23" fill="#FFFFFF"></path>
                            <path d="M81.7924948,32.0092011 C82.1571383,32.0343487 82.4007261,32.1090518 82.52252,32.2333106 C82.6443139,32.3553504 82.7048418,32.5602294 82.7048418,32.8479476 L82.7048418,35.3782403 L82.6576005,35.3782403 L79.2739448,31.7932275 L77.1879476,31.7932275 L77.1879476,32.0092011 C77.3097415,32.0232541 77.4057004,32.0557981 77.4758241,32.1090518 C77.5459479,32.1586074 77.7326985,32.3294632 78.0338616,32.6201399 L78.0338616,36.6489339 C78.0338616,36.867866 77.9807151,37.0335443 77.8744223,37.1474482 C77.7688676,37.2583935 77.5333994,37.3175643 77.1680177,37.3257003 L77.1680177,37.5416738 L79.3986913,37.5416738 L79.3986913,37.3257003 C78.9912354,37.3123869 78.7225507,37.2177135 78.5911609,37.0438992 C78.5077505,36.9359124 78.4656763,36.7517432 78.4656763,36.4913916 L78.4656763,33.1511981 L78.5335856,33.1511981 L82.8635429,37.6999558 L83.1373946,37.6999558 L83.1373946,32.6904053 C83.1373946,32.4300536 83.1898029,32.262896 83.2916669,32.1874532 C83.3972216,32.1134897 83.6046403,32.0535792 83.9117085,32.0092011 L83.9117085,31.7932275 L81.7924948,31.7932275 L81.7924948,32.0092011 Z" id="Fill-25" fill="#FFFFFF"></path>
                            <path d="M84.3781422,31.7932275 L84.3685463,33.508442 L84.6519939,33.508442 C84.7125218,32.9026806 84.9782539,32.4884848 85.4499284,32.2665942 C85.7060646,32.1475129 86.075137,32.0831646 86.5556693,32.0713304 L86.5556693,36.5490831 C86.5556693,36.85973 86.4907125,37.0668279 86.3622753,37.1718561 C86.238267,37.2746655 85.9836071,37.3257003 85.5982955,37.3257003 L85.5982955,37.5416738 L89.1074358,37.5416738 L89.1074358,37.3257003 C88.7073613,37.3257003 88.4431055,37.2746655 88.3146683,37.1718561 C88.1891837,37.0697864 88.1271795,36.8626885 88.1271795,36.5490831 L88.1271795,32.0713304 C88.6173077,32.0831646 88.9856419,32.1475129 89.2329204,32.2665942 C89.6713784,32.4833074 89.9371105,32.8967635 90.0301168,33.508442 L90.3143025,33.508442 L90.3039685,31.7932275 L84.3781422,31.7932275 Z" id="Fill-27" fill="#FFFFFF"></path>
                            <path d="M95.6637116,36.9562524 C95.2665897,37.1670485 94.7535791,37.2720767 94.126156,37.2720767 C93.7925146,37.2720767 93.5710711,37.2402724 93.4625638,37.1766638 C93.356271,37.1100966 93.3038627,36.9873171 93.3038627,36.8068461 L93.3038627,34.7462218 C93.8641146,34.7462218 94.2523788,34.8460726 94.4671789,35.0457742 C94.6849316,35.2425172 94.8288698,35.5827495 94.8997317,36.0672107 L95.1499628,36.0672107 L95.1499628,33.1929875 L94.8997317,33.1929875 C94.7934389,33.6744902 94.6413811,34.0073261 94.4435583,34.190016 C94.2442592,34.3697474 93.8641146,34.4570244 93.3038627,34.451847 L93.3038627,32.4829375 C93.3038627,32.321697 93.3429844,32.2151895 93.4241803,32.163415 C93.5075907,32.1072028 93.6995083,32.0798362 94.0006714,32.0798362 C94.7919626,32.0798362 95.3374516,32.1811663 95.6349239,32.3830868 C95.936087,32.5850072 96.1486727,32.960742 96.2741573,33.5088118 L96.5147925,33.5088118 L96.5147925,31.7935973 L90.842888,31.7935973 L90.842888,32.0095709 C91.1278119,32.0228843 91.3248965,32.0561679 91.4348801,32.108682 C91.623107,32.1952194 91.7168514,32.362377 91.7168514,32.6116341 L91.7168514,36.7277051 C91.7168514,36.9717848 91.6260596,37.1382027 91.4429997,37.2262193 C91.3248965,37.2846505 91.1248593,37.3179341 90.842888,37.3260701 L90.842888,37.5420436 L96.5967266,37.5420436 L96.9953248,35.7720961 L96.7214731,35.7720961 C96.4136667,36.3512307 96.0608335,36.746196 95.6637116,36.9562524" id="Fill-29" fill="#FFFFFF"></path>
                            <path d="M101.24881,34.3769219 C100.973482,34.5233697 100.513618,34.6010314 99.8699558,34.6091674 L99.8699558,32.4457339 C99.8699558,32.315558 99.9098156,32.222364 99.9895353,32.1668913 C100.072946,32.1091998 100.24641,32.0796144 100.508451,32.0796144 C100.992674,32.0796144 101.325577,32.2415945 101.508637,32.5655548 C101.614192,32.7571204 101.6666,33.017472 101.6666,33.3466098 C101.6666,33.8835851 101.527829,34.2275155 101.24881,34.3769219 M103.786552,37.1683059 L101.806848,34.7467396 C102.143442,34.6912669 102.461582,34.56331 102.762745,34.3643481 C103.156915,34.098819 103.353999,33.7341787 103.353999,33.2719066 C103.353999,32.6461751 102.95983,32.2127487 102.172229,31.9716276 C101.764035,31.8525463 101.233309,31.7933755 100.57636,31.7933755 L97.408243,31.7933755 L97.408243,32.009349 C97.744837,32.0344966 97.9611134,32.0796144 98.0570722,32.1461815 C98.2017486,32.2460323 98.2740868,32.4605266 98.2740868,32.7896643 L98.2740868,36.5492311 C98.2740868,36.8650554 98.2128208,37.0699344 98.0910269,37.1638681 C97.9699711,37.2585414 97.7418844,37.3125348 97.408243,37.3258482 L97.408243,37.5418218 L100.735062,37.5418218 L100.735062,37.3258482 C100.388872,37.3147537 100.157832,37.2585414 100.042682,37.1557321 C99.9275311,37.0507039 99.8699558,36.8480438 99.8699558,36.5492311 L99.8699558,34.8835721 L100.129045,34.8835721 L102.172229,37.5418218 L104.185888,37.5418218 L104.185888,37.338422 C104.095097,37.3332446 104.020544,37.3206708 103.960016,37.3014403 C103.899488,37.2792512 103.841175,37.2348731 103.786552,37.1683059" id="Fill-31" fill="#FFFFFF"></path>
                            <path d="M109.14135,32.0092011 C109.505993,32.0343487 109.749581,32.1090518 109.872113,32.2333106 C109.993169,32.3553504 110.053697,32.5602294 110.053697,32.8479476 L110.053697,35.3782403 L110.006455,35.3782403 L106.6228,31.7932275 L104.536802,31.7932275 L104.536802,32.0092011 C104.658596,32.0232541 104.754555,32.0557981 104.824679,32.1090518 C104.895541,32.1586074 105.081553,32.3294632 105.382716,32.6201399 L105.382716,36.6489339 C105.382716,36.867866 105.32957,37.0335443 105.223277,37.1474482 C105.117722,37.2583935 104.882254,37.3175643 104.517611,37.3257003 L104.517611,37.5416738 L106.747546,37.5416738 L106.747546,37.3257003 C106.34009,37.3123869 106.071405,37.2177135 105.940016,37.0438992 C105.857343,36.9359124 105.815269,36.7517432 105.815269,36.4913916 L105.815269,33.1511981 L105.88244,33.1511981 L110.212398,37.6999558 L110.486987,37.6999558 L110.486987,32.6904053 C110.486987,32.4300536 110.538658,32.262896 110.640522,32.1874532 C110.746814,32.1134897 110.953495,32.0535792 111.260563,32.0092011 L111.260563,31.7932275 L109.14135,31.7932275 L109.14135,32.0092011 Z" id="Fill-33" fill="#FFFFFF"></path>
                            <path d="M113.423844,35.5358566 L114.31257,33.5669472 L114.394505,33.5669472 L115.336377,35.5358566 L113.423844,35.5358566 Z M117.274007,36.1467954 L115.07655,31.6771787 L114.802699,31.6771787 L112.615576,36.3331836 C112.44285,36.701522 112.309984,36.9396846 112.216977,37.0476714 C112.073039,37.2192668 111.88186,37.3124608 111.645653,37.3257743 L111.645653,37.5417478 L113.654145,37.5417478 L113.654145,37.3257743 C113.429749,37.3235554 113.261452,37.3065437 113.149992,37.2762187 C112.960289,37.220746 112.865807,37.1319898 112.865807,37.0106896 C112.865807,36.9108388 112.909357,36.7518172 112.99572,36.5328851 C113.037794,36.4300758 113.130801,36.2104041 113.274739,35.8723907 L115.486221,35.8723907 L115.735714,36.3871769 C115.790336,36.5010808 115.833887,36.597973 115.865627,36.6778537 C115.916559,36.8139466 115.942394,36.914537 115.942394,36.9811042 C115.941656,37.1282916 115.891462,37.2192668 115.788122,37.2555089 C115.68921,37.291751 115.478839,37.3146797 115.159223,37.3257743 L115.159223,37.5417478 L118.345794,37.5417478 L118.345794,37.3257743 C118.121398,37.3316913 117.948672,37.2621656 117.82614,37.1186763 C117.704346,36.9714889 117.520548,36.6475286 117.274007,36.1467954 L117.274007,36.1467954 Z" id="Fill-35" fill="#FFFFFF"></path>
                            <path d="M118.107225,31.7932275 L118.097629,33.508442 L118.381077,33.508442 C118.442343,32.9026806 118.708075,32.4884848 119.17975,32.2665942 C119.435886,32.1475129 119.80422,32.0831646 120.284752,32.0713304 L120.284752,36.5490831 C120.284752,36.85973 120.220534,37.0668279 120.092096,37.1718561 C119.968088,37.2746655 119.71269,37.3257003 119.328117,37.3257003 L119.328117,37.5416738 L122.837257,37.5416738 L122.837257,37.3257003 C122.436444,37.3257003 122.172188,37.2746655 122.043751,37.1718561 C121.919005,37.0697864 121.856263,36.8626885 121.856263,36.5490831 L121.856263,32.0713304 C122.347129,32.0831646 122.714725,32.1475129 122.962003,32.2665942 C123.4012,32.4833074 123.666932,32.8967635 123.759938,33.508442 L124.044124,33.508442 L124.03379,31.7932275 L118.107225,31.7932275 Z" id="Fill-37" fill="#FFFFFF"></path>
                            <path d="M124.572414,32.0092011 C124.866934,32.0202956 125.072138,32.0520999 125.187288,32.104614 C125.376254,32.1904117 125.470736,32.3597882 125.470736,32.6112643 L125.470736,36.7280749 C125.470736,36.9802906 125.371825,37.1504067 125.172526,37.2384233 C125.050732,37.2916771 124.851433,37.3205228 124.572414,37.3257003 L124.572414,37.5416738 L128.013645,37.5416738 L128.013645,37.3257003 C127.705838,37.3257003 127.475537,37.28576 127.322003,37.2051397 C127.167731,37.1252591 127.090964,36.9662375 127.090964,36.7280749 L127.090964,32.6112643 C127.090964,32.3568297 127.186923,32.1867136 127.379578,32.1009159 C127.494729,32.0506206 127.705838,32.0202956 128.013645,32.0092011 L128.013645,31.7932275 L124.572414,31.7932275 L124.572414,32.0092011 Z" id="Fill-39" fill="#FFFFFF"></path>
                            <path d="M133.579404,36.29169 C133.304076,37.0475974 132.797709,37.4255511 132.06104,37.4255511 C131.317729,37.4255511 130.809147,37.0475974 130.53751,36.29169 C130.389881,35.8848905 130.316066,35.3501342 130.316066,34.6881605 C130.316066,34.038021 130.388404,33.508442 130.532342,33.1016425 C130.80767,32.3346406 131.317729,31.9507699 132.06104,31.9507699 C132.596195,31.9507699 133.018414,32.1807965 133.329911,32.6401101 C133.643623,33.1001633 133.800848,33.7828467 133.800848,34.6881605 C133.800848,35.3471756 133.727033,35.881932 133.579404,36.29169 M132.06104,31.664531 C131.029114,31.664531 130.186153,31.9552077 129.532894,32.5365611 C128.885541,33.1097785 128.561496,33.8420176 128.561496,34.7340179 C128.561496,35.5424394 128.870779,36.2317795 129.489344,36.8027781 C130.152198,37.4092791 131.009922,37.7125296 132.06104,37.7125296 C133.050892,37.71179 133.8754,37.4351663 134.536778,36.8811794 C135.21218,36.3138791 135.550251,35.5831193 135.550251,34.6881605 C135.550251,33.7939413 135.21218,33.0631815 134.536778,32.4951415 C133.879091,31.9411546 133.053845,31.664531 132.06104,31.664531" id="Fill-41" fill="#FFFFFF"></path>
                            <path d="M140.684048,32.0092011 C141.048691,32.0343487 141.292279,32.1090518 141.414073,32.2333106 C141.535867,32.3553504 141.596395,32.5602294 141.596395,32.8479476 L141.596395,35.3782403 L141.549153,35.3782403 L138.165498,31.7932275 L136.079501,31.7932275 L136.079501,32.0092011 C136.201294,32.0232541 136.297253,32.0557981 136.367377,32.1090518 C136.437501,32.1586074 136.623513,32.3294632 136.924676,32.6201399 L136.924676,36.6489339 C136.924676,36.867866 136.872268,37.0335443 136.765975,37.1474482 C136.66042,37.2583935 136.424952,37.3175643 136.059571,37.3257003 L136.059571,37.5416738 L138.290244,37.5416738 L138.290244,37.3257003 C137.882788,37.3123869 137.614104,37.2177135 137.482714,37.0438992 C137.399303,36.9359124 137.357229,36.7517432 137.357229,36.4913916 L137.357229,33.1511981 L137.425138,33.1511981 L141.755096,37.6999558 L142.028947,37.6999558 L142.028947,32.6904053 C142.028947,32.4300536 142.081356,32.262896 142.18322,32.1874532 C142.288774,32.1134897 142.495455,32.0535792 142.803261,32.0092011 L142.803261,31.7932275 L140.684048,31.7932275 L140.684048,32.0092011 Z" id="Fill-43" fill="#FFFFFF"></path>
                            <path d="M144.966616,35.5358566 L145.855342,33.5669472 L145.937276,33.5669472 L146.879887,35.5358566 L144.966616,35.5358566 Z M148.816779,36.1467954 L146.619322,31.6771787 L146.345471,31.6771787 L144.158348,36.3331836 C143.985622,36.701522 143.852756,36.9396846 143.759749,37.0476714 C143.615073,37.2192668 143.424632,37.3124608 143.188425,37.3257743 L143.188425,37.5417478 L145.196917,37.5417478 L145.196917,37.3257743 C144.972521,37.3235554 144.804224,37.3065437 144.692026,37.2762187 C144.503061,37.220746 144.408579,37.1319898 144.408579,37.0106896 C144.408579,36.9108388 144.452129,36.7518172 144.538492,36.5328851 C144.580566,36.4300758 144.673573,36.2104041 144.817511,35.8723907 L147.028254,35.8723907 L147.278486,36.3871769 C147.33237,36.5010808 147.375921,36.597973 147.408399,36.6778537 C147.459331,36.8139466 147.484428,36.914537 147.484428,36.9811042 C147.484428,37.1282916 147.433496,37.2192668 147.330894,37.2555089 C147.231244,37.291751 147.021611,37.3146797 146.701256,37.3257743 L146.701256,37.5417478 L149.887827,37.5417478 L149.887827,37.3257743 C149.663431,37.3316913 149.490705,37.2621656 149.368912,37.1186763 C149.247856,36.9714889 149.06332,36.6475286 148.816779,36.1467954 L148.816779,36.1467954 Z" id="Fill-45" fill="#FFFFFF"></path>
                            <path d="M155.064141,36.9356166 C154.664067,37.1597261 154.167296,37.2721507 153.574565,37.2721507 C153.243876,37.2721507 153.021695,37.2418256 152.906544,37.1804359 C152.794346,37.1197858 152.738985,36.9955271 152.738985,36.80692 L152.738985,32.7899602 C152.738985,32.4519468 152.803204,32.2404111 152.935332,32.1546134 C153.069674,32.0688157 153.337621,32.0199997 153.737695,32.0089052 L153.737695,31.7929317 L150.296464,31.7929317 L150.296464,32.0089052 C150.581388,32.0229583 150.778473,32.0562419 150.888456,32.108756 C151.073731,32.1945537 151.166737,32.3624509 151.166737,32.6117081 L151.166737,36.727779 C151.166737,36.9770362 151.068564,37.1464127 150.873694,37.2344293 C150.757805,37.287683 150.565149,37.3180081 150.296464,37.3261441 L150.296464,37.5421176 L155.997895,37.5421176 L156.396493,35.6146278 L156.10714,35.6146278 C155.816311,36.2684655 155.468645,36.7085485 155.064141,36.9356166" id="Fill-47" fill="#FFFFFF"></path>
                            <path d="M65.6023224,10.2824113 C65.4185243,10.5287099 65.1424582,11.266866 65.0199261,11.4909755 C64.896656,11.715085 64.5283217,12.2905214 64.4367918,12.6595995 C64.3445237,13.0279379 64.0987215,13.3666909 63.7613893,13.735769 C63.4240571,14.104847 63.0247208,14.350406 62.8719248,14.350406 C62.7176526,14.350406 62.3190544,14.0427176 62.1345182,13.8896131 C61.9507201,13.735769 62.0127243,13.4591453 62.0127243,13.3356262 C62.0127243,13.2128467 62.2880523,12.7823789 62.2880523,12.7823789 C62.2880523,12.7823789 62.5958587,12.2291316 62.7796567,12.0131581 C62.9634548,11.7979242 63.0557229,11.2358013 63.0557229,11.0205674 C63.0557229,10.8053335 63.1472528,10.1899569 63.1782549,9.97472296 C63.209257,9.75948906 63.6388573,9.66703464 63.6388573,9.66703464 L64.2529937,9.63670958 C64.2529937,9.63670958 64.7128579,9.57531985 64.805126,9.54425516 C64.896656,9.51319047 65.2347263,9.48286542 65.3875223,9.51319047 C65.5417945,9.54425516 65.7868586,10.0361127 65.6023224,10.2824113 M65.1424582,21.7186538 C65.1114561,21.902823 65.0199261,22.0877319 65.0199261,22.241576 C65.0199261,22.3954202 65.0501901,22.856213 65.0811922,23.0100572 C65.1114561,23.1639014 64.8021734,23.322923 64.805126,23.5026544 C64.810293,23.7999878 64.3710969,23.6380076 64.1762267,23.7474737 C63.7569604,23.9834174 63.0321022,23.6283924 62.8564238,23.6942199 C62.4349431,23.8532415 61.6436519,23.7474737 61.6436519,23.7474737 L61.062732,23.7474737 C61.062732,23.7474737 60.7541874,23.3495498 60.6936596,23.1653806 C60.6316554,22.9812114 60.8058576,22.0877319 60.8058576,21.9649524 C60.8058576,21.8414333 60.6936596,21.2083054 60.6936596,21.2083054 L60.9040308,20.6802057 L61.5373591,20.4679303 L62.4873514,20.4154162 L63.2801189,20.4679303 C63.5554469,20.4679303 64.2780906,20.5211841 64.4928908,20.5211841 C64.708429,20.5211841 65.0501901,20.7341991 65.1424582,20.8880432 C65.2347263,21.0418874 65.1727221,21.5337449 65.1424582,21.7186538 M60.0588551,17.2416407 C59.7835271,17.1188613 59.8706281,16.5271529 59.9008921,16.3429837 C59.9318942,16.1580749 60.6523235,15.3348607 60.6523235,15.3348607 C60.6523235,15.3348607 61.0206577,14.7816134 61.1741918,14.6277692 C61.3277259,14.4739251 61.5735282,14.6277692 61.5735282,14.6277692 L61.7883283,14.9968473 C61.7883283,14.9968473 61.9204562,15.1196268 61.8894541,15.3045356 C61.858452,15.4887048 62.3190544,15.8052688 62.3190544,15.8052688 C62.3190544,15.8052688 62.9944569,16.0508277 63.1472528,16.0818924 C63.3015251,16.1129571 63.5163252,16.3895808 63.5465892,16.6972691 C63.5768531,17.0042178 63.0557229,17.1580619 62.8099207,17.1277369 C62.5648566,17.0966722 62.0658707,17.3474086 62.0658707,17.3474086 C62.0658707,17.3474086 61.1741918,17.2194517 61.0516598,17.2505164 C60.9283896,17.2808414 60.3356594,17.3651598 60.0588551,17.2416407 M59.1177205,12.1056125 C59.1177205,12.1056125 58.8423925,12.7513142 58.7198604,12.9051584 C58.5965902,13.0590026 58.289522,13.181782 58.3205241,13.5205351 C58.3515262,13.8585484 58.0747219,14.3200809 57.9824538,14.5353148 C57.8901857,14.7505487 57.5535917,14.7505487 57.3601977,14.689159 C57.1668038,14.6277692 56.9305975,14.350406 56.8685933,14.1351721 C56.8073273,13.9199382 56.1629269,13.4894704 56.0396567,13.4280806 C55.9171247,13.3666909 55.8248566,13.181782 55.8248566,12.9976128 C55.8248566,12.812704 56.193929,12.3822362 56.469257,12.5360803 C56.7460613,12.6899245 56.8995954,12.4133009 57.1453976,12.2905214 C57.3904617,12.1670023 57.6141195,11.4599108 57.6761237,11.3282557 C57.7373897,11.195861 57.9211878,10.8053335 57.9211878,10.4976452 C57.9211878,10.1899569 58.1359879,9.91333322 58.1972539,9.69809932 C58.2592581,9.48286542 58.5043221,9.23656683 58.4733201,9.42147568 C58.4430561,9.6056449 59.1177205,9.51319047 59.1177205,9.51319047 C59.1177205,9.51319047 59.5480589,9.54425516 59.6705909,9.63670958 C59.7938611,9.72842437 59.854389,10.2513466 59.9163931,10.4673201 C59.9776591,10.682554 59.701593,11.3282557 59.5170568,11.5826903 C59.3332587,11.8386042 59.1177205,12.1056125 59.1177205,12.1056125 M68.8346584,5.32241631 C68.6198583,5.35274137 67.0239892,5.22996189 66.839453,5.32241631 C66.655655,5.4141311 65.8791267,5.59903995 65.7255926,5.66042969 C65.5720584,5.72181943 64.5283217,5.90598864 64.2529937,5.90598864 C63.9761894,5.90598864 63.5163252,5.93705333 62.9944569,5.78320917 C62.4725885,5.629365 61.6960602,5.56797527 61.5122621,5.66042969 C61.3277259,5.75288412 60.4382615,5.47552084 60.4382615,5.47552084 L59.2099886,5.32241631 L58.228256,5.1988972 L57.8289197,5.01472799 C57.8289197,5.01472799 57.4207256,5.01472799 57.4207256,5.26028694 C57.4207256,5.50658553 57.5225896,6.09089749 57.6761237,6.33719608 C57.8289197,6.58349467 57.8901857,7.02283809 57.9211878,7.17668225 C57.9521898,7.32978678 58.0437198,7.85270901 58.0437198,7.85270901 L58.0437198,8.46808566 C58.0437198,8.46808566 57.8377774,8.80609903 57.5838556,8.83716372 C57.3291956,8.86748877 56.7763252,8.99100788 56.6537932,8.92887851 C56.5312611,8.86748877 55.9171247,8.80609903 55.9481268,8.12933265 L56.0093928,6.67520946 C56.0093928,6.67520946 56.0706588,6.33719608 56.0706588,6.15228723 C56.0706588,5.96811802 56.1629269,5.01472799 56.1319248,4.64564993 C56.1016609,4.27657186 56.2766012,3.90823344 56.0049639,3.76918198 C55.7333266,3.63087016 54.843124,3.53841574 54.843124,3.53841574 L53.247255,2.98516846 L52.7659846,3.0214106 L52.5319927,3.56948042 C52.5319927,3.56948042 52.4404627,4.30689692 52.5319927,4.58426019 C52.6242608,4.86088383 52.7165289,5.50658553 52.7165289,5.50658553 L52.992595,6.8601183 C52.992595,6.8601183 53.1158652,7.48363094 53.0538611,7.79131927 C52.992595,8.09900759 53.2383973,8.46808566 52.8390609,8.62192982 C52.4404627,8.77503435 52.5629948,9.08272267 51.33546,9.05239762 C50.1079252,9.02133293 49.3712567,9.02133293 49.3712567,9.02133293 L48.7792646,9.05239762 C48.7792646,9.05239762 48.5858707,9.14411241 48.8095286,9.57531985 C49.0339246,10.005048 49.0029225,10.5287099 49.1874587,10.9895027 C49.3830671,11.4828395 49.5860569,12.0131581 49.6473229,12.3208464 C49.7085889,12.6285348 49.8318591,13.2439114 50.5987915,13.1203923 C50.9376,13.0663989 51.3657239,13.2128467 51.5502601,13.1203923 C51.7473448,13.0212812 51.9798604,12.7209892 52.4404627,13.0590026 C52.9010651,13.3970159 52.931329,13.8896131 52.931329,14.0427176 C52.931329,14.1965618 52.8693249,15.0885621 52.7165289,15.2734709 C52.5629948,15.4576402 51.7347963,16.1432822 51.212928,16.3895808 C50.6910596,16.6351397 49.739591,16.5123602 49.4937888,16.57375 C49.2487247,16.6351397 48.4419325,16.8503736 48.4419325,16.8503736 L47.5207278,16.8503736 C47.5207278,16.8503736 47.1213914,16.9117633 47.4904638,18.111452 C47.7443856,18.9398436 48.011594,19.7105437 48.2263942,19.8340628 C48.4419325,19.9568423 48.6869965,20.7963284 48.6869965,20.7963284 C48.6869965,20.7963284 48.8191244,21.5337449 49.0951906,21.8414333 L50.1691912,20.9804977 C50.1691912,20.9804977 50.5685276,20.8266535 50.7833277,20.7963284 C50.9981278,20.7652638 51.5502601,20.2645306 51.7650603,19.9257776 C51.9798604,19.5877642 52.2256626,19.8732635 52.3171926,20.0884974 C52.4094607,20.3037313 52.5939969,20.7652638 52.6242608,21.2267963 C52.6552629,21.6875891 52.6796217,23.6786876 52.6552629,23.8717324 C52.5939969,24.3414009 52.2559266,24.2408105 51.9798604,24.2711355 C51.7037943,24.3022002 50.8135916,25.2334012 50.8135916,25.2334012 C50.8135916,25.2334012 50.1079252,25.6328043 50.6607957,26.1557265 C50.9914845,26.4700716 51.7037943,27.0477268 51.7037943,27.0477268 C51.7037943,27.0477268 52.9401868,27.201571 53.369787,27.0780519 C53.7993873,26.9552724 54.720592,26.862818 54.9656561,27.0166621 C55.2114583,27.1705063 55.5797925,26.9863371 55.7023245,26.4944795 C55.8248566,26.0018824 55.7945926,24.5788239 55.7945926,24.2408105 C55.7945926,23.9020575 55.9171247,22.6409791 55.6720606,22.1491216 C55.4262584,21.6572641 55.3037264,19.5877642 55.4572605,19.0034522 C55.6100564,18.4191403 55.5495286,17.9576078 55.8558587,17.8037636 C56.1629269,17.6499195 56.377727,17.3732958 56.8383294,17.8962181 C57.2981936,18.4191403 57.7683918,18.9109978 57.6761237,19.2800759 C57.5838556,19.6491539 57.5225896,20.4272504 57.5535917,20.6728093 C57.5838556,20.9191079 57.6761237,23.8406677 57.6761237,23.8406677 C57.6761237,23.8406677 57.7063876,25.3872454 57.6761237,25.5410895 C57.6451216,25.6949337 57.5225896,26.4634149 57.9521898,26.8938827 C57.9521898,26.8938827 58.105724,27.3250901 58.5043221,27.2940254 C58.9029203,27.2629607 59.9163931,27.0166621 60.1924593,27.0780519 C60.4685254,27.1401812 62.7796567,27.1091166 63.0557229,27.1401812 C63.331789,27.1705063 64.0071915,27.540324 64.4677938,27.3250901 C64.927658,27.1091166 65.6554688,27.1091166 66.0016587,27.1091166 C66.3485868,27.1091166 67.5761215,27.1705063 67.6986536,27.3554151 C67.8211856,27.540324 68.4973262,27.2326357 68.4973262,27.2326357 C68.4973262,27.2326357 68.6501222,26.6786488 68.6501222,26.5558693 C68.6501222,26.4323502 68.9874544,26.0943368 68.7726542,25.5714146 C68.5578541,25.049232 68.6198583,24.3022002 68.6198583,24.3022002 C68.6198583,24.3022002 68.465586,21.1957316 68.465586,20.8577182 C68.465586,20.5189652 68.465586,18.6646992 68.5578541,18.48053 C68.6501222,18.2956212 68.8036563,17.8037636 68.8036563,17.6195944 L68.8036563,16.8814383 C68.8036563,16.8814383 68.5888562,16.6972691 68.31279,16.8200486 C68.0367239,16.942828 67.6373876,17.0352825 67.6373876,17.0352825 C67.6373876,17.0352825 67.0542532,17.0966722 66.7479231,17.0966722 C66.4408549,17.0966722 65.7868586,17.0352825 65.6945905,16.6662044 C65.6023224,16.2971263 65.6237286,15.989438 65.9713948,15.8666585 C66.3175847,15.7438791 66.5633869,15.7128144 66.5633869,15.7128144 C66.5633869,15.7128144 66.9619851,15.2120812 67.2077873,14.8430031 C67.4535895,14.4739251 67.5761215,14.5663795 67.6986536,14.4117957 C67.8211856,14.2579515 67.8831898,13.9813279 68.0057218,13.7047043 C68.128992,13.4280806 68.5578541,12.7823789 68.5578541,12.2905214 C68.5578541,11.7979242 68.7423903,10.928113 68.9269265,10.5287099 C69.1107245,10.1285671 69.5093227,8.9599432 69.5403248,8.68331956 C69.5713269,8.40669592 69.938923,7.98510374 69.8466549,7.48363094 C69.7551249,6.98289778 70.0924571,6.61381972 70.2157273,6.4296505 C70.3382593,6.24474165 70.2157273,5.66042969 70.0009271,5.50658553 C69.786127,5.35274137 69.0487204,5.29135163 68.8346584,5.32241631" id="Fill-49" fill="#FFFFFF"></path>
                            <path d="M90.4527047,22.9338747 L90.0201518,22.9338747 C89.8872858,22.9338747 89.8208527,22.5204186 89.8208527,22.3140603 C89.8208527,22.1069624 89.8872858,21.6247201 89.8872858,21.6247201 L89.8872858,20.8673334 L89.8872858,20.3163051 C89.8872858,20.1779933 89.9869353,19.5825868 89.9869353,19.5825868 C89.9869353,19.5825868 90.1198014,19.3074424 90.3530551,19.3074424 C90.5863089,19.3074424 90.7523914,19.6173496 90.7523914,19.6173496 L90.852041,20.1336151 C90.852041,20.1336151 91.0188617,20.2822818 91.0520782,20.419854 C91.0845566,20.5574262 91.3178104,20.7637845 91.4270558,20.8673334 C91.5370394,20.9708824 91.6942642,21.2112639 91.6603095,21.4531247 C91.6278312,21.6942458 91.5274435,21.831818 91.4270558,22.0381763 C91.3281444,22.2445346 91.1185113,22.5204186 91.1185113,22.5204186 L90.852041,22.6927536 L90.4527047,22.9338747 Z M90.2393808,10.1108159 C90.306552,9.77797994 90.6114058,9.73656036 90.6114058,9.73656036 L90.9834308,9.69514078 L91.5008703,9.61230162 C91.5008703,9.61230162 91.7038601,9.48730323 91.8389406,9.48730323 L92.1437944,9.48730323 C92.1437944,9.48730323 92.3800007,9.32088527 92.5505121,9.32088527 C92.7188092,9.32088527 92.5837287,9.19588689 92.9904464,9.23730647 C93.2650363,9.26615225 93.2451064,9.27502788 93.2945621,9.27946569 C93.4296426,9.27946569 93.4628591,9.44588365 93.5654612,9.69514078 C93.6665871,9.94439791 93.6333705,9.98655713 93.5654612,10.193655 C93.4975519,10.4022322 93.3949498,10.4022322 93.2945621,10.5679105 C93.1926981,10.7343285 93.0229248,10.8179073 92.8538896,10.9835856 C92.6848545,11.1500036 92.4826028,11.4539938 92.4826028,11.4539938 C92.4826028,11.4539938 92.1098397,11.4539938 91.9754974,11.4118345 C91.8389406,11.370415 91.4329609,11.275002 91.4329609,11.275002 L90.8476121,11.275002 C90.8476121,11.275002 90.4076778,11.275002 90.306552,11.2335824 C90.2054262,11.1921628 90.1035622,10.9421661 90.1035622,10.9421661 C90.1035622,10.9421661 90.1714715,10.4436518 90.2393808,10.1108159 L90.2393808,10.1108159 Z M91.2831175,15.5811593 L90.7671543,15.6573417 C90.7671543,15.6573417 90.4586098,15.6950631 90.2858839,15.5049768 C90.1138962,15.3141509 90.148589,15.0848639 90.1138962,14.894038 C90.0799416,14.7039517 90.2179746,14.2845784 90.2519293,14.1322135 C90.2858839,13.979109 90.5272573,13.7505617 90.699245,13.7882831 C90.8697565,13.8267441 91.0424823,13.9029266 91.0424823,13.9029266 L91.499394,13.8267441 C91.499394,13.8267441 91.7400292,13.6359182 91.8086766,13.5212747 C91.8773241,13.4073708 92.1526521,13.4835533 92.3239017,13.4835533 C92.4966276,13.4835533 92.5992297,13.4073708 92.8059102,13.4835533 C93.0118526,13.5597357 93.1491476,13.6359182 93.2871806,13.7505617 C93.4237374,13.8652051 93.5270777,14.01757 93.493123,14.1699349 C93.4584302,14.3222998 93.3897828,14.4746647 93.3897828,14.6277692 C93.3897828,14.7801341 93.3211353,15.0086815 93.1831022,15.1610464 C93.0465454,15.3141509 92.7712174,15.3903333 92.7712174,15.3903333 L92.1526521,15.5811593 L91.7400292,15.5811593 L91.2831175,15.5811593 Z M94.2467689,17.2475578 L94.5774577,17.4154551 C94.5774577,17.4154551 94.7280393,17.5493291 94.8483569,17.6499195 C94.9686745,17.7505099 94.8188311,17.9849743 94.6985135,18.1195879 C94.5774577,18.253462 94.5479319,18.2194387 94.3973504,18.3540524 C94.2467689,18.4879264 94.1567152,18.4546428 94.0363976,18.5219496 C93.9153418,18.5885168 93.6451809,18.7896976 93.5248633,18.8562648 C93.4052838,18.9235716 93.2539641,19.024162 93.044331,19.1920593 C92.8332216,19.3592169 92.5888957,19.4635055 92.5888957,19.4635055 L92.1711057,19.4265237 L91.9009447,19.1247525 C91.9009447,19.1247525 91.7503632,18.7223908 91.6005198,18.6218004 C91.4506764,18.5219496 91.3812908,18.1861551 91.3812908,18.0522811 C91.3812908,17.9184071 91.4410805,17.6832031 91.5702559,17.6499195 C91.6994312,17.6166359 91.841155,17.5493291 91.841155,17.5493291 L92.1415799,17.5160455 C92.1415799,17.5160455 92.3519512,17.4487386 92.4722688,17.5160455 C92.5925864,17.5833523 92.8332216,17.4487386 92.9838031,17.3148646 C93.1343847,17.1809906 93.1941744,17.2808414 93.1941744,17.2808414 C93.1941744,17.2808414 93.4650735,17.1469674 93.6156551,17.1469674 C93.7654985,17.1469674 93.7654985,17.1136838 93.9153418,17.1136838 C94.0666615,17.1136838 94.2467689,17.2475578 94.2467689,17.2475578 L94.2467689,17.2475578 Z M87.9171773,20.6728093 C87.9481794,20.8880432 87.9171773,21.1032771 87.9481794,21.2571213 C87.9784434,21.4109655 87.8869134,21.5958743 87.8869134,21.5958743 C87.8869134,21.5958743 87.8869134,21.902823 87.7946453,22.0263421 C87.7031153,22.1491216 87.7333793,22.3643555 87.6721133,22.4568099 C87.6108472,22.5485247 87.6359442,22.8909759 87.5134121,23.014495 C87.390142,23.1372745 87.4831482,23.2829827 87.4831482,23.2829827 C87.4831482,23.2829827 87.3178038,23.5736594 87.1554119,23.819958 C86.9930201,24.0655169 86.7730529,24.0869663 86.6202569,24.0869663 C86.4667228,24.0869663 86.2733289,24.0588602 86.2733289,24.0588602 L86.0053823,23.7304621 L85.8562771,23.3421535 L86.0983886,22.825888 L86.4047187,22.5485247 C86.4047187,22.5485247 86.804055,20.9191079 86.804055,20.7341991 C86.804055,20.5500299 86.742789,20.1195621 86.742789,20.1195621 C86.742789,20.1195621 86.681523,19.6491539 86.7117869,19.5263745 C86.742789,19.403595 86.865321,19.1572964 86.742789,19.0034522 C86.6202569,18.8496081 86.6505209,18.5115947 86.6505209,18.5115947 L86.5892549,18.111452 L86.6202569,17.7120488 C86.6202569,17.7120488 86.7117869,17.2505164 86.7117869,17.1277369 C86.7117869,17.0042178 86.804055,16.7275941 86.8963231,16.57375 C86.9885912,16.4199058 86.926587,16.0205027 86.926587,16.0205027 L86.865321,15.4576402 C86.865321,15.4576402 86.8350571,14.9657826 86.804055,14.8430031 C86.7730529,14.7202237 86.681523,14.5663795 86.3744547,14.3511456 C86.0673865,14.1351721 86.0983886,14.2890162 85.9448545,14.2890162 C85.7913204,14.2890162 85.2827386,14.2572119 85.2827386,14.2572119 C85.2827386,14.2572119 84.718796,14.129255 84.5955258,14.0989299 C84.4729938,14.0678652 84.5327835,13.5508601 84.5327835,13.4280806 C84.5327835,13.3053012 84.6863176,13.0900673 84.6863176,13.0900673 L84.9933858,12.9976128 C84.9933858,12.9976128 85.330718,12.9665481 85.4229861,12.9665481 C85.5152542,12.9665481 85.8223224,12.9362231 85.9145905,12.9362231 C86.0061205,12.9362231 86.2519227,13.0279379 86.3441908,13.0279379 C86.4364589,13.0279379 86.4364589,12.812704 86.4047187,12.6595995 C86.3744547,12.5057553 86.4667228,12.1366772 86.4667228,12.1366772 L86.7117869,11.8600536 C86.7117869,11.8600536 86.865321,11.5826903 86.8963231,11.4295858 C86.926587,11.2757416 87.1413872,11.0819571 87.2735151,11.1130218 C87.4049049,11.1433469 87.4573131,11.2358013 87.5185792,11.3585808 C87.5798452,11.4820999 87.5185792,11.6751447 87.5488431,11.8903786 C87.5798452,12.1056125 87.6411112,12.1366772 87.5798452,12.2905214 C87.5185792,12.4443656 87.5488431,12.6285348 87.5488431,12.7513142 C87.5488431,12.8748334 87.7031153,13.0590026 87.7031153,13.2128467 C87.7031153,13.3666909 87.6721133,13.7971587 87.6411112,14.0123926 C87.6108472,14.2276265 87.7031153,14.4428604 87.6721133,14.6277692 C87.6411112,14.8119385 87.7333793,15.058237 87.7636432,15.2424063 C87.7946453,15.4273151 87.8559113,15.8052688 87.8559113,15.959113 C87.8559113,16.1129571 87.8869134,16.57375 87.8559113,16.7275941 C87.8256474,16.8814383 87.8256474,17.1891266 87.8559113,17.4960753 C87.8869134,17.8037636 87.8559113,18.0803873 87.9481794,18.2342314 C88.0404475,18.3880756 87.9481794,18.5419198 87.9481794,18.6654389 L87.9481794,19.2497508 C87.9481794,19.403595 87.8869134,19.8643879 87.8869134,20.0271076 C87.8869134,20.1905671 87.8869134,20.4575754 87.9171773,20.6728093 L87.9171773,20.6728093 Z M85.4746562,21.9730884 C85.3011922,21.9730884 85.2672376,22.0145079 84.9572168,21.9730884 C84.6471959,21.9316688 84.4050845,21.7659905 84.4050845,21.7659905 C84.4050845,21.7659905 84.1637111,21.6409921 84.1297564,21.4346338 C84.0950636,21.2275359 84.0950636,20.7719205 84.0950636,20.7719205 C84.0950636,20.7719205 84.1637111,20.2741459 84.3017442,20.1913067 C84.4397773,20.1084675 84.7837527,20.1084675 84.7837527,20.1084675 L85.3011922,20.0670479 L85.7152914,20.356985 L85.9913576,20.8126004 L86.2327309,21.020438 L86.3360712,21.4760534 L86.1633453,21.8488296 C86.1633453,21.8488296 86.0260504,22.0973471 85.8533245,22.1387667 C85.6805986,22.1801863 85.6459058,21.9730884 85.4746562,21.9730884 L85.4746562,21.9730884 Z M84.438301,16.7660552 L85.3122644,16.7349905 L85.6097367,16.6136903 C85.6097367,16.6136903 85.9072091,16.8156107 86.0555762,17.0167916 C86.2039433,17.218712 86.0179308,17.5826127 86.0179308,17.5826127 C86.0179308,17.5826127 85.7581038,17.8644137 85.7211966,18.0263939 C85.6842894,18.1876344 85.4613696,18.4302348 85.4613696,18.4302348 C85.4613696,18.4302348 85.0531756,18.4701751 84.7180578,18.5108551 C84.3844164,18.5507954 84.3475092,18.1476941 84.3475092,18.1476941 C84.3475092,18.1476941 84.3098638,17.6632329 84.3098638,17.4206325 C84.3098638,17.1787717 84.438301,16.7660552 84.438301,16.7660552 L84.438301,16.7660552 Z M83.6064118,10.5886203 C83.4661643,10.5523782 83.3266549,10.0886268 83.3266549,10.0886268 L83.571719,9.44662329 C83.6411046,9.26837116 83.8861687,8.9118669 84.0618471,8.76911726 C84.2360493,8.62636763 84.5158062,8.73287513 84.5158062,8.73287513 C84.5158062,8.73287513 84.7261774,8.69737263 84.8664249,8.9118669 C85.0059343,9.12562152 85.3211221,9.26837116 85.4960624,9.34011579 C85.6702646,9.41112079 85.7403884,9.98137968 85.600879,10.0886268 C85.4606315,10.1958739 85.3211221,10.4451311 85.0406271,10.7306303 C84.7608702,11.0161296 84.6213609,11.0161296 84.6213609,11.0161296 L84.2013565,10.7661328 C84.2013565,10.7661328 83.7466593,10.6233832 83.6064118,10.5886203 L83.6064118,10.5886203 Z M82.8129062,13.4495301 C82.6977556,13.6211255 82.3360646,13.9820675 82.3360646,13.9820675 C82.3360646,13.9820675 81.5440353,13.91624 81.3351403,13.8814771 C81.1277216,13.8467143 81.2030124,13.3311884 81.2030124,13.3311884 C81.2030124,13.3311884 81.4089548,12.8119643 81.4414331,12.6203988 C81.5329631,12.0760271 82.3360646,11.731357 82.5146957,12.3829758 C82.5146957,12.3829758 83.4100653,12.5612279 82.8129062,13.4495301 L82.8129062,13.4495301 Z M91.7016456,24.3724656 L92.1312459,23.9020575 L92.437576,23.5640441 C92.437576,23.5640441 92.6833782,23.2874205 92.8671763,23.4101999 C93.0517124,23.5329794 93.1129785,23.6868236 93.1749826,23.8406677 C93.2362486,23.9945119 93.3897828,24.4338553 93.3897828,24.4338553 C93.3897828,24.4338553 93.6045829,24.5566348 93.6658489,24.6801539 C93.7271149,24.8029334 93.7271149,24.8339981 93.8503851,24.9871026 L94.0961873,25.2947909 C94.0961873,25.2947909 94.2489833,25.6949337 94.4032555,25.6949337 C94.5560515,25.6949337 94.9243858,25.8791029 94.9243858,25.8791029 L95.1391859,26.1867912 C95.1391859,26.1867912 95.2617179,26.248181 95.353986,26.3095707 C95.4462541,26.3709604 95.5695243,26.4944795 95.5695243,26.4944795 L95.792444,26.5558693 L96.0072442,26.7097134 C96.0072442,26.7097134 96.1917804,26.9249473 96.4368444,26.6786488 L96.8664447,26.248181 C96.8664447,26.248181 97.2347789,25.9404926 97.4193151,25.8177132 C97.6038513,25.6949337 97.8799175,25.4175704 97.9411835,25.2023365 C98.0024495,24.9871026 98.1869857,24.710479 98.3405198,24.5876995 C98.4933158,24.46492 98.677852,24.024837 98.739118,23.8717324 C98.800384,23.7178883 98.8623882,23.3488102 98.9229161,23.1639014 C98.9849202,22.9797321 99.0151842,22.2719011 99.0151842,22.2719011 C99.0151842,22.2719011 98.8926521,22.1491216 98.7081159,22.241576 C98.5243179,22.3332908 98.2792538,22.3029658 98.1869857,22.3029658 L97.6341153,22.3029658 C97.6341153,22.3029658 97.2347789,22.1180569 97.0812448,22.0877319 C96.9277107,22.0566672 96.5283744,21.872498 96.5283744,21.872498 C96.5283744,21.872498 96.2523082,21.8111082 96.0375081,21.7800435 C95.822708,21.7489788 95.2004519,21.5034199 95.2004519,21.5034199 L94.6785836,21.2267963 C94.6785836,21.2267963 94.3722535,21.0115624 94.3722535,20.9191079 C94.3722535,20.8266535 94.9694126,20.498995 95.1222086,20.46867 C95.2764808,20.4376053 96.3135742,20.334796 96.3135742,20.334796 L96.7439127,20.334796 C96.9587128,20.334796 97.296045,20.2423415 97.296045,20.2423415 C97.296045,20.2423415 97.5728492,19.8340628 97.7263834,19.7726731 C97.8799175,19.7105437 98.1869857,19.6188289 98.1869857,19.6188289 L98.0784784,18.7231304 L97.9101814,18.111452 C97.9101814,18.111452 97.8422721,17.8629345 98.0260701,17.7712197 C98.2098682,17.6787653 97.9411835,16.9738927 97.9411835,16.9738927 C97.9411835,16.9738927 97.6961194,16.6972691 97.5728492,16.6972691 C97.4495791,16.6972691 97.2347789,16.4199058 97.2347789,16.4199058 C97.2347789,16.4199058 97.0199788,16.2660616 96.9277107,16.4812955 C96.8361808,16.6972691 96.5903785,17.0656075 96.5903785,17.0656075 C96.5903785,17.0656075 96.4368444,17.3429708 96.2833103,17.4043605 C96.1297762,17.4657503 95.94524,17.6195944 95.94524,17.6195944 C95.94524,17.6195944 95.7223203,17.7734386 95.6610543,17.6195944 C95.5997882,17.4657503 95.5075201,16.7889839 95.5997882,16.6662044 C95.6920563,16.5434249 95.669912,16.2971263 95.792444,16.0508277 C95.9149761,15.8052688 95.9149761,15.4273151 95.8847121,15.0885621 C95.85371,14.7505487 95.822708,14.0427176 95.822708,13.8896131 C95.822708,13.735769 95.792444,12.7823789 95.85371,12.5974701 C95.9149761,12.4133009 95.94524,11.8903786 96.0375081,11.7062094 C96.1297762,11.5213006 96.2833103,10.7128791 96.2833103,10.4673201 C96.2833103,10.2210215 96.3445763,9.75948906 96.3445763,9.75948906 C96.3445763,9.75948906 96.5283744,9.32902126 96.5593765,9.1751771 C96.5903785,9.02133293 96.6819085,8.68331956 96.6516446,8.5294754 C96.6206425,8.37563123 96.7129106,7.94516343 96.7129106,7.76099422 C96.7129106,7.57608537 96.5903785,6.98289778 96.5903785,6.98289778 L96.5903785,6.24474165 C96.5903785,6.24474165 96.5283744,5.7839488 96.3755784,5.7839488 C96.2220443,5.7839488 95.792444,5.90672828 95.792444,5.90672828 C95.792444,5.90672828 95.5075201,5.9991827 95.3849881,5.9991827 C95.2617179,5.9991827 94.9243858,6.24474165 94.9243858,6.24474165 C94.9243858,6.24474165 94.6483196,6.36752113 94.4947855,6.33719608 C94.3412514,6.30613139 94.0039192,6.49104024 94.0039192,6.49104024 C94.0039192,6.49104024 93.696851,6.73659919 93.5123148,6.70627414 C93.3285167,6.67520946 92.9904464,6.55242998 92.8981783,6.55242998 C92.8066484,6.55242998 92.1002438,6.49104024 91.9164458,6.52136529 C91.7326477,6.55242998 91.4477238,6.52136529 91.2941897,6.55242998 C91.1406556,6.58349467 90.7110553,6.58349467 90.6187872,6.55242998 C90.5265191,6.52136529 89.9743868,6.49104024 89.9743868,6.49104024 L89.5750505,6.49104024 C89.5750505,6.49104024 89.2997225,6.15228723 89.1151863,6.06057244 C88.929912,5.96811802 88.6538458,5.81427385 88.5623159,5.69149438 C88.4700478,5.56797527 88.1932435,5.44519579 88.1932435,5.44519579 L87.8256474,5.26028694 C87.8256474,5.26028694 87.7636432,5.10718241 87.5798452,5.13750747 C87.3960471,5.16857215 87.303779,5.53765022 87.303779,5.53765022 L87.334043,6.02950775 C87.334043,6.02950775 87.3960471,6.24474165 87.334043,6.4296505 C87.2735151,6.61381972 87.303779,6.82017799 87.365045,6.98289778 C87.4263111,7.14561757 87.334043,7.60715006 87.334043,7.60715006 L86.9885912,8.03761786 C86.9885912,8.03761786 86.7730529,8.19146202 86.5279889,8.12933265 C86.2821866,8.06794291 86.0983886,7.91409875 85.9751184,7.91409875 C85.8525864,7.91409875 85.6385244,7.66853979 85.6385244,7.51469563 C85.6385244,7.36085147 85.6075223,7.10567726 85.6997904,7.01396247 C85.7913204,6.92150804 85.8835885,6.67520946 85.7913204,6.49104024 C85.6997904,6.30613139 85.5462563,5.96811802 85.5462563,5.96811802 C85.5462563,5.96811802 85.3004541,5.53765022 85.1159179,5.53765022 C84.9321198,5.53765022 84.8708538,5.29135163 84.7475836,5.13750747 C84.6250516,4.9836633 84.3179834,4.61458524 84.2559792,4.49180576 C84.1947132,4.36902629 83.887645,4.1227277 83.887645,3.96888354 C83.887645,3.81503938 83.6425809,3.44596131 83.6425809,3.44596131 L83.1819785,3.0465582 C83.1819785,3.0465582 83.0380403,2.80025961 82.9059124,2.80025961 C82.7745226,2.80025961 82.5287204,2.8313243 82.5287204,2.98516846 L82.5287204,3.56948042 L82.4061884,4.39935134 C82.4061884,4.39935134 82.2836563,5.04505304 82.1301222,5.4141311 C81.9883984,5.75510302 81.8850582,6.30613139 81.823054,6.45997556 C81.7625261,6.61381972 81.6148972,7.55019813 81.5779899,7.69886484 C81.4857218,8.06794291 81.2096557,8.86748877 81.1483897,9.14411241 C81.0863855,9.42147568 80.8715854,10.4362554 80.7180513,10.6514893 C80.5645171,10.8667232 80.349717,11.5523653 80.1341787,11.9517684 C79.9193786,12.3519111 79.7968466,12.6285348 79.7053166,12.7513142 C79.6130485,12.8748334 79.5820464,12.9976128 79.4897783,13.2128467 C79.3982484,13.4280806 79.2749782,13.5819248 79.1834483,13.735769 C79.0911802,13.8896131 79.0299141,14.0123926 78.87638,14.2890162 C78.7228459,14.5663795 78.5611922,14.9354576 78.4999262,15.1196268 C78.437922,15.3045356 78.254124,15.5101543 78.0393238,15.6728741 C77.8245237,15.8355938 77.6709896,16.0205027 77.4561895,16.1129571 C77.2413893,16.2046719 76.9955871,16.328191 76.719521,16.4199058 C76.4434548,16.5123602 76.3201846,16.5434249 75.9518504,16.6662044 C75.5835161,16.7889839 75.1229138,16.9117633 75.0926499,17.0656075 C75.0623859,17.2194517 75.1229138,17.4043605 75.2151819,17.5582047 C75.30745,17.7120488 75.2151819,17.8651534 75.1539159,17.9886725 C75.0926499,18.111452 75.1539159,18.2956212 75.2764479,18.3266859 C75.3989799,18.3577505 75.491248,18.5115947 75.6757842,18.5729844 C75.8595823,18.6343742 76.2899207,18.6957639 76.2899207,18.6957639 C76.2899207,18.6957639 76.5357229,18.819283 76.6272529,18.9723876 C76.719521,19.1262317 76.842053,19.2800759 77.0575913,19.3414656 C77.2723914,19.403595 77.3336574,19.5263745 77.4864534,19.5566995 C77.6407257,19.5877642 77.7935216,19.7105437 77.9167918,19.5566995 C78.0393238,19.403595 78.0695878,19.2497508 78.0393238,19.1262317 C78.0083218,19.0034522 78.2843879,18.6343742 78.2843879,18.6343742 C78.2843879,18.6343742 78.4290643,18.450205 78.5301901,18.2039064 C78.6305778,17.9576078 78.692582,17.7734386 78.8453779,17.6499195 C78.9996502,17.52714 79.0601781,17.3119061 79.0601781,17.1277369 C79.0601781,16.942828 79.2447143,16.7275941 79.3982484,16.6972691 C79.5517825,16.6662044 79.7230321,16.5064431 79.8463023,16.6602873 C79.9688343,16.8141315 80.0160756,16.7364698 80.1696097,16.7978595 C80.3231438,16.8592492 80.1888015,17.062649 80.4338655,17.062649 C80.6796677,17.062649 80.5807563,17.2727054 80.7962946,17.2416407 C81.0110947,17.2113157 81.1026247,17.180251 81.2258949,17.1188613 C81.3476888,17.0574715 81.7979571,16.9775909 81.7979571,16.9775909 C81.7979571,16.9775909 82.0688562,17.3732958 82.0688562,17.4960753 C82.0688562,17.6195944 82.0998583,17.8651534 82.0998583,17.9886725 C82.0998583,18.111452 82.0998583,18.3880756 82.0075902,18.4191403 C81.9153221,18.450205 81.8540561,18.6040491 81.7307859,18.6040491 C81.6082539,18.6040491 81.3019238,18.6654389 81.1786536,18.6654389 C81.0561216,18.6654389 80.8103194,18.6343742 80.6877873,18.6343742 C80.5645171,18.6343742 80.2574489,18.6654389 80.1039148,18.6040491 C79.9511188,18.5419198 79.6433125,18.6040491 79.6433125,18.6040491 L79.3067184,18.5729844 C79.3067184,18.5729844 79.1834483,18.7882183 79.2447143,19.0034522 C79.3067184,19.2186861 79.1834483,19.403595 79.3369824,19.6188289 C79.4897783,19.8340628 79.5207804,20.1809518 79.5207804,20.334796 C79.5207804,20.4886401 79.4897783,20.703874 79.5517825,20.8880432 C79.6130485,21.0729521 79.4897783,21.1343418 79.7355806,21.4723552 C79.8226816,21.5921761 80.0684839,21.3983917 80.2153747,21.3148129 C80.4301748,21.1912938 81.0251195,20.8577182 81.0863855,20.7341991 C81.1483897,20.6114196 81.6082539,20.4575754 81.6082539,20.4575754 L82.0075902,20.6424843 C82.0075902,20.6424843 82.1921264,21.1646669 82.1921264,21.288186 C82.1921264,21.4109655 82.1153593,21.7378843 82.1153593,21.7378843 C82.1153593,21.7378843 81.9743737,22.0463123 81.8518416,22.107702 C81.7293096,22.1690917 81.7713839,22.4309227 81.5875858,22.4923124 L81.1277216,22.6461566 C81.1277216,22.6461566 80.9129215,22.8310654 80.7896513,22.8613905 L80.4523191,22.9538449 C80.4523191,22.9538449 80.329049,23.0766244 80.1452509,23.0766244 C79.9607147,23.0766244 79.7769167,23.0462993 79.6233825,23.0462993 C79.4698484,23.0462993 79.1627802,22.9849096 79.1627802,22.9849096 L78.9487182,22.9538449 C78.9487182,22.9538449 78.6541984,23.2852016 78.6844624,23.3769163 L78.692582,23.7482133 C78.692582,23.7482133 78.9686481,24.1387408 78.937646,24.2711355 C78.9073821,24.4027906 79.0601781,24.710479 79.1834483,24.7718687 C79.3067184,24.8339981 79.6130485,25.1106217 79.6130485,25.1106217 C79.6130485,25.1106217 79.7355806,25.3258556 79.8891147,25.5100248 C80.0426488,25.6949337 80.2574489,25.9101676 80.2574489,25.9101676 C80.2574489,25.9101676 80.441247,26.3095707 80.5955192,26.4020251 C80.7490533,26.4944795 80.8715854,26.617259 80.8715854,26.617259 C80.8715854,26.617259 81.1173876,26.7711032 81.3631898,26.5558693 C81.6082539,26.3406354 81.823054,26.248181 81.945586,26.1867912 C82.0688562,26.1254015 82.2836563,26.0943368 82.4061884,26.0018824 C82.5287204,25.9101676 82.7221143,25.7252587 82.9369145,25.6949337 C83.1517146,25.663869 83.2742466,25.663869 83.3967787,25.6328043 C83.5193107,25.6024793 83.6115788,25.5410895 83.7651129,25.3872454 C83.918647,25.2334012 83.918647,25.049232 84.1031832,24.9567776 C84.2869813,24.8643231 84.5327835,24.710479 84.5327835,24.710479 C84.5327835,24.710479 84.7475836,24.5876995 84.9011177,24.7718687 C85.05539,24.9567776 85.5462563,25.5100248 85.5462563,25.5100248 C85.5462563,25.5100248 85.5765202,25.9404926 85.6385244,26.1557265 C85.6997904,26.3709604 85.8835885,26.7400385 85.8835885,26.7400385 L85.9448545,27.0477268 C85.9448545,27.0477268 86.1293907,27.2940254 86.4047187,27.2629607 C86.681523,27.2326357 87.0579768,27.0787915 87.181247,27.0477268 C87.303779,27.0174018 87.5798452,26.7711032 87.7636432,26.8324929 C87.9481794,26.8938827 88.3777797,26.5861943 88.3777797,26.5861943 L88.9609141,26.4944795 C89.1454503,26.4634149 89.4525185,26.3095707 89.6060526,26.2792456 C89.7595867,26.248181 90.3427211,25.8480382 90.4652531,25.7252587 C90.5885233,25.6024793 91.0483875,24.8953878 91.0483875,24.8953878 L91.7016456,24.3724656 Z" id="Fill-51" fill="#FFFFFF"></path>
                            <path d="M122.20666,22.9753683 L121.813967,23.2808377 L120.065302,23.3414878 L118.290064,23.2808377 L117.110508,23.2808377 L116.322908,23.1587979 L115.536784,23.1587979 C115.536784,23.1587979 114.854738,23.036758 114.680536,23.1587979 C114.504857,23.2808377 113.674444,23.0974081 113.674444,23.0974081 L112.71338,23.1587979 L112.101458,23.3414878 L111.401697,23.3414878 L110.876876,23.2808377 L110.221403,23.219448 C110.221403,23.219448 109.714298,23.0974081 109.452256,23.219448 C109.190215,23.3414878 109.277316,22.7919387 109.277316,22.7919387 L109.277316,21.7793779 C109.277316,21.7793779 109.548215,22.0382502 109.765968,22.1602901 C109.984459,22.2823299 110.594166,22.3888374 110.769106,22.2667976 C110.944047,22.1440181 111.882967,21.9990496 111.882967,21.9990496 L112.975421,21.7179881 L113.717995,21.840028 L114.287104,21.6565984 L114.924862,21.6565984 L116.148706,21.6565984 L117.110508,21.6565984 L117.635329,21.840028 L118.727783,21.8770097 L119.977463,21.9376598 L120.983554,21.9990496 L121.559307,21.8962402 L121.981526,21.3674009 L122.294499,20.4968501 L122.55654,20.1307306 L122.64438,21.1077889 L122.668,22.0020081 L122.732219,22.6092488 L122.20666,22.9753683 Z M109.579955,17.4820962 L109.621291,16.5671672 C109.621291,16.5671672 109.704702,16.0753097 109.870784,16.2720527 C110.037605,16.4687957 110.078203,16.8127262 110.078203,16.8127262 C110.078203,16.8127262 110.353531,16.8622817 110.686434,16.7639102 C111.018599,16.6655387 111.518323,16.4192401 111.518323,16.4192401 L112.183392,16.3704242 L112.765788,16.3704242 L113.348184,16.3208686 L113.639751,16.6655387 L113.805834,17.0590248 C113.805834,17.0590248 113.723162,17.2853532 113.76376,17.5316518 C113.805834,17.7772107 113.805834,18.2202523 113.805834,18.2202523 L113.723162,18.6625543 C113.723162,18.6625543 113.431595,19.1544118 113.223438,19.2039674 C113.015281,19.2527833 112.183392,19.2527833 112.183392,19.2527833 L111.767816,19.1055959 L111.393577,19.1055959 L110.977263,19.2527833 L109.82871,19.1055959 C109.82871,19.1055959 109.579955,18.7121099 109.579955,18.5153668 L109.579955,17.4820962 Z M109.740133,12.5184031 C109.740133,12.5184031 109.974863,12.2336434 110.216974,12.0908938 C110.459086,11.9481442 111.36848,11.9481442 111.36848,11.9481442 L112.06086,11.9008075 L112.536963,11.9008075 L113.272894,11.8534708 C113.272894,11.8534708 113.446358,12.1855671 113.663372,12.2336434 C113.879649,12.2809801 113.793286,12.6130764 113.793286,12.6130764 L113.619822,13.2107018 L113.359995,13.638211 L112.883891,13.875634 C112.883891,13.875634 112.494151,14.0183836 112.190773,13.9703073 C111.888134,13.9229707 111.36848,13.9229707 111.36848,13.9229707 L110.806014,13.9229707 C110.806014,13.9229707 110.476063,13.7809607 110.259787,13.7809607 C110.042772,13.7809607 109.69732,13.7328844 109.65377,13.4488644 C109.610957,13.1633651 109.740133,12.5184031 109.740133,12.5184031 L109.740133,12.5184031 Z M110.098133,8.40972842 L110.255358,8.19893234 L110.911568,8.25218608 L111.52349,8.25218608 C111.741981,8.25218608 112.441743,8.40972842 112.441743,8.40972842 L113.054403,8.3047002 L113.709875,8.3047002 L114.409637,8.3047002 L115.223072,8.25218608 L115.572953,8.06283942 L115.834994,8.06283942 L116.317003,8.19893234 L116.841085,8.19893234 L117.321618,8.19893234 C117.321618,8.19893234 117.584397,7.98887588 117.846439,8.19893234 C118.10848,8.40972842 118.67759,8.3047002 118.85253,8.3047002 C119.026732,8.3047002 119.884456,8.25218608 119.884456,8.25218608 L120.539929,8.19893234 L119.923578,8.96889278 C119.923578,8.96889278 118.89608,9.19891939 118.590489,9.30394762 C118.284158,9.40897585 117.497296,9.30394762 117.497296,9.30394762 L116.971737,9.56725782 C116.971737,9.56725782 116.538446,9.33871048 116.364244,9.33871048 C116.189304,9.33871048 115.834994,9.61977193 115.572953,9.51474371 C115.310173,9.40897585 114.671678,9.51474371 114.671678,9.51474371 L114.015467,9.51474371 L113.535673,9.51474371 L113.316444,9.67228605 L112.791623,9.72480016 C112.791623,9.72480016 112.398192,9.67228605 112.135412,9.56725782 C111.873371,9.46148996 111.34855,9.46148996 111.34855,9.46148996 L110.823729,9.51474371 L110.430298,9.40897585 C110.430298,9.40897585 110.141683,9.35646173 110.098133,9.09315153 C110.053844,8.83058097 110.098133,8.40972842 110.098133,8.40972842 L110.098133,8.40972842 Z M117.935754,19.4916856 C117.452269,19.679553 117.246327,19.6610621 116.944426,19.4103257 C116.642524,19.1595893 116.787201,18.614478 116.787201,18.614478 L116.847729,17.8622688 L117.270686,18.1130052 L117.633853,18.614478 C117.633853,18.614478 118.419239,19.3038182 117.935754,19.4916856 L117.935754,19.4916856 Z M117.433078,17.2565074 C117.086149,17.4887529 116.936306,17.2565074 116.936306,16.7158339 C116.936306,16.1759001 117.235255,16.1759001 117.235255,16.1759001 L117.731288,16.1759001 L118.4746,16.0982384 L118.276777,16.6389118 C118.276777,16.6389118 117.780006,17.0250015 117.433078,17.2565074 L117.433078,17.2565074 Z M122.543254,15.7003145 L122.496751,17.3467429 L122.496751,19.2564815 L122.213303,18.8326704 C122.213303,18.8326704 122.071579,18.4569357 121.883352,18.1270583 C121.694387,17.7979205 121.505422,17.9391909 121.505422,17.9391909 L121.033748,18.5508693 C121.033748,18.5508693 120.655818,19.1152112 120.325129,19.0686141 C119.995178,19.0212775 119.853454,18.7387367 119.853454,18.7387367 L119.71173,18.0331246 C119.71173,18.0331246 119.476262,17.0642022 119.476262,16.8763348 C119.476262,16.6884674 119.570745,16.311993 119.570745,16.311993 L120.278626,16.4059267 L120.938527,16.5945337 L121.552664,16.6884674 L121.78887,16.2180593 L122.119559,15.4651105 L122.402268,15.2772431 L122.543254,15.7003145 Z M120.815995,12.2439983 C120.815995,12.2439983 121.231571,12.0265455 121.400606,11.982907 C121.571117,11.9400082 121.981526,11.4540677 121.981526,11.4540677 C121.981526,11.4540677 122.181563,10.6752316 122.351336,10.502157 C122.52111,10.3298219 122.470916,11.1219714 122.470916,11.1219714 C122.470916,11.1219714 122.55654,11.9851259 122.55654,12.417073 C122.55654,12.8482804 122.428841,13.9961946 122.428841,13.9961946 L121.823563,13.6226787 L121.453752,13.1463535 L120.925979,13.2521214 L120.503022,13.5169108 L119.764877,13.569425 L119.131549,13.6226787 L118.369783,13.5169108 C118.369783,13.5169108 117.706191,13.709216 117.366645,13.6226787 L116.970261,13.2195774 L116.886112,12.6759454 L117.140034,12.3305357 L117.394694,12.0280248 L117.904014,12.0280248 L118.456146,12.0716633 L119.008279,11.9851259 L119.712469,12.0280248 C119.712469,12.0280248 120.178976,12.0716633 120.391562,12.0716633 C120.604148,12.0716633 120.815995,12.2439983 120.815995,12.2439983 L120.815995,12.2439983 Z M121.546758,8.33280634 L122.283427,8.21224577 C122.283427,8.21224577 122.692359,8.42452113 122.611163,8.65602701 C122.529229,8.88679326 122.529229,9.39418314 122.529229,9.39418314 L122.456891,10.0790855 C122.456891,10.0790855 122.039839,9.76769901 121.875971,9.44447834 C121.712103,9.12125768 121.464824,8.7477418 121.464824,8.7477418 L121.546758,8.33280634 Z M125.856048,25.6890906 C126.183784,25.2726758 125.610245,24.8555215 125.610245,24.8555215 L125.610245,24.022692 L125.69218,22.9391262 C125.69218,22.9391262 125.446377,21.6321904 125.446377,21.2986148 L125.446377,19.6322163 L125.282509,18.5493901 C125.282509,18.5493901 125.528311,17.5486634 125.528311,17.1581359 C125.528311,16.7676084 125.364443,16.1581488 125.364443,15.5753161 C125.364443,14.9917438 125.528311,14.1581747 125.528311,14.1581747 L125.528311,12.6012422 L125.446377,10.1848534 L125.69218,9.35128428 L125.610245,7.87719094 L125.69218,6.54436795 L125.856048,5.5443809 L125.610245,4.71081181 L124.790905,4.71081181 C124.790905,4.71081181 124.380496,4.96080857 123.970826,4.96080857 C123.561156,4.96080857 123.34045,5.21081181 123.012714,5.12722653 C122.684978,5.04364773 122.111439,5.29438413 122.111439,5.29438413 L120.717822,5.37796293 L119.104237,5.5443809 L117.956422,5.4608021 L116.973213,5.5443809 L115.826136,5.37796293 L114.211814,5.5443809 L112.32733,5.5443809 L110.851779,5.4608021 L109.484735,5.4608021 C108.910458,5.4608021 108.500788,5.29438413 108.500788,5.29438413 L107.680709,4.96080857 L107.025236,4.87722977 L106.042027,5.12722653 L106.123961,5.71079886 L106.369025,6.71078592 L106.779434,8.1271877 L107.025236,9.76769901 C107.025236,9.76769901 106.942564,11.1012616 106.861368,11.5176764 C106.779434,11.9340911 106.942564,13.3253453 106.942564,13.3253453 L107.025236,14.8245862 C107.025236,14.8245862 107.10717,16.9081391 106.942564,17.715821 C106.779434,18.5227632 106.779434,20.1322098 106.779434,20.1322098 L106.6975,22.1898755 L106.533632,23.8555344 L106.450959,25.189097 C106.450959,25.189097 106.369025,25.8562482 106.615566,26.1890841 C106.861368,26.5226597 107.680709,26.0226661 107.680709,26.0226661 L108.581983,25.8562482 L109.402062,26.0226661 C109.402062,26.0226661 109.893667,26.3555021 110.524042,26.0226661 C111.15368,25.6890906 115.826136,25.8562482 115.826136,25.8562482 L116.481609,25.6890906 L117.30095,25.8562482 L119.817285,25.7726694 L122.439175,25.7726694 C122.93078,25.7726694 123.176582,26.1055053 123.750859,26.1890841 C124.324397,26.2726629 124.954773,26.1055053 124.954773,26.1055053 C124.954773,26.1055053 125.528311,26.1055053 125.856048,25.6890906 L125.856048,25.6890906 Z" id="Fill-53" fill="#FFFFFF"></path>
                            <path d="M141.790527,13.4601808 C141.790527,13.4601808 141.039095,12.8832652 140.698811,12.5348969 C140.35705,12.1865287 140.083936,11.6384588 140.083936,11.6384588 L140.562254,11.0415731 L141.17639,10.9417223 L141.65397,11.5889033 L141.721879,12.2856398 L141.859174,12.9624062 L141.790527,13.4601808 Z M140.01086,16.4231602 L139.331766,17.2397177 L138.4829,17.1857243 L138.425325,16.5866196 L138.369226,15.6058631 L138.425325,14.3536604 L138.538999,13.155451 L138.935383,13.2641774 L139.274929,13.6450897 L139.727412,14.4623868 L140.066959,15.3884103 L140.01086,16.4231602 Z M138.310912,8.72355572 L138.420896,7.48688534 L138.694748,7.3774193 L139.241713,7.59635138 L139.898662,7.6510844 L140.172513,8.23095855 L139.788678,9.05195384 L139.131729,10.0371482 C138.530141,10.6939444 138.420896,10.5297454 138.420896,10.5297454 L138.365535,9.65401705 L138.310912,8.72355572 Z M156.546041,19.0991611 L155.860304,19.1435392 L155.156852,19.1435392 L154.74423,19.0991611 C154.74423,19.0991611 154.372205,18.8780101 154.20686,18.833632 C154.042254,18.7892538 153.628893,18.3462122 153.628893,18.3462122 L152.760835,17.8595321 L152.224203,17.594003 L151.810842,17.4786199 C151.810842,17.4786199 151.042433,16.681293 150.836491,16.3270076 C150.629811,15.9734619 150.216449,15.5304203 150.216449,15.5304203 C150.216449,15.5304203 150.050367,14.9549839 150.174375,14.7774714 C150.298384,14.6006986 150.298384,14.5119423 150.711745,14.4675642 C151.125106,14.4231861 151.770244,14.4231861 151.770244,14.4231861 C151.770244,14.4231861 152.596228,14.4231861 152.884843,14.4675642 C153.174934,14.5119423 153.876909,14.6006986 153.876909,14.6006986 C153.876909,14.6006986 154.20686,14.4675642 154.454877,14.6894548 C154.702893,14.9106058 154.909574,14.6006986 155.033582,14.2464132 C155.156852,13.8921279 155.241001,12.7590064 155.241001,12.7590064 L155.110349,11.8596098 L154.986341,10.7087371 C154.986341,10.7087371 154.600291,10.3670256 154.57298,10.0001664 C154.57298,10.0001664 154.448972,9.64588106 154.119021,9.86777168 C153.78907,10.0889227 153.622988,10.2664352 153.622988,10.2664352 L153.086356,10.5319643 L152.383643,10.664359 L150.954594,10.7974934 L150.0452,10.9306277 L149.549905,10.9742662 L149.259814,11.1517787 L148.929863,11.0630225 L148.557838,10.8862496 L148.037446,10.8899478 L147.748093,10.978704 L147.500077,11.1110988 L147.062357,10.9335863 L146.359643,10.978704 L145.368315,10.9335863 L144.252978,10.9335863 L143.5916,10.8899478 L142.972297,10.7568134 L142.40983,10.7568134 C142.203888,10.7568134 141.944799,10.5452777 141.862127,10.3233871 C141.779455,10.1022361 141.986135,9.52679976 142.234152,9.34928727 C142.482168,9.17251441 142.729447,8.72947281 142.729447,8.72947281 C142.729447,8.72947281 142.878552,8.86260718 142.919888,9.21689253 C142.961224,9.57043825 143.250577,9.79232887 143.250577,9.79232887 L143.869881,9.61481638 L144.489184,9.39366539 L145.563923,9.34928727 L146.389907,9.30490915 L147.051285,9.30490915 L147.530341,9.03938004 L147.861029,9.21689253 L148.233054,9.21689253 L148.687752,9.08375816 L149.142449,9.08375816 C149.142449,9.08375816 149.142449,8.99500191 149.80235,9.08375816 C150.464466,9.17251441 150.794417,9.03938004 150.794417,9.03938004 L151.372384,8.95062379 L151.728908,8.95062379 C151.93485,8.95062379 152.264801,8.77385093 152.264801,8.77385093 L152.596228,8.90624567 C152.596228,8.90624567 152.760835,9.08375816 152.968253,9.03938004 C153.174934,8.99500191 153.546959,8.90624567 153.546959,8.90624567 L153.958843,8.19841459 L154.082852,6.88778067 L154.082852,6.17920996 L154.166262,5.60303398 L153.958843,5.07197577 C153.958843,5.07197577 153.628893,4.36414469 153.463548,4.1866322 C153.298204,4.00985934 153.092262,3.40779613 153.092262,3.40779613 C153.092262,3.40779613 152.926179,3.09714926 152.6789,3.23028363 C152.430884,3.363418 152.224203,3.69995211 152.224203,3.69995211 L151.770244,4.1866322 L151.331786,4.58529568 L150.753081,4.89520291 L150.174375,5.20511014 L149.472399,5.33824451 L148.852358,5.47063925 L148.315727,5.51501737 L147.861029,5.51501737 L147.530341,5.38262264 L147.216629,5.38262264 L146.968612,5.38262264 L146.555989,5.5593955 L146.142628,5.5593955 L145.439915,5.64741211 L144.779275,5.5593955 L144.283242,5.47063925 L143.787208,5.24948826 L143.6632,4.6296738 L143.415183,3.78796872 L143.043897,3.56681774 L142.729447,3.56681774 L142.523505,4.05349783 L141.655446,4.36414469 C141.655446,4.36414469 140.664118,4.40778318 140.498035,4.54091755 C140.333429,4.67405193 139.466109,4.85082479 139.300026,4.85082479 C139.134682,4.85082479 138.201667,4.76206854 138.201667,4.76206854 L136.920247,4.85082479 C136.920247,4.85082479 136.34228,4.71769041 136.176936,4.71769041 C136.011591,4.71769041 135.474222,4.6296738 135.474222,4.6296738 C135.474222,4.6296738 134.771508,4.98395916 134.854918,5.16073202 C134.937591,5.33824451 134.73091,5.73616836 135.143533,5.95731934 L135.309616,6.88778067 L135.309616,7.81750236 L135.474222,8.59633843 C135.474222,8.59633843 135.350213,8.90624567 135.309616,9.12813629 C135.267541,9.34928727 135.515558,10.0134799 135.515558,10.0134799 L135.515558,10.7664287 L135.639566,11.918041 L135.515558,12.360343 L135.639566,12.9180281 L135.557632,14.2464132 L135.722238,16.4165035 L135.557632,17.1687127 C135.557632,17.1687127 135.474222,17.6820196 135.515558,18.2138175 C135.557632,18.7448757 135.557632,19.1879173 135.557632,19.1879173 C135.557632,19.1879173 135.763575,19.4978245 135.515558,19.7189755 L135.474222,20.5606806 C135.474222,20.5606806 135.350213,21.3128898 135.350213,21.5347804 C135.350213,21.7559314 135.226205,22.4023728 135.226205,22.4023728 L135.267541,22.9778091 C135.267541,22.9778091 135.143533,23.4652288 134.73091,23.5983632 L134.152205,23.9075308 L133.962501,23.9075308 L133.879829,24.4837068 C133.879829,24.4837068 133.945524,24.7492359 134.193541,24.9260087 C134.441557,25.1035212 134.6475,25.4578066 134.6475,25.4578066 L135.061599,25.9001085 L135.350213,26.298772 L136.1356,26.6086793 L136.548222,26.7418136 C136.548222,26.7418136 136.961584,26.6530574 137.127666,26.6086793 C137.292272,26.5643011 137.581625,26.3875283 137.664297,26.2100158 C137.74697,26.0332429 137.912314,25.6345794 138.077658,25.5458232 C138.243003,25.4578066 138.449683,25.1035212 138.449683,25.1035212 L138.639387,24.3949505 L138.680723,20.4719244 C138.680723,20.4719244 138.624624,19.8691215 138.789968,19.7803653 L139.528851,19.7803653 L140.00274,19.7189755 L140.636806,19.4105476 L141.217726,18.7759404 C141.217726,18.7759404 141.715236,18.6368889 141.798646,18.1938473 L142.192816,17.6376415 L142.564102,16.9475617 C142.564102,16.9475617 142.853455,16.7130973 142.853455,16.1502347 C142.853455,15.8736111 142.605439,15.3536474 142.605439,15.3536474 L143.126569,15.1317568 L143.869881,14.9106058 L144.696603,14.9106058 L145.06789,15.220513 C145.06789,15.220513 145.341741,15.7426956 145.176397,15.9194685 C145.010314,16.096981 144.701032,16.6605832 144.701032,16.6605832 L144.173258,17.4009582 L143.53993,18.1938473 L143.012156,18.7759404 L142.483645,19.3572938 L142.009018,19.6745974 L141.533652,20.0451547 L141.059025,20.3092046 C141.059025,20.3092046 140.395433,20.4142328 140.478843,20.6797619 C140.561516,20.945291 140.622044,21.0917388 140.622044,21.0917388 L141.076741,21.6235367 L141.448766,22.4023728 C141.448766,22.4023728 141.572774,22.933431 141.572774,23.2440778 C141.572774,23.5532454 141.696782,23.8631527 142.027471,23.9519089 C142.35816,24.0406652 142.919888,23.8187745 143.085233,23.6863798 C143.250577,23.5532454 143.828544,22.71228 143.828544,22.71228 L144.365914,21.843948 L144.943881,21.1804951 L145.522587,20.33879 L145.778723,19.833619 L146.101292,19.2766736 L146.307235,18.7004976 C146.307235,18.7004976 146.555989,18.6561195 146.555989,19.0547829 C146.555989,19.4534464 146.597326,20.0732609 146.597326,20.0732609 L146.67926,20.7818316 L146.720596,21.7559314 L146.637924,22.6679019 C146.637924,22.6679019 146.720596,23.1989601 146.555989,23.3320944 C146.389907,23.4652288 146.225301,23.775136 146.059956,23.775136 C145.894612,23.775136 145.109964,23.8631527 145.109964,23.8631527 L144.595477,23.8527978 L144.120112,23.9585656 C144.120112,23.9585656 143.804186,24.2137398 143.804186,24.4348908 C143.804186,24.6560418 143.828544,25.1915378 143.828544,25.1915378 L144.117159,25.7677138 L144.241906,26.298772 L144.737939,26.519923 C145.233234,26.7418136 145.687931,26.6530574 145.687931,26.6530574 L146.597326,26.8305699 L147.092621,26.7418136 L147.902366,27.1219862 L148.646415,27.3438768 C148.646415,27.3438768 149.01844,27.4318934 149.265719,27.1663643 C149.513736,26.9008352 149.67908,26.2543939 149.67908,26.0332429 C149.67908,25.8120919 149.80235,24.3949505 149.80235,24.3949505 L149.720416,22.6679019 L149.761752,21.5347804 L149.720416,20.4275462 L149.761752,19.2766736 L149.926359,18.833632 L150.174375,19.4534464 L150.381794,20.0732609 C150.381794,20.0732609 150.588474,20.4275462 150.877827,20.6930753 C151.166442,20.9586045 151.331786,21.4460242 151.331786,21.4460242 L151.686834,22.0214605 L152.140793,22.933431 L152.47222,23.8187745 L152.802909,24.5717234 C152.802909,24.5717234 153.092262,24.8816306 153.298204,24.9260087 C153.504884,24.9703868 153.876909,25.1035212 153.876909,25.1035212 L154.578885,24.4393286 L155.365009,23.4652288 L156.04927,22.3579946 L156.463369,21.1804951 L156.752721,20.117639 C156.752721,20.117639 157,19.5865808 157,19.3646902 C157,19.1435392 156.546041,19.0991611 156.546041,19.0991611 L156.546041,19.0991611 Z" id="Fill-55" fill="#FFFFFF"></path>
                        </g>
                    </g>
                </g>
            </g>
        </g>
    </g>
</svg>