<?xml version="1.0" encoding="UTF-8"?>
<svg width="60px" height="60px" viewBox="0 0 60 60" version="1.1" xmlns="http://www.w3.org/2000/svg" xmlns:xlink="http://www.w3.org/1999/xlink">
    <title>Community-Twitter</title>
    <g id="2022---新官网" stroke="none" stroke-width="1" fill="none" fill-rule="evenodd">
        <g id="编组-28" fill="#FFFFFF">
            <path d="M52.8410023,15.5001538 C51.1563455,16.2638163 49.3418058,16.7781196 47.4394042,17.0118938 C49.3838267,15.8235415 50.8698392,13.9455552 51.5765547,11.7052189 C49.7581949,12.8039578 47.7450109,13.6026864 45.601944,14.0312724 C43.8905466,12.1649749 41.4418731,11 38.741074,11 C32.6671412,11 28.2052837,16.7781196 29.5766936,22.7783246 C21.7646228,22.3770122 14.8311712,18.5586999 10.1935898,12.7572029 C7.72963595,17.0664411 8.91768193,22.7081924 13.1044935,25.5641341 C11.5649998,25.513483 10.1171882,25.0810007 8.84892043,24.3640931 C8.74577817,28.8058033 11.8706065,32.9630883 16.3935854,33.8903927 C15.0718365,34.256639 13.6202048,34.3423562 12.1456525,34.0540347 C13.3413387,37.8645545 16.8214347,40.634779 20.9318446,40.7127038 C16.970418,43.8764483 11.9928492,45.2907823 7,44.6907618 C11.163891,47.4142315 16.103259,49 21.4131751,49 C38.878597,49 48.7420527,33.9566287 48.1461197,20.4639598 C49.9873999,19.1158618 51.5803748,17.4248949 52.8410023,15.5001538 L52.8410023,15.5001538 Z" id="Twitter"></path>
        </g>
    </g>
</svg>