<?xml version="1.0" encoding="UTF-8"?>
<svg width="60px" height="60px" viewBox="0 0 60 60" version="1.1" xmlns="http://www.w3.org/2000/svg" xmlns:xlink="http://www.w3.org/1999/xlink">
    <title>Community-Forum</title>
    <g id="2022---新官网" stroke="none" stroke-width="1" fill="none" fill-rule="evenodd">
        <g id="编组-20备份" transform="translate(-406.000000, 0.000000)" fill="#FFFFFF">
            <g id="编组-30" transform="translate(406.000000, 0.000000)">
                <path d="M29.3116755,10 C39.6163444,10 48,18.9719042 48,30 C48,41.0280958 39.6163444,50 29.3116755,50 L29.3116755,50 L19.0147916,50 L19.0147916,25.9540289 L23.7609359,25.9540289 L23.7609359,44.9515924 L29.3116755,44.9515924 C36.9993057,44.9515924 43.2536453,38.244604 43.2536453,30 C43.2536453,21.7556116 36.9993057,15.048192 29.3116755,15.048192 L29.3116755,15.048192 L18,15.048192 L18,10 Z M28.0157579,18 C34.0726664,18 39,23.4007341 39,30.0388043 C39,36.6770929 34.0726664,42.0780453 28.0157579,42.0780453 L28.0157579,42.0780453 L26.0924445,42.0780453 L26.0924445,36.9651349 L28.0157579,36.9651349 C31.4859982,36.9651349 34.3093115,33.8580368 34.3093115,30.0388043 C34.3093115,26.2200086 31.4859982,23.1129104 28.0157579,23.1129104 L28.0157579,23.1129104 L16.6906885,23.1129104 L16.6906885,44 L12,44 L12,18 Z" id="Forum"></path>
            </g>
        </g>
    </g>
</svg>