<?xml version="1.0" encoding="UTF-8"?>
<svg width="60px" height="60px" viewBox="0 0 60 60" version="1.1" xmlns="http://www.w3.org/2000/svg" xmlns:xlink="http://www.w3.org/1999/xlink">
    <title>Community-Discord</title>
    <g id="2022---新官网" stroke="none" stroke-width="1" fill="none" fill-rule="evenodd">
        <g id="编组-20备份" transform="translate(-816.000000, -3.000000)" fill="#FFFFFF" fill-rule="nonzero">
            <g id="编组-33" transform="translate(816.000000, 3.000000)">
                <path d="M37.5,37 C35.0145349,37 33,34.9810811 33,32.5 C33,30.018919 35.0145349,28 37.5,28 C39.9854651,28 42,30.0189189 42,32.5 C41.9738372,34.9810811 39.9593023,37 37.5,37 Z M22.5,37 C20.0145349,37 18,34.9810811 18,32.5 C18,30.018919 20.0145349,28 22.5,28 C24.9854651,28 27,30.0189189 27,32.5 C27,34.9810812 24.9854651,37 22.5,37 Z M54.545045,29.6983367 C53.0135135,22.5488562 49.6951952,16.5322158 49.6951952,16.5322158 C43.3138138,11.8246353 37.3663663,12.0008549 37.3663663,12.0008549 L36.9834835,12.6302106 C43.9519519,14.2413612 48.3423423,18.1937148 48.3423423,18.1937148 C42.6246246,14.9714137 34.8903904,13.8637477 30.4744745,13.8637478 C26.0585585,13.8637478 18.3243243,14.9714137 12.6321321,18.1937148 C12.6321321,18.1937148 17.0225225,14.2413611 23.990991,12.6302106 L23.6081081,12.0008549 C23.6081081,12.0008549 17.6351351,11.8246353 11.2792793,16.5322158 C11.2792793,16.5322158 7.96096094,22.5740304 6.42942941,29.6983367 C5.10210206,35.8660224 5,41.4798751 5,41.4798751 C5,41.4798751 7.27177175,44.6518277 10.6156156,46.2126298 C13.8318319,47.7230835 16.2312313,47.9748258 18.2732733,48 L21.2597598,44.4756081 C21.2597598,44.4756081 16.2567568,43.0155029 13.6276276,39.4911111 C13.6276276,39.4911111 20.6981982,44.3245628 30.5,44.3245628 C40.3018018,44.3245628 47.3723724,39.4911111 47.3723724,39.4911111 C44.7432432,43.0155029 39.7402403,44.4756081 39.7402402,44.4756081 L42.7267267,48 C44.7687687,47.9748258 47.1681681,47.6979093 50.3843844,46.2126298 C53.7282282,44.6518277 56,41.4798751 56,41.4798751 C56,41.4798751 55.8723724,35.8660224 54.545045,29.6983367 L54.545045,29.6983367 Z" id="Discord"></path>
            </g>
        </g>
    </g>
</svg>