<?xml version="1.0" encoding="UTF-8"?>
<svg width="60px" height="60px" viewBox="0 0 60 60" version="1.1" xmlns="http://www.w3.org/2000/svg" xmlns:xlink="http://www.w3.org/1999/xlink">
    <title>Community-Telegram</title>
    <g id="2022---新官网" stroke="none" stroke-width="1" fill="none" fill-rule="evenodd">
        <g id="编组-20备份" transform="translate(-611.000000, 0.000000)" fill="#FFFFFF" fill-rule="nonzero">
            <g id="编组-25" transform="translate(611.000000, 0.000000)">
                <path d="M10.6614787,25.8712173 L48.1011705,10.087859 C48.4980577,9.95410176 49.0272406,9.95410176 49.2918321,10.2216163 C49.6887193,10.4891309 49.821015,11.02416 49.6887193,11.4254318 L40.4280181,49.1449827 C40.2957224,49.5462546 40.0311309,49.8137691 39.6342438,49.9475264 C39.2373566,50.0812836 38.8404694,49.9475264 38.5758779,49.6800118 L30.5058383,42.8583909 C29.9766554,42.4571191 29.3151767,42.4571191 28.9182895,42.9921482 L24.8171219,47.1386236 C24.4202347,47.5398955 24.0233475,47.5398955 23.4941646,47.4061382 C23.0972774,47.2723809 22.8326859,46.7373518 22.8326859,46.33608 L22.8326859,37.5081 C22.8326859,37.2405854 22.9649816,36.8393136 23.2295731,36.7055564 L39.8988352,19.5846254 L20.0544755,34.6991973 C19.6575883,34.9667118 18.9961097,34.9667118 18.5992225,34.6991973 L10.3968872,27.8775763 C10.1322957,27.6100618 10,27.20879 10,26.8075182 C10.1322957,26.4062463 10.3968872,26.0049745 10.6614787,25.8712173 Z" id="Telegram"></path>
            </g>
        </g>
    </g>
</svg>