<?xml version="1.0" encoding="UTF-8"?>
<svg width="60px" height="60px" viewBox="0 0 60 60" version="1.1" xmlns="http://www.w3.org/2000/svg" xmlns:xlink="http://www.w3.org/1999/xlink">
    <title>Community-Medium</title>
    <g id="2022---新官网" stroke="none" stroke-width="1" fill="none" fill-rule="evenodd">
        <g id="编组-20备份" transform="translate(-205.000000, 0.000000)" fill="#FFFFFF" fill-rule="nonzero">
            <g id="编组-31" transform="translate(205.000000, 0.000000)">
                <path d="M24,20.2186745 L24,46.6481005 C24,47.0236325 23.9092668,47.3428321 23.7278004,47.6056993 C23.5463339,47.8685664 23.2814001,48 22.9329988,48 C22.6862166,48 22.4466876,47.9399086 22.2144116,47.8197257 L12.0887223,42.5699663 C11.7838648,42.4197378 11.5261967,42.1681345 11.315718,41.8151565 C11.1052393,41.4621784 11,41.11292 11,40.7673811 L11,15.0815275 C11,14.7810966 11.0725815,14.5257343 11.2177445,14.3154406 C11.3629074,14.1051469 11.5734115,14 11.8492568,14 C12.0524951,14 12.3718714,14.1126649 12.8073858,14.3379946 L23.9346843,20.1060228 C23.9782281,20.1511045 24,20.1886551 24,20.2186745 Z M25,22 L37,41 L25,35.1639706 L25,22 Z M50,23 L50,46.7387393 C50,47.114122 49.8962962,47.4181778 49.6888885,47.6509067 C49.4814808,47.8836356 49.2000026,48 48.844454,48 C48.4889053,48 48.1407585,47.90241 47.8000136,47.7072299 L38,42.752249 L50,23 Z M44.3120173,28.9297572 C40.5200289,35.2350518 38.2988083,38.9251327 37.6483554,40 L29,25.6030255 L36.1847977,13.635828 C36.4361102,13.2119427 36.8204781,13 37.3379014,13 C37.5448708,13 37.7370547,13.045422 37.9144533,13.1362659 L49.9112878,19.2673966 C49.9704293,19.2976779 50,19.3430999 50,19.4036625 C50,19.4491109 48.1040058,22.6244626 44.3120173,28.9297572 Z" id="Medium"></path>
            </g>
        </g>
    </g>
</svg>