<?xml version="1.0" encoding="UTF-8"?>
<svg width="100px" height="24px" viewBox="0 0 100 24" version="1.1" xmlns="http://www.w3.org/2000/svg" xmlns:xlink="http://www.w3.org/1999/xlink">
    <title>df-logo</title>
    <g id="2022---新官网" stroke="none" stroke-width="1" fill="none" fill-rule="evenodd">
        <g id="Web-3" transform="translate(-29.000000, -28.000000)">
            <g id="df-logo" transform="translate(31.000000, 30.000000)">
                <path d="M58.1261222,6.29650908 C58.9226526,6.29650908 59.6796168,6.44674639 60.3760747,6.74341314 C61.0719542,7.03984911 61.6891641,7.45398251 62.210582,7.9740436 C62.7322313,8.49422007 63.1473295,9.10982377 63.4445389,9.80377704 C63.7417483,10.498538 63.8924932,11.253417 63.8924932,12.0478747 C63.8924932,12.8279086 63.7417483,13.5757488 63.4445389,14.270279 C63.1472138,14.9644631 62.7321156,15.5799514 62.210582,16.1001279 C61.6883542,16.6209967 61.0711444,17.0348993 60.3760747,17.3308737 C59.6796168,17.6273097 58.9225369,17.7776624 58.1261222,17.7776624 C57.3297075,17.7776624 56.5727433,17.6273097 55.8762854,17.3307583 C55.1812157,17.0348993 54.5640059,16.6209967 54.0417781,16.1001279 C53.519666,15.5792591 53.1044522,14.9636554 52.8079369,14.270279 C52.5106118,13.5765566 52.3597512,12.8287163 52.3597512,12.0478747 C52.3597512,11.2526093 52.5106118,10.4976149 52.8078212,9.80377704 C53.1043365,9.1106315 53.5195503,8.49491241 54.0417781,7.9740436 C54.5631961,7.45398251 55.1804059,7.03984911 55.8762854,6.74329775 C56.5727433,6.44674639 57.3297075,6.29650908 58.1261222,6.29650908 Z M80.546694,6.29650908 C81.3432244,6.29650908 82.1001886,6.44686177 82.7965308,6.74341314 C83.4459027,7.02000209 84.0278268,7.39986477 84.5264537,7.87238533 L84.5264537,7.87238533 L84.683446,8.02112257 L82.7512958,9.94824486 L82.6022862,9.8109312 C82.0329723,9.28556219 81.3412576,9.01912752 80.546694,9.01912752 C79.734661,9.01912752 79.0106687,9.31671739 78.3945001,9.90358908 C77.8087581,10.4876914 77.5100448,11.2102613 77.5100448,12.0479901 C77.5100448,12.8711797 77.808064,13.5857877 78.3955413,14.1718517 C78.6898584,14.4651721 79.0231633,14.6879895 79.3863164,14.8341882 C79.7500479,14.980733 80.1403883,15.0550439 80.546694,15.0550439 C81.3534052,15.0550439 82.0447727,14.789417 82.6019391,14.2657788 L82.6019391,14.2657788 L82.750833,14.1255804 L84.683446,16.0530489 L84.5264537,16.2019015 C84.0273641,16.6747683 83.4454399,17.0546309 82.7965308,17.3308737 C82.1000729,17.6273097 81.3431087,17.7777778 80.546694,17.7777778 C79.7501636,17.7777778 78.9931994,17.6273097 78.2967415,17.3308737 C77.6016718,17.0350147 76.984462,16.6208813 76.4622342,16.1001279 C75.9400064,15.5792591 75.5249082,14.9636554 75.2282773,14.2703944 C74.9310679,13.5766719 74.780323,12.8287163 74.780323,12.0479901 C74.780323,11.2527247 74.9310679,10.4976149 75.2282773,9.80377704 C75.5247925,9.11051611 75.9400064,8.49491241 76.4622342,7.9740436 C76.9839992,7.45375173 77.6010933,7.03973372 78.2967415,6.74329775 C78.9931994,6.44674639 79.7501636,6.29650908 80.546694,6.29650908 Z M91.7335133,6.29650908 C92.5300437,6.29650908 93.2871236,6.44686177 93.9835815,6.74341314 C94.679461,7.0399645 95.2965551,7.45398251 95.8180888,7.9740436 C96.3397381,8.49422007 96.7548363,9.10993916 97.0520457,9.80377704 C97.349255,10.4984226 97.5,11.2535324 97.5,12.0479901 C97.5,12.4677775 97.4573101,12.870372 97.373203,13.2448114 L97.373203,13.2448114 L97.3364134,13.4092416 L89.0168645,13.4092416 C89.1537266,13.6898692 89.3431123,13.9455726 89.5813194,14.1703516 C89.8778346,14.4662106 90.2100983,14.6882203 90.5732514,14.8341882 C90.9372143,14.980733 91.327439,15.0549286 91.7335133,15.0549286 C92.2836225,15.0549286 92.7827121,14.9316924 93.2165522,14.6885665 L93.2165522,14.6885665 L93.3044772,14.6391797 L96.1303379,15.766421 L95.9224418,15.9910847 C95.4265915,16.5267234 94.8329825,16.9555112 94.1579274,17.2656786 C93.4179697,17.6055011 92.6023504,17.7777778 91.7335133,17.7777778 C90.93733,17.7777778 90.1803658,17.6274251 89.4836765,17.3307583 C88.7886068,17.0351301 88.171397,16.6209967 87.6492849,16.1001279 C87.1270571,15.5793744 86.7119589,14.9636554 86.415328,14.2705098 C86.1180029,13.5765566 85.9673736,12.8288317 85.9673736,12.0479901 C85.9673736,11.2527247 86.1180029,10.4977303 86.4152123,9.80389243 C86.7118432,9.1106315 87.1270571,8.4950278 87.6492849,7.9740436 C88.1707028,7.45398251 88.7879126,7.0399645 89.4836765,6.74329775 C90.1803658,6.44686177 90.9372143,6.29650908 91.7335133,6.29650908 Z M39.3613585,2.22222222 L39.3613585,17.4478846 L36.6316367,17.4478846 L36.6316367,11.9978013 C36.6316367,11.1466874 36.3338489,10.4250406 35.7466029,9.85305418 C35.1579687,9.26583633 34.441959,8.96905419 33.6165059,8.96905419 C32.7769386,8.96905419 32.0531777,9.26629789 31.4655847,9.85236185 C30.8779916,10.4385412 30.5799724,11.1603034 30.5799724,11.9978013 C30.5799724,12.820991 30.8779916,13.5354836 31.4655847,14.121663 C31.746713,14.4162527 32.0750432,14.6379162 32.445022,14.7838841 C32.8159264,14.9306597 33.2100846,15.0049706 33.6165059,15.0049706 C33.883712,15.0049706 34.1472375,14.9923639 34.3854278,14.9316401 C34.4747492,14.9088687 34.5811444,14.8763495 34.683256,14.843167 L34.8754397,14.7786094 C34.9623477,14.7485802 35.0307339,14.723944 35.0592408,14.7137856 L35.0592408,14.7137856 L35.0582903,15.1950159 C35.0578625,15.4241877 35.0575061,15.6361945 35.0572209,15.8310362 L35.0572209,17.3452136 C35.0575061,17.4027349 35.0578625,17.443091 35.0582903,17.4662821 L35.0592408,17.4897776 C34.5532061,17.647792 33.9977337,17.7275891 33.4007428,17.7275891 C32.6042124,17.7275891 31.8578918,17.5772364 31.1826052,17.2804542 C30.5080128,16.9841336 29.9159079,16.5695387 29.4228342,16.0485545 C28.9298761,15.5281472 28.5403456,14.9124281 28.2650017,14.2185903 C27.9897736,13.5249832 27.8502506,12.7779507 27.8502506,11.9978013 C27.8502506,11.2033437 27.9897736,10.4490416 28.2651174,9.75543455 C28.5401142,9.06205824 28.9295291,8.44622375 29.4229498,7.92535494 C29.9155608,7.40494769 30.5074344,6.99046812 31.1823738,6.69357058 C31.8577761,6.39678844 32.6040967,6.24643575 33.4007428,6.24643575 C34.0966223,6.24643575 34.7295661,6.35674824 35.2821048,6.57414231 C35.7830455,6.77145859 36.2363216,7.02023864 36.6316367,7.31471299 L36.6316367,7.31471299 L36.6316367,2.22222222 L39.3613585,2.22222222 Z M73.3727259,6.29650908 L73.3727259,9.01774285 L72.2442789,9.02535856 C71.4612843,9.05489831 70.78218,9.35133428 70.2258235,9.90612765 C69.6393874,10.5191928 69.3403269,11.2421088 69.3403269,12.0515671 L69.3403269,12.0515671 L69.3403269,17.5231129 L66.6104894,17.5231129 L66.6104894,6.60148389 L69.3403269,6.60148389 L69.3403269,7.36513249 C69.7187512,7.07261977 70.1461126,6.82522439 70.6126931,6.62860045 C71.0900329,6.42724554 71.6344733,6.3173946 72.2308588,6.30204778 L72.2308588,6.30204778 L73.3727259,6.29650908 Z M52.4502936,2.22222222 L52.4502936,4.94495605 L44.8771811,4.94495605 L44.8771811,8.46295525 L50.7986047,8.46295525 L49.9642791,11.1855737 L44.8771811,11.1855737 L44.8771811,17.4263067 L42.1474593,17.4263067 L42.1474593,2.22222222 L52.4502936,2.22222222 Z M58.1261222,9.01912752 C57.2864392,9.01912752 56.5629096,9.31625583 55.9750852,9.90243518 C55.3874922,10.4886145 55.0895887,11.2103767 55.0895887,12.0478747 C55.0895887,12.8710643 55.3874922,13.5855569 55.9750852,14.1717363 C56.2563293,14.466326 56.5847752,14.6879895 56.9546383,14.8339574 C57.325427,14.980733 57.7197008,15.0549286 58.1261222,15.0549286 C58.5320808,15.0549286 58.9225369,14.980733 59.2866155,14.8340728 C59.6498843,14.6877587 59.9833048,14.4649414 60.2772749,14.1717363 C60.8647522,13.5856723 61.1627714,12.8711797 61.1627714,12.0478747 C61.1627714,11.2102613 60.8647522,10.4884991 60.2772749,9.90243518 C59.6627259,9.31752512 58.9378081,9.01912752 58.1261222,9.01912752 Z M91.7335133,9.01924291 C90.9218274,9.01924291 90.1977194,9.31671739 89.5815508,9.90370446 C89.3446162,10.139907 89.1541894,10.4036878 89.0167488,10.6866231 L89.0167488,10.6866231 L94.4503934,10.6866231 C94.3129529,10.4040339 94.1231045,10.1405994 93.884666,9.90243518 C93.2971886,9.31637122 92.5734277,9.01924291 91.7335133,9.01924291 Z" id="logo备份" fill="#FFFFFF"></path>
                <g id="编组-2" stroke="#FFFFFF" stroke-width="2.5">
                    <path d="M0,18.8781278 L0,4.44444444 L9.12586574,4.44444444 C12.2759135,4.44444444 14.8295318,6.93175139 14.8295318,10 C14.8295318,13.0682486 12.2759135,15.5555556 9.12586574,15.5555556 L7.9902782,15.5555556" id="路径"></path>
                    <path d="M1.14073322,0 C3.22776742,0 4.41279867,0 4.69582696,0 C5.68028002,0 7.37686486,0 9.78558149,0 C15.4556675,0 20.0521804,4.4771525 20.0521804,10 C20.0521804,15.5228475 15.4556675,20 9.78558149,20 L4.56293287,20 L4.56293287,7.6675633" id="路径"></path>
                </g>
            </g>
        </g>
    </g>
</svg>