<?xml version="1.0" encoding="UTF-8"?>
<svg width="60px" height="60px" viewBox="0 0 60 60" version="1.1" xmlns="http://www.w3.org/2000/svg" xmlns:xlink="http://www.w3.org/1999/xlink">
    <title>ETH</title>
    <g id="2022---新官网" stroke="none" stroke-width="1" fill="none" fill-rule="evenodd" opacity="0.5">
        <g id="ETH">
            <path d="M30,0.75 C38.0772413,0.75 45.3897423,4.02387752 50.6829324,9.31706759 C55.9761225,14.6102577 59.25,21.9227587 59.25,30 C59.25,38.0772413 55.9761225,45.3897423 50.6829324,50.6829324 C45.3897423,55.9761225 38.0772413,59.25 30,59.25 C21.9228682,59.25 14.6103384,55.9760907 9.31710636,50.6828587 C4.02392245,45.3896748 0.75,38.0772044 0.75,30 C0.75,21.9227956 4.02392245,14.6103252 9.31710636,9.31714131 C14.6103384,4.02390925 21.9228682,0.75 30,0.75 Z" id="Fill-506" stroke="#E3E7EF" stroke-width="1.5"></path>
            <path d="M21,33.6177815 L29.5504763,38.3747264 L29.5504763,45 L21,33.6177815 Z M38.9961795,33.6177815 L30.4235914,45 L30.4235914,38.3747264 L38.9961795,33.6177815 Z M29.5504763,15.0060965 L29.5504763,37.2854531 L21,32.723725 L29.5504763,15.0060965 Z M30.4235914,15 L38.9961795,32.723725 L30.4235914,37.2854531 L30.4235914,15 Z" id="形状结合" fill="#FFFFFF"></path>
        </g>
    </g>
</svg>