<?xml version="1.0" encoding="UTF-8"?>
<svg width="386px" height="150px" viewBox="0 0 386 150" version="1.1" xmlns="http://www.w3.org/2000/svg" xmlns:xlink="http://www.w3.org/1999/xlink">
    <title>HuobiCapital</title>
    <defs>
        <polygon id="path-1" points="0 0 8.88813029 0 8.88813029 22.4689352 0 22.4689352"></polygon>
        <polygon id="path-3" points="0 0 12.813422 0 12.813422 30.083675 0 30.083675"></polygon>
    </defs>
    <g id="2022---新官网" stroke="none" stroke-width="1" fill="none" fill-rule="evenodd">
        <g id="Web-3" transform="translate(-1173.000000, -6624.000000)">
            <g id="编组-39" transform="translate(-79.000000, 2280.000000)">
                <g id="编组-41" transform="translate(438.000000, 4344.000000)">
                    <g id="HuobiCapital" transform="translate(814.000000, 0.000000)">
                        <path d="M10,0 L376,0 C381.522847,-1.01453063e-15 386,4.4771525 386,10 L386,140 C386,145.522847 381.522847,150 376,150 L10,150 C4.4771525,150 6.76353751e-16,145.522847 0,140 L0,10 C-6.76353751e-16,4.4771525 4.4771525,1.01453063e-15 10,0 Z" id="矩形备份-6" fill="#FFFFFF" opacity="0.05"></path>
                        <g id="logo.55bde23" transform="translate(86.000000, 58.000000)">
                            <path d="M185.468599,29.2840545 L185.468599,26.680351 C185.468599,26.0641633 184.971733,25.5654234 184.358878,25.5670776 C183.738619,25.5695589 182.961239,25.5720401 182.303139,25.5720401 C180.627452,25.5720401 179.666626,24.7292277 179.666626,22.546517 L179.666626,15.9636466 L185.468599,15.9636466 L185.468599,13.3640786 C185.468599,12.7495451 184.972555,12.2508052 184.361345,12.2508052 L179.666626,12.2508052 L179.666626,7.92839276 C179.666626,7.3138592 179.170584,6.81511931 178.559373,6.81511931 L175.540342,6.81511931 L175.540342,23.0452569 C175.540342,26.975625 177.587031,29.2840545 181.807095,29.2840545 C183.437538,29.2840545 184.620472,29.237737 185.468599,29.2840545 Z" id="Fill-3" fill="#FFFFFF" fill-rule="nonzero"></path>
                            <path d="M142.498882,21.4977571 L142.498882,25.8565617 C142.174768,25.9202483 141.816926,25.9698741 141.430292,26.0054393 C140.480161,26.095593 139.627922,26.1121349 138.63995,26.0211542 C138.253316,25.9864161 137.895474,25.8871644 137.577941,25.7283617 C137.271102,25.5753485 137.019379,25.3569948 136.810432,25.0600667 C136.61218,24.7796806 136.51182,24.3644775 136.51182,23.8276913 C136.51182,22.9906684 136.808787,22.3918496 137.419175,21.9956699 C138.069871,21.5730229 139.054552,21.3588046 140.346896,21.3588046 C140.695689,21.3588046 141.120163,21.378655 141.622787,21.4183557 C141.951014,21.4456498 142.243046,21.4712899 142.498882,21.4977571 M144.744647,13.4658116 C143.500016,12.4658506 141.681193,11.9596668 139.336713,11.9596668 C138.465553,11.9596668 137.549149,12.0233533 136.613825,12.1490722 C135.863591,12.2499781 134.801583,12.3938931 134.064511,12.5642752 C133.765899,12.6337514 133.710783,12.8694742 133.710783,13.1523416 L133.710783,15.4053556 C133.710783,15.8073252 133.714896,16.1729023 134.137725,16.068688 C134.926622,15.8759743 136.457526,15.53521 136.872952,15.4657338 C137.530229,15.357384 138.245912,15.3019685 139.000259,15.3019685 C140.174145,15.3019685 141.069983,15.5137054 141.66145,15.9289085 C142.217544,16.3201257 142.498882,17.0653407 142.498882,18.1422218 L142.498882,18.2729033 C142.289935,18.25388 142.060423,18.2348568 141.810345,18.2183148 C141.341449,18.1868851 140.741756,18.1703432 140.010442,18.1703432 C139.011776,18.1703432 138.043547,18.2836555 137.134546,18.5086262 C136.212384,18.7377322 135.383179,19.0900758 134.66914,19.5598673 C133.943585,20.0379297 133.361167,20.6450194 132.939161,21.3645943 C132.513041,22.0907861 132.297514,22.9402153 132.297514,23.8897235 C132.297514,24.8541194 132.481781,25.6927965 132.846204,26.383423 C133.213095,27.0806664 133.74122,27.6612889 134.414127,28.1104029 C135.077162,28.5529002 135.890738,28.8762954 136.830998,29.0739718 C137.745757,29.2650313 138.781441,29.3618016 139.909259,29.3618016 C140.730239,29.3618016 146.645733,29.2782648 146.645733,26.4471095 L146.645733,18.2654593 C146.645733,16.094328 146.006554,14.4798333 144.744647,13.4658116" id="Fill-5" fill="#FFFFFF" fill-rule="nonzero"></path>
                            <path d="M198.847025,21.4977571 L198.847025,25.8565617 C198.523733,25.9202483 198.165893,25.9698741 197.778435,26.0054393 C196.828304,26.095593 195.976888,26.1121349 194.988093,26.0211542 C194.60146,25.9864161 194.243618,25.8871644 193.926085,25.7283617 C193.619245,25.5753485 193.368345,25.3569948 193.159398,25.0600667 C192.961145,24.7796806 192.860786,24.3644775 192.860786,23.8276913 C192.860786,22.9906684 193.156931,22.3918496 193.76814,21.9956699 C194.418013,21.5730229 195.402696,21.3588046 196.695039,21.3588046 C197.044654,21.3588046 197.468306,21.378655 197.970929,21.4183557 C198.299157,21.4456498 198.592012,21.4712899 198.847025,21.4977571 M201.09279,13.4658116 C199.848982,12.4658506 198.029337,11.9596668 195.684855,11.9596668 C194.813696,11.9596668 193.897293,12.0233533 192.961969,12.1490722 C192.211735,12.2499781 191.149726,12.3938931 190.413478,12.5642752 C190.114042,12.6337514 190.059748,12.8694742 190.059748,13.1523416 L190.059748,15.4053556 C190.059748,15.8073252 190.063861,16.1729023 190.486691,16.068688 C191.274765,15.8759743 192.80567,15.53521 193.221096,15.4657338 C193.878372,15.357384 194.594878,15.3019685 195.348403,15.3019685 C196.522288,15.3019685 197.418127,15.5137054 198.009594,15.9289085 C198.565688,16.3201257 198.847025,17.0653407 198.847025,18.1422218 L198.847025,18.2729033 C198.638901,18.25388 198.408567,18.2348568 198.158489,18.2183148 C197.690415,18.1868851 197.089899,18.1703432 196.358586,18.1703432 C195.359919,18.1703432 194.391691,18.2836555 193.483513,18.5086262 C192.560528,18.7377322 191.731322,19.0900758 191.017284,19.5598673 C190.291729,20.0379297 189.710133,20.6450194 189.287304,21.3645943 C188.861185,22.0907861 188.645656,22.9402153 188.645656,23.8897235 C188.645656,24.8541194 188.829925,25.6927965 189.194347,26.383423 C189.561238,27.0806664 190.090185,27.6612889 190.763093,28.1104029 C191.426128,28.5529002 192.238881,28.8762954 193.179963,29.0739718 C194.094722,29.2650313 195.129585,29.3618016 196.258225,29.3618016 C197.078382,29.3618016 202.994698,29.2782648 202.994698,26.4471095 L202.994698,18.2654593 C202.994698,16.094328 202.354696,14.4798333 201.09279,13.4658116" id="Fill-7" fill="#FFFFFF" fill-rule="nonzero"></path>
                            <g id="Fill-12-Clipped" transform="translate(206.111870, 6.584111)">
                                <mask id="mask-2" fill="white">
                                    <use xlink:href="#path-1"></use>
                                </mask>
                                <g id="path-3"></g>
                                <path d="M8.88845935,22.4689352 L8.88845935,19.8652317 C8.88845935,19.249044 8.39159406,18.749477 7.77873869,18.7519583 C7.15930232,18.7544396 6.38109941,18.7569209 5.72382231,18.7569209 C4.0481359,18.7569209 4.12628524,17.9141083 4.12628524,15.7305705 L4.12628524,5.43568586 L4.12628524,1.11327345 C4.12628524,0.498739892 3.63024258,0 3.01903246,0 L0,0 L0,16.2301375 C0,20.1605056 1.0077152,22.4689352 5.22695702,22.4689352 C6.85739908,22.4689352 8.04033332,22.4226176 8.88845935,22.4689352 C8.88845935,22.4689352 8.88845935,22.4689352 8.88845935,22.4689352" id="Fill-12" fill="#FFFFFF" fill-rule="nonzero" mask="url(#mask-2)"></path>
                            </g>
                            <path d="M161.091844,21.5224045 C161.091844,23.5430042 159.447418,24.887865 157.438568,24.887865 C155.428896,24.887865 153.784469,23.5430042 153.784469,21.5224045 L153.784469,18.6391422 C153.784469,16.6193696 155.428896,15.2736817 157.438568,15.2736817 C159.447418,15.2736817 161.091844,16.6193696 161.091844,18.6391422 L161.091844,21.5224045 Z M157.438568,11.6079849 C153.189712,11.6079849 149.7133,15.1024724 149.7133,19.3744319 L149.7133,32.8280026 C149.7133,33.47562 150.235667,34 150.879782,34 L153.763904,34 L153.763904,27.7148848 C154.857995,28.2558067 156.11003,28.5535618 157.438568,28.5535618 C161.686601,28.5535618 165.163014,25.0590741 165.163014,20.7871148 L165.163014,19.3744319 C165.163014,15.0851034 161.7047,11.6079849 157.438568,11.6079849 Z" id="Fill-15" fill="#FFFFFF" fill-rule="nonzero"></path>
                            <path d="M129.417258,12.8511954 C128.040184,11.0472953 125.285214,10.4674999 123.394823,10.4674999 C119.486533,10.4674999 116.571151,13.3019636 116.571151,17.5863295 C116.571151,22.7714048 119.422368,25.3808979 123.555235,25.3808979 C125.732722,25.3808979 128.167691,24.5107912 129.353093,23.2552568 L129.513505,23.2552568 L129.513505,26.304766 C129.513505,27.5975196 127.075245,29.2136684 122.977752,29.2136684 C117.146989,29.2136684 112.150366,24.8333593 112.150366,18.2298115 C112.150366,11.4343771 116.666576,6.63472931 123.362741,6.63472931 C126.950207,6.63472931 129.57767,7.91838489 129.57767,8.92413564 L129.57767,12.8511954 L129.417258,12.8511954 Z" id="Fill-17" fill="#FFFFFF" fill-rule="nonzero"></path>
                            <path d="M169.502112,29.0958897 L172.423252,29.0958897 L172.423252,14.2246738 C172.423252,13.5977337 171.918161,13.0890686 171.29461,13.0890686 L168.372648,13.0890686 L168.372648,27.9611118 C168.372648,28.5880518 168.878562,29.0958897 169.502112,29.0958897" id="Fill-19" fill="#FFFFFF" fill-rule="nonzero"></path>
                            <path d="M170.398196,11.5188237 C171.646941,11.5188237 172.65877,10.5014936 172.65877,9.24595934 C172.65877,7.99125219 171.646941,6.97309496 170.398196,6.97309496 C169.149453,6.97309496 168.137624,7.99125219 168.137624,9.24595934 C168.137624,10.5014936 169.149453,11.5188237 170.398196,11.5188237" id="Fill-21" fill="#FFFFFF" fill-rule="nonzero"></path>
                            <path d="M38.0677519,7.00295319 L38.0677519,15.7586091 L29.412918,15.7586091 L29.412918,8.13855828 C29.412918,7.51161826 28.9070038,7.00295319 28.2834543,7.00295319 L25.3623143,7.00295319 L25.3623143,27.960781 C25.3623143,28.5877209 25.8674058,29.095559 26.4917779,29.095559 L29.412918,29.095559 L29.412918,19.3167833 L38.0677519,19.3167833 L38.0677519,27.960781 C38.0677519,28.5877209 38.5736661,29.095559 39.1972156,29.095559 L42.1183557,29.095559 L42.1183557,8.13855828 C42.1183557,7.51161826 41.6124416,7.00295319 40.9888921,7.00295319 L38.0677519,7.00295319 Z" id="Fill-23" fill="#FFFFFF" fill-rule="nonzero"></path>
                            <path d="M55.2440723,12.4812346 L55.2440723,22.9828936 C55.2440723,23.9373644 54.7603691,24.8413821 53.9385671,25.3186174 C51.6450896,26.6510718 49.2709948,24.9869513 49.2709948,22.7926612 L49.2709948,13.6168397 C49.2709948,12.9898996 48.7659033,12.4812346 48.1423538,12.4812346 L45.2096969,12.4812346 L45.2088743,12.4812346 L45.2088743,23.1665093 C45.2088743,26.6047543 48.0066207,29.4177135 51.4262714,29.4177135 L53.0887959,29.4177135 C56.5084465,29.4177135 59.306193,26.6047543 59.306193,23.1665093 L59.306193,13.6168397 C59.306193,12.9898996 58.8002788,12.4812346 58.1767293,12.4812346 L55.2440723,12.4812346 Z" id="Fill-25" fill="#FFFFFF" fill-rule="nonzero"></path>
                            <path d="M99.5512941,29.0958897 L102.472434,29.0958897 L102.472434,14.2246738 C102.472434,13.5977337 101.967343,13.0890686 101.343793,13.0890686 L98.4218304,13.0890686 L98.4218304,27.9611118 C98.4218304,28.5880518 98.9277446,29.0958897 99.5512941,29.0958897" id="Fill-27" fill="#FFFFFF" fill-rule="nonzero"></path>
                            <path d="M100.447379,11.5188237 C101.696123,11.5188237 102.707952,10.5014936 102.707952,9.24595934 C102.707952,7.99125219 101.696123,6.97309496 100.447379,6.97309496 C99.198635,6.97309496 98.1868067,7.99125219 98.1868067,9.24595934 C98.1868067,10.5014936 99.198635,11.5188237 100.447379,11.5188237" id="Fill-29" fill="#FFFFFF" fill-rule="nonzero"></path>
                            <path d="M73.4276967,22.3858118 C73.4276967,24.4064115 71.78327,25.7512722 69.7744207,25.7512722 C67.7647485,25.7512722 66.120322,24.4064115 66.120322,22.3858118 L66.120322,19.5025494 C66.120322,17.4819497 67.7647485,16.137089 69.7744207,16.137089 C71.78327,16.137089 73.4276967,17.4819497 73.4276967,19.5025494 L73.4276967,22.3858118 Z M69.7744207,12.4713921 C65.5255644,12.4713921 62.0491525,15.5266909 62.0491525,19.7986503 L62.0491525,22.1087341 C62.0491525,26.3806936 65.5255644,29.4169691 69.7744207,29.4169691 C74.0224543,29.4169691 77.4988662,26.3806936 77.4988662,22.1087341 L77.4988662,19.7986503 C77.4988662,15.5266909 74.0224543,12.4713921 69.7744207,12.4713921 Z" id="Fill-31" fill="#FFFFFF" fill-rule="nonzero"></path>
                            <path d="M91.6190536,22.3858118 C91.6190536,24.4064115 89.974627,25.7512722 87.9657776,25.7512722 C85.9561056,25.7512722 84.3125016,24.4064115 84.3125016,22.3858118 L84.3125016,19.5025494 C84.3125016,17.4827768 85.9561056,16.137089 87.9657776,16.137089 C89.974627,16.137089 91.6190536,17.4827768 91.6190536,19.5025494 L91.6190536,22.3858118 Z M87.9657776,12.4713921 C86.6380614,12.4713921 85.3852041,12.7699744 84.2911133,13.3100691 L84.2911133,8.15973198 C84.2911133,7.53279196 83.7860218,7.02495398 83.1624723,7.02495398 L80.2405096,7.02495398 L80.2405096,22.1087341 C80.2405096,26.3806936 83.7169213,29.4169691 87.9657776,29.4169691 C92.2138114,29.4169691 95.690223,26.3806936 95.690223,22.1087341 L95.690223,19.7986503 C95.690223,15.5266909 92.2138114,12.4713921 87.9657776,12.4713921 Z" id="Fill-33" fill="#FFFFFF" fill-rule="nonzero"></path>
                            <g id="Fill-35-Clipped">
                                <mask id="mask-4" fill="white">
                                    <use xlink:href="#path-3"></use>
                                </mask>
                                <g id="path-5"></g>
                                <path d="M12.813422,9.2588621 C12.813422,4.938931 10.7206649,1.22443539 9.12888619,0.0152185979 C9.12230519,0.0110831092 9.00713776,-0.054257607 9.01700924,0.118605805 C9.01700924,0.121087098 9.01454138,0.121914197 9.01454138,0.12439549 C8.8820988,8.46402124 4.64475923,10.7244792 2.31508623,13.7698528 C-3.06076587,20.7960475 1.93914676,28.5004621 7.03037072,29.9238972 C9.87911987,30.7203924 6.37227099,28.5145229 5.92065006,23.8538276 C5.3744273,18.2212923 12.813422,13.9220387 12.813422,9.2588621" id="Fill-35" fill="#FFFFFF" fill-rule="nonzero" mask="url(#mask-4)"></path>
                            </g>
                            <path d="M15.606644,12.0979575 C15.5720937,12.0756259 15.5219136,12.0607381 15.488186,12.1136724 C15.3944068,13.1640864 14.2558943,15.4088295 12.8130107,17.4716111 C7.91921665,24.4663759 10.7079142,27.8376261 12.2766594,29.64897 C13.1873049,30.7002111 12.2766594,29.64897 14.5520392,28.5745701 C14.7313714,28.4902061 18.9933896,26.2388463 19.4548821,21.1083594 C19.9015672,16.1391568 16.7344625,13.007765 15.606644,12.0979575" id="Fill-38" fill-opacity="0.601090438" fill="#FFFFFF" fill-rule="nonzero"></path>
                        </g>
                    </g>
                </g>
            </g>
        </g>
    </g>
</svg>