<?xml version="1.0" encoding="UTF-8"?>
<svg width="16px" height="16px" viewBox="0 0 16 16" version="1.1" xmlns="http://www.w3.org/2000/svg" xmlns:xlink="http://www.w3.org/1999/xlink">
    <title>language</title>
    <g id="页面-1" stroke="none" stroke-width="1" fill="none" fill-rule="evenodd">
        <g id="CN---暗黑模式" transform="translate(-1802.000000, -21.000000)" fill="#D4D9E0" fill-rule="nonzero">
            <g id="编组-6" transform="translate(20.000000, 19.000000)">
                <g id="编组-3" transform="translate(1724.000000, 0.000000)">
                    <path d="M65.9604565,18 C61.5387048,18 57.9209131,14.381911 58.0013147,9.95979587 C58.0013147,5.53768077 61.5387048,2 66.0408582,2 C70.4626099,2 74,5.61808903 74,9.95979587 C73.9196046,14.4623004 70.3822083,18 65.9604565,18 Z M66.3624328,5.69849729 L66.5232235,5.69849729 C66.8448056,5.69849729 67.0859917,5.45729136 67.1663858,5.13568281 C67.2467812,4.97487892 67.2467812,4.89447688 67.2467812,4.73367355 C67.2467812,4.57286966 67.2467812,4.49246761 67.1663858,4.33166429 C67.0055951,4.09045835 66.5232235,4.09045835 66.3624315,4.33166429 C66.2016408,4.41206633 66.1212453,4.49246818 65.9604552,4.49246818 L65.397687,4.49246818 C65.0761049,4.49246818 64.9957108,4.65327207 64.9153148,4.89447744 C64.9153148,5.05528134 64.8349193,5.13568338 64.6741286,5.13568338 L64.1917564,5.13568338 C64.111361,5.13568338 63.9505703,5.05528134 63.8701743,4.97487949 C63.7897789,4.97487949 63.7897789,4.89447744 63.8701743,4.81407559 C63.9505697,4.73367355 64.030965,4.73367355 64.1917564,4.73367355 C64.3525471,4.81407559 64.4329425,4.73367355 64.5937326,4.57286966 L64.5937326,4.49246761 C64.5937326,4.41206557 64.6741281,4.41206557 64.7545233,4.41206557 L64.8349188,4.41206557 C65.0761049,4.25126168 65.317291,4.17085964 65.5584771,4.01005631 C65.7996632,3.84925241 65.9604533,3.76885037 66.0408493,3.60804704 C66.0408493,3.527645 66.1212448,3.527645 66.20164,3.527645 C66.2820355,3.527645 66.3624307,3.44724296 66.3624307,3.36684111 C66.3624307,3.28643907 66.2820353,3.20603721 66.20164,3.20603721 C66.0408493,3.12563517 65.8800579,3.12563517 65.7192678,3.04523332 C65.6388724,3.04523332 65.4780817,2.96483128 65.3976857,3.04523332 C65.3172902,3.04523332 65.3172902,3.12563536 65.236895,3.12563536 C65.1564996,3.2060374 65.0761043,3.28643926 64.9957089,3.28643926 C64.9153134,3.28643926 64.8349182,3.3668413 64.7545228,3.44724315 C64.6741273,3.52764519 64.6741273,3.60804704 64.5937321,3.68844909 C64.5133366,3.76885113 64.5133366,3.84925298 64.4329414,3.84925298 C64.352546,3.849253 64.352546,3.92965502 64.352546,4.01005687 L64.352546,4.09045892 C64.352546,4.17086096 64.2721505,4.17086096 64.1917553,4.09045892 C64.1113599,4.09045892 64.1113599,4.01005687 64.0309646,4.01005687 C63.8701739,3.92965483 63.7897785,3.92965483 63.7093825,4.01005687 C63.6289871,4.17086077 63.5485918,4.17086077 63.4681964,4.01005687 C63.3074057,3.84925298 63.2270103,3.84925298 63.0662201,4.01005687 C62.9054295,4.09045892 62.825034,4.09045892 62.6642439,4.09045892 L62.4230578,4.01005687 C62.2622671,3.92965483 62.1014757,3.92965483 61.9406856,4.09045892 C61.9406856,4.09045892 61.8602901,4.09045892 61.8602901,4.17086096 C61.7798947,4.17086096 61.619104,4.17086096 61.538708,4.251263 C61.3779173,4.33166504 61.1367318,4.49246893 60.9759398,4.65327226 C60.8955444,4.7336743 60.8955444,4.81407616 60.8955444,4.9748808 C60.8955444,5.29648935 60.8955444,5.618096 60.7347537,5.93970455 C60.6543582,6.10050844 60.573963,6.26131309 60.4131716,6.42211642 C60.3327761,6.66332235 60.2523809,6.82412568 60.1719854,7.06533162 C60.0111948,7.38694016 60.09159,7.70854682 60.3327761,7.94975275 C60.6543582,8.19095869 60.7347524,8.51256723 60.8151484,8.83417389 L60.8151484,8.99497778 C60.8955438,9.15578168 60.975939,9.23618372 61.0563345,9.39698705 L61.2975206,9.63819298 C61.4583113,9.71859502 61.6191027,9.79899688 61.6994968,9.87939892 C61.8602875,9.95980096 61.9406829,10.2010075 62.181869,10.2814082 C62.4230552,10.3618102 62.6642413,10.5226141 62.9054274,10.6030167 C62.9858228,10.6834188 63.0662181,10.6030167 62.9858228,10.5226147 C62.9858228,10.3618108 62.9054274,10.2814087 62.8250321,10.2010061 C62.7446367,10.0402022 62.583846,9.8793976 62.4230559,9.79899688 C62.2622652,9.63819298 62.1014738,9.47738833 62.0210797,9.2361824 C61.9406842,9.0753785 61.860289,8.83417313 61.860289,8.67336792 C61.9406844,8.43216198 61.9406844,8.27135866 62.1818711,8.19095605 C62.3426618,8.11055401 62.4230572,8.11055401 62.5838473,8.03015216 C62.9858236,7.94975011 63.2270097,8.19095605 63.3074057,8.51256403 C63.3074057,8.67336792 63.4681964,8.75376996 63.5485918,8.83417257 C63.6289872,8.91457461 63.7093825,8.83417257 63.7093825,8.75377053 L63.7093825,8.59296663 C63.7093825,8.43216274 63.7897779,8.27135809 63.8701732,8.11055476 C64.0309639,7.86934883 64.2721494,7.54774028 64.4329414,7.30653435 L65.1564997,6.58291654 C65.2368952,6.5025145 65.2368952,6.42211265 65.3976859,6.42211265 C65.4780813,6.42211265 65.638872,6.42211265 65.719268,6.34171061 C65.8800587,6.34171061 66.0408501,6.26130857 66.1212442,6.26130857 C66.2016396,6.26130857 66.2820349,6.18090652 66.2820349,6.18090652 C66.3624303,6.02010263 66.4428256,5.93970059 66.3624303,5.77889726 L66.3624303,5.69849522 L66.3624328,5.69849729 Z M66.844805,15.9899443 C67.0859911,15.9899443 67.1663871,15.9095422 67.2467812,15.7487383 C67.2467812,15.7487383 67.2467812,15.6683363 67.3271767,15.6683363 C67.4075721,15.5879342 67.4879674,15.5879342 67.5683628,15.5075324 L68.050735,15.0251205 C68.2115257,14.8643166 68.3723171,14.703512 68.5331072,14.6231113 C68.6135027,14.6231113 68.6938979,14.5427092 68.6938979,14.4623074 C68.8546886,14.1406988 69.01548,13.8994929 69.1762702,13.5778862 C69.2566656,13.4170823 69.2566656,13.2562777 69.3370608,13.0954744 C69.3370608,13.0150723 69.4174563,12.8542684 69.3370608,12.7738658 C69.2566654,12.4522573 69.0154787,12.2914539 68.6938985,12.2110513 C68.6135031,12.2110513 68.5331078,12.1306493 68.3723164,12.1306493 C68.0507343,11.9698454 67.729154,11.8090407 67.568362,11.4070315 C67.4879666,11.2462276 67.4075714,11.1658255 67.2467799,11.1658255 L66.8448037,11.1658255 C66.7644083,11.1658255 66.6036176,11.0854235 66.6036176,11.0050217 C66.4428269,10.7638157 66.2820355,10.6834131 66.0408493,10.7638157 C65.8800587,10.7638157 65.7192672,10.7638157 65.6388731,10.8442178 C65.397687,10.8442178 65.2368969,10.8442178 65.0761049,10.6030118 C65.0761049,10.6030118 65.0761049,10.5226098 64.9957094,10.5226098 C64.8349188,10.4422077 64.8349188,10.3618059 64.915314,10.2010012 C64.915314,10.1205992 64.9957094,9.9597953 64.9957094,9.8793927 C64.9957094,9.8793927 64.9957094,9.79899066 64.915314,9.79899066 C64.7545233,9.79899066 64.5937319,9.79899066 64.5133378,9.8793927 L64.4329423,9.8793927 C64.1917562,9.95979474 64.0309661,10.1205986 63.8701741,10.3618046 C63.7897787,10.6030105 63.7093834,10.8442164 63.7093834,11.0854224 C63.628988,11.2462263 63.628988,11.4874316 63.4681973,11.6482369 C63.5485928,11.487433 63.4681973,11.5678348 63.4681973,11.6482369 C63.4681973,11.8090407 63.4681973,11.9698454 63.5485928,12.0502461 C63.6289882,12.21105 63.7093834,12.3718547 63.7897789,12.6130606 C63.8701743,12.7738645 63.8701743,12.8542665 63.8701743,13.0150699 C63.8701743,13.0954719 63.9505697,13.2562758 64.030965,13.3366784 L64.1917557,13.4974823 C64.3525463,13.5778843 64.5133378,13.7386882 64.7545239,13.8190908 C64.99571,13.8994929 65.076106,14.1406994 65.1565001,14.3819053 C65.1565001,14.7035139 65.2368956,15.0251205 65.2368956,15.3467291 L65.2368956,16.0703469 C65.2368956,16.2311508 65.317291,16.3919554 65.3976862,16.5527587 C65.4780817,16.6331608 65.4780817,16.7135626 65.5584769,16.7939647 C65.5584769,16.9547686 65.7192676,17.0351706 65.880059,16.9547686 C66.1212452,16.7939647 66.2016412,16.5527593 66.1212452,16.3115534 L66.1212452,16.2311513 C66.2016406,16.0703474 66.2820358,15.9899454 66.4428273,15.9899454 C66.6036179,15.9095433 66.6840134,15.9095433 66.8448035,15.9899454 L66.844805,15.9899443 Z M73.6784188,9.95979587 L73.6784188,9.63818733 C73.5980225,9.39698139 73.5980225,9.15577546 73.5980225,8.91456952 C73.5980225,8.67336359 73.517627,8.43215765 73.4372318,8.19095172 C73.3568363,7.94974578 73.1960457,7.70853984 72.9548595,7.62813724 L72.8744641,7.62813724 C72.7136734,7.70853928 72.633278,7.78894113 72.4724879,7.86934317 C72.3920924,7.94974521 72.3116972,7.94974521 72.2313018,8.03014707 C72.1509063,8.11054911 72.0705111,8.271353 72.2313018,8.43215633 C72.3116972,8.51255837 72.3116972,8.67336227 72.2313018,8.75376487 C72.1509063,8.83416691 72.1509063,8.91456877 72.0705111,8.99497081 C71.9901156,9.07537285 71.9901156,9.23617674 71.9901156,9.39698007 L71.9901156,9.55778397 C71.9097202,9.7989899 71.9097202,10.0401958 72.1509063,10.2009992 C72.2313018,10.2814012 72.3920924,10.3618031 72.4724884,10.3618031 C72.6332791,10.3618031 72.7136746,10.4422051 72.8744647,10.4422051 C72.9548601,10.4422051 73.0352554,10.4422051 73.0352554,10.5226071 L73.0352554,10.6030092 C73.1156508,10.6834112 73.2764415,10.7638131 73.3568375,10.6834112 C73.4372329,10.6030092 73.5176281,10.5226073 73.5176281,10.4422053 C73.6784188,10.2009994 73.6784188,10.040196 73.6784188,9.95979342 L73.6784188,9.95979587 Z M71.1861551,4.49246648 C71.1057596,4.57286966 71.1057596,4.65327151 71.1057596,4.73367355 C71.0253642,4.81407559 71.0253642,4.81407559 70.944969,4.81407559 C70.8645735,4.81407559 70.7841783,4.73367355 70.6233868,4.73367355 L70.6233868,4.81407559 C70.7037823,4.97487949 70.7037823,5.13568413 70.7841775,5.21608486 C70.9449682,5.5376934 71.0253636,5.77889933 71.1861538,6.10050599 C71.2665492,6.18090803 71.2665492,6.34171193 71.4273399,6.34171193 C71.5077353,6.34171193 71.5881306,6.34171193 71.668526,6.26130988 C71.8293167,6.10050599 71.8293167,5.93970134 71.7489214,5.77889801 C71.7489214,5.69849597 71.668526,5.69849597 71.668526,5.61809412 C71.7489214,5.61809412 71.7489214,5.61809412 71.8293167,5.53769208 C71.9097121,5.45729004 71.9097121,5.45729004 71.9097121,5.37688818 C71.9097121,5.29648614 71.9097121,5.29648614 71.8293167,5.21608429 C71.7489212,5.0552804 71.5881306,4.89447575 71.5077346,4.81407503 C71.4273391,4.65327113 71.3469439,4.57286909 71.1861524,4.49246648 L71.1861551,4.49246648 Z" id="language"></path>
                </g>
            </g>
        </g>
    </g>
</svg>