<?xml version="1.0" encoding="UTF-8"?>
<svg width="16px" height="16px" viewBox="0 0 16 16" version="1.1" xmlns="http://www.w3.org/2000/svg" xmlns:xlink="http://www.w3.org/1999/xlink">
    <title>Launch-app</title>
    <g id="2022---新官网" stroke="none" stroke-width="1" fill="none" fill-rule="evenodd">
        <path d="M12.0908889,3 C12.3131666,3 12.5277168,3.08131269 12.6940841,3.22871144 C12.8603605,3.37610929 12.9669993,3.57932823 12.9936362,3.79996366 L13,3.90632246 L13,10.2496705 C13,10.7496477 12.5927182,11.1559929 12.0908889,11.1559929 C11.8686113,11.1560475 11.6540611,11.0746784 11.4877392,10.9272851 C11.3213991,10.7798827 11.2148241,10.5766647 11.1881507,10.3560293 L11.181787,10.2496705 L11.1808778,6.12440345 L4.55163995,12.734103 C4.19708664,13.0886323 3.62071022,13.0886323 3.26615963,12.734103 C3.10972344,12.5782919 3.01569408,12.3705741 3.00179468,12.1502204 C2.98789619,11.9298668 3.05508677,11.7120585 3.19070341,11.5377937 L3.26615963,11.4523431 L9.92721369,4.81173585 L5.72712056,4.81173585 C5.50487018,4.81179039 5.29029269,4.73042136 5.12396173,4.58302806 C4.95762168,4.43562567 4.85104659,4.23240764 4.82437327,4.01177221 L4.81800949,3.90632246 C4.81800949,3.44179812 5.16892637,3.0581792 5.62075457,3.00636337 L5.72712056,3 L12.0908889,3 Z" id="路径" fill="#FFFFFF" fill-rule="nonzero" transform="translate(8.000000, 8.000000) rotate(-315.000000) translate(-8.000000, -8.000000) "></path>
    </g>
</svg>