<?xml version="1.0" encoding="UTF-8"?>
<svg width="92px" height="22px" viewBox="0 0 92 22" version="1.1" xmlns="http://www.w3.org/2000/svg" xmlns:xlink="http://www.w3.org/1999/xlink">
    <title>logo</title>
    <g id="页面-1" stroke="none" stroke-width="1" fill="none" fill-rule="evenodd">
        <g id="EN" transform="translate(-20.000000, -20.000000)" fill="#FFA70B">
            <g id="编组-6" transform="translate(20.000000, 19.000000)">
                <path d="M9.83284947,1 C15.5982578,1 20.2888692,5.9345473 20.2888692,12 C20.2888692,17.9676228 15.7483476,22.8405269 10.1109669,22.9961649 L9.83284947,23 L4.07179683,23 L4.07179683,9.77471592 L6.72723972,9.77471592 L6.72723972,20.2233758 L9.83284947,20.2233758 C14.1340383,20.2233758 17.6333086,16.5345322 17.6333086,12 C17.6333086,7.55114136 14.2648405,3.91601713 10.0754384,3.78042642 L9.83284947,3.7765056 L3.50402624,3.7765056 L3.50402624,1 L9.83284947,1 Z M75.6786379,8.72807036 C76.4528763,8.72807036 77.1886558,8.87568166 77.86551,9.16682597 C78.4065371,9.39957959 78.8993977,9.70682435 79.3343899,10.0819969 L79.5470187,10.2752135 L79.6996173,10.4212388 L77.8215409,12.3132237 L77.6767016,12.1784137 C77.1233207,11.6626238 76.4509646,11.401047 75.6786379,11.401047 C74.8893308,11.401047 74.1856003,11.6932109 73.586676,12.2693821 C73.0173268,12.8428345 72.7269734,13.5522297 72.7269734,14.374684 C72.7269734,15.1828644 73.0166521,15.8844429 73.5876881,16.4598211 C73.8737683,16.7477934 74.1977452,16.9665481 74.550735,17.1100812 C74.904287,17.253954 75.2837032,17.32691 75.6786379,17.32691 C76.3843587,17.32691 76.999266,17.1156752 77.5099972,16.6986562 L77.6763642,16.5520357 L77.8210911,16.4143935 L79.6996173,18.3067183 L79.5470187,18.4528569 C79.0618968,18.9171018 78.4962585,19.2900384 77.86551,19.5612444 C77.1885434,19.8522754 76.4527639,20 75.6786379,20 C74.9043995,20 74.1686199,19.8522754 73.4916533,19.5612444 C72.8160361,19.2707798 72.2160997,18.8641973 71.7084872,18.3529388 C71.2008746,17.8415671 70.7973935,17.2371877 70.5090642,16.5565671 C70.2201726,15.8754933 70.0736465,15.1411753 70.0736465,14.374684 C70.0736465,13.5939188 70.2201726,12.852577 70.5090642,12.17139 C70.7972811,11.4907693 71.2008746,10.88639 71.7084872,10.3750182 C72.2156499,9.8642129 72.8154738,9.45774372 73.4916533,9.16671269 C74.1686199,8.87556838 74.9043995,8.72807036 75.6786379,8.72807036 Z M86.3948961,8.72803638 C87.1691346,8.72803638 87.9050265,8.87564768 88.5819932,9.16679199 C89.2583976,9.4579363 89.8582215,9.86440548 90.3651593,10.3749842 C90.8722096,10.8856763 91.2756907,11.4901689 91.5645823,12.171356 C91.8534738,12.8533361 92,13.5946778 92,14.3746501 C92,14.6837502 91.976659,14.9833555 91.9304988,15.2689258 L91.8767516,15.5496496 L91.8409916,15.7110818 L83.7542764,15.7110818 C83.8873082,15.9865926 84.0713937,16.2376338 84.3029343,16.4583144 C84.5911511,16.748779 84.9141159,16.9667407 85.2671057,17.1100472 C85.6208826,17.25392 86.0001863,17.3267628 86.3948961,17.3267628 C86.8532221,17.3267628 87.2751134,17.2378728 87.6518596,17.0621617 L87.8364302,16.9670806 L87.9218945,16.9185943 L90.6686698,18.0252825 L90.4665918,18.2458498 C89.9846186,18.7717222 89.4076226,19.1926919 88.7514597,19.497204 C88.0322108,19.8308304 87.2394176,19.999966 86.3948961,19.999966 C85.6209951,19.999966 84.8852155,19.8523547 84.208024,19.5610971 C83.5324068,19.2708591 82.9324704,18.8642766 82.4249703,18.3529049 C81.9173578,17.8416464 81.5138767,17.2371538 81.2255474,16.5566464 C80.9365433,15.8753461 80.7901296,15.1412546 80.7901296,14.3746501 C80.7901296,13.5938848 80.9365433,12.8526563 81.2254349,12.1714693 C81.5137642,11.4908486 81.9173578,10.8864693 82.4249703,10.3749842 C82.9317957,9.86440548 83.5317321,9.4579363 84.208024,9.1666787 C84.8852155,8.87564768 85.6208826,8.72803638 86.3948961,8.72803638 Z M9.06667114,5.32108804 C12.495544,5.32108804 15.2849539,8.25401816 15.2849539,11.8588977 C15.2849539,15.3855264 12.6155045,18.2691032 9.28936459,18.3928094 L9.06667114,18.3969446 L7.97786539,18.3969446 L7.97786539,15.6203204 L9.06667114,15.6203204 C11.0312068,15.6203204 12.629511,13.9329754 12.629511,11.8588977 C12.629511,9.85195533 11.13266,8.20697538 9.25560286,8.10293603 L9.06667114,8.09771223 L2.6554429,8.09771223 L2.6554429,19.440684 L2.84217094e-14,19.440684 L2.84217094e-14,5.32108804 L9.06667114,5.32108804 Z M36.997821,4 L36.997821,18.9480514 L34.3444941,18.9480514 L34.3444941,13.5973401 C34.3444941,12.7617445 34.0550403,12.0532556 33.4842292,11.4916983 C32.9120687,10.9151872 32.2160975,10.6238163 31.4137458,10.6238163 C30.5976749,10.6238163 29.8941694,10.9156404 29.323021,11.4910186 C28.7518725,12.06651 28.4621938,12.7751123 28.4621938,13.5973401 C28.4621938,14.4055204 28.7518725,15.1069856 29.323021,15.6824771 C29.5962816,15.9716956 29.915423,16.1893174 30.2750475,16.3326239 C30.6355716,16.4767233 31.0186987,16.5496793 31.4137458,16.5496793 C31.6911897,16.5496793 31.9546714,16.515313 32.1996425,16.4473343 L32.379829,16.3900597 L32.5656012,16.3233345 L33.5156036,18.7049402 L33.3383777,18.7871857 C32.715501,19.0761776 31.997489,19.222656 31.2040211,19.222656 C30.4297827,19.222656 29.7043488,19.0750447 29.0479611,18.7836738 C28.392248,18.4927561 27.8167139,18.0857205 27.3374396,17.5742354 C26.8582776,17.0633168 26.4796486,16.4588242 26.2120106,15.7776371 C25.9444851,15.0966766 25.8088669,14.3632648 25.8088669,13.5973401 C25.8088669,12.8173678 25.9444851,12.0768191 26.2121231,11.3958586 C26.4794237,10.7151246 26.8579403,10.1105187 27.337552,9.59914696 C27.8163766,9.08822834 28.3916858,8.68130601 29.0477362,8.38982184 C29.7042364,8.09845096 30.4296702,7.95083966 31.2040211,7.95083966 C31.8804255,7.95083966 32.4956555,8.05914081 33.0327307,8.27257112 C33.4222676,8.42754599 33.782153,8.61485714 34.1072625,8.83160445 L34.3444941,8.9996389 L34.3444941,4 L36.997821,4 Z M55.0700753,7.95087365 C55.8443137,7.95087365 56.5800932,8.09837166 57.2570599,8.38962926 C57.9334642,8.68066029 58.5334006,9.08724275 59.040226,9.59782152 C59.5472762,10.1085136 59.9507574,10.7128929 60.2396489,11.3941933 C60.5285405,12.0762866 60.6750667,12.8174018 60.6750667,13.597374 C60.6750667,14.3631855 60.5285405,15.0973903 60.2396489,15.7792571 C59.9506449,16.460784 59.5471638,17.0650501 59.040226,17.5757421 C58.5326134,18.0871139 57.9326771,18.4934698 57.2570599,18.7840477 C56.5800932,19.0750787 55.8442012,19.22269 55.0700753,19.22269 C54.2959493,19.22269 53.5601698,19.0750787 52.8832031,18.7839344 C52.2075859,18.4934698 51.6076495,18.0871139 51.100037,17.5757421 C50.5925369,17.0643704 50.1889434,16.459991 49.9007265,15.7792571 C49.6117225,15.0981833 49.4650838,14.3639785 49.4650838,13.597374 C49.4650838,12.8166088 49.6117225,12.0753803 49.900614,11.3941933 C50.1888309,10.7136859 50.5924245,10.1091933 51.100037,9.59782152 C51.6068624,9.08724275 52.2067987,8.68066029 52.8832031,8.38951597 C53.5601698,8.09837166 54.2959493,7.95087365 55.0700753,7.95087365 Z M49.3920906,4.02111646 L49.3920906,6.69420643 L42.0309218,6.69420643 L42.0309218,10.1480616 L47.489612,10.1480616 L48.1530843,12.8210383 L42.0309218,12.8210383 L42.0309218,18.9479834 L39.3775949,18.9479834 L39.3775949,4.02111646 L49.3920906,4.02111646 Z M68.9987314,7.9260754 L68.9987314,10.5976927 L67.9018655,10.6051695 C67.1407841,10.6341707 66.4806854,10.9252017 65.9398992,11.4698794 C65.4216957,12.0170495 65.1343459,12.6533501 65.0863832,13.3615885 L65.0791845,13.5762009 L65.0791845,18.9479834 L62.4257451,18.9479834 L62.4257451,8.22548957 L65.0791845,8.22548957 L65.0791845,8.9752145 C65.447018,8.68803519 65.8624192,8.44515059 66.3159418,8.25211172 C66.7025925,8.08737539 67.1345367,7.98502489 67.6032494,7.94676473 L67.888821,7.93151311 L68.9987314,7.9260754 Z M55.0700753,10.6238503 C54.2538919,10.6238503 53.5506113,10.9155611 52.9792379,11.4910526 C52.4080895,12.066544 52.1185232,12.7751462 52.1185232,13.597374 C52.1185232,14.4055544 52.4080895,15.1070196 52.9792379,15.6825111 C53.252611,15.9717295 53.5718649,16.1893514 53.9313769,16.3326579 C54.2917885,16.4767573 54.6750281,16.5496 55.0700753,16.5496 C55.4646726,16.5496 55.8442012,16.4767573 56.1980906,16.3327712 C56.5511928,16.1891249 56.8752822,15.9703701 57.161025,15.6825111 C57.732061,15.1071329 58.0217398,14.4056677 58.0217398,13.597374 C58.0217398,12.775033 57.732061,12.0664307 57.161025,11.4910526 C56.5636751,10.9168072 55.859045,10.6238503 55.0700753,10.6238503 Z M86.3948961,11.4011263 C85.6059264,11.4011263 84.9020835,11.6931769 84.3031592,12.2694614 C84.1189163,12.4549781 83.9636053,12.657823 83.8404504,12.8737619 L83.754164,13.0381051 L89.0357407,13.0381051 C88.9021467,12.7606683 88.7176114,12.502037 88.4858459,12.2682153 C87.9148099,11.6928371 87.2113044,11.4011263 86.3948961,11.4011263 Z" id="logo"></path>
            </g>
        </g>
    </g>
</svg>