<?xml version="1.0" encoding="UTF-8"?>
<svg width="386px" height="150px" viewBox="0 0 386 150" version="1.1" xmlns="http://www.w3.org/2000/svg" xmlns:xlink="http://www.w3.org/1999/xlink">
    <title>编组 48</title>
    <g id="2022---新官网" stroke="none" stroke-width="1" fill="none" fill-rule="evenodd">
        <g id="编组-48" fill="#FFFFFF">
            <path d="M10,0 L376,0 C381.522847,-1.01453063e-15 386,4.4771525 386,10 L386,140 C386,145.522847 381.522847,150 376,150 L10,150 C4.4771525,150 6.76353751e-16,145.522847 0,140 L0,10 C-6.76353751e-16,4.4771525 4.4771525,1.01453063e-15 10,0 Z" id="矩形" opacity="0.05"></path>
            <g id="编组-23" transform="translate(75.000000, 55.000000)" fill-rule="nonzero">
                <g id="Multicoin-Capital" transform="translate(58.150000, 7.450000)">
                    <path d="M15.65,4.1 L16.875,15.425 C16.925,15.875 16.95,16.275 16.95,16.6 C16.95,17.7 16.625,18.075 14.9,18.125 L14.9,18.55 C15.85,18.525 17.425,18.5 19.05,18.5 C20.675,18.5 22.35,18.525 23.45,18.55 L23.45,18.125 C21.5,18.05 21.275,17.425 21.05,15.425 L19.925,5.225 C19.9,4.975 19.875,4.6 19.875,4.35 C19.875,2.9 20.25,2.225 22.275,2.225 L22.275,1.8 C21.1,1.825 20.025,1.825 19.075,1.825 C17.55,1.825 16.325,1.8 15.55,1.775 L12.05,11.95 L8.425,1.775 C7.6,1.8 6.375,1.825 5.1,1.825 C3.825,1.825 2.5,1.825 1.525,1.8 L1.525,2.225 C3.45,2.225 3.9,2.9 3.9,4.35 C3.9,4.625 3.875,4.925 3.85,5.225 L2.525,15.5 C2.275,17.35 1.8,18.1 0,18.15 L0,18.55 C0.925,18.525 1.85,18.5 2.9,18.5 C3.95,18.5 5.075,18.525 6.375,18.55 L6.375,18.125 C4.125,18.05 3.55,17.775 3.55,16.375 C3.55,16.075 3.575,15.65 3.625,15.25 L4.85,4.025 L10.325,18.6 L10.5,18.6 L15.65,4.1 Z" id="路径"></path>
                    <path d="M35.75,17.65 L35.75,17.4 L35.575,17.375 C35.075,17.3 34.95,17.025 34.95,16.3 L34.95,11.675 C34.95,9.025 35,7.775 35.05,6.95 L34.95,6.9 C33.675,7.3 31.875,7.7 30.275,7.825 L30.275,8.125 L30.525,8.2 C31.225,8.4 31.3,8.8 31.3,9.225 L31.3,16.825 C31.025,16.875 30.575,16.875 30.4,16.875 C28.8,16.875 28.425,15.925 28.425,13.6 L28.425,11.675 C28.425,9.025 28.475,7.775 28.525,6.95 L28.425,6.9 C27.15,7.3 25.325,7.7 23.725,7.825 L23.725,8.125 L23.975,8.2 C24.675,8.4 24.75,8.8 24.75,9.225 L24.75,15.525 C24.75,17.375 25.75,18.8 27.45,18.8 C28.675,18.8 30.275,17.9 31.3,17.05 C31.275,17.75 31.225,18.3 31.15,18.75 L31.25,18.8 C32.375,18.425 34.45,17.975 35.75,17.65 Z" id="路径"></path>
                    <path d="M41.775,18.175 L41.625,18.15 C40.925,18.025 40.925,17.9 40.925,15.95 L40.925,4.325 C40.925,2.275 41,0.575 41.05,0.05 L40.925,0 C39.825,0.425 37.575,1.125 36.325,1.4 L36.325,1.525 L36.975,2.45 C37.275,2.875 37.275,3.2 37.275,3.525 L37.275,15.95 C37.275,17.9 37.275,18.025 36.575,18.15 L36.425,18.175 L36.425,18.55 C36.975,18.525 38.05,18.5 39.1,18.5 C40.175,18.5 41.225,18.525 41.775,18.55 L41.775,18.175 Z" id="路径"></path>
                    <path d="M46.45,18.8 C48.375,18.8 49.975,17.475 50.85,16 L50.75,15.875 C50.025,16.3 49.375,16.4 48.725,16.4 C47.7,16.4 46.8,16.25 46.8,15.225 L46.8,8.55 L49.85,8.6 C50.15,8.35 50.6,7.475 50.6,7.05 L46.8,7.175 C46.8,6.425 46.9,5.075 46.95,4.65 L46.8,4.575 C45.6,5.75 43.525,7.3 42.15,8.125 L42.15,8.225 L43.175,9.5 C43.15,10.725 43.15,13.15 43.15,16.25 C43.15,17.775 44.55,18.8 46.45,18.8 Z" id="路径"></path>
                    <path d="M55.9,3.125 C55.9,1.95 54.975,1.1 53.9,1.1 C52.825,1.1 51.9,1.95 51.9,3.125 C51.9,4.3 52.825,5.15 53.9,5.15 C54.975,5.15 55.9,4.3 55.9,3.125 Z M56.45,18.175 L56.3,18.15 C55.6,18.025 55.6,17.9 55.6,15.95 L55.6,10.575 C55.6,8.525 55.65,7.3 55.7,6.775 L55.575,6.725 C54.525,7.225 52.375,8.05 51.125,8.425 L51.125,8.55 L51.65,9.45 C51.95,9.925 51.95,10.2 51.95,10.525 L51.95,15.95 C51.95,17.9 51.95,18.025 51.25,18.15 L51.1,18.175 L51.1,18.55 C51.65,18.525 52.725,18.5 53.775,18.5 C54.85,18.5 55.9,18.525 56.45,18.55 L56.45,18.175 Z" id="形状"></path>
                    <path d="M57,13.3 C57,16.6 59.275,18.8 62.425,18.8 C64.475,18.8 66.575,17.35 67.275,15.2 L67.15,15.125 C66.45,16 65.525,16.35 64.625,16.35 C62.15,16.35 60.575,14.475 60.575,11.475 C60.575,9.325 61.65,7.625 63.05,7.625 C64.425,7.625 63.85,10.175 65.675,10.175 C66.35,10.175 67.025,9.6 67.025,8.875 C67.025,7.45 65.125,6.8 63.6,6.8 C60.25,6.8 57,9.475 57,13.3 Z" id="路径"></path>
                    <path d="M74.025,6.8 C70.7,6.8 67.625,9.3 67.625,12.875 C67.625,16.4 70.7,18.8 74.025,18.8 C77.375,18.8 80.45,16.3 80.45,12.725 C80.45,9.2 77.375,6.8 74.025,6.8 Z M74.025,18.25 C72.5,18.25 71.7,15.7 71.7,12.575 C71.7,9.3 72.5,7.35 74.025,7.35 C75.575,7.35 76.375,9.9 76.375,13.025 C76.375,16.3 75.575,18.25 74.025,18.25 Z" id="形状"></path>
                    <path d="M85.95,3.125 C85.95,1.95 85.025,1.1 83.95,1.1 C82.875,1.1 81.95,1.95 81.95,3.125 C81.95,4.3 82.875,5.15 83.95,5.15 C85.025,5.15 85.95,4.3 85.95,3.125 Z M86.5,18.175 L86.35,18.15 C85.65,18.025 85.65,17.9 85.65,15.95 L85.65,10.575 C85.65,8.525 85.7,7.3 85.75,6.775 L85.625,6.725 C84.575,7.225 82.425,8.05 81.175,8.425 L81.175,8.55 L81.7,9.45 C82,9.925 82,10.2 82,10.525 L82,15.95 C82,17.9 82,18.025 81.3,18.15 L81.15,18.175 L81.15,18.55 C81.7,18.525 82.775,18.5 83.825,18.5 C84.9,18.5 85.95,18.525 86.5,18.55 L86.5,18.175 Z" id="形状"></path>
                    <path d="M99.25,18.175 L99.1,18.15 C98.4,18.025 98.4,17.9 98.4,15.95 L98.4,10.075 C98.4,8.175 97.175,6.8 95.575,6.8 C94.275,6.8 92.7,7.95 91.65,8.775 C91.675,8.175 91.7,7.225 91.75,6.775 L91.625,6.725 C90.575,7.225 88.425,8.05 87.175,8.425 L87.175,8.55 L87.7,9.45 C88,9.925 88,10.2 88,10.525 L88,15.95 C88,17.9 88,18.025 87.3,18.15 L87.15,18.175 L87.15,18.55 C87.7,18.525 88.775,18.5 89.825,18.5 C90.9,18.5 91.95,18.525 92.5,18.55 L92.5,18.175 L92.35,18.15 C91.65,18.025 91.65,17.9 91.65,15.95 L91.65,9.1 C92.025,8.95 92.425,8.925 92.675,8.925 C94.2,8.925 94.75,10.375 94.75,12.6 L94.75,15.95 C94.75,17.9 94.75,18.025 94.05,18.15 L93.9,18.175 L93.9,18.55 C94.45,18.525 95.525,18.5 96.575,18.5 C97.65,18.5 98.7,18.525 99.25,18.55 L99.25,18.175 Z" id="路径"></path>
                    <path d="M115.025,16.575 C111.625,16.575 108.975,13.675 108.975,9.25 C108.975,5 111.35,2.475 114.325,2.475 C115.825,2.475 116.925,3.1 117.725,4.025 C118.425,4.8 119.05,6 119.5,7.225 L119.75,7.075 L119.175,2.8 C117.55,2 116.1,1.55 114.175,1.55 C109.15,1.55 104.525,4.975 104.525,10.5 C104.525,15.7 108.75,18.8 113.3,18.8 C115.625,18.8 117.875,17.925 119.475,16.35 L120.525,13.375 L120.25,13.25 C119.1,15.6 117.325,16.575 115.025,16.575 Z" id="路径"></path>
                    <path d="M121,16.025 C121,17.65 122.1,18.7 123.65,18.7 C124.975,18.7 125.85,17.6 126.425,16.875 C126.875,17.975 127.75,18.725 129.225,18.725 C130.625,18.725 131.725,17.425 131.85,16.3 L131.775,16.25 C131.575,16.4 131.325,16.55 130.95,16.55 C130.3,16.55 130,16.225 130,15.425 C130,13.9 130.125,11.1 130.125,9.35 C130.125,7.425 127.925,6.8 126.5,6.8 C123.95,6.8 121.2,9.675 121.2,11.35 C121.2,11.55 121.275,11.625 121.375,11.625 C121.75,11.625 123.25,11.325 123.6,11.225 C123.475,10.775 123.375,10.15 123.375,9.6 C123.375,8.9 123.675,8.55 124.4,8.55 C125.875,8.55 126.475,9.5 126.475,10.325 L126.475,12.35 L123.125,13.775 C121.8,14.35 121,14.725 121,16.025 Z M126.45,12.775 L126.425,16.6 C126.275,16.65 126.15,16.675 125.975,16.675 C125.15,16.675 124.575,16.15 124.575,15.075 C124.575,14.325 124.925,13.925 125.4,13.575 L126.45,12.775 Z" id="形状"></path>
                    <path d="M138.35,24.3 L137.275,24.225 C136.6,24.175 136.575,24.05 136.575,22.1 L136.575,18.4 C137.35,18.675 137.925,18.8 138.725,18.8 C141.85,18.8 145.125,16.4 145.125,12 C145.125,8.9 143.3,6.8 140.625,6.8 C138.85,6.8 137.4,8.125 136.575,8.825 C136.575,8.3 136.625,7.25 136.675,6.775 L136.55,6.725 C135.5,7.225 133.35,8.075 132.1,8.425 L132.1,8.55 L132.625,9.45 C132.925,9.925 132.925,10.2 132.925,10.525 L132.925,22.125 C132.925,24.075 132.925,24.2 132.225,24.325 L132.075,24.35 L132.075,24.725 C132.775,24.7 133.675,24.675 134.875,24.675 C136.075,24.675 137.55,24.7 138.35,24.725 L138.35,24.3 Z M136.575,14.7 L136.575,9.05 C136.95,8.95 137.4,8.925 137.775,8.925 C139.825,8.925 141.175,10.775 141.175,13.425 C141.175,16.3 140.125,18.05 138.525,18.05 C137.3,18.05 136.575,17.175 136.575,14.7 Z" id="形状"></path>
                    <path d="M150.625,3.125 C150.625,1.95 149.7,1.1 148.625,1.1 C147.55,1.1 146.625,1.95 146.625,3.125 C146.625,4.3 147.55,5.15 148.625,5.15 C149.7,5.15 150.625,4.3 150.625,3.125 Z M151.175,18.175 L151.025,18.15 C150.325,18.025 150.325,17.9 150.325,15.95 L150.325,10.575 C150.325,8.525 150.375,7.3 150.425,6.775 L150.3,6.725 C149.25,7.225 147.1,8.05 145.85,8.425 L145.85,8.55 L146.375,9.45 C146.675,9.925 146.675,10.2 146.675,10.525 L146.675,15.95 C146.675,17.9 146.675,18.025 145.975,18.15 L145.825,18.175 L145.825,18.55 C146.375,18.525 147.45,18.5 148.5,18.5 C149.575,18.5 150.625,18.525 151.175,18.55 L151.175,18.175 Z" id="形状"></path>
                    <path d="M155.85,18.8 C157.775,18.8 159.375,17.475 160.25,16 L160.15,15.875 C159.425,16.3 158.775,16.4 158.125,16.4 C157.1,16.4 156.2,16.25 156.2,15.225 L156.2,8.55 L159.25,8.6 C159.55,8.35 160,7.475 160,7.05 L156.2,7.175 C156.2,6.425 156.3,5.075 156.35,4.65 L156.2,4.575 C155,5.75 152.925,7.3 151.55,8.125 L151.55,8.225 L152.575,9.5 C152.55,10.725 152.55,13.15 152.55,16.25 C152.55,17.775 153.95,18.8 155.85,18.8 Z" id="路径"></path>
                    <path d="M160.4,16.025 C160.4,17.65 161.5,18.7 163.05,18.7 C164.375,18.7 165.25,17.6 165.825,16.875 C166.275,17.975 167.15,18.725 168.625,18.725 C170.025,18.725 171.125,17.425 171.25,16.3 L171.175,16.25 C170.975,16.4 170.725,16.55 170.35,16.55 C169.7,16.55 169.4,16.225 169.4,15.425 C169.4,13.9 169.525,11.1 169.525,9.35 C169.525,7.425 167.325,6.8 165.9,6.8 C163.35,6.8 160.6,9.675 160.6,11.35 C160.6,11.55 160.675,11.625 160.775,11.625 C161.15,11.625 162.65,11.325 163,11.225 C162.875,10.775 162.775,10.15 162.775,9.6 C162.775,8.9 163.075,8.55 163.8,8.55 C165.275,8.55 165.875,9.5 165.875,10.325 L165.875,12.35 L162.525,13.775 C161.2,14.35 160.4,14.725 160.4,16.025 Z M165.85,12.775 L165.825,16.6 C165.675,16.65 165.55,16.675 165.375,16.675 C164.55,16.675 163.975,16.15 163.975,15.075 C163.975,14.325 164.325,13.925 164.8,13.575 L165.85,12.775 Z" id="形状"></path>
                    <path d="M176.775,18.175 L176.625,18.15 C175.925,18.025 175.925,17.9 175.925,15.95 L175.925,4.325 C175.925,2.275 176,0.575 176.05,0.05 L175.925,0 C174.825,0.425 172.575,1.125 171.325,1.4 L171.325,1.525 L171.975,2.45 C172.275,2.875 172.275,3.2 172.275,3.525 L172.275,15.95 C172.275,17.9 172.275,18.025 171.575,18.15 L171.425,18.175 L171.425,18.55 C171.975,18.525 173.05,18.5 174.1,18.5 C175.175,18.5 176.225,18.525 176.775,18.55 L176.775,18.175 Z" id="路径"></path>
                </g>
                <g id="下载">
                    <path d="M38.5365854,13.2214634 C40.449048,13.0142715 42.3174168,12.5096539 44.0741463,11.7258537 C45.0574487,11.2338855 45.9727367,10.6163694 46.7970732,9.88878049 L46.8292683,9.86146341 C46.8292683,9.86146341 46.1678049,10.1931707 45.342439,10.524878 C44.6002049,10.7708863 43.8292444,10.919766 43.0487805,10.9678049 C41.4419512,11.1560976 39.7317073,11.3034146 38.3190244,10.3590244 C38.7730174,10.1549499 39.2054209,9.90590114 39.6097561,9.61560976 C41.2790244,8.6604878 42.9336585,7.62829268 43.7697561,5.80097561 C43.1394723,6.2129991 42.4760533,6.57195677 41.7863415,6.87414634 C40.8120851,7.23169472 39.8190681,7.53588556 38.8117073,7.78536585 C39.5120027,6.98036789 40.1477908,6.1214505 40.7131707,5.21658537 C41.1236981,4.35498216 41.4820678,3.46948313 41.7863415,2.56487805 C41.6214634,2.89560976 41.2078049,3.06243902 40.5473171,3.72487805 C39.8281007,4.3431265 38.9817968,4.79575415 38.0682927,5.05073171 C38.6524006,4.08055506 39.1496196,3.06065216 39.5541463,2.00292683 C39.7395122,1.3697561 39.8653659,0.556097561 40.0517073,-0.00390243902 C39.9687805,0.244878049 39.3082927,0.824390244 38.6468293,1.73658537 C38.112163,2.41141988 37.5023801,3.02316664 36.8292683,3.56 L36.8292683,2.48682927 C36.7849941,1.93706795 36.4769857,1.44287259 36.0029268,1.16097561 C35.2595122,0.829268293 34.3502439,1.98926829 34.3502439,1.98926829 C34.3502439,1.98926829 35.4234146,2.07219512 35.5073171,2.48682927 C35.5912195,2.90146341 34.5980488,3.81268293 34.5980488,3.81268293 L34.9287805,4.55804878 C34.9287805,4.55804878 34.9287805,9.44682927 31.2107317,10.8556098 C27.4926829,12.2643902 27.5756098,12.9268293 27.244878,13.4243902 C26.7170732,14.2195122 27.4243902,15.3463415 27.0195122,16.1502439 C26.9656199,16.2687327 26.8851674,16.3732208 26.7843902,16.4556098 C26.4429201,16.6805416 25.9959055,16.6620796 25.6741463,16.4097561 C25.4852925,16.2081635 25.3383823,15.9710511 25.2419512,15.7121951 C24.7131707,14.5239024 23.7180488,12.3590244 23.7180488,12.3590244 C24.340529,12.0639527 24.9879408,11.8246421 25.6526829,11.6439024 C26.2634146,11.5463415 26.2634146,12.5629268 26.2634146,12.5629268 L26.5697561,11.8478049 C26.7647233,11.3827005 26.728555,10.8528336 26.4721951,10.4185366 C26.3746341,10.1121951 25.657561,9.70341463 23.3160976,8.68292683 C22.5562863,8.31286393 21.7014266,8.18417538 20.8663415,8.31414634 C20.4987769,8.36348012 20.1553681,8.52496401 19.8829268,8.77658537 C20.3648915,8.7233707 20.8498803,8.70251097 21.3346341,8.71414634 C21.8508288,8.77820285 22.3497537,8.94152953 22.8039024,9.19512195 L20.9707317,9.19512195 C19.6468293,9.19512195 18.7268293,10.9307317 18.7268293,10.9307317 L19.542439,10.2156098 C20.2253659,9.61268293 21.1307317,9.80780488 21.8839024,9.80682927 C21.4517073,9.80682927 20.9492683,10.5160976 20.7590244,10.844878 C20.3501728,11.6418557 20.2740394,12.568438 20.5473171,13.4214634 C20.5668293,13.435122 20.56,13.4019512 20.56,13.3795122 C20.56,12.9717073 21.0692683,12.5629268 21.0692683,12.5629268 L20.8653659,13.6858537 C20.7295558,14.3948558 20.7295558,15.123193 20.8653659,15.8321951 C20.8653659,15.5258537 21.577561,14.9131707 21.577561,14.9131707 L21.577561,15.6282927 C21.5723292,15.7441349 21.5540012,15.8590126 21.5229268,15.9707317 C21.515122,16.0009756 21.5053659,16.035122 21.4946341,16.0682927 C21.197734,16.5744708 20.5493162,16.7483093 20.0390244,16.4585366 C19.9383728,16.3760258 19.8579446,16.2715693 19.8039024,16.1531707 C19.3980488,15.3492683 20.1063415,14.222439 19.5785366,13.4273171 C19.2478049,12.9297561 19.3307317,12.2673171 15.6126829,10.8585366 C11.8946341,9.4497561 11.8936585,4.56097561 11.8936585,4.56097561 L12.2243902,3.81560976 C12.2243902,3.81560976 11.2331707,2.90439024 11.315122,2.4897561 C11.3970732,2.07512195 12.4721951,1.99219512 12.4721951,1.99219512 C12.4721951,1.99219512 11.5668293,0.829268293 10.8234146,1.16097561 C10.3494734,1.44299266 10.0415069,1.93712065 9.99707317,2.48682927 L9.99707317,3.56 C9.32404996,3.02452987 8.71425989,2.41408516 8.1795122,1.7404878 C7.51902439,0.828292683 6.85756098,0.248780488 6.77560976,2.60208521e-18 C6.96195122,0.56 7.08780488,1.37365854 7.27317073,2.00682927 C7.6775758,3.06460741 8.17479992,4.08452085 8.75902439,5.05463415 C7.84556788,4.79953788 6.99928871,4.3469234 6.28,3.72878049 C5.6195122,3.06634146 5.20682927,2.9004878 5.04097561,2.56878049 C5.34585354,3.47316177 5.70420883,4.35862512 6.11414634,5.2204878 C6.67911243,6.12563469 7.31492401,6.98458385 8.01560976,7.78926829 C7.00790085,7.53950028 6.0145571,7.23498343 5.04,6.87707317 C4.35029013,6.57487955 3.68687143,6.21592207 3.05658537,5.80390244 C3.89268293,7.62829268 5.54829268,8.6604878 7.2195122,9.61560976 C7.62493957,9.90553993 8.05830975,10.1542539 8.51317073,10.3580488 C7.1004878,11.302439 5.39121951,11.155122 3.78341463,10.9668293 C3.00295765,10.918736 2.23200411,10.7698576 1.4897561,10.5239024 C0.661463415,10.1912195 0,9.8604878 0,9.8604878 L0.0312195122,9.88878049 C0.855393703,10.6165791 1.77071027,11.2341145 2.75414634,11.7258537 C4.5110696,12.5100689 6.37982571,13.0147022 8.29268293,13.2214634 C8.68959417,13.3239801 9.09471771,13.3915551 9.50341463,13.4234146 C8.83414634,14.5434146 3.46439024,16.2263415 1.93365854,16.2868293 C3.18634146,16.4487805 4.43512195,16.6214634 5.69658537,16.7141463 C7.18379641,16.9110841 8.69322962,16.8629668 10.164878,16.5717073 C12.6439024,15.9082927 11.7346341,16.1570732 11.7346341,16.1570732 C11.6097561,16.1912195 11.2868293,16.9180488 11.2058537,17.035122 C10.7963965,17.6409138 10.2928191,18.1774263 9.71414634,18.6243902 C8.38537407,19.6723103 6.92557801,20.5424157 5.37170732,21.2126829 C5.32409664,21.2245326 5.2830804,21.2546813 5.25756098,21.2965854 C5.49365854,21.4536585 5.97560976,21.3668293 6.24390244,21.3541463 C8.47564698,21.1689129 10.6256909,20.4287558 12.4985366,19.2009756 C12.8161353,19.0524387 13.1140307,18.8649841 13.3853659,18.6429268 L13.6331707,18.3941463 C13.2493018,19.1390458 12.949569,19.924372 12.7395122,20.7356098 C12.4100162,22.2486698 12.3136195,23.8031897 12.4536585,25.3453659 C12.4673171,25.72 12.4682927,26.0965854 12.4731707,26.4712195 C12.4731707,26.5746341 12.4926829,26.6770732 12.4926829,26.7804878 C12.7708373,26.314958 13.0119074,25.8282509 13.2136585,25.324878 C13.4536585,24.8370732 13.6965854,24.355122 13.9482927,23.8760976 C14.281218,23.1326461 14.702462,22.4319923 15.2029268,21.7892683 C15.9463415,20.96 16.4419512,20.3804878 16.4419512,20.3804878 C16.4521194,22.5474221 16.6456555,24.709609 17.0204878,26.8439024 L17.5160976,28.4185366 C17.4733119,26.9395402 17.6375025,25.461824 18.0039024,24.0282927 C18.2950892,23.2368412 18.6865752,22.4860012 19.1687805,21.7941463 C19.4029268,22.3902439 19.617561,22.9970732 19.804878,23.6097561 C20.0890306,24.6175026 20.074797,25.6860336 19.7639024,26.6858537 C19.6363805,27.3403435 19.4367907,27.9787035 19.1687805,28.5892683 C18.8380488,29.2526829 20.3258537,27.6780488 20.5736585,27.2634146 C20.8214634,26.8487805 21.8956098,24.777561 21.8126829,23.8663415 C21.7297561,22.955122 22.3912195,23.7834146 22.5560976,24.4468293 C22.9221578,25.6399872 22.7725235,26.9318656 22.1434146,28.0097561 C20.9728554,29.8084112 19.6457499,31.5001852 18.177561,33.0653659 L20.4087805,31.5736585 L19.0039024,35.6341463 L21.5609756,32.6487805 L20.3219512,37.3717073 C20.3219512,37.3717073 22.2858537,34.1356098 22.3873171,33.7258537 C22.4585366,33.44 23.2068293,38.5863415 23.4107317,40 C23.6136585,38.5863415 24.3629268,33.44 24.4341463,33.7258537 C24.5317073,34.1356098 26.4995122,37.3717073 26.4995122,37.3717073 L25.2682927,32.6487805 L27.8292683,35.6321951 L26.4243902,31.5717073 L28.6556098,33.0634146 C27.1850851,31.4984898 25.8556897,29.80671 24.6829268,28.0078049 C24.0533546,26.9300689 23.9036972,25.6379914 24.2702439,24.444878 C24.435122,23.7814634 25.0965854,22.9531707 25.0136585,23.8643902 C24.9307317,24.7756098 26.004878,26.8468293 26.2526829,27.2614634 C26.5004878,27.6760976 27.9873171,29.2507317 27.657561,28.5873171 C27.3899237,27.9766127 27.1903471,27.3382946 27.062439,26.6839024 C26.7528326,25.6844133 26.7396162,24.6166019 27.0243902,23.6097561 C27.2107317,22.9960976 27.4263415,22.3902439 27.6604878,21.7941463 C28.1430165,22.4858053 28.5345249,23.2366882 28.8253659,24.0282927 C29.1921931,25.4634056 29.3563869,26.9427919 29.3131707,28.4234146 L29.8087805,26.8487805 C30.1835804,24.7144828 30.3771163,22.5522986 30.3873171,20.3853659 C30.3873171,20.3853659 30.8829268,20.964878 31.6263415,21.7941463 C32.1255641,22.4364713 32.545811,23.136446 32.8780488,23.8790244 C33.1297561,24.3580488 33.3736585,24.8439024 33.6126829,25.3287805 C33.8145481,25.8321024 34.0556139,26.3188007 34.3336585,26.7843902 C34.3336585,26.6809756 34.3512195,26.5785366 34.3531707,26.475122 C34.3531707,26.1004878 34.3590244,25.7239024 34.3726829,25.3492683 C34.5130421,23.8071417 34.4169745,22.2526224 34.0878049,20.7395122 C33.8776248,19.9283138 33.5778971,19.143001 33.1941463,18.3980488 L33.4419512,18.6468293 C33.7128839,18.8694453 34.0108522,19.0569457 34.3287805,19.204878 C36.2024763,20.43193 38.3532091,21.1710873 40.5853659,21.355122 C40.8536585,21.3668293 41.3356098,21.4526829 41.5717073,21.2965854 C41.5465136,21.254384 41.5053582,21.224133 41.457561,21.2126829 C39.9036091,20.5425745 38.4437931,19.6724573 37.115122,18.6243902 C36.5370324,18.1770883 36.0338263,17.6406207 35.6243902,17.035122 C35.5434146,16.9190244 35.2204878,16.1921951 35.0956098,16.1570732 C35.0956098,16.1570732 34.1863415,15.9082927 36.6653659,16.5717073 C38.1373372,16.8630213 39.6471001,16.9111386 41.1346341,16.7141463 C42.3960976,16.6165854 43.6439024,16.4487805 44.897561,16.2868293 C43.3658537,16.2263415 37.9960976,14.5434146 37.3268293,13.4234146 C37.7351657,13.3912332 38.1399374,13.3236624 38.5365854,13.2214634 Z" id="phoenix_logo"></path>
                </g>
            </g>
        </g>
    </g>
</svg>