<?xml version="1.0" encoding="UTF-8"?>
<svg width="60px" height="60px" viewBox="0 0 60 60" version="1.1" xmlns="http://www.w3.org/2000/svg" xmlns:xlink="http://www.w3.org/1999/xlink">
    <title>Optimism</title>
    <g id="2022---新官网" stroke="none" stroke-width="1" fill="none" fill-rule="evenodd" opacity="0.5">
        <g id="编组-3" transform="translate(-240.000000, 0.000000)">
            <g id="Optimism" transform="translate(240.000000, 0.000000)">
                <circle id="椭圆形" stroke="#E3E7EF" stroke-width="1.5" cx="30" cy="30" r="29.25"></circle>
                <path d="M24.6417146,23 C25.6398567,23 26.5342675,23.1684987 27.3250505,23.505496 C28.1158336,23.8295398 28.7380143,24.322186 29.1916965,24.9833307 C29.6453786,25.6314184 29.8723233,26.409248 29.8723233,27.3166123 C29.8723233,27.5888423 29.8398878,27.9323681 29.7750168,28.3471898 C29.5806113,29.5008771 29.3472417,30.6222326 29.0750117,31.7110489 C28.6213295,33.4870206 27.837075,34.8157351 26.7222481,35.6971924 C25.6074212,36.5656963 24.1167366,37 22.249987,37 C20.707385,37 19.4435414,36.6369921 18.4583528,35.91108 C17.4861176,35.1722145 17,34.1222585 17,32.7611085 C17,32.4759251 17.0324355,32.1258707 17.0972028,31.7110489 C17.2658051,30.7777778 17.5055996,29.6564223 17.81669,28.3471898 C18.6981473,24.7823966 20.97319,23 24.6417146,23 Z M38.8150838,23.1944056 C40.2539545,23.1944056 41.4076418,23.4925425 42.2761456,24.0888163 C43.1577066,24.6851938 43.5984352,25.5471691 43.5984352,26.6749495 C43.5984352,26.9989933 43.5595748,27.3360943 43.4817504,27.686045 C43.1577066,29.1768333 42.5030903,30.2787067 41.5179017,30.9916654 C40.5456665,31.704624 39.2104235,32.0611033 37.5122762,32.0611033 L34.8872827,32.0611033 L33.9928719,36.3194768 C33.9668613,36.4620686 33.8955655,36.5786497 33.7789843,36.6694276 C33.6622995,36.7602055 33.5390862,36.8055944 33.4095515,36.8055944 L30.765076,36.8055944 C30.6224843,36.8055944 30.5122244,36.7602055 30.4345036,36.6694276 C30.3696326,36.5656963 30.3502543,36.4491151 30.3761612,36.3194768 L33.0594971,23.6805232 C33.085404,23.5379314 33.1566999,23.4212466 33.2733847,23.3304688 C33.3900695,23.2397945 33.5131792,23.1944056 33.6428175,23.1944056 L38.8150838,23.1944056 Z M24.3889666,25.7999171 C23.6629509,25.7999171 23.0407701,26.0138047 22.522217,26.4415799 C22.0167211,26.8694587 21.6537132,27.5240749 21.4334007,28.4055322 C21.2000311,29.2740361 20.9666615,30.3370491 20.7333955,31.5944678 C20.681478,31.8536407 20.6555711,32.1258707 20.6555711,32.4110541 C20.6555711,33.6037054 21.2778555,34.1999793 22.522217,34.1999793 C23.2482328,34.1999793 23.863885,33.9860917 24.3694846,33.5583165 C24.8880377,33.1305413 25.2574704,32.4759251 25.477783,31.5944678 C25.7759199,30.3759095 26.0028646,29.3128965 26.1584098,28.4055322 C26.2102236,28.1333022 26.2361305,27.8546473 26.2361305,27.5693602 C26.2361305,26.389766 25.6203747,25.7999171 24.3889666,25.7999171 Z M38.4845114,25.8972235 L36.1511262,25.8972235 L35.4122606,29.3777674 L37.648443,29.3777674 C38.1927994,29.3777674 38.6659635,29.2286471 39.0678317,28.9305102 C39.4826535,28.6323733 39.7548835,28.2045981 39.8845217,27.6471847 C39.9233821,27.4267685 39.9428641,27.2323629 39.9428641,27.0638643 C39.9428641,26.6879029 39.8327079,26.4027195 39.6122917,26.2083139 C39.3918756,26.0008512 39.0160179,25.8972235 38.4845114,25.8972235 Z" id="形状结合" fill="#FFFFFF" fill-rule="nonzero"></path>
            </g>
        </g>
    </g>
</svg>