<?xml version="1.0" encoding="UTF-8"?>
<svg width="60px" height="60px" viewBox="0 0 60 60" version="1.1" xmlns="http://www.w3.org/2000/svg" xmlns:xlink="http://www.w3.org/1999/xlink">
    <title>Polygon</title>
    <g id="2022---新官网" stroke="none" stroke-width="1" fill="none" fill-rule="evenodd" opacity="0.5">
        <g id="Web-3" transform="translate(-1049.000000, -666.000000)">
            <g id="文案+-描述-+-btn-+-环境" transform="translate(359.000000, 196.000000)">
                <g id="编组-3" transform="translate(370.000000, 470.000000)">
                    <g id="Polygon" transform="translate(320.000000, 0.000000)">
                        <circle id="椭圆形" stroke="#E3E7EF" stroke-width="1.5" cx="30" cy="30" r="29.25"></circle>
                        <path d="M35.619902,26.0918862 C35.1402211,25.7974132 34.516585,25.7974132 33.9889433,26.0918862 L30.2471994,28.3494737 L27.704767,29.8218386 L23.9630959,32.0794987 C23.483415,32.3739572 22.8597789,32.3739572 22.3321008,32.0794987 L19.3579337,30.3126753 C18.8782309,30.0182168 18.5424325,29.47834 18.5424325,28.8893505 L18.5424325,25.4047802 C18.5424325,24.8158342 18.8302556,24.2759719 19.3579337,23.9814989 L22.2841327,22.2637374 C22.7638354,21.9692644 23.3874206,21.9692644 23.9151351,22.2637374 L26.8413268,23.9814989 C27.3210077,24.2759719 27.6568062,24.8158342 27.6568062,25.4047802 L27.6568062,27.6624039 L30.1992386,26.1409626 L30.1992386,23.8833388 C30.1992386,23.2943929 29.9114738,22.7545305 29.3837593,22.4600576 L23.9630959,19.2208547 C23.483415,18.9263818 22.8597789,18.9263818 22.3321008,19.2208547 L16.8155012,22.4600576 C16.2878231,22.7545305 16,23.2943929 16,23.8833388 L16,30.4108281 C16,30.9997451 16.2878231,31.5396219 16.8155012,31.8340804 L22.3321008,35.0732687 C22.8118108,35.3677997 23.4354542,35.3677997 23.9630959,35.0732687 L27.704767,32.8647213 L30.2471994,31.3433162 L33.9889433,29.1347689 C34.4686242,28.8403104 35.0922603,28.8403104 35.619902,29.1347689 L38.5460938,30.8525521 C39.0258474,31.1470106 39.3616459,31.6868874 39.3616459,32.2758044 L39.3616459,35.760411 C39.3616459,36.349328 39.0738083,36.8892048 38.5460938,37.1836632 L35.619902,38.9505592 C35.1402211,39.2450177 34.516585,39.2450177 33.9889433,38.9505592 L31.0627516,37.2327759 C30.5829979,36.9383175 30.2471994,36.3984406 30.2471994,35.8094512 L30.2471994,33.5518636 L27.704767,35.0732687 L27.704767,37.3309288 C27.704767,37.9198457 27.9926046,38.4597225 28.5203191,38.754181 L34.0369041,41.9934419 C34.516585,42.2879003 35.1402211,42.2879003 35.6678628,41.9934419 L41.1845206,38.754181 C41.6642015,38.4597225 42,37.9198457 42,37.3309288 L42,30.8034394 C42,30.2145225 41.7121624,29.6746457 41.1845206,29.3801872 L35.619902,26.0918862 Z" id="路径" fill="#FFFFFF" fill-rule="nonzero"></path>
                    </g>
                </g>
            </g>
        </g>
    </g>
</svg>