<?xml version="1.0" encoding="UTF-8"?>
<svg width="386px" height="150px" viewBox="0 0 386 150" version="1.1" xmlns="http://www.w3.org/2000/svg" xmlns:xlink="http://www.w3.org/1999/xlink">
    <title>9</title>
    <g id="2022---新官网" stroke="none" stroke-width="1" fill="none" fill-rule="evenodd">
        <g id="编组-8" transform="translate(-814.000000, -340.000000)" fill="#FFFFFF">
            <g id="9" transform="translate(814.000000, 340.000000)">
                <path d="M10,0 L376,0 C381.522847,-1.01453063e-15 386,4.4771525 386,10 L386,140 C386,145.522847 381.522847,150 376,150 L10,150 C4.4771525,150 6.76353751e-16,145.522847 0,140 L0,10 C-6.76353751e-16,4.4771525 4.4771525,1.01453063e-15 10,0 Z" id="矩形备份-17" opacity="0.05"></path>
                <path d="M112.1613,55 L115.2898,58.099806 L106.1738,67.379406 L110.4671,71.749806 L121.306,60.715 L121.3066,55.308596 L125.5203,55.308596 L125.52,61.083 L136.1364,71.890006 L140.3774,67.572806 L131.1227,58.152066 L134.2512,55.052256 L146.551,67.572806 L139.128,75.128 L146.5509,82.685206 L134.3897,95.064706 L131.2612,91.964906 L140.3772,82.685206 L136.084,78.314906 L125.52,89.067 L125.5203,94.756106 L121.3066,94.756106 L121.306,89.261 L110.4146,78.174706 L106.17365,82.491806 L115.4283,91.912606 L112.2998,95.012406 L100,82.491806 L107.423,74.935 L100.00016,67.379406 L112.1613,55 Z M260.54,70.349106 C265.001765,70.349106 267.996786,73.2559687 268.112522,77.7692894 L268.116,78.042006 L268.116,79.392606 L257.076,79.392606 C257.134,81.653506 258.72,82.916006 260.687,82.916006 C262.113667,82.916006 263.273667,82.303489 263.786048,81.1037654 L263.858,80.919406 L267.998,80.919406 C267.323,84.090506 264.416,86.233906 260.57,86.233906 C255.989,86.233906 252.936,83.062906 252.936,78.276906 C252.936,73.520206 255.989,70.349106 260.54,70.349106 Z M221.78,70.642806 L221.78,79.187106 C221.78,81.565406 223.013,82.710506 224.951,82.651806 C226.907138,82.6234198 227.959951,81.3633798 228.030233,79.2415282 L228.034,79.010906 L228.034,70.642806 L231.939,70.642806 L231.939,85.911006 L228.181,85.911006 L227.975,84.237306 C227.182,85.382406 225.861,86.204606 224.041,86.204606 C220.2218,86.204606 217.976257,83.73427 217.878341,79.9739748 L217.875,79.715606 L217.875,70.642806 L221.78,70.642806 Z M182.048,70.349106 C185.033742,70.349106 187.823016,72.2018341 187.94551,76.2367152 L187.9497,76.515206 L187.9497,85.940306 L183.8097,85.940306 L183.8097,77.337306 C183.8097,75.047106 182.7233,74.019406 181.0496,74.019406 C179.490386,74.019406 178.287002,75.0047663 178.15303,77.2133774 L178.1428,77.454706 L178.1428,85.911006 L174.179,85.911006 L174.179,77.542806 C174.179,75.047106 173.0632,74.019406 171.4189,74.019406 C169.746334,74.019406 168.593763,75.0321737 168.516264,77.1369158 L168.5121,77.366606 L168.5121,85.911006 L164.4014,85.911006 L164.4014,70.642806 L168.2185,70.642806 L168.6589,72.316406 C169.393,71.053806 170.8023,70.349106 172.6521,70.349106 C174.7075,70.349106 176.4692,71.171306 177.4088,72.962406 C178.319,71.171306 180.1394,70.349106 182.048,70.349106 Z M208.858,70.349106 C211.844133,70.349106 214.63332,72.2018341 214.75581,76.2367152 L214.76,76.515206 L214.76,85.940306 L210.62,85.940306 L210.62,77.337306 C210.62,75.047106 209.533,74.019406 207.86,74.019406 C206.30069,74.019406 205.096556,75.0047663 204.963162,77.2133774 L204.953,77.454706 L204.953,85.911006 L200.989,85.911006 L200.989,77.542806 C200.989,75.047106 199.8732,74.019406 198.2289,74.019406 C196.556238,74.019406 195.403757,75.0321737 195.326264,77.1369158 L195.3221,77.366606 L195.3221,85.911006 L191.2114,85.911006 L191.2114,70.642806 L195.0284,70.642806 L195.4689,72.316406 C196.2029,71.053806 197.6123,70.349106 199.4621,70.349106 C201.517,70.349106 203.279,71.171306 204.219,72.962406 C205.129,71.171306 206.949,70.349106 208.858,70.349106 Z M160.7498,64.770406 L160.7498,85.911006 L156.551,85.911006 L156.551,64.770406 L160.7498,64.770406 Z M244.002,70.349106 C247.820222,70.349106 250.038974,72.819442 250.135699,76.5797372 L250.139,76.838106 L250.139,85.911006 L245.999,85.911006 L245.999,77.689606 C245.999,75.164506 244.795,73.872606 242.798,73.872606 C240.695097,73.872606 239.527781,75.2749577 239.454659,77.6007648 L239.451,77.836406 L239.451,85.911006 L235.34,85.911006 L235.34,70.642806 L239.157,70.642806 L239.392,72.463206 C240.185,71.200606 241.712,70.349106 244.002,70.349106 Z M279.704,63.830806 L279.704,67.178106 L278.177,67.178106 C276.56996,67.178106 276.23565,67.9357534 276.211476,68.9575423 L276.21,69.086606 L276.21,70.642806 L279.704,70.642806 L279.704,74.224906 L276.21,74.224906 L276.21,85.911006 L272.07,85.911006 L272.07,74.224906 L269.721,74.224906 L269.721,70.642806 L272.07,70.642806 L272.07,68.675506 C272.07,65.7806131 273.35648,63.9209075 276.996445,63.8339912 L277.267,63.830806 L279.704,63.830806 Z M286.588,70.642806 L286.588,85.911006 L282.478,85.911006 L282.478,70.642806 L286.588,70.642806 Z M123.2328,65.039306 L113.458,74.989 L123.3182,85.025406 L133.092,75.076 L123.2328,65.039306 Z M260.54,73.549606 C258.841893,73.549606 257.388335,74.5052097 257.128868,76.4689601 L257.105,76.691306 L264.005,76.691306 C263.829,74.577306 262.331,73.549606 260.54,73.549606 Z M286.647,63.830806 L286.588,68.293806 L282.419,68.293806 L282.478,63.830806 L286.647,63.830806 Z" fill-rule="nonzero"></path>
            </g>
        </g>
    </g>
</svg>