<?xml version="1.0" encoding="UTF-8"?>
<svg width="386px" height="150px" viewBox="0 0 386 150" version="1.1" xmlns="http://www.w3.org/2000/svg" xmlns:xlink="http://www.w3.org/1999/xlink">
    <title>1</title>
    <g id="2022---新官网" stroke="none" stroke-width="1" fill="none" fill-rule="evenodd">
        <g id="1" fill="#FFFFFF">
            <path d="M10,0 L376,0 C381.522847,-1.01453063e-15 386,4.4771525 386,10 L386,140 C386,145.522847 381.522847,150 376,150 L10,150 C4.4771525,150 6.76353751e-16,145.522847 0,140 L0,10 C-6.76353751e-16,4.4771525 4.4771525,1.01453063e-15 10,0 Z" id="矩形" opacity="0.05"></path>
            <path d="M175.13676,95.3502353 C177.196119,96.4954138 179.262964,97.6330924 181.329899,98.7706817 C181.352538,98.7706817 181.36769,98.8086281 181.405571,98.8616638 C179.944366,99.0740746 178.50589,99.286396 177.067414,99.4912174 C175.924138,99.6580031 174.773375,99.794521 173.630188,99.9841638 C173.289443,100.037289 173.334899,99.9310388 173.410571,99.7035388 C173.880021,98.3080924 174.341806,96.9049674 174.803679,95.5019317 C174.864199,95.3198781 174.917232,95.228896 175.13676,95.3502353 Z M228.202169,87.607021 C229.504453,88.9114853 229.860262,90.481396 229.51194,92.2333603 C229.17886,93.8942531 228.482306,95.4035388 227.475399,96.7459496 C226.51386,98.027646 225.18136,98.7633603 223.599027,99.0514853 C221.698677,99.3928246 219.798416,99.4534496 217.913219,98.9529138 C216.300582,98.5205924 215.096786,97.6180924 214.695521,95.8964853 C214.483569,94.9788067 214.55924,94.0611281 214.778858,93.1586281 C214.89241,92.7035388 215.051329,92.2712174 215.18761,91.8238067 C215.233066,91.6721103 215.308827,91.5887174 215.482899,91.5887174 L220.184529,91.5887174 L220.184529,91.5887174 C219.980064,92.0361281 219.798416,92.4456817 219.699927,92.8931817 C219.601527,93.3633603 219.503127,93.8260388 219.578799,94.311396 C219.730232,95.3049674 220.472243,95.888896 221.479149,95.7675567 C223.205338,95.5628246 224.901223,93.7956817 224.931527,92.0740746 C224.946679,91.042646 224.545414,90.1097888 223.901893,89.2906817 C223.500627,88.7825567 223.016025,88.3654138 222.493632,87.9862174 C222.410384,87.9179138 222.289256,87.8724674 222.251375,87.7055924 C222.675369,87.667646 223.099362,87.6296996 223.515779,87.5994317 C224.870919,87.5159496 226.226147,87.440146 227.581375,87.3415746 C227.84636,87.326396 228.020521,87.4173781 228.202169,87.607021 Z M188.522458,75.6010388 C189.20386,75.6313067 189.87011,75.7678246 190.513632,76.0105924 C192.444286,76.7234496 193.405736,78.3085388 193.231664,80.4852353 C192.966679,83.6554138 191.278282,85.5818424 187.984912,86.446396 C187.947121,86.4615746 187.924393,86.4691638 187.833479,86.4919317 C188.113616,86.6208603 188.333234,86.7042531 188.53761,86.8180031 C189.80959,87.4854138 190.513632,88.5547888 190.513632,89.9806817 C190.528784,93.3404138 189.188708,95.9418424 186.099803,97.4738067 C185.160993,97.9364853 184.153997,98.156396 183.116786,98.2171103 C182.935049,98.2246103 182.776129,98.1943424 182.617121,98.103271 C180.277625,96.8215746 177.938219,95.5398781 175.591236,94.273271 C175.379195,94.159521 175.34889,94.0533603 175.417075,93.8334496 C177.332577,87.8343424 179.24799,81.8352353 181.163493,75.8361281 C181.224012,75.6464853 181.292197,75.5479138 181.526877,75.5479138 C183.858708,75.578271 186.190627,75.4947888 188.522458,75.6010388 Z M211.379245,88.9189853 C210.765938,90.8530031 210.167873,92.7869317 209.569719,94.7209496 C209.516775,94.8878246 209.425862,94.9636281 209.266853,95.0167531 C207.699673,95.4793424 206.132493,95.942021 204.565312,96.4121996 C204.466912,96.4425567 204.368423,96.510771 204.277599,96.4425567 C204.171623,96.3591638 204.270023,96.2529138 204.300327,96.169521 C205.027097,93.8487174 205.761532,91.5355924 206.488301,89.2147888 C206.541334,89.0404138 206.594366,88.903896 206.829047,88.8887174 C208.252371,88.7900567 209.683271,88.6914853 211.008195,88.6080924 C211.401884,88.5321996 211.470069,88.6308603 211.379245,88.9189853 Z M181.950871,88.1452353 C181.799438,88.137646 181.769134,88.2287174 181.731253,88.3500567 C181.065003,90.4205031 180.398753,92.4986281 179.725016,94.5690746 C179.664408,94.7511281 179.694712,94.8193424 179.899088,94.8117531 C180.34581,94.7965746 180.784956,94.8041638 181.224012,94.8041638 L181.224012,94.7889853 L181.224012,94.7889853 C181.640429,94.7889853 182.056847,94.8041638 182.473264,94.7889853 C183.396923,94.7511281 184.184301,94.4173781 184.759727,93.651396 C185.44104,92.7337174 185.91049,91.7325567 186.10729,90.6025567 C186.319332,89.4042531 185.804514,88.6155031 184.623447,88.3196996 C183.745156,88.0997888 182.844225,88.1755924 181.950871,88.1452353 Z M203.210262,59.4543335 C204.550338,59.8790746 205.905566,60.2886281 207.253219,60.6754138 C207.556084,60.766396 207.457595,60.9105031 207.404651,61.0925567 C205.549758,66.955146 203.694864,72.8100567 201.839971,78.672646 C200.893584,81.6608603 199.939621,84.6490746 199.00081,87.6447888 C198.925138,87.8874674 198.826649,88.016396 198.546601,88.0315746 C197.13834,88.1225567 195.715016,88.236396 194.208356,88.350146 C194.231084,88.350146 194.162988,88.3425567 194.102379,88.3577353 C193.867699,88.3955924 193.822243,88.3273781 193.898003,88.0998781 C194.321908,86.833271 194.715597,85.5591638 195.13959,84.2925567 C197.872775,76.1698781 200.257638,67.9410388 202.695445,59.7349674 C202.793934,59.4088246 202.89991,59.3557353 203.210262,59.4543335 Z M205.436027,75.5934496 C210.342034,75.6010388 215.24804,75.6010388 220.154047,75.6010388 C220.199503,75.6010388 220.237295,75.6162174 220.313056,75.631396 C220.123743,76.2230031 219.942095,76.814521 219.752782,77.3985388 C219.578621,77.9521996 219.389397,78.4981817 219.237964,79.0594317 C219.169869,79.3096996 219.048651,79.3628246 218.813971,79.3628246 C217.436103,79.3552353 216.065723,79.3628246 214.687766,79.347646 C214.415206,79.347646 214.301653,79.4310388 214.218406,79.688896 C213.468819,82.1158603 212.689016,84.5428246 211.947095,86.9697888 C211.856271,87.2730924 211.71999,87.3793424 211.409549,87.394521 C210.046745,87.4703246 208.691516,87.5613067 207.336377,87.6750567 C207.010784,87.6978246 206.995632,87.6144317 207.078969,87.3338067 C207.873923,84.808271 208.646149,82.2827353 209.441103,79.7571996 C209.539503,79.4462174 209.531927,79.3324674 209.145814,79.3400567 C207.555906,79.3628246 205.965997,79.3400567 204.376088,79.3552353 C204.058071,79.3552353 204.027856,79.2794317 204.118679,78.9912174 C204.466912,77.9521996 204.792506,76.9055031 205.110434,75.858896 C205.163466,75.6769317 205.231651,75.5934496 205.436027,75.5934496 Z M230.571879,75.9196103 C231.949836,76.412646 232.971895,77.2847888 233.335369,78.778896 C233.471649,79.3477353 233.494288,79.9240746 233.380736,80.5080924 C233.244456,81.1906817 233.047656,81.8505031 232.820462,82.5103246 C232.759943,82.6923781 232.661543,82.7530031 232.464653,82.7530031 C231.101849,82.7454138 229.739134,82.7454138 228.376329,82.7530031 C228.126497,82.7530031 228.111345,82.6771996 228.187016,82.4647888 C228.346025,82.0021996 228.527762,81.5471103 228.633738,81.0617531 C228.70941,80.7128246 228.724562,80.356396 228.671619,80.0075567 C228.595858,79.5069317 228.315721,79.1656817 227.823632,78.9988067 C226.672869,78.6196103 225.590201,78.9760388 224.976984,80.0227353 C224.212245,81.312021 224.053236,82.608896 225.037503,83.8981817 C225.650721,84.7172888 226.309395,85.4908603 227.134653,86.2417531 C226.120171,86.3099674 225.196512,86.378271 224.265277,86.438896 C223.31889,86.4996103 222.380079,86.552646 221.433693,86.6285388 C221.214164,86.6437174 221.040003,86.605771 220.865843,86.4844317 C219.942184,85.8246103 219.351695,84.9069317 219.298662,83.7996103 C219.192686,81.5850567 219.760536,79.5448781 221.244469,77.8384496 C222.289256,76.6325567 223.621756,75.9121103 225.173784,75.5859496 C226.998373,75.2067531 228.815475,75.290146 230.571879,75.9196103 Z M184.835399,79.0290746 C184.683966,79.0290746 184.653662,79.127646 184.623447,79.241396 C184.040445,81.0540746 183.465019,82.8666638 182.874529,84.6716638 C182.806345,84.8840746 182.874529,84.8992531 183.056177,84.8992531 C183.404499,84.8916638 183.77546,84.8992531 184.138845,84.8916638 C184.328158,84.8916638 184.517382,84.8992531 184.706695,84.8916638 C187.265719,84.815771 188.77229,83.2989853 188.734499,80.8340746 C188.719347,79.9239853 188.310506,79.3930924 187.432214,79.180771 C186.57674,78.9683603 185.698538,79.0366638 184.835399,79.0290746 Z M173.895351,76.0409496 C174.417745,76.359521 174.629786,76.8448781 174.531297,77.428896 C174.281464,78.8471103 173.812103,80.2122888 173.236677,81.5243424 C172.835412,82.4344317 172.146434,82.7680924 170.935151,82.7756817 C170.66259,82.7454138 170.382453,82.7378246 170.109893,82.6846996 C169.034801,82.4647888 168.565351,81.8352353 168.82276,80.7810388 C169.125625,79.5372888 169.473947,78.2934496 170.034132,77.1330924 C170.692806,75.7527353 172.570427,75.2446103 173.895351,76.0409496 Z M179.22544,75.7300567 C179.460121,75.7300567 179.535793,75.7604138 179.452545,76.018271 C179.202281,76.8133752 179.195135,76.8643171 178.436151,76.8675233 L177.347819,76.8677353 L177.347819,76.8677353 C177.196386,76.8677353 177.09041,76.8904138 177.044953,77.0648781 C176.938977,77.4516638 176.802697,77.8308603 176.681569,78.217646 C176.651264,78.3087174 176.628536,78.4072888 176.590745,78.551396 C177.166082,78.551396 177.711203,78.5589853 178.256325,78.5438067 C178.491006,78.5362174 178.528886,78.604521 178.468277,78.8244317 C178.226021,79.681396 178.233597,79.681396 177.332666,79.6889853 C176.969282,79.6889853 176.514984,79.5373781 176.265151,79.7496996 C176.038047,79.9468424 176.022895,80.3943424 175.916919,80.7280924 C175.742758,81.2816638 175.561021,81.8277353 175.402101,82.3889853 C175.341493,82.5938067 175.265821,82.6771996 175.046203,82.6696103 C174.644938,82.6544317 174.243673,82.6696103 173.812193,82.6696103 C174.251249,81.2362174 174.682819,79.848271 175.114388,78.4528246 C175.364221,77.648896 175.614053,76.8449674 175.85631,76.0334496 C175.916919,75.8362174 175.985014,75.7224674 176.234847,75.7300567 C177.22669,75.7452353 178.226021,75.7452353 179.22544,75.7300567 Z M172.381203,76.753896 C171.873873,76.7614853 171.548369,77.042021 171.374208,77.4819317 C170.95779,78.5209496 170.62471,79.5903246 170.321845,80.6672888 C170.29154,80.7734496 170.283964,80.8947888 170.283964,81.0086281 C170.283964,81.4636281 170.541462,81.713896 170.882119,81.713896 C171.449969,81.6987174 171.752745,81.4484496 171.911753,81.0464853 C172.366051,79.9013067 172.744588,78.725771 173.047453,77.5274674 C173.161006,77.0723781 172.850564,76.7463067 172.381203,76.753896 Z M164.575427,67.7818424 C165.885199,68.138271 167.194971,68.4946996 168.504743,68.8360388 C168.709208,68.8890746 168.694056,68.9725567 168.648599,69.1242531 C168.118629,70.7775567 167.58866,72.4385388 167.081419,74.0994317 C167.013234,74.3118424 166.899682,74.334521 166.72561,74.334521 L165.669414,74.3269317 L165.669414,74.3269317 L164.613219,74.3193424 L164.613219,74.3193424 C163.916753,74.3193424 163.227775,74.3118424 162.531221,74.3269317 C162.243508,74.334521 162.190564,74.2587174 162.281388,73.9856817 C162.947638,71.9758603 163.606312,69.9660388 164.249834,67.9486281 C164.310443,67.7514853 164.39369,67.7363067 164.575427,67.7818424 Z M189.355203,55.2298603 C190.256223,55.5180567 191.157153,55.7910924 192.06566,56.0489496 C192.323069,56.1247978 192.353373,56.2082174 192.239821,56.4509138 C190.899745,59.4390924 189.43854,62.3741638 187.916727,65.2713067 C187.848632,65.392646 187.788023,65.5139853 187.697199,65.6960388 C189.20386,65.6960388 190.63476,65.6884496 192.073236,65.7036281 C192.353373,65.7036281 192.330645,65.5443424 192.330645,65.3623781 C192.330645,64.2778246 192.360949,63.193271 192.413893,62.1011281 C192.504806,60.2430031 192.67139,58.4000567 192.875766,56.5495121 C192.898495,56.3599049 192.951438,56.314396 193.133175,56.3750746 C194.359699,56.7542799 195.586223,57.1259049 196.820234,57.4899496 C197.024699,57.5506281 197.047427,57.6643871 197.039851,57.8464049 C197.009547,59.0447085 196.986819,60.2430031 196.956514,61.448896 C196.858114,65.5898781 196.759714,69.7384496 196.668801,73.8794317 C196.661225,74.1524674 196.562825,74.175146 196.335721,74.175146 C194.950188,74.1675567 193.557169,74.1675567 192.171636,74.175146 C191.906651,74.175146 191.838556,74.114521 191.853708,73.8414853 L192.027779,69.6777353 L192.027779,69.6777353 C192.042932,69.389521 191.989988,69.2909496 191.679547,69.2985388 C189.862534,69.3137174 188.045432,69.3137174 186.228419,69.3061281 C185.993738,69.3061281 185.87261,69.3819317 185.766634,69.5867531 L183.502899,73.9021103 L183.502899,73.9021103 C183.419562,74.0538067 183.359043,74.1675567 183.147001,74.1675567 C181.579821,74.1599674 180.020216,74.1599674 178.453036,74.1599674 C178.377275,74.0234496 178.490827,73.947646 178.54386,73.8566638 C181.996238,67.7134496 185.448616,61.5702353 188.893419,55.4270478 C189.014547,55.2146906 189.120523,55.154021 189.355203,55.2298603 Z M210.402732,61.623271 C211.65956,62.0252353 212.923875,62.412021 214.195856,62.7761281 C214.483479,62.859521 214.536512,62.9429138 214.445688,63.2311281 C213.711253,65.506396 212.999636,67.7892531 212.265201,70.0721103 C212.159225,70.405771 212.227321,70.458896 212.56049,70.4513067 C214.438112,70.4361281 216.315734,70.4437174 218.200843,70.4285388 C218.55674,70.4285388 218.586956,70.512021 218.480979,70.8305031 C218.132747,71.8316638 217.807153,72.8403246 217.489225,73.8489853 C217.42104,74.0689853 217.32264,74.1371996 217.095536,74.1371996 C215.316314,74.1296103 213.537182,74.1296103 211.75796,74.1296103 C211.750384,74.1144317 211.750384,74.122021 211.750384,74.1296103 C209.986314,74.1296103 208.222334,74.122021 206.450688,74.1371996 C206.117519,74.1371996 206.117519,74.0462174 206.200856,73.780771 C207.465171,69.8066638 208.721999,65.8325567 209.963586,61.8584496 C210.046923,61.5930031 210.137747,61.5398781 210.402732,61.623271 Z M169.670658,51.407204 C171.639103,51.4147888 173.607549,51.3996201 175.575995,51.4223728 C176.77979,51.4375415 177.960858,51.6347299 179.058677,52.1580388 C180.671314,52.9240388 181.496573,54.205771 181.594973,55.9804763 C181.663069,57.178771 181.504149,58.3543246 181.027123,59.4616192 C180.042945,61.7292531 178.248571,62.8896996 175.750156,63.2005924 C176.143845,63.329521 176.484501,63.4205924 176.810095,63.5419317 C178.097138,64.0424674 178.664988,64.8843424 178.64226,66.2721996 C178.627108,67.5236281 178.240995,68.7067531 177.870034,69.8822888 C177.461193,71.1943424 177.022047,72.4988067 177.052351,73.9019317 C177.052351,74.0612174 176.991832,74.0839853 176.855551,74.0839853 C175.341314,74.0839853 173.827077,74.076396 172.312929,74.0914853 C172.055521,74.0914853 172.100977,73.9625567 172.11604,73.8109496 C172.214529,72.4305924 172.623371,71.1109496 172.994332,69.7913067 C173.266893,68.8205031 173.592397,67.8648781 173.751406,66.8638067 C173.963358,65.5289853 173.584821,65.0208603 172.229682,64.8843424 C171.548279,64.8160388 170.866877,64.8539853 170.185475,64.8767531 C169.988586,64.8843424 169.905338,64.9677353 169.852306,65.1497888 C169.617625,65.9233603 169.360216,66.6817531 169.133112,67.4553246 C169.064927,67.6829138 168.989256,67.7587174 168.739423,67.6905031 C167.467443,67.3339853 166.187975,66.9927353 164.908508,66.6589853 C164.673738,66.5983603 164.651099,66.5073781 164.719195,66.2949674 C166.241008,61.4259496 167.762732,56.5568692 169.276969,51.6878192 C169.345064,51.4678781 169.443553,51.407204 169.670658,51.407204 Z M154.703073,65.1955031 C156.012854,65.5596103 157.322634,65.9084496 158.632424,66.2572888 C158.798982,66.3028246 158.904976,66.3180031 158.836836,66.5455031 C158.170586,68.6614853 157.527055,70.7774674 156.868372,72.8934496 C156.853238,72.931396 156.830518,72.9617531 156.792665,73.045146 C155.800866,72.0061281 154.892341,70.959521 153.877832,70.0114853 C153.287289,69.4578246 153.219149,68.9724674 153.49171,68.2519317 C153.855113,67.3190746 154.097387,66.3331817 154.385091,65.3699674 C154.438088,65.1879138 154.506219,65.1424674 154.703073,65.1955031 Z M167.929406,51.4379397 C168.209543,51.4379397 168.300366,51.4682763 168.201966,51.7792263 C167.853645,52.8182621 167.52814,53.8648781 167.217699,54.9115031 C167.149603,55.1466103 167.036051,55.2072799 166.801282,55.2072799 C165.423414,55.1921192 164.053034,55.2072799 162.675077,55.1996996 C162.410093,55.1996996 162.288964,55.2679585 162.213293,55.5334049 C161.266906,58.6125835 160.305393,61.6917531 159.351448,64.7785388 C159.275732,65.0288067 159.200024,65.1425567 158.897186,65.0515746 C157.647969,64.695146 156.398753,64.3538067 155.141969,64.0429138 C154.839131,63.967021 154.808844,63.8684496 154.892128,63.5954138 C155.747646,60.9181817 156.58803,58.2409585 157.428414,55.5561549 C157.458692,55.4575656 157.481411,55.3437978 157.519265,55.2148692 L152,55.2148692 L152,55.2148692 C152.158992,54.7143156 152.30284,54.2440924 152.454259,53.7662888 C152.658679,53.1064585 152.878234,52.4466371 153.067512,51.7792263 C153.135652,51.5289505 153.256789,51.4606924 153.514198,51.4606924 C156.201908,51.4682763 158.889619,51.4606924 161.569771,51.4531085 C163.689649,51.4531085 165.809527,51.4531085 167.929406,51.4379397 Z M212.991971,53.2428513 C214.203343,54.0391906 215.414714,54.8279496 216.626086,55.6242888 C216.701758,55.6849674 216.800158,55.7380567 216.785095,55.859396 C216.663877,56.2461906 216.542749,56.6329853 216.429197,57.0121996 C215.967412,58.4911192 215.505538,59.9700567 215.058906,61.4565746 C214.990721,61.6840746 214.915049,61.7522888 214.665216,61.6764853 C213.370508,61.2669317 212.068312,60.880146 210.766116,60.4933603 C210.539012,60.4250567 210.516284,60.3340746 210.584379,60.1141638 C211.167382,58.2787621 211.735232,56.4357978 212.302993,54.5928424 C212.431697,54.1832978 212.567977,53.7737442 212.681529,53.3641996 C212.734562,53.1670121 212.810234,53.1215031 212.991971,53.2428513 Z M173.160916,54.971771 C172.948875,54.9641906 172.956451,55.1158781 172.918571,55.2372263 C172.64601,56.1169853 172.381025,56.9967531 172.11604,57.8689406 C171.775384,59.014146 171.419575,60.1517531 171.056101,61.3272888 C171.888936,61.3272888 172.676314,61.3121996 173.463693,61.3272888 C174.258647,61.3424674 174.917321,61.0543424 175.44729,60.4855031 C176.393677,59.4691996 176.855551,58.2329763 176.953951,56.8602353 C177.029623,55.8212085 176.529958,55.2296371 175.500323,55.0476192 C174.720521,54.9111013 173.940719,55.0021103 173.160916,54.971771 Z M197.266956,51.2787371 L197.266473,51.4802973 C197.265107,51.8085507 197.261228,52.2262888 197.259862,52.3673422 L197.259379,52.5688335 C197.259379,54.7105121 197.19886,56.0416103 197.19886,56.0416103 C197.19886,56.337396 197.115612,56.3753156 196.843051,56.2918871 C194.495979,55.5713871 192.148997,54.8660567 189.802014,54.1683156 C189.491573,54.0773067 189.453693,53.9787085 189.627853,53.7208513 C189.802014,53.4629853 189.923945,53.1794942 190.074575,52.8941728 C190.296599,52.473396 190.543936,52.2874317 190.998234,52.2040121 C192.989408,51.8323871 194.965429,51.430421 196.949027,51.0208746 C197.221588,50.9677853 197.266956,51.0030647 197.266956,51.2787371 Z" id="形状结合" fill-rule="nonzero"></path>
        </g>
    </g>
</svg>