<?xml version="1.0" encoding="UTF-8"?>
<svg width="386px" height="150px" viewBox="0 0 386 150" version="1.1" xmlns="http://www.w3.org/2000/svg" xmlns:xlink="http://www.w3.org/1999/xlink">
    <title>4</title>
    <g id="2022---新官网" stroke="none" stroke-width="1" fill="none" fill-rule="evenodd">
        <g id="编组-8" transform="translate(0.000000, -170.000000)" fill="#FFFFFF">
            <g id="4" transform="translate(0.000000, 170.000000)">
                <path d="M10,0 L376,0 C381.522847,-1.01453063e-15 386,4.4771525 386,10 L386,140 C386,145.522847 381.522847,150 376,150 L10,150 C4.4771525,150 6.76353751e-16,145.522847 0,140 L0,10 C-6.76353751e-16,4.4771525 4.4771525,1.01453063e-15 10,0 Z" id="矩形备份-7" opacity="0.05"></path>
                <path d="M134.310361,59 L138.160813,62.849329 L133.036232,67.9739097 C134.414874,70.0873377 135.148214,72.5565084 135.146684,75.0798452 L135.146684,75.0798452 C135.148752,77.6059466 134.414984,80.0768085 133.03511,82.1913935 L133.03511,82.1913935 L138.160813,87.3126065 L134.311484,91.1608129 L129.185781,86.0362323 C124.867014,88.8523771 119.292676,88.8523771 114.97391,86.0362323 L114.97391,86.0362323 L109.849329,91.1608129 L106,87.3126065 L111.124581,82.1857806 C108.308436,77.8670139 108.308436,72.2926764 111.124581,67.9739097 L111.124581,67.9739097 L106,62.849329 L109.848206,59 L114.9784,64.1245806 C119.297429,61.3079478 124.872365,61.3079478 129.191394,64.1245806 L129.191394,64.1245806 L134.310361,59 Z M272.66169,72.0679613 C275.543355,72.0679613 277.507871,74.2951613 277.507871,77.6135097 C277.507871,80.910529 275.478245,83.1590581 272.574129,83.1590581 C271.024968,83.1590581 269.757574,82.3732516 269.234452,81.389871 L269.234452,87.2407613 L265.893652,87.2407613 L265.893652,72.3519742 L269.234452,72.3519742 L269.234452,73.8584774 C269.780026,72.8537677 271.090077,72.0679613 272.66169,72.0679613 Z M154.662748,67.156671 C159.792942,67.156671 162.8284,70.8892516 162.8284,75.2336387 C162.8284,78.3768645 161.234335,81.215871 158.396452,82.5259226 L159.902955,84.4904387 L156.802387,86.0620516 L154.727858,83.311729 L154.662748,83.311729 C149.532555,83.311729 146.498219,79.5780258 146.498219,75.2336387 C146.498219,70.8892516 149.532555,67.156671 154.662748,67.156671 Z M217.406026,72.0466323 C220.484142,72.0466323 222.099535,73.3342323 222.099535,75.3212 L218.803639,75.3212 C218.803639,74.5791742 218.258065,74.1649419 217.362245,74.1649419 C216.642671,74.1649419 216.161084,74.5129419 216.161084,75.0371871 C216.161084,75.5176516 216.488877,75.8229935 217.056903,75.9756645 L219.545665,76.6525806 C221.162181,77.0903871 222.209548,78.0715226 222.209548,79.5780258 C222.209548,81.7401161 220.484142,83.2028387 217.602477,83.2028387 C214.524361,83.2028387 212.624955,81.6963355 212.624955,79.7093677 L215.943303,79.7093677 C215.943303,80.4300645 216.642671,80.9531871 217.66871,80.9531871 C218.388284,80.9531871 218.8912,80.5827355 218.8912,79.970929 C218.8912,79.5555742 218.694748,79.2075742 218.126723,79.0762323 L215.5504,78.4217677 C213.803665,77.9839613 212.908968,76.8928129 212.908968,75.3863097 C212.908968,73.4217935 214.633252,72.0466323 217.406026,72.0466323 Z M237.119665,72.0679613 C238.648619,72.0679613 239.848658,72.7886581 240.416684,73.8584774 L240.416684,72.3519742 L243.735032,72.3519742 L243.735032,82.8750452 L240.416684,82.8750452 L240.416684,81.389871 C239.848658,82.4383613 238.538606,83.1590581 237.075884,83.1590581 C233.932658,83.1590581 232.120813,80.7791871 232.120813,77.6135097 C232.120813,74.4702839 234.062877,72.0679613 237.119665,72.0679613 Z M168.045032,72.3519742 L168.045032,78.1153032 C168.045032,79.5566968 168.525497,80.3425032 169.791768,80.3425032 C171.21071,80.3425032 171.822516,79.4253548 171.822516,78.0064129 L171.822516,72.3519742 L175.140865,72.3519742 L175.140865,82.8750452 L171.822516,82.8750452 L171.822516,81.3685419 C171.233161,82.4821419 170.14089,83.1590581 168.547948,83.1590581 C166.015406,83.1590581 164.661574,81.5874452 164.661574,78.857329 L164.661574,72.3519742 L168.045032,72.3519742 Z M182.149135,72.0679613 C183.675845,72.0679613 184.877006,72.7886581 185.445032,73.8584774 L185.445032,72.3519742 L188.763381,72.3519742 L188.763381,82.8750452 L185.445032,82.8750452 L185.445032,81.389871 C184.877006,82.4383613 183.568077,83.1590581 182.105355,83.1590581 C178.962129,83.1590581 177.149161,80.7791871 177.149161,77.6135097 C177.149161,74.4702839 179.091226,72.0679613 182.149135,72.0679613 Z M208.848594,69.2312 L208.848594,72.3519742 L211.228465,72.3519742 L211.228465,74.9934065 L208.848594,74.9934065 L208.848594,78.4868774 C208.848594,80.0360387 209.481729,80.2773935 210.311316,80.2773935 C210.726671,80.2773935 211.162232,80.2549419 211.467574,80.2111613 L211.467574,82.8750452 C210.988232,82.9626065 210.202426,83.0490452 209.241497,83.0490452 C207.669884,83.0490452 205.507794,82.7010452 205.507794,79.1851226 L205.507794,74.9934065 L203.848619,74.9934065 L203.848619,72.3519742 L205.507794,72.3519742 L205.507794,69.2312 L208.848594,69.2312 Z M228.343329,69.2312 L228.343329,72.3519742 L230.7232,72.3519742 L230.7232,74.9934065 L228.343329,74.9934065 L228.343329,78.4868774 C228.343329,80.0360387 228.976465,80.2773935 229.806052,80.2773935 C230.221406,80.2773935 230.65809,80.2549419 230.963432,80.2111613 L230.963432,82.8750452 C230.482968,82.9626065 229.697161,83.0490452 228.736232,83.0490452 C227.164619,83.0490452 225.003652,82.7010452 225.003652,79.1851226 L225.003652,74.9934065 L223.344477,74.9934065 L223.344477,72.3519742 L225.003652,72.3519742 L225.003652,69.2312 L228.343329,69.2312 Z M252.86049,72.0679613 C254.737445,72.0679613 255.698374,72.898671 256.15751,74.0111484 C256.724413,72.8762194 257.969355,72.0690839 259.518516,72.0690839 C262.531523,72.0690839 263.252219,74.1424903 263.252219,76.3472387 L263.252219,82.8750452 L259.89009,82.8750452 L259.89009,76.9590452 C259.89009,75.4963226 259.344516,74.8845161 258.318477,74.8845161 C257.269987,74.8845161 256.550413,75.473871 256.550413,77.4608387 L256.550413,82.8750452 L253.188284,82.8750452 L253.188284,76.9365935 C253.188284,75.473871 252.664039,74.8845161 251.638,74.8845161 C250.568181,74.8845161 249.847484,75.473871 249.847484,77.4608387 L249.847484,82.8750452 L246.507806,82.8750452 L246.507806,72.3519742 L249.847484,72.3519742 L249.847484,73.8798065 C250.306619,72.8324387 251.397768,72.0679613 252.86049,72.0679613 Z M198.281742,72.0679613 C200.836735,72.0679613 202.124335,73.5093548 202.124335,76.3685677 L202.124335,82.8750452 L198.762206,82.8750452 L198.762206,77.4608387 C198.762206,75.6927742 198.260413,74.8845161 196.906581,74.8845161 C195.5752,74.8845161 194.875832,75.7578839 194.875832,77.3732774 L194.875832,82.8739226 L191.536155,82.8739226 L191.536155,72.3519742 L194.875832,72.3519742 L194.875832,73.8798065 C195.487639,72.7010968 196.6888,72.0679613 198.281742,72.0679613 Z M127.570535,69.7821368 C125.412598,67.5410453 122.109221,66.8363587 119.224601,68.0017565 C116.339981,69.1671542 114.453139,71.9687096 114.457507,75.0798452 C114.452358,77.6633991 115.758712,80.0730109 117.926512,81.4785076 C120.094312,82.8840043 122.827258,83.0932794 125.183781,82.0342323 L125.183781,82.0342323 L120.154619,77.005071 L124.005071,73.1546194 L129.034232,78.1893935 C130.307814,75.3508773 129.728473,72.0232282 127.570535,69.7821368 Z M238.036813,74.8631871 C236.487652,74.8631871 235.526723,76.0194452 235.526723,77.6135097 C235.526723,79.2075742 236.486529,80.3862839 238.036813,80.3862839 C239.695987,80.3862839 240.548026,79.1413419 240.548026,77.6135097 C240.548026,76.1070065 239.695987,74.8631871 238.036813,74.8631871 Z M183.065161,74.8631871 C181.516,74.8631871 180.555071,76.0194452 180.555071,77.6135097 C180.555071,79.2075742 181.516,80.3862839 183.065161,80.3862839 C184.724335,80.3862839 185.576374,79.1413419 185.576374,77.6135097 C185.576374,76.1070065 184.724335,74.8631871 183.065161,74.8631871 Z M271.6132,74.8631871 C270.106697,74.8631871 269.080658,75.9756645 269.080658,77.6135097 C269.080658,79.2726839 270.129148,80.3862839 271.6132,80.3862839 C273.075923,80.3862839 274.101961,79.2513548 274.101961,77.6135097 C274.101961,75.9969935 273.075923,74.8631871 271.6132,74.8631871 Z M154.662748,70.3212258 C151.737303,70.3212258 150.16569,72.5708774 150.187019,75.2336387 C150.16569,77.8975226 151.737303,80.1460516 154.662748,80.1460516 C157.566865,80.1460516 159.138477,77.8975226 159.138477,75.2336387 C159.138477,72.5708774 157.566865,70.3212258 154.662748,70.3212258 Z M278.387974,71.6840387 C278.668619,71.6840387 278.915587,71.7480258 279.128877,71.8748774 C279.342168,72.0006065 279.506065,72.1712387 279.619445,72.3890194 C279.733948,72.6056774 279.7912,72.8459097 279.7912,73.1085935 C279.7912,73.3757677 279.733948,73.6171226 279.619445,73.8349032 C279.50784,74.0492313 279.337735,74.2275104 279.128877,74.3490452 C278.915587,74.4758968 278.668619,74.5398839 278.387974,74.5398839 L278.387974,74.5387613 C278.1272,74.5447998 277.869767,74.4791796 277.643703,74.3490452 C277.435865,74.2269368 277.266628,74.0487513 277.155381,73.8349032 C277.039751,73.6104752 276.981149,73.3610323 276.984748,73.1085935 C276.984748,72.8459097 277.040877,72.6056774 277.155381,72.3890194 C277.268761,72.1712387 277.431535,72.0006065 277.643703,71.8737548 C277.869767,71.7436204 278.1272,71.6780002 278.387974,71.6840387 Z M278.387974,71.9186581 C278.177292,71.913938 277.969664,71.9696431 277.789639,72.0791871 C277.620931,72.1841316 277.484556,72.3337164 277.395613,72.5113806 C277.302128,72.6964576 277.254393,72.9012559 277.256413,73.1085935 C277.256413,73.3297419 277.302439,73.5306839 277.395613,73.7114194 C277.487665,73.8932774 277.620129,74.0369677 277.789639,74.1436129 C277.960271,74.2502581 278.16009,74.3041419 278.387974,74.3041419 C278.614735,74.3041419 278.814555,74.2502581 278.985187,74.1436129 C279.154133,74.0392927 279.290296,73.889514 279.37809,73.7114194 C279.467897,73.5306839 279.5128,73.3297419 279.5128,73.1085935 C279.5128,72.8919355 279.467897,72.6932387 279.37809,72.5113806 C279.194437,72.1352699 278.806231,71.9028741 278.387974,71.9186581 Z M278.467677,72.3351355 C278.616981,72.3351355 278.739342,72.3856516 278.835884,72.4878065 C278.931303,72.5888387 278.979574,72.7112 278.979574,72.8526452 C278.981252,72.9580445 278.950702,73.0614427 278.892013,73.1490065 C278.832598,73.2367431 278.745111,73.3016652 278.643923,73.3331097 L278.969471,73.8450065 L278.70791,73.8450065 L278.409303,73.3600516 L278.115187,73.3600516 L278.115187,73.8450065 L277.880568,73.8450065 L277.880568,72.3351355 L278.467677,72.3351355 Z M278.451961,72.5439355 L278.1208,72.5439355 L278.1208,73.1568645 L278.451961,73.1568645 C278.540645,73.1568645 278.611368,73.1276774 278.665252,73.0693032 C278.718737,73.0100476 278.747289,72.9324353 278.744955,72.8526452 C278.747756,72.7714315 278.719219,72.6922508 278.665252,72.6314968 C278.6105,72.5723509 278.532478,72.5403208 278.451961,72.5439355 Z" fill-rule="nonzero"></path>
            </g>
        </g>
    </g>
</svg>