<?xml version="1.0" encoding="UTF-8"?>
<svg width="386px" height="150px" viewBox="0 0 386 150" version="1.1" xmlns="http://www.w3.org/2000/svg" xmlns:xlink="http://www.w3.org/1999/xlink">
    <title>5</title>
    <g id="2022---新官网" stroke="none" stroke-width="1" fill="none" fill-rule="evenodd">
        <g id="编组-8" transform="translate(-406.000000, -170.000000)">
            <g id="5" transform="translate(406.000000, 170.000000)">
                <path d="M10,0 L376,0 C381.522847,-1.01453063e-15 386,4.4771525 386,10 L386,140 C386,145.522847 381.522847,150 376,150 L10,150 C4.4771525,150 6.76353751e-16,145.522847 0,140 L0,10 C-6.76353751e-16,4.4771525 4.4771525,1.01453063e-15 10,0 Z" id="矩形备份-8" fill="#FFFFFF" opacity="0.05"></path>
                <g transform="translate(110.000000, 57.000000)">
                    <path d="M47.3585121,21.2694939 L47.3585121,8.20043785 L50.4329534,5.12536585 L59.0523693,5.12536585 L62.0170092,8.09061385 L62.0170092,10.2596379 L59.3817738,10.2596379 L59.3817738,9.02411785 L57.7896524,7.43166985 L51.6956704,7.43166985 L49.9937475,9.13394185 L49.9937475,20.3359899 L51.6956704,22.0382619 L57.7896524,22.0382619 L59.3817738,20.4458139 L59.3817738,19.2102939 L62.0170092,19.2102939 L62.0170092,21.3793179 L59.0523693,24.3445659 L50.4329534,24.3445659 L47.3585121,21.2694939 Z M65.1738017,5.12536585 L78.0754752,5.12536585 L78.0754752,7.43166985 L67.8090371,7.43166985 L67.8090371,13.5543579 L77.2794145,13.5543579 L77.2794145,15.8332059 L67.8090371,15.8332059 L67.8090371,22.0382619 L78.0754752,22.0382619 L78.0754752,24.3445659 L65.1738017,24.3445659 L65.1738017,5.12536585 Z M95.4790092,18.3042459 L95.4790092,24.3445659 L92.8437738,24.3445659 L92.8437738,18.9631899 L90.5653931,16.5196059 L84.0047549,16.5196059 L84.0047549,24.3445659 L81.3695195,24.3445659 L81.3695195,5.12536585 L92.7065219,5.12536585 L95.3692077,7.78859785 L95.3692077,13.7740059 L93.2555293,15.8881179 L95.4790092,18.3042459 Z M84.0047549,14.2682139 L91.526156,14.2682139 L92.7614227,13.0601499 L92.7614227,8.58482185 L91.526156,7.37675785 L84.0047549,7.37675785 L84.0047549,14.2682139 Z M103.467067,7.40421385 L97.6750387,7.40421385 L97.6750387,5.12536585 L111.89433,5.12536585 L111.89433,7.40421385 L106.102302,7.40421385 L106.102302,24.3445659 L103.467067,24.3445659 L103.467067,7.40421385 Z M113.953108,21.2694939 L113.953108,8.20043785 L117.027549,5.12536585 L126.086171,5.12536585 L129.160612,8.20043785 L129.160612,21.2694939 L126.086171,24.3445659 L117.027549,24.3445659 L113.953108,21.2694939 Z M124.823454,22.0382619 L126.525377,20.3359899 L126.525377,9.13394185 L124.823454,7.43166985 L118.290266,7.43166985 L116.588343,9.13394185 L116.588343,20.3359899 L118.290266,22.0382619 L124.823454,22.0382619 Z M147.113154,18.3042459 L147.113154,24.3445659 L144.477918,24.3445659 L144.477918,18.9631899 L142.199538,16.5196059 L135.638899,16.5196059 L135.638899,24.3445659 L133.003664,24.3445659 L133.003664,5.12536585 L144.340666,5.12536585 L147.003352,7.78859785 L147.003352,13.7740059 L144.889674,15.8881179 L147.113154,18.3042459 Z M135.638899,14.2682139 L143.1603,14.2682139 L144.395567,13.0601499 L144.395567,8.58482185 L143.1603,7.37675785 L135.638899,7.37675785 L135.638899,14.2682139 Z M156.336478,5.12536585 L158.971713,5.12536585 L165.889206,24.3445659 L163.17162,24.3445659 L161.469697,19.4573979 L153.865944,19.4573979 L152.164022,24.3445659 L149.446435,24.3445659 L156.336478,5.12536585 Z M160.783437,17.2334619 L157.681546,8.25534985 L157.626645,8.25534985 L154.579654,17.2334619 L160.783437,17.2334619 Z" id="Certora" fill="#FFFFFF" fill-rule="nonzero"></path>
                    <g id="Group" transform="translate(0.000000, -0.000000)" stroke="#FFFFFF" stroke-width="1.44">
                        <g id="Group-4">
                            <polygon id="Polygon-Copy" fill-rule="nonzero" points="30.1315032 0 30.1315032 26.5126829 15.0657516 35.2053659 0 26.5126829 0 0"></polygon>
                            <line x1="0.370885512" y1="9.29108895" x2="29.9028093" y2="26.4373827" id="Path-3"></line>
                            <line x1="0.370886376" y1="9.29108895" x2="29.9028101" y2="26.4373827" id="Path-3-Copy" transform="translate(15.136848, 17.864236) scale(-1, 1) translate(-15.136848, -17.864236) "></line>
                            <line x1="15.1368483" y1="0.810017272" x2="15.1368483" y2="34.7187197" id="Path-3-Copy-2" transform="translate(15.136848, 17.764368) scale(-1, 1) translate(-15.136848, -17.764368) "></line>
                            <line x1="0.310972976" y1="0.605759653" x2="15.0746688" y2="26.3582333" id="Path-3-Copy-3" transform="translate(7.692821, 13.481996) scale(-1, 1) translate(-7.692821, -13.481996) "></line>
                            <line x1="15.0186606" y1="0.416063213" x2="29.9238142" y2="26.3582333" id="Path-3-Copy-4"></line>
                            <polygon id="Polygon-Copy-3" points="15.0657516 0.434634147 30.1315032 9.12731703 30.1315032 26.5126829 15.0657516 35.2053659 0 26.5126829 0 9.12731703"></polygon>
                        </g>
                    </g>
                </g>
            </g>
        </g>
    </g>
</svg>