<?xml version="1.0" encoding="UTF-8"?>
<svg width="386px" height="150px" viewBox="0 0 386 150" version="1.1" xmlns="http://www.w3.org/2000/svg" xmlns:xlink="http://www.w3.org/1999/xlink">
    <title>2</title>
    <g id="2022---新官网" stroke="none" stroke-width="1" fill="none" fill-rule="evenodd">
        <g id="编组-8" transform="translate(-406.000000, 0.000000)" fill="#FFFFFF">
            <g id="2" transform="translate(406.000000, 0.000000)">
                <path d="M10,0 L376,0 C381.522847,-1.01453063e-15 386,4.4771525 386,10 L386,140 C386,145.522847 381.522847,150 376,150 L10,150 C4.4771525,150 6.76353751e-16,145.522847 0,140 L0,10 C-6.76353751e-16,4.4771525 4.4771525,1.01453063e-15 10,0 Z" id="矩形备份-2" opacity="0.05"></path>
                <path d="M130.79269,53 C142.831516,53 152.595446,62.7538646 152.595446,74.7926902 C152.595446,86.8315159 142.82145,96.5954464 130.79269,96.5954464 C118.76393,96.5954464 109,86.82145 109,74.7926902 C109,62.7639305 118.76393,53 130.79269,53 Z M203.20683,74.6215698 C205.662912,74.6215698 207.132534,75.688556 207.998203,77.218574 L207.998203,75.2758538 C207.998203,75.1291791 208.101738,75.0046906 208.23908,74.9721158 L208.310246,74.9638107 L208.310246,74.9638107 L211.843379,74.9638107 C211.990054,74.9638107 212.114542,75.0673457 212.147117,75.2046881 L212.155422,75.2758538 L212.155422,75.2758538 L212.155422,88.8748951 C212.125225,93.3441582 209.155782,95.6291192 204.193289,95.6291192 C199.512642,95.6291192 197.278011,93.6562013 196.744518,90.747154 C196.71432,90.5760336 196.825045,90.414979 196.996165,90.3847813 C197.026363,90.3747154 197.046495,90.3747154 197.066627,90.3747154 L200.609826,90.3747154 C200.750749,90.3747154 200.87154,90.4653086 200.911803,90.6062313 C201.233913,91.8040743 202.20024,92.5690833 204.203355,92.5690833 C206.739964,92.5690833 208.008268,91.2403835 208.008268,88.8748951 L208.008268,86.6 C207.001678,88.3212702 205.159617,89.3882564 203.156501,89.3983223 C199.49251,89.3983223 196.573397,86.6603954 196.573397,82.1810665 L196.573397,81.9797484 C196.573397,77.651408 199.462313,74.6215698 203.20683,74.6215698 Z M253.576633,74.6215698 C256.968844,74.6215698 260.119473,76.0710605 260.6429,80.1276213 C260.663032,80.2987418 260.542241,80.4597963 260.37112,80.4799281 L256.97891,80.4799281 C256.837987,80.4799281 256.70713,80.379269 256.676932,80.2383463 C256.334691,78.6479329 255.287837,77.9131216 253.667226,77.9131216 C251.503056,77.9131216 250.063631,79.5337328 250.063631,82.4125824 L250.063631,82.6440983 C250.063631,85.6739365 251.422528,87.2341522 253.757819,87.2341522 C255.358298,87.2341522 256.666866,86.3382864 256.958778,84.5767525 C256.97891,84.4257639 257.109766,84.3251049 257.260755,84.3251049 L260.431516,84.3251049 C260.602636,84.3251049 260.743559,84.4660276 260.743559,84.637148 L260.743559,84.6673457 L260.743559,84.6673457 C260.37112,88.0595566 257.804314,90.3847813 253.556501,90.3847813 C249.137567,90.3747154 245.78562,87.6367885 245.78562,82.7044937 L245.78562,82.4729778 C245.78562,77.6010785 249.27849,74.6215698 253.576633,74.6215698 Z M221.405992,74.6215698 C225.301498,74.6215698 228.76417,76.8964649 228.76417,82.3018574 L228.76417,83.1473936 C228.76417,83.2940683 228.660635,83.4185569 228.523293,83.4511317 L228.452127,83.4594368 L228.452127,83.4594368 L217.882924,83.4594368 C218.003715,85.9658478 219.352546,87.4153385 221.637507,87.4153385 C223.449371,87.4153385 224.405632,86.6805273 224.727741,85.5330138 C224.768005,85.402157 224.888796,85.3115638 225.019652,85.3115638 L228.361534,85.3115638 C228.532654,85.3115638 228.673577,85.4524865 228.673577,85.623607 C228.673577,85.6437388 228.673577,85.6638706 228.663511,85.6840024 C228.039425,88.7037747 225.482684,90.3847813 221.516717,90.3847813 C216.95686,90.3747154 213.645177,87.5159976 213.645177,82.7044937 L213.645177,82.4729778 C213.645177,77.7118035 217.017256,74.6215698 221.405992,74.6215698 Z M269.561294,74.6215698 C273.4568,74.6215698 276.919473,76.8964649 276.919473,82.3018574 L276.919473,83.1473936 C276.919473,83.3185141 276.77855,83.4594368 276.60743,83.4594368 L266.038226,83.4594368 C266.159017,85.9658478 267.507849,87.4153385 269.79281,87.4153385 C271.604673,87.4153385 272.560935,86.6805273 272.883044,85.5330138 C272.923307,85.402157 273.044098,85.3014979 273.185021,85.3115638 L276.526902,85.3115638 C276.698023,85.3115638 276.838945,85.4524865 276.838945,85.623607 C276.838945,85.6437388 276.838945,85.6638706 276.82888,85.6840024 C276.204793,88.7037747 273.648053,90.3847813 269.682085,90.3847813 C265.122229,90.3747154 261.800479,87.5159976 261.800479,82.7044937 L261.800479,82.4729778 C261.800479,77.7118035 265.172558,74.6215698 269.561294,74.6215698 Z M239.373637,74.6215698 C242.34308,74.6215698 244.45692,76.4133014 244.45692,80.4497304 L244.45692,89.7506291 C244.45692,89.8973038 244.353385,90.0217923 244.216043,90.0543672 L244.144877,90.0626723 L244.144877,90.0626723 L240.581546,90.0626723 C240.434871,90.0626723 240.310383,89.9591372 240.277808,89.8217948 L240.269503,89.7506291 L240.269503,89.7506291 L240.269503,81.0637507 C240.269503,79.0103056 239.46423,78.0339125 237.612103,78.0339125 C235.820371,78.0339125 234.47154,79.1310965 234.47154,81.3556621 L234.47154,89.760695 C234.47154,89.9318155 234.330617,90.0727382 234.159497,90.0727382 L230.596165,90.0727382 C230.449491,90.0727382 230.325002,89.9692031 230.292427,89.8318607 L230.284122,89.760695 L230.284122,89.760695 L230.284122,75.2758538 C230.284122,75.1047334 230.425045,74.9638107 230.596165,74.9638107 L234.159497,74.9638107 C234.330617,74.9638107 234.47154,75.1047334 234.47154,75.2758538 L234.47154,77.3594967 C235.216417,75.8596765 236.867226,74.6215698 239.373637,74.6215698 Z M163.688077,69.4275614 C170.93553,69.4275614 174.508928,73.3532654 174.508928,79.5236669 L174.508928,79.7551827 C174.508928,85.9356501 170.905333,90.0626723 163.657879,90.0626723 L157.245896,90.0626723 C157.099221,90.0626723 156.974733,89.9591372 156.942158,89.8217948 L156.933853,89.7506291 L156.933853,89.7506291 L156.933853,69.7396046 C156.933853,69.5684841 157.074775,69.4275614 157.245896,69.4275614 L163.688077,69.4275614 Z M180.115638,74.9638107 C180.262313,74.9638107 180.386801,75.0673457 180.419376,75.2046881 L180.427681,75.2758538 L180.427681,75.2758538 L180.427681,89.7506291 C180.427681,89.8973038 180.324146,90.0217923 180.186804,90.0543672 L180.115638,90.0626723 L180.115638,90.0626723 L176.582504,90.0626723 C176.43583,90.0626723 176.311341,89.9591372 176.278766,89.8217948 L176.270461,89.7506291 L176.270461,89.7506291 L176.270461,75.2758538 C176.270461,75.1047334 176.411384,74.9638107 176.582504,74.9638107 L180.115638,74.9638107 Z M187.212103,68.1290593 C187.358778,68.1290593 187.483266,68.2325944 187.515841,68.3699368 L187.524146,68.4411025 L187.524146,89.7506291 C187.524146,89.8973038 187.420611,90.0217923 187.283269,90.0543672 L187.212103,90.0626723 L187.212103,90.0626723 L183.678969,90.0626723 C183.532295,90.0626723 183.407806,89.9591372 183.375231,89.8217948 L183.366926,89.7506291 L183.366926,89.7506291 L183.366926,68.4411025 C183.366926,68.269982 183.507849,68.1290593 183.678969,68.1290593 L187.212103,68.1290593 Z M194.27837,74.9638107 C194.425045,74.9638107 194.549534,75.0673457 194.582108,75.2046881 L194.590413,75.2758538 L194.590413,75.2758538 L194.590413,89.7506291 C194.590413,89.8973038 194.486878,90.0217923 194.349536,90.0543672 L194.27837,90.0626723 L194.27837,90.0626723 L190.745237,90.0626723 C190.598562,90.0626723 190.474073,89.9591372 190.441499,89.8217948 L190.433194,89.7506291 L190.433194,89.7506291 L190.433194,75.2758538 C190.443259,75.1047334 190.574116,74.9638107 190.745237,74.9638107 L194.27837,74.9638107 Z M141.029718,70.0516477 L136.781905,70.0516477 C136.67118,70.0516477 136.580587,70.1422409 136.580587,70.2529658 L136.580587,70.2529658 L136.580587,86.7308568 C136.580587,86.8415818 136.67118,86.932175 136.781905,86.932175 L136.781905,86.932175 L141.019652,86.932175 C141.130377,86.932175 141.220971,86.8415818 141.220971,86.7308568 L141.220971,86.7308568 L141.231037,86.7308568 L141.231037,70.2529658 C141.231037,70.1422409 141.140443,70.0516477 141.029718,70.0516477 L141.029718,70.0516477 Z M124.924266,70.0516477 L120.676453,70.0516477 C120.565728,70.0516477 120.475135,70.1422409 120.475135,70.2529658 L120.475135,70.2529658 L120.475135,86.7308568 C120.475135,86.8415818 120.565728,86.932175 120.676453,86.932175 L120.676453,86.932175 L124.924266,86.932175 C125.034991,86.932175 125.125584,86.8415818 125.125584,86.7308568 L125.125584,86.7308568 L125.125584,70.2529658 C125.125584,70.1422409 125.034991,70.0516477 124.924266,70.0516477 L124.924266,70.0516477 Z M132.976992,62.6632714 L128.729179,62.6632714 C128.618454,62.6632714 128.527861,62.7538646 128.527861,62.8645896 L128.527861,62.8645896 L128.527861,86.7207909 C128.527861,86.8315159 128.618454,86.922109 128.729179,86.922109 L128.729179,86.922109 L132.976992,86.922109 C133.087717,86.922109 133.17831,86.8315159 133.17831,86.7207909 L133.17831,86.7207909 L133.17831,62.8645896 C133.17831,62.7538646 133.087717,62.6632714 132.976992,62.6632714 L132.976992,62.6632714 Z M163.466627,73.0613541 L161.6145,73.0613541 L161.6145,86.4188137 L163.516956,86.4188137 C167.674176,86.4188137 169.637028,84.0835231 169.637028,79.8155782 L169.637028,79.5840623 C169.637028,75.3463152 167.815099,73.0613541 163.466627,73.0613541 Z M204.495267,77.7923307 C202.159976,77.7923307 200.861474,79.4632714 200.861474,81.9495506 L200.861474,82.1810665 C200.861474,84.6874775 202.331096,86.2476932 204.414739,86.2476932 C206.599041,86.2476932 208.129059,84.6874775 208.129059,82.1206711 L208.129059,81.9193529 C208.129059,79.3525464 206.770162,77.7923307 204.495267,77.7923307 Z M269.561294,77.5104853 C267.689035,77.5104853 266.420731,78.748592 266.098622,80.8825644 L272.852846,80.8825644 C272.711923,78.6076693 271.554344,77.5104853 269.561294,77.5104853 Z M221.395926,77.5104853 C219.523667,77.5104853 218.255362,78.748592 217.933253,80.8825644 L224.687478,80.8825644 C224.546555,78.6076693 223.388975,77.5104853 221.395926,77.5104853 Z M192.486639,68.3605752 C193.845536,68.3605752 194.882325,69.3470342 194.882325,70.6354703 C194.882325,71.9239065 193.845536,72.9103655 192.486639,72.9103655 C191.157939,72.9204314 190.12115,71.9339724 190.12115,70.6354703 C190.12115,69.3369682 191.157939,68.3605752 192.486639,68.3605752 Z M178.323907,68.3605752 C179.682804,68.3605752 180.719593,69.3470342 180.719593,70.6354703 C180.719593,71.9239065 179.682804,72.9103655 178.323907,72.9103655 C176.995207,72.9204314 175.958418,71.9339724 175.958418,70.6354703 C175.958418,69.3369682 176.995207,68.3605752 178.323907,68.3605752 Z M141.251168,62.6632714 L136.560455,62.6632714 C136.44973,62.6632714 136.359137,62.7538646 136.359137,62.8645896 L136.359137,62.8645896 L136.359137,67.5653685 C136.359137,67.6760935 136.44973,67.7666866 136.560455,67.7666866 L136.560455,67.7666866 L141.251168,67.7666866 C141.361893,67.7666866 141.452487,67.6760935 141.452487,67.5653685 L141.452487,67.5653685 L141.452487,62.8645896 C141.452487,62.7538646 141.361893,62.6632714 141.251168,62.6632714 L141.251168,62.6632714 Z M122.790294,62.6632714 C121.310605,62.6632714 120.14296,63.7604554 120.14296,65.2099461 C120.14296,66.6594368 121.310605,67.7566207 122.790294,67.7566207 C124.310246,67.7566207 125.467825,66.6594368 125.467825,65.2099461 C125.467825,63.7604554 124.310246,62.6632714 122.790294,62.6632714 Z M177.065668,59.8045536 C178.233313,59.8045536 178.937927,60.3380467 179.038586,61.3748352 L178.112522,61.3748352 C178.011863,60.8010785 177.689754,60.5594967 177.065668,60.5594967 C176.441582,60.5594967 176.129539,60.851408 176.129539,61.2741762 C176.129539,61.7170761 176.310725,61.9385261 177.25692,62.0693829 C178.535291,62.2405033 179.199641,62.6129419 179.199641,63.7000599 C179.199641,64.6462552 178.404434,65.3810665 177.196525,65.3810665 C175.696705,65.3810665 175.072618,64.6462552 175.002157,63.6195327 L175.97855,63.6195327 C176.049011,64.1630917 176.270461,64.6261234 177.186459,64.6261234 C177.790413,64.6261234 178.213182,64.2939485 178.213182,63.7906531 C178.213182,63.2873577 177.961534,63.0961055 177.0858,62.9551827 C175.787298,62.7840623 175.173277,62.381426 175.173277,61.3647693 C175.173277,60.4789694 175.92822,59.8045536 177.065668,59.8045536 Z M159.158418,59.7844218 C160.406591,59.7844218 161.372918,60.4085081 161.493709,61.6868784 L160.466986,61.6868784 C160.356261,60.962133 159.953625,60.5896944 159.168484,60.5896944 C158.212223,60.5896944 157.588137,61.3345716 157.588137,62.5525464 L157.588137,62.6129419 C157.588137,63.8409826 158.171959,64.5556621 159.17855,64.5556621 C159.933493,64.5556621 160.466986,64.1731576 160.567645,63.4081486 L161.554104,63.4081486 C161.39305,64.7167166 160.466986,65.3810665 159.17855,65.3810665 C157.477412,65.3810665 156.52115,64.2939485 156.52115,62.6230078 L156.52115,62.5626123 C156.52115,60.9319353 157.648532,59.7844218 159.158418,59.7844218 Z M193.090593,59.8045536 C194.258238,59.8045536 194.962852,60.3380467 195.063511,61.3748352 L194.137448,61.3748352 C194.036788,60.8010785 193.714679,60.5594967 193.090593,60.5594967 C192.466507,60.5594967 192.154464,60.851408 192.154464,61.2741762 C192.154464,61.7170761 192.33565,61.9385261 193.281845,62.0693829 C194.560216,62.2405033 195.2145,62.6129419 195.2145,63.7000599 C195.2145,64.6462552 194.419293,65.3810665 193.22145,65.3810665 C191.72163,65.3810665 191.097543,64.6462552 191.027082,63.6195327 L192.003475,63.6195327 C192.073936,64.1630917 192.295386,64.6261234 193.211384,64.6261234 C193.815339,64.6261234 194.238107,64.2939485 194.238107,63.7906531 C194.238107,63.2873577 193.986459,63.0961055 193.110725,62.9551827 C191.812223,62.7840623 191.198203,62.381426 191.198203,61.3647693 C191.198203,60.4789694 191.953146,59.8045536 193.090593,59.8045536 Z M202.914919,59.8045536 C204.082564,59.8045536 204.787178,60.3380467 204.887837,61.3748352 L203.961774,61.3748352 C203.861114,60.8010785 203.539005,60.5594967 202.914919,60.5594967 C202.290833,60.5594967 201.97879,60.851408 201.97879,61.2741762 C201.97879,61.7170761 202.159976,61.9385261 203.106171,62.0693829 C204.384542,62.2405033 205.048892,62.6129419 205.048892,63.7000599 C205.048892,64.6462552 204.253685,65.3810665 203.045776,65.3810665 C201.556022,65.3810665 200.931935,64.6462552 200.851408,63.6195327 L201.827801,63.6195327 C201.898262,64.1630917 202.119712,64.6261234 203.03571,64.6261234 C203.639664,64.6261234 204.062433,64.2939485 204.062433,63.7906531 C204.062433,63.2873577 203.810785,63.0961055 202.935051,62.9551827 C201.636549,62.7840623 201.022528,62.381426 201.022528,61.3647693 C201.022528,60.4789694 201.777472,59.8045536 202.914919,59.8045536 Z M165.318754,59.7944877 C166.929299,59.7944877 168.056681,60.9420012 168.056681,62.5324146 L168.056681,62.5928101 C168.056681,64.1832235 166.969563,65.3710006 165.318754,65.3710006 C163.657879,65.3810665 162.570761,64.1932894 162.570761,62.6230078 L162.570761,62.5626123 C162.570761,60.9721989 163.708209,59.7944877 165.318754,59.7944877 Z M170.502696,59.875015 L172.787657,63.800719 L172.787657,59.875015 L173.703655,59.875015 L173.703655,65.3106052 L172.6568,65.3106052 L170.210785,61.1433194 L170.210785,65.3106052 L169.294787,65.3106052 L169.294787,59.875015 L170.502696,59.875015 Z M183.900419,59.875015 L183.900419,60.6702217 L181.514799,60.6702217 L181.514799,62.159976 L183.427322,62.159976 L183.427322,62.924985 L181.514799,62.924985 L181.514799,64.5153984 L184.031276,64.5153984 L184.031276,65.3106052 L180.508209,65.3106052 L180.498143,59.875015 L183.900419,59.875015 Z M186.527621,59.875015 L188.812582,63.800719 L188.812582,59.875015 L189.72858,59.875015 L189.72858,65.3106052 L188.681726,65.3106052 L186.23571,61.1433194 L186.23571,65.3106052 L185.319712,65.3106052 L185.319712,59.875015 L186.527621,59.875015 Z M196.88544,59.875015 L198.113481,62.1197124 L199.301258,59.875015 L200.287717,59.875015 L198.586579,62.9551827 L198.586579,65.3005392 L197.569922,65.3005392 L197.569922,62.9551827 L195.768125,59.875015 L196.88544,59.875015 Z M165.318754,60.6098262 C164.251768,60.6098262 163.627681,61.394967 163.627681,62.5626123 L163.627681,62.6230078 C163.627681,63.8107849 164.352427,64.5757939 165.338886,64.5757939 C166.365608,64.565728 167.009826,63.7906531 167.009826,62.6129419 L167.009826,62.5525464 C167.009826,61.4352307 166.38574,60.6098262 165.318754,60.6098262 Z" fill-rule="nonzero"></path>
            </g>
        </g>
    </g>
</svg>