<?xml version="1.0" encoding="UTF-8"?>
<svg width="386px" height="150px" viewBox="0 0 386 150" version="1.1" xmlns="http://www.w3.org/2000/svg" xmlns:xlink="http://www.w3.org/1999/xlink">
    <title>6</title>
    <g id="2022---新官网" stroke="none" stroke-width="1" fill="none" fill-rule="evenodd">
        <g id="编组-8" transform="translate(-814.000000, -170.000000)" fill="#FFFFFF">
            <g id="6" transform="translate(814.000000, 170.000000)">
                <path d="M10,0 L376,0 C381.522847,-1.01453063e-15 386,4.4771525 386,10 L386,140 C386,145.522847 381.522847,150 376,150 L10,150 C4.4771525,150 6.76353751e-16,145.522847 0,140 L0,10 C-6.76353751e-16,4.4771525 4.4771525,1.01453063e-15 10,0 Z" id="矩形备份-15" opacity="0.05"></path>
                <path d="M111.31265,57.8809458 C116.466028,55.405201 121.570077,55.3608797 126.767114,57.8224189 C128.709057,58.7423709 130.847178,59.2503617 132.857727,60.040759 C133.58064,60.3248702 134.190722,60.8868421 135.245892,61.5806416 C133.920834,62.5403692 132.972259,63.22735 131.843381,64.045022 C131.360305,63.4057718 130.945835,62.8585737 130.235395,61.9193021 C128.339946,63.7603426 126.299913,65.4093238 124.697598,67.4020796 C123.41223,69.0010574 122.325876,69.1766381 120.678768,68.1759985 C117.923761,66.5031519 115.448846,66.2258594 113.458142,69.4726819 C112.947284,70.3062641 111.630165,70.6579938 110.155989,71.5506711 C111.614856,71.3961146 112.484619,71.3654306 113.327734,71.2017826 C115.064994,70.8642585 116.010734,71.604084 116.445049,73.2195401 C117.284762,76.3447631 119.080422,78.4346849 122.44948,79.2267869 C123.380479,79.4455525 124.050661,80.7501911 125.19088,81.9139104 C129.142804,80.7723517 129.476762,80.1615127 127.877848,75.565162 C129.001624,75.1730886 130.154883,74.836701 131.250876,74.3696222 C132.355373,73.8991341 133.403739,73.2985231 134.656788,72.6643869 C134.727662,76.357264 134.218505,79.6097688 131.563287,82.1355172 C127.563168,85.9403341 123.513154,89.694011 118.918262,94 C114.176519,89.2706853 109.458023,85.007313 105.356413,80.22629 C104.447872,79.1675436 104.165138,77.5604195 103.957739,75.9181255 L103.877493,75.2605486 C103.798655,74.6035289 103.720127,73.9518305 103.60668,73.3382986 C103.273856,71.5393066 103.192777,69.6948569 103,67.8708631 L103,67.8708631 L103,61.7073552 C105.772017,60.4345371 108.563879,59.2014946 111.31265,57.8809458 Z M194.384943,65.2255039 L194.384943,74.8460766 C197.328758,71.6157325 199.952224,69.3758 204.58794,71.062284 C202.518991,72.4129485 200.666065,73.6226939 198.791594,74.8460766 C201.003992,78.0451685 202.508785,80.2197555 204.013011,82.3949107 C203.869562,82.702319 203.726114,83.009159 203.582665,83.3165673 C203.156146,83.1932631 202.711661,83.0940017 202.263889,82.999153 L201.591601,82.8577356 C200.473129,82.6193763 199.379989,82.347251 198.541551,81.7346363 C197.038459,80.6368307 196.126171,78.7497642 194.5437,76.6604106 C194.399685,79.0810379 194.294224,80.857301 194.180259,82.7710739 L189.932365,82.7710739 L189.932365,65.2255039 L194.384943,65.2255039 Z M260.974251,70.8437456 L260.974251,78.5681604 C258.712526,78.5681604 256.406008,78.4692897 254.118768,78.6295284 C253.44575,78.6766909 252.825462,79.4579966 252.181361,79.9029147 C252.806184,80.2762368 253.414565,80.9353747 254.059801,80.971741 C256.381627,81.1024321 258.715928,81.022881 261.045125,81.022881 C261.154554,81.2751717 261.264551,81.5268942 261.374547,81.7791849 C260.792814,82.2792206 260.225257,83.1934904 259.627082,83.2133782 C255.702372,83.3435011 251.770292,83.2804284 247.6993,83.2804284 L247.6993,70.8437456 L260.974251,70.8437456 Z M284,65.6298509 L284,83.2004227 L284,83.2004227 L270.37059,83.2004227 L270.37059,70.9381842 L279.263838,70.9381842 L279.263838,65.6298509 L279.263838,65.6298509 L284,65.6298509 Z M268.304476,65.6451929 L268.304476,83.1293949 L263.769118,83.1293949 L263.769118,65.6451929 L268.304476,65.6451929 Z M223.019955,65.3477854 L223.470145,66.1404555 C222.672956,66.6188988 221.896746,67.4649819 221.074043,67.5104397 C218.079765,67.677497 215.069612,67.5763534 211.749882,67.5763534 L211.749882,72.8426383 L222.777283,72.8426383 L222.777283,83.0047269 C217.65112,83.0047269 212.687117,83.0325698 207.724815,82.9496093 C207.340396,82.9427907 206.969017,82.1546663 206.591401,81.7296359 C207.05123,81.3813156 207.496885,80.7557028 207.972023,80.7329739 C210.135092,80.628421 212.3061,80.694903 214.474272,80.6983124 C214.730126,80.6987385 214.985981,80.6989871 215.245556,80.6991203 L216.877426,80.6990315 C217.166769,80.6989516 217.467274,80.6988806 217.782662,80.6988806 L217.782662,75.2234899 L206.867525,75.2234899 L206.867525,65.3477854 L223.019955,65.3477854 Z M245.505783,70.8467004 L245.505783,82.9924533 L241.113306,82.9924533 L241.113306,70.8467004 L245.505783,70.8467004 Z M230.007491,65.5002394 C230.101044,67.1083087 230.195165,68.7237649 230.312532,70.7420907 L238.919449,70.7420907 L238.919449,82.975918 L234.545117,82.975918 L234.545117,73.1377161 L230.074396,73.1377161 L230.074396,82.9361425 L225.616715,82.9361425 L225.616715,65.5002394 L230.007491,65.5002394 Z M187.230598,70.5092331 C187.352501,70.8223237 187.473837,71.134846 187.595173,71.4479365 C185.435506,74.2964352 181.813003,71.7019319 179.052892,73.1094187 L179.052892,80.4866495 L187.124571,80.4866495 C187.260649,80.804854 187.396727,81.1230586 187.532804,81.4412631 C186.733915,81.9248203 185.953168,82.790223 185.134434,82.8265892 C181.659348,82.9828503 178.172923,82.8930712 174.409239,82.8930712 L174.409239,70.5092331 L187.230598,70.5092331 Z M171.642948,70.4192835 L171.642948,78.0431229 C169.316019,78.0431229 167.093416,77.9459569 164.888956,78.0982405 C164.168878,78.1482441 163.495293,78.8477258 162.800162,79.249459 C163.476582,79.6727846 164.130322,80.4109055 164.833391,80.4603408 C167.073571,80.6171702 169.331328,80.5182995 171.582847,80.5182995 L172.017729,81.2899455 C171.373061,81.7848671 170.742,82.6843631 170.079755,82.7076603 C166.224786,82.8434654 162.362446,82.7741423 158.285783,82.7741423 L158.285783,70.4192835 L171.642948,70.4192835 Z M156.193984,65.0979948 L156.193984,75.7362538 L145.993256,75.7362538 L145.993256,82.5066232 L141.298573,82.5066232 L141.298573,65.0979948 L156.193984,65.0979948 Z M279.20317,73.2559632 L275.100993,73.2559632 L275.100993,80.9087819 L279.20317,80.9087819 L279.20317,73.2559632 Z M256.382761,73.282556 L252.19837,73.282556 C252.260172,74.3286534 252.307799,75.1264376 252.362231,76.0469578 L256.510334,76.0469578 C256.461573,74.9860866 256.421884,74.1292073 256.382761,73.282556 Z M167.087179,72.7444494 L163.100101,72.7444494 L163.100101,75.5588548 L166.948266,75.5588548 C166.994192,74.6315159 167.032748,73.8445279 167.087179,72.7444494 Z M108.61831,71.8734214 C108.331413,71.8603523 108.057556,71.8404645 107.77236,71.8847858 C107.186092,71.9768379 106.526682,72.2217417 106.241485,72.8024649 C106.068553,73.155331 106.035668,73.7434412 106.34808,74.0303935 C106.612297,74.2730244 107.076096,74.2707515 107.401548,74.2019966 C108.235592,74.0269841 108.702792,73.1343068 109.026543,72.3990271 C109.097417,72.2376519 109.162054,72.071731 109.220454,71.9012643 C109.211382,71.928539 108.662536,71.8756943 108.61831,71.8734214 Z M151.168746,67.4135009 L146.224588,67.4135009 L146.224588,73.270737 L151.168746,73.270737 L151.168746,67.4135009 Z M245.637892,65.5781427 L245.637892,69.1062353 L241.294176,69.1062353 L241.294176,65.5781427 L245.637892,65.5781427 Z"></path>
            </g>
        </g>
    </g>
</svg>