<?xml version="1.0" encoding="UTF-8"?>
<svg width="90px" height="90px" viewBox="0 0 90 90" version="1.1" xmlns="http://www.w3.org/2000/svg" xmlns:xlink="http://www.w3.org/1999/xlink">
    <title>icon-2</title>
    <g id="2022---新官网" stroke="none" stroke-width="1" fill="none" fill-rule="evenodd">
        <g id="Web-3" transform="translate(-974.000000, -1576.000000)" fill-rule="nonzero">
            <g id="编组-8" transform="translate(359.000000, 1422.000000)">
                <g id="编组-17" transform="translate(0.000000, 154.000000)">
                    <g id="icon-2" transform="translate(615.000000, 0.000000)">
                        <rect id="矩形" fill="#A457FD" x="0" y="0" width="90" height="90" rx="20"></rect>
                        <g id="Lance---Freelance-Banking" transform="translate(25.000000, 25.000000)">
                            <path d="M29.35112,0 L10.66662,0 C3.85778,0 0,3.85777 0,10.66664 L0,29.33334 C0,36.14224 3.85778,40.00004 10.66662,40.00004 L29.35112,40.00004 C36.16002,40.00004 40.00002,36.14224 40.00002,29.33334 L40.00002,10.66664 C40.00002,3.85777 36.16002,0 29.35112,0" id="Fill-1" fill="#FFFFFF"></path>
                            <path d="M10.73962,14.73774 C9.83292,14.73774 9.08632,15.48444 9.08632,16.40894 L9.08632,30.15114 C9.08632,31.05774 9.83292,31.80444 10.73962,31.80444 C11.66402,31.80444 12.41072,31.05774 12.41072,30.15114 L12.41072,16.40894 C12.41072,15.48444 11.66402,14.73774 10.73962,14.73774" id="Fill-4" fill="#A457FD"></path>
                            <path d="M20.07182,8.17724 C19.16512,8.17724 18.41852,8.92394 18.41852,9.84834 L18.41852,30.15054 C18.41852,31.05724 19.16512,31.80394 20.07182,31.80394 C20.99622,31.80394 21.74292,31.05724 21.74292,30.15054 L21.74292,9.84834 C21.74292,8.92394 20.99622,8.17724 20.07182,8.17724" id="Fill-6" fill="#A457FD"></path>
                            <path d="M29.28112,21.99214 C28.35672,21.99214 27.61002,22.73884 27.61002,23.66334 L27.61002,30.15214 C27.61002,31.05884 28.35672,31.80554 29.26342,31.80554 C30.18782,31.80554 30.93452,31.05884 30.93452,30.15214 L30.93452,23.66334 C30.93452,22.73884 30.18782,21.99214 29.28112,21.99214" id="Fill-8" fill="#A457FD" opacity="0.4"></path>
                        </g>
                    </g>
                </g>
            </g>
        </g>
    </g>
</svg>