<?xml version="1.0" encoding="UTF-8"?>
<svg width="90px" height="90px" viewBox="0 0 90 90" version="1.1" xmlns="http://www.w3.org/2000/svg" xmlns:xlink="http://www.w3.org/1999/xlink">
    <title>icon-3</title>
    <g id="2022---新官网" stroke="none" stroke-width="1" fill="none" fill-rule="evenodd">
        <g id="Web-3" transform="translate(-359.000000, -1881.000000)">
            <g id="编组-8" transform="translate(359.000000, 1422.000000)">
                <g id="编组-17" transform="translate(0.000000, 154.000000)">
                    <g id="icon-3" transform="translate(0.000000, 305.000000)">
                        <rect id="矩形" fill="#356AFF" fill-rule="nonzero" x="0" y="0" width="90" height="90" rx="20"></rect>
                        <g id="Lance---Freelance-Banking" transform="translate(25.000000, 25.000000)" fill="#FFFFFF">
                            <path d="M26.48562,5.47488 C26.48562,9.91686 30.09182,13.51776 34.54032,13.51776 C35.03012,13.51536 35.51872,13.46836 36.00002,13.37736 L36.00002,29.32266 C36.00002,36.03096 32.04302,39.99976 25.32482,39.99976 L10.69272,39.99976 C3.95701,39.99976 0,36.03096 0,29.32266 L0,14.71196 C0,8.00366 3.95701,3.99976 10.69272,3.99976 L26.62632,3.99976 C26.53172,4.48577 26.48462,4.97979 26.48562,5.47488 Z M22.30042,25.79326 L28.01612,18.41766 L28.01612,18.38256 C28.50542,17.72496 28.38062,16.79786 27.73472,16.29276 C27.42212,16.05146 27.02492,15.94696 26.63382,16.00326 C26.24272,16.05946 25.89122,16.27166 25.65952,16.59126 L20.84072,22.79036 L15.35372,18.47036 C15.04042,18.22626 14.64192,18.11846 14.24812,18.17136 C13.85432,18.22426 13.49842,18.43326 13.26092,18.75126 L7.35172,26.37276 C7.14402,26.63166 7.03222,26.95426 7.03522,27.28596 C7.00092,27.95636 7.42422,28.56536 8.06522,28.76766 C8.70622,28.97006 9.40322,28.71466 9.76112,28.14646 L14.70302,21.75426 L20.19002,26.05666 C20.50212,26.30826 20.90322,26.42236 21.30132,26.37266 C21.69932,26.32296 22.06002,26.11386 22.30042,25.79326 Z" id="Path_34168"></path>
                            <path d="M35.00002,9.99996 C37.76142,9.99996 40.00002,7.76146 40.00002,5 C40.00002,2.23858 37.76142,0 35.00002,0 C32.23862,0 30.00002,2.23858 30.00002,5 C30.00002,7.76146 32.23862,9.99996 35.00002,9.99996 Z" id="Ellipse_742" fill-rule="nonzero" opacity="0.4"></path>
                        </g>
                    </g>
                </g>
            </g>
        </g>
    </g>
</svg>