<?xml version="1.0" encoding="UTF-8"?>
<svg width="90px" height="90px" viewBox="0 0 90 90" version="1.1" xmlns="http://www.w3.org/2000/svg" xmlns:xlink="http://www.w3.org/1999/xlink">
    <title>icon-1</title>
    <g id="2022---新官网" stroke="none" stroke-width="1" fill="none" fill-rule="evenodd">
        <g id="Web-3" transform="translate(-360.000000, -1576.000000)">
            <g id="编组-8" transform="translate(359.000000, 1422.000000)">
                <g id="编组-17" transform="translate(0.000000, 154.000000)">
                    <g id="icon-1" transform="translate(1.000000, 0.000000)">
                        <rect id="矩形" fill="#FF913D" fill-rule="nonzero" x="0" y="0" width="90" height="90" rx="20"></rect>
                        <g id="Lance---Freelance-Banking" transform="translate(25.000000, 27.000000)" fill="#FFFFFF">
                            <path d="M39.9929,10.7503 L31.5236,10.7503 C27.5822,10.7572 24.3893,13.8703 24.3822,17.7131 C24.3769,21.5646 27.5733,24.6916 31.5236,24.6968 L40,24.6968 L40,25.3087 C40,32.0272 35.9271,36 29.0347,36 L10.9671,36 C4.07289,36 0,32.0272 0,25.3087 L0,10.6757 C0,3.95724 4.07289,0 10.9671,0 L29.0276,0 C35.92,0 39.9929,3.95724 39.9929,10.6757 L39.9929,10.7503 Z M9.4786,10.7348 L20.7586,10.7348 L20.7658,10.7348 L20.78,10.7348 C21.6244,10.7314 22.3071,10.0606 22.3035142,9.2355 C22.3,8.4122 21.6102,7.7465 20.7658,7.74998626 L9.4786,7.74998626 C8.6395,7.7535 7.9586,8.4174 7.95508583,9.2372 C7.9515,10.0606 8.6342,10.7314 9.4786,10.7348 Z" id="Fill-1"></path>
                            <path d="M28.0748,18.5941 C28.4931,20.4965 30.161,21.8349 32.0652,21.8001 L38.565,21.8001 C39.3573,21.8001 39.9999951,21.1439 39.9999951,20.3329 L39.9999951,15.2698 C39.9983,14.4604 39.3573,13.8025 38.565,13.8008 L31.9122,13.8008 C29.7461,13.8077 27.9966,15.6057 27.9999951,17.8213 C27.9999951,18.0807 28.0255,18.34 28.0748,18.5941" id="Fill-4" fill-rule="nonzero" opacity="0.4"></path>
                            <path d="M32,19.8008 C33.1046,19.8008 34,18.9054 34,17.8008 C34,16.6962 33.1046,15.8008 32,15.8008 C30.8954,15.8008 30,16.6962 30,17.8008 C30,18.9054 30.8954,19.8008 32,19.8008 Z" id="Oval" fill-rule="nonzero"></path>
                        </g>
                    </g>
                </g>
            </g>
        </g>
    </g>
</svg>