<?xml version="1.0" encoding="UTF-8"?>
<svg width="90px" height="90px" viewBox="0 0 90 90" version="1.1" xmlns="http://www.w3.org/2000/svg" xmlns:xlink="http://www.w3.org/1999/xlink">
    <title>icon-4</title>
    <g id="2022---新官网" stroke="none" stroke-width="1" fill="none" fill-rule="evenodd">
        <g id="Web-3" transform="translate(-974.000000, -1881.000000)" fill-rule="nonzero">
            <g id="编组-8" transform="translate(359.000000, 1422.000000)">
                <g id="编组-17" transform="translate(0.000000, 154.000000)">
                    <g id="icon-4" transform="translate(615.000000, 305.000000)">
                        <rect id="矩形" fill="#31B268" x="0" y="0" width="90" height="90" rx="20"></rect>
                        <g id="Lance---Freelance-Banking" transform="translate(25.000000, 25.000000)" fill="#FFFFFF">
                            <path d="M16.3054791,7.11048852 C16.4073791,7.31778852 16.4746791,7.53978852 16.5047791,7.76808852 L17.0616791,16.0478885 L17.0616791,16.0478885 L17.3380791,20.2095885 C17.3408791,20.6374885 17.4080791,21.0626885 17.5373791,21.4714885 C17.8711791,22.2644885 18.6742791,22.7684885 19.5480791,22.7333885 L32.8626791,21.8624885 C33.4391791,21.8529885 33.9959791,22.0685885 34.4104791,22.4619885 C34.7558791,22.7896885 34.9788791,23.2184885 35.0490791,23.6796885 L35.0726791,23.9597885 C34.5217791,31.5891885 28.9182791,37.9526885 21.3046791,39.5953885 C13.6910791,41.2380885 5.88372906,37.7679885 2.12141906,31.0691885 C1.03677906,29.1229885 0.35929906,26.9838885 0.12876906,24.7773885 C0.0324590603,24.1241885 -0.00995093974,23.4643885 0.00195906026,22.8044885 C-0.00993093974,14.6248885 5.81493906,7.55328852 13.9686791,5.84851852 C14.9499791,5.69571852 15.9120791,6.21518852 16.3054791,7.11048852 Z" id="Path"></path>
                            <path d="M21.7403791,0.00163851825 C30.8601791,0.233648518 38.5249791,6.79158852 40.0003791,15.6245885 L39.9862791,15.6897885 L39.9862791,15.6897885 L39.9460791,15.7845885 L39.9516791,16.0446885 C39.9307791,16.3893885 39.7976791,16.7210885 39.5683791,16.9889885 C39.3293791,17.2679885 39.0029791,17.4580885 38.6435791,17.5317885 L38.4243791,17.5618885 L23.0627791,18.5571885 C22.5518791,18.6075885 22.0430791,18.4428885 21.6630791,18.1038885 C21.3464791,17.8214885 21.1439791,17.4401885 21.0867791,17.0293885 L20.0556791,1.69012852 C20.0377791,1.63825852 20.0377791,1.58202852 20.0556791,1.53015852 C20.0697791,1.10734852 20.2558791,0.707678518 20.5724791,0.420458518 C20.8890791,0.133238518 21.3096791,-0.0176014818 21.7403791,0.00163851825 Z" id="Path_2" opacity="0.4"></path>
                        </g>
                    </g>
                </g>
            </g>
        </g>
    </g>
</svg>