<?xml version="1.0" encoding="UTF-8"?>
<svg width="80px" height="80px" viewBox="0 0 80 80" version="1.1" xmlns="http://www.w3.org/2000/svg" xmlns:xlink="http://www.w3.org/1999/xlink">
    <title>icon-2</title>
    <g id="2022---新官网" stroke="none" stroke-width="1" fill="none" fill-rule="evenodd">
        <g id="Web-3" transform="translate(-378.000000, -2000.000000)" fill-rule="nonzero">
            <g id="编组-8" transform="translate(359.000000, 1422.000000)">
                <g id="编组-17" transform="translate(0.000000, 154.000000)">
                    <g id="编组备份-5" transform="translate(0.000000, 404.000000)">
                        <g id="icon-2" transform="translate(19.000000, 20.000000)">
                            <rect id="矩形" fill="#F74444" x="0" y="0" width="80" height="80" rx="20"></rect>
                            <g id="编组" transform="translate(22.000000, 22.000000)" fill="#FFFFFF">
                                <path d="M30.3661368,32.484375 L6.03373384,32.484375 C5.06394825,32.484375 4.27846581,33.2709961 4.27846581,34.2421875 C4.27846581,35.2133789 5.06394825,36 6.03373384,36 L30.3661368,36 C31.3359224,36 32.1214049,35.2133789 32.1214049,34.2421875 C32.1214049,33.2709961 31.3359224,32.484375 30.3661368,32.484375 Z" id="形状"></path>
                                <path d="M21.6336784,16.9057617 C24.4816008,14.0537109 28.7863956,13.5395508 32.1565102,15.3720703 L32.1565102,1.83691406 C32.1565102,0.826171875 31.3315343,0 30.3222551,0 L1.83425509,0 C0.824975972,0 0,0.826171875 0,1.83691406 L0,27.3032227 C0,28.3139648 0.824975972,29.1401367 1.83425509,29.1401367 L21.3001775,29.1401367 C18.1670241,25.6464844 18.2767283,20.2631836 21.6336784,16.9057617 L21.6336784,16.9057617 Z M14.7266987,15.2578125 C14.7266987,16.2290039 13.9412163,17.015625 12.9714307,17.015625 L6.08639188,17.015625 C5.11660629,17.015625 4.33112385,16.2290039 4.33112385,15.2578125 C4.33112385,14.2866211 5.11660629,13.5 6.08639188,13.5 L12.9714307,13.5 C13.9412163,13.5 14.7266987,14.2866211 14.7266987,15.2578125 Z M17.7852533,6.78955078 C17.7852533,7.76074219 16.9997708,8.54736328 16.0299852,8.54736328 L6.08639188,8.54736328 C5.11660629,8.54736328 4.33112385,7.76074219 4.33112385,6.78955078 C4.33112385,5.81835938 5.11660629,5.03173828 6.08639188,5.03173828 L16.0299852,5.03173828 C16.9997708,5.03173828 17.7852533,5.81835938 17.7852533,6.78955078 L17.7852533,6.78955078 Z" id="形状"></path>
                                <path d="M35.4827431,28.2875977 L33.0297561,25.8310547 C34.1750685,23.6293945 33.8240149,20.8476563 31.9765953,19.0019531 C30.0501886,17.0727539 27.1057265,16.7739258 24.8677598,18.1098633 L28.4967764,21.7441406 C28.667915,21.9155273 28.667915,22.1923828 28.4967764,22.3637695 L27.0881738,23.7832031 C26.9170352,23.9545898 26.6405805,23.9545898 26.4694418,23.7832031 L22.8404252,20.1489258 C21.5064215,22.3901367 21.804817,25.3388672 23.7312237,27.2680664 C25.5786433,29.1181641 28.3519668,29.4697266 30.55044,28.3227539 L33.0034271,30.7792969 C33.6879816,31.4648438 34.7981886,31.4648438 35.4871313,30.7792969 C36.1716858,30.0893555 36.1716858,28.9775391 35.4827431,28.2875977 L35.4827431,28.2875977 Z" id="路径" fill-opacity="0.6"></path>
                            </g>
                        </g>
                    </g>
                </g>
            </g>
        </g>
    </g>
</svg>