<svg id="图层_1" data-name="图层 1" xmlns="http://www.w3.org/2000/svg" xmlns:xlink="http://www.w3.org/1999/xlink" viewBox="0 0 670.18 670.18"><defs><style>.cls-1{fill:url(#未命名的渐变_11);}.cls-2{fill:#30284f;}</style><linearGradient id="未命名的渐变_11" x1="499.95" y1="354.32" x2="849" y2="354.32" gradientUnits="userSpaceOnUse"><stop offset="0" stop-color="#a166ff"/><stop offset="1" stop-color="#7878ff"/></linearGradient></defs><title>lendf</title><path class="cls-1" d="M832,179.79H516.93a17,17,0,0,0-17,17V302.43a17,17,0,0,0,17,17H703.35a6,6,0,0,1,6,6V511.86a17,17,0,0,0,17,17H832a17,17,0,0,0,17-17V196.78A17,17,0,0,0,832,179.79Z" transform="translate(-178.82 -179.79)"/><path class="cls-2" d="M813.64,640.54H394.29a6,6,0,0,1-6-6V215.16a17,17,0,0,0-27.62-13.27L185.2,342.23a17,17,0,0,0-6.38,13.27V833a17,17,0,0,0,17,17H673.29a17,17,0,0,0,13.27-6.38L826.91,668.16A17,17,0,0,0,813.64,640.54Z" transform="translate(-178.82 -179.79)"/></svg>