<?xml version="1.0" encoding="UTF-8"?>
<svg width="15px" height="14px" viewBox="0 0 15 14" version="1.1" xmlns="http://www.w3.org/2000/svg" xmlns:xlink="http://www.w3.org/1999/xlink">
    <title>形状结合</title>
    <g id="页面-1" stroke="none" stroke-width="1" fill="none" fill-rule="evenodd">
        <g id="EN" transform="translate(-1536.000000, -4583.000000)" fill="#D4D9E0" fill-rule="nonzero">
            <g id="编组-30" transform="translate(1274.000000, 4547.000000)">
                <path d="M265.95774,36.0659848 C266.195138,35.9486902 266.432722,35.9877265 266.590987,36.1834644 L266.590987,36.1834644 L268.53038,38.1012495 L270.430115,38.1012495 L272.369326,36.1832856 C272.567251,35.9875477 272.844309,35.9875477 273.042233,36.1832856 C273.240158,36.3790235 273.240158,36.6530195 273.042233,36.8487574 L273.042233,36.8487574 L271.894532,37.9837778 L274.427538,37.9837779 C275.812638,37.9837779 276.960527,39.0797555 277,40.4497339 L277,40.4497339 L277,46.6730148 C277,48.0429916 275.8523,49.178012 274.467015,49.178012 L274.467015,49.178012 L274.150485,49.178012 C274.111013,49.6085242 273.794296,49.9215567 273.358974,49.9607783 C272.883991,50 272.488329,49.6477459 272.448669,49.178012 L272.448669,49.178012 L266.591178,49.178012 C266.591178,49.6085242 266.195328,50 265.760006,50 C265.324684,50 264.928834,49.6477459 264.928834,49.178012 L264.928834,49.178012 L264.532985,49.178012 C263.147702,49.178012 262,48.0429932 262,46.7122349 L262,46.7122349 L262,40.488954 C262,39.1189772 263.1477,37.9839568 264.532985,37.9839568 L264.532985,37.9839568 L267.065969,37.9839568 L265.878608,36.8097147 C265.680683,36.6139768 265.680683,36.3399808 265.878608,36.1442429 C265.918081,36.1052063 265.918081,36.0659848 265.95774,36.0659848 Z M274.308724,39.4321899 L264.651764,39.4321899 C264.13731,39.4321899 263.701987,39.8627021 263.701987,40.3714724 L263.701987,40.3714724 L263.741647,46.7122348 C263.78112,47.221005 264.176969,47.6515172 264.691424,47.6515172 L264.691424,47.6515172 L274.348384,47.6515172 C274.862839,47.6515172 275.258501,47.2600414 275.298161,46.7122348 L275.298161,46.7122348 L275.258501,40.3714724 C275.219029,39.8627021 274.823179,39.4321899 274.308724,39.4321899 L274.308724,39.4321899 Z M269.479965,44.6767861 C269.836154,45.068262 269.836154,45.4987742 270.350609,45.4987742 C270.706799,45.4987742 270.944196,45.068262 270.944196,45.068262 C270.983856,44.9900039 271.102461,44.9117458 271.181593,44.9117458 C271.339858,44.8725242 271.458651,44.9900039 271.498123,45.1465201 L271.498123,45.2247782 C271.498685,45.2639997 271.498685,45.3422578 271.459026,45.3812943 C271.261101,45.8118065 270.825779,46.0858025 270.311324,46.1250243 C269.994794,46.1250243 269.678077,45.9685081 269.480152,45.7335484 C269.242755,45.9683227 268.965697,46.1250243 268.64898,46.1250243 C268.173998,46.0858027 267.738676,45.8119919 267.501279,45.3812943 C267.501279,45.3420728 267.461619,45.3030362 267.461619,45.2247782 C267.461619,45.068262 267.580411,44.9507821 267.738676,44.9117458 L267.778336,44.9117458 C267.897128,44.9117458 267.976261,44.9509674 268.015733,45.068262 C268.015733,45.068262 268.332263,45.4987742 268.60932,45.4987742 C269.163435,45.4987742 269.163435,45.0290402 269.479965,44.6767861 Z M267.817997,41.584759 L268.055395,42.7590011 L264.88916,43.3460295 L264.651762,42.1717874 L267.817997,41.584759 Z M271.102836,41.584759 L274.269071,42.1717874 L274.031673,43.3460295 L270.865438,42.7590011 L271.102836,41.584759 Z" id="形状结合"></path>
            </g>
        </g>
    </g>
</svg>