<?xml version="1.0" encoding="UTF-8"?>
<svg width="240px" height="60px" viewBox="0 0 240 60" version="1.1" xmlns="http://www.w3.org/2000/svg" xmlns:xlink="http://www.w3.org/1999/xlink">
    <title>5-defipulsh</title>
    <g id="控件" stroke="none" stroke-width="1" fill="none" fill-rule="evenodd">
        <g id="编组-19备份" transform="translate(-380.000000, -168.000000)" fill="#D4D9E0" fill-rule="nonzero">
            <g id="logo备份" transform="translate(401.000000, 184.000000)">
                <path d="M19.6024723,7.33915203 C22.0248492,9.76068515 23.1391425,12.4728022 23.1391425,15.9598098 C23.1391425,22.7401025 18.2136428,27.4540203 11.156452,27.4540203 L4.24460327,27.4540203 L0.223457971,23.4342753 L0.223457971,0.510428752 L7.26449975,0.510428752 C11.0434075,0.510428752 14.2247957,1.86648729 16.388786,4.14272837 L19.6024723,7.33915203 Z M4.03466387,4.12658482 L3.98621665,4.12658482 L3.98621665,4.9337625 L7.42599145,8.34005239 L7.42599145,7.51673112 L4.03466387,4.12658482 Z M8.00736195,7.40372626 L4.72907884,4.12658482 L4.26075234,4.12658482 L7.53903593,7.40372626 L8.00736195,7.40372626 Z M9.15395387,7.40372626 L5.87567028,4.12658482 L4.95516732,4.12658482 L8.23345042,7.40372626 L9.15395387,7.40372626 Z M7.31294745,4.12658482 L6.10175876,4.12658482 L9.38004234,7.40372626 L10.5912306,7.40372626 L7.31294745,4.12658482 Z M11.7701206,7.4198698 L8.5564343,4.20730259 C8.21730135,4.15887191 7.89431795,4.14272837 7.53903593,4.12658482 L10.817319,7.40372626 L11.156452,7.40372626 C11.3663914,7.40372626 11.5763303,7.40372626 11.7701206,7.4198698 Z M12.8036681,7.53287471 L9.67072759,4.40102523 C9.39619141,4.336451 9.10550617,4.28802037 8.81482092,4.23958968 L12.0123582,7.43601334 C12.2868943,7.45215694 12.5614305,7.50058757 12.8036681,7.53287471 Z M13.7403206,7.75888443 L10.6881255,4.70775277 C10.462037,4.627035 10.2197995,4.54631723 9.97756191,4.481743 L13.0943533,7.59744889 C13.3204418,7.64587957 13.5303812,7.69431021 13.7403206,7.75888443 Z M14.0956026,7.87188934 C14.3055415,7.96875066 14.5316305,8.06561198 14.7254203,8.1624733 L11.7539716,5.19205936 C11.5440322,5.0790545 11.3179437,4.96604963 11.0918552,4.86918832 L14.0956026,7.87188934 Z M3.98621665,11.3104663 L4.56758715,11.8916342 L4.4383936,12.0207827 L3.98621665,11.5687632 L3.98621665,20.0279854 L7.42599145,20.0279854 L7.42599145,8.56606216 L3.98621665,5.19205936 L3.98621665,5.98309354 L7.24835068,9.22794783 L7.11915713,9.34095274 L3.98621665,6.22524681 L3.98621665,7.03242453 L6.69927833,9.76068515 L6.58623433,9.88983356 L3.98621665,7.27457785 L3.98621665,8.09789907 L6.16635553,10.2934224 L6.05331154,10.4225708 L3.98621665,8.34005239 L3.98621665,9.16337366 L5.63343274,10.8261597 L5.52038826,10.9553081 L3.98621665,9.40552692 L3.98621665,10.2449917 L5.10050994,11.358897 L4.97131639,11.4880454 L3.98621665,10.4871451 L3.98621665,11.3104663 Z M14.4670337,7.67816666 C13.9179614,6.8225583 13.1912482,6.0960984 12.319193,5.53107399 L14.4670337,7.67816666 Z M19.2794889,7.66202312 L17.9714053,6.32210812 C18.843461,7.95260707 19.4086825,9.97055133 19.4086825,12.0692133 C19.4086825,12.2952231 19.4086825,12.5212329 19.3925329,12.731099 L22.6869656,16.0405276 L22.6869656,15.9598098 C22.6869656,12.585807 21.5888213,10.0351256 19.2794889,7.66202312 Z M7.8781684,20.0118419 C12.5775796,19.753545 15.6136252,16.6701262 15.6136252,12.0692133 C15.6136252,10.8745904 15.4036858,9.7768287 15.0161056,8.80821543 C14.0310058,8.13018621 12.900563,7.85574575 11.156452,7.85574575 L7.8781684,7.85574575 L7.8781684,20.0118419 Z M18.7142675,16.2181067 L22.1378937,19.6405401 C22.4608771,18.5912091 22.6546674,17.4611603 22.6869656,16.2665373 L19.3763838,12.9571088 C19.295638,14.1194447 19.0695495,15.2010628 18.7142675,16.2181067 Z M22.0732969,19.8019756 L18.6496707,16.3795422 C18.3428364,17.1867199 17.9552562,17.945467 17.4869302,18.6234962 L20.9751527,22.1105038 C21.4273296,21.4001875 21.7987607,20.6252969 22.0732969,19.8019756 Z M19.5540251,23.8540077 C20.0546492,23.3697011 20.4906771,22.8208203 20.8782578,22.2396523 L17.4061839,18.7687882 C17.0024546,19.3338126 16.5502777,19.8665499 16.033504,20.334713 L19.5540251,23.8540077 Z M14.4993319,21.5454795 L18.0360021,25.0809178 C18.5366267,24.7419032 19.0049527,24.3706014 19.4409806,23.9670126 L15.9204595,20.4477178 C15.4844316,20.8513067 15.0161056,21.2226084 14.4993319,21.5454795 Z M12.9490107,22.4010878 L16.4856809,25.9365261 C16.9701565,25.7105164 17.4384825,25.4522195 17.8906594,25.1777791 L14.3539892,21.6423408 C13.9179614,21.9329248 13.4496353,22.1750781 12.9490107,22.4010878 Z M11.4309882,22.9661122 L14.9515088,26.485407 C15.4198353,26.3562586 15.8881613,26.1786795 16.3241892,26.0011004 L12.787519,22.465662 C12.3514911,22.6593847 11.8993142,22.8369638 11.4309882,22.9661122 Z M9.96141284,23.3212704 L13.4657844,26.8244216 C13.9179614,26.7437038 14.3539892,26.6468425 14.773868,26.5338376 L11.269496,23.0306864 C10.8496177,23.1436913 10.4135898,23.2405527 9.96141284,23.3212704 Z M9.75147344,23.3535575 C9.36389327,23.4342753 8.96016354,23.4827059 8.5564343,23.5149931 L12.0285077,26.9697136 C12.448386,26.95357 12.8521158,26.9051394 13.255845,26.8567087 L9.75147344,23.3535575 Z M10.6881255,27.0020007 L11.156452,27.0020007 C11.3825405,27.0020007 11.5924799,27.0020007 11.8024193,26.9858571 L8.3464949,23.5311366 C7.99121287,23.5472802 7.63593085,23.5634237 7.26449975,23.5634237 L7.24835068,23.5634237 L10.6881255,27.0020007 Z M0.998618312,23.5634237 L4.4383936,27.0020007 L4.66448207,27.0020007 L1.24085586,23.5634237 L0.998618312,23.5634237 Z M1.46694481,23.5634237 L4.90671961,27.0020007 L5.19740486,27.0020007 L1.75762958,23.5634237 L1.46694481,23.5634237 Z M1.98371854,23.5634237 L5.42349334,27.0020007 L5.79492443,27.0020007 L2.35514963,23.5634237 L1.98371854,23.5634237 Z M2.58123811,23.5634237 L6.02101291,27.0020007 L6.48933941,27.0020007 L3.04956413,23.5634237 L2.58123811,23.5634237 Z M3.2756526,23.5634237 L6.71542788,27.0020007 L7.28064882,27.0020007 L3.84087402,23.5634237 L3.2756526,23.5634237 Z M4.0669625,23.5634237 L7.5067373,27.0020007 L8.1850032,27.0020007 L4.74522792,23.5634237 L4.0669625,23.5634237 Z M4.98746546,23.5634237 L8.42724075,27.0020007 L9.25084879,27.0020007 L5.81107351,23.5634237 L4.98746546,23.5634237 Z M6.03716198,23.5634237 L9.47693726,27.0020007 L10.462037,27.0020007 L7.00611313,23.5634237 L6.03716198,23.5634237 Z M40.919414,20.0602725 L44.9405593,24.0800174 L44.9405593,27.4540203 L29.4050495,27.4540203 L25.3839038,23.4342753 L25.3839038,0.510428752 L40.4510875,0.510428752 L44.4722333,4.53017368 L44.4722333,7.7104538 L33.0224656,7.7104538 L33.006316,10.018982 L38.6100811,10.018982 L42.6312269,14.0387269 L42.6312269,17.2835812 L33.006316,17.2835812 L33.006316,20.0602725 L40.919414,20.0602725 Z M44.0200564,4.72389632 L40.5802811,1.28531934 L40.5802811,3.98129282 L44.0200564,7.25843426 L44.0200564,4.72389632 Z M32.893272,7.25843426 L29.4696463,3.98129282 L29.2274083,3.98129282 L32.6510345,7.25843426 L32.893272,7.25843426 Z M33.5392393,7.25843426 L30.099464,3.98129282 L29.7118839,3.98129282 L33.1355096,7.25843426 L33.5392393,7.25843426 Z M34.3466983,7.25843426 L30.906923,3.98129282 L30.3417016,3.98129282 L33.7814769,7.25843426 L34.3466983,7.25843426 Z M35.315649,7.25843426 L31.8920227,3.98129282 L31.1491606,3.98129282 L34.5889358,7.25843426 L35.315649,7.25843426 Z M36.607583,7.25843426 L33.1516587,3.98129282 L32.1342608,3.98129282 L35.5578865,7.25843426 L36.607583,7.25843426 Z M37.8995176,7.25843426 L34.4435932,3.98129282 L33.4100458,3.98129282 L36.8498206,7.25843426 L37.8995176,7.25843426 Z M39.2398993,7.25843426 L35.800124,3.98129282 L34.7019798,3.98129282 L38.1417551,7.25843426 L39.2398993,7.25843426 Z M40.5318334,7.25843426 L37.1243567,3.98129282 L36.0423621,3.98129282 L39.4821369,7.25843426 L40.5318334,7.25843426 Z M41.6622762,7.25843426 L38.23865,3.98129282 L37.3504452,3.98129282 L40.7902205,7.25843426 L41.6622762,7.25843426 Z M42.6312269,7.25843426 L39.2076007,3.98129282 L38.4647385,3.98129282 L41.9206629,7.25843426 L42.6312269,7.25843426 Z M43.2771942,7.25843426 L39.869717,3.98129282 L39.4336897,3.98129282 L42.8896135,7.25843426 L43.2771942,7.25843426 Z M43.7616693,7.25843426 L40.3541926,3.98129282 L40.0958055,3.98129282 L43.5355808,7.25843426 L43.7616693,7.25843426 Z M29.1143643,8.69521057 L29.9056737,9.45395761 L29.7764806,9.56696247 L29.1143643,8.93736388 L29.1143643,10.018982 L32.5541391,10.018982 L32.5541391,7.38758271 L29.1143643,4.11044128 L29.1143643,4.78847054 L32.1019621,7.64587957 L31.9566195,7.74274089 L29.1143643,5.03062381 L29.1143643,5.77322731 L31.5528903,8.09789907 L31.4075477,8.21090393 L29.1143643,5.99923708 L29.1143643,6.74184053 L31.0038179,8.54991857 L30.8584753,8.66292348 L29.1143643,6.98399385 L29.1143643,7.72659734 L30.4547461,9.00193811 L30.3255525,9.11494297 L29.1143643,7.95260707 L29.1143643,8.69521057 Z M38.7392747,10.7938726 L38.7392747,13.5544203 L38.7231256,13.5544203 L42.17905,16.8315617 L42.17905,14.2324496 L38.7392747,10.7938726 Z M32.6671836,16.8315617 L32.9578688,16.8315617 L29.5180935,13.5544203 L29.2274083,13.5544203 L32.6671836,16.8315617 Z M29.7603311,13.5544203 L33.2001064,16.8315617 L33.7653278,16.8315617 L30.3417016,13.5544203 L29.7603311,13.5544203 Z M30.5839396,13.5544203 L34.0075653,16.8315617 L34.8957702,16.8315617 L31.4398458,13.5544203 L30.5839396,13.5544203 Z M31.6982329,13.5544203 L35.1380077,16.8315617 L36.3491964,16.8315617 L32.9255702,13.5544203 L31.6982329,13.5544203 Z M37.8995176,16.8315617 L34.4920409,13.5544203 L33.1678082,13.5544203 L36.5914339,16.8315617 L37.8995176,16.8315617 Z M39.4498387,16.8315617 L36.0100634,13.5544203 L34.7181294,13.5544203 L38.1579042,16.8315617 L39.4498387,16.8315617 Z M40.564132,16.8315617 L37.1566554,13.5544203 L36.252301,13.5544203 L39.6920763,16.8315617 L40.564132,16.8315617 Z M41.371591,16.8315617 L37.9479648,13.5544203 L37.3827438,13.5544203 L40.8225186,16.8315617 L41.371591,16.8315617 Z M38.1740533,13.5544203 L41.6299776,16.8315617 L41.9206629,16.8315617 L38.4970371,13.5544203 L38.1740533,13.5544203 Z M29.1143643,19.2853819 L29.5342426,19.6889708 L29.4050495,19.8181192 L29.1143643,19.5436788 L29.1143643,20.0602725 L32.5541391,20.0602725 L32.5541391,16.9445666 L29.1143643,13.6674252 L29.1143643,14.3777415 L32.1019621,17.2512942 L31.9889182,17.364299 L29.1143643,14.6198948 L29.1143643,15.3786419 L31.6013375,17.7517443 L31.4721444,17.8647492 L29.1143643,15.6046517 L29.1143643,16.3472551 L31.0845638,18.2360509 L30.9553707,18.3490558 L29.1143643,16.5894084 L29.1143643,17.3320119 L30.5677901,18.7203576 L30.438597,18.8333624 L29.1143643,17.5741652 L29.1143643,18.3167687 L30.0510163,19.2046642 L29.9218233,19.317669 L29.1143643,18.5427785 L29.1143643,19.2853819 Z M41.0486071,20.8351631 L41.0486071,23.5634237 L44.4883824,27.0020007 L44.4883824,24.2737401 L41.0486071,20.8351631 Z M27.7255348,23.5634237 L26.1590646,23.5634237 L29.5988394,27.0020007 L31.1653096,27.0020007 L27.7255348,23.5634237 Z M29.3566018,23.5634237 L27.9516233,23.5634237 L31.3913986,27.0020007 L32.8125262,27.0020007 L29.3566018,23.5634237 Z M29.5826903,23.5634237 L33.0386147,27.0020007 L34.2982506,27.0020007 L30.8423262,23.5634237 L29.5826903,23.5634237 Z M31.0684147,23.5634237 L34.5243391,27.0020007 L35.6386324,27.0020007 L32.1988571,23.5634237 L31.0684147,23.5634237 Z M33.4100458,23.5634237 L32.424946,23.5634237 L35.8647208,27.0020007 L36.8659701,27.0020007 L33.4100458,23.5634237 Z M37.9641143,27.0020007 L34.5243391,23.5634237 L33.6361342,23.5634237 L37.0920586,27.0020007 L37.9641143,27.0020007 Z M34.7504275,23.5634237 L38.1902028,27.0020007 L38.9653632,27.0020007 L35.5255884,23.5634237 L34.7504275,23.5634237 Z M35.7516768,23.5634237 L39.1914516,27.0020007 L39.8858666,27.0020007 L36.4299422,23.5634237 L35.7516768,23.5634237 Z M36.6560307,23.5634237 L40.1119551,27.0020007 L40.7094746,27.0020007 L37.2535503,23.5634237 L36.6560307,23.5634237 Z M37.4796388,23.5634237 L40.9355631,27.0020007 L41.4523368,27.0020007 L37.9964125,23.5634237 L37.4796388,23.5634237 Z M38.222501,23.5634237 L41.6784253,27.0020007 L42.1306023,27.0020007 L38.6746779,23.5634237 L38.222501,23.5634237 Z M38.9007664,23.5634237 L42.3566907,27.0020007 L42.7442709,27.0020007 L39.288347,23.5634237 L38.9007664,23.5634237 Z M39.5144355,23.5634237 L42.9703594,27.0020007 L43.2933433,27.0020007 L39.853568,23.5634237 L39.5144355,23.5634237 Z M40.0796564,23.5634237 L43.5194317,27.0020007 L43.810117,27.0020007 L40.3541926,23.5634237 L40.0796564,23.5634237 Z M40.5802811,23.5634237 L44.0362055,27.0020007 L44.2622939,27.0020007 L40.8063696,23.5634237 L40.5802811,23.5634237 Z M66.4997348,7.83960221 L54.5977901,7.83960221 L54.5977901,10.7938726 L60.4760914,10.7938726 L64.4972367,14.8136175 L64.4972367,18.1069025 L54.5977901,18.1069025 L54.5977901,27.4540203 L51.0126727,27.4540203 L46.9915269,23.4342753 L46.9915269,0.510428752 L62.4785895,0.510428752 L66.4997348,4.53017368 L66.4997348,7.83960221 Z M62.607783,1.28531934 L62.607783,4.11044128 L66.0314088,7.38758271 L66.0475578,7.38758271 L66.0475578,4.72389632 L62.607783,1.28531934 Z M54.2425081,7.38758271 L54.5008952,7.38758271 L51.0611199,4.11044128 L50.8350314,4.11044128 L54.2425081,7.38758271 Z M55.1307129,7.38758271 L51.674789,4.11044128 L51.319507,4.11044128 L54.7269836,7.38758271 L55.1307129,7.38758271 Z M55.9543214,7.38758271 L52.4983971,4.11044128 L51.9331756,4.11044128 L55.3568014,7.38758271 L55.9543214,7.38758271 Z M57.0040179,7.38758271 L53.5642427,4.11044128 L52.7567837,4.11044128 L56.1804099,7.38758271 L57.0040179,7.38758271 Z M58.4574437,7.38758271 L55.0176689,4.11044128 L53.8226298,4.11044128 L57.2301064,7.38758271 L58.4574437,7.38758271 Z M59.8462732,7.38758271 L56.4064984,4.11044128 L55.2599064,4.11044128 L58.6996817,7.38758271 L59.8462732,7.38758271 Z M61.3642962,7.38758271 L57.9245209,4.11044128 L56.6487359,4.11044128 L60.0885112,7.38758271 L61.3642962,7.38758271 Z M62.8015729,7.38758271 L59.3779471,4.11044128 L58.1506094,4.11044128 L61.6065337,7.38758271 L62.8015729,7.38758271 Z M63.8674189,7.38758271 L60.4276437,4.11044128 L59.6201847,4.11044128 L63.0438109,7.38758271 L63.8674189,7.38758271 Z M64.691027,7.38758271 L61.2512517,4.11044128 L60.6698812,4.11044128 L64.1096565,7.38758271 L64.691027,7.38758271 Z M65.3046956,7.38758271 L61.8810699,4.11044128 L61.4934897,4.11044128 L64.9332645,7.38758271 L65.3046956,7.38758271 Z M62.1233075,4.11044128 L65.5469332,7.38758271 L65.7891712,7.38758271 L62.365545,4.11044128 L62.1233075,4.11044128 Z M50.7058379,10.7938726 L54.1456132,10.7938726 L54.1456132,7.51673112 L50.7058379,4.22344614 L50.7058379,4.77232695 L53.7741821,7.72659734 L53.6611376,7.83960221 L50.7058379,5.01448027 L50.7058379,5.75708377 L53.2735574,8.22704752 L53.1443639,8.35619593 L50.7058379,5.99923708 L50.7058379,6.74184053 L52.7729328,8.72749766 L52.6437397,8.85664611 L50.7058379,6.98399385 L50.7058379,7.72659734 L52.2723086,9.22794783 L52.1592641,9.34095274 L50.7058379,7.95260707 L50.7058379,8.71135411 L51.7716839,9.72839801 L51.6586395,9.84140288 L50.7058379,8.93736388 L50.7058379,9.67996738 L51.2710593,10.2288482 L51.1580153,10.3418531 L50.7058379,9.9059771 L50.7058379,10.7938726 Z M60.6052849,11.5687632 L60.6052849,14.3777415 L64.0450597,17.654883 L64.0450597,15.0073402 L60.6052849,11.5687632 Z M50.8027333,14.3777415 L54.226359,17.654883 L54.5493424,17.654883 L51.1095676,14.3777415 L50.8027333,14.3777415 Z M51.3518051,14.3777415 L54.7754314,17.654883 L55.3245032,17.654883 L51.9008775,14.3777415 L51.3518051,14.3777415 Z M52.143115,14.3777415 L55.5505917,17.654883 L56.5679901,17.654883 L53.1120657,14.3777415 L52.143115,14.3777415 Z M53.3543033,14.3777415 L56.7940785,17.654883 L58.0537145,17.654883 L54.6300887,14.3777415 L53.3543033,14.3777415 Z M54.8723263,14.3777415 L58.2798029,17.654883 L59.7332292,17.654883 L56.3257525,14.3777415 L54.8723263,14.3777415 Z M56.551841,14.3777415 L59.9754667,17.654883 L61.2512517,17.654883 L57.8114769,14.3777415 L56.551841,14.3777415 Z M58.0375654,14.3777415 L61.4934897,17.654883 L62.4624404,17.654883 L59.0549638,14.3777415 L58.0375654,14.3777415 Z M59.2810522,14.3777415 L62.704678,17.654883 L63.2537498,17.654883 L59.8301241,14.3777415 L59.2810522,14.3777415 Z M60.0562126,14.3777415 L63.4959878,17.654883 L63.8028222,17.654883 L60.379196,14.3777415 L60.0562126,14.3777415 Z M50.7058379,23.5634237 L54.1456132,27.0020007 L54.1456132,17.7356007 L54.113315,17.7678879 L50.7058379,14.5230335 L50.7058379,15.0557708 L53.7903311,18.0261847 L53.6772871,18.1391896 L50.7058379,15.2979241 L50.7058379,16.0405276 L53.2897065,18.5266349 L53.1605134,18.6557833 L50.7058379,16.2826809 L50.7058379,17.0252844 L52.7890823,19.027085 L52.6598888,19.1562335 L50.7058379,17.2674377 L50.7058379,18.0100412 L52.2884577,19.5275352 L52.1754132,19.6405401 L50.7058379,18.2360509 L50.7058379,18.994798 L51.787833,20.0279854 L51.674789,20.1409903 L50.7058379,19.2208077 L50.7058379,19.9795548 L51.2872084,20.5284356 L51.1741644,20.6414404 L50.7058379,20.189421 L50.7058379,23.5634237 Z M47.7666877,23.5634237 L51.2064625,27.0020007 L51.8685789,27.0020007 L48.4449531,23.5634237 L47.7666877,23.5634237 Z M49.2524121,23.5634237 L48.6710416,23.5634237 L52.1108164,27.0020007 L52.6921869,27.0020007 L49.2524121,23.5634237 Z M49.4785006,23.5634237 L52.9344249,27.0020007 L53.3543033,27.0020007 L49.9306775,23.5634237 L49.4785006,23.5634237 Z M50.156766,23.5634237 L53.5965413,27.0020007 L53.9033756,27.0020007 L50.4797494,23.5634237 L50.156766,23.5634237 Z M71.8935822,0.510428752 L75.9147275,4.53017368 L75.9147275,27.4540203 L72.2650133,27.4540203 L68.2438675,23.4342753 L68.2438675,0.510428752 L71.8935822,0.510428752 Z M72.0227758,1.5436162 L75.4625506,4.98219318 L75.4625506,4.72389632 L72.0227758,1.28531934 L72.0227758,1.5436162 Z M72.0227758,2.23778901 L75.4625506,5.67636599 L75.4625506,5.2243465 L72.0227758,1.78576952 L72.0227758,2.23778901 Z M72.0227758,3.19025869 L75.4625506,6.62883567 L75.4625506,5.90237577 L72.0227758,2.46379879 L72.0227758,3.19025869 Z M72.0227758,4.53017368 L75.4625506,7.96875066 L75.4625506,6.87098899 L72.0227758,3.43241201 L72.0227758,4.53017368 Z M72.0227758,6.35439526 L75.4625506,9.79297224 L75.4625506,8.19476039 L72.0227758,4.75618341 L72.0227758,6.35439526 Z M72.0227758,8.87278966 L75.4625506,12.3113666 L75.4625506,10.018982 L72.0227758,6.58040499 L72.0227758,8.87278966 Z M72.0227758,23.5634237 L75.4625506,27.0020007 L75.4625506,12.5373764 L72.0227758,9.09879943 L72.0227758,23.5634237 Z M69.7618905,23.5634237 L69.0190283,23.5634237 L72.4588036,27.0020007 L73.1855163,27.0020007 L69.7618905,23.5634237 Z M74.0091248,27.0020007 L70.5693495,23.5634237 L69.987979,23.5634237 L73.4277543,27.0020007 L74.0091248,27.0020007 Z M70.795438,23.5634237 L74.2513623,27.0020007 L74.6712411,27.0020007 L71.2476149,23.5634237 L70.795438,23.5634237 Z M71.4737034,23.5634237 L74.9134787,27.0020007 L75.220313,27.0020007 L71.7966873,23.5634237 L71.4737034,23.5634237 Z M107.001918,5.9508064 C108.568389,7.50058757 109.311251,9.26023497 109.311251,11.4396147 C109.311251,15.9598098 105.855326,19.2530948 101.05902,19.2530948 L96.9571287,19.2530948 L96.9571287,27.4540203 L93.3235636,27.4540203 L89.3024183,23.4342753 L89.3024183,0.510428752 L97.4416043,0.510428752 C100.28386,0.510428752 102.560894,1.52747266 103.788232,2.75438274 L107.001918,5.9508064 Z M93.065177,9.71225447 L93.4043094,10.0512691 L93.2751164,10.1804175 L93.065177,9.97055133 L93.065177,12.2145053 L96.3434601,12.2145053 L96.3434601,7.24229071 L93.065177,3.96514928 L93.065177,4.65932209 L95.8912831,7.54901826 L95.7782391,7.66202312 L93.065177,4.91761895 L93.065177,5.69250954 L95.3906585,8.04946843 L95.2776145,8.1624733 L93.065177,5.93466286 L93.065177,6.6934099 L94.9061834,8.54991857 L94.7769898,8.66292348 L93.065177,6.93556321 L93.065177,7.69431021 L94.4055587,9.05036874 L94.2763652,9.16337366 L93.065177,7.93646352 L93.065177,8.69521057 L93.9049341,9.55081892 L93.7757405,9.66382379 L93.065177,8.95350743 L93.065177,9.71225447 Z M96.7471898,7.08085517 L93.6465475,3.96514928 L93.2912654,3.96514928 L96.4242059,7.09699876 L96.5695486,7.08085517 L96.7471898,7.08085517 Z M97.4739024,7.08085517 L94.357111,3.96514928 L93.8726359,3.96514928 L96.9894274,7.08085517 L97.4739024,7.08085517 Z M98.3944059,7.08085517 L95.2776145,3.96514928 L94.5831995,3.96514928 L97.6999914,7.08085517 L98.3944059,7.08085517 Z M99.4602515,7.08085517 L96.3434601,3.96514928 L95.503703,3.96514928 L98.6204944,7.08085517 L99.4602515,7.08085517 Z M97.5062011,3.96514928 L96.5695486,3.96514928 L99.68634,7.08085517 L100.622992,7.08085517 L97.5062011,3.96514928 Z M101.543496,7.08085517 L98.5235994,4.06201059 C98.2813614,4.01357996 98.0068257,3.99743637 97.7484386,3.98129282 L100.849081,7.08085517 L101.543496,7.08085517 Z M101.882628,6.70955344 L99.4925501,4.32030746 C99.2826107,4.23958968 99.0403732,4.17501546 98.8142847,4.12658482 L101.801883,7.1131423 C101.866479,7.1131423 101.931076,7.1131423 101.995673,7.12928585 C101.963374,6.98399385 101.931076,6.85484544 101.882628,6.70955344 Z M101.737286,6.33825172 C101.382004,5.53107399 100.752186,4.90147541 99.9124289,4.49788654 L101.737286,6.33825172 Z M106.678935,6.27367749 L105.257807,4.83690118 C105.645387,5.70865308 105.903774,6.79027121 105.903774,7.87188934 C105.903774,8.06561198 105.903774,8.25933461 105.887625,8.4369137 L108.859074,11.1328872 C108.794477,9.21180429 108.067764,7.69431021 106.678935,6.27367749 Z M97.3447094,12.2145053 C100.138517,12.2145053 102.092568,10.4871451 102.092568,8.03332484 C102.092568,7.88803289 102.092568,7.74274089 102.076419,7.59744889 C101.801883,7.54901826 101.511197,7.53287471 101.236661,7.53287471 L96.795637,7.53287471 L96.795637,12.2145053 L97.3447094,12.2145053 Z M108.406897,14.0871576 C108.697582,13.2799799 108.859074,12.3920844 108.859074,11.4396147 L108.859074,11.358897 L105.871476,8.63063634 C105.79073,9.55081892 105.564641,10.4064273 105.209359,11.1813179 L108.406897,14.0871576 Z M105.128613,11.3266099 C104.837928,11.9239214 104.482646,12.4566586 104.046619,12.9409653 L107.373349,15.9598098 C107.76093,15.4432161 108.100062,14.8620482 108.3423,14.2485931 L105.128613,11.3266099 Z M106.097564,17.2028635 C106.533592,16.8638488 106.921172,16.4925471 107.276454,16.0728147 L103.933574,13.0539701 C103.562143,13.457559 103.158414,13.7965736 102.706236,14.1194447 L106.097564,17.2028635 Z M101.333557,14.8781917 L104.773331,18.0100412 C105.209359,17.800175 105.59694,17.5741652 105.968371,17.2997248 L102.560894,14.216306 C102.173314,14.4584593 101.769584,14.6844691 101.333557,14.8781917 Z M99.9770252,15.3463548 L103.449099,18.4943478 C103.852828,18.3813429 104.256558,18.2360509 104.627989,18.0746154 L101.172065,14.9427659 C100.784484,15.1042015 100.380755,15.2333499 99.9770252,15.3463548 Z M98.6689421,15.5885081 L102.157165,18.7365011 C102.544745,18.6880704 102.916176,18.6234962 103.271458,18.5427785 L99.7993844,15.3786419 C99.4279533,15.4755032 99.0565222,15.5400774 98.6689421,15.5885081 Z M100.88138,18.8010753 L101.05902,18.8010753 C101.349706,18.8010753 101.640391,18.7849318 101.914927,18.7687882 L98.4428536,15.6207952 C98.1198697,15.6530823 97.7807372,15.6692258 97.4416043,15.6853694 L100.88138,18.8010753 Z M96.3111619,15.6853694 L99.7509367,18.8010753 L100.622992,18.8010753 L97.1993668,15.6853694 L96.3111619,15.6853694 Z M96.5049518,27.0020007 L96.5049518,18.8010753 L96.5211013,18.8010753 L93.081326,15.6853694 L93.065177,15.6853694 L93.065177,16.5086907 L96.0527748,19.2208077 L95.9235813,19.3338126 L93.065177,16.7347004 L93.065177,17.5903088 L95.4875539,19.7858321 L95.3583603,19.898837 L93.065177,17.8163185 L93.065177,18.6557833 L94.9223325,20.3508565 L94.809288,20.4638614 L93.065177,18.8817931 L93.065177,19.7374015 L94.357111,20.9158809 L94.244067,21.0288858 L93.065177,19.9634112 L93.065177,20.7867324 L93.8080392,21.4647617 L93.6949947,21.5939101 L93.065177,21.0288858 L93.065177,23.5634237 L96.5049518,27.0020007 Z M93.3235636,15.6853694 L96.7471898,18.8010753 L97.1024713,18.8010753 L93.6626965,15.6853694 L93.3235636,15.6853694 Z M93.888785,15.6853694 L97.3285603,18.8010753 L97.7645877,18.8010753 L94.3248129,15.6853694 L93.888785,15.6853694 Z M94.5831995,15.6853694 L98.0068257,18.8010753 L98.5558976,18.8010753 L95.1322719,15.6853694 L94.5831995,15.6853694 Z M95.3422113,15.6853694 L98.7981351,18.8010753 L99.5086992,18.8010753 L96.0850735,15.6853694 L95.3422113,15.6853694 Z M90.0775786,23.5634237 L93.5173539,27.0020007 L94.227918,27.0020007 L90.8042918,23.5634237 L90.0775786,23.5634237 Z M91.6117507,23.5634237 L91.0303802,23.5634237 L94.4701555,27.0020007 L95.051526,27.0020007 L91.6117507,23.5634237 Z M91.8378392,23.5634237 L95.2937636,27.0020007 L95.7136424,27.0020007 L92.2900162,23.5634237 L91.8378392,23.5634237 Z M92.5161046,23.5634237 L95.9558799,27.0020007 L96.2627142,27.0020007 L92.8390885,23.5634237 L92.5161046,23.5634237 Z M130.676637,0.494285207 L134.53629,4.35259459 L134.53629,17.1060022 C134.53629,23.5634237 130.692786,27.7930346 124.862932,27.7930346 C121.778439,27.7930346 119.566002,26.9212829 117.563504,24.9194822 L114.252922,21.6423408 C112.428065,19.8504063 111.442965,17.1544328 111.442965,13.6997123 L111.442965,0.494285207 L115.07653,0.494285207 L119.097676,4.51403009 L119.097676,17.4611603 C119.097676,18.4620607 119.21072,19.4306739 119.469107,20.3024258 C120.00203,20.4315743 120.5834,20.512292 121.197069,20.512292 C124.846783,20.512292 127.043072,17.9293234 127.043072,13.5705639 L127.043072,0.494285207 L130.676637,0.494285207 Z M118.645499,4.70775277 L115.205723,1.26917579 L115.205723,1.52747266 L118.645499,4.96604963 L118.645499,4.70775277 Z M130.80583,1.5436162 L134.084114,4.82075763 L134.084114,4.54631723 L130.80583,1.28531934 L130.80583,1.5436162 Z M118.645499,5.66022245 L118.645499,5.20820295 L115.205723,1.76962592 L115.205723,2.22164547 L118.645499,5.66022245 Z M130.80583,2.23778901 L134.084114,5.51493045 L134.084114,5.06291095 L130.80583,1.78576952 L130.80583,2.23778901 Z M118.645499,6.61269212 L118.645499,5.88623217 L115.205723,2.44765519 L115.205723,3.17411514 L118.645499,6.61269212 Z M130.80583,3.19025869 L134.084114,6.46740012 L134.084114,5.74094022 L130.80583,2.46379879 L130.80583,3.19025869 Z M118.645499,7.95260707 L118.645499,6.85484544 L115.205723,3.41626846 L115.205723,4.51403009 L118.645499,7.95260707 Z M130.80583,4.53017368 L134.084114,7.80731512 L134.084114,6.70955344 L130.80583,3.43241201 L130.80583,4.53017368 Z M118.645499,9.7768287 L118.645499,8.17861684 L115.205723,4.74003986 L115.205723,6.33825172 L118.645499,9.7768287 Z M130.80583,6.35439526 L134.084114,9.6315367 L134.084114,8.03332484 L130.80583,4.75618341 L130.80583,6.35439526 Z M118.645499,12.2952231 L118.645499,10.0028384 L115.205723,6.56426144 L115.205723,8.85664611 L118.645499,12.2952231 Z M134.084114,9.85754647 L130.80583,6.58040499 L130.80583,8.87278966 L134.084114,12.1499311 L134.084114,9.85754647 Z M115.205723,9.08265588 L115.205723,13.5705639 C115.205723,16.9284231 116.594553,19.2692384 118.968482,20.1409903 C118.758543,19.3015255 118.645499,18.3974865 118.645499,17.4611603 L118.645499,12.5212329 L115.205723,9.08265588 Z M133.535042,21.0127422 C133.890324,19.8342628 134.084114,18.5266349 134.084114,17.1060022 L134.084114,12.3759409 L130.80583,9.09879943 L130.80583,13.6997123 C130.80583,15.2010628 130.628189,16.5571213 130.272907,17.7517443 L133.535042,21.0127422 Z M130.208311,17.9131798 C129.966073,18.704214 129.643089,19.4306739 129.23936,20.0602725 L132.485345,23.3051268 C132.889074,22.6593847 133.228207,21.9490683 133.470445,21.1741777 L130.208311,17.9131798 Z M131.241858,24.8871952 C131.677886,24.4513192 132.065466,23.9831561 132.404599,23.4504188 L129.158614,20.2055645 C128.819481,20.7383018 128.431901,21.2064649 127.995873,21.6423408 L131.241858,24.8871952 Z M126.639342,22.6755283 L129.917626,25.9526697 C130.353654,25.6782293 130.757383,25.3553582 131.128814,25.0002 L127.86668,21.7392021 C127.495249,22.0943603 127.091519,22.4010878 126.639342,22.6755283 Z M125.29896,23.3535575 L128.593393,26.6468425 C128.997122,26.4692634 129.400852,26.2755408 129.772283,26.0333875 L126.493999,22.756246 C126.122568,22.9822558 125.718839,23.1759784 125.29896,23.3535575 Z M116.126227,22.9176816 L117.886487,24.5966112 C118.22562,24.9194822 118.564753,25.2100662 118.903885,25.4683631 L116.546106,23.1114042 L116.126227,22.9176816 Z M117.402012,23.4342753 C117.24052,23.3697011 117.079028,23.3212704 116.917537,23.2566962 L119.630598,25.9688132 C119.872836,26.1141052 120.098925,26.2593972 120.341162,26.3724021 L117.402012,23.4342753 Z M123.974728,23.7571464 L127.285309,27.0665751 C127.672889,26.9697136 128.044321,26.8567087 128.415752,26.7114167 L125.12132,23.4181318 C124.749888,23.5472802 124.362308,23.660285 123.974728,23.7571464 Z M117.724995,23.5311366 L120.77719,26.5822683 C120.98713,26.662986 121.197069,26.7598474 121.423158,26.8244216 L118.290217,23.6925722 C118.096427,23.6441415 117.918786,23.5957108 117.724995,23.5311366 Z M118.613201,23.7732899 L121.778439,26.9374265 C122.004528,27.0020007 122.230617,27.0665751 122.472854,27.1150054 L119.259167,23.9024383 C119.033079,23.8540077 118.823139,23.8217206 118.613201,23.7732899 Z M122.715092,23.9670126 L126.025673,27.2764409 C126.397104,27.244154 126.752387,27.1795797 127.091519,27.098862 L123.780938,23.7894335 C123.441805,23.8701512 123.086523,23.9347255 122.715092,23.9670126 Z M119.517554,23.9347255 L122.74739,27.1634363 C123.005777,27.2118671 123.264164,27.244154 123.522551,27.2764409 L120.276566,24.0315868 C120.018179,24.0154432 119.775941,23.9831561 119.517554,23.9347255 Z M121.584649,24.0638739 L124.862932,27.3410152 C125.185916,27.3410152 125.5089,27.3248717 125.815734,27.2925848 L122.521301,23.9992997 C122.214467,24.0315868 121.891484,24.0477303 121.584649,24.0638739 Z M120.518803,24.0477303 L123.764788,27.2925848 C124.055473,27.3248717 124.33001,27.3410152 124.636844,27.3410152 L121.358561,24.0638739 L121.132472,24.0638739 C120.922533,24.0638739 120.728743,24.0638739 120.518803,24.0477303 Z M152.461906,19.9795548 L156.483051,23.9992997 L156.483051,27.4540203 L141.771149,27.4540203 L137.750003,23.4342753 L137.750003,0.510428752 L141.383569,0.510428752 L145.404714,4.53017368 L145.404714,19.9795548 L152.461906,19.9795548 Z M144.952537,4.72389632 L141.512762,1.28531934 L141.512762,1.52747266 L144.952537,4.96604963 L144.952537,4.72389632 Z M144.952537,5.66022245 L144.952537,5.20820295 L141.512762,1.76962592 L141.512762,2.22164547 L144.952537,5.66022245 Z M144.952537,6.61269212 L144.952537,5.88623217 L141.512762,2.44765519 L141.512762,3.17411514 L144.952537,6.61269212 Z M144.952537,7.95260707 L144.952537,6.85484544 L141.512762,3.41626846 L141.512762,4.51403009 L144.952537,7.95260707 Z M144.952537,9.7768287 L144.952537,8.17861684 L141.512762,4.74003986 L141.512762,6.33825172 L144.952537,9.7768287 Z M144.952537,12.2952231 L144.952537,10.0028384 L141.512762,6.56426144 L141.512762,8.85664611 L144.952537,12.2952231 Z M141.512762,19.9795548 L144.952537,19.9795548 L144.952537,12.5212329 L141.512762,9.08265588 L141.512762,19.9795548 Z M156.030874,27.0020007 L156.030874,24.1930223 L152.591099,20.7544454 L152.591099,23.5634237 L156.030874,27.0020007 Z M138.525164,23.5634237 L141.964939,27.0020007 L143.466813,27.0020007 L140.010889,23.5634237 L138.525164,23.5634237 Z M140.236977,23.5634237 L143.692901,27.0020007 L145.049432,27.0020007 L141.593508,23.5634237 L140.236977,23.5634237 Z M141.819597,23.5634237 L145.275521,27.0020007 L146.486709,27.0020007 L143.030785,23.5634237 L141.819597,23.5634237 Z M143.256874,23.5634237 L146.712798,27.0020007 L147.778644,27.0020007 L144.338869,23.5634237 L143.256874,23.5634237 Z M144.564957,23.5634237 L148.020882,27.0020007 L148.973683,27.0020007 L145.533908,23.5634237 L144.564957,23.5634237 Z M145.759996,23.5634237 L149.199772,27.0020007 L150.055678,27.0020007 L146.599753,23.5634237 L145.759996,23.5634237 Z M146.825842,23.5634237 L150.281766,27.0020007 L151.040778,27.0020007 L147.584854,23.5634237 L146.825842,23.5634237 Z M147.810942,23.5634237 L151.266866,27.0020007 L151.928983,27.0020007 L148.473058,23.5634237 L147.810942,23.5634237 Z M148.699147,23.5634237 L152.155071,27.0020007 L152.736442,27.0020007 L149.296667,23.5634237 L148.699147,23.5634237 Z M149.522755,23.5634237 L152.96253,27.0020007 L153.479304,27.0020007 L150.02338,23.5634237 L149.522755,23.5634237 Z M150.249468,23.5634237 L153.705392,27.0020007 L154.14142,27.0020007 L150.701645,23.5634237 L150.249468,23.5634237 Z M150.927734,23.5634237 L154.367509,27.0020007 L154.755089,27.0020007 L151.299165,23.5634237 L150.927734,23.5634237 Z M151.541402,23.5634237 L154.981177,27.0020007 L155.304161,27.0020007 L151.864386,23.5634237 L151.541402,23.5634237 Z M152.090475,23.5634237 L155.530249,27.0020007 L155.804786,27.0020007 L152.36501,23.5634237 L152.090475,23.5634237 Z M173.827289,16.4279729 C175.070776,17.6710266 175.603698,19.0432286 175.603698,20.9320244 C175.603698,24.9840565 172.406161,27.7930346 167.771347,27.7930346 C164.412318,27.8576089 161.909195,26.8728523 160.342725,25.6782293 L156.370027,21.706915 L156.370027,17.8970363 L156.757607,17.7356007 C158.501718,19.3660997 160.924095,20.2862823 163.443367,20.2862823 C165.54276,20.2862823 167.238424,19.5275352 167.90054,18.3813429 C165.381268,17.1544328 162.425969,16.4764036 160.762603,14.361598 L158.324077,11.2620356 C157.161336,9.7768287 156.596115,8.69521057 156.596115,6.91941962 C156.596115,2.94810537 159.761354,0.219844752 164.380019,0.219844752 C166.72165,0.171414117 169.095579,0.801012703 170.807392,1.91491792 L174.796239,5.90237577 L174.796239,9.51853183 L174.440958,9.69611092 C172.616101,8.35619593 170.532857,7.59744889 168.594955,7.59744889 C166.366368,7.59744889 164.703003,8.48534439 164.266975,9.87369001 C166.52786,10.6808677 168.950237,11.4880454 170.484409,13.0539701 L173.827289,16.4279729 Z M170.904288,2.65752142 L170.904288,5.62793531 L170.888138,5.62793531 L174.344063,9.08265588 L174.344063,6.0960984 L170.904288,2.65752142 Z M165.074434,3.72299596 C164.945241,3.70685241 164.816047,3.70685241 164.703003,3.70685241 C164.460765,3.70685241 164.218527,3.72299596 163.97629,3.7391395 L167.464512,7.22614717 C167.787496,7.17771648 168.142778,7.14542939 168.49806,7.14542939 L165.074434,3.72299596 Z M169.644652,7.21000362 L166.301771,3.86828796 C165.978788,3.80371373 165.639655,3.7552831 165.300523,3.72299596 L168.724148,7.14542939 C169.030983,7.14542939 169.337817,7.17771648 169.644652,7.21000362 Z M167.270722,7.25843426 L163.766351,3.7552831 C163.346472,3.81985728 162.958892,3.90057505 162.58746,4.01357996 L166.124131,7.54901826 C166.479413,7.4198698 166.866993,7.32300848 167.270722,7.25843426 Z M170.726646,7.4198698 L167.496811,4.19115905 C167.206125,4.09429773 166.899291,3.99743637 166.592457,3.93286219 L169.919187,7.25843426 C170.177575,7.29072139 170.45211,7.35529562 170.726646,7.4198698 Z M165.962639,7.61359248 L162.425969,4.07815414 C161.957642,4.23958968 161.570062,4.46559946 161.247079,4.74003986 L164.816047,8.3077653 C165.13903,8.03332484 165.526611,7.80731512 165.962639,7.61359248 Z M171.760194,7.74274089 L168.707999,4.69160918 C168.433463,4.56246077 168.142778,4.43331232 167.852093,4.32030746 L171.033481,7.50058757 C171.275719,7.5651618 171.517956,7.64587957 171.760194,7.74274089 Z M163.830947,9.71225447 C163.992439,9.21180429 164.283124,8.77592834 164.686854,8.40462661 L161.117885,4.83690118 C160.665708,5.25663359 160.375023,5.77322731 160.294277,6.33825172 L163.57256,9.61539315 L163.830947,9.71225447 Z M172.729145,8.14632975 L170.016083,5.43421268 C169.741547,5.25663359 169.467011,5.0790545 169.176325,4.9337625 L172.131625,7.88803289 C172.325415,7.96875066 172.535355,8.04946843 172.729145,8.14632975 Z M170.597453,5.78937086 L173.197471,8.38848307 C173.358963,8.46920079 173.536604,8.56606216 173.714245,8.67906702 L170.742796,5.70865308 L170.597453,5.78937086 Z M160.278128,6.67726635 C160.278128,8.03332484 161.521614,8.79207188 163.201129,9.47010115 L160.278128,6.5481179 L160.278128,6.67726635 Z M161.473167,14.4746028 C162.054538,15.1042015 162.861997,15.6046517 163.7825,16.0566712 L160.068189,12.3436538 C159.874398,12.2306489 159.680608,12.117644 159.502967,12.0046391 C160.084338,12.8118168 160.730305,13.6674252 161.473167,14.4746028 Z M161.683107,13.1185444 C161.295526,12.9571088 160.907946,12.7795297 160.552664,12.6019506 L164.218527,16.2665373 C164.57381,16.4279729 164.945241,16.5894084 165.332821,16.750844 L161.683107,13.1185444 Z M162.054538,13.2638363 L165.720401,16.9122795 C166.011086,17.0414279 166.301771,17.1544328 166.592457,17.2835812 L162.894295,13.5867074 C162.619759,13.4898461 162.345223,13.3768412 162.054538,13.2638363 Z M163.249577,13.7158559 L166.996186,17.4611603 C167.238424,17.5580216 167.480662,17.6710266 167.7229,17.7840314 L163.895544,13.9418656 C163.685605,13.8772914 163.459516,13.7965736 163.249577,13.7158559 Z M168.11048,17.9293234 C168.126629,17.8486056 168.158927,17.7678879 168.175076,17.6871701 L164.767599,14.2647367 C164.606108,14.2001624 164.428467,14.1355882 164.266975,14.0871576 L168.11048,17.9293234 Z M165.15518,14.4100287 L168.207375,17.4611603 C168.223524,17.3965861 168.223524,17.3158684 168.223524,17.2512942 L168.223524,17.2351506 L165.575058,14.5876078 L165.15518,14.4100287 Z M168.207375,16.9929973 L168.158927,16.750844 L166.350219,14.9427659 C166.237175,14.8781917 166.107982,14.8297611 165.978788,14.7651868 L168.207375,16.9929973 Z M173.504305,16.750844 L171.679448,14.9266224 C171.905537,15.5400774 172.03473,16.2342502 172.03473,17.0414279 C172.03473,17.4450168 172.002431,17.8324621 171.937835,18.2199074 L175.135372,21.416331 C175.151521,21.2548955 175.151521,21.09346 175.151521,20.9320244 C175.151521,19.14009 174.667046,17.9131798 173.504305,16.750844 Z M168.029734,16.3795422 C167.803645,15.9436663 167.399916,15.5723645 166.883142,15.2494934 L168.029734,16.3795422 Z M175.119223,21.6261973 L171.905537,18.41363 C171.744045,19.1562335 171.469509,19.8504063 171.081928,20.4638614 L174.473256,23.8540077 C174.812389,23.1759784 175.038477,22.4333749 175.119223,21.6261973 Z M173.326664,25.3553582 C173.746543,24.9517693 174.101825,24.4997498 174.376361,23.9992997 L170.985034,20.6091534 C170.678199,21.09346 170.306768,21.5131924 169.87074,21.9006377 L173.326664,25.3553582 Z M168.530358,22.8046767 L172.03473,26.3239714 C172.470758,26.0656746 172.858338,25.7912341 173.21362,25.4683631 L169.741547,21.997499 C169.370116,22.3042265 168.966386,22.5786669 168.530358,22.8046767 Z M158.049541,22.7401025 L160.63341,25.3230711 C160.875648,25.5006502 161.117885,25.6782293 161.392421,25.8396648 L158.46942,22.9338251 L158.049541,22.7401025 Z M167.173827,23.3858446 L170.694348,26.9051394 C171.114227,26.7598474 171.517956,26.5984119 171.889387,26.3885456 L168.385015,22.8853944 C168.013584,23.0791171 167.609855,23.2566962 167.173827,23.3858446 Z M158.873149,23.0952607 L161.909195,26.1302488 C162.086836,26.2109666 162.264477,26.3078279 162.458267,26.3885456 L159.325326,23.2566962 L158.873149,23.0952607 Z M159.664459,23.3535575 L162.845847,26.5499812 C163.039637,26.6145554 163.249577,26.6952732 163.459516,26.7598474 L160.197382,23.4988495 L159.664459,23.3535575 Z M165.865744,23.7087157 L169.370116,27.2118671 C169.773845,27.1472928 170.161426,27.0665751 170.516707,26.95357 L167.012335,23.4504188 C166.640904,23.5472802 166.269473,23.6441415 165.865744,23.7087157 Z M160.504217,23.5795672 L163.7825,26.8567087 C164.008588,26.9212829 164.234677,26.9858571 164.476915,27.0342878 L161.134034,23.6925722 C160.924095,23.660285 160.714156,23.6118544 160.504217,23.5795672 Z M161.40857,23.7410028 L164.75145,27.0827186 C165.009837,27.1311489 165.252075,27.1795797 165.510462,27.2118671 L162.135284,23.8217206 C161.876896,23.805577 161.650808,23.7732899 161.40857,23.7410028 Z M169.160176,27.244154 L165.671954,23.7410028 C165.332821,23.805577 164.977539,23.8378641 164.622257,23.8701512 L168.094331,27.3410152 C168.465762,27.3248717 168.821043,27.2925848 169.160176,27.244154 Z M162.39367,23.8540077 L165.801147,27.244154 C166.091832,27.2764409 166.366368,27.3087283 166.657053,27.3248717 L163.217278,23.8862948 C162.942742,23.8862948 162.668206,23.8701512 162.39367,23.8540077 Z M166.883142,27.3248717 C167.173827,27.3410152 167.480662,27.3410152 167.771347,27.3410152 L167.852093,27.3410152 L164.396168,23.8701512 C164.218527,23.8862948 164.057036,23.8862948 163.879395,23.8862948 L163.443367,23.8862948 L166.883142,27.3248717 Z M193.755397,20.0602725 L197.776542,24.0800174 L197.776542,27.4540203 L182.241032,27.4540203 L178.219886,23.4342753 L178.219886,0.510428752 L193.287071,0.510428752 L197.308216,4.53017368 L197.308216,7.7104538 L185.858448,7.7104538 L185.842299,10.018982 L191.446064,10.018982 L195.46721,14.0387269 L195.46721,17.2835812 L185.842299,17.2835812 L185.842299,20.0602725 L193.755397,20.0602725 Z M196.856039,4.72389632 L193.416264,1.28531934 L193.416264,3.98129282 L196.856039,7.25843426 L196.856039,4.72389632 Z M185.729255,7.25843426 L182.305629,3.98129282 L182.063391,3.98129282 L185.487017,7.25843426 L185.729255,7.25843426 Z M186.375222,7.25843426 L182.935447,3.98129282 L182.547867,3.98129282 L185.971492,7.25843426 L186.375222,7.25843426 Z M187.182681,7.25843426 L183.742906,3.98129282 L183.177685,3.98129282 L186.61746,7.25843426 L187.182681,7.25843426 Z M188.151632,7.25843426 L184.728006,3.98129282 L183.985143,3.98129282 L187.424919,7.25843426 L188.151632,7.25843426 Z M189.443566,7.25843426 L185.987642,3.98129282 L184.970243,3.98129282 L188.393869,7.25843426 L189.443566,7.25843426 Z M190.7355,7.25843426 L187.279576,3.98129282 L186.246028,3.98129282 L189.685804,7.25843426 L190.7355,7.25843426 Z M192.075882,7.25843426 L188.636107,3.98129282 L187.537963,3.98129282 L190.977738,7.25843426 L192.075882,7.25843426 Z M193.367817,7.25843426 L189.960339,3.98129282 L188.878345,3.98129282 L192.31812,7.25843426 L193.367817,7.25843426 Z M194.498259,7.25843426 L191.074633,3.98129282 L190.186428,3.98129282 L193.626203,7.25843426 L194.498259,7.25843426 Z M195.46721,7.25843426 L192.043584,3.98129282 L191.300722,3.98129282 L194.756646,7.25843426 L195.46721,7.25843426 Z M196.113177,7.25843426 L192.7057,3.98129282 L192.269672,3.98129282 L195.725597,7.25843426 L196.113177,7.25843426 Z M196.597652,7.25843426 L193.190175,3.98129282 L192.931789,3.98129282 L196.371563,7.25843426 L196.597652,7.25843426 Z M181.950347,8.69521057 L182.741657,9.45395761 L182.612463,9.56696247 L181.950347,8.93736388 L181.950347,10.018982 L185.390122,10.018982 L185.390122,7.38758271 L181.950347,4.11044128 L181.950347,4.78847054 L184.937945,7.64587957 L184.792602,7.74274089 L181.950347,5.03062381 L181.950347,5.77322731 L184.388873,8.09789907 L184.24353,8.21090393 L181.950347,5.99923708 L181.950347,6.74184053 L183.839801,8.54991857 L183.694458,8.66292348 L181.950347,6.98399385 L181.950347,7.72659734 L183.290729,9.00193811 L183.161535,9.11494297 L181.950347,7.95260707 L181.950347,8.69521057 Z M191.575257,10.7938726 L191.575257,13.5544203 L191.559108,13.5544203 L195.015033,16.8315617 L195.015033,14.2324496 L191.575257,10.7938726 Z M185.503166,16.8315617 L185.793852,16.8315617 L182.354076,13.5544203 L182.063391,13.5544203 L185.503166,16.8315617 Z M182.596314,13.5544203 L186.036089,16.8315617 L186.60131,16.8315617 L183.177685,13.5544203 L182.596314,13.5544203 Z M183.419922,13.5544203 L186.843548,16.8315617 L187.731753,16.8315617 L184.275828,13.5544203 L183.419922,13.5544203 Z M184.534216,13.5544203 L187.973991,16.8315617 L189.185179,16.8315617 L185.761553,13.5544203 L184.534216,13.5544203 Z M190.7355,16.8315617 L187.328024,13.5544203 L186.003791,13.5544203 L189.427417,16.8315617 L190.7355,16.8315617 Z M192.285821,16.8315617 L188.846046,13.5544203 L187.554112,13.5544203 L190.993887,16.8315617 L192.285821,16.8315617 Z M193.400115,16.8315617 L189.992638,13.5544203 L189.088284,13.5544203 L192.528059,16.8315617 L193.400115,16.8315617 Z M194.207574,16.8315617 L190.783948,13.5544203 L190.218727,13.5544203 L193.658502,16.8315617 L194.207574,16.8315617 Z M191.010036,13.5544203 L194.46596,16.8315617 L194.756646,16.8315617 L191.33302,13.5544203 L191.010036,13.5544203 Z M181.950347,19.2853819 L182.370226,19.6889708 L182.241032,19.8181192 L181.950347,19.5436788 L181.950347,20.0602725 L185.390122,20.0602725 L185.390122,16.9445666 L181.950347,13.6674252 L181.950347,14.3777415 L184.937945,17.2512942 L184.824901,17.364299 L181.950347,14.6198948 L181.950347,15.3786419 L184.437321,17.7517443 L184.308127,17.8647492 L181.950347,15.6046517 L181.950347,16.3472551 L183.920547,18.2360509 L183.791353,18.3490558 L181.950347,16.5894084 L181.950347,17.3320119 L183.403773,18.7203576 L183.27458,18.8333624 L181.950347,17.5741652 L181.950347,18.3167687 L182.886999,19.2046642 L182.757806,19.317669 L181.950347,18.5427785 L181.950347,19.2853819 Z M193.88459,20.8351631 L193.88459,23.5634237 L197.324365,27.0020007 L197.324365,24.2737401 L193.88459,20.8351631 Z M180.561518,23.5634237 L178.995047,23.5634237 L182.434822,27.0020007 L184.001293,27.0020007 L180.561518,23.5634237 Z M182.192585,23.5634237 L180.787606,23.5634237 L184.227381,27.0020007 L185.648509,27.0020007 L182.192585,23.5634237 Z M182.418673,23.5634237 L185.874597,27.0020007 L187.134233,27.0020007 L183.678309,23.5634237 L182.418673,23.5634237 Z M183.904397,23.5634237 L187.360322,27.0020007 L188.474615,27.0020007 L185.03484,23.5634237 L183.904397,23.5634237 Z M186.246028,23.5634237 L185.260929,23.5634237 L188.700704,27.0020007 L189.701953,27.0020007 L186.246028,23.5634237 Z M190.800097,27.0020007 L187.360322,23.5634237 L186.472117,23.5634237 L189.928041,27.0020007 L190.800097,27.0020007 Z M187.58641,23.5634237 L191.026185,27.0020007 L191.801346,27.0020007 L188.361571,23.5634237 L187.58641,23.5634237 Z M188.58766,23.5634237 L192.027434,27.0020007 L192.721849,27.0020007 L189.265925,23.5634237 L188.58766,23.5634237 Z M189.492013,23.5634237 L192.947938,27.0020007 L193.545457,27.0020007 L190.089533,23.5634237 L189.492013,23.5634237 Z M190.315621,23.5634237 L193.771546,27.0020007 L194.28832,27.0020007 L190.832395,23.5634237 L190.315621,23.5634237 Z M191.058484,23.5634237 L194.514408,27.0020007 L194.966585,27.0020007 L191.510661,23.5634237 L191.058484,23.5634237 Z M191.73675,23.5634237 L195.192673,27.0020007 L195.580254,27.0020007 L192.12433,23.5634237 L191.73675,23.5634237 Z M192.350418,23.5634237 L195.806343,27.0020007 L196.129326,27.0020007 L192.689551,23.5634237 L192.350418,23.5634237 Z M192.915639,23.5634237 L196.355414,27.0020007 L196.6461,27.0020007 L193.190175,23.5634237 L192.915639,23.5634237 Z M193.416264,23.5634237 L196.872188,27.0020007 L197.098277,27.0020007 L193.642352,23.5634237 L193.416264,23.5634237 Z" id="DeFi-Pulse"></path>
            </g>
        </g>
    </g>
</svg>