<?xml version="1.0" encoding="UTF-8"?>
<svg width="240px" height="60px" viewBox="0 0 240 60" version="1.1" xmlns="http://www.w3.org/2000/svg" xmlns:xlink="http://www.w3.org/1999/xlink">
    <title>1-yearn.finance</title>
    <g id="控件" stroke="none" stroke-width="1" fill="none" fill-rule="evenodd">
        <g id="编组-19备份" transform="translate(0.000000, 45.000000)" fill="#D4D9E0">
            <g id="编组-20备份-3" transform="translate(17.000000, -35.000000)">
                <text id="yearn.finance" font-family="HomepageBaukasten-Book, HomepageBaukasten" font-size="24.0384615" font-weight="300">
                    <tspan x="48.0448718" y="29.1794872">yearn.finance</tspan>
                </text>
                <g id="形状结合" transform="translate(0.000000, 0.389010)">
                    <path d="M39.2116828,18.843712 C39.5952817,29.4273025 31.0626722,38.3325283 20.7498293,38.8288194 C9.82840104,39.3544773 0.40659005,30.5952897 0.452781514,19.5782801 C0.391389345,9.52997721 8.15879059,0.610267004 18.8331875,0.0936817776 C30.100571,-0.451553993 38.8300734,8.31487581 39.2116828,18.843712 Z M19.5816033,1.78669018 C9.64471922,1.85600858 1.89490623,10.1302061 2.12100677,19.9053738 C2.33898966,29.3299703 10.2151834,37.3827628 20.1922578,37.1600048 C29.9216643,36.9426586 37.6100378,29.0734683 37.4931276,19.237657 C37.3769337,9.46957232 29.339899,1.65442016 19.5816033,1.78669018 Z M21.6199304,19.8881357 C22.5014121,20.5826727 23.4873092,21.1813099 24.2408185,21.9950649 C27.471804,25.4848603 25.7464841,30.9798755 21.3729786,32.3059978 C18.4206196,33.2011681 15.3435512,31.9434888 13.9282143,29.3036595 C12.9580751,27.4942185 12.839812,25.6511131 13.8445706,23.8006859 C13.9073631,23.6851287 13.9563873,23.5619313 14.0070033,23.4402461 C14.0145639,23.4220212 13.9952248,23.3925748 13.9744531,23.3198342 C13.2188746,23.4677029 12.4593168,23.6165265 11.6296448,23.7789592 C11.5226032,23.2401698 11.403783,22.706633 11.3278591,22.1670478 C11.3195027,22.1075183 11.5475133,21.971667 11.681375,21.9425389 C12.2233478,21.8250717 12.7731199,21.7439747 13.316764,21.6336701 C14.4566577,21.4025557 15.5974268,21.1741472 16.7312721,20.9161332 C17.0447568,20.8447456 17.132141,20.9462958 17.16875,21.2245244 C17.3531481,22.6257748 17.5452659,24.0260701 17.7363491,25.4265247 L17.8358361,26.0799162 C17.8507744,26.1889033 17.8632074,26.2980583 17.8706088,26.407567 C17.8784081,26.5227263 17.7996987,26.7359341 17.7303007,26.7494635 C17.2176151,26.8495813 16.6972894,26.9104637 16.139718,26.9893323 C16.0054583,26.03702 15.8776451,25.1311057 15.7499114,24.2251914 C15.1762638,25.0574101 14.81853,25.9151756 14.9802464,26.9324291 C15.2978695,28.9301679 17.0235873,30.6095672 19.1013884,30.7785259 C21.4459579,30.9692112 23.1704819,29.4914002 23.8164721,27.8599905 C24.5458672,26.0177605 23.9344964,23.7710007 22.3083393,22.6412939 C21.6555844,22.1877398 21.332072,21.7133346 21.4543143,20.9232958 C21.5058853,20.5906312 21.4629891,20.2433229 21.4629891,19.8956963 C21.5487815,19.8902845 21.598522,19.8712638 21.6199304,19.8881357 Z M20.6695841,11.6152036 C20.6573119,14.0106278 20.6601769,16.4062112 20.6584261,18.8017947 C20.6581873,19.0399921 20.6583465,19.2781895 20.6579486,19.516387 C20.6575506,22.1105346 20.6517409,24.7046026 20.6643949,27.298591 C20.6661458,27.6513906 20.5860039,27.8146987 20.202962,27.7716433 C19.9285535,27.7409236 19.6479373,27.7669478 19.3699474,27.7665499 C18.8399124,27.7656745 18.8392757,27.7653561 18.8392757,27.2511584 C18.8395144,24.9747931 18.8403103,22.6983482 18.8407082,20.4219829 C18.8411857,17.536714 18.8414245,14.6515246 18.8416632,11.7662556 C18.8417428,11.2116289 18.8414245,11.2125043 19.3772692,11.2176773 C19.6683906,11.2204628 19.9607057,11.2363002 20.250315,11.2157673 C20.5555229,11.1940406 20.6711596,11.2945563 20.6695841,11.6152036 Z M25.7600056,11.393138 C25.9927117,12.5678103 25.9593656,13.7358771 25.5453653,14.87593 C25.5111438,14.9700788 25.4897355,15.0689232 25.4476351,15.2179856 C25.5820539,15.1944285 25.6685626,15.191086 25.7467945,15.1636292 C26.3083452,14.9663384 26.8698959,14.7690475 27.4274673,14.5610127 C27.640118,14.4815871 27.7718309,14.5037117 27.8508586,14.7437396 C27.9749314,15.1202555 28.1411046,15.4835603 28.2500562,15.8636575 C28.2787864,15.9640936 28.1924368,16.186772 28.1096686,16.2166163 C26.3446359,16.8528971 24.5724406,17.4696796 22.7523352,18.1074726 C22.6168818,17.6657767 22.4760166,17.231721 22.35075,16.7932881 C21.9692203,15.4580135 21.60122,14.1188394 21.2094238,12.7866686 C21.1293614,12.5144089 21.1992369,12.3912115 21.455341,12.3238032 C21.8133136,12.2295747 22.1698537,12.1295366 22.5248817,12.0246438 C22.7536881,11.9570762 22.8657436,12.0387303 22.9265464,12.2663429 C23.1074427,12.943212 23.3020277,13.6164202 23.4943047,14.2901855 C23.5258203,14.4004901 23.5726162,14.5064175 23.6122494,14.6144142 L23.7635402,14.6214972 C23.8658863,14.2472097 24.002056,13.8784931 24.0651668,13.4976796 C24.5191187,10.7594039 22.4784837,8.24420446 19.7098861,8.11320781 C17.887234,8.02693784 16.0832048,9.15648554 15.3324014,10.8541894 C14.5909094,12.5307238 14.9390931,14.5933242 16.2262983,15.8614291 C16.6654475,16.2940523 17.1809185,16.6540146 17.685566,17.0132606 C17.9542445,17.2045825 18.0606494,17.4135723 18.0464037,17.7405865 C18.0218916,18.3034901 18.0395594,18.8683037 18.0395594,19.5213769 C17.1880016,18.8909058 16.4112535,18.3073101 15.625194,17.7366072 C14.9824668,17.2700013 14.4724075,16.6862464 14.0650923,16.011367 C12.3873642,13.2312296 13.0681329,9.65683546 15.6468411,7.68432508 C19.3818374,4.82714958 24.8563197,6.83117555 25.7600056,11.393138 Z"></path>
                </g>
            </g>
        </g>
    </g>
</svg>