<?xml version="1.0" encoding="UTF-8"?>
<svg width="240px" height="60px" viewBox="0 0 240 60" version="1.1" xmlns="http://www.w3.org/2000/svg" xmlns:xlink="http://www.w3.org/1999/xlink">
    <title>3-bandprotocal</title>
    <g id="控件" stroke="none" stroke-width="1" fill="none" fill-rule="evenodd">
        <g id="编组-19备份" transform="translate(-769.000000, 28.000000)" fill="#D4D9E0" fill-rule="nonzero">
            <g id="logo-with-name.956e563a备份" transform="translate(789.000000, -16.000000)">
                <path d="M18.051464,0.34638975 C8.35397668,0.34638975 0.492869239,8.194575 0.492869239,17.87625 C0.492869239,27.557925 8.35397668,35.40615 18.051464,35.40615 C27.7490264,35.40615 35.6100874,27.557925 35.6100874,17.87625 C35.6100874,8.1948 27.7488013,0.34638975 18.051464,0.34638975 Z M25.272515,25.197825 L17.935965,29.433825 L17.935965,29.435325 L17.9328881,29.435325 L10.5917602,25.197825 L10.5917602,10.539525 L10.5993401,10.5441 L17.9298862,6.3171675 L22.6349503,8.938275 L22.6364512,8.938275 L22.6364512,15.5556 L20.3470346,14.2428 L20.3470346,10.257225 L17.9328881,8.883675 L12.8796759,11.800725 L12.8796759,23.951775 L17.9328881,26.868825 L22.9861002,23.96085 L23.0104158,18.9675 L15.8304162,14.8089 L18.1365686,13.597725 L25.2907516,17.7624 L25.272515,25.199325 L25.272515,25.197825 Z M19.3163243,17.3997 L21.0843069,18.41505 L15.8304162,21.401925 L15.8304162,15.379575 L17.6759985,16.46625 L17.6759985,18.2739 L19.3178253,17.3997 L19.3163243,17.3997 Z" id="形状"></path>
                <path d="M46.805009,8.347875 L53.5183597,8.347875 C54.1669251,8.347875 54.8074605,8.42475 55.4398906,8.578575 C56.0723208,8.7324 56.6357817,8.98335 57.1303486,9.33135 C57.6249904,9.679425 58.0262725,10.128675 58.3344199,10.6791 C58.6424923,11.2296 58.796566,11.89335 58.796566,12.670425 C58.796566,13.64175 58.5209144,14.443125 57.9695362,15.074475 C57.418233,15.7059 56.6966457,16.1592 55.8047744,16.434375 L55.8047744,16.482975 C56.3398672,16.5477 56.8384866,16.697475 57.3006326,16.932225 C57.7627787,17.166975 58.1560306,17.46645 58.4803134,17.830725 C58.8046712,18.195 59.0600598,18.6159 59.2465542,19.0935 C59.4330487,19.571025 59.5262584,20.085075 59.5262584,20.6355 C59.5262584,21.5745 59.3397639,22.35555 58.966775,22.978875 C58.5938611,23.602125 58.1033469,24.104025 57.4952323,24.4845 C56.8871177,24.8649 56.1898461,25.1361 55.4034173,25.29795 C54.6169134,25.459875 53.8183268,25.5408 53.0075074,25.5408 L46.805009,25.5408 L46.805009,8.347875 Z M49.8697473,15.341625 L52.6670143,15.341625 C53.6885687,15.341625 54.4548096,15.143325 54.9655868,14.74665 C55.476364,14.35005 55.7317526,13.8279 55.7317526,13.18035 C55.7317526,12.435675 55.4682588,11.8812 54.9412712,11.516925 C54.4142086,11.15265 53.5669908,10.97055 52.3994679,10.97055 L49.8697473,10.97055 L49.8697473,15.341625 Z M49.8697473,22.9182 L52.6913299,22.9182 C53.0805292,22.9182 53.4980216,22.8939 53.9439573,22.8453 C54.389893,22.796775 54.7993553,22.68345 55.1723442,22.505325 C55.5452581,22.327275 55.8534055,22.072275 56.0966363,21.7404 C56.3398672,21.408525 56.461445,20.959275 56.461445,20.39265 C56.461445,19.48605 56.1655305,18.8547 55.5737013,18.498525 C54.9817972,18.14235 54.0615576,17.9643 52.8129077,17.9643 L49.8697473,17.9643 L49.8697473,22.9182 Z M69.2314007,23.93805 L69.1583789,23.93805 C68.7367588,24.601875 68.201666,25.08345 67.5530255,25.383 C66.904385,25.682475 66.1909029,25.83225 65.4125793,25.83225 C64.8774114,25.83225 64.3544764,25.75935 63.8436992,25.6137 C63.332922,25.467975 62.8788812,25.249425 62.4815766,24.957975 C62.0842721,24.6666 61.764042,24.302325 61.5208112,23.865225 C61.2775803,23.428125 61.1559274,22.9182 61.1559274,22.335375 C61.1559274,21.70395 61.2694751,21.165675 61.4964956,20.720475 C61.723516,20.275275 62.0275358,19.9029 62.4086299,19.603425 C62.789649,19.30395 63.2315321,19.06515 63.7342041,18.887025 C64.2369512,18.708975 64.7598862,18.5754 65.3030841,18.486375 C65.8463572,18.39735 66.3936077,18.34065 66.944986,18.31635 C67.4962891,18.292125 68.0151715,18.279975 68.5016332,18.279975 L69.2314007,18.279975 L69.2314007,17.9643 C69.2314007,17.23575 68.9800647,16.689375 68.4773176,16.3251 C67.9746456,15.960825 67.3341102,15.778725 66.5557866,15.778725 C65.9395669,15.778725 65.3639481,15.888 64.8287803,16.10655 C64.2936875,16.3251 63.8315414,16.6206 63.4423421,16.9929 L61.9099354,15.46305 C62.558576,14.7993 63.3167116,14.3217 64.1841924,14.030325 C65.0517481,13.738875 65.9476721,13.593225 66.8719642,13.593225 C67.698994,13.593225 68.3962657,13.6863 68.9637792,13.87245 C69.5313678,14.0586 70.0016191,14.2974 70.374608,14.58885 C70.7475219,14.880225 71.0354063,15.21615 71.2380362,15.596625 C71.440741,15.977025 71.5867095,16.36155 71.6758666,16.75005 C71.7650988,17.138625 71.8177825,17.51505 71.8339929,17.87925 C71.8502033,18.243525 71.8583085,18.56325 71.8583085,18.8385 L71.8583085,25.5408 L69.2314007,25.5408 L69.2314007,23.93805 Z M69.0611166,20.319825 L68.453002,20.319825 C68.0475923,20.319825 67.5935514,20.336025 67.0908794,20.36835 C66.5882074,20.40075 66.1139036,20.477625 65.6679679,20.59905 C65.2220322,20.720475 64.8449907,20.898525 64.5369183,21.133275 C64.228846,21.368025 64.0747723,21.69585 64.0747723,22.116825 C64.0747723,22.392 64.1355612,22.6227 64.2572141,22.808925 C64.378792,22.995075 64.5369183,23.152875 64.731518,23.2824 C64.9261176,23.411925 65.1450329,23.505 65.3882637,23.5617 C65.6314945,23.618325 65.8747253,23.646675 66.1179562,23.646675 C67.1233002,23.646675 67.8652255,23.407875 68.3435819,22.930275 C68.8219384,22.45275 69.0611166,21.80115 69.0611166,20.975475 L69.0611166,20.319825 Z M74.6311849,13.8846 L77.4038361,13.8846 L77.4038361,15.754425 L77.4526173,15.754425 C77.7287942,15.1716 78.1498139,14.665725 78.7179279,14.236725 C79.2852913,13.807725 80.0552846,13.593225 81.0286582,13.593225 C81.8069067,13.593225 82.4673298,13.722675 83.0106779,13.981725 C83.554026,14.240775 83.9960591,14.58075 84.3360269,15.00165 C84.6767452,15.42255 84.919901,15.90825 85.0662447,16.458675 C85.211838,17.0091 85.2846346,17.583825 85.2846346,18.18285 L85.2846346,25.5408 L82.3660149,25.5408 L82.3660149,19.639875 C82.3660149,19.3161 82.3502548,18.955875 82.3172337,18.5592 C82.284963,18.1626 82.2001587,17.790225 82.0620702,17.44215 C81.9239817,17.094075 81.7093442,16.8027 81.4174072,16.56795 C81.1254702,16.3332 80.7284659,16.215825 80.2256438,16.215825 C79.7393322,16.215825 79.3295697,16.29675 78.9971067,16.458675 C78.6646438,16.6206 78.3892173,16.83915 78.1700769,17.114325 C77.951687,17.389575 77.7933356,17.70525 77.6957731,18.061425 C77.5989611,18.4176 77.5501798,18.7899 77.5501798,19.178475 L77.5501798,25.5408 L74.6311849,25.5408 L74.6311849,13.8846 Z M97.4709413,23.7924 L97.4221601,23.7924 C97.0011404,24.504675 96.4330264,25.022775 95.7200697,25.34655 C95.0063625,25.670325 94.2363692,25.83225 93.4093394,25.83225 C92.5012577,25.83225 91.6944909,25.674375 90.9890389,25.3587 C90.283587,25.043025 89.67945,24.609975 89.1766279,24.059475 C88.6738058,23.50905 88.293312,22.8615 88.0336457,22.116825 C87.7739793,21.372075 87.6441462,20.570775 87.6441462,19.7127 C87.6441462,18.8547 87.7822346,18.053325 88.0576611,17.308575 C88.333838,16.5639 88.7188346,15.91635 89.2134014,15.365925 C89.7079683,14.8155 90.30385,14.38245 91.0010466,14.0667 C91.6982433,13.751025 92.4607317,13.593225 93.2877615,13.593225 C93.8386144,13.593225 94.324926,13.64985 94.7466962,13.763175 C95.1684663,13.8765 95.5414553,14.022225 95.865663,14.200275 C96.1898707,14.3784 96.4660476,14.5686 96.6926928,14.77095 C96.9200885,14.9733 97.1062077,15.1716 97.251801,15.365925 L97.3253481,15.365925 L97.3253481,7.1822625 L100.243968,7.1822625 L100.243968,25.5408 L97.4709413,25.5408 L97.4709413,23.7924 Z M90.5635163,19.7127 C90.5635163,20.166 90.6400654,20.6031 90.7939139,21.024 C90.948513,21.444975 91.1751582,21.817275 91.4753505,22.14105 C91.7755428,22.4649 92.1357736,22.723875 92.5575438,22.9182 C92.9793139,23.11245 93.4573702,23.209575 93.992463,23.209575 C94.5275558,23.209575 95.0063625,23.11245 95.4281327,22.9182 C95.8491524,22.723875 96.2101337,22.4649 96.510326,22.14105 C96.8105183,21.817275 97.0371635,21.444975 97.191012,21.024 C97.3456111,20.6031 97.4221601,20.166 97.4221601,19.7127 C97.4221601,19.2594 97.3456111,18.8223 97.191012,18.4014 C97.0371635,17.980425 96.8105183,17.608125 96.510326,17.28435 C96.2101337,16.960575 95.8491524,16.701525 95.4281327,16.507275 C95.0063625,16.31295 94.5275558,16.215825 93.992463,16.215825 C93.4573702,16.215825 92.9793139,16.31295 92.5575438,16.507275 C92.1357736,16.701525 91.7755428,16.960575 91.4753505,17.28435 C91.1751582,17.608125 90.948513,17.980425 90.7939139,18.4014 C90.6400654,18.8223 90.5635163,19.2594 90.5635163,19.7127 Z M110.289903,8.347875 L116.078362,8.347875 C116.905391,8.347875 117.703903,8.4288 118.474647,8.590725 C119.24464,8.75265 119.921574,9.023775 120.505448,9.40425 C121.089322,9.78465 121.55537,10.29465 121.904344,10.9341 C122.252567,11.573625 122.427429,12.370875 122.427429,13.326075 C122.427429,14.410725 122.240559,15.284925 121.86757,15.94875 C121.494581,16.6125 120.991759,17.126475 120.359854,17.49075 C119.727199,17.855025 118.993229,18.10185 118.157944,18.231375 C117.323409,18.3609 116.45135,18.4257 115.543269,18.4257 L113.354116,18.4257 L113.354116,25.5408 L110.289903,25.5408 L110.289903,8.347875 Z M115.203301,15.803025 C115.640831,15.803025 116.094872,15.786825 116.565424,15.754425 C117.035225,15.7221 117.469002,15.6249 117.866757,15.46305 C118.263762,15.301125 118.587969,15.058275 118.83938,14.7345 C119.090791,14.410725 119.216122,13.957425 119.216122,13.3746 C119.216122,12.840375 119.102799,12.415425 118.876154,12.09975 C118.648758,11.784075 118.356821,11.541225 118.000343,11.3712 C117.643114,11.20125 117.24611,11.091975 116.808579,11.043375 C116.370299,10.99485 115.949279,10.97055 115.543269,10.97055 L113.354116,10.97055 L113.354116,15.803025 L115.203301,15.803025 Z M124.519019,13.8846 L127.437638,13.8846 L127.437638,15.730125 L127.48642,15.730125 C127.810627,15.050175 128.272924,14.52405 128.872558,14.15175 C129.472942,13.779375 130.161884,13.593225 130.940132,13.593225 C131.118747,13.593225 131.292858,13.60935 131.463217,13.64175 C131.633576,13.67415 131.807688,13.714575 131.986302,13.763175 L131.986302,16.5801 C131.743147,16.515375 131.503743,16.462725 131.268843,16.422225 C131.033942,16.3818 130.802794,16.36155 130.575399,16.36155 C129.894712,16.36155 129.346862,16.487025 128.933347,16.737975 C128.519832,16.98885 128.203879,17.27625 127.984739,17.600025 C127.766349,17.9238 127.620005,18.247575 127.547209,18.57135 C127.474412,18.895125 127.437638,19.137975 127.437638,19.2999 L127.437638,25.5408 L124.519019,25.5408 L124.519019,13.8846 Z M132.594192,19.7127 C132.594192,18.7899 132.760799,17.95215 133.093262,17.1993 C133.425725,16.446525 133.875262,15.803025 134.442626,15.2688 C135.01074,14.7345 135.683171,14.3217 136.46217,14.030325 C137.240418,13.738875 138.067448,13.593225 138.942509,13.593225 C139.81832,13.593225 140.64535,13.738875 141.423598,14.030325 C142.201847,14.3217 142.875028,14.7345 143.442391,15.2688 C144.010505,15.803025 144.460043,16.446525 144.792506,17.1993 C145.124969,17.95215 145.291576,18.7899 145.291576,19.7127 C145.291576,20.6355 145.124969,21.47325 144.792506,22.2261 C144.460043,22.978875 144.010505,23.622375 143.442391,24.156675 C142.875028,24.6909 142.201847,25.1037 141.423598,25.39515 C140.64535,25.686525 139.81832,25.83225 138.942509,25.83225 C138.067448,25.83225 137.240418,25.686525 136.46217,25.39515 C135.683171,25.1037 135.01074,24.6909 134.442626,24.156675 C133.875262,23.622375 133.425725,22.978875 133.093262,22.2261 C132.760799,21.47325 132.594192,20.6355 132.594192,19.7127 Z M135.513562,19.7127 C135.513562,20.166 135.590111,20.6031 135.74396,21.024 C135.898559,21.444975 136.125204,21.817275 136.425396,22.14105 C136.725588,22.4649 137.085819,22.723875 137.507589,22.9182 C137.92936,23.11245 138.407416,23.209575 138.942509,23.209575 C139.477601,23.209575 139.956408,23.11245 140.378178,22.9182 C140.799198,22.723875 141.160179,22.4649 141.460372,22.14105 C141.760564,21.817275 141.987209,21.444975 142.141058,21.024 C142.295657,20.6031 142.372206,20.166 142.372206,19.7127 C142.372206,19.2594 142.295657,18.8223 142.141058,18.4014 C141.987209,17.980425 141.760564,17.608125 141.460372,17.28435 C141.160179,16.960575 140.799198,16.701525 140.378178,16.507275 C139.956408,16.31295 139.477601,16.215825 138.942509,16.215825 C138.407416,16.215825 137.92936,16.31295 137.507589,16.507275 C137.085819,16.701525 136.725588,16.960575 136.425396,17.28435 C136.125204,17.608125 135.898559,17.980425 135.74396,18.4014 C135.590111,18.8223 135.513562,19.2594 135.513562,19.7127 Z M146.288214,16.36155 L146.288214,13.8846 L148.696507,13.8846 L148.696507,10.50915 L151.615127,10.50915 L151.615127,13.8846 L154.826434,13.8846 L154.826434,16.36155 L151.615127,16.36155 L151.615127,21.4611 C151.615127,22.043925 151.724697,22.505325 151.943838,22.8453 C152.162978,23.185275 152.596756,23.3553 153.245171,23.3553 C153.504838,23.3553 153.788519,23.32695 154.096216,23.27025 C154.404664,23.213625 154.64782,23.12055 154.826434,22.991025 L154.826434,25.443675 C154.517987,25.5894 154.141245,25.690575 153.69546,25.7472 C153.248924,25.8039 152.855672,25.83225 152.515704,25.83225 C151.736705,25.83225 151.100297,25.7472 150.60573,25.57725 C150.111163,25.407225 149.722414,25.14825 149.438733,24.800175 C149.1543,24.4521 148.959926,24.01905 148.854859,23.50095 C148.749041,22.982925 148.696507,22.3839 148.696507,21.70395 L148.696507,16.36155 L146.288214,16.36155 Z M156.163791,19.7127 C156.163791,18.7899 156.330398,17.95215 156.662861,17.1993 C156.995324,16.446525 157.444862,15.803025 158.012225,15.2688 C158.580339,14.7345 159.25277,14.3217 160.031018,14.030325 C160.810017,13.738875 161.637047,13.593225 162.512108,13.593225 C163.387919,13.593225 164.214949,13.738875 164.993197,14.030325 C165.771446,14.3217 166.444627,14.7345 167.01199,15.2688 C167.580104,15.803025 168.029642,16.446525 168.362105,17.1993 C168.694568,17.95215 168.861175,18.7899 168.861175,19.7127 C168.861175,20.6355 168.694568,21.47325 168.362105,22.2261 C168.029642,22.978875 167.580104,23.622375 167.01199,24.156675 C166.444627,24.6909 165.771446,25.1037 164.993197,25.39515 C164.214949,25.686525 163.387919,25.83225 162.512108,25.83225 C161.637047,25.83225 160.810017,25.686525 160.031018,25.39515 C159.25277,25.1037 158.580339,24.6909 158.012225,24.156675 C157.444862,23.622375 156.995324,22.978875 156.662861,22.2261 C156.330398,21.47325 156.163791,20.6355 156.163791,19.7127 Z M159.082411,19.7127 C159.082411,20.166 159.15971,20.6031 159.313559,21.024 C159.468158,21.444975 159.694803,21.817275 159.994995,22.14105 C160.295187,22.4649 160.655418,22.723875 161.077188,22.9182 C161.498959,23.11245 161.977015,23.209575 162.512108,23.209575 C163.0472,23.209575 163.526007,23.11245 163.947777,22.9182 C164.368797,22.723875 164.729778,22.4649 165.029971,22.14105 C165.330163,21.817275 165.556808,21.444975 165.710657,21.024 C165.865256,20.6031 165.941805,20.166 165.941805,19.7127 C165.941805,19.2594 165.865256,18.8223 165.710657,18.4014 C165.556808,17.980425 165.330163,17.608125 165.029971,17.28435 C164.729778,16.960575 164.368797,16.701525 163.947777,16.507275 C163.526007,16.31295 163.0472,16.215825 162.512108,16.215825 C161.977015,16.215825 161.498959,16.31295 161.077188,16.507275 C160.655418,16.701525 160.295187,16.960575 159.994995,17.28435 C159.694803,17.608125 159.468158,17.980425 159.313559,18.4014 C159.15971,18.8223 159.082411,19.2594 159.082411,19.7127 Z M179.198297,17.381475 C178.857579,17.0253 178.5011,16.74195 178.128112,16.5315 C177.755123,16.32105 177.373878,16.215825 176.985129,16.215825 C176.450037,16.215825 175.97123,16.31295 175.55021,16.507275 C175.12844,16.701525 174.767459,16.960575 174.467266,17.28435 C174.167825,17.608125 173.940429,17.980425 173.78658,18.4014 C173.631981,18.8223 173.555432,19.2594 173.555432,19.7127 C173.555432,20.166 173.631981,20.6031 173.78658,21.024 C173.940429,21.444975 174.167825,21.817275 174.467266,22.14105 C174.767459,22.4649 175.12844,22.723875 175.55021,22.9182 C175.97123,23.11245 176.450037,23.209575 176.985129,23.209575 C177.43917,23.209575 177.86094,23.1165 178.249689,22.930275 C178.639189,22.744125 178.971652,22.473 179.247078,22.116825 L181.193075,24.2052 C180.901138,24.49665 180.564923,24.747525 180.183678,24.957975 C179.802434,25.1685 179.417438,25.33845 179.027938,25.467975 C178.639189,25.5975 178.2662,25.690575 177.908971,25.7472 C177.552493,25.8039 177.244045,25.83225 176.985129,25.83225 C176.109318,25.83225 175.282288,25.686525 174.50404,25.39515 C173.725791,25.1037 173.05261,24.6909 172.485247,24.156675 C171.917883,23.622375 171.467595,22.978875 171.135132,22.2261 C170.802669,21.47325 170.636813,20.6355 170.636813,19.7127 C170.636813,18.7899 170.802669,17.95215 171.135132,17.1993 C171.467595,16.446525 171.917883,15.803025 172.485247,15.2688 C173.05261,14.7345 173.725791,14.3217 174.50404,14.030325 C175.282288,13.738875 176.109318,13.593225 176.985129,13.593225 C177.731107,13.593225 178.480838,13.734825 179.235071,14.018175 C179.988553,14.30145 180.649727,14.7507 181.21709,15.365925 L179.198297,17.381475 Z M181.995339,19.7127 C181.995339,18.7899 182.161946,17.95215 182.494409,17.1993 C182.826872,16.446525 183.27641,15.803025 183.844524,15.2688 C184.411887,14.7345 185.085068,14.3217 185.863317,14.030325 C186.641565,13.738875 187.468595,13.593225 188.344406,13.593225 C189.219467,13.593225 190.046497,13.738875 190.824745,14.030325 C191.603744,14.3217 192.276175,14.7345 192.844289,15.2688 C193.411652,15.803025 193.86119,16.446525 194.193653,17.1993 C194.526116,17.95215 194.692723,18.7899 194.692723,19.7127 C194.692723,20.6355 194.526116,21.47325 194.193653,22.2261 C193.86119,22.978875 193.411652,23.622375 192.844289,24.156675 C192.276175,24.6909 191.603744,25.1037 190.824745,25.39515 C190.046497,25.686525 189.219467,25.83225 188.344406,25.83225 C187.468595,25.83225 186.641565,25.686525 185.863317,25.39515 C185.085068,25.1037 184.411887,24.6909 183.844524,24.156675 C183.27641,23.622375 182.826872,22.978875 182.494409,22.2261 C182.161946,21.47325 181.995339,20.6355 181.995339,19.7127 Z M184.914709,19.7127 C184.914709,20.166 184.991258,20.6031 185.145857,21.024 C185.299706,21.444975 185.526351,21.817275 185.826543,22.14105 C186.126736,22.4649 186.487717,22.723875 186.908737,22.9182 C187.330507,23.11245 187.809313,23.209575 188.344406,23.209575 C188.879499,23.209575 189.357555,23.11245 189.779325,22.9182 C190.201096,22.723875 190.561326,22.4649 190.861519,22.14105 C191.161711,21.817275 191.388356,21.444975 191.542955,21.024 C191.696804,20.6031 191.773353,20.166 191.773353,19.7127 C191.773353,19.2594 191.696804,18.8223 191.542955,18.4014 C191.388356,17.980425 191.161711,17.608125 190.861519,17.28435 C190.561326,16.960575 190.201096,16.701525 189.779325,16.507275 C189.357555,16.31295 188.879499,16.215825 188.344406,16.215825 C187.809313,16.215825 187.330507,16.31295 186.908737,16.507275 C186.487717,16.701525 186.126736,16.960575 185.826543,17.28435 C185.526351,17.608125 185.299706,17.980425 185.145857,18.4014 C184.991258,18.8223 184.914709,19.2594 184.914709,19.7127 Z M197.100265,7.1822625 L200.019636,7.1822625 L200.019636,25.5408 L197.100265,25.5408 L197.100265,7.1822625 Z" id="形状"></path>
            </g>
        </g>
    </g>
</svg>