<?xml version="1.0" encoding="UTF-8"?>
<svg width="240px" height="60px" viewBox="0 0 240 60" version="1.1" xmlns="http://www.w3.org/2000/svg" xmlns:xlink="http://www.w3.org/1999/xlink">
    <title>4-deband</title>
    <g id="控件" stroke="none" stroke-width="1" fill="none" fill-rule="evenodd">
        <g id="编组-19备份" transform="translate(0.000000, -152.000000)" fill="#D4D9E0" fill-rule="nonzero">
            <g id="mainlogo.5e06a897备份" transform="translate(47.000000, 163.000000)">
                <g id="Group">
                    <path d="M33.305642,26.4165517 C33.305642,32.6691769 28.1439884,37.737931 21.7767659,37.737931 L4.84641835e-13,37.737931 L4.84641835e-13,30.1903449 L21.7767659,30.1903449 C23.8991734,30.1903449 25.6197246,28.5007601 25.6197246,26.4165517 C25.6197246,24.3323434 23.8991734,22.6427586 21.7767659,22.6427586 L14.0908485,22.6427586 L14.0908485,15.0951724 L21.7767659,15.0951724 C23.8991734,15.0951724 25.6197246,13.4055876 25.6197246,11.3213793 C25.6197246,9.23717093 23.8991734,7.54758621 21.7767659,7.54758621 L4.84641835e-13,7.54758621 L4.84641835e-13,1.44622092e-11 L21.7767659,1.44622092e-11 C28.1439884,1.44622092e-11 33.305642,5.06875417 33.305642,11.3213793 C33.305642,14.22099 32.1955896,16.8660003 30.3700308,18.8689656 C32.1955896,20.8719307 33.305642,23.516941 33.305642,26.4165517 Z" id="Path" opacity="0.800000012"></path>
                    <path d="M2.53960787e-14,30.1903449 L18.7039939,30.1903449 C14.7310131,34.7734154 8.40555062,37.737931 1.28098623,37.737931 C0.850965822,37.737931 0.423856558,37.7271313 2.53960787e-14,37.7058276 L2.53960787e-14,30.1903449 L2.53960787e-14,30.1903449 Z M22.6221379,22.6427586 L15.3718348,22.6427586 L15.3718348,15.0951724 L22.6221379,15.0951724 C22.9077962,16.3145224 23.0577521,17.5765703 23.0577521,18.8689655 C23.0577521,20.1613607 22.9077962,21.4234086 22.6221379,22.6427586 Z M18.7039939,7.54758621 L1.37897999e-12,7.54758621 L1.37897999e-12,0.0321034108 C0.423856558,0.0107997883 0.850965822,0 1.28098623,0 C8.40555062,0 14.7310131,2.96451561 18.7039939,7.54758621 L18.7039939,7.54758621 Z" id="Shape" opacity="0.119999997"></path>
                    <path d="M4.42315037e-13,1.44790845e-11 C10.6120374,1.44790845e-11 19.2147934,8.44792362 19.2147934,18.8689655 C19.2147934,29.2900074 10.6120374,37.737931 4.42315037e-13,37.737931 L4.42315037e-13,30.1903449 C6.36722244,30.1903449 11.5288761,25.1215906 11.5288761,18.8689655 C11.5288761,12.6163403 6.36722244,7.54758621 4.42315037e-13,7.54758621 L4.42315037e-13,1.44790845e-11 Z" id="Path"></path>
                </g>
                <path d="M65.6761969,12.1365377 C65.6761969,13.7316559 65.3793626,15.1080678 64.7856851,16.2658149 C64.1920076,17.4235619 63.4090534,18.375473 62.4367989,19.1215766 C61.4645444,19.8676802 60.3675482,20.4165299 59.1457771,20.7681419 C57.924006,21.119754 56.6850454,21.2955574 55.4288583,21.2955574 L48.6145071,21.2955574 L48.6145071,3.08042828 L55.2223628,3.08042828 C56.512966,3.08042828 57.7863421,3.23050435 59.0425293,3.530661 C60.2987165,3.83081764 61.4172225,4.32821261 62.398081,5.02286084 C63.3789395,5.71750907 64.1704976,6.6479807 64.7727792,7.81430365 C65.3750607,8.9806266 65.6761969,10.4213569 65.6761969,12.1365377 Z M61.0816723,12.1365377 C61.0816723,11.1074292 60.9138963,10.2541395 60.5783395,9.57664313 C60.2427826,8.89914671 59.7953802,8.35887285 59.2361188,7.95580536 C58.6768574,7.55273787 58.0401693,7.26544939 57.3260356,7.09393132 C56.6119017,6.92241324 55.8762689,6.83665548 55.1191151,6.83665548 L52.9251004,6.83665548 L52.9251004,17.487875 L55.0158672,17.487875 C55.8074373,17.487875 56.5688817,17.3978294 57.3002236,17.2177354 C58.0315654,17.0376414 58.6768574,16.7417772 59.2361188,16.3301338 C59.7953802,15.9184903 60.2427826,15.3696408 60.5783395,14.6835685 C60.9138963,13.9974962 61.0816723,13.1484944 61.0816723,12.1365377 Z M77.2141324,13.4229168 C77.2141324,12.7539963 77.003337,12.1794194 76.5817399,11.6991688 C76.160143,11.2189181 75.5277568,10.9787964 74.6845626,10.9787964 C74.2715697,10.9787964 73.8929983,11.0431147 73.5488375,11.1717533 C73.2046766,11.3003919 72.9035404,11.4761953 72.6454197,11.6991688 C72.3872991,11.9221423 72.1808056,12.1837035 72.0259333,12.4838601 C71.8710608,12.7840166 71.785022,13.0970325 71.7678139,13.4229168 L77.2141324,13.4229168 Z M81.1117348,15.0437546 L81.1117348,15.5583063 C81.1117348,15.7298244 81.1031309,15.8927641 81.0859228,16.0471303 L71.7678139,16.0471303 C71.80223,16.4073183 71.9097786,16.7331978 72.0904631,17.0247785 C72.2711475,17.3163593 72.5034527,17.5693447 72.7873853,17.7837423 C73.0713181,17.9981399 73.3896621,18.1653675 73.742427,18.2854302 C74.0951919,18.4054929 74.4608573,18.4655232 74.8394343,18.4655232 C75.510548,18.4655232 76.0784049,18.3411745 76.543022,18.0924733 C77.0076393,17.8437721 77.3862105,17.5221805 77.6787473,17.1276889 L80.621308,18.9800749 C80.0190265,19.8548171 79.2231664,20.5280155 78.2337039,20.9996901 C77.2442414,21.4713625 76.0956217,21.7071987 74.7878105,21.7071987 C73.82416,21.7071987 72.9121473,21.5571227 72.0517452,21.2569661 C71.191343,20.9568094 70.4385024,20.5194448 69.7932007,19.9448593 C69.1478991,19.3702737 68.6402695,18.6627722 68.2702966,17.8223337 C67.9003236,16.9818951 67.7153399,16.0214082 67.7153399,14.9408443 C67.7153399,13.894584 67.8960216,12.9469608 68.2573906,12.0979464 C68.6187595,11.2489318 69.1091813,10.5285667 69.7286709,9.9368293 C70.3481605,9.34509191 71.0794914,8.88628792 71.9226856,8.56040357 C72.7658796,8.23451921 73.6778922,8.07157949 74.6587507,8.07157949 C75.6051931,8.07157949 76.4741863,8.23023133 77.2657563,8.54753978 C78.0573263,8.86484823 78.7370338,9.32365221 79.3048992,9.9239655 C79.8727646,10.5242788 80.3158652,11.2532197 80.634214,12.1108101 C80.9525628,12.9684005 81.1117348,13.946039 81.1117348,15.0437546 Z M98.2250486,15.9956752 C98.2250486,16.9904801 98.0271589,17.8266182 97.631374,18.5041146 C97.235589,19.181611 96.7107515,19.7261728 96.0568459,20.1378162 C95.4029402,20.5494595 94.6587036,20.8453238 93.8241134,21.0254178 C92.9895233,21.2055118 92.133436,21.2955574 91.2558257,21.2955574 L83.9768597,21.2955574 L83.9768597,3.08042828 L91.2558257,3.08042828 C91.9613556,3.08042828 92.6840825,3.15332238 93.4240283,3.29911275 C94.1639742,3.44490311 94.8350779,3.69360061 95.4373595,4.04521267 C96.0396409,4.39682473 96.5300629,4.87278027 96.9086398,5.47309356 C97.2872168,6.07340683 97.4765024,6.83665085 97.4765024,7.76284849 C97.4765024,8.77480516 97.2011778,9.61094327 96.6505204,10.2712879 C96.099863,10.9316325 95.3771361,11.407588 94.4823178,11.6991688 L94.4823178,11.7506239 C94.9985591,11.836383 95.484679,11.9950348 95.9406922,12.2265842 C96.3967053,12.4581336 96.7924844,12.7539978 97.1280412,13.1141858 C97.463598,13.4743738 97.7303187,13.8945868 97.9282112,14.3748375 C98.1261038,14.8550881 98.2250486,15.3953619 98.2250486,15.9956752 Z M93.2175329,8.35458291 C93.2175329,7.73711781 92.9809259,7.28688961 92.5077046,7.00388477 C92.0344834,6.72087994 91.3332662,6.57937965 90.4040318,6.57937965 L88.2358292,6.57937965 L88.2358292,10.3356068 L90.6105273,10.3356068 C91.4365134,10.3356068 92.0775034,10.1683792 92.5335165,9.83391896 C92.9895298,9.4994587 93.2175329,9.00635162 93.2175329,8.35458291 Z M93.8112074,15.5840338 C93.8112074,14.8293543 93.527279,14.306232 92.9594135,14.0146513 C92.3915481,13.7230705 91.6344055,13.5772823 90.6879632,13.5772823 L88.2358292,13.5772823 L88.2358292,17.7451509 L90.7137751,17.7451509 C91.057936,17.7451509 91.4149975,17.7151357 91.7849705,17.6551044 C92.1549434,17.595073 92.4904952,17.4878759 92.791636,17.3335095 C93.0927768,17.1791433 93.3379877,16.960461 93.5272762,16.6774562 C93.7165646,16.3944514 93.8112074,16.0299809 93.8112074,15.5840338 Z M108.498199,15.7126718 L107.956149,15.7126718 C107.491531,15.7126718 107.022619,15.7341113 106.549398,15.7769907 C106.076177,15.8198703 105.654586,15.9013401 105.284613,16.0214028 C104.91464,16.1414654 104.609202,16.3172689 104.368289,16.5488183 C104.127377,16.7803676 104.006922,17.0848077 104.006922,17.4621475 C104.006922,17.7022728 104.062848,17.9080914 104.1747,18.0796095 C104.286552,18.2511276 104.428516,18.38834 104.600597,18.4912508 C104.772677,18.5941617 104.970567,18.6670558 105.194271,18.7099353 C105.417976,18.7528148 105.633073,18.7742542 105.83957,18.7742542 C106.699972,18.7742542 107.35817,18.5384204 107.814183,18.0667457 C108.270196,17.595071 108.498199,16.9561757 108.498199,16.1500407 L108.498199,15.7126718 Z M100.728806,10.2326965 C101.48596,9.51232056 102.367859,8.97204672 103.37453,8.61185874 C104.3812,8.25167078 105.409366,8.07157949 106.459056,8.07157949 C107.543163,8.07157949 108.459478,8.20450401 109.208027,8.47035703 C109.956577,8.73621006 110.563152,9.14784728 111.027769,9.70528104 C111.492386,10.2627148 111.83224,10.9659284 112.04734,11.8149429 C112.262441,12.6639574 112.36999,13.671611 112.36999,14.837934 L112.36999,21.2955574 L108.498199,21.2955574 L108.498199,19.9319955 L108.420763,19.9319955 C108.093811,20.4637016 107.599087,20.8753387 106.936577,21.1669195 C106.274067,21.4585003 105.555642,21.6042884 104.78128,21.6042884 C104.265039,21.6042884 103.731598,21.5356822 103.18094,21.3984677 C102.630283,21.2612533 102.126955,21.0382831 101.670942,20.7295505 C101.214929,20.420818 100.84066,20.0091808 100.548123,19.4946265 C100.255586,18.9800723 100.10932,18.345465 100.10932,17.5907854 C100.10932,16.6645878 100.363135,15.9184953 100.870772,15.3524856 C101.378409,14.7864759 102.032305,14.3491114 102.832479,14.0403788 C103.632653,13.7316463 104.523156,13.5258277 105.504015,13.4229168 C106.484873,13.320006 107.439905,13.2685513 108.369139,13.2685513 L108.369139,13.0627307 C108.369139,12.4281137 108.145438,11.9607341 107.698029,11.6605774 C107.25062,11.3604207 106.699971,11.2103447 106.046065,11.2103447 C105.443784,11.2103447 104.863021,11.3389813 104.30376,11.5962584 C103.744498,11.8535355 103.266982,12.1622635 102.871197,12.5224515 L100.728806,10.2326965 Z M123.959549,21.2955574 L123.959549,14.2976547 C123.959549,13.9374667 123.929436,13.5944358 123.869207,13.2685513 C123.808979,12.942667 123.710035,12.6553786 123.57237,12.4066774 C123.434706,12.1579761 123.241118,11.9607332 122.991602,11.8149429 C122.742085,11.6691525 122.428043,11.5962584 122.049466,11.5962584 C121.670889,11.5962584 121.339639,11.6691525 121.055707,11.8149429 C120.771774,11.9607332 120.535167,12.162264 120.345878,12.4195411 C120.156589,12.6768182 120.014625,12.9726825 119.919981,13.3071427 C119.825337,13.641603 119.778016,13.9889219 119.778016,14.3491098 L119.778016,21.2955574 L115.519046,21.2955574 L115.519046,8.48322082 L119.623144,8.48322082 L119.623144,10.2584241 L119.674767,10.2584241 C119.82964,9.98399516 120.031831,9.71385823 120.281348,9.44800521 C120.530864,9.18215218 120.823397,8.95489413 121.158954,8.76622424 C121.494511,8.57755436 121.860176,8.42319039 122.255962,8.30312774 C122.651746,8.18306508 123.073337,8.12303466 123.520746,8.12303466 C124.381148,8.12303466 125.112479,8.27739862 125.71476,8.58613116 C126.317042,8.8948637 126.803162,9.29363726 127.173135,9.7824638 C127.543108,10.2712903 127.809829,10.8330036 127.973305,11.4676205 C128.136781,12.1022374 128.218519,12.7368448 128.218519,13.3714617 L128.218519,21.2955574 L123.959549,21.2955574 Z M145.228584,21.2955574 L139.988762,21.2955574 L135.781415,15.146665 L135.703979,15.146665 L135.703979,21.2955574 L131.44501,21.2955574 L131.44501,1.84550427 L135.703979,1.84550427 L135.703979,13.6801927 L135.781415,13.6801927 L139.885513,8.48322082 L145.022089,8.48322082 L140.066197,14.2719271 L145.228584,21.2955574 Z" id="DeBank"></path>
                <path d="M53.3279513,35.2474263 L53.3279513,31.4099923 L56.6637956,26.3975784 L54.8328435,26.3975784 L52.5755052,30.1225144 L50.3432485,26.3975784 L48.4119702,26.3975784 L51.7478145,31.4099923 L51.7478145,35.2474263 L53.3279513,35.2474263 Z M59.0841638,35.4224233 C59.5356315,35.4224233 59.9620176,35.343258 60.3633222,35.1849275 C60.7646268,35.0265968 61.1115881,34.8078506 61.404206,34.5286887 C61.6968239,34.2495268 61.9288281,33.9141159 62.1002186,33.522456 C62.271609,33.130796 62.3573043,32.6974701 62.3573043,32.2224783 C62.3573043,31.7474865 62.271609,31.3162439 62.1002186,30.9287505 C61.9288281,30.5412573 61.6968239,30.2100129 61.404206,29.9350176 C61.1115881,29.6600223 60.7646268,29.4475261 60.3633222,29.2975286 C59.9620176,29.1475312 59.5356315,29.0725325 59.0841638,29.0725325 C58.6326962,29.0725325 58.2063101,29.1475312 57.8050055,29.2975286 C57.4037009,29.4475261 57.0567397,29.6600223 56.7641218,29.9350176 C56.4715038,30.2100129 56.2394995,30.5412573 56.0681091,30.9287505 C55.8967186,31.3162439 55.8110234,31.7474865 55.8110234,32.2224783 C55.8110234,32.6974701 55.8967186,33.130796 56.0681091,33.522456 C56.2394995,33.9141159 56.4715038,34.2495268 56.7641218,34.5286887 C57.0567397,34.8078506 57.4037009,35.0265968 57.8050055,35.1849275 C58.2063101,35.343258 58.6326962,35.4224233 59.0841638,35.4224233 Z M59.0841638,34.1724448 C58.7831854,34.1724448 58.5240096,34.1141125 58.3066362,33.9974479 C58.0892628,33.8807831 57.9095118,33.7307857 57.7673831,33.5474556 C57.6252545,33.3641254 57.5186579,33.1557956 57.4475936,32.9224664 C57.3765292,32.689137 57.3409971,32.4558077 57.3409971,32.2224783 C57.3409971,31.989149 57.3765292,31.757903 57.4475936,31.5287402 C57.5186579,31.2995776 57.6252545,31.093331 57.7673831,30.9100008 C57.9095118,30.7266707 58.0892628,30.5787566 58.3066362,30.4662585 C58.5240096,30.3537604 58.7831854,30.2975114 59.0841638,30.2975114 C59.3851422,30.2975114 59.6443182,30.3537604 59.8616915,30.4662585 C60.0790648,30.5787566 60.2588158,30.7266707 60.4009445,30.9100008 C60.5430732,31.093331 60.6496697,31.2995776 60.720734,31.5287402 C60.7917984,31.757903 60.8273306,31.989149 60.8273306,32.2224783 C60.8273306,32.4558077 60.7917984,32.689137 60.720734,32.9224664 C60.6496697,33.1557956 60.5430732,33.3641254 60.4009445,33.5474556 C60.2588158,33.7307857 60.0790648,33.8807831 59.8616915,33.9974479 C59.6443182,34.1141125 59.3851422,34.1724448 59.0841638,34.1724448 Z M65.9815863,35.4224233 C66.433054,35.4224233 66.8239079,35.307842 67.1541481,35.0786792 C67.4843883,34.8495165 67.7163925,34.5849377 67.8501607,34.2849429 L67.8752423,34.2849429 L67.8752423,35.2474263 L69.3048899,35.2474263 L69.3048899,29.2475295 L67.7999977,29.2475295 L67.7999977,32.5474727 C67.7999977,32.7474694 67.7707359,32.9453826 67.7122123,33.1412125 C67.6536887,33.3370426 67.5679935,33.5099562 67.4551266,33.6599536 C67.3422596,33.809951 67.1959506,33.9328656 67.0161996,34.0286973 C66.8364486,34.124529 66.629526,34.1724448 66.3954317,34.1724448 C66.1529768,34.1724448 65.9585949,34.1224457 65.8122859,34.0224474 C65.665977,33.9224491 65.5510199,33.7953679 65.4674148,33.6412039 C65.3838096,33.48704 65.3294664,33.3141262 65.3043848,33.1224629 C65.2793032,32.9307995 65.2667625,32.7474694 65.2667625,32.5724723 L65.2667625,29.2475295 L63.7618703,29.2475295 L63.7618703,32.9974651 C63.7618703,33.305793 63.8036728,33.6057879 63.887278,33.8974496 C63.9708831,34.1891112 64.1025612,34.4474401 64.2823122,34.6724362 C64.4620632,34.8974324 64.6919773,35.0786792 64.9720544,35.2161769 C65.2521316,35.3536745 65.5886422,35.4224233 65.9815863,35.4224233 Z M72.6156526,35.2474263 L72.6156526,32.0349816 C72.6156526,31.9266501 72.6365539,31.7808193 72.6783564,31.5974891 C72.7201591,31.4141588 72.7995839,31.2349953 72.916631,31.0599984 C73.0336782,30.8850014 73.1967082,30.7350038 73.405721,30.610006 C73.6147337,30.4850081 73.8906307,30.4225093 74.2334117,30.4225093 C74.3002958,30.4225093 74.36927,30.4266759 74.4403344,30.435009 C74.5113987,30.4433422 74.597094,30.4600086 74.6974202,30.4850081 L74.6974202,29.1100318 C74.647257,29.0933655 74.5887335,29.082949 74.5218494,29.0787824 C74.4549653,29.0746158 74.3922614,29.0725325 74.3337378,29.0725325 C73.9324332,29.0725325 73.5812917,29.1808639 73.2803133,29.3975269 C72.9793349,29.6141898 72.7452405,29.8975183 72.5780303,30.2475123 L72.5529488,30.2475123 L72.5529488,29.2475295 L71.1107605,29.2475295 L71.1107605,35.2474263 L72.6156526,35.2474263 Z M82.0337695,35.2474263 C82.6106448,35.2474263 83.1917004,35.1620112 83.7769362,34.9911808 C84.362172,34.8203504 84.8888843,34.5557716 85.357073,34.1974444 C85.8252616,33.8391172 86.205665,33.3807917 86.4982829,32.8224681 C86.7909008,32.2641443 86.9372097,31.5974891 86.9372097,30.8225024 C86.9372097,29.9891834 86.7909008,29.2912787 86.4982829,28.7287884 C86.205665,28.166298 85.8252616,27.7121392 85.357073,27.3663118 C84.8888843,27.0204844 84.362172,26.772572 83.7769362,26.6225746 C83.1917004,26.4725771 82.6106448,26.3975784 82.0337695,26.3975784 L78.8860366,26.3975784 L78.8860366,35.2474263 L82.0337695,35.2474263 Z M80.4661734,33.87245 L80.4661734,27.7475552 L81.7829541,27.7475552 C82.1926191,27.7475552 82.6022843,27.7892212 83.0119494,27.8725531 C83.4216144,27.955885 83.7915671,28.110049 84.1218073,28.3350451 C84.4520475,28.5600413 84.721674,28.8725358 84.9306868,29.2725291 C85.1396997,29.6725222 85.2442061,30.1891799 85.2442061,30.8225024 C85.2442061,31.4224921 85.1396997,31.918317 84.9306868,32.3099768 C84.721674,32.7016367 84.4520475,33.0120482 84.1218073,33.2412108 C83.7915671,33.4703735 83.4216144,33.6328708 83.0119494,33.7287025 C82.6022843,33.8245341 82.1926191,33.87245 81.7829541,33.87245 L80.4661734,33.87245 Z M91.2763155,35.4224233 C92.4049846,35.4224233 93.2661174,35.0224302 93.8597138,34.222444 L92.8564523,33.4224578 C92.689242,33.6641202 92.476049,33.8537003 92.2168731,33.991198 C91.9576973,34.1286956 91.6399978,34.1974444 91.2637748,34.1974444 C91.0464014,34.1974444 90.8373887,34.159945 90.6367363,34.0849463 C90.436084,34.0099476 90.256333,33.9078661 90.0974833,33.7787016 C89.9386336,33.6495371 89.8111358,33.4953731 89.7149899,33.3162095 C89.618844,33.1370459 89.5624105,32.9391327 89.5456896,32.7224697 L94.1230699,32.7224697 C94.1314303,32.6558042 94.1356106,32.5891387 94.1356106,32.5224731 L94.1356106,32.3224766 C94.1356106,31.7808193 94.0624562,31.3079107 93.9161472,30.903751 C93.7698383,30.4995912 93.5670959,30.1620971 93.3079199,29.8912683 C93.0487441,29.6204397 92.7414952,29.4162765 92.3861735,29.2787789 C92.0308517,29.1412812 91.644178,29.0725325 91.2261524,29.0725325 C90.7746848,29.0725325 90.3545691,29.1496145 89.9658053,29.3037785 C89.5770414,29.4579425 89.2405308,29.6746054 88.9562734,29.9537673 C88.672016,30.2329292 88.4483723,30.5704233 88.2853423,30.9662499 C88.1223124,31.3620764 88.0407974,31.8016522 88.0407974,32.2849773 C88.0407974,32.7766354 88.1223124,33.2162112 88.2853423,33.6037046 C88.4483723,33.991198 88.6741061,34.3182757 88.9625438,34.5849377 C89.2509815,34.8515998 89.5916723,35.0578463 89.9846164,35.2036771 C90.3775605,35.349508 90.8081269,35.4224233 91.2763155,35.4224233 Z M89.5456896,31.6474882 C89.5791316,31.2224955 89.7526122,30.8745848 90.0661314,30.6037561 C90.3796505,30.3329275 90.7621441,30.1975131 91.2136117,30.1975131 C91.4560665,30.1975131 91.6671694,30.2370958 91.8469204,30.3162611 C92.0266714,30.3954263 92.1750706,30.5016746 92.2921177,30.6350057 C92.4091649,30.7683366 92.4948601,30.9225007 92.5492035,31.0974977 C92.6035468,31.2724946 92.6307185,31.4558249 92.6307185,31.6474882 L89.5456896,31.6474882 Z M97.2457211,35.2474263 L97.2457211,31.5224903 L101.158441,31.5224903 L101.158441,30.1975131 L97.2457211,30.1975131 L97.2457211,27.7725548 L101.396715,27.7725548 L101.396715,26.3975784 L95.6655843,26.3975784 L95.6655843,35.2474263 L97.2457211,35.2474263 Z M103.315453,28.110049 C103.59135,28.110049 103.823354,28.0246338 104.011466,27.8538035 C104.199577,27.682973 104.293633,27.4683933 104.293633,27.2100645 C104.293633,26.9517356 104.199577,26.7371559 104.011466,26.5663256 C103.823354,26.3954952 103.59135,26.3100799 103.315453,26.3100799 C103.039556,26.3100799 102.811732,26.3996617 102.631981,26.5788253 C102.45223,26.7579889 102.362354,26.9684019 102.362354,27.2100645 C102.362354,27.451727 102.45223,27.66214 102.631981,27.8413036 C102.811732,28.0204672 103.039556,28.110049 103.315453,28.110049 Z M104.08044,35.2474263 L104.08044,29.2475295 L102.575548,29.2475295 L102.575548,35.2474263 L104.08044,35.2474263 Z M112.194317,35.2474263 L114.276084,28.6100404 L114.301166,28.6100404 L116.382933,35.2474263 L117.912907,35.2474263 L120.508846,26.3975784 L118.828383,26.3975784 L117.072676,32.8974668 L117.047594,32.8974668 L115.128856,26.3975784 L113.498557,26.3975784 L111.542197,32.8974668 L111.517115,32.8974668 L109.79903,26.3975784 L108.068404,26.3975784 L110.664343,35.2474263 L112.194317,35.2474263 Z M122.86651,35.3974238 C123.292897,35.3974238 123.673299,35.3120086 124.00772,35.1411782 C124.34214,34.9703478 124.584596,34.7516016 124.735085,34.4849394 L124.772708,34.4849394 L124.772708,35.2474263 L126.177273,35.2474263 L126.177273,31.5974891 C126.177273,31.2974942 126.137561,30.9974994 126.058135,30.6975045 C125.978711,30.3975097 125.838672,30.126681 125.63802,29.8850185 C125.437368,29.643356 125.163561,29.4475261 124.8166,29.2975286 C124.469639,29.1475312 124.028622,29.0725325 123.493549,29.0725325 C123.033721,29.0725325 122.580162,29.1516977 122.132875,29.3100284 C121.685588,29.468359 121.290554,29.7058549 120.947772,30.0225162 L121.725301,30.9350005 C121.917593,30.7433371 122.160047,30.5808399 122.452665,30.4475088 C122.745282,30.3141778 123.050441,30.2475123 123.36814,30.2475123 C123.744365,30.2475123 124.068334,30.3370941 124.340051,30.5162577 C124.611767,30.6954213 124.747625,30.9724998 124.747625,31.3474934 L124.747625,31.4974908 C124.279437,31.4974908 123.800797,31.5204071 123.311708,31.5662396 C122.822618,31.6120721 122.377421,31.7058206 121.976116,31.8474848 C121.574811,31.989149 121.246661,32.1933121 120.991666,32.4599743 C120.73667,32.7266363 120.609172,33.0849635 120.609172,33.5349558 C120.609172,33.8849497 120.682326,34.1786947 120.828635,34.4161907 C120.974944,34.6536865 121.158875,34.84535 121.380429,34.9911808 C121.601983,35.1370116 121.844438,35.2411765 122.107794,35.3036754 C122.37115,35.3661743 122.624056,35.3974238 122.86651,35.3974238 Z M123.167488,34.2599433 C123.042081,34.2599433 122.916674,34.2474436 122.791265,34.222444 C122.665858,34.1974444 122.552991,34.1557784 122.452665,34.0974461 C122.352339,34.0391138 122.270824,33.9620318 122.20812,33.8662 C122.145416,33.7703684 122.114064,33.6516205 122.114064,33.5099562 C122.114064,33.2849601 122.189309,33.1078798 122.339798,32.9787154 C122.490287,32.8495509 122.678399,32.7495526 122.904132,32.6787205 C123.129867,32.6078883 123.376502,32.5620558 123.644037,32.5412228 C123.911574,32.5203899 124.166569,32.5099734 124.409025,32.5099734 L124.747625,32.5099734 L124.747625,32.7224697 C124.747625,33.1974616 124.613858,33.5724552 124.346321,33.8474504 C124.078784,34.1224457 123.685841,34.2599433 123.167488,34.2599433 Z M129.462954,35.2474263 L129.462954,25.7975888 L127.958062,25.7975888 L127.958062,35.2474263 L129.462954,35.2474263 Z M132.82388,35.2474263 L132.82388,25.7975888 L131.318988,25.7975888 L131.318988,35.2474263 L132.82388,35.2474263 Z M137.539209,35.4224233 C138.667878,35.4224233 139.529011,35.0224302 140.122608,34.222444 L139.119346,33.4224578 C138.952135,33.6641202 138.738942,33.8537003 138.479767,33.991198 C138.220591,34.1286956 137.902891,34.1974444 137.526668,34.1974444 C137.309295,34.1974444 137.100282,34.159945 136.89963,34.0849463 C136.698978,34.0099476 136.519226,33.9078661 136.360377,33.7787016 C136.201527,33.6495371 136.074029,33.4953731 135.977883,33.3162095 C135.881738,33.1370459 135.825304,32.9391327 135.808583,32.7224697 L140.385964,32.7224697 C140.394324,32.6558042 140.398505,32.5891387 140.398505,32.5224731 L140.398505,32.3224766 C140.398505,31.7808193 140.325349,31.3079107 140.17904,30.903751 C140.032731,30.4995912 139.829989,30.1620971 139.570814,29.8912683 C139.311638,29.6204397 139.004388,29.4162765 138.649067,29.2787789 C138.293745,29.1412812 137.907072,29.0725325 137.489045,29.0725325 C137.037579,29.0725325 136.617463,29.1496145 136.228699,29.3037785 C135.839935,29.4579425 135.503424,29.6746054 135.219167,29.9537673 C134.93491,30.2329292 134.711265,30.5704233 134.548236,30.9662499 C134.385206,31.3620764 134.303691,31.8016522 134.303691,32.2849773 C134.303691,32.7766354 134.385206,33.2162112 134.548236,33.6037046 C134.711265,33.991198 134.937,34.3182757 135.225437,34.5849377 C135.513875,34.8515998 135.854566,35.0578463 136.24751,35.2036771 C136.640454,35.349508 137.07102,35.4224233 137.539209,35.4224233 Z M135.808583,31.6474882 C135.842025,31.2224955 136.015506,30.8745848 136.329025,30.6037561 C136.642544,30.3329275 137.025037,30.1975131 137.476505,30.1975131 C137.718961,30.1975131 137.930062,30.2370958 138.109814,30.3162611 C138.289565,30.3954263 138.437964,30.5016746 138.555011,30.6350057 C138.672059,30.7683366 138.757753,30.9225007 138.812097,31.0974977 C138.86644,31.2724946 138.893611,31.4558249 138.893611,31.6474882 L135.808583,31.6474882 Z M143.997704,35.3724242 C144.164915,35.3724242 144.340486,35.3578411 144.524417,35.3286749 C144.708348,35.2995087 144.867197,35.2599262 145.000966,35.2099269 L144.950803,34.0349472 C144.858837,34.0766132 144.754331,34.1078626 144.637283,34.1286956 C144.520236,34.1495285 144.41155,34.159945 144.311224,34.159945 C143.976803,34.159945 143.76152,34.0724466 143.665374,33.8974496 C143.569228,33.7224526 143.521155,33.5016231 143.521155,33.2349609 L143.521155,30.4475088 L145.026047,30.4475088 L145.026047,29.2475295 L143.521155,29.2475295 L143.521155,27.5100593 L142.041344,27.5100593 L142.041344,29.2475295 L140.98792,29.2475295 L140.98792,30.4475088 L142.041344,30.4475088 L142.041344,33.2474608 C142.041344,33.5391224 142.068516,33.8120344 142.122859,34.0661967 C142.177203,34.3203589 142.27753,34.545355 142.423838,34.7411851 C142.570147,34.937015 142.768709,35.0911791 143.019525,35.2036771 C143.270341,35.3161752 143.5964,35.3724242 143.997704,35.3724242 Z" id="YourDeFiWallet" opacity="0.600000024"></path>
            </g>
        </g>
    </g>
</svg>