<?xml version="1.0" encoding="UTF-8"?>
<svg width="20px" height="20px" viewBox="0 0 20 20" version="1.1" xmlns="http://www.w3.org/2000/svg" xmlns:xlink="http://www.w3.org/1999/xlink">
    <title>7</title>
    <g id="控件" stroke="none" stroke-width="1" fill="none" fill-rule="evenodd">
        <g id="编组-30" transform="translate(-127.000000, -33.000000)" fill="#D4D9E0" fill-rule="nonzero">
            <g transform="translate(-2.000000, -2.000000)" id="形状">
                <path d="M141.506875,42.234906 C141.702375,42.234906 141.894688,42.2499425 142.088063,42.2714231 C141.567438,39.8204833 138.976,38 136.016938,38 C132.709375,38 130,40.2780207 130,43.1725355 C130,44.8426544 130.901,46.2141926 132.407625,47.2796318 L131.80625,49.1087073 L133.91,48.0432681 C134.66225,48.1925585 135.26575,48.347219 136.016938,48.347219 C136.206063,48.347219 136.393063,48.3386268 136.577937,48.3246644 C136.461062,47.9176064 136.392,47.49229 136.392,47.048715 C136.393063,44.3915612 138.649812,42.234906 141.506875,42.234906 Z M138.272625,40.5862677 C138.727375,40.5862677 139.025937,40.8880706 139.025937,41.345608 C139.025937,41.8009973 138.727375,42.1060222 138.272625,42.1060222 C137.823187,42.1060222 137.370563,41.8009973 137.370563,41.345608 C137.370563,40.8869965 137.822125,40.5862677 138.272625,40.5862677 Z M134.061937,42.1060222 C133.610375,42.1060222 133.155625,41.8009973 133.155625,41.345608 C133.155625,40.8880706 133.610375,40.5862677 134.061937,40.5862677 C134.5135,40.5862677 134.813125,40.8869965 134.813125,41.345608 C134.813125,41.8009973 134.5135,42.1060222 134.061937,42.1060222 Z M147,46.9756809 C147,44.5440736 144.592375,42.5624856 141.888313,42.5624856 C139.024875,42.5624856 136.771312,44.5451477 136.771312,46.9756809 C136.771312,49.4137323 139.025937,51.3888761 141.888313,51.3888761 C142.487562,51.3888761 143.092125,51.2374377 143.6935,51.0849252 L145.343562,52 L144.890938,50.4791715 C146.099,49.5619486 147,48.347219 147,46.9756809 Z M140.24213,46.398389 C139.936894,46.398389 139.627312,46.0520992 139.627312,45.698389 C139.627312,45.3496257 139.936894,44.998389 140.24213,44.998389 C140.709217,44.998389 141.012281,45.3496257 141.012281,45.698389 C141.012281,46.0520992 140.709217,46.398389 140.24213,46.398389 Z M143.553189,46.398389 C143.24941,46.398389 142.940188,46.0520992 142.940188,45.698389 C142.940188,45.3496257 143.248321,44.998389 143.553189,44.998389 C144.017022,44.998389 144.325156,45.3496257 144.325156,45.698389 C144.325156,46.0520992 144.017022,46.398389 143.553189,46.398389 Z"></path>
            </g>
        </g>
    </g>
</svg>