<?xml version="1.0" encoding="UTF-8"?>
<svg width="20px" height="20px" viewBox="0 0 20 20" version="1.1" xmlns="http://www.w3.org/2000/svg" xmlns:xlink="http://www.w3.org/1999/xlink">
    <title>3</title>
    <g id="控件" stroke="none" stroke-width="1" fill="none" fill-rule="evenodd">
        <g id="编组-30" transform="translate(-129.000000, 2.000000)" fill="#D4D9E0" fill-rule="nonzero">
            <g transform="translate(-2.000000, -2.000000)" id="形状">
                <path d="M138.997212,6.42677591 L138.997212,16.485484 C138.997212,16.6284068 138.962334,16.7498901 138.892578,16.8499341 C138.822822,16.949978 138.720981,17 138.587056,17 C138.492192,17 138.400117,16.97713 138.31083,16.9313899 L134.418506,14.9333973 C134.301318,14.8762222 134.202271,14.7804651 134.121362,14.6461261 C134.040454,14.5117871 134,14.3788637 134,14.247356 L134,4.47164216 C134,4.35730194 134.0279,4.26011425 134.083701,4.1800791 C134.139502,4.10004394 134.22042,4.06002637 134.326455,4.06002637 C134.40458,4.06002637 134.527349,4.1029052 134.694761,4.18866287 L138.972104,6.38390208 C138.988843,6.40105962 138.997212,6.4153509 138.997212,6.42677591 Z M139.53292,7.29288133 L144.002788,14.7189981 L139.53292,12.4379962 L139.53292,7.29288133 Z M149,7.44720912 L149,16.485469 C149,16.6283918 148.960938,16.7441576 148.882812,16.8327665 C148.804688,16.9213755 148.698662,16.9656799 148.564736,16.9656799 C148.430811,16.9656799 148.299673,16.9285236 148.171323,16.854211 L144.479917,14.9676573 L149,7.44720912 Z M148.974893,6.41820715 C148.974893,6.43535468 148.259209,7.63445136 146.827842,10.0154972 C145.396475,12.396543 144.558027,13.7900151 144.3125,14.1959134 L141.047993,8.7592354 L143.760049,4.24010546 C143.854912,4.08003515 144,4 144.195312,4 C144.273438,4 144.345981,4.01715253 144.412944,4.0514576 L148.941406,6.36673454 C148.96373,6.37816957 148.974893,6.3953221 148.974893,6.41819214 L148.974893,6.41820715 Z"></path>
            </g>
        </g>
    </g>
</svg>