<?xml version="1.0" encoding="UTF-8"?>
<svg width="20px" height="20px" viewBox="0 0 20 20" version="1.1" xmlns="http://www.w3.org/2000/svg" xmlns:xlink="http://www.w3.org/1999/xlink">
    <title>8</title>
    <g id="控件" stroke="none" stroke-width="1" fill="none" fill-rule="evenodd">
        <g id="编组-30" transform="translate(-192.000000, -33.000000)" fill="#D4D9E0" fill-rule="nonzero">
            <g transform="translate(-2.000000, -2.000000)" id="形状结合">
                <path d="M202.608306,40.6800157 C203.850527,41.1453821 203.633829,42.2794919 203.574478,43.0301512 C204.054804,42.714493 206.05616,41.903103 206.927096,42.6756536 C207.798031,43.4482042 207.646204,44.4806255 207.304593,45.1938577 C209.299739,45.3795806 209.468819,46.9070275 209.468819,47.4084085 C209.468819,47.9097896 209.134799,49.7133492 205.860856,51.2436207 C202.586912,52.7731861 199.394403,51.6892143 197.648392,50.5734649 L197.647702,50.5720525 C195.90169,49.4563031 195.442759,47.1188786 196.758823,44.7136618 C198.074888,42.3084449 201.366084,40.2146493 202.608306,40.6800157 Z M201.920943,44.4417861 C201.141794,44.4417861 198.166674,44.6352768 197.566267,47.4006407 C196.96586,50.1660045 201.014812,50.8206737 201.670429,50.8206737 L201.862345,50.8201451 C202.865248,50.8098133 206.171865,50.6225523 206.623442,47.4338307 C206.623442,44.4912181 202.699402,44.4417861 201.920943,44.4417861 Z M204.107253,46.4600215 C204.588269,47.5164526 204.002354,48.8376977 202.79809,49.4125205 C201.593825,49.9873433 200.227382,49.596831 199.746366,48.5403999 C199.26535,47.4839688 199.851264,46.1627237 201.055529,45.5879009 C202.259794,45.0130781 203.626237,45.4035904 204.107253,46.4600215 Z M200.895421,47.5002107 C200.515801,47.5002107 200.208058,47.8151098 200.208058,48.2035566 C200.208058,48.5596328 200.466648,48.8539085 200.80215,48.9004817 L200.895421,48.9069024 C201.27504,48.9069024 201.582783,48.5920033 201.582783,48.2035566 C201.582783,47.8474804 201.324193,47.5532046 200.988691,47.5066314 L200.895421,47.5002107 Z M201.926464,46.7968649 C201.736654,46.7968649 201.582783,46.9543142 201.582783,47.1485378 C201.582783,47.3184834 201.700591,47.4602738 201.857201,47.493066 L201.926464,47.5002107 C202.116274,47.5002107 202.270146,47.3427614 202.270146,47.1485378 C202.270146,46.9785921 202.152338,46.8368018 201.995728,46.8040096 L201.926464,46.7968649 Z M206.324619,38.0120956 C207.092726,37.9669007 207.987125,38.042461 208.85461,38.3390526 C209.624097,38.6024542 210.276954,39.0176825 210.765561,39.6129842 C211.187916,40.1277826 211.49157,40.7541558 211.693776,41.4659757 C211.971896,42.4433157 212.036077,43.4580828 211.982938,44.345033 C211.976726,44.4431907 211.970515,44.5145139 211.966375,44.556178 C211.932865,44.8411763 211.682794,45.0464426 211.403635,45.0180952 C211.120312,44.9893253 210.913426,44.7309839 210.941542,44.4410722 L210.941542,44.4410722 L210.948622,44.3606414 L210.948622,44.3606414 L210.953964,44.2800702 L210.966524,43.9835421 C210.983725,43.2796391 210.913678,42.4976104 210.704139,41.7604566 C210.5392,41.1806906 210.298347,40.6842527 209.976059,40.2909157 C209.620646,39.857327 209.128588,39.5444935 208.528181,39.3389978 C207.804932,39.0918381 207.032684,39.0261643 206.383279,39.0642975 L206.383279,39.0642975 L206.281141,39.0720654 C206.012265,39.0909168 205.775494,38.8938444 205.737437,38.6209294 C205.697164,38.3321299 205.893316,38.0646038 206.175552,38.0233944 L206.175552,38.0233944 L206.212052,38.0201512 C206.240884,38.017745 206.278611,38.0149203 206.324619,38.0120956 Z M206.766987,40.6185773 C207.165518,40.6017563 207.564343,40.6436128 207.951238,40.7428633 L207.951238,40.7428633 L208.124843,40.794404 C208.520568,40.9250994 208.84952,41.129933 209.08442,41.4320857 C209.209956,41.5946373 209.315636,41.7722571 209.399116,41.9610074 L209.399116,41.9610074 L209.477009,42.1552496 C209.619483,42.5483897 209.681822,42.9680203 209.659293,43.3881779 L209.659293,43.3881779 L209.654462,43.452441 C209.619764,43.7304136 209.378717,43.9321112 209.105579,43.9117189 C208.82162,43.8905183 208.60822,43.6377843 208.628939,43.3472216 L208.628939,43.3472216 L208.631005,43.1521102 C208.621639,42.8925665 208.563998,42.6366023 208.460549,42.3981285 L208.460549,42.3981285 L208.406489,42.2882275 C208.367996,42.2170351 208.324595,42.1500273 208.276286,42.0874136 C208.167937,41.948298 207.967111,41.836723 207.691062,41.7632813 C207.393619,41.6841902 207.069951,41.6615927 206.805634,41.6721853 L206.805634,41.6721853 L206.775269,41.6735976 C206.767602,41.6750252 206.759921,41.6755739 206.75223,41.6759463 C206.467834,41.6897166 206.226375,41.4649712 206.212918,41.1739605 C206.19946,40.8829521 206.419099,40.6358783 206.703496,40.6221081 L206.703496,40.6221081 Z"></path>
            </g>
        </g>
    </g>
</svg>