<?xml version="1.0" encoding="UTF-8"?>
<svg width="20px" height="20px" viewBox="0 0 20 20" version="1.1" xmlns="http://www.w3.org/2000/svg" xmlns:xlink="http://www.w3.org/1999/xlink">
    <title>4</title>
    <g id="控件" stroke="none" stroke-width="1" fill="none" fill-rule="evenodd">
        <g id="编组-30" transform="translate(-194.000000, 2.000000)" fill="#D4D9E0" fill-rule="nonzero">
            <g transform="translate(-2.000000, -2.000000)" id="形状结合">
                <path d="M211.281266,3.00022059 C212.157325,3.0011744 212.867277,3.72388905 212.868214,4.61569623 C212.867277,5.50750342 212.157325,6.23021807 211.281266,6.23117188 C210.461442,6.23117188 209.792918,5.59389399 209.710468,4.78053186 L209.710468,4.78053186 L207.128172,4.1666165 L206.240348,6.28611708 C207.885521,6.41158252 209.432094,6.90911787 210.612742,7.74411197 C210.974842,7.46289634 211.417691,7.30801142 211.884341,7.30801142 C213.052295,7.30920383 213.998817,8.27274066 213.999994,9.46169052 L213.999994,9.46169052 C214.001881,10.2644814 213.561279,11.0000383 212.859714,11.3657367 C212.864814,11.4483708 212.868214,11.5314376 212.868214,11.6153696 C212.868214,14.584574 209.545144,17 205.463024,17 C201.379629,17 198.057833,14.584574 198.057833,11.6158023 C198.057833,11.5175931 198.060808,11.4206819 198.069308,11.3259338 C197.407462,10.9475719 196.998401,10.2344033 197.000005,9.46169052 C197.001181,8.27274066 197.947703,7.30920383 199.115657,7.30801142 C199.561234,7.30481747 199.99596,7.44788103 200.35538,7.71599041 C201.633354,6.82864693 203.325701,6.31943032 205.102199,6.2566976 L205.102199,6.2566976 L206.329598,3.32772864 C206.430335,3.08647798 206.687164,2.95420175 206.937772,3.01449769 L206.937772,3.01449769 L209.955693,3.73267915 C210.247623,3.27624086 210.746228,3.00073192 211.281266,3.00022059 Z M207.812963,13.720003 C207.639945,13.6414401 207.438859,13.663121 207.285846,13.7768362 C206.198879,14.5800931 204.727593,14.5800931 203.640626,13.7768362 C203.487574,13.6640022 203.287014,13.6428595 203.114496,13.7213725 C202.941979,13.7998854 202.823712,13.966126 202.804247,14.157473 C202.784781,14.34882 202.867074,14.5362033 203.020127,14.6490373 C204.477565,15.7239555 206.448482,15.7239555 207.905921,14.6490373 C208.059502,14.536721 208.142702,14.349106 208.123591,14.1572343 C208.10448,13.9653626 207.985981,13.7985659 207.812963,13.720003 Z M202.818677,9.99989398 C202.234514,10.0006091 201.761131,10.4825016 201.760428,11.0771662 L201.760428,11.0771662 L201.766719,11.1940414 C201.824491,11.7334508 202.273097,12.1533378 202.818252,12.1540057 C203.402181,12.1532905 203.875373,11.6715917 203.876076,11.0771662 C203.875374,10.4828388 203.402508,10.0010855 202.818677,9.99989398 Z M208.107795,10.0003266 C207.53525,10.0168498 207.079536,10.494094 207.079536,11.0771662 C207.079536,11.6602384 207.53525,12.1374825 208.107795,12.1540057 C208.680341,12.1374825 209.136055,11.6602384 209.136055,11.0771662 C209.136055,10.494094 208.680341,10.0168498 208.107795,10.0003266 Z M211.281266,4.07749278 C210.990142,4.07749278 210.752142,4.31847294 210.752142,4.61569623 C210.75261,4.91297917 210.989233,5.15385591 211.281266,5.15433233 C211.571966,5.15433233 211.809966,4.91291952 211.809966,4.61569623 C211.809966,4.31847294 211.571966,4.07749278 211.281266,4.07749278 Z"></path>
            </g>
        </g>
    </g>
</svg>