<?xml version="1.0" encoding="UTF-8"?>
<svg width="20px" height="20px" viewBox="0 0 20 20" version="1.1" xmlns="http://www.w3.org/2000/svg" xmlns:xlink="http://www.w3.org/1999/xlink">
    <title>2</title>
    <g id="控件" stroke="none" stroke-width="1" fill="none" fill-rule="evenodd">
        <g id="编组-30" transform="translate(-65.000000, 2.000000)" fill="#D4D9E0" fill-rule="nonzero">
            <g transform="translate(-2.000000, -2.000000)" id="路径">
                <path d="M69.2663338,8.3484869 L84.340824,2.03514361 C84.5006242,1.9816407 84.7136912,1.9816407 84.8202247,2.08864653 C84.980025,2.19565235 85.0332917,2.40966398 84.980025,2.57017271 L81.2513525,17.6579931 C81.1980857,17.8185018 81.0915522,17.9255076 80.931752,17.9790106 C80.7719517,18.0325135 80.6121515,17.9790106 80.505618,17.8720047 L77.2563462,15.1433564 C77.0432792,14.9828476 76.7769455,14.9828476 76.6171452,15.1968593 L74.965876,16.8554495 C74.8060757,17.0159582 74.6462755,17.0159582 74.4332085,16.9624553 C74.2734082,16.9089524 74.1668747,16.6949407 74.1668747,16.534432 L74.1668747,13.00324 C74.1668747,12.8962342 74.2201415,12.7357254 74.326675,12.6822225 L81.0382855,5.83385017 L73.048273,11.8796789 C72.8884727,11.9866847 72.622139,11.9866847 72.4623387,11.8796789 L69.1598002,9.15103054 C69.0532667,9.04402472 69,8.88351599 69,8.72300726 C69.0532667,8.56249853 69.1598002,8.40198981 69.2663338,8.3484869 Z"></path>
            </g>
        </g>
    </g>
</svg>