<?xml version="1.0" encoding="UTF-8"?>
<svg width="240px" height="60px" viewBox="0 0 240 60" version="1.1" xmlns="http://www.w3.org/2000/svg" xmlns:xlink="http://www.w3.org/1999/xlink">
    <title>Immunefi</title>
    <g id="确认" stroke="none" stroke-width="1" fill="none" fill-rule="evenodd">
        <g id="Immunefi" transform="translate(27.000000, 10.000000)" fill="#D4D9E0" fill-rule="nonzero">
            <g id="编组" transform="translate(-0.000000, 0.000000)">
                <polygon id="路径" points="10.4146 16.890206 23.3182 30.025406 36.084 17.030506 46.5509 27.685206 34.3897 40.064706 31.2612 36.964906 40.3772 27.685206 36.084 23.314906 23.3182 36.309906 10.4146 23.174706 6.17365 27.491806 15.4283 36.912606 12.2998 40.012406 -1.77635684e-15 27.491806"></polygon>
                <polygon id="路径" points="36.1364 23.174406 23.2328 10.039306 10.4671 23.034206 0.00016022 12.379406 12.1613 -1.77635684e-15 15.2898 3.099806 6.1738 12.379406 10.4671 16.749806 23.2328 3.754806 36.1364 16.890006 40.3774 12.572806 31.1227 3.152066 34.2512 0.052256 46.551 12.572806"></polygon>
                <polygon id="路径" points="21.3066 39.756106 21.3066 31.480406 25.5203 31.480406 25.5203 39.756106"></polygon>
                <polygon id="路径" points="21.3066 8.584256 21.3066 0.308596 25.5203 0.308596 25.5203 8.584256"></polygon>
            </g>
            <polygon id="路径" points="60.7498 9.770406 56.551 9.770406 56.551 30.911006 60.7498 30.911006"></polygon>
            <path d="M82.048,15.349106 C80.1394,15.349106 78.319,16.171306 77.4088,17.962406 C76.4692,16.171306 74.7075,15.349106 72.6521,15.349106 C70.8023,15.349106 69.393,16.053806 68.6589,17.316406 L68.2185,15.642806 L64.4014,15.642806 L64.4014,30.911006 L68.5121,30.911006 L68.5121,22.366606 C68.5121,20.105806 69.6866,19.019406 71.4189,19.019406 C73.0632,19.019406 74.179,20.047106 74.179,22.542806 L74.179,30.911006 L78.1428,30.911006 L78.1428,22.454706 C78.2015,20.076406 79.4347,19.019406 81.0496,19.019406 C82.7233,19.019406 83.8097,20.047106 83.8097,22.337306 L83.8097,30.940306 L87.9497,30.940306 L87.9497,21.515206 C87.9497,17.287006 85.1016,15.349106 82.048,15.349106 L82.048,15.349106 Z" id="路径"></path>
            <path d="M108.858,15.349106 C106.949,15.349106 105.129,16.171306 104.219,17.962406 C103.279,16.171306 101.517,15.349106 99.4621,15.349106 C97.6123,15.349106 96.2029,16.053806 95.4689,17.316406 L95.0284,15.642806 L91.2114,15.642806 L91.2114,30.911006 L95.3221,30.911006 L95.3221,22.366606 C95.3221,20.105806 96.4965,19.019406 98.2289,19.019406 C99.8732,19.019406 100.989,20.047106 100.989,22.542806 L100.989,30.911006 L104.953,30.911006 L104.953,22.454706 C105.011,20.076406 106.245,19.019406 107.86,19.019406 C109.533,19.019406 110.62,20.047106 110.62,22.337306 L110.62,30.940306 L114.76,30.940306 L114.76,21.515206 C114.76,17.287006 111.912,15.349106 108.858,15.349106 L108.858,15.349106 Z" id="路径"></path>
            <path d="M128.034,15.642806 L128.034,24.010906 C128.034,26.271806 126.977,27.622406 124.951,27.651806 C123.013,27.710506 121.78,26.565406 121.78,24.187106 L121.78,15.642806 L117.875,15.642806 L117.875,24.715606 C117.875,28.620706 120.135,31.204606 124.041,31.204606 C125.861,31.204606 127.182,30.382406 127.975,29.237306 L128.181,30.911006 L131.939,30.911006 L131.939,15.642806 L128.034,15.642806 Z" id="路径"></path>
            <path d="M144.002,15.349106 C141.712,15.349106 140.185,16.200606 139.392,17.463206 L139.157,15.642806 L135.34,15.642806 L135.34,30.911006 L139.451,30.911006 L139.451,22.836406 C139.451,20.370006 140.625,18.872606 142.798,18.872606 C144.795,18.872606 145.999,20.164506 145.999,22.689606 L145.999,30.911006 L150.139,30.911006 L150.139,21.838106 C150.139,17.933006 147.907,15.349106 144.002,15.349106 L144.002,15.349106 Z" id="路径"></path>
            <path d="M168.116,23.042006 C168.116,18.373406 165.091,15.349106 160.54,15.349106 C155.989,15.349106 152.936,18.520206 152.936,23.276906 C152.936,28.062906 155.989,31.233906 160.57,31.233906 C164.416,31.233906 167.323,29.090506 167.998,25.919406 L163.858,25.919406 C163.389,27.240706 162.185,27.916006 160.687,27.916006 C158.72,27.916006 157.134,26.653506 157.076,24.392606 L168.116,24.392606 L168.116,23.042006 Z M160.54,18.549606 C162.331,18.549606 163.829,19.577306 164.005,21.691306 L157.105,21.691306 C157.281,19.577306 158.779,18.549606 160.54,18.549606 Z" id="形状"></path>
            <path d="M169.721,15.642806 L169.721,19.224906 L172.07,19.224906 L172.07,30.911006 L176.21,30.911006 L176.21,19.224906 L179.704,19.224906 L179.704,15.642806 L176.21,15.642806 L176.21,14.086606 C176.21,13.000206 176.503,12.178106 178.177,12.178106 L179.704,12.178106 L179.704,8.830806 L177.267,8.830806 C173.42,8.830806 172.07,10.710006 172.07,13.675506 L172.07,15.642806 L169.721,15.642806 Z" id="路径"></path>
            <path d="M182.419,13.293806 L186.588,13.293806 L186.647,8.830806 L182.478,8.830806 L182.419,13.293806 Z M182.478,30.911006 L186.588,30.911006 L186.588,15.642806 L182.478,15.642806 L182.478,30.911006 Z" id="形状"></path>
        </g>
    </g>
</svg>