<?xml version="1.0" encoding="UTF-8"?>
<svg width="240px" height="60px" viewBox="0 0 240 60" version="1.1" xmlns="http://www.w3.org/2000/svg" xmlns:xlink="http://www.w3.org/1999/xlink">
    <title>Quantstamp</title>
    <g id="控件" stroke="none" stroke-width="1" fill="none" fill-rule="evenodd">
        <g id="5c9b95edbcc30e0c043b9dc9_quantstamp-logo-dark-mob" transform="translate(33.000000, 14.000000)" fill="#D4D9E0" fill-rule="nonzero">
            <path d="M29.1466839,16.3200774 C29.1482137,13.7967406 28.4148739,11.32757 27.0362323,9.21414194 L32.1608129,4.08956129 L28.3103613,0.240232258 L23.1913935,5.3648129 C18.8723647,2.54818006 13.2974289,2.54818006 8.9784,5.3648129 L3.84820645,0.240232258 L-8.8817842e-14,4.08956129 L5.12458065,9.21414194 C2.30843583,13.5329086 2.30843583,19.1072462 5.12458065,23.4260129 L-8.8817842e-14,28.5528387 L3.84932903,32.4010452 L8.97390968,27.2764645 C13.2926764,30.0926093 18.8670139,30.0926093 23.1857806,27.2764645 L28.3114839,32.4010452 L32.1608129,28.5528387 L27.0351097,23.4316258 C28.4149837,21.3170407 29.1487524,18.8461788 29.1466839,16.3212 L29.1466839,16.3200774 Z M8.45750733,16.3200774 C8.45313914,13.2089418 10.339981,10.4073864 13.2246009,9.24198872 C16.1092208,8.076591 19.4125981,8.78127757 21.5705353,11.022369 C23.7284725,13.2634605 24.3078137,16.5911096 23.0342323,19.4296258 L18.005071,14.3948516 L14.1546194,18.2453032 L19.1837806,23.2744645 C16.8272584,24.3335116 14.0943125,24.1242365 11.9265125,22.7187398 C9.75871246,21.3132431 8.4523584,18.9036314 8.45750733,16.3200774 L8.45750733,16.3200774 Z" id="形状"></path>
            <path d="M56.8284,16.473871 C56.8284,19.6170968 55.2343355,22.4561032 52.3964516,23.7661548 L53.9029548,25.730671 L50.8023871,27.3022839 L48.7278581,24.5519613 L48.6627484,24.5519613 C43.5325548,24.5519613 40.4982194,20.8182581 40.4982194,16.473871 C40.4982194,12.1294839 43.5325548,8.39690323 48.6627484,8.39690323 C53.7929419,8.39690323 56.8284,12.1294839 56.8284,16.473871 L56.8284,16.473871 Z M48.6627484,21.3862839 C51.5668645,21.3862839 53.1384774,19.1377548 53.1384774,16.473871 C53.1384774,13.8111097 51.5668645,11.5614581 48.6627484,11.5614581 C45.7373032,11.5614581 44.1656903,13.8111097 44.1870194,16.473871 C44.1656903,19.1377548 45.7373032,21.3862839 48.6627484,21.3862839 Z M62.5479484,24.3992903 C60.0154065,24.3992903 58.6615742,22.8276774 58.6615742,20.0975613 L58.6615742,13.5922065 L62.0450323,13.5922065 L62.0450323,19.3555355 C62.0450323,20.796929 62.5254968,21.5827355 63.7917677,21.5827355 C65.2107097,21.5827355 65.8225161,20.6655871 65.8225161,19.2466452 L65.8225161,13.5922065 L69.1408645,13.5922065 L69.1408645,24.1152774 L65.8225161,24.1152774 L65.8225161,22.6087742 C65.2331613,23.7223742 64.1408903,24.3992903 62.5479484,24.3992903 L62.5479484,24.3992903 Z M76.1053548,24.3992903 C72.962129,24.3992903 71.1491613,22.0194194 71.1491613,18.8537419 C71.1491613,15.7105161 73.0912258,13.3081935 76.1491355,13.3081935 C77.6758452,13.3081935 78.8770065,14.0288903 79.4450323,15.0987097 L79.4450323,13.5922065 L82.7633806,13.5922065 L82.7633806,24.1152774 L79.4450323,24.1152774 L79.4450323,22.6301032 C78.8770065,23.6785935 77.5680774,24.3992903 76.1053548,24.3992903 L76.1053548,24.3992903 Z M77.0651613,21.6265161 C78.7243355,21.6265161 79.5763742,20.3815742 79.5763742,18.8537419 C79.5763742,17.3472387 78.7243355,16.1034194 77.0651613,16.1034194 C75.516,16.1034194 74.555071,17.2596774 74.555071,18.8537419 C74.555071,20.4478065 75.516,21.6265161 77.0651613,21.6265161 Z M85.5361548,13.5922065 L88.8758323,13.5922065 L88.8758323,15.1200387 C89.4876387,13.941329 90.6888,13.3081935 92.2817419,13.3081935 C94.8367355,13.3081935 96.1243355,14.7495871 96.1243355,17.6088 L96.1243355,24.1152774 L92.7622065,24.1152774 L92.7622065,18.701071 C92.7622065,16.9330065 92.2604129,16.1247484 90.9065806,16.1247484 C89.5752,16.1247484 88.8758323,16.9981161 88.8758323,18.6135097 L88.8758323,24.1141548 L85.5361548,24.1141548 L85.5361548,13.5922065 Z M104.311316,21.5176258 C104.726671,21.5176258 105.162232,21.4951742 105.467574,21.4513935 L105.467574,24.1152774 C104.988232,24.2028387 104.202426,24.2892774 103.241497,24.2892774 C101.669884,24.2892774 99.5077935,23.9412774 99.5077935,20.4253548 L99.5077935,16.2336387 L97.8486194,16.2336387 L97.8486194,13.5922065 L99.5077935,13.5922065 L99.5077935,10.4714323 L102.848594,10.4714323 L102.848594,13.5922065 L105.228465,13.5922065 L105.228465,16.2336387 L102.848594,16.2336387 L102.848594,19.7271097 C102.848594,21.276271 103.481729,21.5176258 104.311316,21.5176258 Z M111.602477,24.443071 C108.524361,24.443071 106.624955,22.9365677 106.624955,20.9496 L109.943303,20.9496 C109.943303,21.6702968 110.642671,22.1934194 111.66871,22.1934194 C112.388284,22.1934194 112.8912,21.8229677 112.8912,21.2111613 C112.8912,20.7958065 112.694748,20.4478065 112.126723,20.3164645 L109.5504,19.662 C107.803665,19.2241935 106.908968,18.1330452 106.908968,16.6265419 C106.908968,14.6620258 108.633252,13.2868645 111.406026,13.2868645 C114.484142,13.2868645 116.099535,14.5744645 116.099535,16.5614323 L112.803639,16.5614323 C112.803639,15.8194065 112.258065,15.4051742 111.362245,15.4051742 C110.642671,15.4051742 110.161084,15.7531742 110.161084,16.2774194 C110.161084,16.7578839 110.488877,17.0632258 111.056903,17.2158968 L113.545665,17.8928129 C115.162181,18.3306194 116.209548,19.3117548 116.209548,20.8182581 C116.209548,22.9803484 114.484142,24.443071 111.602477,24.443071 L111.602477,24.443071 Z M123.806052,21.5176258 C124.221406,21.5176258 124.65809,21.4951742 124.963432,21.4513935 L124.963432,24.1152774 C124.482968,24.2028387 123.697161,24.2892774 122.736232,24.2892774 C121.164619,24.2892774 119.003652,23.9412774 119.003652,20.4253548 L119.003652,16.2336387 L117.344477,16.2336387 L117.344477,13.5922065 L119.003652,13.5922065 L119.003652,10.4714323 L122.343329,10.4714323 L122.343329,13.5922065 L124.7232,13.5922065 L124.7232,16.2336387 L122.343329,16.2336387 L122.343329,19.7271097 C122.343329,21.276271 122.976465,21.5176258 123.806052,21.5176258 Z M131.075884,24.3992903 C127.932658,24.3992903 126.120813,22.0194194 126.120813,18.8537419 C126.120813,15.7105161 128.062877,13.3081935 131.119665,13.3081935 C132.648619,13.3081935 133.848658,14.0288903 134.416684,15.0987097 L134.416684,13.5922065 L137.735032,13.5922065 L137.735032,24.1152774 L134.416684,24.1152774 L134.416684,22.6301032 C133.848658,23.6785935 132.538606,24.3992903 131.075884,24.3992903 Z M132.036813,21.6265161 C133.695987,21.6265161 134.548026,20.3815742 134.548026,18.8537419 C134.548026,17.3472387 133.695987,16.1034194 132.036813,16.1034194 C130.487652,16.1034194 129.526723,17.2596774 129.526723,18.8537419 C129.526723,20.4478065 130.486529,21.6265161 132.036813,21.6265161 Z M140.507806,13.5922065 L143.847484,13.5922065 L143.847484,15.1200387 C144.306619,14.072671 145.397768,13.3081935 146.86049,13.3081935 C148.737445,13.3081935 149.698374,14.1389032 150.15751,15.2513806 C150.724413,14.1164516 151.969355,13.3093161 153.518516,13.3093161 C156.531523,13.3093161 157.252219,15.3827226 157.252219,17.587471 L157.252219,24.1152774 L153.89009,24.1152774 L153.89009,18.1992774 C153.89009,16.7365548 153.344516,16.1247484 152.318477,16.1247484 C151.269987,16.1247484 150.550413,16.7141032 150.550413,18.701071 L150.550413,24.1152774 L147.188284,24.1152774 L147.188284,18.1768258 C147.188284,16.7141032 146.664039,16.1247484 145.638,16.1247484 C144.568181,16.1247484 143.847484,16.7141032 143.847484,18.701071 L143.847484,24.1152774 L140.507806,24.1152774 L140.507806,13.5922065 Z M159.894774,13.5922065 L163.234452,13.5922065 L163.234452,15.0987097 C163.780026,14.094 165.090077,13.3081935 166.66169,13.3081935 C169.543355,13.3081935 171.507871,15.5353935 171.507871,18.8537419 C171.507871,22.1507613 169.478245,24.3992903 166.574129,24.3992903 C165.024968,24.3992903 163.757574,23.6134839 163.234452,22.6301032 L163.234452,28.4809935 L159.893652,28.4809935 L159.893652,13.5922065 L159.894774,13.5922065 Z M165.6132,21.6265161 C167.075923,21.6265161 168.101961,20.4915871 168.101961,18.8537419 C168.101961,17.2372258 167.075923,16.1034194 165.6132,16.1034194 C164.106697,16.1034194 163.080658,17.2158968 163.080658,18.8537419 C163.080658,20.5129161 164.129148,21.6265161 165.6132,21.6265161 Z M172.387974,15.7789935 C172.1272,15.7850321 171.869767,15.7194119 171.643703,15.5892774 C171.435865,15.467169 171.266628,15.2889836 171.155381,15.0751355 C171.039751,14.8507074 170.981149,14.6012645 170.984748,14.3488258 C170.984748,14.0861419 171.040877,13.8459097 171.155381,13.6292516 C171.268761,13.411471 171.431535,13.2408387 171.643703,13.1139871 C171.869767,12.9838527 172.1272,12.9182324 172.387974,12.924271 C172.668619,12.924271 172.915587,12.9882581 173.128877,13.1151097 C173.342168,13.2408387 173.506065,13.411471 173.619445,13.6292516 C173.733948,13.8459097 173.7912,14.0861419 173.7912,14.3488258 C173.7912,14.616 173.733948,14.8573548 173.619445,15.0751355 C173.50784,15.2894636 173.337735,15.4677427 173.128877,15.5892774 C172.915587,15.716129 172.668619,15.7801161 172.387974,15.7801161 L172.387974,15.7789935 Z M172.387974,15.5443742 C172.614735,15.5443742 172.814555,15.4904903 172.985187,15.3838452 C173.154133,15.279525 173.290296,15.1297463 173.37809,14.9516516 C173.467897,14.7709161 173.5128,14.5699742 173.5128,14.3488258 C173.5128,14.1321677 173.467897,13.933471 173.37809,13.7516129 C173.194437,13.3755022 172.806231,13.1431063 172.387974,13.1588903 C172.177292,13.1541703 171.969664,13.2098753 171.789639,13.3194194 C171.620931,13.4243638 171.484556,13.5739487 171.395613,13.7516129 C171.302128,13.9366898 171.254393,14.1414882 171.256413,14.3488258 C171.256413,14.5699742 171.302439,14.7709161 171.395613,14.9516516 C171.487665,15.1335097 171.620129,15.2772 171.789639,15.3838452 C171.960271,15.4904903 172.16009,15.5443742 172.387974,15.5443742 L172.387974,15.5443742 Z M171.880568,13.5753677 L172.467677,13.5753677 C172.616981,13.5753677 172.739342,13.6258839 172.835884,13.7280387 C172.931303,13.829071 172.979574,13.9514323 172.979574,14.0928774 C172.981252,14.1982768 172.950702,14.3016749 172.892013,14.3892387 C172.832598,14.4769753 172.745111,14.5418975 172.643923,14.5733419 L172.969471,15.0852387 L172.70791,15.0852387 L172.409303,14.6002839 L172.115187,14.6002839 L172.115187,15.0852387 L171.880568,15.0852387 L171.880568,13.5753677 L171.880568,13.5753677 Z M172.451961,14.3970968 C172.540645,14.3970968 172.611368,14.3679097 172.665252,14.3095355 C172.718737,14.2502798 172.747289,14.1726676 172.744955,14.0928774 C172.747756,14.0116638 172.719219,13.9324831 172.665252,13.871729 C172.6105,13.8125832 172.532478,13.7805531 172.451961,13.7841677 L172.1208,13.7841677 L172.1208,14.3970968 L172.451961,14.3970968 L172.451961,14.3970968 Z" id="形状"></path>
        </g>
    </g>
</svg>