<?xml version="1.0" encoding="UTF-8"?>
<svg width="240px" height="60px" viewBox="0 0 240 60" version="1.1" xmlns="http://www.w3.org/2000/svg" xmlns:xlink="http://www.w3.org/1999/xlink">
    <title>1-trailofbits</title>
    <g id="控件" stroke="none" stroke-width="1" fill="none" fill-rule="evenodd">
        <g id="logo-trail-of-bits" transform="translate(-24.000000, -42.000000)" fill="#D4D9E0" fill-rule="nonzero">
            <g transform="translate(103.000000, 47.000000)" id="形状结合">
                <path d="M23.6015609,44.5529464 C25.6609196,45.698125 27.7277652,46.8358036 29.7947,47.9733929 C29.8173391,47.9733929 29.8324913,48.0113393 29.8703717,48.064375 C28.4091674,48.2767857 26.9706913,48.4891071 25.5322152,48.6939286 C24.3889391,48.8607143 23.2381761,48.9972321 22.0949891,49.186875 C21.7542435,49.24 21.7997,49.13375 21.8753717,48.90625 C22.3448217,47.5108036 22.8066065,46.1076786 23.2684804,44.7046429 C23.329,44.5225893 23.3820326,44.4316071 23.6015609,44.5529464 Z M76.6669696,36.8097321 C77.9692543,38.1141964 78.325063,39.6841071 77.9767413,41.4360714 C77.6436609,43.0969643 76.9471065,44.60625 75.9402,45.9486607 C74.9786609,47.2303571 73.6461609,47.9660714 72.0638283,48.2541964 C70.1634783,48.5955357 68.2632174,48.6561607 66.3780196,48.155625 C64.7653826,47.7233036 63.561587,46.8208036 63.1603217,45.0991964 C62.9483696,44.1815179 63.0240413,43.2638393 63.2436587,42.3613393 C63.3572109,41.90625 63.5161304,41.4739286 63.6524109,41.0265179 C63.6978674,40.8748214 63.7736283,40.7914286 63.9477,40.7914286 L68.6493304,40.7914286 L68.6493304,40.7914286 C68.4448652,41.2388393 68.2632174,41.6483929 68.1647283,42.0958929 C68.0663283,42.5660714 67.9679283,43.02875 68.0436,43.5141071 C68.1950326,44.5076786 68.9370435,45.0916071 69.94395,44.9702679 C71.6701391,44.7655357 73.3660239,42.9983929 73.3963283,41.2767857 C73.4114804,40.2453571 73.0102152,39.3125 72.3666935,38.4933929 C71.9654283,37.9852679 71.4808261,37.568125 70.9584326,37.1889286 C70.8751848,37.120625 70.7540565,37.0751786 70.7161761,36.9083036 C71.1401696,36.8703571 71.564163,36.8324107 71.9805804,36.8021429 C73.3357196,36.7186607 74.6909478,36.6428571 76.0461761,36.5442857 C76.3111609,36.5291071 76.4853217,36.6200893 76.6669696,36.8097321 Z M36.9872587,24.80375 C37.6686609,24.8340179 38.3349109,24.9705357 38.9784326,25.2133036 C40.909087,25.9261607 41.870537,27.51125 41.6964652,29.6879464 C41.4314804,32.858125 39.7430826,34.7845536 36.449713,35.6491071 C36.4119217,35.6642857 36.3891935,35.671875 36.2982804,35.6946429 C36.5784174,35.8235714 36.7980348,35.9069643 37.0024109,36.0207143 C38.2743913,36.688125 38.9784326,37.7575 38.9784326,39.1833929 C38.9935848,42.543125 37.6535087,45.1445536 34.5646043,46.6765179 C33.6257935,47.1391964 32.6187978,47.3591071 31.581587,47.4198214 C31.39985,47.4273214 31.2409304,47.3970536 31.0819217,47.3059821 C28.7424261,46.0242857 26.4030196,44.7425893 24.056037,43.4759821 C23.8439957,43.3622321 23.8136913,43.2560714 23.8818761,43.0361607 C25.7973783,37.0370536 27.7127913,31.0379464 29.6282935,25.0388393 C29.688813,24.8491964 29.7569978,24.750625 29.9916783,24.750625 C32.3235087,24.7809821 34.6554283,24.6975 36.9872587,24.80375 Z M59.8440457,38.1216964 C59.2307391,40.0557143 58.6326739,41.9896429 58.0345196,43.9236607 C57.9815761,44.0905357 57.890663,44.1663393 57.7316543,44.2194643 C56.1644739,44.6820536 54.5972935,45.1447321 53.030113,45.6149107 C52.931713,45.6452679 52.8332239,45.7134821 52.7424,45.6452679 C52.6364239,45.561875 52.7348239,45.455625 52.7651283,45.3722321 C53.4918978,43.0514286 54.2263326,40.7383036 54.9531022,38.4175 C55.0061348,38.243125 55.0591674,38.1066071 55.2938478,38.0914286 C56.7171717,37.9927679 58.1480717,37.8941964 59.4729957,37.8108036 C59.8666848,37.7349107 59.9348696,37.8335714 59.8440457,38.1216964 Z M30.4156717,37.3479464 C30.2642391,37.3403571 30.2339348,37.4314286 30.1960543,37.5527679 C29.5298043,39.6232143 28.8635543,41.7013393 28.1898174,43.7717857 C28.1292087,43.9538393 28.159513,44.0220536 28.3638891,44.0144643 C28.8106109,43.9992857 29.2497565,44.006875 29.688813,44.006875 L29.688813,43.9916964 L29.688813,43.9916964 C30.1052304,43.9916964 30.5216478,44.006875 30.9380652,43.9916964 C31.8617239,43.9538393 32.6491022,43.6200893 33.2245283,42.8541071 C33.9058413,41.9364286 34.3752913,40.9352679 34.5720913,39.8052679 C34.7841326,38.6069643 34.2693152,37.8182143 33.0882478,37.5224107 C32.2099565,37.3025 31.3090261,37.3783036 30.4156717,37.3479464 Z M51.675063,8.65704464 C53.0151391,9.08178571 54.3703674,9.49133929 55.7180196,9.878125 C56.0208848,9.96910714 55.9223957,10.1132143 55.8694522,10.2952679 C54.0145587,16.1578571 52.1596652,22.0127679 50.3047717,27.8753571 C49.3583848,30.8635714 48.4044217,33.8517857 47.4656109,36.8475 C47.3899391,37.0901786 47.29145,37.2191071 47.0114022,37.2342857 C45.6031413,37.3252679 44.1798174,37.4391071 42.6731565,37.5528571 C42.6958848,37.5528571 42.6277891,37.5452679 42.5671804,37.5604464 C42.3325,37.5983036 42.2870435,37.5300893 42.3628043,37.3025893 C42.7867087,36.0359821 43.1803978,34.761875 43.6043913,33.4952679 C46.3375761,25.3725893 48.7224391,17.14375 51.1602457,8.93767857 C51.2587348,8.61153571 51.3647109,8.55844643 51.675063,8.65704464 Z M53.9008283,24.7961607 C58.8068348,24.80375 63.7128413,24.80375 68.6188478,24.80375 C68.6643043,24.80375 68.7020957,24.8189286 68.7778565,24.8341071 C68.5885435,25.4257143 68.4068957,26.0172321 68.2175826,26.60125 C68.0434217,27.1549107 67.8541978,27.7008929 67.7027652,28.2621429 C67.6346696,28.5124107 67.5134522,28.5655357 67.2787717,28.5655357 C65.9009043,28.5579464 64.5305239,28.5655357 63.1525674,28.5503571 C62.8800065,28.5503571 62.7664543,28.63375 62.6832065,28.8916071 C61.9336196,31.3185714 61.1538174,33.7455357 60.4118957,36.1725 C60.3210717,36.4758036 60.1847913,36.5820536 59.87435,36.5972321 C58.5115457,36.6730357 57.1563174,36.7640179 55.8011783,36.8777679 C55.4755848,36.9005357 55.4604326,36.8171429 55.5437696,36.5365179 C56.3387239,34.0109821 57.11095,31.4854464 57.9059043,28.9599107 C58.0043043,28.6489286 57.9967283,28.5351786 57.6106152,28.5427679 C56.0207065,28.5655357 54.4307978,28.5427679 52.8408891,28.5579464 C52.5228717,28.5579464 52.4926565,28.4821429 52.5834804,28.1939286 C52.931713,27.1549107 53.2573065,26.1082143 53.5752348,25.0616071 C53.6282674,24.8796429 53.6964522,24.7961607 53.9008283,24.7961607 Z M79.0366804,25.1223214 C80.414637,25.6153571 81.4366957,26.4875 81.8001696,27.9816071 C81.93645,28.5504464 81.9590891,29.1267857 81.845537,29.7108036 C81.7092565,30.3933929 81.5124565,31.0532143 81.285263,31.7130357 C81.2247435,31.8950893 81.1263435,31.9557143 80.9294543,31.9557143 C79.56665,31.948125 78.2039348,31.948125 76.8411304,31.9557143 C76.5912978,31.9557143 76.5761457,31.8799107 76.6518174,31.6675 C76.8108261,31.2049107 76.992563,30.7498214 77.0985391,30.2644643 C77.1742109,29.9155357 77.189363,29.5591071 77.1364196,29.2102679 C77.0606587,28.7096429 76.7805217,28.3683929 76.2884326,28.2015179 C75.1376696,27.8223214 74.0550022,28.17875 73.4417848,29.2254464 C72.6770457,30.5147321 72.518037,31.8116071 73.5023043,33.1008929 C74.1155217,33.92 74.7741957,34.6935714 75.5994543,35.4444643 C74.5849717,35.5126786 73.661313,35.5809821 72.7300783,35.6416071 C71.7836913,35.7023214 70.8448804,35.7553571 69.8984935,35.83125 C69.6789652,35.8464286 69.5048043,35.8084821 69.3306435,35.6871429 C68.4069848,35.0273214 67.8164957,34.1096429 67.763463,33.0023214 C67.657487,30.7877679 68.225337,28.7475893 69.7092696,27.0411607 C70.7540565,25.8352679 72.0865565,25.1148214 73.6385848,24.7886607 C75.4631739,24.4094643 77.2802761,24.4928571 79.0366804,25.1223214 Z M33.3002,28.2317857 C33.1487674,28.2317857 33.118463,28.3303571 33.0882478,28.4441071 C32.5052457,30.2567857 31.9298196,32.069375 31.3393304,33.874375 C31.2711457,34.0867857 31.3393304,34.1019643 31.5209783,34.1019643 C31.8693,34.094375 32.2402609,34.1019643 32.6036457,34.094375 C32.7929587,34.094375 32.9821826,34.1019643 33.1714957,34.094375 C35.7305196,34.0184821 37.2370913,32.5016964 37.1993,30.0367857 C37.1841478,29.1266964 36.7753065,28.5958036 35.8970152,28.3834821 C35.0415413,28.1710714 34.1633391,28.239375 33.3002,28.2317857 Z M22.3601522,25.2436607 C22.8825457,25.5622321 23.094587,26.0475893 22.9960978,26.6316071 C22.7462652,28.0498214 22.2769043,29.415 21.7014783,30.7270536 C21.300213,31.6371429 20.6112348,31.9708036 19.3999522,31.9783929 C19.1273913,31.948125 18.8472543,31.9405357 18.5746935,31.8874107 C17.4996022,31.6675 17.0301522,31.0379464 17.2875609,29.98375 C17.5904261,28.74 17.9387478,27.4961607 18.4989326,26.3358036 C19.1576065,24.9554464 21.0352283,24.4473214 22.3601522,25.2436607 Z M27.6902413,24.9327679 C27.9249217,24.9327679 28.0005935,24.963125 27.9173457,25.2209821 C27.6670822,26.0160863 27.6599364,26.0670282 26.900952,26.0702344 L25.8126196,26.0704464 L25.8126196,26.0704464 C25.661187,26.0704464 25.5552109,26.093125 25.5097543,26.2675893 C25.4037783,26.654375 25.2674978,27.0335714 25.1463696,27.4203571 C25.1160652,27.5114286 25.093337,27.61 25.0555457,27.7541071 C25.6308826,27.7541071 26.1760043,27.7616964 26.7211261,27.7465179 C26.9558065,27.7389286 26.993687,27.8072321 26.9330783,28.0271429 C26.6908217,28.8841071 26.6983978,28.8841071 25.7974674,28.8916964 C25.4340826,28.8916964 24.9797848,28.7400893 24.7299522,28.9524107 C24.5028478,29.1495536 24.4876957,29.5970536 24.3817196,29.9308036 C24.2075587,30.484375 24.0258217,31.0304464 23.8669022,31.5916964 C23.8062935,31.7965179 23.7306217,31.8799107 23.5110043,31.8723214 C23.1097391,31.8571429 22.7084739,31.8723214 22.2769935,31.8723214 C22.71605,30.4389286 23.1476196,29.0509821 23.5791891,27.6555357 C23.8290217,26.8516071 24.0788543,26.0476786 24.3211109,25.2361607 C24.3817196,25.0389286 24.4498152,24.9251786 24.6996478,24.9327679 C25.6914913,24.9479464 26.6908217,24.9479464 27.6902413,24.9327679 Z M20.8460043,25.9566071 C20.3386739,25.9641964 20.0131696,26.2447321 19.8390087,26.6846429 C19.4225913,27.7236607 19.0895109,28.7930357 18.7866457,29.87 C18.7563413,29.9761607 18.7487652,30.0975 18.7487652,30.2113393 C18.7487652,30.6663393 19.006263,30.9166071 19.3469196,30.9166071 C19.9147696,30.9014286 20.2175457,30.6511607 20.3765543,30.2491964 C20.8308522,29.1040179 21.2093891,27.9284821 21.5122543,26.7301786 C21.6258065,26.2750893 21.3153652,25.9490179 20.8460043,25.9566071 Z M13.0402283,16.9845536 C14.35,17.3409821 15.6597717,17.6974107 16.9695435,18.03875 C17.1740087,18.0917857 17.1588565,18.1752679 17.1134,18.3269643 C16.5834304,19.9802679 16.0534609,21.64125 15.5462196,23.3021429 C15.4780348,23.5145536 15.3644826,23.5372321 15.1904109,23.5372321 L14.1342152,23.5296429 L14.1342152,23.5296429 L13.0780196,23.5220536 L13.0780196,23.5220536 C12.3815543,23.5220536 11.6925761,23.5145536 10.9960217,23.5296429 C10.7083087,23.5372321 10.6553652,23.4614286 10.7461891,23.1883929 C11.4124391,21.1785714 12.071113,19.16875 12.7146348,17.1513393 C12.7752435,16.9541964 12.8584913,16.9390179 13.0402283,16.9845536 Z M37.8200043,4.43257143 C38.7210239,4.72076786 39.6219543,4.99380357 40.5304609,5.25166071 C40.7878696,5.32750893 40.8181739,5.41092857 40.7046217,5.653625 C39.3645457,8.64180357 37.9033413,11.576875 36.3815283,14.4740179 C36.3134326,14.5953571 36.2528239,14.7166964 36.162,14.89875 C37.6686609,14.89875 39.0995609,14.8911607 40.538037,14.9063393 C40.8181739,14.9063393 40.7954457,14.7470536 40.7954457,14.5650893 C40.7954457,13.4805357 40.82575,12.3959821 40.8786935,11.3038393 C40.9696065,9.44571429 41.1361913,7.60276786 41.3405674,5.75222321 C41.3632957,5.56261607 41.4162391,5.51710714 41.5979761,5.57778571 C42.8245,5.95699107 44.0510239,6.32861607 45.2850348,6.69266071 C45.4895,6.75333929 45.5122283,6.86709821 45.5046522,7.04911607 C45.4743478,8.24741964 45.4516196,9.44571429 45.4213152,10.6516071 C45.3229152,14.7925893 45.2245152,18.9411607 45.1336022,23.0821429 C45.1260261,23.3551786 45.0276261,23.3778571 44.8005217,23.3778571 C43.4149891,23.3702679 42.0219696,23.3702679 40.636437,23.3778571 C40.3714522,23.3778571 40.3033565,23.3172321 40.3185087,23.0441964 L40.4925804,18.8804464 L40.4925804,18.8804464 C40.5077326,18.5922321 40.4547891,18.4936607 40.1443478,18.50125 C38.3273348,18.5164286 36.5102326,18.5164286 34.6932196,18.5088393 C34.4585391,18.5088393 34.3374109,18.5846429 34.2314348,18.7894643 L31.9677,23.1048214 L31.9677,23.1048214 C31.884363,23.2565179 31.8238435,23.3702679 31.6118022,23.3702679 C30.0446217,23.3626786 28.4850174,23.3626786 26.917837,23.3626786 C26.8420761,23.2261607 26.9556283,23.1503571 27.0086609,23.059375 C30.4610391,16.9161607 33.9134174,10.7729464 37.3582196,4.62975893 C37.4793478,4.41740179 37.5853239,4.35673214 37.8200043,4.43257143 Z M58.8675326,10.8259821 C60.1243609,11.2279464 61.3886761,11.6147321 62.6606565,11.9788393 C62.9482804,12.0622321 63.001313,12.145625 62.9104891,12.4338393 C62.1760543,14.7091071 61.464437,16.9919643 60.7300022,19.2748214 C60.6240261,19.6084821 60.6921217,19.6616071 61.0252913,19.6540179 C62.902913,19.6388393 64.7805348,19.6464286 66.6656435,19.63125 C67.0215413,19.63125 67.0517565,19.7147321 66.9457804,20.0332143 C66.5975478,21.034375 66.2719543,22.0430357 65.9540261,23.0516964 C65.8858413,23.2716964 65.7874413,23.3399107 65.560337,23.3399107 C63.7811152,23.3323214 62.0019826,23.3323214 60.2227609,23.3323214 C60.2151848,23.3171429 60.2151848,23.3247321 60.2151848,23.3323214 C58.4511152,23.3323214 56.6871348,23.3247321 54.9154891,23.3399107 C54.5823196,23.3399107 54.5823196,23.2489286 54.6656565,22.9834821 C55.9299717,19.009375 57.1868,15.0352679 58.428387,11.0611607 C58.5117239,10.7957143 58.6025478,10.7425893 58.8675326,10.8259821 Z M18.1354587,0.609915179 C20.1039043,0.6175 22.07235,0.60233125 24.0407957,0.625083929 C25.2445913,0.640252679 26.4256587,0.837441071 27.5234783,1.36075 C29.1361152,2.12675 29.9613739,3.40848214 30.0597739,5.1831875 C30.1278696,6.38148214 29.96895,7.55703571 29.4919239,8.66433036 C28.5077457,10.9319643 26.7133717,12.0924107 24.2149565,12.4033036 C24.6086457,12.5322321 24.9493022,12.6233036 25.2748957,12.7446429 C26.5619391,13.2451786 27.1297891,14.0870536 27.1070609,15.4749107 C27.0919087,16.7263393 26.7057957,17.9094643 26.3348348,19.085 C25.9259935,20.3970536 25.4868478,21.7015179 25.5171522,23.1046429 C25.5171522,23.2639286 25.4566326,23.2866964 25.3203522,23.2866964 C23.8061152,23.2866964 22.2918783,23.2791071 20.7777304,23.2941964 C20.5203217,23.2941964 20.5657783,23.1652679 20.5808413,23.0136607 C20.6793304,21.6333036 21.0881717,20.3136607 21.4591326,18.9940179 C21.7316935,18.0232143 22.0571978,17.0675893 22.2162065,16.0665179 C22.4281587,14.7316964 22.0496217,14.2235714 20.6944826,14.0870536 C20.0130804,14.01875 19.3316783,14.0566964 18.6502761,14.0794643 C18.453387,14.0870536 18.3701391,14.1704464 18.3171065,14.3525 C18.0824261,15.1260714 17.8250174,15.8844643 17.597913,16.6580357 C17.5297283,16.885625 17.4540565,16.9614286 17.2042239,16.8932143 C15.9322435,16.5366964 14.6527761,16.1954464 13.3733087,15.8616964 C13.1385391,15.8010714 13.1159,15.7100893 13.1839957,15.4976786 C14.7058087,10.6286607 16.2275326,5.75958036 17.7417696,0.890530357 C17.8098652,0.670589286 17.9083543,0.609915179 18.1354587,0.609915179 Z M3.16787391,14.3982143 C4.47765457,14.7623214 5.78743522,15.1111607 7.09722478,15.46 C7.26378283,15.5055357 7.36977674,15.5207143 7.30163652,15.7482143 C6.63538652,17.8641964 5.99185587,19.9801786 5.33317304,22.0961607 C5.3180387,22.1341071 5.29531935,22.1644643 5.25746565,22.2478571 C4.26566674,21.2088393 3.35714239,20.1622321 2.34263304,19.2141964 C1.75209043,18.6605357 1.68395022,18.1751786 1.95651109,17.4546429 C2.3199137,16.5217857 2.56218804,15.5358929 2.84989217,14.5726786 C2.90288913,14.390625 2.97102043,14.3451786 3.16787391,14.3982143 Z M16.3942065,0.640650893 C16.6743435,0.640650893 16.7651674,0.6709875 16.6667674,0.9819375 C16.3184457,2.02097321 15.9929413,3.06758929 15.6825,4.11421429 C15.6144043,4.34932143 15.5008522,4.40999107 15.2660826,4.40999107 C13.8882152,4.39483036 12.5178348,4.40999107 11.1398783,4.40241071 C10.8748935,4.40241071 10.7537652,4.47066964 10.6780935,4.73611607 C9.73170652,7.81529464 8.77019413,10.8944643 7.81624891,13.98125 C7.74053261,14.2315179 7.66482522,14.3452679 7.36198674,14.2542857 C6.11277022,13.8978571 4.8635537,13.5565179 3.60677,13.245625 C3.30393152,13.1697321 3.273645,13.0711607 3.35692848,12.798125 C4.21244696,10.1208929 5.05283109,7.44366964 5.89321522,4.75886607 C5.92349283,4.66027679 5.94621217,4.54650893 5.98406587,4.41758036 L0.464800957,4.41758036 L0.464800957,4.41758036 C0.623792717,3.91702679 0.767641217,3.44680357 0.919059565,2.969 C1.12348022,2.30916964 1.34303522,1.64934821 1.53231261,0.9819375 C1.60045283,0.731661607 1.72159,0.663403571 1.9789987,0.663403571 C4.66670913,0.6709875 7.35441957,0.663403571 10.0345717,0.655819643 C12.15445,0.655819643 14.2743283,0.655819643 16.3942065,0.640650893 Z M61.4567717,2.4455625 C62.6681435,3.24190179 63.8795152,4.03066071 65.090887,4.827 C65.1665587,4.88767857 65.2649587,4.94076786 65.2498957,5.06210714 C65.1286783,5.44890179 65.00755,5.83569643 64.8939978,6.21491071 C64.432213,7.69383036 63.9703391,9.17276786 63.5237065,10.6592857 C63.4555217,10.8867857 63.37985,10.955 63.1300174,10.8791964 C61.8353087,10.4696429 60.533113,10.0828571 59.2309174,9.69607143 C59.003813,9.62776786 58.9810848,9.53678571 59.0491804,9.316875 C59.6321826,7.48147321 60.2000326,5.63850893 60.7677935,3.79555357 C60.8964978,3.38600893 61.0327783,2.97645536 61.1463304,2.56691071 C61.199363,2.36972321 61.2750348,2.32421429 61.4567717,2.4455625 Z M21.6257174,4.17448214 C21.4136761,4.16690179 21.4212522,4.31858929 21.3833717,4.4399375 C21.1108109,5.31969643 20.8458261,6.19946429 20.5808413,7.07165179 C20.2401848,8.21685714 19.8843761,9.35446429 19.5209022,10.53 C20.353737,10.53 21.1411152,10.5149107 21.9284935,10.53 C22.7234478,10.5451786 23.3821217,10.2570536 23.9120913,9.68821429 C24.8584783,8.67191071 25.3203522,7.4356875 25.4187522,6.06294643 C25.4944239,5.02391964 24.9947587,4.43234821 23.9651239,4.25033036 C23.1853217,4.1138125 22.4055196,4.20482143 21.6257174,4.17448214 Z M45.7317565,0.481448214 L45.7312737,0.683008476 C45.7299082,1.01126185 45.7260288,1.42899997 45.7246632,1.57005339 L45.7241804,1.77154464 C45.7241804,3.91322321 45.6636609,5.24432143 45.6636609,5.24432143 C45.6636609,5.54010714 45.580413,5.57802679 45.3078522,5.49459821 C42.9607804,4.77409821 40.6137978,4.06876786 38.2668152,3.37102679 C37.9563739,3.28001786 37.9184935,3.18141964 38.0926543,2.9235625 C38.2668152,2.66569643 38.3887457,2.38220536 38.5393761,2.09688393 C38.7614,1.67610714 39.008737,1.49014286 39.4630348,1.40672321 C41.4542087,1.03509821 43.4302304,0.633132143 45.4138283,0.223585714 C45.6863891,0.170496429 45.7317565,0.205775893 45.7317565,0.481448214 Z"></path>
            </g>
        </g>
    </g>
</svg>