<svg id="图层_1" data-name="图层 1" xmlns="http://www.w3.org/2000/svg" xmlns:xlink="http://www.w3.org/1999/xlink" viewBox="0 0 381.25 124.75"><defs><style>.cls-1{fill:url(#未命名的渐变);}.cls-2{fill:url(#未命名的渐变-2);}.cls-3{font-size:64px;fill:#262c3a;font-family:Roboto-Regular, Roboto;}.cls-4{letter-spacing:-0.01em;}.cls-5{letter-spacing:-0.01em;}</style><linearGradient id="未命名的渐变" x1="55.52" y1="146.69" x2="129.25" y2="146.69" gradientUnits="userSpaceOnUse"><stop offset="0" stop-color="#a649f2"/><stop offset="1" stop-color="#5370ff"/></linearGradient><linearGradient id="未命名的渐变-2" x1="105.7" y1="176.89" x2="180.28" y2="176.89" xlink:href="#未命名的渐变"/></defs><title>300</title><path id="路径" class="cls-1" d="M129.25,106.3v44.11a.61.61,0,0,1-.61.61H106.31a.61.61,0,0,1-.61-.61v-24a.61.61,0,0,0-1.06-.41L84.51,148.2a.61.61,0,0,0-.16.41v43.61a1.52,1.52,0,0,1-2.6,1.08L61.51,173.06c-3.84-3.84-4.84-5.64-5.49-7.8a11.08,11.08,0,0,1,0-6.52c.65-2.16,1.65-4,5.49-7.8l45.34-45.34c3.84-3.84,5.64-4.84,7.8-5.49a11.08,11.08,0,0,1,6.52,0c2.16.65,4,1.65,7.8,5.49A1,1,0,0,1,129.25,106.3Z" transform="translate(-55.52 -99.62)"/><path id="路径-2" data-name="路径" class="cls-2" d="M174.29,150.94c3.84,3.84,4.84,5.64,5.49,7.8a11.08,11.08,0,0,1,0,6.52c-.65,2.16-1.65,4-5.49,7.8L129,218.39c-3.84,3.84-5.64,4.84-7.8,5.49a11.08,11.08,0,0,1-6.52,0c-2.16-.65-4-1.65-7.8-5.49l-.69-.69a1.52,1.52,0,0,1-.45-1.08V171.27a.61.61,0,0,1,.61-.61h22.32a.61.61,0,0,1,.61.61v23.09a.61.61,0,0,0,1.05.42l20.13-21.05a.61.61,0,0,0,.17-.42V130.92a1.52,1.52,0,0,1,2.6-1.08Z" transform="translate(-55.52 -99.62)"/><text class="cls-3" transform="translate(142.38 81.08)">hash<tspan class="cls-4" x="141.41" y="0">k</tspan><tspan class="cls-5" x="173.59" y="0">e</tspan><tspan x="206.69" y="0">y</tspan></text></svg>