<svg id="图层_1" data-name="图层 1" xmlns="http://www.w3.org/2000/svg" viewBox="0 0 181.53 200.01"><defs><style>.cls-1{fill:#f07629;}</style></defs><title>icon-zg</title><path class="cls-1" d="M10,0H191.54V33.25H10Z" transform="translate(-10.01 0.01)"/><path class="cls-1" d="M99.39,59.7a75,75,0,0,1,51.95,20.91l37.43-40.43H10L47.44,80.61A75,75,0,0,1,99.39,59.7Z" transform="translate(-10.01 0.01)"/><path class="cls-1" d="M100.77,69.28a65.36,65.36,0,1,0,65.36,65.36A65.36,65.36,0,0,0,100.77,69.28Zm25.47,101.61L100.77,157.5,75.3,170.89l4.87-28.37L59.55,122.44,88,118.3l12.74-25.81,12.74,25.81L142,122.44l-20.61,20.09Z" transform="translate(-10.01 0.01)"/></svg>