<svg id="Layer_1" data-name="Layer 1" xmlns="http://www.w3.org/2000/svg" viewBox="0 0 574.74 145"><defs><style>.cls-1{fill:#a84b47;}.cls-2{fill:#fff0d8;}.cls-3{fill:#dc5956;}</style></defs><title>Steaker</title><path class="cls-1" d="M229,187.5H109v25a60,60,0,0,0,120,0Z" transform="translate(-108.95 -127.5)"/><circle class="cls-2" cx="60" cy="60" r="60"/><path class="cls-3" d="M209.75,164.82a9,9,0,0,0-8.85-4.53c-7.28.81-16.41,2.56-23.3,5.15-9.85,3.71-15.18,8.52-14.41,11.81s6,3.47,10.77,4.61,12.54,3.88,15.6,10c1.48,3,2.6,7.7-.47,13.46-4.74,8.87-18.62,16.92-33.06,22.33a2.49,2.49,0,0,0,.14,4.73A46.78,46.78,0,0,0,173.33,234c21.72-2,41.05-22.09,42.24-43.87A46.51,46.51,0,0,0,209.75,164.82Z" transform="translate(-108.95 -127.5)"/><path class="cls-3" d="M178.24,197c-1-3.27-6.37-5.12-11.4-6.2-7-1.49-14.69-3.24-17-10.41C149,177.79,149,174,152,169.17c6-9.56,21.93-15.91,36.61-19a2.5,2.5,0,0,0,.58-4.68A46.6,46.6,0,0,0,165.44,141c-21.57,1.58-41.28,21.16-43,42.72a46.5,46.5,0,0,0,10.24,33.16,9,9,0,0,0,9.36,3c10.58-2.84,21.19-7.14,28.27-11.9C175.65,204.38,179.25,200.23,178.24,197Z" transform="translate(-108.95 -127.5)"/><path class="cls-1" d="M329.67,199.53c-4.39-3.88-10.9-7-19.33-9.38-5.79-1.83-9.92-3.57-12.26-5.2a7,7,0,0,1-3.37-6,7.71,7.71,0,0,1,3.24-6.44c2.19-1.69,6.36-3,10.41-3,8.51,0,11.21,2.64,12.5,3.43l2,10.7h11.6V167.74a28.32,28.32,0,0,0-11.72-7.82,45.06,45.06,0,0,0-16.21-2.7c-8,.11-14.75,2.18-20,6.15s-8.06,9.25-8.06,15.57,2.41,11.49,7.16,15.17,11.64,6.78,20.7,9.41c5.11,1.54,8.73,3.2,10.74,4.93a8.32,8.32,0,0,1,2.94,6.7,7.73,7.73,0,0,1-3.08,6.47c-2.08,1.63-5.2,2.46-9.25,2.46a29.27,29.27,0,0,1-8.68-1.21A18.43,18.43,0,0,1,293,220l-1.66-11.08H278.61v16.63l.14.14a34.31,34.31,0,0,0,12.36,8.08,45,45,0,0,0,16.56,2.92c8.52,0,15.5-1.94,20.73-5.75a18.67,18.67,0,0,0,8-15.86A19.8,19.8,0,0,0,329.67,199.53Z" transform="translate(-108.95 -127.5)"/><path class="cls-1" d="M370.19,164.48v13.89h10v10.74h-10V218q0,3.3,1.36,4.72a4.86,4.86,0,0,0,3.67,1.41A25.15,25.15,0,0,0,378,224a26.7,26.7,0,0,0,2.65-.44l1.31,11.06a36.71,36.71,0,0,1-5.08,1.18,35.32,35.32,0,0,1-5.45.39q-7.91,0-12.18-4.35T354.94,218V189.11h-8.33V178.37h8.33V164.48Z" transform="translate(-108.95 -127.5)"/><path class="cls-1" d="M419.36,236.16q-12.26,0-19.6-7.86t-7.34-20v-2.1q0-12.63,6.94-20.8T418,177.32q11.48,0,17.81,6.92t6.34,18.71v8.33H408.3l-.11.31a14.8,14.8,0,0,0,3.75,9.22,11.68,11.68,0,0,0,9,3.62,29.41,29.41,0,0,0,8.43-1,38.85,38.85,0,0,0,7.34-3.22l4.14,9.43a30.06,30.06,0,0,1-9.09,4.66A38.71,38.71,0,0,1,419.36,236.16ZM418,189.11a8,8,0,0,0-6.71,3.25,16.92,16.92,0,0,0-3,8.54l.16.26h18.76V199.8a12.26,12.26,0,0,0-2.28-7.78Q422.61,189.11,418,189.11Z" transform="translate(-108.95 -127.5)"/><path class="cls-1" d="M488.56,235.06a27.61,27.61,0,0,1-1.1-2.91,23,23,0,0,1-.73-3,21,21,0,0,1-6.63,5.08,19.84,19.84,0,0,1-8.93,1.94q-8.33,0-13.23-4.53T453,219.29A14,14,0,0,1,459.43,207q6.39-4.35,18.76-4.35H486v-5.55a8.35,8.35,0,0,0-2.36-6.34q-2.36-2.25-7-2.25a16.52,16.52,0,0,0-4.66.6,12.2,12.2,0,0,0-3.3,1.44l-1,6.08H456.18l.05-12.57a42.83,42.83,0,0,1,9.61-4.77,34.89,34.89,0,0,1,11.82-1.94q10.53,0,17.11,5.16t6.58,14.7V220.6c0,.87,0,1.7,0,2.46a17.52,17.52,0,0,0,.18,2.2l4.66.63v9.17Zm-13.26-10.22a13.27,13.27,0,0,0,6.29-1.49,12.16,12.16,0,0,0,4.4-3.75V211h-7.81q-4.87,0-7.39,2.28a7.14,7.14,0,0,0-2.52,5.48,5.66,5.66,0,0,0,1.86,4.5A7.59,7.59,0,0,0,475.31,224.84Z" transform="translate(-108.95 -127.5)"/><path class="cls-1" d="M514.46,165.19V156h23.42v44.72h6.36l8.8-12.42-5-.68v-9.22H575v9.22l-6.71,1.52-10.22,14,14.3,21.54,5.82,1.2v9.17H552.94v-9.17l3.14-.52-8.7-14h-9.51v13l6.6,1.57v9.17H515.25v-9.17l7.39-1.57V166.76Z" transform="translate(-108.95 -127.5)"/><path class="cls-1" d="M611.36,236.16q-12.26,0-19.6-7.86t-7.33-20v-2.1q0-12.63,6.94-20.8T610,177.32q11.48,0,17.82,6.92t6.34,18.71v8.33H600.31l-.11.31a14.78,14.78,0,0,0,3.75,9.22,11.68,11.68,0,0,0,9,3.62,29.43,29.43,0,0,0,8.44-1,38.92,38.92,0,0,0,7.34-3.22l4.14,9.43a30.07,30.07,0,0,1-9.09,4.66A38.68,38.68,0,0,1,611.36,236.16ZM610,189.11a8,8,0,0,0-6.71,3.25,16.92,16.92,0,0,0-3,8.54l.16.26h18.76V199.8a12.26,12.26,0,0,0-2.28-7.78Q614.61,189.11,610,189.11Z" transform="translate(-108.95 -127.5)"/><path class="cls-1" d="M644.24,225.89l7.34-1.57V189.16l-8.12-1.57v-9.22h22.37l.68,8.28a17.83,17.83,0,0,1,5.14-6.86,11.46,11.46,0,0,1,7.28-2.46,19,19,0,0,1,2.54.18,15.69,15.69,0,0,1,2.23.45l-1.63,13.94-6.29-.16a10.72,10.72,0,0,0-5.55,1.31,8.47,8.47,0,0,0-3.35,3.72v27.56l7.34,1.57v9.17h-30Z" transform="translate(-108.95 -127.5)"/></svg>