<svg id="图层_1" data-name="图层 1" xmlns="http://www.w3.org/2000/svg" viewBox="0 0 284.76 65.32"><defs><style>.cls-1{fill:#1e8173;}</style></defs><title>矢量智能对象</title><path class="cls-1" d="M217.41,67H258.7a6.38,6.38,0,0,0,0-12.77H217.41a6.38,6.38,0,0,0,0,12.77Z" transform="translate(-56.98 -53.84)"/><path class="cls-1" d="M217.41,92.71H258.7a6.38,6.38,0,0,0,0-12.77H217.41a6.38,6.38,0,0,0,0,12.77Z" transform="translate(-56.98 -53.84)"/><rect class="cls-1" x="154.05" y="51.78" width="54.05" height="12.84" rx="6.38" ry="6.38"/><path class="cls-1" d="M194.69,55.72a6.38,6.38,0,0,0-8.54,2.94l-19.49,40L147.1,58.49a6.38,6.38,0,0,0-11.48,5.6l24.88,51a6.81,6.81,0,0,0,12.1.47l25-51.32A6.38,6.38,0,0,0,194.69,55.72Z" transform="translate(-56.98 -53.84)"/><path class="cls-1" d="M318.83,86.82l21-21a6.38,6.38,0,0,0-9-9l-21,21-21-21a6.38,6.38,0,1,0-9,9l21,21L280,107.55a6.38,6.38,0,0,0,9,9L309.8,95.85l20.73,20.73a6.38,6.38,0,0,0,9-9Z" transform="translate(-56.98 -53.84)"/><path class="cls-1" d="M122.42,86.81a6.38,6.38,0,0,0-12.77,0V97.14L68.22,55.71a6.82,6.82,0,0,0-11.24,5v51.07a6.38,6.38,0,0,0,12.77,0V75.3l40.37,40.37a6.35,6.35,0,0,0,2.49,1.54,6.38,6.38,0,0,0,9.81-5.38Z" transform="translate(-56.98 -53.84)"/><circle class="cls-1" cx="59.05" cy="6.9" r="6.38"/></svg>