<svg id="图层_1" data-name="图层 1" xmlns="http://www.w3.org/2000/svg" viewBox="0 0 100.55 56.24"><defs><style>.cls-1{fill:#29aeff;}.cls-2{fill:#2761e7;}.cls-3{fill:#222;}</style></defs><title>logo</title><g id="_编组_" data-name="&lt;编组&gt;"><g id="_编组_2" data-name="&lt;编组&gt;"><path id="_路径_" data-name="&lt;路径&gt;" class="cls-1" d="M510.3,496.66v-8H495.47a.51.51,0,0,0-.51.51h0v11.32h0a.51.51,0,0,0,.51.51h5.66v20.57h0a.51.51,0,0,0,.51.51h9.26a.51.51,0,0,0,.51-.51V496.66Z" transform="translate(-463.68 -486.08)"/><path id="_路径_2" data-name="&lt;路径&gt;" class="cls-2" d="M520.62,486.08H507.28a.51.51,0,0,0-.51.51h0V519h0a.51.51,0,0,0,.51.51h9.26a.51.51,0,0,0,.51-.51h0v-8.23h3.56a12.34,12.34,0,0,0,0-24.69Z" transform="translate(-463.68 -486.08)"/></g><g id="_编组_3" data-name="&lt;编组&gt;"><polygon id="_路径_3" data-name="&lt;路径&gt;" class="cls-3" points="1.98 45.85 0 45.85 0 48.03 1.98 48.03 1.98 56.11 4.15 56.11 4.15 48.03 6.13 48.03 6.13 45.85 4.15 45.85 1.98 45.85"/><polygon id="_路径_4" data-name="&lt;路径&gt;" class="cls-3" points="29.54 45.85 27.37 45.85 27.37 45.85 27.37 48.03 27.37 49.9 27.37 52.07 27.37 53.94 27.37 56.11 27.37 56.12 33.5 56.12 33.5 53.94 29.54 53.94 29.54 52.07 33.5 52.07 33.5 49.9 29.54 49.9 29.54 48.03 33.5 48.03 33.5 45.85 29.54 45.85 29.54 45.85"/><rect id="_路径_5" data-name="&lt;路径&gt;" class="cls-3" x="18.13" y="45.85" width="2.17" height="10.26"/><polygon id="_路径_6" data-name="&lt;路径&gt;" class="cls-3" points="26.12 45.85 24.21 45.85 23.95 45.85 20.31 50.98 23.95 56.12 24.21 56.12 26.12 56.12 26.38 56.12 22.75 50.98 26.38 45.85 26.12 45.85"/><polygon id="_路径_7" data-name="&lt;路径&gt;" class="cls-3" points="40.57 52.02 36.66 45.85 36.66 45.85 34.49 45.85 34.49 56.12 36.66 56.12 36.66 49.95 40.57 56.12 42.74 56.12 42.74 45.85 40.57 45.85 40.57 52.02"/><path id="_复合路径_" data-name="&lt;复合路径&gt;" class="cls-3" d="M475.57,531.82a5.25,5.25,0,1,0,5.25,5.25A5.25,5.25,0,0,0,475.57,531.82Zm0,8.33a3.08,3.08,0,1,1,3.08-3.08A3.08,3.08,0,0,1,475.57,540.15Z" transform="translate(-463.68 -486.08)"/><polygon id="_路径_8" data-name="&lt;路径&gt;" class="cls-3" points="100.55 45.85 98.57 45.85 96.4 45.85 94.42 45.85 94.42 48.03 96.4 48.03 96.4 56.11 98.57 56.11 98.57 48.03 100.55 48.03 100.55 45.85"/><polygon id="_路径_9" data-name="&lt;路径&gt;" class="cls-3" points="89.16 45.85 86.99 45.85 86.99 45.85 86.99 48.03 86.99 49.9 86.99 52.07 86.99 53.94 86.99 56.11 86.99 56.12 93.12 56.12 93.12 53.94 89.16 53.94 89.16 52.07 93.12 52.07 93.12 49.9 89.16 49.9 89.16 48.03 93.12 48.03 93.12 45.85 89.16 45.85 89.16 45.85"/><rect id="_路径_10" data-name="&lt;路径&gt;" class="cls-3" x="77.26" y="45.85" width="2.17" height="10.26"/><polygon id="_路径_11" data-name="&lt;路径&gt;" class="cls-3" points="85.25 45.85 83.34 45.85 83.08 45.85 79.44 50.98 83.08 56.12 83.34 56.12 85.25 56.12 85.51 56.12 81.88 50.98 85.51 45.85 85.25 45.85"/><path id="_复合路径_2" data-name="&lt;复合路径&gt;" class="cls-3" d="M524.2,531.82a5.25,5.25,0,1,0,5.25,5.25A5.25,5.25,0,0,0,524.2,531.82Zm0,8.33a3.08,3.08,0,1,1,3.08-3.08A3.08,3.08,0,0,1,524.2,540.15Z" transform="translate(-463.68 -486.08)"/><path id="_路径_12" data-name="&lt;路径&gt;" class="cls-3" d="M535.16,534a3.06,3.06,0,0,1,2.27,1H540a5.25,5.25,0,1,0,0,4.13h-2.56a3.08,3.08,0,1,1-2.27-5.15Z" transform="translate(-463.68 -486.08)"/><path id="_复合路径_3" data-name="&lt;复合路径&gt;" class="cls-3" d="M514.55,531.94h-3.73V542.2H513v-2.8h1.56a3.73,3.73,0,0,0,0-7.46Zm-.13,5.55H513v-3.38h1.43a1.69,1.69,0,1,1,0,3.38Z" transform="translate(-463.68 -486.08)"/></g></g></svg>