<svg id="图层_1" data-name="图层 1" xmlns="http://www.w3.org/2000/svg" viewBox="0 0 479.4 151.99"><defs><style>.cls-1{fill:#2ca6e0;}.cls-2{fill:#036eb7;}</style></defs><title>787</title><path d="M676.63,349.94h4.57v78.88h42v3.76h-46.6Z" transform="translate(-490.27 -317.18)"/><path d="M739.42,349.94H744v82.64h-4.57Z" transform="translate(-490.27 -317.18)"/><path d="M790.58,353.7H761.66v-3.76h62.66v3.76H795.4v78.88h-4.82Z" transform="translate(-490.27 -317.18)"/><path d="M842,349.94h48.2v3.76H846.57v32.9h36.58v3.76H846.57v38.47h45v3.76H842Z" transform="translate(-490.27 -317.18)"/><path d="M925.91,389.33l-24.47-40.52h15.94l11,19.58c2.22,3.87,4.2,7.63,6.92,12.63h.62c2.35-5,4.08-8.76,6.18-12.63l10.75-19.58h15.08L943.46,390l26.2,42.57H953.72l-12-20.83c-2.35-4.21-4.7-8.54-7.54-13.66h-.49c-2.6,5.12-4.82,9.45-7,13.66L915,432.58h-15.2Z" transform="translate(-490.27 -317.18)"/><polygon class="cls-1" points="81.62 80.05 39.1 144.77 13.53 144.77 57.38 79.39 53.08 72.85 0 151.99 42.99 151.99 73.44 105.64 77.73 99.11 81.67 93.11 112.52 139.13 121.23 139.13 81.62 80.05"/><polygon class="cls-2" points="93.06 70.99 89.33 65.23 85.97 60.05 119.06 11.85 111.11 11.85 77.46 60.2 132.13 144.52 108.59 144.52 77.73 99.11 73.44 105.64 104.77 151.74 145.41 151.74 93.06 70.99"/><polygon class="cls-2" points="59.38 76.41 57.38 79.39 61.23 85.25 25.29 139 34.26 139 69.88 85.26 18.57 7.22 41.95 7.22 69.73 49.72 74.17 43.33 45.85 0 5.18 0 53.08 72.85 53.39 72.39 59.38 76.41"/><polygon class="cls-2" points="59.38 76.41 53.39 72.39 53.08 72.85 57.38 79.39 59.38 76.41"/><polygon class="cls-1" points="103.29 0 74.17 43.33 69.73 49.72 65.89 55.11 37.42 11.85 28.75 11.85 65.64 68.11 107.06 7.22 128.66 7.22 89.33 65.23 93.6 71.82 142.28 0 103.29 0"/></svg>