<?xml version="1.0" encoding="UTF-8"?>
<svg width="150px" height="40px" viewBox="0 0 150 40" version="1.1" xmlns="http://www.w3.org/2000/svg" xmlns:xlink="http://www.w3.org/1999/xlink">
    <title>dforece-logo</title>
    <g id="切图文件" stroke="none" stroke-width="1" fill="none" fill-rule="evenodd">
        <g id="官网---EN" transform="translate(-360.000000, -35.000000)">
            <g id="Navbar---EN" transform="translate(0.000000, -1.000000)">
                <g id="编组" transform="translate(360.000000, 38.000000)">
                    <path d="M49.2537183,28.8921349 C47.9875484,28.8921349 46.8014083,28.652269 45.7279359,28.1794672 C44.655693,27.7072243 43.7146721,27.0466431 42.9309165,26.2163897 C42.1472727,25.3869188 41.5280477,24.4056595 41.0905663,23.300108 C40.6530849,22.1947802 40.4312146,21.0040574 40.4312146,19.7610246 C40.4312146,18.4949665 40.6530849,17.292731 41.0906781,16.1875149 C41.5277124,15.0824106 42.1468256,14.1011513 42.9310283,13.2710097 C43.7140015,12.4416505 44.6549106,11.7811811 45.7277124,11.308044 C46.8011848,10.8351304 47.9874367,10.5954881 49.2537183,10.5954881 C50.3597168,10.5954881 51.3657899,10.771196 52.243994,11.1176937 C53.0402683,11.4321125 53.7607601,11.8286848 54.3890387,12.2979098 L54.3890387,4.1824851 L58.7278614,4.1824851 L58.7278614,28.4462705 L54.3890387,28.4462705 L54.3890387,19.7610246 C54.3890387,18.4046535 53.9157899,17.2546162 52.9822578,16.3429918 C52.0467139,15.4072243 50.9086364,14.9343107 49.5966393,14.9343107 C48.2620641,14.9343107 47.1118033,15.4078949 46.1777124,16.3419858 C45.2437332,17.2760768 44.770149,18.4263376 44.770149,19.7610246 C44.770149,21.0727981 45.2437332,22.2114344 46.1777124,23.1456371 C46.6246945,23.6150857 47.1465648,23.9681781 47.7344933,24.2010022 C48.3240984,24.4347206 48.9505887,24.5532004 49.5966393,24.5532004 C50.1636662,24.5532004 50.695149,24.4660171 51.1763338,24.2942213 L51.4800224,24.1859128 L53.0335618,28.0515984 L52.7437332,28.1851677 C51.7252534,28.6542809 50.551073,28.8921349 49.2537183,28.8921349" id="Fill-1" fill="#FA9B00"></path>
                    <polygon id="Fill-3" fill="#242A47" points="62.619266 28.4462481 62.619266 4.2167772 78.995421 4.2167772 78.995421 8.55559985 66.9580887 8.55559985 66.9580887 14.1620455 75.88443 14.1620455 76.9691915 18.5008681 66.9580887 18.5008681 66.9580887 28.4462481"></polygon>
                    <path d="M88.280231,14.9343107 C86.9456557,14.9343107 85.7953949,15.4078949 84.861304,16.3419858 C83.9273249,17.2760768 83.4536289,18.4263376 83.4536289,19.7610246 C83.4536289,21.0727981 83.9273249,22.2114344 84.861304,23.1456371 C85.3082861,23.6150857 85.8301565,23.9681781 86.4180849,24.2010022 C87.0075782,24.4347206 87.6340686,24.5532004 88.280231,24.5532004 C88.9253875,24.5532004 89.5459538,24.4347206 90.1247168,24.2012258 C90.7022504,23.9679545 91.2320566,23.6128502 91.6992697,23.1456371 C92.6331371,22.211658 93.1068331,21.0730216 93.1068331,19.7610246 C93.1068331,18.426114 92.6331371,17.2758532 91.6992697,16.3419858 C90.7224814,15.4097951 89.5702086,14.9343107 88.280231,14.9343107 M88.280231,28.8921349 C87.0143964,28.8921349 85.811155,28.6524925 84.7040387,28.1799143 C83.5992697,27.7085656 82.618234,27.048655 81.7882042,26.2186252 C80.9582861,25.3887072 80.2983756,24.4076714 79.8269151,23.3027906 C79.3544486,22.1971274 79.1148063,21.0053987 79.1148063,19.7610246 C79.1148063,18.493737 79.3544486,17.2904955 79.8268033,16.1848323 C80.2982638,15.0800633 80.9581744,14.0989158 81.7882042,13.268886 C82.6170045,12.4400857 83.5980402,11.7801751 84.7040387,11.3074851 C85.811155,10.8349069 87.0142846,10.5954881 88.280231,10.5954881 C89.5461773,10.5954881 90.7494188,10.8350186 91.8564232,11.3075969 C92.9625335,11.7801751 93.9434575,12.4400857 94.7722578,13.268886 C95.6013934,14.0977981 96.2611923,15.0788338 96.7336587,16.1847206 C97.2060134,17.2918368 97.4456557,18.4949665 97.4456557,19.7610246 C97.4456557,21.0041692 97.2060134,22.1957861 96.7335469,23.3027906 C96.2609687,24.4089009 95.6011699,25.3898249 94.7722578,26.2186252 C93.9423398,27.048655 92.961304,27.7085656 91.8564232,28.1800261 C90.749307,28.6524925 89.5460656,28.8921349 88.280231,28.8921349" id="Fill-5" fill="#242A47"></path>
                    <path d="M100.308543,28.4462481 L100.308543,11.0412183 L104.647366,11.0412183 L104.647366,12.2583197 C105.248931,11.7920007 105.928066,11.3977757 106.669795,11.0844747 C107.428513,10.7636848 108.293864,10.5885358 109.241814,10.5641692 L109.585741,10.555339 L109.585741,14.8918145 L109.263051,14.9041095 C108.018566,14.9511662 106.939169,15.4234091 106.054929,16.307649 C105.122738,17.284661 104.647366,18.4368219 104.647366,19.726576 L104.647366,28.4462481 L100.308543,28.4462481 Z" id="Fill-7" fill="#242A47"></path>
                    <path d="M123.267083,30.1537332 C122.001248,30.1537332 120.798007,29.9140909 119.69089,29.4415127 C118.586121,28.9701639 117.605086,28.3102534 116.775056,27.4802235 C115.945026,26.6501937 115.285115,25.669158 114.813655,24.564389 C114.341189,23.4587258 114.101658,22.266997 114.101658,21.022623 C114.101658,19.7553353 114.341189,18.5520939 114.813655,17.4464307 C115.285004,16.3416617 115.944914,15.3605142 116.775056,14.5304844 C117.604303,13.7013487 118.585339,13.0414382 119.69089,12.5690835 C120.798007,12.0965052 122.001136,11.8570864 123.267083,11.8570864 C124.533141,11.8570864 125.73627,12.096617 126.843163,12.5691952 C127.875279,13.0100298 128.800317,13.6153949 129.592902,14.3684128 L129.842269,14.6054844 L126.771181,17.6766841 L126.534333,17.457608 C125.629415,16.6204247 124.530123,16.1959091 123.267083,16.1959091 C121.976546,16.1959091 120.825615,16.6700522 119.846367,17.6053726 C118.915294,18.5362221 118.440481,19.6877124 118.440481,21.022623 C118.440481,22.33462 118.914177,23.4732563 119.848044,24.4072355 C120.315816,24.8747839 120.845622,25.23 121.422709,25.4628241 C122.000913,25.6963189 122.621367,25.8147988 123.267083,25.8147988 C124.549348,25.8147988 125.648305,25.3916244 126.533774,24.5570119 L126.770622,24.3336885 L129.842269,27.4053353 L129.592902,27.6422951 C128.799646,28.3960954 127.874497,29.0014605 126.843163,29.4416244 C125.736159,29.9140909 124.532917,30.1537332 123.267083,30.1537332" id="Fill-9" fill="#242A47"></path>
                    <path d="M145.109083,18.8531557 C144.89079,18.4027086 144.58889,17.9829993 144.209866,17.6035283 C143.27611,16.6695492 142.125738,16.195965 140.790939,16.195965 C139.500514,16.195965 138.349583,16.670108 137.370335,17.6054285 C136.993659,17.9818815 136.690976,18.4022615 136.472571,18.8531557 L145.109083,18.8531557 Z M140.790939,30.1537891 C139.525104,30.1537891 138.321863,29.9141468 137.214747,29.4414568 C136.109978,28.9702198 135.128942,28.3101975 134.298912,27.4802794 C133.468994,26.6503614 132.809083,25.6692139 132.337623,24.5644449 C131.865156,23.4586699 131.625514,22.2670529 131.625514,21.0225671 C131.625514,19.7552794 131.865156,18.5521498 132.337511,17.4463748 C132.808972,16.3416058 133.468882,15.36057 134.298912,14.5304285 C135.127712,13.7016282 136.10886,13.0418294 137.214747,12.5690276 C138.321863,12.0965611 139.524993,11.8570306 140.790939,11.8570306 C142.056885,11.8570306 143.260127,12.0966729 144.367131,12.5691393 C145.473241,13.0418294 146.454165,13.7016282 147.282966,14.5304285 C148.112101,15.3593405 148.772012,16.3404881 149.244367,17.446263 C149.716833,18.5533793 149.956364,19.7566207 149.956364,21.0225671 C149.956364,21.6915313 149.888629,22.3332228 149.754948,22.9298696 L149.696267,23.1918666 L136.472683,23.1918666 C136.690194,23.6391841 136.991423,24.0467101 137.369888,24.4050559 C137.841237,24.8762928 138.369367,25.2300559 138.946565,25.46288 C139.524881,25.6963748 140.145335,25.8147429 140.790939,25.8147429 C141.665231,25.8147429 142.458264,25.6181334 143.147906,25.2306148 L143.287735,25.152038 L147.779352,26.948573 L147.448949,27.3064717 C146.660946,28.1600857 145.717355,28.8434687 144.644329,29.3375075 C143.468137,29.8791617 142.171788,30.1537891 140.790939,30.1537891 L140.790939,30.1537891 Z" id="Fill-11" fill="#242A47"></path>
                    <path d="M3.35320417e-05,28.7054844 L3.35320417e-05,6.81196721 L14.1626267,6.81196721 C19.5185879,6.81196721 23.8758532,11.3596945 23.8758532,16.9493741 C23.8758532,22.5391654 19.5185879,27.0868927 14.1626267,27.0868927 L12.4617697,27.0868927 L12.4617697,22.7816021 L14.1626267,22.7816021 C17.2312556,22.7816021 19.7278279,20.1653204 19.7278279,16.9493741 C19.7278279,13.7336513 17.2312556,11.1173696 14.1626267,11.1173696 L4.14794709,11.1173696 L4.14794709,28.7054844 L3.35320417e-05,28.7054844 Z" id="Fill-13" fill="#FA9B00"></path>
                    <path d="M6.36031297,34.2244113 L6.36031297,13.7176677 L10.5083383,13.7176677 L10.5083383,29.9190089 L15.3594188,29.9190089 C22.0780104,29.9190089 27.5440686,24.1991133 27.5440686,17.1681148 C27.5440686,10.137228 22.0780104,4.41710879 15.3594188,4.41710879 L5.47339046,4.41710879 L5.47339046,0.111818182 L15.3594188,0.111818182 C24.3653428,0.111818182 31.6922057,7.76327124 31.6922057,17.168003 C31.6922057,26.5729583 24.3653428,34.2244113 15.3594188,34.2244113 L6.36031297,34.2244113 Z" id="Fill-15" fill="#242A47"></path>
                </g>
            </g>
        </g>
    </g>
</svg>