<?xml version="1.0" encoding="UTF-8"?>
<svg width="16px" height="16px" viewBox="0 0 16 16" version="1.1" xmlns="http://www.w3.org/2000/svg" xmlns:xlink="http://www.w3.org/1999/xlink">
    <title>Discord</title>
    <g id="主页面" stroke="none" stroke-width="1" fill="none" fill-rule="evenodd">
        <g id="下拉菜单" transform="translate(-962.000000, -205.000000)" fill="#999DAB" fill-rule="nonzero">
            <g id="切换语言下拉菜单" transform="translate(950.000000, 82.000000)">
                <path d="M22.2002002,133.070308 C21.5345345,133.070308 20.994995,132.488726 20.994995,131.774012 C20.994995,131.059297 21.5345345,130.477715 22.2002002,130.477715 C22.8658659,130.477715 23.4054054,131.059297 23.4054054,131.774012 C23.3983984,132.488726 22.8588589,133.070308 22.2002002,133.070308 Z M17.7927928,133.070308 C17.1271271,133.070308 16.5875876,132.488726 16.5875876,131.774012 C16.5875876,131.059297 17.1271271,130.477715 17.7927928,130.477715 C18.4584585,130.477715 18.997998,131.059297 18.997998,131.774012 C18.997998,132.488726 18.4584585,133.070308 17.7927928,133.070308 Z M26.6006006,130.926164 C26.1801802,128.936174 25.2692693,127.261499 25.2692693,127.261499 C23.5175175,125.951189 21.8848849,126.000238 21.8848849,126.000238 L21.7797798,126.175413 C23.6926927,126.623862 24.8978979,127.723962 24.8978979,127.723962 C23.3283283,126.827065 21.2052052,126.518756 19.992993,126.518756 C18.7807808,126.518757 16.6576577,126.827065 15.0950951,127.723962 C15.0950951,127.723962 16.3003003,126.623862 18.2132132,126.175413 L18.1081081,126.000238 C18.1081081,126.000238 16.4684685,125.951189 14.7237237,127.261499 C14.7237237,127.261499 13.8128128,128.943181 13.3923924,130.926164 C13.028028,132.642881 13,134.205443 13,134.205443 C13,134.205443 13.6236236,135.088326 14.5415415,135.52276 C15.4244244,135.943181 16.0830831,136.013251 16.6436436,136.020258 L17.4634635,135.039277 C17.4634635,135.039277 16.0900901,134.632871 15.3683684,133.65189 C15.3683684,133.65189 17.3093093,134.997235 20,134.997235 C22.6906907,134.997235 24.6316316,133.65189 24.6316316,133.65189 C23.9099099,134.632871 22.5365365,135.039277 22.5365365,135.039277 L23.3563564,136.020258 C23.9169169,136.013251 24.5755756,135.936174 25.4584585,135.52276 C26.3763764,135.088326 27,134.205443 27,134.205443 C27,134.205443 26.964965,132.642881 26.6006006,130.926164 L26.6006006,130.926164 Z" id="形状"></path>
            </g>
        </g>
    </g>
</svg>