<?xml version="1.0" encoding="UTF-8"?>
<svg width="190px" height="80px" viewBox="0 0 190 80" version="1.1" xmlns="http://www.w3.org/2000/svg" xmlns:xlink="http://www.w3.org/1999/xlink">
    <title>ecological-12备份</title>
    <g id="切图文件" stroke="none" stroke-width="1" fill="none" fill-rule="evenodd">
        <g id="官网---EN" transform="translate(-572.000000, -4708.000000)" fill-rule="nonzero">
            <g id="编组-25" transform="translate(359.000000, 3887.000000)">
                <g id="编组-24" transform="translate(213.000000, 451.000000)">
                    <g id="3" transform="translate(30.000000, 397.325843)">
                        <path d="M12,0.674157303 C5.37248076,0.674157303 0,6.04659695 0,12.6741437 C0,19.3016904 5.37248076,24.6741573 12,24.6741573 C18.627551,24.6741573 24,19.3016904 24,12.6741437 C24,6.04675097 18.6273972,0.674157303 12,0.674157303 Z M16.9350401,17.6860947 L11.9210553,20.5858293 L11.9210553,20.5868561 L11.9189524,20.5868561 L6.90183896,17.6860947 L6.90183896,7.65182185 L6.90701922,7.65495364 L11.9169008,4.76142615 L15.1324613,6.55569342 L15.1334871,6.55569342 L15.1334871,11.0855533 L13.5688416,10.186882 L13.5688416,7.45857466 L11.9189524,6.51831723 L8.46545872,8.51517059 L8.46545872,16.8331168 L11.9189524,18.8299702 L15.3724461,16.8393291 L15.389064,13.4211539 L10.4820697,10.5744032 L12.0581528,9.7452988 L16.9475035,12.5962082 L16.9350401,17.6871215 L16.9350401,17.6860947 Z M12.8644279,12.3479236 L14.0727122,13.0429768 L10.4820697,15.0876285 L10.4820697,10.9650561 L11.7433876,11.7089346 L11.7433876,12.9463532 L12.8654537,12.3479236 L12.8644279,12.3479236 Z" id="形状" fill="#516FFA"></path>
                        <path d="M32,6.48664913 L36.4692976,6.48664913 C36.9010689,6.48664913 37.3274943,6.54023496 37.7485238,6.64745889 C38.1695533,6.75468283 38.5446677,6.92960788 38.8739171,7.17218177 C39.2032164,7.41480793 39.470363,7.72795828 39.6755068,8.1116328 C39.8806007,8.4953596 39.9831726,8.95802747 39.9831726,9.49968869 C39.9831726,10.1767521 39.7996623,10.7353517 39.4325918,11.1754351 C39.0655712,11.6155708 38.5851869,11.9315442 37.9914389,12.1233553 L37.9914389,12.157232 C38.3476677,12.2023487 38.679615,12.3067496 38.9872808,12.4703824 C39.2949465,12.6340152 39.5567472,12.8427647 39.7726329,13.0966831 C39.9885685,13.3506015 40.1585891,13.6439904 40.2827446,13.9769021 C40.4069,14.3097616 40.4689528,14.6680809 40.4689528,15.0517554 C40.4689528,15.7062867 40.3447973,16.2507187 40.0964864,16.6852082 C39.8482253,17.1196455 39.5216739,17.4694956 39.1168321,17.7347063 C38.7119903,17.9998646 38.2477937,18.188905 37.7242423,18.3017227 C37.2006409,18.4145928 36.6689956,18.4710017 36.1292065,18.4710017 L32,18.4710017 L32,6.48664913 Z M34.0402968,11.3616524 L35.9025291,11.3616524 C36.5826114,11.3616524 37.092723,11.2234271 37.4327642,10.9469242 C37.7728053,10.6704737 37.9428259,10.3065083 37.9428259,9.85513263 C37.9428259,9.33605587 37.7674094,8.94955829 37.4165765,8.69563989 C37.0656936,8.44172149 36.501673,8.31478843 35.7244147,8.31478843 L34.0402968,8.31478843 L34.0402968,11.3616524 Z M34.0402968,16.6429147 L35.9187168,16.6429147 C36.1778195,16.6429147 36.4557579,16.6259763 36.7526319,16.5920996 C37.0495059,16.5582752 37.3220984,16.4792818 37.5704094,16.3551196 C37.8186704,16.2310096 38.0238142,16.0532614 38.185741,15.8219275 C38.3476677,15.5905936 38.4286061,15.2774432 38.4286061,14.8824765 C38.4286061,14.2505297 38.231606,13.8104463 37.837606,13.562174 C37.443556,13.3139017 36.8309223,13.1897917 35.9996552,13.1897917 L34.0402968,13.1897917 L34.0402968,16.6429147 Z M46.9299842,17.3538025 L46.8813712,17.3538025 C46.6006849,17.8165227 46.2444561,18.1522052 45.8126348,18.361007 C45.3808135,18.5697564 44.9058251,18.6741573 44.3876696,18.6741573 C44.0313908,18.6741573 43.6832558,18.6233423 43.3432147,18.5218167 C43.0031736,18.4202389 42.7009037,18.2678983 42.436405,18.0647427 C42.1719064,17.8616393 41.9587187,17.6077209 41.796792,17.3030398 C41.6348652,16.9983586 41.5538769,16.6429147 41.5538769,16.2366557 C41.5538769,15.79652 41.6294693,15.4213146 41.7806043,15.1109874 C41.9317392,14.8006601 42.1341351,14.5410956 42.387842,14.3323461 C42.6414989,14.1235966 42.9356749,13.9571407 43.2703202,13.8329785 C43.6050154,13.7088685 43.9531504,13.6157598 44.3147751,13.5537048 C44.6764497,13.4916498 45.0407724,13.452127 45.407843,13.4351886 C45.7748635,13.4183026 46.1203006,13.4098334 46.444154,13.4098334 L46.9299842,13.4098334 L46.9299842,13.1897917 C46.9299842,12.6819549 46.7626616,12.3011034 46.4279664,12.047185 C46.0933211,11.7932666 45.6668957,11.6663336 45.1487402,11.6663336 C44.7385025,11.6663336 44.3552942,11.7425039 43.9990155,11.8948444 C43.6427866,12.047185 43.3351209,12.2531637 43.0760181,12.512676 L42.0558447,11.4462919 C42.487666,10.983624 42.9923818,10.6507122 43.5698921,10.4476089 C44.1474525,10.2444533 44.7438984,10.1429277 45.35923,10.1429277 C45.9098108,10.1429277 46.3740074,10.2078058 46.7518198,10.3375619 C47.1296822,10.467318 47.4427438,10.6337739 47.6910548,10.8369295 C47.9393158,11.0400329 48.1309699,11.2741899 48.2658672,11.5394005 C48.4008145,11.8045589 48.4979905,12.0725926 48.5573453,12.343397 C48.6167501,12.6142538 48.6518234,12.8766414 48.6626152,13.1305075 C48.673407,13.3844259 48.6788029,13.6072906 48.6788029,13.799154 L48.6788029,18.4710017 L46.9299842,18.4710017 L46.9299842,17.3538025 Z M46.8166205,14.8317137 L46.4117787,14.8317137 C46.1418841,14.8317137 45.8396143,14.8430059 45.504969,14.8655381 C45.1703238,14.8881226 44.8545641,14.9417084 44.5576902,15.0263479 C44.2608162,15.1109874 44.0098072,15.2350974 43.8047134,15.3987302 C43.5996195,15.562363 43.4970476,15.7908739 43.4970476,16.0843151 C43.4970476,16.2761262 43.5375168,16.436936 43.6185051,16.5667444 C43.6994435,16.6965005 43.8047134,16.8064952 43.9342647,16.8967808 C44.0638161,16.9870664 44.2095552,17.0519444 44.3714819,17.0914672 C44.5334086,17.1309378 44.6953354,17.1506992 44.8572621,17.1506992 C45.5265526,17.1506992 46.0204766,16.9842433 46.3389341,16.6513316 C46.6573917,16.3184721 46.8166205,15.8642734 46.8166205,15.2887355 L46.8166205,14.8317137 Z M50.5247975,10.3460311 L52.3706423,10.3460311 L52.3706423,11.6493952 L52.4031176,11.6493952 C52.5869777,11.2431362 52.8672643,10.8905154 53.2454764,10.5914803 C53.6231888,10.2924453 54.1357986,10.1429277 54.7838053,10.1429277 C55.3019108,10.1429277 55.7415761,10.233161 56.1033008,10.4137322 C56.4650254,10.5943034 56.7593014,10.8312834 56.9856291,11.1246724 C57.2124564,11.4180613 57.3743332,11.7566192 57.471759,12.1402937 C57.5686852,12.5239682 57.6171483,12.9245811 57.6171483,13.3421323 L57.6171483,18.4710017 L55.6741275,18.4710017 L55.6741275,14.3577536 C55.6741275,14.1320658 55.6636355,13.8809704 55.6416522,13.6044676 C55.6201686,13.328017 55.5637115,13.0684525 55.4717815,12.8258263 C55.3798515,12.5832001 55.2369603,12.3800968 55.0426082,12.216464 C54.8482562,12.0528311 54.5839574,11.9710147 54.2492122,11.9710147 C53.9254587,11.9710147 53.6526664,12.0274236 53.4313349,12.1402937 C53.2100034,12.2531637 53.026643,12.4055043 52.880754,12.5973154 C52.7353647,12.7891788 52.6299449,13.0092205 52.5649944,13.2574928 C52.5005435,13.5057651 52.4680682,13.7652773 52.4680682,14.0361341 L52.4680682,18.4710017 L50.5247975,18.4710017 L50.5247975,10.3460311 Z M65.7299722,17.252277 L65.697497,17.252277 C65.4172103,17.7487693 65.0389983,18.1099116 64.5643596,18.3355994 C64.0892213,18.5612873 63.5766115,18.6741573 63.0260307,18.6741573 C62.4214909,18.6741573 61.8843998,18.5641103 61.4147573,18.3440686 C60.9451148,18.1240269 60.542921,17.8221688 60.2081758,17.438442 C59.8734307,17.0547675 59.6201235,16.6033918 59.4472551,16.0843151 C59.2743867,15.5651861 59.1879525,15.0066388 59.1879525,14.4085164 C59.1879525,13.8104463 59.2798825,13.2518467 59.4632429,12.7327177 C59.647103,12.2136409 59.9034078,11.7622653 60.2326572,11.3785908 C60.5619065,10.9949162 60.9586046,10.6930581 61.4227512,10.4729641 C61.8868979,10.2529224 62.3945114,10.1429277 62.9450923,10.1429277 C63.3118131,10.1429277 63.6355666,10.1823983 63.9163529,10.2613916 C64.1971391,10.340385 64.4454501,10.4419628 64.6612858,10.5660728 C64.8771215,10.6902351 65.0609815,10.8228142 65.2118667,10.9638626 C65.3632514,11.1049109 65.4871571,11.2431362 65.5840833,11.3785908 L65.633046,11.3785908 L65.633046,5.6741573 L67.5760668,5.6741573 L67.5760668,18.4710017 L65.7299722,18.4710017 L65.7299722,17.252277 Z M61.131473,14.4085164 C61.131473,14.7244898 61.1824342,15.0291709 61.2848562,15.3225599 C61.3877778,15.6160011 61.538663,15.8755133 61.7385108,16.1012012 C61.9383587,16.3269413 62.1781761,16.5074601 62.4589624,16.6429147 C62.7397486,16.7783169 63.0580063,16.846018 63.4142351,16.846018 C63.770464,16.846018 64.0892213,16.7783169 64.3700075,16.6429147 C64.6502942,16.5074601 64.8906112,16.3269413 65.0904591,16.1012012 C65.2903069,15.8755133 65.4411921,15.6160011 65.5436141,15.3225599 C65.6465357,15.0291709 65.697497,14.7244898 65.697497,14.4085164 C65.697497,14.092543 65.6465357,13.7878618 65.5436141,13.4944729 C65.4411921,13.2010317 65.2903069,12.9415194 65.0904591,12.7158316 C64.8906112,12.4901438 64.6502942,12.3095726 64.3700075,12.1741704 C64.0892213,12.0387159 63.770464,11.9710147 63.4142351,11.9710147 C63.0580063,11.9710147 62.7397486,12.0387159 62.4589624,12.1741704 C62.1781761,12.3095726 61.9383587,12.4901438 61.7385108,12.7158316 C61.538663,12.9415194 61.3877778,13.2010317 61.2848562,13.4944729 C61.1824342,13.7878618 61.131473,14.092543 61.131473,14.4085164 Z M74.2639755,6.48664913 L78.1175419,6.48664913 C78.6681227,6.48664913 79.1997181,6.54305802 79.7128274,6.65592807 C80.2254372,6.76879812 80.6760941,6.95778618 81.0647982,7.22299681 C81.4535023,7.48815517 81.7637661,7.84365138 81.9960893,8.28938091 C82.2279128,8.73516271 82.3443241,9.29088694 82.3443241,9.95671044 C82.3443241,10.7127672 82.2199189,11.3221296 81.9716079,11.7848497 C81.7232969,12.2475176 81.3885518,12.6057846 80.967872,12.859703 C80.5466926,13.1136214 80.0580646,13.2856711 79.5019879,13.3759567 C78.9464109,13.4662423 78.3658529,13.5114112 77.7613131,13.5114112 L76.3039226,13.5114112 L76.3039226,18.4710017 L74.2639755,18.4710017 L74.2639755,6.48664913 Z M77.5349854,11.6832719 C77.8262636,11.6832719 78.1285335,11.6719797 78.441795,11.6493952 C78.7545569,11.626863 79.0433371,11.5591096 79.3081355,11.4462919 C79.5724343,11.3334218 79.78827,11.1641429 79.9556426,10.9384551 C80.1230152,10.7127672 80.2064517,10.3967938 80.2064517,9.99053486 C80.2064517,9.61815257 80.1310091,9.32194058 79.980124,9.10189888 C79.8287392,8.88185717 79.6343872,8.71257824 79.3970678,8.59406208 C79.1592489,8.47559819 78.8949501,8.3994279 78.6036718,8.3655512 C78.3118939,8.33172678 78.0316073,8.31478843 77.7613131,8.31478843 L76.3039226,8.31478843 L76.3039226,11.6832719 L77.5349854,11.6832719 Z M83.7367641,10.3460311 L85.6797849,10.3460311 L85.6797849,11.6324569 L85.7122602,11.6324569 C85.9280959,11.1584968 86.2358616,10.7917606 86.6350577,10.5322484 C87.0347534,10.2726838 87.4934043,10.1429277 88.0115099,10.1429277 C88.1304193,10.1429277 88.2463311,10.1541677 88.3597448,10.1767521 C88.4731584,10.1993366 88.5890702,10.2275149 88.7079797,10.2613916 L88.7079797,12.2249331 C88.5461029,12.1798165 88.3867242,12.1431167 88.2303433,12.1148862 C88.0739623,12.0867078 87.9200795,12.0725926 87.7686947,12.0725926 C87.3155397,12.0725926 86.9508173,12.1600551 86.6755269,12.3349801 C86.4002365,12.5098529 86.1898966,12.7101855 86.0440077,12.9358733 C85.8986184,13.1615611 85.8011925,13.3872489 85.7527294,13.6129368 C85.7042663,13.8386246 85.6797849,14.0079035 85.6797849,14.1207736 L85.6797849,18.4710017 L83.7367641,18.4710017 L83.7367641,10.3460311 Z M89.1126716,14.4085164 C89.1126716,13.7652773 89.2235871,13.1813225 89.4449186,12.6565474 C89.6662502,12.1318245 89.9655223,11.6832719 90.3432348,11.3108896 C90.7214469,10.9384551 91.1691061,10.6507122 91.6877113,10.4476089 C92.2058168,10.2444533 92.7563977,10.1429277 93.3389542,10.1429277 C93.9220104,10.1429277 94.4725912,10.2444533 94.9906968,10.4476089 C95.5088024,10.6507122 95.9569612,10.9384551 96.3346737,11.3108896 C96.7128857,11.6832719 97.0121579,12.1318245 97.2334894,12.6565474 C97.4548209,13.1813225 97.5657365,13.7652773 97.5657365,14.4085164 C97.5657365,15.0517554 97.4548209,15.6357102 97.2334894,16.1604854 C97.0121579,16.6852082 96.7128857,17.1337608 96.3346737,17.5061954 C95.9569612,17.8785777 95.5088024,18.1663205 94.9906968,18.3694761 C94.4725912,18.5725795 93.9220104,18.6741573 93.3389542,18.6741573 C92.7563977,18.6741573 92.2058168,18.5725795 91.6877113,18.3694761 C91.1691061,18.1663205 90.7214469,17.8785777 90.3432348,17.5061954 C89.9655223,17.1337608 89.6662502,16.6852082 89.4449186,16.1604854 C89.2235871,15.6357102 89.1126716,15.0517554 89.1126716,14.4085164 Z M91.056192,14.4085164 C91.056192,14.7244898 91.1071532,15.0291709 91.2095753,15.3225599 C91.3124969,15.6160011 91.463382,15.8755133 91.6632299,16.1012012 C91.8630778,16.3269413 92.1028952,16.5074601 92.3836814,16.6429147 C92.6644677,16.7783169 92.9827254,16.846018 93.3389542,16.846018 C93.695183,16.846018 94.0139404,16.7783169 94.2947266,16.6429147 C94.5750132,16.5074601 94.8153303,16.3269413 95.0151782,16.1012012 C95.215026,15.8755133 95.3659111,15.6160011 95.4683332,15.3225599 C95.5712548,15.0291709 95.622216,14.7244898 95.622216,14.4085164 C95.622216,14.092543 95.5712548,13.7878618 95.4683332,13.4944729 C95.3659111,13.2010317 95.215026,12.9415194 95.0151782,12.7158316 C94.8153303,12.4901438 94.5750132,12.3095726 94.2947266,12.1741704 C94.0139404,12.0387159 93.695183,11.9710147 93.3389542,11.9710147 C92.9827254,11.9710147 92.6644677,12.0387159 92.3836814,12.1741704 C92.1028952,12.3095726 91.8630778,12.4901438 91.6632299,12.7158316 C91.463382,12.9415194 91.3124969,13.2010317 91.2095753,13.4944729 C91.1071532,13.7878618 91.056192,14.092543 91.056192,14.4085164 Z M98.2292314,12.0725926 L98.2292314,10.3460311 L99.8325108,10.3460311 L99.8325108,7.99316891 L101.775532,7.99316891 L101.775532,10.3460311 L103.913404,10.3460311 L103.913404,12.0725926 L101.775532,12.0725926 L101.775532,15.6272411 C101.775532,16.0335 101.848476,16.3551196 101.994365,16.5920996 C102.140254,16.8290797 102.429034,16.9475958 102.860706,16.9475958 C103.033574,16.9475958 103.22243,16.9278344 103.427274,16.8883116 C103.632618,16.8488411 103.794495,16.783963 103.913404,16.6936774 L103.913404,18.4033006 C103.70806,18.5048784 103.457251,18.5754025 103.160477,18.6148731 C102.863204,18.6543959 102.601403,18.6741573 102.375075,18.6741573 C101.85647,18.6741573 101.432793,18.6148731 101.103543,18.4964092 C100.774294,18.377893 100.515491,18.1973741 100.326635,17.954748 C100.137279,17.7121218 100.007877,17.4102637 99.9379306,17.0491214 C99.8674842,16.6880313 99.8325108,16.2704801 99.8325108,15.79652 L99.8325108,12.0725926 L98.2292314,12.0725926 Z M104.803726,14.4085164 C104.803726,13.7652773 104.914642,13.1813225 105.135973,12.6565474 C105.357305,12.1318245 105.656577,11.6832719 106.03429,11.3108896 C106.412502,10.9384551 106.860161,10.6507122 107.378266,10.4476089 C107.896872,10.2444533 108.447453,10.1429277 109.030009,10.1429277 C109.613065,10.1429277 110.163646,10.2444533 110.681752,10.4476089 C111.199857,10.6507122 111.648016,10.9384551 112.025728,11.3108896 C112.403941,11.6832719 112.703213,12.1318245 112.924544,12.6565474 C113.145876,13.1813225 113.256791,13.7652773 113.256791,14.4085164 C113.256791,15.0517554 113.145876,15.6357102 112.924544,16.1604854 C112.703213,16.6852082 112.403941,17.1337608 112.025728,17.5061954 C111.648016,17.8785777 111.199857,18.1663205 110.681752,18.3694761 C110.163646,18.5725795 109.613065,18.6741573 109.030009,18.6741573 C108.447453,18.6741573 107.896872,18.5725795 107.378266,18.3694761 C106.860161,18.1663205 106.412502,17.8785777 106.03429,17.5061954 C105.656577,17.1337608 105.357305,16.6852082 105.135973,16.1604854 C104.914642,15.6357102 104.803726,15.0517554 104.803726,14.4085164 Z M106.746747,14.4085164 C106.746747,14.7244898 106.798208,15.0291709 106.90063,15.3225599 C107.003552,15.6160011 107.154437,15.8755133 107.354285,16.1012012 C107.554133,16.3269413 107.79395,16.5074601 108.074736,16.6429147 C108.355522,16.7783169 108.67378,16.846018 109.030009,16.846018 C109.386238,16.846018 109.704995,16.7783169 109.985781,16.6429147 C110.266068,16.5074601 110.506385,16.3269413 110.706233,16.1012012 C110.906081,15.8755133 111.056966,15.6160011 111.159388,15.3225599 C111.26231,15.0291709 111.313271,14.7244898 111.313271,14.4085164 C111.313271,14.092543 111.26231,13.7878618 111.159388,13.4944729 C111.056966,13.2010317 110.906081,12.9415194 110.706233,12.7158316 C110.506385,12.4901438 110.266068,12.3095726 109.985781,12.1741704 C109.704995,12.0387159 109.386238,11.9710147 109.030009,11.9710147 C108.67378,11.9710147 108.355522,12.0387159 108.074736,12.1741704 C107.79395,12.3095726 107.554133,12.4901438 107.354285,12.7158316 C107.154437,12.9415194 107.003552,13.2010317 106.90063,13.4944729 C106.798208,13.7878618 106.746747,14.092543 106.746747,14.4085164 Z M120.138552,12.7835327 C119.911725,12.5352604 119.674406,12.3377509 119.426095,12.1910564 C119.177784,12.044362 118.923977,11.9710147 118.665174,11.9710147 C118.308945,11.9710147 117.990188,12.0387159 117.709901,12.1741704 C117.429115,12.3095726 117.188798,12.4901438 116.98895,12.7158316 C116.789602,12.9415194 116.638217,13.2010317 116.535795,13.4944729 C116.432873,13.7878618 116.381912,14.092543 116.381912,14.4085164 C116.381912,14.7244898 116.432873,15.0291709 116.535795,15.3225599 C116.638217,15.6160011 116.789602,15.8755133 116.98895,16.1012012 C117.188798,16.3269413 117.429115,16.5074601 117.709901,16.6429147 C117.990188,16.7783169 118.308945,16.846018 118.665174,16.846018 C118.967444,16.846018 119.24823,16.7811399 119.507033,16.6513316 C119.766336,16.5215754 119.987667,16.3325874 120.171028,16.0843151 L121.466541,17.5400198 C121.272189,17.7431754 121.04836,17.9180482 120.794553,18.0647427 C120.540746,18.2114894 120.284441,18.3299533 120.025139,18.4202389 C119.766336,18.5105245 119.518025,18.5754025 119.280206,18.6148731 C119.042886,18.6543959 118.837543,18.6741573 118.665174,18.6741573 C118.082118,18.6741573 117.531537,18.5725795 117.013431,18.3694761 C116.495326,18.1663205 116.047167,17.8785777 115.669455,17.5061954 C115.291742,17.1337608 114.99197,16.6852082 114.770639,16.1604854 C114.549307,15.6357102 114.438891,15.0517554 114.438891,14.4085164 C114.438891,13.7652773 114.549307,13.1813225 114.770639,12.6565474 C114.99197,12.1318245 115.291742,11.6832719 115.669455,11.3108896 C116.047167,10.9384551 116.495326,10.6507122 117.013431,10.4476089 C117.531537,10.2444533 118.082118,10.1429277 118.665174,10.1429277 C119.161796,10.1429277 119.660916,10.2416302 120.163034,10.4391397 C120.664652,10.636597 121.104817,10.9497473 121.482529,11.3785908 L120.138552,12.7835327 Z M122.000635,14.4085164 C122.000635,13.7652773 122.11155,13.1813225 122.332882,12.6565474 C122.554213,12.1318245 122.853486,11.6832719 123.231698,11.3108896 C123.60941,10.9384551 124.057569,10.6507122 124.575674,10.4476089 C125.09378,10.2444533 125.644361,10.1429277 126.227417,10.1429277 C126.809974,10.1429277 127.360554,10.2444533 127.87866,10.4476089 C128.397265,10.6507122 128.844924,10.9384551 129.223137,11.3108896 C129.600849,11.6832719 129.900121,12.1318245 130.121453,12.6565474 C130.342784,13.1813225 130.4537,13.7652773 130.4537,14.4085164 C130.4537,15.0517554 130.342784,15.6357102 130.121453,16.1604854 C129.900121,16.6852082 129.600849,17.1337608 129.223137,17.5061954 C128.844924,17.8785777 128.397265,18.1663205 127.87866,18.3694761 C127.360554,18.5725795 126.809974,18.6741573 126.227417,18.6741573 C125.644361,18.6741573 125.09378,18.5725795 124.575674,18.3694761 C124.057569,18.1663205 123.60941,17.8785777 123.231698,17.5061954 C122.853486,17.1337608 122.554213,16.6852082 122.332882,16.1604854 C122.11155,15.6357102 122.000635,15.0517554 122.000635,14.4085164 Z M123.944155,14.4085164 C123.944155,14.7244898 123.995116,15.0291709 124.098038,15.3225599 C124.20046,15.6160011 124.351345,15.8755133 124.551193,16.1012012 C124.751041,16.3269413 124.991358,16.5074601 125.271645,16.6429147 C125.552431,16.7783169 125.871188,16.846018 126.227417,16.846018 C126.583646,16.846018 126.901904,16.7783169 127.18269,16.6429147 C127.463476,16.5074601 127.703294,16.3269413 127.903141,16.1012012 C128.102989,15.8755133 128.253874,15.6160011 128.356796,15.3225599 C128.459218,15.0291709 128.510179,14.7244898 128.510179,14.4085164 C128.510179,14.092543 128.459218,13.7878618 128.356796,13.4944729 C128.253874,13.2010317 128.102989,12.9415194 127.903141,12.7158316 C127.703294,12.4901438 127.463476,12.3095726 127.18269,12.1741704 C126.901904,12.0387159 126.583646,11.9710147 126.227417,11.9710147 C125.871188,11.9710147 125.552431,12.0387159 125.271645,12.1741704 C124.991358,12.3095726 124.751041,12.4901438 124.551193,12.7158316 C124.351345,12.9415194 124.20046,13.2010317 124.098038,13.4944729 C123.995116,13.7878618 123.944155,14.092543 123.944155,14.4085164 Z M132.05648,5.6741573 L134,5.6741573 L134,18.4710017 L132.05648,18.4710017 L132.05648,5.6741573 Z" id="形状" fill="#2A304E"></path>
                    </g>
                </g>
            </g>
        </g>
    </g>
</svg>