<?xml version="1.0" encoding="UTF-8"?>
<svg width="190px" height="80px" viewBox="0 0 190 80" version="1.1" xmlns="http://www.w3.org/2000/svg" xmlns:xlink="http://www.w3.org/1999/xlink">
    <title>exchanges-6</title>
    <defs>
        <filter id="filter-1">
            <feColorMatrix in="SourceGraphic" type="matrix" values="0 0 0 0 0.608582 0 0 0 0 0.319216 0 0 0 0 0.319216 0 0 0 1.000000 0"></feColorMatrix>
        </filter>
        <rect id="path-2" x="0" y="92" width="190" height="80"></rect>
    </defs>
    <g id="切图文件" stroke="none" stroke-width="1" fill="none" fill-rule="evenodd">
        <g id="官网---EN" transform="translate(-572.000000, -3731.000000)">
            <g id="编组-25" transform="translate(357.000000, 3323.000000)">
                <g id="编组-21" transform="translate(215.000000, 316.000000)">
                    <g id="编组-18" transform="translate(48.000000, 116.000000)"></g>
                    <g filter="url(#filter-1)" id="BG">
                        <g>
                            <mask id="mask-3" fill="white">
                                <use xlink:href="#path-2"></use>
                            </mask>
                            <g id="蒙版备份-7"></g>
                        </g>
                    </g>
                    <g id="编组-16" transform="translate(48.000000, 116.000000)" fill-rule="nonzero">
                        <g id="编组" transform="translate(0.000000, 0.000000)" fill="#5D97B6">
                            <path d="M0.608930988,19.120433 C1.24627876,20.4925575 2.09066306,21.7550744 3.06901218,22.8917456 C4.04330176,24.0324763 5.17185386,25.0433018 6.41813261,25.8673884 C7.0473613,26.2733424 7.69688769,26.6427605 8.37077131,26.9634641 C8.53721245,27.0446549 8.71177267,27.1136671 8.88227334,27.1907984 C9.05277402,27.2679296 9.2232747,27.3369418 9.40189445,27.4018945 L9.9255751,27.5967524 L10.4614344,27.7631935 C11.8863329,28.2016238 13.3843031,28.3964817 14.8741543,28.4289581 C15.2476319,28.4492558 15.6211096,28.4330176 15.9945873,28.420839 L17.1190798,28.3883627 C17.4925575,28.3640054 17.8660352,28.3152909 18.2354533,28.2828146 C18.608931,28.2422192 18.9824087,28.217862 19.3477673,28.1407307 L20.4519621,27.9458728 C20.8173207,27.8687415 21.1786198,27.7631935 21.5399188,27.6738836 C21.7185386,27.6251691 21.9052774,27.5886333 22.0798376,27.5277402 L22.6075778,27.3450609 C22.9607578,27.2232747 23.3220568,27.1177267 23.6589986,26.9553451 C25.0433018,26.391069 26.3464141,25.6156969 27.458728,24.6129905 L27.8728011,24.2354533 C28.0067659,24.105548 28.1285521,23.9634641 28.2584574,23.8294993 C28.526387,23.5656292 28.7374831,23.2571042 28.9729364,22.9648173 C29.1799729,22.6522327 29.391069,22.3396482 29.5534506,22.0027064 C29.7320704,21.6698241 29.8619756,21.3166441 29.9553451,20.9512855 C29.8213802,21.6982409 29.4682003,22.3883627 29.0622463,23.02977 C28.8389716,23.3342355 28.631935,23.6589986 28.3721245,23.9391069 C28.2462788,24.0811908 28.1285521,24.2313938 27.9986468,24.3694181 L27.5926928,24.7713126 C26.488498,25.8227334 25.173207,26.64682 23.7807848,27.2598106 C23.4397835,27.4343708 23.0744249,27.5520974 22.7171854,27.6820027 L22.1772666,27.8768606 C21.9986468,27.9418133 21.811908,27.9783491 21.6251691,28.0311231 C21.255751,28.1244926 20.8903924,28.2341001 20.5169147,28.3193505 L19.3924222,28.5304465 C19.0189445,28.6116373 18.6414073,28.6400541 18.2598106,28.6847091 C17.8822733,28.7212449 17.5047361,28.7740189 17.1231394,28.8024357 L15.9824087,28.8470907 C15.6008119,28.8633288 15.2232747,28.8836265 14.8416779,28.8633288 C11.7929635,28.7943166 8.72395129,27.9133965 6.21921516,26.1515562 C3.73477673,24.3856563 1.74560217,21.9215156 0.608930988,19.120433" id="路径"></path>
                            <path d="M16.5182679,27.5236806 C17.797023,27.3450609 19.0717185,27.1623816 20.3058187,26.8010825 C20.9309878,26.64682 21.5277402,26.4194858 22.1366712,26.2083897 C22.7253045,25.9526387 23.3179973,25.7131258 23.8741543,25.3924222 C25.0027064,24.7956698 26.0500677,24.0365359 26.9512855,23.1271989 C27.4100135,22.6806495 27.8078484,22.173207 28.165088,21.6414073 C28.5223275,21.1096076 28.8146143,20.5290934 28.9688769,19.8998647 C28.932341,20.0581867 28.9120433,20.2205683 28.8592693,20.3707713 C28.8024357,20.5209743 28.7618403,20.6833559 28.6928281,20.8254398 C28.623816,20.9715832 28.5629229,21.1217862 28.4898512,21.2679296 L28.2543978,21.6941813 C27.9093369,22.2422192 27.5236806,22.7658999 27.0730717,23.2368065 C26.1840325,24.1826793 25.1163735,24.9539919 23.9797023,25.5751015 C23.4113667,25.8917456 22.8064953,26.1312585 22.2097429,26.3829499 C21.5926928,26.5859269 20.9878214,26.8213802 20.3545332,26.9512855 L19.8836265,27.0690122 L19.6481732,27.1258457 L19.4086604,27.1664411 L18.4506089,27.3288227 C18.1339648,27.3897158 17.8092016,27.405954 17.488498,27.4384303 L16.5182679,27.5236806 Z" id="路径"></path>
                            <path d="M20.0257104,25.6928281 C20.2286874,25.6075778 20.4276049,25.5223275 20.6305819,25.4411367 L20.9350474,25.3193505 C21.0365359,25.2746955 21.1339648,25.2259811 21.2313938,25.1813261 L21.8240866,24.9093369 L22.4005413,24.6008119 C23.1596752,24.1745602 23.8985115,23.7158322 24.564276,23.1556157 C25.2381597,22.6116373 25.8511502,21.9945873 26.3829499,21.308525 C26.5128552,21.1380244 26.6387009,20.9594046 26.7645467,20.7807848 C26.8782138,20.5981055 27,20.4154263 27.097429,20.2246279 C27.3125846,19.8470907 27.4912043,19.4492558 27.5926928,19.0230041 L27.5926928,19.0230041 L27.5723951,18.9864682 L27.5967524,19.0189445 L27.5967524,19.0189445 L27.5967524,19.0189445 C27.5399188,19.4533153 27.3775372,19.8714479 27.1907984,20.2692828 C27.1014885,20.4722598 26.9837618,20.6589986 26.8782138,20.849797 C26.7604871,21.0365359 26.6427605,21.2232747 26.5169147,21.4018945 C26.0013532,22.1163735 25.376184,22.7496617 24.6982409,23.3139378 C24.0121786,23.8660352 23.2611637,24.3369418 22.4776725,24.7388363 C21.6941813,25.1529093 20.8619756,25.4411367 20.0257104,25.6928281" id="路径"></path>
                            <path d="M21.6698241,23.1393775 C17.1312585,26.2043302 12.9580514,29.4235453 6.9458728,28.4817321 C6.86062246,28.4695535 6.8443843,28.3518268 6.92151556,28.3152909 C9.87686062,26.7889039 11.3098782,24.8362652 11.3098782,24.8362652 C9.75913396,23.6589986 9.0202977,23.3261164 5.72801083,22.5588633 C3.05683356,21.9377537 1.22192152,20.6508796 0.612990528,19.120433 C-0.535859269,16.2422192 -0.174560217,12.661705 2.60622463,9.44654939 C2.60622463,9.44654939 3.78755074,8.43978349 2.78890392,6.50338295 C1.76184032,4.51826793 2.14749662,1.84303112 3.26387009,0.133964817 C3.38565629,-0.0527740189 3.67794317,0.0365358593 3.67794317,0.263870095 C3.67794317,0.868741543 3.79972936,1.70500677 4.35182679,2.50879567 C5.37483085,4.00270636 6.8849797,5.71177267 6.2232747,6.864682 C6.2232747,6.864682 7.67658999,6.09336942 10.0635995,7.62787551 C11.5006766,8.55345061 11.64682,8.71177267 12.2151556,8.72801083 C12.4424899,8.73612991 12.5236806,9.03653586 12.3247632,9.15020298 C11.4479026,9.64952639 10.0230041,10.3599459 7.69688769,10.0595399 C3.65764547,9.53585927 1.48173207,13.5588633 6.01623816,15.6373478 C10.6562923,17.7686062 24.7997294,12.4181326 29.9675237,20.9391069 C29.9634641,20.9391069 26.6062246,19.8024357 21.6698241,23.1393775" id="路径"></path>
                        </g>
                        <path d="M40.664,27 L42.694,19.286 L42.75,19.286 L44.78,27 L46.404,27 L49.288,17.004 L47.566,17.004 L45.62,24.788 L45.564,24.788 L43.52,17.004 L41.924,17.004 L39.88,24.788 L39.824,24.788 L37.878,17.004 L36.156,17.004 L39.026,27 L40.664,27 Z M51.682,27 L51.682,22.94 C51.682,22.3053333 51.8406667,21.7873333 52.158,21.386 C52.466,20.9846667 52.872,20.784 53.376,20.784 C53.9453333,20.784 54.37,20.9566667 54.65,21.302 C54.9113333,21.6473333 55.042,22.1326667 55.042,22.758 L55.042,22.758 L55.042,27 L56.526,27 L56.526,22.506 C56.526,21.5446667 56.316,20.8213333 55.896,20.336 C55.448,19.8226667 54.79,19.566 53.922,19.566 C53.446,19.566 53.0353333,19.6593333 52.69,19.846 C52.2886667,20.042 51.9526667,20.3546667 51.682,20.784 L51.682,20.784 L51.682,16.808 L50.198,16.808 L50.198,27 L51.682,27 Z M60.376,27.196 C61.0106667,27.196 61.566,27.084 62.042,26.86 C62.4806667,26.6266667 62.8353333,26.3326667 63.106,25.978 L63.106,25.978 L63.106,27 L64.478,27 L64.478,22.38 C64.478,21.5026667 64.2586667,20.8306667 63.82,20.364 C63.316,19.832 62.532,19.566 61.468,19.566 C60.5066667,19.566 59.7646667,19.7433333 59.242,20.098 C58.626,20.5086667 58.262,21.1433333 58.15,22.002 L58.15,22.002 L59.62,22.002 C59.676,21.582 59.8673333,21.2646667 60.194,21.05 C60.4646667,20.8633333 60.8566667,20.77 61.37,20.77 C62.462,20.77 63.008,21.274 63.008,22.282 L63.008,22.282 L63.008,22.464 L61.384,22.478 C60.404,22.478 59.6106667,22.6646667 59.004,23.038 C58.2853333,23.4766667 57.926,24.1533333 57.926,25.068 C57.926,25.712 58.15,26.23 58.598,26.622 C59.0366667,27.0046667 59.6293333,27.196 60.376,27.196 Z M60.712,26.02 C60.3013333,26.02 59.9886667,25.9266667 59.774,25.74 C59.5593333,25.5533333 59.452,25.3153333 59.452,25.026 C59.452,24.0833333 60.1286667,23.612 61.482,23.612 L61.482,23.612 L63.008,23.598 L63.008,23.976 C63.008,24.5826667 62.798,25.0773333 62.378,25.46 C61.93,25.8333333 61.3746667,26.02 60.712,26.02 Z M67.824,27 L67.824,16.808 L66.34,16.808 L66.34,27 L67.824,27 Z M72.794,27.196 C73.7553333,27.196 74.5533333,26.9206667 75.188,26.37 C75.6733333,25.9313333 76.0046667,25.3666667 76.182,24.676 L76.182,24.676 L74.698,24.676 C74.4926667,25.124 74.2733333,25.4366667 74.04,25.614 C73.7133333,25.8566667 73.2933333,25.978 72.78,25.978 C72.2013333,25.978 71.7393333,25.7913333 71.394,25.418 C71.0673333,25.054 70.876,24.5126667 70.82,23.794 L70.82,23.794 L76.308,23.794 C76.2986667,22.5153333 76.0093333,21.5073333 75.44,20.77 C74.8333333,19.9673333 73.9326667,19.566 72.738,19.566 C71.6646667,19.566 70.82,19.9346667 70.204,20.672 C69.5693333,21.3906667 69.252,22.2913333 69.252,23.374 C69.252,24.5593333 69.588,25.502 70.26,26.202 C70.876,26.8646667 71.7206667,27.196 72.794,27.196 Z M74.754,22.674 L70.848,22.674 C70.932,22.0766667 71.1326667,21.61 71.45,21.274 C71.7766667,20.9473333 72.22,20.784 72.78,20.784 C73.956,20.784 74.614,21.414 74.754,22.674 L74.754,22.674 Z M85.128,27 L85.128,25.698 L79.234,25.698 L79.234,22.52 L84.554,22.52 L84.554,21.218 L79.234,21.218 L79.234,18.306 L84.89,18.306 L84.89,17.004 L77.708,17.004 L77.708,27 L85.128,27 Z M87.634,27 L90.308,23.038 L92.982,27 L94.844,27 L91.218,21.834 L94.606,17.004 L92.744,17.004 L90.308,20.616 L87.872,17.004 L86.01,17.004 L89.37,21.834 L85.772,27 L87.634,27 Z" id="WhaleEX" fill="#000000"></path>
                    </g>
                </g>
            </g>
        </g>
    </g>
</svg>