<?xml version="1.0" encoding="UTF-8"?>
<svg width="190px" height="80px" viewBox="0 0 190 80" version="1.1" xmlns="http://www.w3.org/2000/svg" xmlns:xlink="http://www.w3.org/1999/xlink">
    <title>exchanges-14</title>
    <defs>
        <filter id="filter-1">
            <feColorMatrix in="SourceGraphic" type="matrix" values="0 0 0 0 0.608582 0 0 0 0 0.319216 0 0 0 0 0.319216 0 0 0 1.000000 0"></feColorMatrix>
        </filter>
    </defs>
    <g id="切图文件" stroke="none" stroke-width="1" fill="none" fill-rule="evenodd">
        <g id="官网---EN" transform="translate(-1178.000000, -4246.000000)">
            <g id="编组-25" transform="translate(359.000000, 3887.000000)">
                <g id="编组-21" transform="translate(213.000000, 173.000000)">
                    <g filter="url(#filter-1)" id="BG">
                        <g></g>
                    </g>
                    <g id="3" transform="translate(675.000000, 214.000000)" fill="#02EAD0" fill-rule="nonzero">
                        <polygon id="路径" points="12.0753202 8.019 5.00942554 8.019 5.00942554 0 0 0 0 21 5.00942554 21 5.00942554 12.981 12.0753202 12.981 12.0753202 21 17.0847458 21 17.0847458 0 12.0753202 0"></polygon>
                        <path d="M28.0007532,2.86363636 C23.0203783,2.86363636 18.9830508,6.92390322 18.9830508,11.9310607 C18.9830508,16.9382181 23.0218848,21 28.0007532,21 C32.9811281,21 37.0169492,16.9397331 37.0169492,11.9310607 C37.0169492,6.9223882 32.9811281,2.86363636 28.0007532,2.86363636 M28.0007532,15.9322416 C25.8028201,15.9322416 24.0221779,14.1414821 24.0221779,11.9310607 C24.0221779,9.72063927 25.8043266,7.92987979 28.0007532,7.92987979 C30.1986864,7.92987979 31.9793286,9.72063927 31.9793286,11.9310607 C31.9793286,14.1414821 30.1986864,15.9322416 28.0007532,15.9322416" id="形状"></path>
                        <path d="M46.9838041,2.86363636 C42.0034292,2.86363636 37.9661017,6.92390322 37.9661017,11.9310607 C37.9661017,16.9382181 42.0049357,21 46.9838041,21 C51.964179,21 56,16.9397331 56,11.9310607 C56,6.9223882 51.964179,2.86363636 46.9838041,2.86363636 M46.9838041,15.9322416 C44.7858709,15.9322416 43.0052287,14.1414821 43.0052287,11.9310607 C43.0052287,9.72063927 44.7858709,7.92987979 46.9838041,7.92987979 C49.1802308,7.92987979 50.9623794,9.72063927 50.9623794,11.9310607 C50.9623794,14.1414821 49.1817372,15.9322416 46.9838041,15.9322416" id="形状"></path>
                    </g>
                </g>
            </g>
        </g>
    </g>
</svg>