<?xml version="1.0" encoding="UTF-8"?>
<svg width="190px" height="80px" viewBox="0 0 190 80" version="1.1" xmlns="http://www.w3.org/2000/svg" xmlns:xlink="http://www.w3.org/1999/xlink">
    <title>exchanges-12</title>
    <defs>
        <filter id="filter-1">
            <feColorMatrix in="SourceGraphic" type="matrix" values="0 0 0 0 0.608582 0 0 0 0 0.319216 0 0 0 0 0.319216 0 0 0 1.000000 0"></feColorMatrix>
        </filter>
        <rect id="path-2" x="0" y="0" width="190" height="80"></rect>
    </defs>
    <g id="切图文件" stroke="none" stroke-width="1" fill="none" fill-rule="evenodd">
        <g id="官网---EN" transform="translate(-572.000000, -4061.000000)">
            <g id="编组-25" transform="translate(359.000000, 3887.000000)">
                <g id="编组-21" transform="translate(213.000000, 173.000000)">
                    <g filter="url(#filter-1)" id="BG">
                        <g>
                            <mask id="mask-3" fill="white">
                                <use xlink:href="#path-2"></use>
                            </mask>
                            <g id="蒙版备份-2"></g>
                        </g>
                    </g>
                    <g id="fb0c4e3-(1)" transform="translate(31.000000, 31.000000)">
                        <path d="M23.3900954,4.94640616 L23.3900954,10.333611 L18.0743518,10.333611 L18.0743518,5.63940616 C18.0743518,5.25667398 17.763784,4.94640616 17.3808769,4.94640616 L15.5866432,4.94640616 L15.5866432,17.784152 C15.5866432,18.1670425 15.8970528,18.4773103 16.2801181,18.4773103 L18.0743518,18.4773103 L18.0743518,12.5062767 L23.3900954,12.5062767 L23.3900954,17.784152 C23.3900954,18.1670425 23.700505,18.4773103 24.0835704,18.4773103 L25.8776457,18.4773103 L25.8776457,5.63940616 C25.8776457,5.25667398 25.5672361,4.94640616 25.1841709,4.94640616 L23.3900954,4.94640616" id="Fill-1" fill="#181B2A" fill-rule="nonzero"></path>
                        <path d="M33.8248266,8.13642124 L33.8248266,14.5484116 C33.8248266,15.1309747 33.5275552,15.6833178 33.0229221,15.9747575 C31.6142864,16.7883205 30.1565804,15.7720787 30.1565804,14.4321205 L30.1565804,8.82942126 C30.1565804,8.44668904 29.8461709,8.13642124 29.4631055,8.13642124 L27.6617487,8.13642124 L27.6617487,14.6605891 C27.6617487,16.7598411 29.3800025,18.4773103 31.4802136,18.4773103 L32.5011935,18.4773103 C34.6014046,18.4773103 36.3196583,16.7598411 36.3196583,14.6605891 L36.3196583,8.82942126 C36.3196583,8.44668904 36.0092487,8.13642124 35.6263417,8.13642124 L33.8248266,8.13642124" id="Fill-2" fill="#181B2A" fill-rule="nonzero"></path>
                        <path d="M61.4949649,18.4773103 L63.2891985,18.4773103 L63.2891985,9.39726986 C63.2891985,9.01437942 62.9786307,8.70411167 62.5957236,8.70411167 L60.8016482,8.70411167 L60.8016482,17.784152 C60.8016482,18.1670425 61.1120578,18.4773103 61.4949649,18.4773103" id="Fill-3" fill="#357CE1" fill-rule="nonzero"></path>
                        <path d="M62.0453443,7.72014658 C62.812108,7.72014658 63.4337186,7.09881987 63.4337186,6.33240616 C63.4337186,5.56599246 62.812108,4.94482398 62.0453443,4.94482398 C61.2785804,4.94482398 60.6571281,5.56599246 60.6571281,6.33240616 C60.6571281,7.09881987 61.2785804,7.72014658 62.0453443,7.72014658" id="Fill-4" fill="#357CE1" fill-rule="nonzero"></path>
                        <path d="M45.0739673,14.1838746 C45.0739673,15.4175096 44.0643845,16.2386671 42.8301859,16.2386671 C41.5959874,16.2386671 40.5862462,15.4175096 40.5862462,14.1838746 L40.5862462,12.4235281 C40.5862462,11.1898932 41.5959874,10.3687356 42.8301859,10.3687356 C44.0643845,10.3687356 45.0739673,11.1898932 45.0739673,12.4235281 L45.0739673,14.1838746 Z M42.8301859,8.13009246 L42.8301859,8.13009246 C40.2207513,8.13009246 38.0858744,9.99581301 38.0858744,12.603898 L38.0858744,14.0145802 C38.0858744,16.622665 40.2207513,18.4773103 42.8301859,18.4773103 C45.4394623,18.4773103 47.5744975,16.622665 47.5744975,14.0145802 L47.5744975,12.603898 C47.5744975,9.99581301 45.4394623,8.13009246 42.8301859,8.13009246 L42.8301859,8.13009246 Z" id="Fill-5" fill="#181B2A" fill-rule="nonzero"></path>
                        <path d="M56.3655302,14.1838746 C56.3655302,15.4175096 55.3557889,16.2386671 54.1215905,16.2386671 C52.8875503,16.2386671 51.8776508,15.4175096 51.8776508,14.1838746 L51.8776508,12.4235281 C51.8776508,11.1898932 52.8875503,10.3687356 54.1215905,10.3687356 C55.3557889,10.3687356 56.3655302,11.1898932 56.3655302,12.4235281 L56.3655302,14.1838746 Z M54.1215905,8.13009246 L54.1215905,8.13009246 C53.3060729,8.13009246 52.537093,8.31236096 51.8649874,8.64256438 L51.8649874,5.62785617 C51.8649874,5.24496575 51.5544196,4.93469794 51.1715126,4.93469794 L49.3772789,4.93469794 L49.3772789,14.0145802 C49.3772789,16.6228233 51.5123141,18.4773103 54.1215905,18.4773103 C56.7310251,18.4773103 58.865902,16.6228233 58.865902,14.0145802 L58.865902,12.603898 C58.865902,9.99581301 56.7310251,8.13009246 54.1215905,8.13009246 L54.1215905,8.13009246 Z" id="Fill-6" fill="#357CE1" fill-rule="nonzero"></path>
                        <path d="M105.968216,14.2267521 C105.968216,15.4475713 104.968922,16.2603432 103.747387,16.2603432 C102.52601,16.2603432 101.526557,15.4475713 101.526557,14.2267521 L101.526557,12.4844425 C101.526557,11.2636233 102.52601,10.4508514 103.747387,10.4508514 C104.968922,10.4508514 105.968216,11.2636233 105.968216,12.4844425 L105.968216,14.2267521 Z M103.747546,8.23530822 L103.747387,8.23530822 C102.940417,8.23530822 102.179193,8.41551987 101.514052,8.74224247 L101.514052,5.63007123 C101.514052,5.25129452 101.20665,4.94419109 100.827701,4.94419109 L99.0519873,4.94419109 L99.0519873,14.059198 C99.0519873,16.6405438 101.164861,18.4758863 103.747387,18.4758863 L103.747546,18.4758863 C106.329912,18.4758863 108.442945,16.6405438 108.442945,14.059198 L108.442945,12.6629137 C108.442945,10.081726 106.329912,8.23530822 103.747546,8.23530822 L103.747546,8.23530822 Z" id="Fill-7" fill="#181B2A" fill-rule="nonzero"></path>
                        <g id="Fill-8"></g>
                        <path d="M125.902018,18.4295281 L125.902018,16.8682213 C125.902018,16.4986212 125.602688,16.1994288 125.23292,16.2006945 C124.858877,16.2019603 124.389543,16.2032261 123.992864,16.2032261 C122.982015,16.2032261 123.029345,15.6981904 123.029345,14.3887685 L123.029345,5.62310959 C123.029345,5.25430069 122.730332,4.95542466 122.361671,4.95542466 L120.540369,4.95542466 L120.540369,14.6881192 C120.540369,17.0451102 121.148209,18.4295281 123.693377,18.4295281 C124.677,18.4295281 125.39042,18.4016815 125.901859,18.4296863 L125.902018,18.4295281" id="Fill-9" fill="#181B2A" fill-rule="nonzero"></path>
                        <path d="M78.2247889,10.3904116 L73.4111457,10.3904116 L73.4111457,11.7014157 C73.4111457,12.0955398 73.7307361,12.4149843 74.1248819,12.4149843 L76.411402,12.4149843 L76.411402,13.574098 C76.411402,14.4292726 76.1977085,15.0604089 75.7562337,15.505163 C75.2142438,16.0646261 74.4641005,16.3601794 73.5874824,16.3601794 C72.7974497,16.3601794 72.045407,16.0867767 71.5762312,15.6290486 C70.9239121,14.9900014 70.7833492,14.2960521 70.7833492,11.7200856 C70.7833492,9.15883359 70.9239121,8.46804863 71.5759146,7.82963424 C72.0572789,7.36019794 72.9959472,7.00499589 73.774108,7.00499589 C76.4055452,7.00499589 77.2892864,7.93848904 77.9485704,8.78844244 L78.0348392,8.78844244 L78.0348392,6.88775548 C78.0348392,6.60675822 77.900608,6.34411439 77.6810578,6.16864932 C76.578716,5.28673562 75.4798568,4.96444315 73.5874824,4.96444315 C72.0591784,4.96444315 70.7523242,5.44448013 69.7036432,6.39110548 C68.2554347,7.69815411 68.255593,9.17291504 68.2559003,11.6161356 L68.2559003,11.8240356 C68.255593,14.2672562 68.2554347,15.7418589 69.7036432,17.0489075 C70.7377613,17.9825589 72.0808644,18.4758863 73.5874824,18.4758863 C75.1699221,18.4758863 76.5628869,17.9434788 77.6156834,16.9364137 L77.616,16.9360973 C78.5554598,16.034248 78.9386834,14.3071274 78.9386834,12.5113398 L78.9386834,11.1038219 C78.9386834,10.7098561 78.619093,10.3904116 78.2247889,10.3904116" id="Fill-10" fill="#181B2A" fill-rule="nonzero"></path>
                        <path d="M86.0681307,18.4295281 L86.0681307,16.8682213 C86.0681307,16.4986212 85.7688015,16.1994288 85.3990327,16.2006945 C85.0249899,16.2019603 84.5556557,16.2032261 84.1589774,16.2032261 C83.1482864,16.2032261 83.1954573,15.6981904 83.1954573,14.3887685 L83.1954573,5.62310959 C83.1954573,5.25430069 82.896603,4.95542466 82.527784,4.95542466 L80.7064824,4.95542466 L80.7064824,14.6881192 C80.7064824,17.0451102 81.3143216,18.4295281 83.8596482,18.4295281 C84.8431131,18.4295281 85.5565327,18.4016815 86.0679724,18.4296863 L86.0681307,18.4295281" id="Fill-12" fill="#181B2A" fill-rule="nonzero"></path>
                        <path d="M94.7804924,14.2267521 C94.7804924,15.4475713 93.7810405,16.2603432 92.559663,16.2603432 C91.3381284,16.2603432 90.3388345,15.4475713 90.3388345,14.2267521 L90.3388345,12.4844425 C90.3388345,11.2636233 91.3381284,10.4508514 92.559663,10.4508514 C93.7810405,10.4508514 94.7804924,11.2636233 94.7804924,12.4844425 L94.7804924,14.2267521 Z M92.559663,8.23530822 L92.559663,8.23530822 C89.9771385,8.23530822 87.8641056,10.081726 87.8641056,12.6629137 L87.8641056,14.059198 C87.8641056,16.6405438 89.9771385,18.4758863 92.559663,18.4758863 C95.1421883,18.4758863 97.2550625,16.6405438 97.2550625,14.059198 L97.2550625,12.6629137 C97.2550625,10.081726 95.1421883,8.23530822 92.559663,8.23530822 L92.559663,8.23530822 Z" id="Fill-13" fill="#181B2A" fill-rule="nonzero"></path>
                        <path d="M116.297683,13.8403809 L116.297683,16.4098603 C116.105676,16.4470418 115.893565,16.4766288 115.663884,16.4976719 C115.100525,16.5506754 114.595417,16.5603267 114.009422,16.5070069 C113.780057,16.4862801 113.568264,16.4277391 113.379739,16.3343897 C113.197704,16.2437301 113.048751,16.1149398 112.924967,15.9402658 C112.807356,15.7747685 112.747681,15.5303199 112.747681,15.2137233 C112.747681,14.7205541 112.923543,14.3674089 113.285872,14.1337192 C113.671312,13.8848404 114.255249,13.7584233 115.021696,13.7584233 C115.228425,13.7584233 115.480266,13.7702897 115.777854,13.7938644 C115.972711,13.8093698 116.146198,13.8248753 116.297683,13.8403809 Z M117.629389,9.10551367 C116.891435,8.5164637 115.812837,8.21790411 114.422721,8.21790411 C113.905899,8.21790411 113.362802,8.25556028 112.80799,8.32960685 C112.363033,8.38893904 111.73335,8.47390274 111.296623,8.57453014 C111.119495,8.61535069 111.087046,8.75442537 111.087046,8.92103017 L111.087046,10.2492801 C111.087046,10.4859761 111.08942,10.7013123 111.340153,10.6402398 C111.807905,10.5263219 112.715389,10.3253835 112.961691,10.2847213 C113.351562,10.2206425 113.775943,10.1883658 114.222957,10.1883658 C114.919281,10.1883658 115.450191,10.3128842 115.800965,10.5576493 C116.130528,10.7883329 116.297683,11.2273911 116.297683,11.8624829 L116.297683,11.9393774 C116.173742,11.9279856 116.037611,11.9170685 115.889133,11.9071007 C115.61149,11.8884308 115.25565,11.8789376 114.821932,11.8789376 C114.229764,11.8789376 113.655957,11.9460226 113.117133,12.0784521 C112.570078,12.2132548 112.078266,12.4214712 111.655153,12.6978802 C111.224758,12.9798267 110.879525,13.3375602 110.629266,13.7622205 C110.376475,14.189887 110.248575,14.6908089 110.248575,15.2502719 C110.248575,15.8185952 110.358113,16.3133466 110.574181,16.7204445 C110.791832,17.1311815 111.10509,17.473726 111.504144,17.7381102 C111.897023,17.9991719 112.379337,18.1899842 112.937155,18.3061171 C113.479462,18.4187691 114.093475,18.4758863 114.762098,18.4758863 C115.249003,18.4758863 118.756583,18.4265219 118.756583,16.7581007 C118.756583,14.8248206 118.756583,11.9351055 118.756583,11.9351055 C118.756583,10.6552705 118.377317,9.70326578 117.629389,9.10551367 L117.629389,9.10551367 Z" id="Fill-14" fill="#181B2A" fill-rule="nonzero"></path>
                        <path d="M8.13823869,5.88559521 C8.13823869,3.1911226 6.82505276,0.874002737 5.82623367,0.11945548 C5.82211809,0.117082192 5.74977889,0.076419863 5.75595226,0.184167123 L5.75452764,0.187489726 C5.67158291,5.38989452 3.01260302,6.79994384 1.55078141,8.6993651 C-1.82272613,13.0826691 1.31461055,17.8884185 4.50940704,18.7766609 C6.29699247,19.2736274 4.09658291,17.8972788 3.81324121,14.9901596 C3.4705402,11.4764281 8.13823869,8.7942966 8.13823869,5.88559521" id="Fill-15" fill="#181B2A" fill-rule="nonzero"></path>
                        <path d="M9.67113319,7.6568589 C9.6507136,7.64293562 9.62158792,7.63344247 9.60148497,7.66666849 C9.54655777,8.32153767 8.87730152,9.72241027 8.02901758,11.0087322 C5.15191206,15.3719424 6.79149497,17.4753082 7.71338443,18.6049932 C8.24872613,19.2608116 7.71338443,18.6049932 9.05142213,17.9347767 C9.15621106,17.8822479 11.6621231,16.4775781 11.9334347,13.2771205 C12.1961985,10.1779233 10.3338995,8.2243911 9.67113319,7.6568589" id="Fill-16" fill="#357CE1" fill-rule="nonzero"></path>
                    </g>
                </g>
            </g>
        </g>
    </g>
</svg>