<?xml version="1.0" encoding="UTF-8"?>
<svg width="442px" height="446px" viewBox="0 0 442 446" version="1.1" xmlns="http://www.w3.org/2000/svg" xmlns:xlink="http://www.w3.org/1999/xlink">
    <title>img-skake</title>
    <g id="切图文件" stroke="none" stroke-width="1" fill="none" fill-rule="evenodd">
        <g id="官网---EN" transform="translate(-358.000000, -848.000000)">
            <g id="img-skake" transform="translate(360.000000, 850.000000)">
                <polygon id="多边形" stroke="#FA9B00" opacity="0.2" points="220 7.61006289 370.671558 69.9189505 433.081761 220.345912 370.671558 370.772873 220 433.081761 69.3284418 370.772873 6.91823899 220.345912 69.3284418 69.9189505"></polygon>
                <polygon id="多边形备份" stroke="#FA9B00" opacity="0.2" points="220 72.6415094 324.687381 116.004443 368.050314 220.691824 324.687381 325.379205 220 368.742138 115.312619 325.379205 71.9496855 220.691824 115.312619 116.004443"></polygon>
                <path d="M220.005468,8.99371069 L220.005468,72.6076249 M369.79534,70.5787009 L324.297132,115.838886 M431.698113,220.335001 L367.7086,220.335001 M369.61599,370.062163 L324.352973,324.86762 M220.005468,432.389937 L220.005468,368.655847 M70.3024105,370.29084 L115.545719,325.034506 M8.30188679,220.335001 L71.9476139,220.335001 M70.2165477,70.5578945 L115.592613,115.753662" id="形状结合" stroke="#FA9B00" opacity="0.2"></path>
                <path d="M220.005468,8.99371069 L324.297132,115.753485 L431.698113,220.335001 L325.851791,324.86745 L220.005468,432.389937 L115.592437,325.034506 L8.30188679,220.691824 L115.312755,115.456326 L220.005468,8.99371069 Z" id="路径-2" stroke="#FA9B00" opacity="0.2" stroke-dasharray="5"></path>
                <g id="编组-6">
                    <ellipse id="椭圆形" stroke="#FFFFFF" stroke-width="4" fill="#424E69" cx="219.14135" cy="9.53999239" rx="9.5278848" ry="9.53999239"></ellipse>
                    <ellipse id="椭圆形备份-6" stroke="#FFFFFF" stroke-width="4" fill="#FA9B00" cx="219.14135" cy="431.843655" rx="9.5278848" ry="9.53999239"></ellipse>
                    <ellipse id="椭圆形备份-7" stroke="#FFFFFF" stroke-width="4" fill="#FA9B00" cx="9.5278848" cy="220.691824" rx="9.5278848" ry="9.53999239"></ellipse>
                    <ellipse id="椭圆形备份-9" stroke="#FFFFFF" stroke-width="4" fill="#BED4EF" cx="367.776353" cy="71.8679427" rx="9.5278848" ry="9.53999239"></ellipse>
                    <ellipse id="椭圆形备份-10" stroke="#FFFFFF" stroke-width="4" fill="#FA9B00" cx="71.7767321" cy="71.8679427" rx="9.5278848" ry="9.53999239"></ellipse>
                    <g id="编组-8" transform="translate(61.858463, 362.127712)">
                        <circle id="椭圆形备份-11" stroke="#FA9B00" fill="#FA9B00" cx="8.54153729" cy="8.35228826" r="7.42"></circle>
                        <circle id="椭圆形备份-14" fill="#FFFFFF" cx="8.54153729" cy="8.35228826" r="5.28"></circle>
                    </g>
                    <ellipse id="椭圆形备份-12" stroke="#FFFFFF" stroke-width="4" fill="#FA9B00" cx="367.776353" cy="370.787704" rx="9.5278848" ry="9.53999239"></ellipse>
                    <circle id="椭圆形备份-11" stroke="#FA9B00" fill="#FA9B00" cx="432.08" cy="220.88" r="7.42"></circle>
                    <circle id="椭圆形备份-14" fill="#FFFFFF" cx="432.08" cy="220.88" r="5.28"></circle>
                </g>
                <path d="M219.855946,112.767296 L219.855946,148.29246 M314.872412,166.418812 L284.659288,184.660578 M314.952429,274.651824 L283.412436,254.386029 M219.855946,328.616352 L219.855946,293.030975 M124.861261,274.75285 L155.925075,254.560032 M124.663035,166.667409 L155.724096,184.967395" id="形状结合" stroke="#FA9B00" opacity="0.2"></path>
                <polygon id="多边形" stroke="#FA9B00" opacity="0.2" points="219.654088 111.383648 315.216451 166.210692 315.216451 275.86478 219.654088 330.691824 124.091725 275.86478 124.091725 166.210692"></polygon>
                <g id="编组-7" transform="translate(154.968553, 146.666667)">
                    <polyline id="路径" stroke="#FA9B00" stroke-linecap="round" stroke-linejoin="round" points="65.0314465 75.224443 0.441715688 38.6648147 0.659651902 107.893365 65.0314465 147.093793"></polyline>
                    <polygon id="Fill-2" fill="#424E69" points="65.0314465 75.8492513 65.0314465 148.050314 128.990987 108.058222 130.062893 38.3774036"></polygon>
                    <polygon id="Fill-3" fill="#FA9B00" points="65.0314465 0.624808271 4.40860246e-12 38.3774036 65.0314465 75.8492513 130.062893 38.3774036"></polygon>
                </g>
                <g id="编组" transform="translate(198.000000, 168.347826)">
                    <g transform="translate(0.956522, 0.956522)"></g>
                    <g></g>
                </g>
                <path d="M220.060881,323.72 C221.309044,323.72 222.439044,324.225918 223.257003,325.043877 C224.074962,325.861836 224.580881,326.991836 224.580881,328.24 C224.580881,329.488164 224.074962,330.618164 223.257003,331.436123 C222.439044,332.254082 221.309044,332.76 220.060881,332.76 C218.812717,332.76 217.682717,332.254082 216.864758,331.436123 C216.046799,330.618164 215.540881,329.488164 215.540881,328.24 C215.540881,326.991836 216.046799,325.861836 216.864758,325.043877 C217.682717,324.225918 218.812717,323.72 220.060881,323.72 Z M315.48,271.645031 C316.606661,271.645031 317.626661,272.101701 318.364996,272.840036 C319.10333,273.578371 319.56,274.598371 319.56,275.725031 C319.56,276.851692 319.10333,277.871692 318.364996,278.610027 C317.626661,279.348362 316.606661,279.805031 315.48,279.805031 C314.353339,279.805031 313.333339,279.348362 312.595004,278.610027 C311.85667,277.871692 311.4,276.851692 311.4,275.725031 C311.4,274.598371 311.85667,273.578371 312.595004,272.840036 C313.333339,272.101701 314.353339,271.645031 315.48,271.645031 Z M124.96,270.04 C126.208164,270.04 127.338164,270.545918 128.156123,271.363877 C128.974082,272.181836 129.48,273.311836 129.48,274.56 C129.48,275.808164 128.974082,276.938164 128.156123,277.756123 C127.338164,278.574082 126.208164,279.08 124.96,279.08 C123.711836,279.08 122.581836,278.574082 121.763877,277.756123 C120.945918,276.938164 120.44,275.808164 120.44,274.56 C120.44,273.311836 120.945918,272.181836 121.763877,271.363877 C122.581836,270.545918 123.711836,270.04 124.96,270.04 Z M315.04,162.840503 C316.288164,162.840503 317.418164,163.346421 318.236123,164.16438 C319.054082,164.98234 319.56,166.11234 319.56,167.360503 C319.56,168.608667 319.054082,169.738667 318.236123,170.556626 C317.418164,171.374585 316.288164,171.880503 315.04,171.880503 C313.791836,171.880503 312.661836,171.374585 311.843877,170.556626 C311.025918,169.738667 310.52,168.608667 310.52,167.360503 C310.52,166.11234 311.025918,164.98234 311.843877,164.16438 C312.661836,163.346421 313.791836,162.840503 315.04,162.840503 Z M125.159245,162.840503 C126.407409,162.840503 127.537409,163.346421 128.355368,164.16438 C129.173327,164.98234 129.679245,166.11234 129.679245,167.360503 C129.679245,168.608667 129.173327,169.738667 128.355368,170.556626 C127.537409,171.374585 126.407409,171.880503 125.159245,171.880503 C123.911082,171.880503 122.781082,171.374585 121.963123,170.556626 C121.145164,169.738667 120.639245,168.608667 120.639245,167.360503 C120.639245,166.11234 121.145164,164.98234 121.963123,164.16438 C122.781082,163.346421 123.911082,162.840503 125.159245,162.840503 Z M220.060881,108.186415 C221.309044,108.186415 222.439044,108.692333 223.257003,109.510292 C224.074962,110.328252 224.580881,111.458252 224.580881,112.706415 C224.580881,113.954579 224.074962,115.084579 223.257003,115.902538 C222.439044,116.720497 221.309044,117.226415 220.060881,117.226415 C218.812717,117.226415 217.682717,116.720497 216.864758,115.902538 C216.046799,115.084579 215.540881,113.954579 215.540881,112.706415 C215.540881,111.458252 216.046799,110.328252 216.864758,109.510292 C217.682717,108.692333 218.812717,108.186415 220.060881,108.186415 Z" id="形状结合" stroke="#FFFFFF" stroke-width="2" fill="#FFC66A"></path>
                <path d="M201.491,196.1988 C201.841,196.1738 202.166,196.1778 202.465,196.2258 C202.758,196.2698 203.026,196.3358 203.269,196.4238 C203.51,196.5058 203.721,196.5978 203.919,196.6968 C204.11,196.8008 204.276,196.8888 204.416,196.9698 C204.423,196.9738 204.487,197.0178 204.615,197.1068 C204.736,197.1918 204.864,197.3088 205.005,197.4558 C205.139,197.6078 205.261,197.7808 205.358,197.9908 C205.461,198.1968 205.5,198.4258 205.457,198.6728 C205.427,198.9198 205.301,199.1858 205.067,199.4688 C204.846,199.7458 204.466,200.0398 203.952,200.3388 L203.952,200.3388 L201.383,201.8318 L204.012,204.1358 L202.515,205.0058 L195.671,199.0048 L199.109,197.0068 C199.56,196.7448 199.979,196.5538 200.379,196.4318 C200.773,196.3068 201.142,196.2328 201.491,196.1988 Z M201.67,197.4198 C201.447,197.4078 201.206,197.4388 200.945,197.5008 C200.678,197.5678 200.393,197.6888 200.094,197.8618 L200.094,197.8618 L198.153,198.9898 L200.411,200.9768 L202.675,199.6608 C203.012,199.4658 203.24,199.2738 203.353,199.0898 C203.473,198.9018 203.517,198.7288 203.478,198.5588 C203.438,198.3968 203.348,198.2408 203.207,198.1018 C203.061,197.9578 202.888,197.8288 202.697,197.7188 C202.575,197.6488 202.435,197.5818 202.256,197.5228 C202.083,197.4678 201.893,197.4308 201.67,197.4198 Z M208.9243,193.899 L209.9543,194.824 C209.8593,194.865 209.7703,194.902 209.6813,194.946 C209.5863,194.986 209.5093,195.031 209.4273,195.079 C209.0783,195.281 208.8313,195.492 208.6983,195.717 C208.5663,195.941 208.5103,196.166 208.5503,196.394 C208.5833,196.627 208.6923,196.852 208.8593,197.081 C209.0323,197.312 209.2373,197.534 209.4863,197.752 L209.4863,197.752 L211.6803,199.68 L210.3103,200.476 L205.3543,196.13 L206.6483,195.378 L207.6203,196.226 L207.6713,196.226 C207.5933,196.07 207.5423,195.908 207.5083,195.727 C207.4823,195.551 207.4873,195.37 207.5253,195.2 C207.5623,195.023 207.6313,194.857 207.7453,194.695 C207.8523,194.529 208.0173,194.39 208.2323,194.265 C208.3463,194.198 208.4543,194.136 208.5683,194.076 C208.6763,194.014 208.7973,193.958 208.9243,193.899 L208.9243,193.899 Z M214.8399,191.2084 C215.7759,191.1974 216.6739,191.4444 217.5489,191.9494 C218.0979,192.2664 218.5259,192.6094 218.8399,192.9734 C219.1539,193.3384 219.3349,193.7144 219.3749,194.0984 C219.4149,194.4744 219.3219,194.8534 219.0879,195.2184 C218.8489,195.5874 218.4559,195.9334 217.9039,196.2544 C217.0419,196.7554 216.1389,197.0064 215.2039,197.0094 C214.2619,197.0094 213.3569,196.7594 212.4759,196.2514 C211.9649,195.9564 211.5559,195.6244 211.2609,195.2634 C210.9659,194.8944 210.7929,194.5224 210.7519,194.1384 C210.7059,193.7584 210.7989,193.3794 211.0199,193.0064 C211.2469,192.6304 211.6269,192.2924 212.1659,191.9784 C213.0279,191.4774 213.9179,191.2194 214.8399,191.2084 Z M214.7129,192.2884 C214.1779,192.2444 213.6629,192.3664 213.1679,192.6534 C212.8129,192.8594 212.5979,193.0874 212.5099,193.3384 C212.4289,193.5934 212.4369,193.8474 212.5269,194.1054 C212.6179,194.3634 212.7909,194.6104 213.0409,194.8504 C213.2769,195.0894 213.5649,195.2994 213.8779,195.4804 C214.3369,195.7464 214.8349,195.9004 215.3629,195.9414 C215.8979,195.9854 216.4129,195.8644 216.9079,195.5764 C217.2569,195.3744 217.4779,195.1484 217.5659,194.8984 C217.6469,194.6434 217.6459,194.3934 217.5549,194.1344 C217.4639,193.8774 217.2849,193.6264 217.0419,193.3824 C216.7929,193.1434 216.5039,192.9334 216.1909,192.7524 C215.7319,192.4874 215.2349,192.3324 214.7129,192.2884 Z M217.1212,187.1237 L218.6112,188.4257 L219.8422,187.7097 L220.6542,188.4287 L219.4232,189.1447 L221.8342,191.2787 C221.9372,191.3737 222.0392,191.4627 222.1352,191.5477 C222.2312,191.6327 222.3212,191.6917 222.3902,191.7317 C222.5312,191.8127 222.6652,191.8617 222.8112,191.8717 C222.9582,191.8907 223.1292,191.8347 223.3392,191.7127 C223.4402,191.6547 223.5542,191.5877 223.6752,191.5107 C223.7952,191.4407 223.9092,191.3527 224.0102,191.2557 L224.0102,191.2557 L224.7912,191.9717 C224.6642,192.0967 224.5062,192.2257 224.3352,192.3547 C224.1512,192.4837 223.9802,192.5977 223.8022,192.7007 C223.5552,192.8447 223.3202,192.9447 223.0922,193.0037 C222.8692,193.0587 222.6532,193.0807 222.4622,193.0727 C222.2522,193.0627 222.0672,193.0297 221.8952,192.9667 C221.7162,192.9077 221.5572,192.8377 221.4102,192.7527 C221.2882,192.6827 221.1672,192.5977 221.0392,192.5017 C220.9182,192.4097 220.8352,192.3397 220.7902,192.2997 L220.7902,192.2997 L218.0912,189.9177 L217.0132,190.5447 L216.2002,189.8257 L217.2792,189.1987 L215.7892,187.8987 L217.1212,187.1237 Z M196.5796,181.7091 L206.6826,185.8151 L205.1606,186.7001 L202.5326,185.5871 L199.1326,187.5621 L200.0926,189.6451 L198.4876,190.5781 L194.9996,182.6271 L196.5796,181.7091 Z M225.9346,184.7612 C226.8696,184.7502 227.7686,184.9972 228.6426,185.5022 C229.1926,185.8192 229.6206,186.1622 229.9346,186.5262 C230.2486,186.8912 230.4286,187.2672 230.4696,187.6512 C230.5096,188.0272 230.4156,188.4062 230.1826,188.7712 C229.9426,189.1402 229.5506,189.4862 228.9976,189.8072 C228.1416,190.3052 227.2336,190.5592 226.2976,190.562203 C225.3556,190.5632 224.4516,190.3122 223.5696,189.8042 C223.0586,189.5092 222.6496,189.1772 222.3556,188.8162 C222.0606,188.4472 221.8866,188.0752 221.8466,187.6912 C221.7996,187.3122 221.8926,186.9322 222.1136,186.5592 C222.3406,186.1832 222.7206,185.8452 223.2596,185.5312 C224.1216,185.0302 225.0116,184.7722 225.9346,184.7612 Z M225.8066,185.8412 C225.2716,185.7972 224.7566,185.9192 224.2626,186.2062 C223.9076,186.4122 223.6926,186.6402 223.6046,186.8912 C223.5236,187.1462 223.5306,187.4002 223.6216,187.6582 C223.7116,187.9162 223.8856,188.1632 224.1346,188.4032 C224.3776,188.6382 224.6596,188.8522 224.9716,189.0332 C225.4316,189.2992 225.9296,189.4532 226.4576,189.4942 C226.9926,189.5382 227.5076,189.4172 228.0016,189.1292 C228.3506,188.9272 228.5726,188.7012 228.6596,188.4512 C228.7416,188.1962 228.7396,187.9462 228.6486,187.6872 C228.5586,187.4302 228.3786,187.1792 228.1366,186.9352 C227.8866,186.6962 227.5986,186.4862 227.2856,186.3052 C226.8266,186.0402 226.3286,185.8852 225.8066,185.8412 Z M197.0336,183.2051 L197.0146,183.2171 L198.6236,186.5341 L201.2376,185.0161 L197.0336,183.2051 Z M232.6827,180.7141 C233.0897,180.6911 233.4977,180.7211 233.9047,180.8091 C234.2927,180.8931 234.6577,181.0371 234.9937,181.2321 C235.0117,181.2421 235.0297,181.2521 235.0467,181.2631 L235.0467,181.2631 L233.6827,182.0561 C233.6627,182.0431 233.6417,182.0301 233.6217,182.0181 C233.2697,181.8151 232.9007,181.7211 232.5097,181.7381 C232.0967,181.7651 231.7027,181.8821 231.3157,182.1071 C230.9737,182.3071 230.7647,182.5311 230.6767,182.7811 C230.6017,183.0321 230.6157,183.2831 230.7197,183.5411 C230.8287,183.7951 231.0027,184.0421 231.2457,184.2781 C231.4887,184.5151 231.7577,184.7211 232.0507,184.8911 C232.2867,185.0261 232.5227,185.1341 232.7657,185.2221 C233.0137,185.3071 233.2627,185.3621 233.5167,185.3841 C233.7657,185.4021 234.0267,185.3841 234.2807,185.3321 C234.5477,185.2811 234.8017,185.1781 235.0547,185.0301 C235.4617,184.7941 235.6887,184.5361 235.7317,184.2601 C235.7747,183.9831 235.6587,183.7031 235.3837,183.4121 L235.3837,183.4121 L236.7477,182.6191 C237.3297,183.2131 237.5427,183.7691 237.3867,184.2891 C237.2307,184.8081 236.7367,185.3101 235.9127,185.7901 C235.5067,186.0251 235.0807,186.1991 234.6427,186.3061 C234.2037,186.4121 233.7587,186.4571 233.3137,186.4421 C232.8617,186.4311 232.4217,186.3611 231.9817,186.2391 C231.5487,186.1141 231.1277,185.9371 230.7377,185.7121 C230.2147,185.4101 229.7927,185.0781 229.4787,184.7131 C229.1647,184.3411 228.9777,183.9691 228.9257,183.5851 C228.8717,183.2021 228.9587,182.8261 229.1857,182.4501 C229.4067,182.0781 229.7997,181.7311 230.3507,181.4101 C230.6937,181.2111 231.0617,181.0491 231.4627,180.9281 C231.8687,180.8091 232.2697,180.7391 232.6827,180.7141 Z M206.2637,179.114 C206.6387,179.073 207.0137,179.092 207.3967,179.173 C207.7437,179.24 208.0867,179.371 208.4287,179.568 C208.4637,179.589 208.4977,179.609 208.5317,179.63 L208.5317,179.63 L207.2447,180.378 C206.9187,180.205 206.5747,180.139 206.1997,180.186 C205.8247,180.234 205.4557,180.367 205.0887,180.581 C204.9547,180.658 204.8347,180.743 204.7397,180.828 C204.6317,180.913 204.5687,181.001 204.5307,181.098 C204.4867,181.189 204.4937,181.281 204.5267,181.374 C204.5717,181.466 204.6677,181.558 204.8207,181.646 C204.9607,181.728 205.1337,181.769 205.3297,181.757 C205.5207,181.742 205.7497,181.705 205.9847,181.643 C206.2327,181.58 206.4937,181.503 206.7727,181.414 C207.0457,181.322 207.3317,181.237 207.6307,181.16 C207.8847,181.094 208.1457,181.038 208.4057,180.982 C208.6727,180.932 208.9337,180.905 209.1947,180.901 C209.4557,180.905 209.7167,180.932 209.9717,180.982 C210.2267,181.042 210.4817,181.138 210.7307,181.281 C211.0937,181.491 211.3187,181.717 211.4217,181.96 C211.5187,182.199 211.5267,182.446 211.4387,182.689 C211.3437,182.936 211.1797,183.18 210.9207,183.412 C210.6677,183.648 210.3757,183.869 210.0397,184.064 C209.6777,184.274 209.3097,184.444 208.9227,184.588 C208.5477,184.731 208.1537,184.82 207.7657,184.861 C207.3647,184.901 206.9577,184.879 206.5507,184.798 C206.1357,184.713 205.7087,184.555 205.2747,184.311 L205.2747,184.311 L206.5687,183.56 C206.5867,183.57 206.6047,183.582 206.6237,183.592 C206.9897,183.804 207.3737,183.885 207.7857,183.829 C208.2117,183.773 208.6177,183.626 209.0177,183.394 C209.1637,183.309 209.2967,183.217 209.4237,183.113 C209.5507,183.011 209.6387,182.899 209.7017,182.789 C209.7707,182.675 209.7827,182.564 209.7577,182.446 C209.7177,182.328 209.6097,182.222 209.4367,182.122 C209.2777,182.029 209.0867,181.985 208.8637,181.989 C208.6467,181.997 208.4057,182.033 208.1517,182.093 C207.8967,182.151 207.6237,182.228 207.3317,182.324 C207.0397,182.421 206.7407,182.505 206.4487,182.586 C206.2007,182.656 205.9527,182.712 205.6987,182.756 C205.4447,182.8 205.1897,182.822 204.9417,182.826 C204.6867,182.826 204.4387,182.8 204.2027,182.745 C203.9547,182.689 203.7247,182.594 203.4887,182.457 C203.1567,182.266 202.9327,182.056 202.8427,181.827 C202.7517,181.605 202.7447,181.381 202.8317,181.152 C202.9197,180.924 203.0777,180.699 203.3117,180.481 C203.5397,180.268 203.8127,180.065 204.1357,179.877 C204.4717,179.682 204.8147,179.519 205.1707,179.379 C205.5327,179.243 205.8877,179.154 206.2637,179.114 Z M239.7051,176.7582 C240.6341,176.7512 241.5331,176.9982 242.4081,177.5032 C242.9571,177.8192 243.3851,178.1632 243.6991,178.5272 C244.0131,178.8922 244.1931,179.2682 244.2401,179.6482 C244.2741,180.0272 244.1871,180.4032 243.9471,180.7722 C243.7071,181.1402 243.3211,181.4832 242.7691,181.8042 C241.9071,182.3052 241.0041,182.5562 240.0621,182.5642 C239.1201,182.5642 238.2161,182.3132 237.3341,181.8042 C236.8241,181.5102 236.4141,181.1772 236.1261,180.8132 C235.8251,180.4482 235.6511,180.0762 235.6111,179.6922 C235.5641,179.3122 235.6581,178.9322 235.8841,178.5562 C236.1051,178.1842 236.4921,177.8422 237.0241,177.5322 C237.8871,177.0312 238.7761,176.7732 239.7051,176.7582 Z M239.5711,177.8422 C239.0361,177.7982 238.5221,177.9192 238.0271,178.2072 C237.6781,178.4092 237.4561,178.6412 237.3691,178.8922 C237.2871,179.1462 237.2961,179.4012 237.3921,179.6552 C237.4831,179.9142 237.6501,180.1642 237.8991,180.4042 C238.1421,180.6392 238.4241,180.8532 238.7371,181.0342 C239.1961,181.3002 239.6941,181.4542 240.2221,181.4952 C240.7571,181.5392 241.2721,181.4182 241.7661,181.1302 C242.1211,180.9242 242.3431,180.6992 242.4311,180.4482 C242.5121,180.1932 242.5111,179.9432 242.4141,179.6882 C242.3231,179.4302 242.1501,179.1762 241.9011,178.9362 C241.6511,178.6972 241.3701,178.4832 241.0571,178.3022 C240.5971,178.0372 240.1001,177.8832 239.5711,177.8422 Z M212.2515,175.6335 C212.6265,175.5935 213.0025,175.6125 213.3915,175.6895 C213.7475,175.7625 214.1055,175.9035 214.4685,176.1135 C214.4875,176.1235 214.5075,176.1345 214.5265,176.1465 L214.5265,176.1465 L213.2325,176.8985 C212.9135,176.7215 212.5625,176.6595 212.1875,176.7065 C211.8125,176.7545 211.4435,176.8875 211.0825,177.0975 C210.9425,177.1785 210.8285,177.2595 210.7275,177.3485 C210.6255,177.4295 210.5565,177.5215 210.5185,177.6175 C210.4815,177.7065 210.4815,177.8015 210.5205,177.8905 C210.5595,177.9865 210.6555,178.0785 210.8085,178.1665 C210.9485,178.2485 211.1275,178.2845 211.3245,178.2735 C211.5155,178.2585 211.7375,178.2255 211.9795,178.1595 C212.2265,178.0965 212.4815,178.0225 212.7605,177.9345 C213.0345,177.8415 213.3195,177.7575 213.6185,177.6795 C213.8725,177.6135 214.1395,177.5545 214.3935,177.5025 C214.6615,177.4515 214.9215,177.4255 215.1825,177.4215 C215.4495,177.4215 215.7105,177.4485 215.9595,177.5025 C216.2205,177.5585 216.4695,177.6585 216.7185,177.8015 C217.0825,178.0115 217.3125,178.2335 217.4095,178.4795 C217.5065,178.7195 217.5145,178.9665 217.4265,179.2095 C217.3385,179.4535 217.1745,179.6965 216.9085,179.9325 C216.6555,180.1675 216.3635,180.3895 216.0345,180.5815 C215.6725,180.7905 215.2975,180.9645 214.9165,181.1045 C214.5425,181.2485 214.1485,181.3365 213.7535,181.3805 C213.3595,181.4175 212.9525,181.3955 212.5445,181.3145 C212.1235,181.2335 211.7035,181.0715 211.2685,180.8285 L211.2685,180.8285 L212.5625,180.0765 C212.5875,180.0915 212.6125,180.1065 212.6375,180.1215 C212.9935,180.3265 213.3755,180.4005 213.7735,180.3485 C214.2055,180.2895 214.6125,180.1425 215.0125,179.9105 C215.1585,179.8255 215.2905,179.7335 215.4175,179.6295 C215.5445,179.5275 215.6325,179.4155 215.6955,179.3055 C215.7595,179.1955 215.7775,179.0815 215.7455,178.9665 C215.7055,178.8485 215.6035,178.7385 215.4315,178.6385 C215.2715,178.5455 215.0805,178.5015 214.8515,178.5095 C214.6355,178.5165 214.3995,178.5495 214.1395,178.6125 C213.8855,178.6715 213.6115,178.7485 213.3195,178.8445 C213.0275,178.9405 212.7285,179.0255 212.4365,179.1065 C212.1885,179.1765 211.9405,179.2325 211.6865,179.2765 C211.4325,179.3205 211.1775,179.3425 210.9295,179.3465 C210.6755,179.3465 210.4265,179.3205 210.1905,179.2655 C209.9485,179.2065 209.7125,179.1145 209.4765,178.9775 C209.1445,178.7865 208.9275,178.5725 208.8305,178.3475 C208.7395,178.1255 208.7385,177.8975 208.8265,177.6685 C208.9075,177.4445 209.0655,177.2195 209.3005,177.0015 C209.5345,176.7845 209.8065,176.5815 210.1235,176.3975 C210.4595,176.2025 210.8095,176.0365 211.1645,175.8955 C211.5205,175.7635 211.8825,175.6705 212.2515,175.6335 Z M241.2405,172.5223 L248.0775,178.5273 L246.7135,179.3203 L239.8705,173.3193 L241.2405,172.5223 Z M218.1626,172.0435 C218.6896,171.9515 219.1996,171.9295 219.6706,171.9805 C220.1416,172.0325 220.5876,172.1355 220.9826,172.2905 C221.3906,172.4455 221.7486,172.6155 222.0546,172.7915 C222.2086,172.8805 222.3426,172.9645 222.4576,173.0455 C222.5656,173.1305 222.6676,173.2055 222.7576,173.2785 L222.7576,173.2785 L218.1456,175.9575 L218.2296,176.0285 L218.3256,176.0905 L218.5166,176.2015 C218.9506,176.4525 219.4166,176.5885 219.9066,176.6075 C220.4026,176.6285 220.9046,176.4855 221.4316,176.1795 C221.7996,175.9655 222.0336,175.7335 222.1336,175.4825 C222.2216,175.2325 222.1496,174.9855 221.9126,174.7305 L221.9126,174.7305 L223.2766,173.9385 C223.7886,174.4845 223.9636,175.0035 223.7826,175.4945 C223.6006,175.9845 223.1446,176.4485 222.3956,176.8835 C222.0026,177.1125 221.5776,177.2855 221.1196,177.4035 C220.6626,177.5295 220.1916,177.5875 219.7206,177.5875 C219.2436,177.5915 218.7656,177.5365 218.3016,177.4215 C217.8296,177.3115 217.3826,177.1265 216.9616,176.8835 C216.4756,176.6035 216.0796,176.2865 215.7786,175.9365 C215.4656,175.5855 215.2786,175.2205 215.2066,174.8415 C215.1346,174.4615 215.2086,174.0855 215.4096,173.7095 C215.6176,173.3305 215.9976,172.9835 216.5496,172.6635 C217.1016,172.3415 217.6406,172.1395 218.1626,172.0435 Z M248.5968,171.28 C248.9658,171.244 249.3408,171.262 249.7238,171.336 C250.0738,171.41 250.4238,171.54 250.7648,171.737 L250.7648,171.737 L250.8588,171.793 L249.5648,172.545 C249.2458,172.368 248.8948,172.306 248.5328,172.354 C248.1578,172.401 247.7898,172.534 247.4218,172.748 C247.2818,172.829 247.1678,172.91 247.0598,172.995 C246.9648,173.079 246.8958,173.172 246.8578,173.26 C246.8198,173.355 246.8148,173.448 246.8588,173.54 C246.8978,173.636 247.0008,173.725 247.1538,173.814 C247.2948,173.895 247.4598,173.931 247.6568,173.92 C247.8548,173.909 248.0698,173.872 248.3178,173.81 C248.5658,173.747 248.8268,173.669 249.0998,173.577 C249.3798,173.488 249.6648,173.404 249.9578,173.322 C250.2178,173.26 250.4718,173.201 250.7388,173.149 C250.9998,173.102 251.2668,173.072 251.5218,173.072 C251.7828,173.068 252.0438,173.094 252.2978,173.153 C252.5598,173.209 252.8078,173.308 253.0568,173.452 C253.4218,173.662 253.6518,173.883 253.7548,174.126 C253.8448,174.369 253.8528,174.609 253.7648,174.86 C253.6778,175.104 253.5068,175.343 253.2538,175.579 C252.9948,175.818 252.7028,176.032 252.3668,176.228 C252.0048,176.438 251.6368,176.614 251.2558,176.755 C250.8748,176.895 250.4868,176.987 250.0928,177.023 C249.6988,177.068 249.2908,177.046 248.8768,176.961 C248.4628,176.884 248.0418,176.722 247.6078,176.479 L247.6078,176.479 L248.9018,175.727 C248.9258,175.742 248.9508,175.757 248.9758,175.772 C249.3318,175.977 249.7138,176.051 250.1058,175.995 C250.5388,175.937 250.9518,175.793 251.3508,175.561 C251.4968,175.476 251.6298,175.384 251.7568,175.28 C251.8768,175.173 251.9718,175.066 252.0348,174.956 C252.0978,174.845 252.1158,174.73 252.0778,174.613 C252.0448,174.499 251.9428,174.388 251.7638,174.285 C251.6038,174.192 251.4128,174.148 251.1968,174.156 C250.9738,174.167 250.7388,174.2 250.4838,174.259 C250.2238,174.321 249.9508,174.399 249.6588,174.495 C249.3598,174.587 249.0738,174.672 248.7818,174.753 C248.5278,174.819 248.2798,174.882 248.0258,174.926 C247.7768,174.967 247.5228,174.989 247.2688,174.996 C247.0138,174.996 246.7718,174.967 246.5298,174.915 C246.2878,174.856 246.0518,174.764 245.8158,174.628 C245.4768,174.433 245.2658,174.223 245.1698,173.997 C245.0728,173.772 245.0778,173.548 245.1658,173.319 C245.2538,173.091 245.4048,172.869 245.6388,172.652 C245.8668,172.431 246.1458,172.231 246.4688,172.044 C246.7988,171.852 247.1418,171.683 247.5038,171.546 C247.8528,171.41 248.2218,171.321 248.5968,171.28 Z M218.9116,172.9605 C218.4476,172.9575 218.0026,173.0765 217.5966,173.3115 C217.0826,173.6105 216.8296,173.9345 216.8386,174.2915 C216.8466,174.6425 217.0206,174.9995 217.3726,175.3575 L217.3726,175.3575 L220.5446,173.5145 L220.4546,173.4485 L220.3656,173.3965 L220.1676,173.2825 C219.7976,173.0685 219.3836,172.9615 218.9116,172.9605 Z M221.1882,168.0002 L222.6722,169.2982 L223.9022,168.5822 L224.7152,169.3012 L223.4842,170.0162 L225.8952,172.1502 C225.9972,172.2462 226.1002,172.3352 226.1962,172.4202 C226.2922,172.5052 226.3812,172.5632 226.4582,172.6072 C226.5922,172.6852 226.7262,172.7332 226.8782,172.7482 C227.0192,172.7622 227.1902,172.7072 227.3992,172.5862 C227.5012,172.5262 227.6152,172.4602 227.7422,172.3862 C227.8562,172.3122 227.9702,172.2242 228.0722,172.1292 L228.0722,172.1292 L228.8582,172.8472 C228.7252,172.9692 228.5672,173.0972 228.3962,173.2262 C228.2182,173.3592 228.0412,173.4702 227.8632,173.5732 C227.6152,173.7172 227.3812,173.8162 227.1522,173.8762 C226.9302,173.9302 226.7202,173.9572 226.5232,173.9462 C226.3192,173.9382 226.1282,173.9012 225.9552,173.8392 C225.7772,173.7802 225.6172,173.7102 225.4702,173.6252 C225.3492,173.5542 225.2282,173.4702 225.1072,173.3782 C224.9792,173.2822 224.8962,173.2122 224.8572,173.1762 L224.8572,173.1762 L222.1522,170.7902 L221.0732,171.4172 L220.2612,170.6982 L221.3402,170.0712 L219.8562,168.7742 L221.1882,168.0002 Z" id="形状结合" fill="#FFFFFF"></path>
                <path d="M234.4145,254.7073 C234.6255,254.8853 234.7665,255.1413 234.8435,255.4573 C234.9215,255.7723 234.9615,256.0813 234.962519,256.3883 C234.9635,256.6893 234.9245,257.0423 234.8495,257.4453 C234.7745,257.8413 234.6345,258.2533 234.4245,258.6823 C234.2145,259.1053 233.9215,259.5313 233.5335,259.9553 C233.1505,260.3743 232.6535,260.7563 232.0405,261.1103 L229.7485,262.4343 L229.7585,266.2343 L228.2525,267.1043 L228.2235,257.2073 L232.0225,255.0133 C232.6355,254.6603 233.1335,254.4753 233.5175,254.4603 C233.9075,254.4403 234.2025,254.5193 234.4145,254.7073 Z M239.7369,253.1473 L239.7399,254.6663 L239.4479,254.7923 L239.4479,254.7923 C239.3449,254.8363 239.2419,254.8873 239.1469,254.9423 C238.9169,255.0753 238.6939,255.2563 238.4899,255.4833 C238.2849,255.7043 238.1079,255.9683 237.9549,256.2623 C237.8019,256.5563 237.6879,256.8803 237.5999,257.2403 C237.5109,257.5913 237.4669,257.9693 237.4679,258.3663 L237.4779,261.7773 L236.1059,262.5703 L236.0849,255.4023 L237.3749,254.6583 L237.3789,256.0453 L237.3979,256.0333 C237.4419,255.8173 237.5179,255.5823 237.6319,255.3323 C237.7529,255.0793 237.8929,254.8293 238.0519,254.5833 C238.2179,254.3333 238.4029,254.1083 238.6009,253.8983 C238.8049,253.6853 239.0089,253.5233 239.2189,253.4023 C239.3789,253.3093 239.4879,253.2553 239.5509,253.2243 C239.6089,253.1993 239.6729,253.1703 239.7369,253.1473 Z M232.5315,256.2053 C232.3585,256.2603 232.1675,256.3493 231.9635,256.4663 L229.7345,257.7543 L229.7445,261.0253 L231.9535,259.7503 C232.1195,259.6543 232.2915,259.5253 232.4695,259.3633 C232.6485,259.2093 232.8075,259.0283 232.9545,258.8193 C233.1075,258.6053 233.2275,258.3673 233.3175,258.1103 C233.4125,257.8413 233.4565,257.5593 233.455517,257.2443 C233.4545,256.9213 233.4095,256.6753 233.3315,256.5063 C233.2485,256.3413 233.1385,256.2363 233.0055,256.1883 C232.8645,256.1453 232.7105,256.1523 232.5315,256.2053 Z M245.2945,250.9679 C245.5635,251.1429 245.7685,251.4209 245.9105,251.8019 C246.0515,252.1839 246.1235,252.6479 246.125542,253.1909 C246.1275,253.7419 246.0575,254.2959 245.9195,254.8389 C245.7795,255.3829 245.5765,255.8969 245.3095,256.3819 C245.0425,256.8669 244.7115,257.3219 244.3225,257.7379 C243.9325,258.1529 243.4865,258.5069 242.9885,258.7949 C242.4905,259.0819 242.0495,259.2409 241.6595,259.2749 C241.2625,259.3129 240.9365,259.2369 240.6685,259.0619 C240.3925,258.8899 240.1865,258.6109 240.0455,258.2309 C239.9035,257.8499 239.8315,257.3759 239.830458,256.8259 C239.8285,256.2829 239.8975,255.7359 240.0365,255.1929 C240.1755,254.6499 240.3795,254.1359 240.6525,253.6479 C240.9195,253.1549 241.2445,252.7099 241.6395,252.2909 C242.0285,251.8749 242.4685,251.5249 242.9665,251.2379 C243.4655,250.9509 243.9125,250.7879 244.3015,250.7539 C244.6925,250.7199 245.0245,250.7849 245.2945,250.9679 Z M243.7685,252.2439 C243.5455,252.2269 243.2765,252.3089 242.9705,252.4849 C242.6645,252.6619 242.4025,252.8869 242.1795,253.1619 C241.9505,253.4409 241.7645,253.7469 241.6255,254.0629 C241.4795,254.3819 241.3715,254.7169 241.3085,255.0539 C241.2395,255.4029 241.2085,255.7219 241.209477,256.0299 C241.2105,256.3459 241.2425,256.6359 241.3135,256.8889 C241.3785,257.1519 241.4875,257.3609 241.6345,257.5179 C241.7765,257.6799 241.9625,257.7629 242.1925,257.7769 C242.4165,257.7949 242.6775,257.7169 242.9845,257.5399 C243.2915,257.3629 243.5585,257.1349 243.7825,256.8589 C244.0055,256.5829 244.1895,256.2859 244.3365,255.9589 C244.4755,255.6359 244.5835,255.3019 244.6525,254.9609 C244.7215,254.6259 244.7535,254.2999 244.752523,253.9839 C244.7515,253.6759 244.7185,253.3939 244.6475,253.1259 C244.5765,252.8659 244.4665,252.6569 244.3265,252.5029 C244.1785,252.3539 243.9935,252.2619 243.7685,252.2439 Z M249.0401,245.7773 L249.0461,247.9203 L250.2911,247.2013 L250.2941,248.3813 L249.0491,249.1003 L249.0601,252.9233 C249.0611,253.0913 249.0671,253.2343 249.0801,253.3443 C249.0941,253.4553 249.1191,253.5433 249.1641,253.5973 C249.2091,253.6603 249.2731,253.6813 249.3621,253.6733 C249.4521,253.6673 249.5731,253.6113 249.7271,253.5223 C249.8221,253.4673 249.9181,253.4123 250.0141,253.3573 C250.1091,253.2943 250.2121,253.2203 250.3081,253.1353 L250.3111,254.3533 C250.1581,254.4653 250.0051,254.5673 249.8641,254.6713 C249.7181,254.7703 249.5701,254.8623 249.4171,254.9503 C249.0541,255.1613 248.7661,255.2903 248.5421,255.3383 C248.3181,255.3933 248.1451,255.3763 248.0241,255.2923 C247.8961,255.2123 247.8121,255.0683 247.7681,254.8673 C247.7221,254.6583 247.6951,254.4163 247.6881,254.1193 L247.6771,249.8933 L246.6361,250.4943 L246.6321,249.3133 L247.6731,248.7123 L247.6671,246.5703 L249.0401,245.7773 Z M256.4614,244.5206 C256.7294,244.6956 256.9344,244.9736 257.0774,245.3546 C257.2184,245.7366 257.2904,246.2006 257.292411,246.7436 C257.2934,247.2946 257.2244,247.8486 257.0864,248.3916 C256.9464,248.9356 256.7434,249.4496 256.4754,249.9346 C256.2094,250.4196 255.8774,250.8746 255.4884,251.2906 C255.0994,251.7056 254.6534,252.0596 254.1554,252.3476 C253.6574,252.6346 253.2154,252.7936 252.8264,252.8276 C252.4294,252.8656 252.1034,252.7896 251.8344,252.6146 C251.5584,252.4426 251.3534,252.1636 251.2124,251.7836 C251.0704,251.4026 250.9984,250.9296 250.997357,250.3786 C250.9954,249.8356 251.0634,249.2886 251.2034,248.7456 C251.3414,248.2026 251.5464,247.6886 251.8194,247.2006 C252.0864,246.7076 252.4114,246.2626 252.8064,245.8436 C253.1954,245.4276 253.6354,245.0776 254.1334,244.7906 C254.6324,244.5036 255.0794,244.3406 255.4684,244.3066 C255.8584,244.2726 256.1914,244.3376 256.4614,244.5206 Z M228.513,241.3102 L228.537,249.7112 L232.91,247.1852 L232.915,248.6832 L227.029,252.0812 L227,242.1832 L228.513,241.3102 Z M254.9354,245.7966 C254.7124,245.7806 254.4434,245.8616 254.1364,246.0376 C253.8304,246.2146 253.5694,246.4396 253.3454,246.7146 C253.1164,246.9936 252.9314,247.2996 252.7924,247.6156 C252.6464,247.9346 252.5384,248.2696 252.4754,248.6066 C252.4054,248.9556 252.3754,249.2746 252.376376,249.5826 C252.3774,249.8986 252.4094,250.1886 252.4804,250.4416 C252.5454,250.7046 252.6544,250.9136 252.8014,251.0716 C252.9434,251.2326 253.1294,251.3156 253.3594,251.3296 C253.5834,251.3476 253.8444,251.2696 254.1514,251.0926 C254.4584,250.9156 254.7254,250.6876 254.9494,250.4116 C255.1724,250.1366 255.3564,249.8386 255.5034,249.5116 C255.6424,249.1886 255.7504,248.8546 255.8194,248.5136 C255.8894,248.1786 255.9204,247.8526 255.919423,247.5366 C255.9184,247.2286 255.8854,246.9466 255.8144,246.6786 C255.7434,246.4186 255.6334,246.2096 255.4934,246.0566 C255.3454,245.9066 255.1594,245.8156 254.9354,245.7966 Z M263.1053,240.2499 C263.3553,240.3189 263.5673,240.4619 263.7273,240.6989 C263.8883,240.9309 263.9853,241.2569 264.0183,241.6789 L262.6453,242.4709 C262.5873,242.0639 262.4323,241.8139 262.1773,241.7339 C261.9273,241.6509 261.6003,241.7299 261.2183,241.9499 C261.0393,242.0539 260.8533,242.1969 260.6493,242.3809 C260.4523,242.5679 260.2673,242.7999 260.0963,243.0909 C259.9303,243.3769 259.7903,243.7229 259.6773,244.1259 C259.5683,244.5259 259.5133,244.9999 259.5143,245.5429 C259.5143,245.8359 259.5413,246.1219 259.6063,246.3789 C259.6643,246.6389 259.7673,246.8439 259.8953,247.0049 C260.0303,247.1549 260.2033,247.2459 260.4143,247.2639 C260.6193,247.2929 260.8753,247.2109 261.1753,247.0379 C261.5773,246.8059 261.9083,246.4749 262.1633,246.0409 C262.4243,245.6049 262.5893,245.1049 262.6513,244.5549 L264.0243,243.7619 C263.8993,244.7679 263.5953,245.6559 263.1103,246.4279 C262.6203,247.2099 261.9763,247.8319 261.1793,248.2929 C260.6863,248.5759 260.2523,248.7309 259.8753,248.7589 C259.5043,248.7809 259.1903,248.7049 258.9283,248.5259 C258.6723,248.3439 258.4723,248.0689 258.3443,247.6889 C258.2083,247.3179 258.1373,246.8669 258.135289,246.3389 C258.1343,245.8029 258.2023,245.2569 258.3293,244.7129 C258.4553,244.1699 258.6453,243.6479 258.8993,243.1559 C259.1603,242.6599 259.4793,242.2039 259.8553,241.7889 C260.2373,241.3699 260.6843,241.0089 261.2013,240.7099 C261.5653,240.4999 261.9103,240.3529 262.2363,240.2739 C262.5623,240.1889 262.8493,240.1849 263.1053,240.2499 Z M235.148,240.2128 L235.168,247.3808 L233.796,248.1738 L233.775,241.0058 L235.148,240.2128 Z M242.5223,235.9557 L242.5503,245.7647 L241.1713,246.5607 L241.1613,242.9877 L241.1363,243.0027 C241.0273,243.2637 240.8933,243.5097 240.7403,243.7377 C240.5883,243.9727 240.4223,244.1857 240.2373,244.3807 C240.0533,244.5827 239.8613,244.7597 239.6573,244.9217 C239.4593,245.0717 239.2553,245.2127 239.0563,245.3267 C238.5973,245.5917 238.1943,245.7217 237.8623,245.7077 C237.5233,245.6907 237.2413,245.5807 237.0163,245.3587 C236.7993,245.1387 236.6323,244.8387 236.5223,244.4467 C236.4123,244.0537 236.3533,243.6247 236.351288,243.1407 C236.3503,242.6127 236.4133,242.0837 236.5333,241.5517 C236.6533,241.0197 236.8313,240.5127 237.0723,240.0287 C237.3143,239.5427 237.6133,239.0907 237.9763,238.6827 C238.3463,238.2717 238.7733,237.9287 239.2653,237.6447 C239.6613,237.4157 240.0383,237.2867 240.3843,237.2717 C240.7283,237.2477 241.0043,237.3907 241.1973,237.6907 L241.2223,237.6757 L241.2193,236.7077 L242.5223,235.9557 Z M270.3159,236.5216 C270.5839,236.6966 270.7959,236.9706 270.9379,237.3526 C271.0799,237.7336 271.1519,238.1996 271.1539,238.7416 C271.1539,239.2916 271.0859,239.8456 270.9459,240.3896 C270.8079,240.9326 270.5979,241.4506 270.3309,241.9356 C270.0639,242.4206 269.7329,242.8756 269.3429,243.2916 C268.9539,243.7066 268.5149,244.0576 268.0159,244.3446 C267.5119,244.6356 267.0709,244.7946 266.6809,244.8286 C266.2909,244.8636 265.9579,244.7906 265.6889,244.6156 C265.4199,244.4396 265.2149,244.1616 265.0729,243.7806 C264.9309,243.3996 264.8599,242.9266 264.857889,242.3756 C264.8569,241.8326 264.9249,241.2866 265.0649,240.7436 C265.2029,240.2006 265.4059,239.6866 265.6739,239.2016 C265.9419,238.7086 266.2729,238.2606 266.6609,237.8446 C267.0499,237.4286 267.4899,237.0786 267.9939,236.7876 C268.4929,236.5006 268.9339,236.3416 269.3229,236.3076 C269.7139,236.2736 270.0459,236.3386 270.3159,236.5216 Z M239.4473,238.7887 C239.1673,238.9507 238.9183,239.1607 238.7013,239.4327 C238.4843,239.7047 238.3003,239.9947 238.1603,240.3117 C238.0143,240.6377 237.9063,240.9647 237.8373,241.3137 C237.7613,241.6577 237.7303,241.9917 237.731277,242.3157 C237.731277,242.6307 237.7593,242.9237 237.8233,243.1877 C237.8813,243.4557 237.9843,243.6597 238.1263,243.8207 C238.2663,243.9757 238.4463,244.0627 238.6633,244.0837 C238.8813,244.1057 239.1493,244.0247 239.4623,243.8437 C240.0553,243.5007 240.4963,243.0117 240.7823,242.3837 C241.0613,241.7517 241.2073,241.0577 241.2043,240.3097 C241.2023,239.5247 241.0533,238.9927 240.7593,238.7077 C240.4643,238.4297 240.0283,238.4527 239.4473,238.7887 Z M268.7899,237.7976 C268.5669,237.7816 268.2989,237.8626 267.9979,238.0356 C267.6919,238.2116 267.4239,238.4406 267.1999,238.7156 C266.9779,238.9926 266.7929,239.2966 266.6479,239.6166 C266.5009,239.9366 266.3999,240.2666 266.3299,240.6076 C266.2609,240.9566 266.2299,241.2756 266.230877,241.5836 C266.2319,241.8996 266.2639,242.1896 266.3349,242.4426 C266.4059,242.7026 266.5089,242.9146 266.6569,243.0726 C266.8049,243.2296 266.9899,243.3136 267.2139,243.3306 C267.4379,243.3486 267.7059,243.2666 268.0129,243.0896 C268.3129,242.9166 268.5809,242.6886 268.8039,242.4126 C269.0329,242.1336 269.2109,241.8396 269.3579,241.5126 C269.5039,241.1856 269.6059,240.8556 269.6749,240.5146 C269.7439,240.1806 269.7749,239.8536 269.773923,239.5376 C269.773923,239.2296 269.7399,238.9476 269.6689,238.6796 C269.5979,238.4196 269.4949,238.2066 269.3479,238.0566 C269.1999,237.9076 269.0209,237.8126 268.7899,237.7976 Z M273.6896,230.958 L273.7166,240.854 L272.3446,241.647 L272.3166,231.751 L273.6896,230.958 Z M249.4884,231.9335 L249.5094,239.1015 L248.1614,239.8795 L248.1584,238.8815 L248.1334,238.8965 C247.9624,239.3555 247.7134,239.7855 247.3824,240.1975 C247.0504,240.6015 246.7064,240.9115 246.3614,241.1095 C245.5444,241.5815 244.9494,241.6895 244.5844,241.4375 C244.2134,241.1815 244.0324,240.5805 244.0294,239.6415 L244.0164,235.0925 L245.3884,234.3005 L245.4014,238.6955 C245.4034,239.3265 245.5074,239.7065 245.7174,239.8425 C245.9294,239.9855 246.2234,239.9405 246.6004,239.7225 C246.8874,239.5565 247.1304,239.3655 247.3214,239.1525 C247.5184,238.9425 247.6724,238.7145 247.7934,238.4755 C247.9134,238.2295 247.9964,237.9765 248.0524,237.7075 C248.1034,237.4365 248.1284,237.1645 248.1274,236.8865 L248.1154,232.7265 L249.4884,231.9335 Z M235.1407,237.4843 L235.1447,238.9803 L233.7717,239.7733 L233.7677,238.2763 L235.1407,237.4843 Z M279.3099,230.755 C279.5469,230.795 279.7449,230.908 279.9049,231.102 C280.0599,231.292 280.1629,231.571 280.2019,231.945 L278.7659,232.774 C278.6999,232.436 278.5529,232.265 278.3109,232.28 C278.0729,232.285 277.8049,232.373 277.4989,232.551 C277.4039,232.605 277.2879,232.68 277.1539,232.779 C277.0199,232.871 276.8989,232.977 276.7839,233.096 C276.6629,233.217 276.5679,233.346 276.4849,233.488 C276.4079,233.628 276.3639,233.786 276.3639,233.94 C276.3649,234.139 276.4289,234.256 276.5439,234.307 C276.6599,234.365 276.8139,234.372 277.0049,234.342 C277.1909,234.315 277.4069,234.257 277.6509,234.168 C277.8869,234.09 278.1359,234.005 278.3979,233.92 C278.6479,233.842 278.8899,233.783 279.1329,233.73 C279.3759,233.686 279.5869,233.689 279.7789,233.732 C279.9709,233.776 280.1239,233.886 280.2399,234.061 C280.3559,234.237 280.4139,234.497 280.414909,234.85 C280.4159,235.275 280.3339,235.683 280.1689,236.071 C279.9969,236.472 279.7809,236.84 279.5139,237.178 C279.2389,237.519 278.9399,237.825 278.6139,238.094 C278.2819,238.373 277.9569,238.605 277.6379,238.79 C277.2419,239.019 276.8779,239.177 276.5459,239.266 C276.2139,239.354 275.9189,239.37 275.6759,239.298 C275.4329,239.232 275.2349,239.09 275.0929,238.863 C274.9509,238.636 274.8799,238.303 274.8659,237.884 L276.2449,237.088 C276.2849,237.535 276.4399,237.769 276.7009,237.802 C276.9699,237.83 277.2899,237.734 277.6599,237.52 C277.7869,237.446 277.9349,237.354 278.1009,237.236 C278.2599,237.123 278.4189,236.986 278.5599,236.839 C278.7059,236.688 278.8269,236.523 278.9159,236.347 C279.0119,236.167 279.0499,235.983 279.0429,235.781 C279.0359,235.58 278.9719,235.455 278.8499,235.394 C278.7289,235.331 278.5739,235.317 278.3829,235.354 C278.1919,235.384 277.9809,235.439 277.7369,235.521 C277.4939,235.609 277.2519,235.684 277.0029,235.769 C276.7399,235.853 276.4979,235.913 276.2619,235.954 C276.0189,236.007 275.8079,236.003 275.6149,235.952 C275.4299,235.905 275.2769,235.796 275.1669,235.609 C275.0509,235.434 274.9929,235.166 274.9919,234.806 C274.9899,234.417 275.0729,234.039 275.2379,233.68 C275.4029,233.326 275.6079,232.996 275.8619,232.687 C276.1169,232.378 276.3979,232.099 276.7039,231.855 C277.0169,231.609 277.3099,231.41 277.5909,231.248 C277.9099,231.063 278.2229,230.92 278.5169,230.831 C278.8109,230.742 279.0729,230.716 279.3099,230.755 Z M252.3492,230.2821 L252.3682,237.4501 L250.9962,238.2431 L250.9752,231.0751 L252.3492,230.2821 Z M259.7079,223.2995 L259.7359,233.1965 L258.4339,233.9485 L258.4319,232.9725 L258.4049,232.9875 C258.2219,233.5125 257.9539,233.9675 257.6039,234.3465 C257.2469,234.7365 256.8769,235.0395 256.4809,235.2675 C255.9889,235.5505 255.5619,235.7025 255.1959,235.7065 C254.8319,235.7185 254.5259,235.6315 254.2809,235.4265 C254.0439,235.2185 253.8579,234.9215 253.7359,234.5305 C253.6119,234.1305 253.5539,233.6645 253.551861,233.1295 C253.5499,232.4835 253.6249,231.8815 253.7779,231.3165 C253.9289,230.7585 254.1329,230.2515 254.3809,229.8075 C254.6349,229.3515 254.9219,228.9655 255.2469,228.6305 C255.5719,228.3035 255.9039,228.0385 256.2419,227.8425 C256.4339,227.7325 256.6319,227.6405 256.8359,227.5585 C257.0339,227.4895 257.2259,227.4445 257.4109,227.4325 C257.5969,227.4135 257.7699,227.4315 257.9299,227.4865 C258.0829,227.5375 258.2179,227.6285 258.3199,227.7675 L258.3459,227.7525 L258.3359,224.0915 L259.7079,223.2995 Z M256.6669,228.8465 C256.3479,229.0315 256.0729,229.2635 255.8579,229.5425 C255.6339,229.8265 255.4559,230.1265 255.3169,230.4505 C255.1759,230.7815 255.0749,231.1115 255.0119,231.4555 C254.9549,231.8045 254.9249,232.1385 254.925876,232.4615 C254.925876,232.7625 254.9649,233.0405 255.0289,233.3045 C255.1009,233.5575 255.2039,233.7625 255.3449,233.9095 C255.4859,234.0635 255.6719,234.1395 255.8889,234.1545 C256.1069,234.1675 256.3619,234.0855 256.6559,233.9165 C256.9619,233.7395 257.2309,233.5115 257.4469,233.2395 C257.6699,232.9635 257.8489,232.6625 257.9879,232.3465 C258.1279,232.0235 258.2359,231.6895 258.2989,231.3515 C258.3679,231.0105 258.3999,230.6835 258.398923,230.3685 C258.3969,229.5765 258.2409,229.0475 257.9339,228.7775 C257.6189,228.5175 257.1969,228.5405 256.6669,228.8465 Z M262.6217,224.3515 L262.6417,231.5195 L261.2687,232.3115 L261.2477,225.1435 L262.6217,224.3515 Z M273.6222,218 L271.2172,226.958 C271.1092,227.343 270.9952,227.718 270.8882,228.073 C270.7802,228.43 270.6532,228.768 270.4942,229.087 C270.3352,229.407 270.1442,229.693 269.9082,229.969 C269.6792,230.234 269.3792,230.474 269.0212,230.68 C268.6962,230.868 268.3832,231.019 268.0632,231.152 L268.0602,229.816 C268.1752,229.772 268.2832,229.731 268.3862,229.694 C268.4942,229.654 268.6022,229.606 268.7112,229.543 C268.8772,229.447 269.0052,229.345 269.1132,229.238 C269.2162,229.135 269.3052,229.018 269.3682,228.893 C269.4382,228.764 269.4952,228.62 269.5462,228.474 C269.5912,228.33 269.6352,228.165 269.6792,227.985 L269.8312,227.339 L267.4482,221.564 L268.9552,220.695 L270.5982,225.104 L270.6242,225.089 L272.1852,218.83 L273.6222,218 Z M265.8966,220.3076 L265.9036,222.4566 L267.1486,221.7386 L267.1516,222.9186 L265.9066,223.6376 L265.9176,227.4596 C265.9176,227.6286 265.9246,227.7646 265.9376,227.8816 C265.9506,227.9926 265.9766,228.0796 266.0216,228.1346 C266.0666,228.1896 266.1296,228.2186 266.2196,228.2116 C266.3096,228.1966 266.4306,228.1486 266.5836,228.0606 C266.6796,228.0046 266.7756,227.9496 266.8716,227.8866 C266.9666,227.8316 267.0696,227.7506 267.1656,227.6726 L267.1676,228.8916 C267.0146,228.9946 266.8626,229.1046 266.7216,229.2006 C266.5746,229.3076 266.4276,229.3996 266.2746,229.4886 C265.9116,229.6986 265.6236,229.8276 265.3996,229.8756 C265.1756,229.9236 265.0026,229.9126 264.8816,229.8286 C264.7526,229.7486 264.6696,229.6066 264.6246,229.3976 C264.5796,229.1956 264.5526,228.9466 264.5456,228.6566 L264.5336,224.4306 L263.4936,225.0316 L263.4896,223.8506 L264.5306,223.2486 L264.5246,221.0996 L265.8966,220.3076 Z M252.3409,227.5537 L252.3449,229.0497 L250.9719,229.8427 L250.9679,228.3457 L252.3409,227.5537 Z M262.6133,221.622 L262.6173,223.119 L261.2453,223.911 L261.2413,222.415 L262.6133,221.622 Z" id="形状结合" fill="#FFFFFF"></path>
                <path d="M212.0112,255.4864 C212.2592,255.4564 212.5452,255.4944 212.8682,255.5864 C213.1852,255.6814 213.5172,255.8194 213.8672,256.0084 C214.2292,256.2044 214.5672,256.4214 214.8932,256.6654 C215.2202,256.9034 215.5022,257.1724 215.7532,257.4714 C216.0042,257.7714 216.2042,258.0984 216.3532,258.4544 C216.5092,258.8124 216.5952,259.2084 216.6102,259.6274 L216.6102,259.6274 L215.2142,258.8744 C215.1832,258.5214 215.0432,258.1994 214.7862,257.9024 C214.5292,257.6134 214.2012,257.3534 213.8042,257.1394 C213.6612,257.0614 213.5172,256.9994 213.3902,256.9574 C213.2542,256.9114 213.1412,256.8914 213.0362,256.9034 C212.9312,256.9084 212.8552,256.9564 212.7942,257.0334 C212.7402,257.1064 212.7152,257.2304 212.7262,257.4014 C212.7382,257.5644 212.8012,257.7214 212.9242,257.8844 C213.0472,258.0474 213.2102,258.2174 213.4002,258.3954 C213.5982,258.5774 213.8142,258.7624 214.0522,258.9524 C214.2882,259.1414 214.5272,259.3454 214.7652,259.5634 C214.9692,259.7494 215.1672,259.9454 215.3662,260.1484 C215.5642,260.3514 215.7362,260.5604 215.8902,260.7804 C216.0362,260.9974 216.1642,261.2304 216.2662,261.4774 C216.3622,261.7144 216.4262,261.9814 216.4452,262.2594 C216.4722,262.6574 216.4062,262.9584 216.2542,263.1494 C216.1022,263.3424 215.8922,263.4624 215.6312,263.4994 C215.3632,263.5394 215.0572,263.5054 214.7072,263.3974 C214.3502,263.2874 213.9972,263.1374 213.6342,262.9424 C213.2442,262.7314 212.8852,262.4964 212.5382,262.2414 C212.1972,261.9814 211.8942,261.6944 211.6362,261.3774 C211.3692,261.0544 211.1552,260.7064 210.9902,260.3154 C210.8262,259.9314 210.7172,259.4964 210.6782,259.0164 L210.6782,259.0164 L212.0752,259.7704 C212.0912,260.2044 212.2422,260.5804 212.5412,260.9204 C212.8342,261.2564 213.1972,261.5414 213.6282,261.7734 C213.7862,261.8584 213.9422,261.9294 214.1042,261.9824 C214.2662,262.0434 214.4132,262.0744 214.5462,262.0774 C214.6842,262.0764 214.7872,262.0364 214.8672,261.9564 C214.9542,261.8804 214.9852,261.7384 214.9712,261.5394 C214.9592,261.3614 214.8882,261.1784 214.7572,260.9984 C214.6252,260.8104 214.4542,260.6234 214.2572,260.4334 C214.0592,260.2454 213.8352,260.0494 213.5842,259.8444 C213.3322,259.6404 213.0882,259.4324 212.8482,259.2154 C212.6452,259.0364 212.4552,258.8514 212.2702,258.6554 C212.0852,258.4604 211.9202,258.2604 211.7742,258.0454 C211.6282,257.8364 211.5072,257.6134 211.4122,257.3774 C211.3252,257.1514 211.2752,256.9054 211.2582,256.6494 C211.2322,256.2724 211.2862,255.9934 211.4322,255.8114 C211.5722,255.6264 211.7622,255.5164 212.0112,255.4864 Z M208.9712,251.0011 L210.4432,251.7961 L209.1722,260.3491 L207.7002,259.5541 L208.9712,251.0011 Z M201.938131,250.007344 L202.1287,250.009 C202.5867,250.036 203.0977,250.196 203.6737,250.507 C204.6047,251.009 205.3467,251.656 205.8877,252.435 C206.4287,253.213 206.7317,254.09 206.7977,255.071 C206.8387,255.676 206.7947,256.2 206.6587,256.642 C206.5167,257.071 206.3007,257.394 205.9917,257.604 C205.6897,257.818 205.3057,257.905 204.8497,257.878 C204.3987,257.848 203.8727,257.673 203.2767,257.352 C202.3457,256.849 201.6087,256.198 201.0667,255.399 C200.5187,254.602 200.2147,253.711 200.1487,252.737 C200.1107,252.161 200.1627,251.669 200.3127,251.249 C200.4567,250.833 200.6857,250.518 200.9877,250.305 C201.2967,250.087 201.6727,249.988 202.1287,250.009 Z M202.817811,251.421455 L202.6997,251.434 C202.4327,251.482 202.2097,251.601 202.0457,251.8 C201.8737,251.995 201.7597,252.256 201.6877,252.567 C201.6237,252.889 201.6067,253.222 201.6307,253.578 C201.6647,254.083 201.8167,254.576 202.0787,255.047 C202.3487,255.521 202.7507,255.902 203.2837,256.191 C203.6677,256.398 203.9897,256.476 204.2577,256.435 C204.5247,256.395 204.7417,256.278 204.9127,256.075 C205.0837,255.88 205.1987,255.62 205.2627,255.298 C205.3257,254.97 205.3497,254.64 205.3267,254.291 C205.2927,253.778 205.1397,253.286 204.8707,252.812 C204.6017,252.337 204.1997,251.955 203.6657,251.667 C203.2887,251.464 202.9677,251.387 202.6997,251.434 Z M194.709752,246.106688 L194.9003,246.108 C195.3573,246.135 195.8763,246.298 196.4723,246.619 C196.8423,246.819 197.1953,247.065 197.5303,247.349 C197.8663,247.633 198.1643,247.944 198.4173,248.279 C198.6713,248.615 198.8803,248.983 199.0383,249.369 C199.1963,249.756 199.2893,250.149 199.3023,250.546 L199.3023,250.546 L197.8303,249.752 C197.8223,249.329 197.6843,248.946 197.4303,248.61 C197.1773,248.268 196.8413,247.984 196.4233,247.759 C196.0533,247.559 195.7393,247.485 195.4783,247.536 C195.2113,247.584 195.0023,247.711 194.8443,247.921 C194.6803,248.127 194.5653,248.38 194.5013,248.694 C194.4363,249.01 194.4113,249.332 194.4343,249.666 C194.4513,249.922 194.4953,250.179 194.5653,250.429 C194.6273,250.676 194.7293,250.908 194.8493,251.131 C194.9773,251.358 195.1433,251.57 195.3413,251.767 C195.5313,251.958 195.7683,252.134 196.0493,252.285 C196.4873,252.522 196.8343,252.593 197.0993,252.503 C197.3633,252.412 197.5393,252.186 197.6333,251.818 L197.6333,251.818 L199.1053,252.612 C198.9263,253.379 198.5663,253.816 198.0263,253.921 C197.4853,254.027 196.7663,253.838 195.8843,253.361 C195.4393,253.121 195.0513,252.843 194.7053,252.52 C194.3603,252.196 194.0593,251.835 193.8153,251.45 C193.5723,251.066 193.3723,250.65 193.2243,250.22 C193.0843,249.794 192.9953,249.362 192.9663,248.922 C192.9273,248.346 192.9783,247.832 193.1143,247.398 C193.2493,246.964 193.4653,246.635 193.7663,246.414 C194.0683,246.192 194.4443,246.087 194.9003,246.108 Z M187.083494,241.989531 L187.2748,241.9914 C187.7248,242.0144 188.2438,242.1784 188.8188,242.4884 C189.7498,242.9914 190.4858,243.6344 191.0258,244.4134 C191.5738,245.1954 191.8768,246.0724 191.9428,247.0524 C191.9838,247.6584 191.9328,248.1784 191.7978,248.6204 C191.6618,249.0534 191.4398,249.3724 191.1368,249.5864 C190.8278,249.7964 190.4508,249.8874 189.9938,249.8604 C189.5368,249.8264 189.0178,249.6554 188.4218,249.3344 C187.4908,248.8314 186.7548,248.1804 186.2058,247.3774 C185.6638,246.5844 185.3598,245.6934 185.2948,244.7194 C185.2558,244.1424 185.3078,243.6504 185.4508,243.2274 C185.6008,242.8154 185.8248,242.4974 186.1328,242.2864 C186.4348,242.0654 186.8178,241.9704 187.2748,241.9914 Z M187.956613,243.399866 L187.8388,243.4124 C187.5718,243.4604 187.3558,243.5844 187.1838,243.7794 C187.0188,243.9774 186.8978,244.2344 186.8328,244.5494 C186.7688,244.8714 186.7448,245.2004 186.7688,245.5564 C186.8028,246.0614 186.9548,246.5544 187.2248,247.0294 C187.4938,247.5034 187.8958,247.8844 188.4288,248.1734 C188.8058,248.3764 189.1278,248.4544 189.4028,248.4174 C189.6638,248.3734 189.8868,248.2594 190.0508,248.0534 C190.2218,247.8594 190.3438,247.6024 190.4078,247.2804 C190.4708,246.9524 190.4948,246.6214 190.4718,246.2734 C190.4378,245.7604 190.2858,245.2684 190.0158,244.7944 C189.7468,244.3194 189.3448,243.9374 188.8108,243.6494 C188.4278,243.4424 188.1058,243.3654 187.8388,243.4124 Z M204.5059,236.8134 C204.9139,236.7944 205.4039,236.9354 205.9659,237.2384 C206.4519,237.5014 206.8829,237.8294 207.2529,238.2284 C207.6159,238.6234 207.9059,239.1154 208.1239,239.6994 L208.1239,239.6994 L208.1509,239.7144 L208.2649,238.6574 L209.6609,239.4114 L208.7059,245.4074 C208.6319,245.8814 208.5189,246.2524 208.3799,246.5404 C208.2339,246.8244 208.0429,247.0154 207.7909,247.1064 C207.5469,247.1934 207.2359,247.1904 206.8739,247.1054 C206.5049,247.0084 206.0569,246.8144 205.5289,246.5294 C205.1529,246.3264 204.7869,246.0884 204.4399,245.8254 C204.0989,245.5654 203.7889,245.2754 203.5099,244.9534 C203.2389,244.6424 203.0109,244.2994 202.8349,243.9304 C202.6509,243.5574 202.5459,243.1724 202.5119,242.7624 L202.5119,242.7624 L203.9839,243.5564 C204.0309,243.9664 204.1999,244.3254 204.4989,244.6434 C204.7969,244.9554 205.1579,245.2324 205.5829,245.4624 C205.9109,245.6394 206.1819,245.7374 206.3869,245.7524 C206.5999,245.7714 206.7689,245.7324 206.8939,245.6344 C207.0269,245.5424 207.1229,245.4024 207.1889,245.2054 C207.2479,245.0104 207.2979,244.7844 207.3409,244.5334 L207.3409,244.5334 L207.4389,243.9214 L207.4099,243.8844 C206.9909,244.3304 206.3839,244.3394 205.5899,243.9104 C204.7559,243.4604 204.0939,242.8564 203.6159,242.1114 C203.1299,241.3624 202.8569,240.5434 202.7979,239.6614 C202.7629,239.1424 202.8029,238.6644 202.9189,238.2254 C203.0349,237.7954 203.2289,237.4554 203.4899,237.2124 C203.7509,236.9624 204.0909,236.8304 204.5059,236.8134 Z M182.4753,237.2428 L183.9063,238.0148 L183.6353,239.8768 L184.9643,240.5938 L184.8073,241.6058 L183.4793,240.8888 L183.0243,243.9188 C183.0003,244.0568 182.9753,244.1808 182.9573,244.3008 C182.9463,244.4248 182.9393,244.5248 182.9453,244.6028 C182.9543,244.7518 182.9973,244.8988 183.0653,245.0248 C183.1333,245.1508 183.2873,245.2818 183.5063,245.3998 C183.6223,245.4618 183.7463,245.5288 183.8753,245.5918 C184.0113,245.6588 184.1473,245.7108 184.2953,245.7568 L184.2953,245.7568 L184.1253,246.7548 C183.9363,246.6948 183.7333,246.6188 183.5233,246.5328 C183.3063,246.4428 183.1083,246.3498 182.9173,246.2458 C182.6503,246.1028 182.4283,245.9488 182.2523,245.7858 C182.0703,245.6188 181.9333,245.4488 181.8223,245.2718 C181.7183,245.0988 181.6403,244.9268 181.5893,244.7478 C181.5373,244.5698 181.5123,244.3988 181.5023,244.2428 C181.4933,244.1078 181.4893,243.9618 181.4993,243.8088 C181.5093,243.6628 181.5223,243.5608 181.5383,243.5078 L181.5383,243.5078 L182.0423,240.1138 L180.8783,239.4858 L181.0343,238.4728 L182.1983,239.1008 L182.4753,237.2428 Z M175.110297,235.527631 L175.3016,235.5295 C175.7516,235.5525 176.2706,235.7165 176.8456,236.0265 C177.7766,236.5295 178.5126,237.1725 179.0536,237.9515 C179.6006,238.7335 179.9036,239.6095 179.9696,240.5905 C180.0106,241.1965 179.9596,241.7165 179.8246,242.1585 C179.6886,242.5915 179.4666,242.9105 179.1636,243.1245 C178.8546,243.3345 178.4786,243.4255 178.0216,243.3985 C177.5636,243.3645 177.0446,243.1935 176.4486,242.8725 C175.5176,242.3695 174.7816,241.7175 174.2326,240.9155 C173.6906,240.1225 173.3866,239.2315 173.3216,238.2565 C173.2826,237.6805 173.3356,237.1885 173.4776,236.7655 C173.6286,236.3535 173.8516,236.0345 174.1606,235.8245 C174.4616,235.6035 174.8446,235.5085 175.3016,235.5295 Z M206.1979,238.5294 C205.8419,238.3374 205.5269,238.2564 205.2799,238.3144 C205.0189,238.3584 204.8159,238.4824 204.6569,238.6774 C204.4999,238.8814 204.3919,239.1374 204.3329,239.4414 C204.2679,239.7494 204.2499,240.0614 204.2709,240.3744 C204.2859,240.6094 204.3289,240.8444 204.3909,241.0834 C204.4599,241.3194 204.5539,241.5494 204.6739,241.7634 C204.7949,241.9794 204.9459,242.1774 205.1309,242.3664 C205.3149,242.5554 205.5289,242.7124 205.7829,242.8484 C206.1799,243.0634 206.5089,243.1524 206.7769,243.1114 C207.0449,243.0784 207.2619,242.9624 207.4199,242.7584 C207.5849,242.5674 207.6929,242.3034 207.7489,241.9774 C207.8069,241.6594 207.8239,241.3184 207.7999,240.9704 C207.7659,240.4654 207.6089,239.9894 207.3429,239.5654 C207.0699,239.1364 206.6909,238.7954 206.1979,238.5294 Z M175.983413,236.937966 L175.8656,236.9505 C175.5986,236.9985 175.3826,237.1215 175.2106,237.3165 C175.0456,237.5155 174.9246,237.7725 174.8596,238.0875 C174.7966,238.4095 174.7716,238.7385 174.7956,239.0935 C174.8306,239.5985 174.9816,240.0925 175.2516,240.5675 C175.5206,241.0415 175.9226,241.4225 176.4566,241.7115 C176.8326,241.9145 177.1546,241.9925 177.4226,241.9515 C177.6906,241.9115 177.9136,241.7975 178.0786,241.5915 C178.2496,241.3965 178.3716,241.1405 178.4346,240.8185 C178.4986,240.4895 178.5226,240.1595 178.4986,239.8115 C178.4646,239.2985 178.3126,238.8055 178.0426,238.3315 C177.7736,237.8575 177.3726,237.4755 176.8376,237.1875 C176.4546,236.9805 176.1326,236.9035 175.8656,236.9505 Z M196.0869,232.0853 L197.4689,232.8313 L197.3319,233.7303 L197.3549,233.7693 C197.5959,233.5303 197.9099,233.4053 198.2999,233.4103 C198.6829,233.4113 199.1129,233.5403 199.5789,233.7923 C200.2499,234.1543 200.7539,234.5833 201.0909,235.0883 C201.4279,235.5853 201.6159,236.1183 201.6539,236.6863 C201.6619,236.8073 201.6649,236.9463 201.6689,237.1063 C201.6739,237.2653 201.6619,237.3973 201.6439,237.5113 L201.6439,237.5113 L201.0519,241.4613 L199.5799,240.6673 L200.1399,236.8363 C200.1599,236.7373 200.1799,236.6373 200.1929,236.5433 C200.2069,236.4473 200.2069,236.3503 200.1999,236.2523 C200.198567,236.232967 200.197122,236.210633 200.195493,236.185522 L200.1829,236.0033 C200.1689,235.8853 200.1269,235.7533 200.0579,235.6133 C199.9959,235.4703 199.8859,235.3143 199.7369,235.1583 C199.5879,235.0033 199.3799,234.8493 199.1129,234.7053 C198.8249,234.5503 198.5629,234.4703 198.3449,234.4753 C198.1289,234.4893 197.9339,234.5353 197.7609,234.6203 C197.6029,234.7133 197.4669,234.8513 197.3619,235.0493 C197.2559,235.2453 197.1789,235.4703 197.1429,235.7253 L197.1429,235.7253 L196.6439,239.0823 L195.1719,238.2873 L196.0869,232.0853 Z M169.3351,232.1586 L170.7321,232.9126 L170.5501,234.1226 L170.5781,234.1586 C170.6681,234.0296 170.7791,233.9116 170.9241,233.8036 C171.0621,233.7006 171.2151,233.6186 171.3831,233.5646 C171.5581,233.5156 171.7411,233.4986 171.9471,233.5196 C172.1531,233.5416 172.3751,233.6146 172.6021,233.7366 C172.7251,233.8026 172.8421,233.8726 172.9581,233.9356 C173.0751,234.0046 173.1981,234.0796 173.3161,234.1636 L173.3161,234.1636 L173.1071,235.4616 C173.0171,235.3926 172.9341,235.3406 172.8441,235.2786 C172.7611,235.2276 172.6721,235.1716 172.5901,235.1276 C172.2071,234.9206 171.8821,234.8146 171.6111,234.8056 C171.3401,234.7896 171.1131,234.8516 170.9381,234.9906 C170.7621,235.1286 170.6241,235.3216 170.5211,235.5676 C170.4261,235.8176 170.3531,236.0996 170.3081,236.4116 L170.3081,236.4116 L169.8921,239.1476 L168.4201,238.3536 L169.3351,232.1586 Z M192.9714,230.4033 L194.4434,231.1983 L193.5284,237.4003 L192.0494,236.6023 L192.9714,230.4033 Z M190.2061,226.3611 L191.6781,227.1551 L190.3591,235.6891 L188.9491,234.9291 L189.0911,234.1011 L189.0681,234.0611 C188.8041,234.3511 188.5031,234.4821 188.1581,234.4461 C187.8121,234.4181 187.4481,234.2971 187.0511,234.0821 C186.8591,233.9791 186.6191,233.8281 186.3201,233.6121 C186.0231,233.4041 185.7271,233.1211 185.4331,232.7771 C185.1401,232.4341 184.8811,232.0201 184.6571,231.5361 C184.4331,231.0521 184.3031,230.4881 184.2581,229.8331 C184.2211,229.2721 184.2661,228.7611 184.3941,228.3231 C184.5231,227.8791 184.7231,227.5281 185.0091,227.2721 C185.2891,227.0181 185.6431,226.8871 186.0781,226.8751 C186.5051,226.8581 187.0101,227.0081 187.5921,227.3221 C188.0371,227.5631 188.4471,227.8651 188.8211,228.2321 C189.1951,228.5991 189.4821,229.0341 189.6821,229.5461 L189.6821,229.5461 L189.7091,229.5621 L190.2061,226.3611 Z M161.2713,225.2556 L164.9813,227.2576 C165.4603,227.5166 165.8673,227.7856 166.2033,228.0616 C166.5393,228.3456 166.8213,228.6286 167.0453,228.9076 C167.2753,229.1886 167.4523,229.4696 167.5823,229.7386 C167.7133,230.0146 167.8103,230.2726 167.8793,230.5156 C167.9413,230.7546 167.9893,230.9866 168.0103,231.1966 C168.0313,231.4066 168.0503,231.5876 168.0603,231.7446 C168.0613,231.7506 168.0593,231.8266 168.0553,231.9676 C168.0523,232.1166 168.0243,232.2796 167.9773,232.4666 C167.9303,232.6546 167.8433,232.8336 167.7243,233.0156 C167.5973,233.1936 167.4223,233.3256 167.1903,233.4136 C166.9513,233.4966 166.6493,233.5046 166.2753,233.4466 C165.9013,233.3816 165.4343,233.1986 164.8723,232.8956 L164.8723,232.8956 L162.1073,231.4026 L161.6153,234.6806 L160.0003,233.8086 L161.2713,225.2556 Z M186.93473,228.337421 L186.8101,228.3461 C186.5291,228.3791 186.3061,228.4991 186.1351,228.7081 C185.9721,228.9221 185.8521,229.1991 185.7891,229.5431 C185.7261,229.8791 185.7041,230.2441 185.7301,230.6281 C185.7651,231.1471 185.9221,231.6231 186.1881,232.0401 C186.4611,232.4621 186.8531,232.8111 187.3671,233.0881 C187.7501,233.2951 188.0721,233.3721 188.3461,233.3211 C188.6131,233.2671 188.8341,233.1331 189.0051,232.9161 C189.1821,232.7101 189.3021,232.4391 189.3721,232.1061 C189.4431,231.7821 189.4661,231.4381 189.4421,231.0901 C189.4281,230.8691 189.3781,230.6301 189.3101,230.3951 C189.2421,230.1651 189.1411,229.9391 189.0141,229.7281 C188.8881,229.5161 188.7291,229.3131 188.5321,229.1241 C188.3401,228.9331 188.1121,228.7681 187.8521,228.6271 C187.4411,228.4051 187.0911,228.3061 186.8101,228.3461 Z M162.7043,227.3456 L162.2813,230.1736 L164.7253,231.4936 C165.0883,231.6886 165.3853,231.7946 165.6183,231.8176 C165.8433,231.8296 166.0183,231.7796 166.1433,231.6756 C166.2613,231.5686 166.3433,231.4196 166.3833,231.2296 C166.4303,231.0426 166.4433,230.8436 166.4283,230.6236 C166.4193,230.4956 166.3893,230.3416 166.3383,230.1636 C166.2933,229.9956 166.2083,229.8056 166.0903,229.6186 C165.9713,229.4236 165.8133,229.2296 165.6023,229.0336 C165.3913,228.8366 165.1283,228.6536 164.7993,228.4756 L164.7993,228.4756 L162.7043,227.3456 Z M177.6448,222.131 L179.0278,222.878 L178.8898,223.776 L178.9198,223.82 C179.1608,223.58 179.4748,223.455 179.8578,223.456 C180.2478,223.461 180.6718,223.587 181.1368,223.838 C181.8078,224.2 182.3188,224.634 182.6568,225.138 C182.9868,225.631 183.1738,226.164 183.2118,226.734 C183.2198,226.855 183.2298,226.996 183.2338,227.156 C183.2318,227.313 183.2268,227.447 183.2088,227.561 L183.2088,227.561 L182.6168,231.511 L181.1378,230.713 L181.7048,226.886 C181.7248,226.787 181.7378,226.685 181.7508,226.589 C181.7718,226.497 181.7718,226.401 181.7648,226.302 C181.7608,226.244 181.7548,226.159 181.7408,226.049 C181.7338,225.935 181.6918,225.803 181.6228,225.663 C181.5528,225.516 181.4438,225.36 181.3018,225.209 C181.1528,225.053 180.9448,224.9 180.6778,224.755 C180.3838,224.597 180.1278,224.52 179.9098,224.526 C179.6868,224.535 179.4918,224.581 179.3258,224.67 C179.1678,224.763 179.0318,224.901 178.9268,225.099 C178.8138,225.291 178.7438,225.521 178.7008,225.772 L178.7008,225.772 L178.2088,229.132 L176.7298,228.334 L177.6448,222.131 Z M193.3202,228.0421 L194.7852,228.8331 L194.5962,230.1291 L193.1372,229.3421 L193.3202,228.0421 Z M171.4955,218.9908 C171.9445,218.9928 172.4635,219.1568 173.0595,219.4788 C173.6545,219.7998 174.1405,220.1578 174.5235,220.5638 C174.9075,220.9688 175.2195,221.3918 175.4465,221.8158 C175.6725,222.2398 175.8325,222.6548 175.9335,223.0718 C176.0335,223.4898 176.0925,223.8698 176.1155,224.2038 C176.1265,224.3748 176.1295,224.5288 176.1195,224.6658 C176.1155,224.8018 176.1035,224.9178 176.0975,225.0248 L176.0975,225.0248 L171.1215,222.3378 L171.1085,222.4488 L171.1095,222.5588 L171.1235,222.7718 C171.1565,223.2558 171.3065,223.7128 171.5725,224.1378 C171.8385,224.5698 172.2515,224.9298 172.8205,225.2368 C173.2175,225.4498 173.5535,225.5428 173.8215,225.5098 C174.0955,225.4728 174.2695,225.2988 174.3465,224.9778 L174.3465,224.9778 L175.8245,225.7758 C175.6465,226.4598 175.2905,226.8438 174.7675,226.9178 C174.2375,226.9888 173.5725,226.8078 172.7575,226.3668 C172.3405,226.1428 171.9455,225.8678 171.5735,225.5308 C171.2085,225.2018 170.8865,224.8298 170.6085,224.4268 C170.3375,224.0268 170.1105,223.5958 169.9415,223.1488 C169.7665,222.6978 169.6625,222.2298 169.6305,221.7608 C169.5945,221.2198 169.6415,220.7378 169.7715,220.3218 C169.9015,219.8988 170.1095,219.5658 170.3975,219.3368 C170.6855,219.1018 171.0535,218.9858 171.4955,218.9908 Z M163.5973,212.0002 L165.2123,212.8722 L164.1323,220.1362 L168.7873,222.6482 L168.5963,223.9442 L162.3263,220.5602 L163.5973,212.0002 Z M173.0995,220.6648 C172.5445,220.3658 172.1185,220.2998 171.8135,220.4708 C171.5075,220.6348 171.3045,220.9498 171.1905,221.4088 L171.1905,221.4088 L174.6195,223.2608 L174.6265,223.1548 L174.6185,223.0478 L174.6045,222.8338 C174.5765,222.4218 174.4305,222.0208 174.1605,221.6208 C173.8955,221.2178 173.5375,220.9018 173.0995,220.6648 Z" id="形状结合" fill="#FCB138"></path>
            </g>
        </g>
    </g>
</svg>