<?xml version="1.0" encoding="UTF-8"?>
<svg width="442px" height="446px" viewBox="0 0 442 446" version="1.1" xmlns="http://www.w3.org/2000/svg" xmlns:xlink="http://www.w3.org/1999/xlink">
    <title>img-skake-cn</title>
    <g id="切图文件" stroke="none" stroke-width="1" fill="none" fill-rule="evenodd">
        <g id="官网---CN" transform="translate(-369.000000, -840.000000)">
            <g id="img-skake-cn" transform="translate(371.000000, 842.000000)">
                <polygon id="多边形" stroke="#FA9B00" opacity="0.2" points="220 7.61006289 370.671558 69.9189505 433.081761 220.345912 370.671558 370.772873 220 433.081761 69.3284418 370.772873 6.91823899 220.345912 69.3284418 69.9189505"></polygon>
                <polygon id="多边形备份" stroke="#FA9B00" opacity="0.2" points="220 72.6415094 324.687381 116.004443 368.050314 220.691824 324.687381 325.379205 220 368.742138 115.312619 325.379205 71.9496855 220.691824 115.312619 116.004443"></polygon>
                <path d="M220.005468,8.99371069 L220.005468,72.6076249 M369.79534,70.5787009 L324.297132,115.838886 M431.698113,220.335001 L367.7086,220.335001 M369.61599,370.062163 L324.352973,324.86762 M220.005468,432.389937 L220.005468,368.655847 M70.3024105,370.29084 L115.545719,325.034506 M8.30188679,220.335001 L71.9476139,220.335001 M70.2165477,70.5578945 L115.592613,115.753662" id="形状结合" stroke="#FA9B00" opacity="0.2"></path>
                <path d="M220.005468,8.99371069 L324.297132,115.753485 L431.698113,220.335001 L325.851791,324.86745 L220.005468,432.389937 L115.592437,325.034506 L8.30188679,220.691824 L115.312755,115.456326 L220.005468,8.99371069 Z" id="路径-2" stroke="#FA9B00" opacity="0.2" stroke-dasharray="5"></path>
                <g id="编组-6">
                    <ellipse id="椭圆形" stroke="#FFFFFF" stroke-width="4" fill="#424E69" cx="219.14135" cy="9.53999239" rx="9.5278848" ry="9.53999239"></ellipse>
                    <ellipse id="椭圆形备份-6" stroke="#FFFFFF" stroke-width="4" fill="#FA9B00" cx="219.14135" cy="431.843655" rx="9.5278848" ry="9.53999239"></ellipse>
                    <ellipse id="椭圆形备份-7" stroke="#FFFFFF" stroke-width="4" fill="#FA9B00" cx="9.5278848" cy="220.691824" rx="9.5278848" ry="9.53999239"></ellipse>
                    <ellipse id="椭圆形备份-9" stroke="#FFFFFF" stroke-width="4" fill="#BED4EF" cx="367.776353" cy="71.8679427" rx="9.5278848" ry="9.53999239"></ellipse>
                    <ellipse id="椭圆形备份-10" stroke="#FFFFFF" stroke-width="4" fill="#FA9B00" cx="71.7767321" cy="71.8679427" rx="9.5278848" ry="9.53999239"></ellipse>
                    <g id="编组-8" transform="translate(61.858463, 362.127712)">
                        <circle id="椭圆形备份-11" stroke="#FA9B00" fill="#FA9B00" cx="8.54153729" cy="8.35228826" r="7.42"></circle>
                        <circle id="椭圆形备份-14" fill="#FFFFFF" cx="8.54153729" cy="8.35228826" r="5.28"></circle>
                    </g>
                    <ellipse id="椭圆形备份-12" stroke="#FFFFFF" stroke-width="4" fill="#FA9B00" cx="367.776353" cy="370.787704" rx="9.5278848" ry="9.53999239"></ellipse>
                    <circle id="椭圆形备份-11" stroke="#FA9B00" fill="#FA9B00" cx="432.08" cy="220.88" r="7.42"></circle>
                    <circle id="椭圆形备份-14" fill="#FFFFFF" cx="432.08" cy="220.88" r="5.28"></circle>
                </g>
                <path d="M219.855946,112.767296 L219.855946,148.29246 M314.872412,166.418812 L284.659288,184.660578 M314.952429,274.651824 L283.412436,254.386029 M219.855946,328.616352 L219.855946,293.030975 M124.861261,274.75285 L155.925075,254.560032 M124.663035,166.667409 L155.724096,184.967395" id="形状结合" stroke="#FA9B00" opacity="0.2"></path>
                <polygon id="多边形" stroke="#FA9B00" opacity="0.2" points="219.654088 111.383648 315.216451 166.210692 315.216451 275.86478 219.654088 330.691824 124.091725 275.86478 124.091725 166.210692"></polygon>
                <g id="编组-7" transform="translate(154.968553, 146.666667)">
                    <polyline id="路径" stroke="#FA9B00" stroke-linecap="round" stroke-linejoin="round" points="65.0314465 75.224443 0.441715688 38.6648147 0.659651902 107.893365 65.0314465 147.093793"></polyline>
                    <polygon id="Fill-2" fill="#424E69" points="65.0314465 75.8492513 65.0314465 148.050314 128.990987 108.058222 130.062893 38.3774036"></polygon>
                    <polygon id="Fill-3" fill="#FA9B00" points="65.0314465 0.624808271 4.40860246e-12 38.3774036 65.0314465 75.8492513 130.062893 38.3774036"></polygon>
                </g>
                <g id="编组" transform="translate(198.000000, 168.347826)">
                    <g transform="translate(0.956522, 0.956522)"></g>
                    <g></g>
                </g>
                <path d="M220.060881,323.72 C221.309044,323.72 222.439044,324.225918 223.257003,325.043877 C224.074962,325.861836 224.580881,326.991836 224.580881,328.24 C224.580881,329.488164 224.074962,330.618164 223.257003,331.436123 C222.439044,332.254082 221.309044,332.76 220.060881,332.76 C218.812717,332.76 217.682717,332.254082 216.864758,331.436123 C216.046799,330.618164 215.540881,329.488164 215.540881,328.24 C215.540881,326.991836 216.046799,325.861836 216.864758,325.043877 C217.682717,324.225918 218.812717,323.72 220.060881,323.72 Z M315.48,271.645031 C316.606661,271.645031 317.626661,272.101701 318.364996,272.840036 C319.10333,273.578371 319.56,274.598371 319.56,275.725031 C319.56,276.851692 319.10333,277.871692 318.364996,278.610027 C317.626661,279.348362 316.606661,279.805031 315.48,279.805031 C314.353339,279.805031 313.333339,279.348362 312.595004,278.610027 C311.85667,277.871692 311.4,276.851692 311.4,275.725031 C311.4,274.598371 311.85667,273.578371 312.595004,272.840036 C313.333339,272.101701 314.353339,271.645031 315.48,271.645031 Z M124.96,270.04 C126.208164,270.04 127.338164,270.545918 128.156123,271.363877 C128.974082,272.181836 129.48,273.311836 129.48,274.56 C129.48,275.808164 128.974082,276.938164 128.156123,277.756123 C127.338164,278.574082 126.208164,279.08 124.96,279.08 C123.711836,279.08 122.581836,278.574082 121.763877,277.756123 C120.945918,276.938164 120.44,275.808164 120.44,274.56 C120.44,273.311836 120.945918,272.181836 121.763877,271.363877 C122.581836,270.545918 123.711836,270.04 124.96,270.04 Z M315.04,162.840503 C316.288164,162.840503 317.418164,163.346421 318.236123,164.16438 C319.054082,164.98234 319.56,166.11234 319.56,167.360503 C319.56,168.608667 319.054082,169.738667 318.236123,170.556626 C317.418164,171.374585 316.288164,171.880503 315.04,171.880503 C313.791836,171.880503 312.661836,171.374585 311.843877,170.556626 C311.025918,169.738667 310.52,168.608667 310.52,167.360503 C310.52,166.11234 311.025918,164.98234 311.843877,164.16438 C312.661836,163.346421 313.791836,162.840503 315.04,162.840503 Z M125.159245,162.840503 C126.407409,162.840503 127.537409,163.346421 128.355368,164.16438 C129.173327,164.98234 129.679245,166.11234 129.679245,167.360503 C129.679245,168.608667 129.173327,169.738667 128.355368,170.556626 C127.537409,171.374585 126.407409,171.880503 125.159245,171.880503 C123.911082,171.880503 122.781082,171.374585 121.963123,170.556626 C121.145164,169.738667 120.639245,168.608667 120.639245,167.360503 C120.639245,166.11234 121.145164,164.98234 121.963123,164.16438 C122.781082,163.346421 123.911082,162.840503 125.159245,162.840503 Z M220.060881,108.186415 C221.309044,108.186415 222.439044,108.692333 223.257003,109.510292 C224.074962,110.328252 224.580881,111.458252 224.580881,112.706415 C224.580881,113.954579 224.074962,115.084579 223.257003,115.902538 C222.439044,116.720497 221.309044,117.226415 220.060881,117.226415 C218.812717,117.226415 217.682717,116.720497 216.864758,115.902538 C216.046799,115.084579 215.540881,113.954579 215.540881,112.706415 C215.540881,111.458252 216.046799,110.328252 216.864758,109.510292 C217.682717,108.692333 218.812717,108.186415 220.060881,108.186415 Z" id="形状结合" stroke="#FFFFFF" stroke-width="2" fill="#FFC66A"></path>
                <path d="M189.913153,244.856171 L191.106265,245.342136 C191.589536,248.793331 192.375303,251.984058 193.691342,254.854025 C195.121872,253.350307 195.814842,250.852954 196.24629,247.939576 L197.523764,248.898242 C196.975415,252.133586 196.173981,254.870907 194.512059,256.471094 C195.478601,258.190662 196.668098,259.790849 198.128757,261.236685 C197.827466,261.364507 197.441813,261.734709 197.240551,262 C195.772661,260.478194 194.597626,258.859919 193.646751,257.149998 C192.697082,257.717962 191.564228,258.010988 190.121646,257.932606 C189.946897,257.520199 189.593784,256.776179 189.333469,256.358948 C190.782076,256.469888 191.937829,256.190127 192.841702,255.577546 C191.355734,252.406112 190.486811,248.882565 189.913153,244.856171 Z M185.633374,245.724638 L188.641464,247.462294 L188.622181,253.920924 L190.150329,253.597751 C190.225049,254.022217 190.401003,254.708356 190.52393,255.062881 C188.164219,255.647727 187.685769,255.806902 187.468839,255.9914 L187.468839,256.052899 L187.454377,256.017929 L187.430274,255.933518 C187.262756,255.52714 186.96267,254.92903 186.749356,254.601034 C187.018108,254.481653 187.389298,254.128333 187.391708,253.279402 L187.407376,248.156874 L185.628553,247.13068 L185.633374,245.724638 Z M178.659933,236.989449 L179.860276,237.684029 L179.85184,240.479231 L182.691207,242.119212 L182.690002,242.810175 C182.670719,243.667547 182.63818,244.436891 182.621307,245.154382 L183.637261,245.501673 C184.018093,247.175418 184.419412,249.312216 184.571263,250.507232 L183.446845,250.185265 C183.326328,249.026425 182.985267,247.004184 182.620102,245.330439 C182.483919,250.1515 182.347735,251.915686 181.930748,252.287093 C181.659586,252.617501 181.343833,252.576501 180.889486,252.394415 C180.6593,252.294328 180.356804,252.132742 180.018153,251.936185 C179.708426,251.756511 179.368569,251.551513 179.027508,251.336869 C179.005815,250.916021 178.868426,250.234705 178.646676,249.716182 C179.385442,250.204559 180.047077,250.604907 180.331495,250.768905 C180.577349,250.911197 180.715943,250.938932 180.854537,250.814728 C181.179931,250.533761 181.324551,248.471726 181.448683,242.818616 L179.840994,241.890097 C179.731324,245.08806 179.143204,248.674312 176.086907,249.85968 C175.865157,249.395421 175.420452,248.668283 175.105904,248.264317 C177.959732,247.263446 178.532185,244.067895 178.632214,241.193105 L176.378557,239.890768 L176.380967,238.475078 L178.651497,239.785857 L178.659933,236.989449 Z M192.307211,245.451508 L193.378602,245.563654 C193.922131,246.941962 194.480122,248.645853 194.685,249.650342 L193.529248,249.568343 C193.340037,248.554207 192.812175,246.832228 192.307211,245.451508 Z M173.404092,233.822477 L174.621307,234.524292 L174.610461,238.178073 L176.010862,238.987211 L176.006041,240.340195 L174.60564,239.531057 L174.580332,248.953712 L173.364321,248.25069 L173.390835,238.829242 L171.951869,237.998399 L171.955484,236.644209 L173.39445,237.475052 L173.404092,233.822477 Z M192.760353,235.229846 L197.808786,238.145635 C197.910019,237.744081 197.979919,237.270175 198.035357,236.74321 L199.375499,237.517378 C199.320061,238.026254 199.248957,238.498955 199.16339,238.928244 L204.649297,242.097265 L204.645682,243.450249 L199.85877,240.686399 C200.862672,242.727934 202.599313,244.564472 205,246.251481 C204.721607,246.410656 204.366084,246.815828 204.210617,247.169147 C201.541179,245.149318 199.768383,243.024578 198.665657,240.359609 C197.906404,241.66677 196.386692,241.98512 193.084542,240.741869 C192.994155,240.290875 192.695274,239.488972 192.434959,239.010243 C195.30566,240.182347 196.655444,240.093112 197.32672,239.223681 L192.756738,236.584036 L192.760353,235.229846 Z M187.369654,242.270549 C187.960184,243.354624 188.7339,244.812519 189.06291,245.67592 L188.098778,245.98824 C187.762537,245.083839 187.04908,243.617503 186.451319,242.500869 L187.369654,242.270549 Z M176.427246,241.310798 L177.573357,242.236905 C177.26845,243.683947 176.756256,245.027284 176.138006,245.724276 C175.922282,245.413162 175.439011,244.752346 175.17026,244.430379 C175.75838,243.803328 176.200675,242.623989 176.427246,241.310798 Z M194.293322,227.854756 L195.370739,227.911431 C195.93114,228.864067 196.560236,230.096465 196.826577,230.897161 L195.825085,230.832044 L198.049818,232.1175 L198.058255,229.161917 L199.327292,229.896291 L199.318856,232.850668 L204.590244,235.894279 L204.585424,237.248469 L200.091367,234.652235 C201.683388,236.422449 203.548982,238.547189 204.578193,239.814557 L203.944276,240.635753 C202.915066,239.297239 200.979572,237.044677 199.31283,235.150258 L199.306805,237.149588 L198.036562,236.41642 L198.043793,234.089094 C196.847065,234.834321 195.120064,234.980231 193.379807,234.559383 C193.188186,234.084271 192.836278,233.314927 192.544629,232.879609 C194.260782,233.411396 195.949217,233.446367 197.044712,232.892873 L192.859177,230.473901 L192.862792,229.120917 L195.625028,230.716281 C195.364713,229.97226 194.806722,228.76398 194.293322,227.854756 Z M185.915021,233.339044 C187.435938,234.723381 189.549796,236.856562 190.633238,238.155282 L189.983655,238.995772 C188.961676,237.732022 186.856254,235.522872 185.296772,234.054124 L185.915021,233.339044 Z M180.734141,225.853255 L189.320935,230.814197 L189.306473,235.706405 L187.983203,234.941884 L187.992844,231.403867 L181.999563,227.940613 L181.989922,231.559424 L180.719679,230.82505 L180.734141,225.853255 Z M201.895618,231.6284 L203.264684,232.878885 C202.716334,233.386556 202.113752,233.871315 201.642533,234.148664 L200.581989,233.110412 C201.03031,232.74021 201.594327,232.13607 201.895618,231.6284 Z M184.253341,229.773171 L185.583842,230.542515 L185.580226,231.630208 C185.576611,233.090515 184.994517,234.712408 180.02683,233.154426 C179.873774,232.746842 179.490532,231.994381 179.175984,231.510827 C183.659473,233.132326 184.196366,232.018076 184.245409,231.003281 L184.249212,230.87971 L184.249725,230.818659 L184.249725,230.818659 L184.253341,229.773171 Z M170.375032,220.622199 L176.576807,224.204834 L176.556319,231.150635 L175.263178,230.402996 L175.265588,229.784386 L171.603094,227.668087 L171.601889,228.313227 L170.354544,227.593323 L170.375032,220.622199 Z M184.622603,221.445686 L185.838613,222.147502 C185.920565,223.019345 186.118212,223.886364 186.408656,224.719619 L191.088308,227.059003 L191.193158,228.288989 L187.044983,226.202837 C187.747593,227.623349 188.67557,228.785806 189.498697,229.259713 C189.509543,229.266948 189.521595,229.272977 189.533647,229.280212 C189.916889,229.502092 190.026559,229.236801 190.098869,228.295018 C190.360389,228.72069 190.752068,229.168067 191.050948,229.447828 C190.868969,231.02631 190.429084,231.126397 189.475799,230.575315 C188.01273,229.731207 186.546045,227.811465 185.613248,225.499816 L183.028171,224.22883 L182.930552,222.992815 L185.108284,224.074479 C184.880508,223.232783 184.688887,222.334411 184.622603,221.445686 Z M171.610325,225.102 L171.60671,226.49116 L175.269204,228.607459 L175.272819,227.218298 L171.610325,225.102 Z M168.272021,212 L169.462723,213.113016 C169.075865,214.023447 168.595005,214.915789 168.061117,215.697192 L168.030988,226.234069 L166.807746,225.52743 L166.831849,217.157498 C166.476326,217.537347 166.089468,217.837608 165.703816,218.083605 C165.582094,217.650699 165.214519,216.648622 165,216.179539 C166.303988,215.470489 167.526024,213.873919 168.272021,212 Z M182.269038,220.041212 L183.38984,221.149405 C183.05842,221.569047 182.632997,221.935631 182.177445,222.256392 L182.166599,226.221286 L180.934921,225.509824 L180.942152,222.881031 C180.503472,223.053471 180.055151,223.193351 179.622497,223.271733 C179.423645,222.890678 178.987376,222.133393 178.725855,221.724604 C180.08287,221.64984 181.456757,221.033641 182.269038,220.041212 Z M171.617556,222.555206 L171.613941,223.94316 L175.276435,226.059459 L175.28005,224.670299 L171.617556,222.555206 Z M188.401757,223.504586 C188.900694,224.190725 189.561124,225.165066 189.881698,225.760765 L188.94167,225.942851 C188.642789,225.326653 187.998027,224.325782 187.491858,223.59985 L188.401757,223.504586 Z M171.221419,213.659998 L172.451891,214.37146 L172.43984,216.302056 L174.368102,217.422307 L174.368102,215.480859 L175.609421,216.193527 L175.609421,218.133769 L177.259291,219.086405 L177.259291,220.37789 L175.609421,219.425254 L175.596165,221.234057 L177.525632,222.343455 L177.513581,223.645793 L169.294361,218.893466 L169.294361,217.591129 L171.210572,218.700527 L171.221419,216.891725 L169.643859,215.987324 L169.655911,214.698251 L171.221419,215.602652 L171.221419,213.659998 Z M172.43984,217.604393 L172.43984,219.399931 L174.356051,220.50933 L174.368102,218.713792 L172.43984,217.604393 Z" id="形状结合" fill="#FA9B00"></path>
                <path d="M212.182813,192.188431 L215.342641,193.992376 L216.718251,193.202336 L217.888957,193.869192 L216.513347,194.660417 L224.661559,199.310639 L223.459698,200 L215.312685,195.349777 L213.891541,196.165876 L212.720834,195.497836 L214.141978,194.681737 L210.98215,192.878976 L212.182813,192.188431 Z M222.688613,189.053735 L223.28535,189.393678 C224.019887,189.830747 224.678934,190.232281 225.29005,190.599467 L226.086897,189.905368 C226.520829,190.039292 226.985181,190.187451 227.453754,190.341511 L228.156504,190.575986 C229.205553,190.931213 230.209652,191.295223 230.870376,191.5731 L230.050762,192.367878 C228.989098,191.900013 227.070673,191.197623 225.443428,190.687117 C229.552283,193.170948 231.006978,194.15761 231.131598,194.69062 C231.278985,195.087417 231.089659,195.33734 230.718196,195.629904 C230.338346,195.908254 229.622981,196.309789 228.894435,196.694741 C228.51099,196.511148 227.85434,196.292022 227.304335,196.223323 C228.088001,195.834817 228.749445,195.47237 229.038227,195.30536 C229.281475,195.165592 229.372543,195.061359 229.325811,194.887242 C229.247923,194.466756 227.532006,193.332035 222.697001,190.451408 L221.10091,191.367002 C223.82457,193.027627 226.644091,195.288777 226.17437,198.476181 C225.678288,198.437094 224.816734,198.458414 224.313462,198.528298 C224.838303,195.607399 222.348306,193.551162 219.914627,192.048071 L217.67986,193.332035 L216.45643,192.634383 L218.698386,191.346866 L216.280285,189.966961 L217.473758,189.279969 L219.89186,190.659875 L222.688613,189.053735 Z M220.304183,193.463156 C221.407786,194.432051 222.322064,195.528869 222.624027,196.398269 C222.242978,196.432618 221.442536,196.515531 221.030332,196.585415 C220.775102,195.777607 219.968668,194.820557 218.934565,193.986691 L220.304183,193.463156 Z M201.144742,188.830582 C203.259683,190.559905 203.474172,192.07484 199.533074,195.073914 C199.143638,194.966128 198.387532,194.838205 197.945371,194.803856 C201.681566,192.079578 201.530584,190.904586 199.905735,189.543632 L201.144742,188.830582 Z M203.438104,185.787682 L207.041291,187.843919 L205.75675,188.581843 L203.294312,187.177064 L196.954285,190.818119 L199.525765,192.284491 L198.278369,193.001095 L194.567339,190.883265 L203.438104,185.787682 Z M230.22475,186.6084 L235.808671,189.796989 L236.266409,188.342462 C236.678613,188.481045 237.35803,188.669375 237.724699,188.739259 C237.089618,191.039497 236.985369,191.521575 237.040489,191.795187 L237.094411,191.825984 L237.056067,191.82243 L236.972188,191.809401 C236.537217,191.743071 235.873378,191.703983 235.476752,191.730042 C235.521087,191.442216 235.396468,190.95303 234.66193,190.533729 L230.22475,188.001335 L228.468092,189.010502 L227.251851,188.316404 L230.22475,186.6084 Z M193.765459,187.919133 L195.072767,188.411872 C194.247162,189.412748 193.323298,190.459818 192.633097,191.293684 L191.113695,190.84477 C191.795509,190.118691 192.811639,189.010028 193.765459,187.919133 Z M209.863209,187.887863 L210.143603,188.918351 C208.444461,189.219206 205.391279,190.010431 203.222417,190.651228 L203.055857,189.730896 C205.089316,189.080623 208.149688,188.242019 209.863209,187.887863 Z M235.790218,179.758264 C238.332939,181.810948 240.319665,183.841127 240.888841,186.035947 C242.849205,186.058452 244.81556,185.831034 246.779519,185.299207 C246.743571,185.617829 246.876579,186.128335 247,186.433928 C244.973732,186.931405 243.008575,187.141056 241.055401,187.105522 C241.084159,188.192864 240.778601,189.307449 240.006917,190.494286 C239.564757,190.442169 238.747539,190.377023 238.259845,190.39479 C239.069873,189.211507 239.391009,188.096922 239.308328,187.023793 C235.829761,186.726492 232.35359,185.735092 228.579051,184.250953 L229.580802,183.473942 C232.806535,184.757905 235.953182,185.656917 239.096235,185.944743 C238.482723,183.984448 236.657763,182.167473 234.345109,180.36945 L235.790218,179.758264 Z M199.75715,182.216865 C200.23406,182.826867 200.695393,183.54347 200.919468,184.037393 L199.511505,184.504074 C199.388084,184.250598 199.165206,183.905917 198.919562,183.582557 L197.231204,184.551453 C197.370203,184.692404 197.492427,184.822696 197.61465,184.971939 C199.469566,185.228969 201.694747,184.932851 203.741386,184.177161 C203.68986,184.460249 203.837247,184.900871 203.976246,185.163823 C202.096166,185.761979 200.075889,185.976368 198.169447,185.818834 C198.578056,186.7747 198.4091,187.85375 197.150921,189.22418 C196.761484,189.140083 196.013766,189.071384 195.578795,189.084413 C197.24798,187.381148 196.905276,186.236951 195.985007,185.268056 L194.639354,186.040329 C194.817896,186.578078 194.882602,187.145438 194.779551,187.764915 C194.320615,187.705692 193.551328,187.744779 193.109168,187.805187 C193.37039,186.726137 192.945006,185.709863 192.307528,184.98023 L193.668759,184.391549 C193.868869,184.645026 194.046212,184.900871 194.230745,185.172114 L198.455833,182.745138 L198.600823,182.610109 L199.75715,182.216865 Z M192.17476,187.036586 L192.476723,187.966393 C191.425844,188.045753 189.566134,188.377404 188.233662,188.722084 L188,187.857422 C189.286938,187.512742 191.092726,187.132528 192.17476,187.036586 Z M216.944244,176.565648 L218.183251,177.27396 L208.613896,182.771078 L209.248977,183.132341 C210.894197,184.071624 213.07624,185.594851 213.481254,187.202174 C213.016327,187.171378 211.971439,187.228233 211.537666,187.285087 C211.163807,185.870832 209.311287,184.674519 207.911712,183.875003 L206.059192,182.819641 L208.97098,181.147172 C208.214874,180.967133 207.016607,180.788278 206.03283,180.697074 L206.675101,179.811092 C207.667266,179.879791 208.972178,180.032587 209.721094,180.21618 L209.19865,181.015696 L212.550201,179.08975 C212.288979,178.52239 211.795293,177.727612 211.357926,177.217106 L213.20086,176.675804 C213.424936,177.247902 213.680166,177.844874 213.835941,178.351827 L216.944244,176.565648 Z M225.106595,185.142147 C226.327628,185.176497 227.974046,185.228613 228.875143,185.377856 L228.682222,186.346751 C227.728402,186.19277 226.117932,186.076693 224.859752,186.037605 L225.106595,185.142147 Z M230.889668,181.653177 C232.347958,181.85809 234.096229,182.220537 235.058437,182.543897 L234.431743,183.481996 C233.461148,183.146792 231.712877,182.74881 230.268966,182.500072 L230.889668,181.653177 Z M213.059345,174.732683 L214.268395,175.422044 L203.558291,181.574173 L202.34205,180.880074 L207.199822,178.090651 C206.619861,177.976942 205.886522,177.854942 205.253837,177.806379 L206.186089,176.884862 C207.040453,176.936979 208.093729,177.086222 208.720422,177.224805 L213.059345,174.732683 Z M233.380624,170.348255 L234.550132,171.01748 L229.822971,173.732281 C232.080505,173.881524 234.517779,173.304688 237.141982,172.095346 C237.151569,172.405677 237.33011,172.907891 237.560177,173.2123 C234.517779,174.496264 231.804904,174.959391 228.957823,174.587468 C229.721119,175.876169 229.256191,177.325959 226.569678,179.525516 C226.133509,179.390487 225.286335,179.247166 224.753106,179.229399 C227.166415,177.360308 227.739186,176.173471 227.322189,175.169042 L222.799932,177.766581 L221.629226,177.099725 L226.6236,174.230943 C226.316844,173.950224 225.940588,173.65766 225.511609,173.353252 L226.842883,172.589269 C227.247897,172.890124 227.638532,173.182688 227.960865,173.461038 L233.380624,170.348255 Z M227.97129,167.357236 L229.141997,168.02646 L224.710808,170.571883 C227.011479,170.090989 229.76869,169.541395 231.361186,169.292657 L231.769795,170.230756 C230.597467,170.385434 228.810765,170.700642 226.99846,171.044734 L226.092899,171.218578 C225.641778,171.306093 225.195189,171.394043 224.762333,171.48037 L226.491431,172.467032 L225.229657,173.190742 L223.217768,172.042993 C223.286069,173.422898 222.562316,174.96863 221.35686,176.23838 C220.853588,176.16968 220.006414,176.095059 219.495952,176.125855 C220.793675,174.93428 221.639651,173.510549 221.693573,172.30476 L217.558356,174.680804 L216.387649,174.011579 L219.1173,172.444527 C218.354004,172.296469 217.033515,172.179206 215.988627,172.174469 L216.570984,171.279011 C217.668596,171.270719 219.03462,171.344156 219.866217,171.505244 L219.322204,172.327265 L221.511436,171.06936 L218.955534,169.611279 L220.217309,168.886384 L222.773211,170.344465 L227.97129,167.357236 Z M224.720993,167 C224.893543,167.715419 225.012172,168.47111 225.030146,169.004121 L223.606605,169.400917 C223.511942,168.833557 223.262703,168.056546 222.977515,167.554331 L224.720993,167 Z" id="形状结合" fill="#FFFFFF"></path>
                <path d="M242.683547,251.017105 L242.694442,254.627614 L244.092696,253.830054 L244.097539,255.170862 L242.698074,255.967227 L242.724707,265.303926 L241.503202,266 L241.476569,256.662107 L240.032311,257.484739 L240.027469,256.145126 L241.472937,255.322494 L241.462041,251.713179 L242.683547,251.017105 Z M247.948489,248.143861 L247.955752,250.920992 L250.799475,249.3008 L250.801896,249.98374 C250.788579,250.850549 250.769209,251.643333 250.754682,252.362091 L250.754682,252.362091 L251.775226,251.553786 C252.156568,252.765647 252.580282,254.420463 252.730397,255.422188 L252.730397,255.422188 L251.610583,256.384513 C251.476205,255.391146 251.131182,253.772148 250.755893,252.536408 C250.645727,257.451906 250.511349,259.352676 250.104585,260.19083 C249.826144,260.840339 249.511386,261.160318 249.06346,261.486267 C248.841919,261.645063 248.552583,261.824155 248.228139,262.008024 C247.904907,262.191892 247.547777,262.384118 247.191857,262.567987 C247.159171,262.183535 247.027215,261.661778 246.80083,261.403884 C247.544145,261.043311 248.207559,260.682738 248.494474,260.519167 C248.741438,260.37828 248.880658,260.246946 249.012615,259.969949 C249.343111,259.316858 249.475067,257.117599 249.568284,251.405736 L249.568284,251.405736 L247.944857,252.331049 C247.860114,255.607251 247.292338,259.817123 244.231917,264.473533 C244.015217,264.272949 243.557607,264.059232 243.240427,264.028189 C246.091413,259.781305 246.645872,255.965436 246.739089,253.017571 L246.739089,253.017571 L244.466775,254.311814 L244.461932,252.910115 L246.742721,251.611096 L246.734247,248.835159 L247.948489,248.143861 Z M245.684164,255.248707 C245.387565,257.024113 244.88274,258.934435 244.26654,260.338522 C244.041367,260.272854 243.561965,260.178532 243.290788,260.157041 C243.875513,258.875931 244.311333,257.206787 244.5244,255.646293 L244.5244,255.646293 Z M256.795625,247.772423 L256.814995,254.158869 L258.33431,252.108854 C258.419053,252.428833 258.598223,252.90522 258.722916,253.115355 C256.364648,256.397527 255.885246,257.091213 255.670968,257.521035 L255.670968,257.521035 L255.670968,257.591479 L255.65523,257.565212 L255.639493,257.591479 L255.623755,257.521035 C255.461533,257.298961 255.15888,257.049425 254.933707,256.9754 C255.210937,256.555129 255.580173,255.782642 255.577751,254.940907 L255.577751,254.940907 L255.563224,249.860644 L253.777575,250.87789 L253.773943,249.494101 L256.795625,247.772423 Z M265.689612,239.041774 C265.166628,242.866 264.378521,246.482478 262.724828,249.950907 C263.703001,250.5443 264.902715,250.772345 266.373606,250.522809 C266.072164,250.993226 265.687191,251.808695 265.478966,252.295827 C264.010496,252.465368 262.824098,252.219414 261.862874,251.609305 C260.914967,253.261734 259.773362,254.842525 258.330315,256.418541 C258.152355,256.204824 257.795225,255.882457 257.531312,255.75948 C258.990097,254.218089 260.138966,252.625358 261.046923,250.984868 C259.540925,249.543769 258.652337,247.057963 258.054296,243.749524 L258.054296,243.749524 L259.244325,242.869582 C259.747939,245.714767 260.551784,247.977305 261.89435,249.300203 C263.318027,246.182796 263.99839,242.91734 264.41484,239.549203 L264.41484,239.549203 Z M235.890452,244.375154 L236.844412,244.797813 C236.121678,246.832306 235.214932,249.208269 234.401402,251.137694 L234.401402,251.137694 L233.322749,250.785479 C234.046693,249.189166 235.099924,246.606649 235.890452,244.375154 L235.890452,244.375154 Z M239.080046,241.821412 L239.084888,243.381906 C239.08973,245.062989 238.863346,247.235981 237.036536,249.759994 C236.857366,249.562992 236.432442,249.375542 236.137053,249.323008 C237.756849,247.138077 237.929966,245.363865 237.925124,243.997985 L237.925124,243.997985 L237.921492,242.481667 L239.080046,241.821412 Z M241.414706,240.510573 L241.432866,246.668973 L240.319105,247.301768 L240.300945,241.144561 L241.414706,240.510573 Z M255.492282,244.093382 C256.081849,244.494549 256.872378,245.044961 257.200453,245.524929 L257.200453,245.524929 L256.244071,246.93021 C255.894205,246.427556 255.179945,245.789986 254.567376,245.374491 L254.567376,245.374491 Z M243.818735,239.123679 L243.833263,243.968733 C243.834473,244.23976 243.849001,244.397362 243.903478,244.42721 C243.949481,244.453477 244.019697,244.422435 244.097176,244.378258 L244.097176,244.378258 L244.398617,244.207523 C244.499098,244.150214 244.591104,244.088128 244.645582,244.005746 C244.698849,243.930527 244.744852,243.781283 244.783591,243.523389 C244.798119,243.269078 244.812646,242.699563 244.817488,241.959313 C245.042662,242.067963 245.414319,242.058411 245.700023,242.019011 C245.687917,242.710308 245.635861,243.555626 245.566856,243.875605 C245.490588,244.225433 245.351367,244.507205 245.174618,244.738832 C244.996659,244.963295 244.702481,245.191339 244.455516,245.332225 L244.455516,245.332225 L243.776364,245.719066 C243.497924,245.877861 243.149268,245.970989 242.964045,245.865922 C242.737661,245.766824 242.668656,245.525646 242.666235,244.563321 L242.666235,244.563321 L242.651708,239.78871 L243.818735,239.123679 Z M261.521482,240.49338 C262.080784,241.220496 262.64856,242.273561 262.851942,243.02575 L262.851942,243.02575 L261.701863,244.260296 C261.505744,243.485422 260.969444,242.386986 260.456146,241.600173 L260.456146,241.600173 Z M233.669467,241.832277 C234.550791,241.716463 235.650025,241.7487 236.232328,241.952866 L236.232328,241.952866 L235.516858,243.57067 C234.981768,243.331879 233.881324,243.238751 233,243.293673 L233,243.293673 Z M245.356936,232.711444 L245.360568,234.017627 L240.823203,236.600143 C240.36196,237.56605 239.814765,238.676425 239.345048,239.582634 L239.345048,239.582634 L243.06162,237.23055 C242.767442,236.959523 242.449051,236.737448 242.177875,236.522536 L242.177875,236.522536 L243.118519,235.346494 C243.963524,235.874221 245.011912,236.681332 245.493735,237.310544 L245.493735,237.310544 L244.452611,238.658515 C244.31218,238.422113 244.095481,238.185711 243.830357,237.933787 C238.828745,241.187304 237.895712,241.800903 237.436078,242.218953 L237.382964,242.268337 C237.365864,242.28459 237.349291,242.300686 237.333015,242.316782 C237.277326,242.007549 237.096946,241.406991 236.995254,241.157455 C237.289433,240.911501 237.714357,240.555704 237.984323,240.139015 C238.16319,239.852467 238.558606,239.067593 238.965768,238.245781 L239.16938,237.833933 C239.236944,237.697049 239.303887,237.561274 239.36926,237.428745 L239.36926,237.428745 L236.865719,238.854323 L236.862087,237.549335 L240.587134,235.427683 C240.446703,234.972788 240.244531,234.465358 240.049623,234.09404 L240.049623,234.09404 L241.21544,233.122163 C241.480564,233.559149 241.752951,234.18478 241.90912,234.675494 L241.90912,234.675494 L245.356936,232.711444 Z M252.947702,231.32061 L252.951333,232.633956 L250.067661,234.275639 C249.755324,235.962693 249.265027,237.821675 248.789257,239.417988 L248.789257,239.417988 L251.631769,237.061128 C251.406595,236.461764 251.15721,235.824194 250.906614,235.307213 L250.906614,235.307213 L251.941685,234.410556 C252.479196,235.439742 253.06392,236.903526 253.298778,237.831226 L253.298778,237.831226 L252.203177,238.877128 C252.147489,238.645501 252.062746,238.378056 251.975582,238.085538 C248.37765,241.11698 247.859509,241.631573 247.5048,242.053038 L247.5048,242.053038 L247.5048,242.008862 L247.489062,242.061396 C247.418847,241.820218 247.208201,241.256673 247.083508,240.985646 C247.307471,240.761183 247.507221,240.244202 247.728763,239.555292 C247.889774,238.981002 248.433338,236.952478 248.761413,235.019471 L248.761413,235.019471 L246.945498,236.053433 L246.941867,234.740087 L252.947702,231.32061 Z M256.165139,224.890466 C256.167561,225.976962 256.155454,227.045548 256.134874,228.101001 L256.134874,228.101001 L259.134765,226.393651 C259.134765,226.418724 259.120238,226.902274 259.121448,227.102858 C258.977386,233.502437 258.828481,235.806763 258.367238,236.75476 C258.074271,237.376809 257.77404,237.706339 257.31764,238.044227 C257.122732,238.18392 256.863661,238.342715 256.571904,238.50748 C256.228091,238.704482 255.839485,238.908648 255.455722,239.104456 C255.421825,238.710452 255.265656,238.211381 255.063484,237.923638 C255.791061,237.570229 256.439948,237.201298 256.725652,237.03892 C256.745021,237.028175 256.764391,237.017429 256.78134,237.009072 C256.995618,236.886095 257.122732,236.763118 257.243793,236.507612 C257.5755,235.862878 257.730458,233.790179 257.855151,228.508138 L257.855151,228.508138 L256.085239,229.515833 C255.918175,233.471394 255.349188,237.226371 253.377105,240.498991 C253.182197,240.259007 252.739114,240.009471 252.407407,239.980816 C254.195477,237.085484 254.689406,233.777045 254.849206,230.220265 L254.849206,230.220265 L253.125298,231.201692 L253.121666,229.817903 L254.883104,228.81379 C254.910948,227.754755 254.907316,226.694526 254.904894,225.608031 L254.904894,225.608031 Z M234.290752,237.26792 C235.127284,237.255981 236.203516,237.406419 236.715604,237.694161 L236.715604,237.694161 L235.945656,239.272564 C235.465044,238.966913 234.419077,238.756778 233.574071,238.718571 L233.574071,238.718571 Z M269.635715,217 L269.6454,220.144868 L272.613815,218.455427 L272.617447,219.821307 L269.649032,221.511942 L269.657506,224.446674 L272.32448,222.927968 L272.328112,224.285491 L269.662349,225.804197 L269.672034,229.334711 L272.996368,227.441104 L273,228.816536 L264.575367,233.613832 L264.570524,232.2384 L268.388787,230.064215 L268.377892,226.534895 L265.588647,228.12285 L265.585015,226.765328 L268.37426,225.177372 L268.366996,222.24264 L266.581347,223.258693 C266.321066,224.284297 266.022045,225.253785 265.706076,226.072836 C265.443374,226.021496 264.878019,226.009556 264.560839,226.050151 C264.744852,225.638238 264.921601,225.177372 265.068085,224.681883 L265.068085,224.681883 L264.302979,225.537946 C264.178287,224.98634 263.819946,224.199526 263.47008,223.565538 L263.47008,223.565538 L263.501556,234.733759 L262.225573,235.459681 L262.185623,221.181217 L263.460395,220.456489 L263.468869,223.337493 L264.279978,222.49934 C264.62137,223.041394 265.011186,223.767316 265.183093,224.327279 C265.604385,222.868271 265.900984,221.232557 266.075312,219.668481 L266.075312,219.668481 L267.328293,219.183737 C267.230234,220.020697 267.084961,220.866014 266.916686,221.699392 L266.916686,221.699392 L268.363365,220.875566 L268.35368,217.730698 L269.635715,217 Z M252.689963,227.835108 L252.693595,229.11383 L247.406862,232.123781 L247.40323,230.845059 L252.689963,227.835108 Z M261.916141,224.441182 C261.849558,225.750947 261.607436,227.705445 261.27936,229.041476 L261.27936,229.041476 L260.319347,229.219375 C260.648633,227.97886 260.898018,226.125847 260.994867,224.807725 L260.994867,224.807725 Z" id="形状结合" fill="#FFFFFF"></path>
            </g>
        </g>
    </g>
</svg>