<?xml version="1.0" encoding="UTF-8"?>
<svg width="40px" height="40px" viewBox="0 0 40 40" version="1.1" xmlns="http://www.w3.org/2000/svg" xmlns:xlink="http://www.w3.org/1999/xlink">
    <title>img_footer_2</title>
    <g id="切图文件" stroke="none" stroke-width="1" fill="none" fill-rule="evenodd">
        <g id="官网---EN" transform="translate(-1274.000000, -4784.000000)" fill-rule="nonzero">
            <g id="编组-29" transform="translate(0.000000, 4597.000000)">
                <g id="社区" transform="translate(1226.000000, 187.000000)">
                    <g id="img_footer_2" transform="translate(48.000000, 0.000000)">
                        <circle id="Oval备份" fill-opacity="0.0786986451" fill="#242A47" cx="20" cy="20" r="20"></circle>
                        <path d="M13.5552781,18.6237391 L26.1173533,13.3626197 C26.2505202,13.3180339 26.428076,13.3180339 26.5168539,13.4072054 C26.6500208,13.496377 26.6944098,13.67472 26.6500208,13.8084773 L23.5427937,26.3816609 C23.4984048,26.5154182 23.4096269,26.6045897 23.27646,26.6491755 C23.1432931,26.6937612 23.0101262,26.6491755 22.9213483,26.5600039 L20.2136219,24.2861303 C20.036066,24.152373 19.8141212,24.152373 19.6809544,24.3307161 L18.3048967,25.7128745 C18.1717298,25.8466318 18.0385629,25.8466318 17.8610071,25.8020461 C17.7278402,25.7574603 17.6390623,25.5791173 17.6390623,25.44536 L17.6390623,22.5027 C17.6390623,22.4135285 17.6834512,22.2797712 17.7722292,22.2351855 L23.3652379,16.5282085 L16.7068942,21.5663991 C16.5737273,21.6555706 16.3517825,21.6555706 16.2186156,21.5663991 L13.4665002,19.2925254 C13.3777223,19.2033539 13.3333333,19.0695967 13.3333333,18.9358394 C13.3777223,18.8020821 13.4665002,18.6683248 13.5552781,18.6237391 Z" id="路径" fill="#525770"></path>
                    </g>
                </g>
            </g>
        </g>
    </g>
</svg>