<?xml version="1.0" encoding="UTF-8"?>
<svg width="40px" height="40px" viewBox="0 0 40 40" version="1.1" xmlns="http://www.w3.org/2000/svg" xmlns:xlink="http://www.w3.org/1999/xlink">
    <title>img_footer_5</title>
    <g id="切图文件" stroke="none" stroke-width="1" fill="none" fill-rule="evenodd">
        <g id="官网---EN" transform="translate(-1419.000000, -4784.000000)" fill-rule="nonzero">
            <g id="编组-29" transform="translate(0.000000, 4597.000000)">
                <g id="社区" transform="translate(1226.000000, 187.000000)">
                    <g id="img_footer_5" transform="translate(193.000000, 0.000000)">
                        <circle id="Oval备份-4" fill-opacity="0.0786986451" fill="#242A47" cx="20" cy="20" r="20"></circle>
                        <path d="M22.0691949,21.7134661 C21.4371257,21.7134661 20.924817,21.1612373 20.924817,20.4825946 C20.924817,19.8039518 21.4371257,19.251723 22.0691949,19.251723 C22.7012641,19.251723 23.2135729,19.8039518 23.2135729,20.4825946 C23.2069195,21.1612373 22.6946108,21.7134661 22.0691949,21.7134661 Z M17.8842315,21.7134661 C17.2521623,21.7134661 16.7398536,21.1612373 16.7398536,20.4825946 C16.7398536,19.8039518 17.2521623,19.251723 17.8842315,19.251723 C18.5163007,19.251723 19.0286095,19.8039518 19.0286095,20.4825946 C19.0286095,21.1612373 18.5163007,21.7134661 17.8842315,21.7134661 Z M26.247505,19.677538 C25.8483034,17.7879838 24.9833666,16.1978307 24.9833666,16.1978307 C23.3200266,14.9536524 21.7697937,15.0002259 21.7697937,15.0002259 L21.6699933,15.1665599 C23.4863606,15.592375 24.6307385,16.6369525 24.6307385,16.6369525 C23.1403859,15.7853224 21.1244178,15.4925746 19.9733866,15.4925746 C18.8223553,15.4925746 16.8063872,15.7853224 15.322688,16.6369525 C15.322688,16.6369525 16.4670659,15.592375 18.2834331,15.1665599 L18.1836327,15.0002259 C18.1836327,15.0002259 16.6267465,14.9536524 14.9700599,16.1978307 C14.9700599,16.1978307 14.1051231,17.7946371 13.7059215,19.677538 C13.3599468,21.3076112 13.3333333,22.7913104 13.3333333,22.7913104 C13.3333333,22.7913104 13.9254824,23.6296338 14.7970725,24.0421421 C15.6353959,24.4413437 16.2608117,24.5078773 16.7930805,24.5145307 L17.5715236,23.5830603 C17.5715236,23.5830603 16.2674651,23.1971654 15.582169,22.265695 C15.582169,22.265695 17.4251497,23.5431401 19.9800399,23.5431401 C22.5349301,23.5431401 24.3779109,22.265695 24.3779109,22.265695 C23.6926148,23.1971654 22.3885562,23.5830603 22.3885562,23.5830603 L23.1669993,24.5145307 C23.6992681,24.5078773 24.324684,24.4346904 25.1630073,24.0421421 C26.0345975,23.6296338 26.6267465,22.7913104 26.6267465,22.7913104 C26.6267465,22.7913104 26.5934797,21.3076112 26.247505,19.677538 L26.247505,19.677538 Z" id="形状" fill="#525770"></path>
                    </g>
                </g>
            </g>
        </g>
    </g>
</svg>