<?xml version="1.0" encoding="UTF-8"?>
<svg width="40px" height="40px" viewBox="0 0 40 40" version="1.1" xmlns="http://www.w3.org/2000/svg" xmlns:xlink="http://www.w3.org/1999/xlink">
    <title>img_footer_6</title>
    <g id="切图文件" stroke="none" stroke-width="1" fill="none" fill-rule="evenodd">
        <g id="官网---EN" transform="translate(-1468.000000, -4784.000000)" fill-rule="nonzero">
            <g id="编组-29" transform="translate(0.000000, 4597.000000)">
                <g id="社区" transform="translate(1226.000000, 187.000000)">
                    <g id="img_footer_6" transform="translate(242.000000, 0.000000)">
                        <circle id="Oval备份-4" fill-opacity="0.0786986451" fill="#242A47" cx="20" cy="20" r="20"></circle>
                        <g id="编组" transform="translate(14.166667, 14.166667)" fill="#525770">
                            <path d="M11.6243961,10.5676329 L8.97403381,10.5676329 L8.97403381,6.77596619 C8.97403381,5.78366547 8.55925422,5.1062802 7.64779589,5.1062802 C6.95033212,5.1062802 6.56197161,5.56333032 6.38179348,6.00400061 C6.31416063,6.1625151 6.32472826,6.38232186 6.32472826,6.60265701 L6.32472826,10.5676329 L3.69867149,10.5676329 C3.69867149,10.5676329 3.73248792,3.8513738 3.69867149,3.24056462 L6.32472826,3.24056462 L6.32472826,4.39085145 C6.47954408,3.88783213 7.31808574,3.17028986 8.65806159,3.17028986 C10.3192935,3.17028986 11.6243961,4.22441123 11.6243961,6.49381039 L11.6243961,10.5676329 Z M1.31461352,2.64190822 L1.29876207,2.64190822 C0.51094504,2.64190822 0,2.05963165 0,1.32201087 C0,0.570123801 0.52573973,0 1.32940821,0 C2.1325483,0 2.62605676,0.568538656 2.64190821,1.31989735 C2.64190821,2.05751812 2.1325483,2.64190822 1.31461352,2.64190822 Z M0.528381634,3.17028986 L2.64190821,3.17028986 L2.64190821,10.5676329 L0.528381634,10.5676329 L0.528381634,3.17028986 Z" id="形状"></path>
                        </g>
                    </g>
                </g>
            </g>
        </g>
    </g>
</svg>