<?xml version="1.0" encoding="UTF-8"?>
<svg width="40px" height="40px" viewBox="0 0 40 40" version="1.1" xmlns="http://www.w3.org/2000/svg" xmlns:xlink="http://www.w3.org/1999/xlink">
    <title>img_footer_8</title>
    <g id="切图文件" stroke="none" stroke-width="1" fill="none" fill-rule="evenodd">
        <g id="官网---CN" transform="translate(-1520.000000, -4784.000000)" fill-rule="nonzero">
            <g id="编组-29" transform="translate(0.000000, 4597.000000)">
                <g id="社区" transform="translate(1182.000000, 187.000000)">
                    <g id="img_footer_7备份" transform="translate(338.000000, 0.000000)">
                        <circle id="Oval备份-4" fill-opacity="0.0786986451" fill="#242A47" cx="20" cy="20" r="20"></circle>
                        <path d="M22.47625,17.450125 C22.63725,17.450125 22.795625,17.462375 22.954875,17.479875 C22.526125,15.483125 20.392,14 17.955125,14 C15.23125,14 13,15.855875 13,18.214 C13,19.574625 13.742,20.692 14.98275,21.56 L14.4875,23.050125 L16.22,22.182125 C16.8395,22.30375 17.3365,22.42975 17.955125,22.42975 C18.110875,22.42975 18.264875,22.42275 18.417125,22.411375 C18.320875,22.07975 18.264,21.73325 18.264,21.371875 C18.264875,19.207125 20.123375,17.450125 22.47625,17.450125 Z M19.81275,16.107 C20.18725,16.107 20.433125,16.352875 20.433125,16.725625 C20.433125,17.096625 20.18725,17.345125 19.81275,17.345125 C19.442625,17.345125 19.069875,17.096625 19.069875,16.725625 C19.069875,16.352 19.44175,16.107 19.81275,16.107 Z M16.345125,17.345125 C15.97325,17.345125 15.59875,17.096625 15.59875,16.725625 C15.59875,16.352875 15.97325,16.107 16.345125,16.107 C16.717,16.107 16.96375,16.352 16.96375,16.725625 C16.96375,17.096625 16.717,17.345125 16.345125,17.345125 Z M27,21.312375 C27,19.331375 25.01725,17.717 22.790375,17.717 C20.43225,17.717 18.576375,19.33225 18.576375,21.312375 C18.576375,23.298625 20.433125,24.90775 22.790375,24.90775 C23.283875,24.90775 23.78175,24.784375 24.277,24.660125 L25.635875,25.405625 L25.263125,24.166625 C26.258,23.419375 27,22.42975 27,21.312375 Z M21.423625,20.692 C21.17775,20.692 20.928375,20.447 20.928375,20.19675 C20.928375,19.95 21.17775,19.7015 21.423625,19.7015 C21.799875,19.7015 22.044,19.95 22.044,20.19675 C22.044,20.447 21.799875,20.692 21.423625,20.692 Z M24.14925,20.692 C23.905125,20.692 23.656625,20.447 23.656625,20.19675 C23.656625,19.95 23.90425,19.7015 24.14925,19.7015 C24.522,19.7015 24.769625,19.95 24.769625,20.19675 C24.769625,20.447 24.522,20.692 24.14925,20.692 Z" id="形状" fill="#525770"></path>
                    </g>
                </g>
            </g>
        </g>
    </g>
</svg>