<?xml version="1.0" encoding="UTF-8"?>
<svg width="40px" height="40px" viewBox="0 0 40 40" version="1.1" xmlns="http://www.w3.org/2000/svg" xmlns:xlink="http://www.w3.org/1999/xlink">
    <title>img_footer_4</title>
    <g id="切图文件" stroke="none" stroke-width="1" fill="none" fill-rule="evenodd">
        <g id="官网---EN" transform="translate(-1371.000000, -4784.000000)" fill-rule="nonzero">
            <g id="编组-29" transform="translate(0.000000, 4597.000000)">
                <g id="社区" transform="translate(1226.000000, 187.000000)">
                    <g id="img_footer_4" transform="translate(145.000000, 0.000000)">
                        <circle id="Oval备份-3" fill-opacity="0.0786986451" fill="#242A47" cx="20" cy="20" r="20"></circle>
                        <path d="M24.5343407,15.00017 C25.2214465,15.0009048 25.7782725,15.5577308 25.7790074,16.2448366 C25.7782725,16.9319424 25.2214465,17.4887684 24.5343407,17.4895033 C23.8913407,17.4895033 23.3670074,16.9985033 23.3023407,16.3718366 L23.3023407,16.3718366 L21.2770074,15.8988366 L20.5806741,17.5318366 C21.8710074,17.6285033 23.0840074,18.0118366 24.0100074,18.65517 C24.2940074,18.4385033 24.6413407,18.31917 25.0073407,18.31917 C25.9233844,18.3200887 26.6657554,19.0624596 26.6666788,19.9785033 C26.6681586,20.5970252 26.3225879,21.1637457 25.7723407,21.4455033 C25.7763407,21.50917 25.7790074,21.57317 25.7790074,21.6378366 C25.7790074,23.9255033 23.1726741,25.7865033 19.9710074,25.7865033 C16.7683407,25.7865033 14.1630074,23.9255033 14.1630074,21.63817 C14.1630074,21.5625033 14.1653407,21.4878366 14.1720074,21.4148366 C13.6529121,21.1233222 13.3320791,20.5738511 13.333337,19.9785033 C13.3342594,19.0624596 14.0766304,18.3200887 14.9926741,18.31917 C15.3421468,18.3167091 15.6831092,18.4269345 15.9650074,18.6335033 C16.9673407,17.9498366 18.2946741,17.5575033 19.6880074,17.50917 L19.6880074,17.50917 L20.6506741,15.2525033 C20.7296837,15.0666282 20.9311189,14.9647141 21.1276741,15.01117 L21.1276741,15.01117 L23.4946741,15.5645033 C23.7236393,15.2128338 24.1147023,15.0005639 24.5343407,15.00017 Z M21.8140993,23.259382 C21.6783989,23.198852 21.5206838,23.2155564 21.4006741,23.30317 C20.5481498,23.9220509 19.3941983,23.9220509 18.5416741,23.30317 C18.4216328,23.2162353 18.2643311,23.1999456 18.1290228,23.2604371 C17.9937146,23.3209285 17.9009565,23.449011 17.8856895,23.5964371 C17.8704225,23.7438632 17.9349661,23.8882353 18.0550074,23.97517 C19.1980977,24.8033562 20.7439171,24.8033562 21.8870074,23.97517 C22.0074633,23.8886342 22.0727182,23.7440835 22.0577294,23.5962532 C22.0427407,23.4484229 21.9497997,23.3199119 21.8140993,23.259382 Z M17.8970074,20.39317 C17.4388395,20.393721 17.0675584,20.765002 17.0670074,21.22317 L17.0670074,21.22317 L17.0735455,21.3268855 C17.1249946,21.735885 17.4737998,22.0523277 17.8966741,22.0528366 C18.3546579,22.0522856 18.7257897,21.6811538 18.7263407,21.22317 C18.7257906,20.7652618 18.3549149,20.394088 17.8970074,20.39317 Z M22.0453407,20.3935033 C21.5962847,20.4062338 21.2388614,20.7739335 21.2388614,21.22317 C21.2388614,21.6724064 21.5962847,22.0401061 22.0453407,22.0528366 C22.4943968,22.0401061 22.85182,21.6724064 22.85182,21.22317 C22.85182,20.7739335 22.4943968,20.4062338 22.0453407,20.3935033 Z M24.5343407,15.83017 C24.3060074,15.83017 24.1193407,16.0158366 24.1193407,16.2448366 C24.1197078,16.4738826 24.3052948,16.6594696 24.5343407,16.6598366 C24.7623407,16.6598366 24.9490074,16.4738366 24.9490074,16.2448366 C24.9490074,16.0158366 24.7623407,15.83017 24.5343407,15.83017 Z" id="形状结合" fill="#525770"></path>
                    </g>
                </g>
            </g>
        </g>
    </g>
</svg>