<?xml version="1.0" encoding="UTF-8"?>
<svg width="40px" height="40px" viewBox="0 0 40 40" version="1.1" xmlns="http://www.w3.org/2000/svg" xmlns:xlink="http://www.w3.org/1999/xlink">
    <title>img_footer_3</title>
    <g id="切图文件" stroke="none" stroke-width="1" fill="none" fill-rule="evenodd">
        <g id="官网---EN" transform="translate(-1323.000000, -4784.000000)" fill-rule="nonzero">
            <g id="编组-29" transform="translate(0.000000, 4597.000000)">
                <g id="社区" transform="translate(1226.000000, 187.000000)">
                    <g id="img_footer_3" transform="translate(97.000000, 0.000000)">
                        <circle id="Oval备份-2" fill-opacity="0.0786986451" fill="#242A47" cx="20" cy="20" r="20"></circle>
                        <path d="M18.3310099,16.9740479 L18.3310099,25.15625 C18.3310099,25.2725098 18.301945,25.3713298 18.2438151,25.45271 C18.1856852,25.5340902 18.1008179,25.5747803 17.9892131,25.5747803 C17.9101603,25.5747803 17.833431,25.5561768 17.7590251,25.5189697 L14.5154215,23.8937134 C14.4177653,23.8472046 14.3352254,23.7693115 14.2678019,23.6600342 C14.2003784,23.5507568 14.1666667,23.442631 14.1666667,23.3356567 L14.1666667,15.3836548 C14.1666667,15.2906453 14.189917,15.2115885 14.2364176,15.1464844 C14.2829183,15.0813802 14.3503499,15.0488281 14.4387126,15.0488281 C14.5038167,15.0488281 14.6061239,15.0837077 14.745634,15.1534668 L18.3100871,16.9391724 C18.3240356,16.9531291 18.3310099,16.9647542 18.3310099,16.9740479 Z M18.7774333,17.6785767 L22.5023234,23.7193115 L18.7774333,21.8638428 L18.7774333,17.6785767 Z M26.6666667,17.8041138 L26.6666667,25.1562378 C26.6666667,25.2724976 26.6341146,25.3666667 26.5690104,25.4387451 C26.5039062,25.5108236 26.4155518,25.5468628 26.3039469,25.5468628 C26.1923421,25.5468628 26.0830607,25.5166382 25.9761027,25.456189 L22.8999308,23.921582 L26.6666667,17.8041138 Z M26.6457438,16.9670776 C26.6457438,16.9810262 26.0493408,17.956425 24.8565348,19.8932739 C23.6637288,21.8301229 22.9650228,22.9636353 22.7604167,23.293811 L20.0399943,18.8713745 L22.3000407,15.1953125 C22.3790934,15.0651042 22.5,15 22.6627604,15 C22.7278646,15 22.7883179,15.0139526 22.8441203,15.0418579 L26.6178385,16.9252075 C26.6364421,16.9345093 26.6457438,16.9484619 26.6457438,16.9670654 L26.6457438,16.9670776 Z" id="形状" fill="#525770"></path>
                    </g>
                </g>
            </g>
        </g>
    </g>
</svg>