<?xml version="1.0" encoding="UTF-8"?>
<svg width="40px" height="40px" viewBox="0 0 40 40" version="1.1" xmlns="http://www.w3.org/2000/svg" xmlns:xlink="http://www.w3.org/1999/xlink">
    <title>img_footer_7</title>
    <g id="切图文件" stroke="none" stroke-width="1" fill="none" fill-rule="evenodd">
        <g id="官网---EN" transform="translate(-1516.000000, -4784.000000)" fill-rule="nonzero">
            <g id="编组-29" transform="translate(0.000000, 4597.000000)">
                <g id="社区" transform="translate(1226.000000, 187.000000)">
                    <g id="img_footer_7" transform="translate(290.000000, 0.000000)">
                        <circle id="Oval备份-4" fill-opacity="0.0786986451" fill="#242A47" cx="20" cy="20" r="20"></circle>
                        <path d="M24.8483099,15.2954335 L23.9634934,15.2045277 C21.3160477,14.9318241 18.64759,14.9318241 16.0001443,15.2045277 L15.1516901,15.2954335 C14.104163,15.4138308 13.3175474,16.3079506 13.3335739,17.3620256 L13.3335739,22.3315432 C13.3175474,23.3856182 14.104163,24.279738 15.1516901,24.3981353 L16.0365066,24.4890411 C18.6839523,24.7617447 21.35241,24.7617447 23.9998557,24.4890411 L24.8483099,24.3981353 C25.895837,24.279738 26.6824526,23.3856182 26.6664261,22.3315432 L26.6664261,17.3620256 C26.6824526,16.3079506 25.895837,15.4138308 24.8483099,15.2954335 L24.8483099,15.2954335 Z M21.8181162,20.2225284 L19.4606255,21.7982291 C19.3233531,21.8735919 19.1569536,21.8729834 19.0202361,21.7966186 C18.8835185,21.7202539 18.7957397,21.5788889 18.7879225,21.4224851 L18.7879225,18.2710837 C18.7882291,18.1030838 18.8811789,17.9489529 19.0296246,17.8702893 C19.1780702,17.7916258 19.3578011,17.8012593 19.4969879,17.8953397 L21.8544785,19.4710404 C21.9815107,19.5538121 22.0581196,19.6951654 22.0581196,19.8467844 C22.0581196,19.9984034 21.9815107,20.1397567 21.8544785,20.2225284 L21.8181162,20.2225284 Z" id="形状" fill="#525770"></path>
                    </g>
                </g>
            </g>
        </g>
    </g>
</svg>