<?xml version="1.0" encoding="UTF-8"?>
<svg width="40px" height="40px" viewBox="0 0 40 40" version="1.1" xmlns="http://www.w3.org/2000/svg" xmlns:xlink="http://www.w3.org/1999/xlink">
    <title>img_footer_1</title>
    <g id="切图文件" stroke="none" stroke-width="1" fill="none" fill-rule="evenodd">
        <g id="官网---EN" transform="translate(-1226.000000, -4784.000000)" fill-rule="nonzero">
            <g id="编组-29" transform="translate(0.000000, 4597.000000)">
                <g id="img_footer_1" transform="translate(1226.000000, 187.000000)">
                    <circle id="Oval" fill-opacity="0.0786986451" fill="#242A47" cx="20" cy="20" r="20"></circle>
                    <path d="M26.6666667,15.45 C26.1766667,15.6677778 25.6488889,15.8144444 25.0955556,15.8811111 C25.6611111,15.5422222 26.0933333,15.0066667 26.2988889,14.3677778 C25.77,14.6811111 25.1844444,14.9088889 24.5611111,15.0311111 C24.0633333,14.4988889 23.3511111,14.1666667 22.5655556,14.1666667 C20.7988889,14.1666667 19.5011111,15.8144444 19.9,17.5255556 C17.6277778,17.4111111 15.6111111,16.3222222 14.2622222,14.6677778 C13.5455556,15.8966667 13.8911111,17.5055556 15.1088889,18.32 C14.6611111,18.3055556 14.24,18.1822222 13.8711111,17.9777778 C13.8411111,19.2444444 14.75,20.43 16.0655556,20.6944444 C15.6811111,20.7988889 15.2588889,20.8233333 14.83,20.7411111 C15.1777778,21.8277778 16.19,22.6177778 17.3855556,22.64 C16.2333333,23.5422222 14.7855556,23.9455556 13.3333333,23.7744444 C14.5444444,24.5511111 15.9811111,25.0033333 17.5255556,25.0033333 C22.6055556,25.0033333 25.4744444,20.7133333 25.3011111,16.8655556 C25.8366667,16.4811111 26.3,15.9988889 26.6666667,15.45 L26.6666667,15.45 Z" id="twitter" fill="#525770"></path>
                </g>
            </g>
        </g>
    </g>
</svg>