<?xml version="1.0" encoding="UTF-8"?>
<svg width="120px" height="66px" viewBox="0 0 120 66" version="1.1" xmlns="http://www.w3.org/2000/svg" xmlns:xlink="http://www.w3.org/1999/xlink">
    <title>kuangchi-1</title>
    <defs>
        <linearGradient x1="25.0959693%" y1="6.90978887%" x2="75%" y2="93.2821497%" id="linearGradient-1">
            <stop stop-color="#00EBA9" offset="0%"></stop>
            <stop stop-color="#02C18C" offset="100%"></stop>
        </linearGradient>
        <linearGradient x1="49.9993246%" y1="-13.6739399%" x2="49.9993246%" y2="110.652205%" id="linearGradient-2">
            <stop stop-color="#F9A606" offset="0%"></stop>
            <stop stop-color="#FBCC5F" offset="100%"></stop>
        </linearGradient>
    </defs>
    <g id="切图文件" stroke="none" stroke-width="1" fill="none" fill-rule="evenodd">
        <g id="kuangchi-1" transform="translate(0.000000, 1.000000)">
            <circle id="椭圆形" stroke="#ECECEC" fill="#FFFFFF" fill-rule="nonzero" cx="32.231405" cy="32.231405" r="31.7355372"></circle>
            <circle id="椭圆形" fill="url(#linearGradient-1)" fill-rule="nonzero" cx="32.7371901" cy="25.8545455" r="10.3338843"></circle>
            <path d="M37.8049587,25.3884298 C36.9019026,25.0377976 35.9535603,24.8174082 34.9884298,24.7338843 C34.046281,24.6446281 34.046281,24.6446281 34.1454545,23.7421488 C34.1454545,23.4644628 34.2347107,23.3652893 34.522314,23.3652893 L37.1504132,23.3652893 C37.2266592,23.37515 37.3031658,23.3490819 37.3575288,23.2947189 C37.4118918,23.2403559 37.4379599,23.1638492 37.4280992,23.0876033 L37.4280992,21.5305785 C37.4280992,21.2528926 37.338843,21.153719 37.0512397,21.153719 L28.6016529,21.153719 C28.3239669,21.153719 28.2247934,21.2429752 28.2247934,21.5305785 L28.2247934,23.0380165 C28.2247934,23.3157025 28.3140496,23.414876 28.6016529,23.3157025 L30.6644628,23.3157025 C31.6066116,23.3157025 31.6066116,23.3157025 31.6066116,24.2578512 C31.6066116,24.5355372 31.5173554,24.6347107 31.2297521,24.6347107 C30.0737382,24.6615937 28.9304949,24.8828666 27.8479339,25.2892562 C27.4710744,25.477686 26.9057851,25.5669421 27.0049587,26.1322314 C27.1041322,26.6975207 27.4710744,26.7867769 27.8479339,26.8859504 C28.9328831,27.2838183 30.074702,27.5048155 31.2297521,27.5404959 C31.507438,27.5404959 31.6066116,27.6297521 31.6066116,27.9173554 L31.6066116,31.6760331 C31.6066116,32.0528926 31.6958678,32.0528926 31.9834711,32.0528926 L33.768595,32.0528926 C34.046281,32.0528926 34.1454545,31.9636364 34.1454545,31.6760331 L34.1454545,27.8280992 C34.1454545,27.5504132 34.2347107,27.4512397 34.522314,27.4512397 C35.6773641,27.4155593 36.819183,27.1945621 37.9041322,26.7966942 C38.2809917,26.6082645 38.7471074,26.5190083 38.7471074,26.0429752 C38.7471074,25.5669421 38.1818182,25.5768595 37.8049587,25.3884298 Z M37.8942149,26.3801653 C37.2658979,26.6404771 36.5907489,26.7687554 35.9107438,26.7570248 C34.9190083,26.846281 33.8479339,26.9454545 32.8066116,26.9454545 C31.2644589,26.9600239 29.7241922,26.8338813 28.2049587,26.568595 C28.0165289,26.4793388 27.738843,26.4793388 27.5504132,26.3801653 C27.3619835,26.2809917 27.3619835,26.1917355 27.5504132,26.1024793 C27.8542265,25.8955768 28.1889755,25.7382448 28.5421488,25.6363636 C29.4486261,25.3580226 30.3833377,25.1817247 31.3289256,25.1107438 C31.6066116,25.1107438 31.6066116,25.2 31.6066116,25.3884298 L31.6066116,26.5190083 C31.5967509,26.5952542 31.6228189,26.6717608 31.677182,26.7261238 C31.731545,26.7804869 31.8080516,26.8065549 31.8842975,26.7966942 C32.5731079,26.7817713 33.2621605,26.811586 33.9471074,26.8859504 C34.2247934,26.8859504 34.2247934,26.7966942 34.2247934,26.6082645 L34.2247934,25.477686 C34.2247934,25.2892562 34.2247934,25.2 34.4132231,25.2 C35.6212555,25.2808924 36.8011512,25.6011498 37.8842975,26.1421488 L37.9735537,26.1421488 C38.0628099,26.231405 38.2512397,26.231405 38.2512397,26.4198347 C38.1485788,26.3421443 38.0067931,26.3421443 37.9041322,26.4198347 L37.8942149,26.3801653 Z" id="形状" fill="#FDFDFD" fill-rule="nonzero"></path>
            <circle id="椭圆形" fill="#F9FAFB" fill-rule="nonzero" cx="41.3752066" cy="39.0049587" r="10.3338843"></circle>
            <g id="编组-27" transform="translate(56.000000, 0.000000)">
                <circle id="椭圆形" stroke="#ECECEC" fill="#FFFFFF" fill-rule="nonzero" cx="31.7355372" cy="31.7355372" r="31.7355372"></circle>
                <g id="编组-15" transform="translate(20.000000, 18.000000)">
                    <path d="M2.96984659e-13,22.3388017 L2.96984659e-13,5.23449143 L11.0645259,5.23449143 C15.2488706,5.23449143 18.6529841,8.78740336 18.6529841,13.1543405 C18.6529841,17.521365 15.2488706,21.074277 11.0645259,21.074277 L9.73573142,21.074277 L9.73573142,17.7107687 L11.0645259,17.7107687 C13.4618922,17.7107687 15.4123393,15.6667986 15.4123393,13.1543405 C15.4123393,10.6420571 13.4618922,8.59808704 11.0645259,8.59808704 L3.24055747,8.59808704 L3.24055747,22.3388017 L2.96984659e-13,22.3388017 Z" id="Fill-13" fill="#FA9B00"></path>
                    <path d="M4.96896831,26.6504634 L4.96896831,10.6295699 L8.2096131,10.6295699 L8.2096131,23.2868678 L11.9995197,23.2868678 C17.2484195,23.2868678 21.5187774,18.8181993 21.5187774,13.3252317 C21.5187774,7.83235143 17.2484195,3.36350829 11.9995197,3.36350829 L4.2760601,3.36350829 L4.2760601,8.32667268e-15 L11.9995197,8.32667268e-15 C19.0353978,8.32667268e-15 24.7595095,5.9776977 24.7595095,13.3251444 C24.7595095,20.6727657 19.0353978,26.6504634 11.9995197,26.6504634 L4.96896831,26.6504634 Z" id="Fill-15" fill="#242A47"></path>
                </g>
            </g>
            <path d="M41.3752066,49.2397125 C45.5557747,49.2397125 49.3245098,46.720823 50.9234159,42.8580974 C52.5223221,38.9953718 51.6363796,34.5498069 48.6788527,31.5951183 C45.7213258,28.6404297 41.2749123,27.7587561 37.4137236,29.3613703 C33.552535,30.9639844 31.0373103,34.7351363 31.0413031,38.9157025 C31.0360338,41.6571264 32.1233989,44.2876468 34.0628123,46.225199 C36.0022258,48.1627513 38.633789,49.2475901 41.3752066,49.2397125 L41.3752066,49.2397125 Z" id="路径" stroke="#FFFFFF" stroke-width="0.5" fill="url(#linearGradient-2)" fill-rule="nonzero"></path>
            <path d="M47.2958678,37.3190083 L46.0760331,37.3190083 C45.3135001,35.3096131 43.3433216,34.0201874 41.1966942,34.1256198 L37.2297521,34.1256198 L37.2297521,37.3190083 L35.831405,37.3190083 L35.831405,38.4495868 L37.2396694,38.4495868 L37.2396694,39.6694215 L35.831405,39.6694215 L35.831405,40.8 L37.2396694,40.8 L37.2396694,43.9041322 L41.2066116,43.9041322 C43.3147822,43.9645015 45.2472565,42.7351021 46.0859504,40.8 L47.2958678,40.8 L47.2958678,39.6595041 L46.353719,39.6595041 L46.353719,38.9950413 L46.353719,38.9950413 L46.353719,38.4297521 L47.2958678,38.4297521 L47.2958678,37.3190083 Z M38.3702479,35.1570248 L41.1867769,35.1570248 C42.7360923,35.0525671 44.1901517,35.911605 44.846281,37.3190083 L38.3702479,37.3190083 L38.3702479,35.1570248 Z M41.1867769,42.8628099 L38.3702479,42.8628099 L38.3702479,40.7900826 L44.8561983,40.7900826 C44.116821,42.1115455 42.7000198,42.9080176 41.1867769,42.8528926 L41.1867769,42.8628099 Z M45.2330579,38.9950413 L45.2330579,39.5603306 L38.4694215,39.5603306 L38.4694215,38.3504132 L45.322314,38.3504132 C45.2532044,38.5613976 45.2229622,38.7831736 45.2330579,39.0049587 L45.2330579,38.9950413 Z" id="形状" fill="#FFFFFF" fill-rule="nonzero"></path>
            <circle id="椭圆形" stroke="#FFFFFF" stroke-width="0.5" fill="#2674CA" fill-rule="nonzero" cx="24.3768595" cy="39.0049587" r="10.3338843"></circle>
            <path d="M16.6710744,39.292562 C16.5457912,39.2982657 16.4238899,39.2509914 16.3352096,39.1623111 C16.2465292,39.0736307 16.199255,38.9517295 16.2049587,38.8264463 C16.2021335,35.4437652 18.2960734,32.4134784 21.461157,31.2198347 C21.6167889,31.149509 21.7989081,31.1741689 21.9302338,31.2833501 C22.0615595,31.3925314 22.1190597,31.5670857 22.0783348,31.7329425 C22.0376098,31.8987993 21.9058021,32.0268704 21.738843,32.0628099 C18.9115478,33.1123263 17.0361792,35.8106414 17.0380165,38.8264463 C17.0615094,39.0553767 16.8991219,39.2616527 16.6710744,39.292562 L16.6710744,39.292562 Z" id="路径" fill="#FFFFFF" fill-rule="nonzero"></path>
            <path d="M32.122314,39.292562 C31.9970309,39.2982657 31.8751296,39.2509914 31.7864493,39.1623111 C31.6977689,39.0736307 31.6504947,38.9517295 31.6561983,38.8264463 C31.6683153,35.8911095 29.8876669,33.245687 27.1636364,32.1520661 C27.0289974,32.0847467 26.9405004,31.9507119 26.9314813,31.8004514 C26.9224622,31.6501909 26.9942912,31.5065329 27.1199111,31.4235919 C27.2455309,31.3406509 27.4058569,31.3310276 27.5404959,31.3983471 C30.5272886,32.698904 32.4480723,35.6581602 32.4198347,38.9157025 C32.5487603,39.1041322 32.3603306,39.292562 32.122314,39.292562 Z" id="路径" fill="#FFFFFF" fill-rule="nonzero"></path>
            <path d="M16.6710744,39.292562 C16.5457912,39.2982657 16.4238899,39.2509914 16.3352096,39.1623111 C16.2465292,39.0736307 16.199255,38.9517295 16.2049587,38.8264463 C16.2021335,35.4437652 18.2960734,32.4134784 21.461157,31.2198347 C21.6167889,31.149509 21.7989081,31.1741689 21.9302338,31.2833501 C22.0615595,31.3925314 22.1190597,31.5670857 22.0783348,31.7329425 C22.0376098,31.8987993 21.9058021,32.0268704 21.738843,32.0628099 C18.9115478,33.1123263 17.0361792,35.8106414 17.0380165,38.8264463 C17.0615094,39.0553767 16.8991219,39.2616527 16.6710744,39.292562 L16.6710744,39.292562 Z" id="路径" fill="#FFFFFF" fill-rule="nonzero"></path>
            <path d="M32.122314,39.292562 C31.9970309,39.2982657 31.8751296,39.2509914 31.7864493,39.1623111 C31.6977689,39.0736307 31.6504947,38.9517295 31.6561983,38.8264463 C31.6683153,35.8911095 29.8876669,33.245687 27.1636364,32.1520661 C27.0289974,32.0847467 26.9405004,31.9507119 26.9314813,31.8004514 C26.9224622,31.6501909 26.9942912,31.5065329 27.1199111,31.4235919 C27.2455309,31.3406509 27.4058569,31.3310276 27.5404959,31.3983471 C30.5272886,32.698904 32.4480723,35.6581602 32.4198347,38.9157025 C32.5487603,39.1041322 32.3603306,39.292562 32.122314,39.292562 Z" id="路径" fill="#FFFFFF" fill-rule="nonzero"></path>
            <path d="M21.5603306,46.7107438 L21.3719008,46.7107438 C18.2321306,45.4849036 16.1519451,42.4745221 16.1157025,39.1041322 C16.1157025,38.843965 16.3266097,38.6330579 16.5867769,38.6330579 C16.8469441,38.6330579 17.0578512,38.843965 17.0578512,39.1041322 C17.0560139,42.1199372 18.9313825,44.8182523 21.7586777,45.8677686 C21.9471074,45.9570248 22.1355372,46.2446281 22.0363636,46.4330579 C21.9445956,46.6097532 21.7593087,46.7178372 21.5603306,46.7107438 L21.5603306,46.7107438 Z" id="路径" fill="#FFFFFF" fill-rule="nonzero"></path>
            <path d="M27.3818182,46.6115702 C27.1933884,46.6115702 27.0049587,46.522314 27.0049587,46.3338843 C26.9190375,46.1247944 26.9991975,45.8843142 27.1933884,45.768595 C29.8564646,44.6195094 31.5881417,42.0044825 31.6066116,39.1041322 C31.6066116,38.843965 31.8175188,38.6330579 32.077686,38.6330579 C32.3378531,38.6330579 32.5487603,38.843965 32.5487603,39.1041322 C32.5384291,42.3503124 30.6301328,45.2903299 27.6694215,46.6214876 L27.3818182,46.6115702 Z" id="路径" fill="#FFFFFF" fill-rule="nonzero"></path>
            <path d="M26.1719008,41.4446281 C26.1464394,41.0672822 25.9800649,40.7132938 25.7057851,40.4528926 C25.3060594,40.088858 24.8221381,39.8298579 24.2975207,39.6991736 C23.5125861,39.4968651 22.7923127,39.0974718 22.2049587,38.538843 C21.3133492,37.4445768 21.3133492,35.8744314 22.2049587,34.7801653 C22.6833903,34.2994585 23.3148992,34.0012459 23.9900826,33.9371901 L23.9900826,32.4297521 L24.9818182,32.4297521 L24.9818182,33.9371901 C25.6801647,33.9956117 26.3246521,34.3357578 26.7669421,34.8793388 C27.190951,35.4838214 27.4194015,36.2037869 27.4214876,36.9421488 L26.1719008,36.9421488 C26.1755203,36.4342578 26.0117037,35.9393225 25.7057851,35.5338843 C25.4223752,35.1495229 24.9624128,34.9363695 24.4859504,34.968595 C24.0446236,34.9191109 23.6026257,35.0556631 23.2661157,35.3454545 C23.0542493,35.7557744 22.9261424,36.2041487 22.8892562,36.6644628 C22.8492053,37.0362663 22.989256,37.4048208 23.2661157,37.6561983 C23.6911986,38.0391215 24.2121654,38.2996049 24.7735537,38.4099174 C25.5449088,38.6082783 26.2541659,38.9970058 26.8363636,39.5404959 C27.2973005,40.0161192 27.5351387,40.6647688 27.4909091,41.3256198 C27.5339017,42.0130447 27.2979336,42.6887716 26.8363636,43.2 C26.2928656,43.7023454 25.5917574,44.0003163 24.8528926,44.0429752 L24.8528926,45.3619835 L23.861157,45.3619835 L23.861157,44.0826446 C23.1601552,44.0173426 22.5007689,43.7207932 21.9867769,43.2396694 C21.4474968,42.649095 21.1686853,41.8662781 21.2132231,41.0677686 L22.5024793,41.0677686 C22.4501209,41.6303017 22.6584357,42.1858078 23.0677686,42.5752066 C23.4384562,42.8817173 23.9058119,43.0468731 24.3867769,43.0413223 C24.8849306,43.0746204 25.3800985,42.9421107 25.7950413,42.6644628 C26.0848328,42.3279528 26.2213849,41.8859549 26.1719008,41.4446281 Z" id="路径" fill="#FFFFFF" fill-rule="nonzero"></path>
        </g>
    </g>
</svg>