<?xml version="1.0" encoding="UTF-8"?>
<svg width="16px" height="16px" viewBox="0 0 16 16" version="1.1" xmlns="http://www.w3.org/2000/svg" xmlns:xlink="http://www.w3.org/1999/xlink">
    <title>LinkedIn</title>
    <g id="主页面" stroke="none" stroke-width="1" fill="none" fill-rule="evenodd">
        <g id="下拉菜单" transform="translate(-1074.000000, -205.000000)" fill="#999DAB" fill-rule="nonzero">
            <g id="切换语言下拉菜单" transform="translate(950.000000, 82.000000)">
                <g id="编组" transform="translate(126.000000, 126.000000)">
                    <path d="M11.9565217,10.8695652 L9.23043477,10.8695652 L9.23043477,6.96956523 C9.23043477,5.94891305 8.80380434,5.25217392 7.86630434,5.25217392 C7.14891304,5.25217392 6.74945652,5.72228262 6.56413043,6.17554349 C6.49456522,6.33858697 6.50543478,6.56467392 6.50543478,6.79130435 L6.50543478,10.8695652 L3.80434782,10.8695652 C3.80434782,10.8695652 3.83913043,3.96141305 3.80434782,3.33315218 L6.50543478,3.33315218 L6.50543478,4.51630435 C6.66467391,3.99891305 7.52717391,3.26086957 8.90543478,3.26086957 C10.6141304,3.26086957 11.9565217,4.3451087 11.9565217,6.67934783 L11.9565217,10.8695652 Z M1.3521739,2.71739131 L1.33586956,2.71739131 C0.52554347,2.71739131 0,2.11847827 0,1.35978261 C0,0.586413052 0.540760865,0 1.3673913,0 C2.19347825,0 2.70108695,0.584782617 2.7173913,1.3576087 C2.7173913,2.11630435 2.19347825,2.71739131 1.3521739,2.71739131 Z M0.543478252,3.26086957 L2.7173913,3.26086957 L2.7173913,10.8695652 L0.543478252,10.8695652 L0.543478252,3.26086957 Z" id="形状"></path>
                </g>
            </g>
        </g>
    </g>
</svg>