<?xml version="1.0" encoding="UTF-8"?>
<svg width="16px" height="16px" viewBox="0 0 16 16" version="1.1" xmlns="http://www.w3.org/2000/svg" xmlns:xlink="http://www.w3.org/1999/xlink">
    <title>Medium</title>
    <g id="主页面" stroke="none" stroke-width="1" fill="none" fill-rule="evenodd">
        <g id="下拉菜单" transform="translate(-962.000000, -155.000000)" fill="#999DAB" fill-rule="nonzero">
            <g id="切换语言下拉菜单" transform="translate(950.000000, 82.000000)">
                <path d="M18.330917,78.0530098 L18.330917,86.5625 C18.330917,86.6834102 18.3006895,86.7861829 18.2402344,86.8708184 C18.1797793,86.9554538 18.0915173,86.9977715 17.9754482,86.9977715 C17.8932334,86.9977715 17.8134349,86.9784238 17.7360527,86.9397285 L14.3627051,85.2494619 C14.2611426,85.2010928 14.1753011,85.120084 14.1051807,85.0064355 C14.0350602,84.8927871 14,84.7803363 14,84.669083 L14,76.399001 C14,76.3022712 14.0241803,76.2200521 14.072541,76.1523438 C14.1209017,76.0846354 14.1910306,76.0507812 14.2829277,76.0507812 C14.3506361,76.0507812 14.4570355,76.087056 14.602126,76.1596055 L18.3091572,78.0167393 C18.3236637,78.0312542 18.330917,78.0433444 18.330917,78.0530098 Z M18.7951973,78.7857197 L22.669083,85.068084 L18.7951973,83.1383965 L18.7951973,78.7857197 Z M27,78.9162783 L27,86.5624873 C27,86.6833975 26.9661458,86.7813333 26.8984375,86.8562949 C26.8307292,86.9312565 26.7388405,86.9687373 26.6227715,86.9687373 C26.5067025,86.9687373 26.3930498,86.9373037 26.2818135,86.8744365 L23.0825947,85.2784453 L27,78.9162783 Z M26.9782402,78.0457607 C26.9782402,78.0602673 26.3579811,79.074682 25.1174629,81.0890049 C23.8769447,83.1033278 23.1502904,84.2821807 22.9375,84.6255635 L20.1082607,80.0262295 L22.458709,76.203125 C22.5409238,76.0677083 22.6666667,76 22.8359375,76 C22.9036458,76 22.9665173,76.0145107 23.0245518,76.0435322 L26.9492187,78.0022158 C26.9685664,78.0118896 26.9782402,78.0264004 26.9782402,78.045748 L26.9782402,78.0457607 Z" id="形状"></path>
            </g>
        </g>
    </g>
</svg>