<?xml version="1.0" encoding="UTF-8"?>
<svg width="16px" height="16px" viewBox="0 0 16 16" version="1.1" xmlns="http://www.w3.org/2000/svg" xmlns:xlink="http://www.w3.org/1999/xlink">
    <title>Reddit</title>
    <g id="主页面" stroke="none" stroke-width="1" fill="none" fill-rule="evenodd">
        <g id="下拉菜单" transform="translate(-1074.000000, -155.000000)" fill="#999DAB" fill-rule="nonzero">
            <g id="切换语言下拉菜单" transform="translate(950.000000, 82.000000)">
                <path d="M136.761043,76.0001785 C137.482503,76.0009501 138.06717,76.5856166 138.067941,77.3070768 C138.06717,78.028537 137.482503,78.6132035 136.761043,78.6139751 C136.085894,78.6139751 135.535344,78.0984258 135.467445,77.4404266 L135.467445,77.4404266 L133.340847,76.9437773 L132.609698,78.6584251 C133.964546,78.759925 135.238195,79.1624244 136.210494,79.8379236 C136.508693,79.6104239 136.873393,79.485124 137.257692,79.485124 C138.219537,79.4860887 138.999025,80.2655772 139.000004,81.2274218 C139.001549,81.876869 138.6387,82.4719248 138.060941,82.7677699 C138.065141,82.8346198 138.067941,82.9018197 138.067941,82.9697196 C138.067941,85.3717666 135.331295,87.3258141 131.969549,87.3258141 C128.606753,87.3258141 125.871157,85.3717666 125.871157,82.9700696 C125.871157,82.8906197 125.873607,82.8122198 125.880607,82.7355699 C125.335557,82.4294802 124.998683,81.8525362 125.000004,81.2274218 C125.000972,80.2655772 125.780461,79.4860887 126.742306,79.485124 C127.109251,79.4825402 127.467261,79.5982767 127.763254,79.8151736 C128.815703,79.0973245 130.209401,78.6853751 131.672399,78.6346251 L131.672399,78.6346251 L132.683198,76.2651281 C132.766158,76.0699595 132.977665,75.9629498 133.184047,76.0117284 L133.184047,76.0117284 L135.669394,76.5927277 C135.909807,76.2234752 136.320423,76.0005921 136.761043,76.0001785 Z M133.904793,84.6723401 C133.762308,84.6087837 133.596707,84.6263233 133.470697,84.7183174 C132.575548,85.3681416 131.3639,85.3681416 130.468751,84.7183174 C130.342708,84.6270362 130.177541,84.609932 130.035468,84.673448 C129.893394,84.7369639 129.795998,84.8714503 129.779968,85.0262475 C129.763938,85.1810447 129.831708,85.3326353 129.957751,85.4239165 C131.157995,86.293511 132.781103,86.293511 133.981346,85.4239165 L133.981346,85.4239165 C134.107825,85.3330541 134.176342,85.1812761 134.160604,85.0260544 C134.144866,84.8708328 134.047278,84.7358964 133.904793,84.6723401 Z M129.791852,81.6628213 C129.310776,81.6633998 128.920931,82.0532445 128.920353,82.5343202 L128.920353,82.5343202 L128.927218,82.6432214 C128.981239,83.0726703 129.347484,83.4049347 129.791502,83.4054691 C130.272384,83.4048905 130.662072,83.0152026 130.662651,82.5343202 C130.662073,82.0535173 130.272654,81.6637852 129.791852,81.6628213 Z M134.147596,81.6631713 C133.676088,81.6765383 133.300794,82.0626225 133.300794,82.5343202 C133.300794,83.0060178 133.676088,83.392102 134.147596,83.4054691 C134.619104,83.392102 134.994398,83.0060178 134.994398,82.5343202 C134.994398,82.0626225 134.619104,81.6765383 134.147596,81.6631713 Z M136.761043,76.8716774 C136.521293,76.8716774 136.325293,77.0666271 136.325293,77.3070768 C136.325679,77.5475747 136.520545,77.7424408 136.761043,77.7428262 C137.000443,77.7428262 137.196442,77.5475265 137.196442,77.3070768 C137.196442,77.0666271 137.000443,76.8716774 136.761043,76.8716774 Z" id="形状结合"></path>
            </g>
        </g>
    </g>
</svg>