<?xml version="1.0" encoding="UTF-8"?>
<svg width="190px" height="80px" viewBox="0 0 190 80" version="1.1" xmlns="http://www.w3.org/2000/svg" xmlns:xlink="http://www.w3.org/1999/xlink">
    <title>security-1</title>
    <g id="切图文件" stroke="none" stroke-width="1" fill="none" fill-rule="evenodd">
        <g id="官网---EN" transform="translate(-572.000000, -3419.000000)" fill="#000000" fill-rule="nonzero">
            <g id="编组-25" transform="translate(359.000000, 3323.000000)">
                <g id="编组-17" transform="translate(213.000000, 96.000000)">
                    <g id="after-debank.b7c0fc8e" transform="translate(66.000000, 22.000000)">
                        <polygon id="路径" points="15.2131148 35.1803279 20.9180328 34.4846692 20.9180328 34.4846692 16.3208071 32.3278689"></polygon>
                        <polygon id="路径" points="38.015808 27.8114754 36.1311475 33.2786885 40.284192 32.1464625 41.8360656 27.5737705"></polygon>
                        <polygon id="路径" points="44.2395445 8.55737705 45.6393443 3.94750146 42.5917616 1.90163934 40.8852459 7.51104561"></polygon>
                        <path d="M29.4293768,2.98284407 L32.2865979,3.80327869 L32.3278689,0 L27.3086839,0.9759817 L26.6229508,2.19595883 C26.6229508,2.16240945 28.638879,2.76019825 29.4293768,2.98284407 Z" id="路径"></path>
                        <path d="M11.1054482,17.1116243 L12.3606557,13.1900409 L9.17556674,12.3606557 C8.84293675,13.4435511 7.96429151,16.0443778 7.60655738,17.1147541 L11.1054482,17.1116243 Z" id="路径"></path>
                        <polygon id="路径" points="4.75409836 11.3124096 1.7898636 10.4590164 0.950819672 13.4318257 3.36343386 16.1639344"></polygon>
                        <path d="M51.8659193,28.8186368 C52.0256849,30.1604832 50.6239678,31.71044 49.2614384,31.71044 C48.5108415,31.71044 48.1280069,31.0892148 48.1280069,30.377912 C48.157829,29.7910069 48.3187599,29.2191219 48.5982604,28.7068162 L45.1798792,28.7068162 C44.8832783,29.4265308 44.7167605,30.1960192 44.6885246,30.9773943 C44.6885246,33.5679034 46.8920843,34.2295082 48.9780805,34.2295082 C51.1514957,34.2295082 52.9571486,33.7946506 54.1026379,31.71044 C54.6120792,30.7786022 55.1848238,29.4181191 55.145636,28.3247627 C55.0943905,26.9611734 54.7236137,26.5169974 53.9398578,25.6721311 L49.9005009,25.9516825 C51.0339324,26.6816221 51.7151971,27.5886109 51.8659193,28.8186368 Z" id="路径"></path>
                        <polygon id="路径" points="0.900095763 0.950819672 0 3.56375923 4.207041 3.56375923 2.12330283 9.61223043 5.48959504 10.4590164 7.83380049 3.56375923 11.46056 3.56375923 12.3606557 0.950819672"></polygon>
                        <path d="M12.4244043,10.5530034 C12.8231322,10.531286 13.2123665,10.531286 13.6142589,10.531286 C14.2661473,10.531286 15.2439799,10.5716183 15.2439799,11.4620308 C15.1972821,12.1417116 15.0556679,12.8118948 14.8231005,13.4538246 C14.4750047,14.6699978 14.0541253,15.8768635 13.9813417,17.1147541 L17.5983729,17.1147541 C17.5034377,15.1229603 18.7660759,13.391775 18.7565824,11.4216985 C18.7565824,10.0907335 17.7249532,9.56020893 16.5414277,9.35854756 L16.8895234,9.31821529 C19.47809,8.9769422 20.9274341,6.97584091 20.9179869,4.49075234 C20.9116115,1.72954281 18.5572185,0.950819672 16.1458643,0.950819672 L12.0066894,0.950819672 C10.8294929,4.54969951 9.7029285,8.15788679 8.55737705,11.7691766 L11.7566934,12.6037444 L12.4244043,10.5530034 Z M14.6648751,3.479343 L15.8325781,3.479343 C16.6964885,3.479343 17.5572343,3.68410686 17.5572343,4.69551619 C17.5572343,5.93650924 16.6521854,8.01517259 15.1585382,8.01517259 L13.2598341,8.01517259 L14.6648751,3.479343 Z" id="形状"></path>
                        <path d="M28.0197576,11.1867266 L24.7058258,11.1867266 C25.8889304,8.99599987 27.0224809,6.78400395 28.0414375,4.50212355 L25.6845197,3.80327869 L18.0655738,17.0965234 L21.6272761,17.0965234 L23.44839,13.7116835 L27.8153468,13.7116835 L27.6821701,17.1147541 L31.1106958,17.1147541 L31.3770492,5.52000629 L28.4316762,4.64189252 C28.1656539,6.81386923 28.0281173,8.99914177 28.0197576,11.1867266 L28.0197576,11.1867266 Z" id="路径"></path>
                        <polygon id="路径" points="38.0327869 17.1147541 45.7608801 17.1147541 46.5901639 14.6081373 42.1702891 14.6081373 43.8110227 9.47962287 40.7495089 8.55737705"></polygon>
                        <path d="M29.4754098,20.3121863 C29.4754098,17.8683681 27.6325484,17.1147541 25.5499652,17.1147541 L21.1990144,17.1147541 L17.1147541,30.3417649 L22.3137208,33.2786885 C25.4301043,33.1546368 27.6115728,30.7728445 27.6115728,27.4947788 C27.6296087,26.2744783 26.8322565,25.2024497 25.6878053,24.9083011 C27.9771485,24.3624737 29.4754098,22.8273341 29.4754098,20.3121863 Z M23.7820169,29.8052414 C23.1647332,30.7635406 22.4965087,30.8348703 21.4627084,30.8348703 L20.1022871,30.8348703 L21.6005484,26.0836909 C22.6852896,26.1240076 24.597071,25.8572965 24.597071,27.5071839 C24.5195689,28.332696 24.2389587,29.1238806 23.7820169,29.8052414 L23.7820169,29.8052414 Z M23.5123299,23.7639244 L22.2627799,23.7639244 L23.5662673,19.57718 C24.5431336,19.6174968 26.3740089,19.2980637 26.3740089,20.8549124 C26.3979811,22.6970799 25.2802782,23.7670257 23.5003438,23.7670257 L23.5123299,23.7639244 Z" id="形状"></path>
                        <path d="M36.6966303,6.6557377 L33.3773613,18.2068791 L30.4262295,27.5737705 L33.9476721,27.2917296 L36.4944566,18.9683895 L39.9344262,7.68675385 C39.4636935,7.53006447 37.5686927,6.89390557 36.6966303,6.6557377 Z" id="路径"></path>
                        <polygon id="路径" points="43.9500116 20.7168518 47.5959604 20.7168518 48.4918033 18.0655738 37.030284 18.0655738 36.1311475 20.7168518 40.3369982 20.7168518 38.3608741 26.6229508 42.0298777 26.388924"></polygon>
                        <path d="M57.4557598,23.0474574 C57.7385846,22.417225 57.9218508,21.7531179 58,21.0752781 C58,18.7239466 55.4996964,18.0655738 53.3707567,18.0655738 C49.7115416,18.0655738 47.5409836,20.4169053 47.5409836,23.6499861 C47.5409836,24.1202524 48.0083899,25.2900398 48.9464039,25.6721311 L53.3515483,25.3987889 C52.605619,24.810956 51.2770326,23.4560012 51.2770326,22.7212101 C51.2770326,21.7248334 51.8820997,20.4169053 53.140255,20.4169053 C53.9918309,20.4169053 54.5136612,20.6314643 54.5136612,21.4808828 C54.5136612,22.0275673 54.225534,22.5272253 54.0654634,23.0445182 L57.4557598,23.0474574 Z" id="路径"></path>
                        <path d="M14.7925165,18.0655738 C13.3041489,18.0655738 13.0718603,19.1969437 12.7133903,20.3840027 C12.5900766,20.8119302 12.3606557,21.339512 12.3606557,21.7879566 C12.3606557,22.6672596 13.1148767,22.8196721 13.8088747,22.8196721 C14.6692028,22.8196721 15.1137057,22.5265711 15.420556,21.7088193 C15.6299025,21.1431344 16.1633059,19.6043541 16.1633059,19.0709102 C16.1891158,18.2912615 15.4148205,18.0655738 14.7925165,18.0655738 Z M15.2026062,19.1676336 C15.1389563,19.5238013 15.0429486,19.8731268 14.9158302,20.2110732 L14.58317,21.2633058 C14.4483853,21.6619231 14.296394,22.1220917 13.8002714,22.1220917 C13.675374,22.1339821 13.5517832,22.0884076 13.4630851,21.9977533 C13.374387,21.9070989 13.329796,21.7807822 13.3414298,21.6531301 C13.3414298,21.2633058 13.6282058,20.5510703 13.7601228,20.152453 C13.8920398,19.7538356 14.0468988,18.9624629 14.4741951,18.8188434 C14.5726601,18.7874197 14.6750364,18.7706387 14.7781777,18.7690162 C14.998198,18.7723745 15.180772,18.9438454 15.2026062,19.1676336 L15.2026062,19.1676336 Z" id="形状"></path>
                        <polygon id="路径" points="19.7282486 18.8351434 19.9672131 18.0655738 17.6034797 18.0655738 16.1639344 22.8196721 17.1600998 22.8196721 17.7733461 20.7754098 19.074695 20.7754098 19.3050223 20.0058402 18.0151897 20.0058402 18.3606806 18.8351434"></polygon>
                    </g>
                </g>
            </g>
        </g>
    </g>
</svg>