<?xml version="1.0" encoding="UTF-8"?>
<svg width="16px" height="16px" viewBox="0 0 16 16" version="1.1" xmlns="http://www.w3.org/2000/svg" xmlns:xlink="http://www.w3.org/1999/xlink">
    <title>Telegram</title>
    <g id="主页面" stroke="none" stroke-width="1" fill="none" fill-rule="evenodd">
        <g id="下拉菜单" transform="translate(-1074.000000, -106.000000)" fill="#999DAB" fill-rule="nonzero">
            <g id="切换语言下拉菜单" transform="translate(950.000000, 82.000000)">
                <path d="M125.233042,30.554926 L138.423221,25.0307507 C138.563046,24.9839356 138.74948,24.9839356 138.842697,25.0775657 C138.982522,25.1711958 139.02913,25.358456 138.982522,25.4989011 L135.719933,38.700744 C135.673325,38.8411891 135.580108,38.9348192 135.440283,38.9816342 C135.300458,39.0284493 135.160633,38.9816342 135.067416,38.8880041 L132.224303,36.5004368 C132.037869,36.3599917 131.804827,36.3599917 131.665002,36.5472519 L130.220141,37.9985183 C130.080316,38.1389634 129.940491,38.1389634 129.754057,38.0921484 C129.614232,38.0453333 129.521015,37.8580731 129.521015,37.717628 L129.521015,34.627835 C129.521015,34.5342049 129.567624,34.3937598 129.660841,34.3469447 L135.5335,28.3546189 L128.542239,33.644719 C128.402414,33.7383491 128.169372,33.7383491 128.029546,33.644719 L125.139825,31.2571517 C125.046608,31.1635216 125,31.0230765 125,30.8826314 C125.046608,30.7421862 125.139825,30.6017411 125.233042,30.554926 Z" id="路径"></path>
            </g>
        </g>
    </g>
</svg>