<?xml version="1.0" encoding="UTF-8"?>
<svg width="16px" height="16px" viewBox="0 0 16 16" version="1.1" xmlns="http://www.w3.org/2000/svg" xmlns:xlink="http://www.w3.org/1999/xlink">
    <title>Twitter</title>
    <g id="主页面" stroke="none" stroke-width="1" fill="none" fill-rule="evenodd">
        <g id="下拉菜单" transform="translate(-962.000000, -106.000000)" fill="#999DAB" fill-rule="nonzero">
            <g id="切换语言下拉菜单" transform="translate(950.000000, 82.000000)">
                <path d="M28,27.44375 C27.44875,27.68875 26.855,27.85375 26.2325,27.92875 C26.86875,27.5475 27.355,26.945 27.58625,26.22625 C26.99125,26.57875 26.3325,26.835 25.63125,26.9725 C25.07125,26.37375 24.27,26 23.38625,26 C21.39875,26 19.93875,27.85375 20.3875,29.77875 C17.83125,29.65 15.5625,28.425 14.045,26.56375 C13.23875,27.94625 13.6275,29.75625 14.9975,30.6725 C14.49375,30.65625 14.02,30.5175 13.605,30.2875 C13.57125,31.7125 14.59375,33.04625 16.07375,33.34375 C15.64125,33.46125 15.16625,33.48875 14.68375,33.39625 C15.075,34.61875 16.21375,35.5075 17.55875,35.5325 C16.2625,36.5475 14.63375,37.00125 13,36.80875 C14.3625,37.6825 15.97875,38.19125 17.71625,38.19125 C23.43125,38.19125 26.65875,33.365 26.46375,29.03625 C27.06625,28.60375 27.5875,28.06125 28,27.44375 L28,27.44375 Z" id="twitter"></path>
            </g>
        </g>
    </g>
</svg>