<?xml version="1.0" encoding="UTF-8"?>
<svg width="16px" height="16px" viewBox="0 0 16 16" version="1.1" xmlns="http://www.w3.org/2000/svg" xmlns:xlink="http://www.w3.org/1999/xlink">
    <title>Youtube</title>
    <g id="主页面" stroke="none" stroke-width="1" fill="none" fill-rule="evenodd">
        <g id="下拉菜单" transform="translate(-962.000000, -255.000000)" fill="#999DAB" fill-rule="nonzero">
            <g id="切换语言下拉菜单" transform="translate(950.000000, 82.000000)">
                <path d="M25.5149766,176.295433 L24.63016,176.204528 C21.9827144,175.931824 19.3142567,175.931824 16.666811,176.204528 L15.8183568,176.295433 C14.7708297,176.413831 13.984214,177.307951 14.0002405,178.362026 L14.0002405,183.331543 C13.984214,184.385618 14.7708297,185.279738 15.8183568,185.398135 L16.7031733,185.489041 C19.350619,185.761745 22.0190767,185.761745 24.6665223,185.489041 L25.5149766,185.398135 C26.5625037,185.279738 27.3491193,184.385618 27.3330928,183.331543 L27.3330928,178.362026 C27.3491193,177.307951 26.5625037,176.413831 25.5149766,176.295433 L25.5149766,176.295433 Z M22.4847829,181.222528 L20.1272922,182.798229 C19.9900198,182.873592 19.8236203,182.872983 19.6869027,182.796619 C19.5501852,182.720254 19.4624064,182.578889 19.4545892,182.422485 L19.4545892,179.271084 C19.4548958,179.103084 19.5478456,178.948953 19.6962912,178.870289 C19.8447369,178.791626 20.0244678,178.801259 20.1636545,178.89534 L22.5211452,180.47104 C22.6481774,180.553812 22.7247862,180.695165 22.7247862,180.846784 C22.7247862,180.998403 22.6481774,181.139757 22.5211452,181.222528 L22.4847829,181.222528 Z" id="形状"></path>
            </g>
        </g>
    </g>
</svg>