<svg id="图层_1" data-name="图层 1" xmlns="http://www.w3.org/2000/svg" xmlns:xlink="http://www.w3.org/1999/xlink" viewBox="0 0 398 130"><defs><style>.cls-1,.cls-2{fill:none;}.cls-1{clip-rule:evenodd;}.cls-3{clip-path:url(#clip-path);}.cls-4{clip-path:url(#clip-path-2);}.cls-5{fill:#60c3e6;}.cls-6{clip-path:url(#clip-path-3);}.cls-7{fill:#54c1ae;}.cls-8{clip-path:url(#clip-path-5);}.cls-9{fill:#4072b8;}.cls-10{clip-path:url(#clip-path-7);}.cls-11{clip-path:url(#clip-path-9);}.cls-12{fill:#368dcc;}.cls-13{clip-path:url(#clip-path-11);}.cls-14{clip-path:url(#clip-path-13);}.cls-15{fill:#565b73;}.cls-16{clip-path:url(#clip-path-15);}.cls-17{clip-path:url(#clip-path-17);}.cls-18{clip-path:url(#clip-path-19);}.cls-19{fill:#000101;}.cls-20{clip-path:url(#clip-path-21);}.cls-21{clip-path:url(#clip-path-23);}</style><clipPath id="clip-path" transform="translate(-244.93 -232.28)"><path class="cls-1" d="M349.93,237.28a19.92,19.92,0,0,0-14.14,5.86l-54.14,54.14,28.28,28.28,54.14-54.14a20,20,0,0,0-14.14-34.14"/></clipPath><clipPath id="clip-path-2" transform="translate(-244.93 -232.28)"><rect class="cls-2" x="-1136.07" y="-242.72" width="1920" height="1080"/></clipPath><clipPath id="clip-path-3" transform="translate(-244.93 -232.28)"><path class="cls-1" d="M349.93,357.28a19.92,19.92,0,0,1-14.14-5.86l-54.14-54.14L309.93,269l54.14,54.14a20,20,0,0,1-14.14,34.14"/></clipPath><clipPath id="clip-path-5" transform="translate(-244.93 -232.28)"><rect class="cls-2" x="289.93" y="277.28" width="40" height="40" transform="translate(-119.43 306.22) rotate(-45)"/></clipPath><clipPath id="clip-path-7" transform="translate(-244.93 -232.28)"><path class="cls-1" d="M289.93,257.28a20,20,0,1,1-20-20,20,20,0,0,1,20,20"/></clipPath><clipPath id="clip-path-9" transform="translate(-244.93 -232.28)"><path class="cls-1" d="M369.93,257.28a20,20,0,1,1-20-20,20,20,0,0,1,20,20"/></clipPath><clipPath id="clip-path-11" transform="translate(-244.93 -232.28)"><path class="cls-1" d="M289.93,337.28a20,20,0,1,1-20-20,20,20,0,0,1,20,20"/></clipPath><clipPath id="clip-path-13" transform="translate(-244.93 -232.28)"><path class="cls-1" d="M451.93,276.28a3,3,0,0,0-5.12-2.12L430.93,290l-15.88-15.88a3,3,0,0,0-5.12,2.12v42a3,3,0,0,0,6,0V283.52l12.88,12.88a3,3,0,0,0,4.25,0l12.88-12.88v34.76a3,3,0,0,0,6,0Z"/></clipPath><clipPath id="clip-path-15" transform="translate(-244.93 -232.28)"><path class="cls-1" d="M499.17,274.32c0-.05-.07-.12-.11-.17a2.43,2.43,0,0,0-.2-.14,3.17,3.17,0,0,0-.77-.51,2.92,2.92,0,0,0-3.2.6l-16,15.93-15.88-15.88a2.43,2.43,0,0,0-.2-.14,3.17,3.17,0,0,0-.77-.51,2.92,2.92,0,0,0-3.2.6,2.72,2.72,0,0,0-.72,1,2.85,2.85,0,0,0-.22,1,1.26,1.26,0,0,0,0,.31,3.17,3.17,0,0,0,.19.94,3,3,0,0,0,.66,1l17.11,17.12v22.76a3,3,0,1,0,6,0V295.51l17.12-17.12a3.06,3.06,0,0,0,.65-1,2.85,2.85,0,0,0-.53-3.1Z"/></clipPath><clipPath id="clip-path-17" transform="translate(-244.93 -232.28)"><path class="cls-1" d="M514.93,273.28a3,3,0,0,0-3,3v42a3,3,0,1,0,6,0v-42a3,3,0,0,0-3-3m32.12,42.87-18.88-18.88L547,278.4h0a3,3,0,0,0-4.24-4.24l-23.12,23.12,23.12,23.11a3,3,0,0,0,5.12-2.11,3,3,0,0,0-.88-2.12"/></clipPath><clipPath id="clip-path-19" transform="translate(-244.93 -232.28)"><rect class="cls-2" x="520.93" y="294.28" width="6" height="6" transform="translate(-56.75 457.54) rotate(-45)"/></clipPath><clipPath id="clip-path-21" transform="translate(-244.93 -232.28)"><path class="cls-1" d="M586.93,315.28h-30a3,3,0,0,0,0,6h30a3,3,0,0,0,0-6m-30-36h30a3,3,0,0,0,0-6h-30a3,3,0,0,0,0,6m30,15h-30a3,3,0,0,0,0,6h30a3,3,0,0,0,0-6"/></clipPath><clipPath id="clip-path-23" transform="translate(-244.93 -232.28)"><path class="cls-1" d="M637.05,274.15a3,3,0,0,0-4.24,0L616.93,290,601,274.15a3,3,0,0,0-4.24,4.24l17.12,17.12v22.76a3,3,0,0,0,6,0V295.52l17.13-17.12a3,3,0,0,0,0-4.24"/></clipPath></defs><title>MYKEY logo横排</title><g class="cls-3"><g class="cls-4"><rect class="cls-5" x="31.72" width="98.28" height="98.28"/></g></g><g class="cls-6"><g class="cls-4"><rect class="cls-7" x="31.72" y="31.72" width="98.28" height="98.28"/></g></g><g class="cls-8"><g class="cls-4"><rect class="cls-9" x="31.72" y="31.72" width="66.57" height="66.56"/></g></g><g class="cls-10"><g class="cls-4"><rect class="cls-7" width="50" height="50"/></g></g><g class="cls-11"><g class="cls-4"><rect class="cls-12" x="80" width="50" height="50"/></g></g><g class="cls-13"><g class="cls-4"><rect class="cls-12" y="80" width="50" height="50"/></g></g><g class="cls-14"><g class="cls-4"><rect class="cls-15" x="160" y="36" width="52" height="58"/></g></g><g class="cls-16"><g class="cls-4"><rect class="cls-15" x="208.01" y="36" width="51.99" height="58"/></g></g><g class="cls-17"><g class="cls-4"><rect class="cls-15" x="262" y="36" width="46" height="58"/></g></g><g class="cls-18"><g class="cls-4"><rect class="cls-19" x="515.93" y="289.28" width="16" height="16" transform="translate(-301.68 225.27) rotate(-45)"/></g></g><g class="cls-20"><g class="cls-4"><rect class="cls-15" x="304" y="36" width="46" height="58"/></g></g><g class="cls-21"><g class="cls-4"><rect class="cls-15" x="346" y="36" width="52" height="58"/></g></g></svg>