<svg id="图层_1" data-name="图层 1" xmlns="http://www.w3.org/2000/svg" viewBox="0 0 187.61 112.78"><title>logo-2</title><path d="M49.1,115.21l18.85-2.69h0l-15.19-8.34Z" transform="translate(0 -2.43)"/><path d="M125.75,89.65l-5.55,17.48,12.23-3.62L137,88.89Z" transform="translate(0 -2.43)"/><path d="M145,27.23l4.29-13.79-9.34-6.12L134.72,24.1Z" transform="translate(0 -2.43)"/><path d="M95.1,12.2l9,2.69.13-12.47L88.42,5.62l-2.16,4C86.26,9.51,92.61,11.47,95.1,12.2Z" transform="translate(0 -2.43)"/><path d="M34.57,56.18l4-12.53L28.42,41c-1.06,3.46-3.86,11.77-5,15.19Z" transform="translate(0 -2.43)"/><path d="M15.89,37.73,5.68,35,2.79,44.51l8.31,8.74Z" transform="translate(0 -2.43)"/><path d="M168,96.17c.53,4.32-4.12,9.31-8.64,9.31-2.49,0-3.76-2-3.76-4.29a12.29,12.29,0,0,1,1.56-5.38H145.82a20.67,20.67,0,0,0-1.63,7.31c0,8.34,7.31,10.47,14.23,10.47,7.21,0,13.2-1.4,17-8.11,1.69-3,3.59-7.38,3.46-10.9-.17-4.39-1.4-5.82-4-8.54l-13.4.9C165.24,89.29,167.5,92.21,168,96.17Z" transform="translate(0 -2.43)"/><path d="M2.73,3.56,0,12.2H12.76l-6.32,20L16.65,35l7.11-22.8h11l2.73-8.64Z" transform="translate(0 -2.43)"/><path d="M41.32,34.44c1.26-.07,2.49-.07,3.76-.07,2.06,0,5.15.13,5.15,3a24,24,0,0,1-1.33,6.42c-1.1,3.92-2.43,7.81-2.66,11.8H57.67c-.3-6.42,3.69-12,3.66-18.35,0-4.29-3.26-6-7-6.65l1.1-.13c8.18-1.1,12.76-7.55,12.73-15.56C68.14,6,60.7,3.49,53.08,3.49H40c-3.72,11.6-7.28,23.23-10.9,34.87l10.11,2.69Zm7.08-22.8h3.69c2.73,0,5.45.66,5.45,3.92,0,4-2.86,10.7-7.58,10.7h-6Z" transform="translate(0 -2.43)"/><path d="M92.87,36.3H82.17c3.82-7.21,7.48-14.49,10.77-22L85.33,12,60.73,55.75h11.5l5.88-11.14H92.21l-.43,11.2h11.07l.86-38.16L94.2,14.76A186.41,186.41,0,0,0,92.87,36.3Z" transform="translate(0 -2.43)"/><path d="M124.62,55.68l26,0,2.79-8.48H138.54l5.52-17.35-10.3-3.12Z" transform="translate(0 -2.43)"/><path d="M95,69.31C95,61.43,88.85,59,81.9,59H67.38L53.75,101.65l17.35,9.47c10.4-.4,17.68-8.08,17.68-18.65a8.46,8.46,0,0,0-6.42-8.34C90,82.37,95,77.42,95,69.31ZM76,99.92c-2.06,3.09-4.29,3.32-7.74,3.32H63.72l5-15.32c3.62.13,10-.73,10,4.59A15.65,15.65,0,0,1,76,99.92Zm-.9-19.48H70.93l4.35-13.5c3.26.13,9.37-.9,9.37,4.12C84.73,77,81,80.45,75.06,80.45Z" transform="translate(0 -2.43)"/><path d="M117.11,21.71l-11,36.86L96.33,88.46l11.67-.9L116.44,61l11.4-36C126.28,24.5,120,22.47,117.11,21.71Z" transform="translate(0 -2.43)"/><path d="M143.57,67.68h11.07l2.72-8.61h-34.8l-2.73,8.61H132.6l-6,19.18,11.14-.76Z" transform="translate(0 -2.43)"/><path d="M185.91,75.53a24.34,24.34,0,0,0,1.7-6.71c0-8-7.81-10.24-14.46-10.24-11.43,0-18.21,8-18.21,19,0,1.6,1.46,5.58,4.39,6.88l13.76-.93c-2.33-2-6.48-6.61-6.48-9.11,0-3.39,1.89-7.84,5.82-7.84,2.66,0,4.29.73,4.29,3.62,0,1.86-.9,3.56-1.4,5.32Z" transform="translate(0 -2.43)"/><path d="M47.13,59.3c-5.19,0-6,3.86-7.25,7.91-.43,1.46-1.23,3.26-1.23,4.79,0,3,2.63,3.52,5.05,3.52,3,0,4.55-1,5.62-3.79.73-1.93,2.59-7.18,2.59-9C52,60.07,49.3,59.3,47.13,59.3Zm1.43,3.76a19.87,19.87,0,0,1-1,3.56L46.4,70.21c-.47,1.36-1,2.93-2.73,2.93a1.47,1.47,0,0,1-1.6-1.6c0-1.33,1-3.76,1.46-5.12s1-4.06,2.49-4.55a3.75,3.75,0,0,1,1.06-.17A1.51,1.51,0,0,1,48.56,63.06Z" transform="translate(0 -2.43)"/><path d="M62.59,62l.83-2.59H55.21l-5,16h3.46l2.13-6.88h4.52l.8-2.59H56.64L57.84,62Z" transform="translate(0 -2.43)"/></svg>