<?xml version="1.0" encoding="UTF-8"?>
<svg width="692px" height="153px" viewBox="0 0 692 153" version="1.1" xmlns="http://www.w3.org/2000/svg" xmlns:xlink="http://www.w3.org/1999/xlink">
    <!-- Generator: Sketch 52.3 (67297) - http://www.bohemiancoding.com/sketch -->
    <title>DBA LOGO-4.12_O-02</title>
    <desc>Created with Sketch.</desc>
    <g id="Page-1" stroke="none" stroke-width="1" fill="none" fill-rule="evenodd">
        <g id="Mobile" transform="translate(-219.000000, -3219.000000)" fill="#0E0B20">
            <g id="DBA-LOGO-4.12_O-02" transform="translate(219.000000, 3219.000000)">
                <g id="logo-DBA-图形" fill-rule="nonzero">
                    <path d="M44.0821802,126.774503 L100.941745,55.623685 C102.979834,53.0711327 103.375868,49.5763666 101.96067,46.6322684 C100.545473,43.6881702 97.5692643,41.8152859 94.3034112,41.8136674 L72.7995932,41.8136674 C70.0682475,41.8126109 67.5037583,40.4988806 65.906629,38.2825567 C64.3094997,36.0662328 63.8742723,33.2172795 64.7368028,30.6249957 L74.8997537,0.118739914 L74.9636717,0.0639382563 C75.9680963,0.0213147452 76.9786083,2.98960973e-06 77.9952078,2.98960973e-06 C106.580358,-0.00844095217 132.117224,17.8708037 141.895462,44.7387838 C151.673699,71.606764 143.604218,101.723219 121.703404,120.098427 C99.8025893,138.473635 68.7494819,141.181789 44,126.874973 L44.0821802,126.774503 Z" id="Combined-Shape"></path>
                    <path d="M53.0897376,5.64703309 C53.6049043,4.99649469 54.512777,4.81099842 55.2414244,5.20740112 C55.9700717,5.60380382 56.3084248,6.46727867 56.0433319,7.2538636 L45.7424425,38.1692826 C44.8752803,40.7742896 45.3124516,43.6377914 46.9172936,45.8646366 C48.5221356,48.0914819 51.0988343,49.4099634 53.8418951,49.4079143 L75.4618385,49.4079143 C78.7424598,49.4050217 81.7340771,51.2855724 83.1564388,54.2447918 C84.5788005,57.2040111 84.1798658,60.7175288 82.1303573,63.281748 L30.9010898,127.352967 C30.385923,128.003505 29.4780503,128.189002 28.749403,127.792599 C28.0207557,127.396196 27.6824025,126.532721 27.9474955,125.746136 L38.2483849,94.8215355 C39.1155471,92.2165285 38.6783757,89.3530268 37.0735337,87.1261815 C35.4686917,84.8993362 32.8919931,83.5808547 30.1489322,83.5829038 L8.5381615,83.5829038 C5.25754018,83.5857964 2.26592291,81.7052457 0.843561194,78.7460263 C-0.57880052,75.786807 -0.179865809,72.2732893 1.8696427,69.7090701 L53.0897376,5.64703309 Z" id="Path-3-Copy-3"></path>
                </g>
                <path d="M214.110002,123 L208.830002,100.64 L183.710002,100.64 L178.430002,123 L157.950002,123 L186.590002,12 L206.110002,12 L234.750002,123 L214.110002,123 Z M201.470002,68.64 C200.936666,66.506656 200.403338,64.1333464 199.870002,61.52 C199.336666,58.9066536 198.830004,56.3466792 198.350002,53.84 C197.869999,51.3333208 197.443337,48.9866776 197.070002,46.8 C196.696666,44.6133224 196.403336,42.8266736 196.190002,41.44 C195.976667,42.9333408 195.683337,44.7199896 195.310002,46.8 C194.936666,48.8800104 194.53667,51.1466544 194.110002,53.6 C193.683333,56.0533456 193.203338,58.5599872 192.670002,61.12 C192.136666,63.6800128 191.603338,66.0799888 191.070002,68.32 L188.030002,81.92 L204.510002,81.92 L201.470002,68.64 Z M372.296668,83.3025229 C372.296668,90.120546 371.523342,96.1895285 369.976668,101.509653 C368.429993,106.829777 366.243348,111.271755 363.416668,114.835722 C360.589987,118.399689 357.23002,121.111362 353.336668,122.970823 C349.443315,124.830284 345.150024,125.76 340.456668,125.76 C335.763311,125.76 331.443354,124.856109 327.496668,123.0483 C323.549981,121.240491 320.190015,118.554643 317.416668,114.990676 C314.64332,111.42671 312.483342,107.010557 310.936668,101.742084 C309.389993,96.4736117 308.616668,90.4304546 308.616668,83.6124314 C308.616668,76.7944083 309.389993,70.7254257 310.936668,65.4053016 C312.483342,60.0851775 314.669987,55.6173733 317.496668,52.001755 C320.323348,48.3861367 323.709981,45.6486382 327.656668,43.7891773 C331.603354,41.9297165 335.923311,41 340.616668,41 C345.310024,41 349.603315,41.9297165 353.496668,43.7891773 C357.39002,45.6486382 360.72332,48.3603112 363.496668,51.9242779 C366.270015,55.4882445 368.429993,59.9043978 369.976668,65.1728702 C371.523342,70.4413426 372.296668,76.4844997 372.296668,83.3025229 Z M353.096668,83.6124314 C353.096668,76.0712847 352.083344,69.9764766 350.056668,65.3278245 C348.029991,60.6791724 344.77669,58.3548812 340.296668,58.3548812 C335.709978,58.3548812 332.483344,60.601696 330.616668,65.0953931 C328.749992,69.5890901 327.816668,75.6580727 327.816668,83.3025229 C327.816668,90.946973 328.803324,97.0417811 330.776668,101.58713 C332.750011,106.132479 336.029978,108.405119 340.616668,108.405119 C342.856679,108.405119 344.77666,107.759482 346.376668,106.46819 C347.976676,105.176898 349.256663,103.394941 350.216668,101.122267 C351.176672,98.8495925 351.896665,96.2153958 352.376668,93.2195978 C352.85667,90.2237998 353.096668,87.021443 353.096668,83.6124314 Z M422.11,123 L422.11,69.6 C422.11,64.3733072 421.630005,60.7733432 420.670001,58.8 C419.709996,56.8266568 417.523351,55.84 414.11,55.84 C411.976657,55.84 409.870011,56.5866592 407.790001,58.08 C405.70999,59.5733408 404.08334,61.1733248 402.910001,62.88 L402.910001,123 L384.030001,123 L384.030001,40 L402.910001,40 L402.910001,45.76 C405.043345,43.5199888 407.416654,41.7066736 410.030001,40.32 C412.643347,38.9333264 415.496652,38.24 418.59,38.24 C423.070023,38.24 426.749986,38.90666 429.63,40.24 C432.510015,41.57334 434.803325,43.5466536 436.51,46.16 C438.216676,48.7733464 439.389997,51.9999808 440.030001,55.84 C440.670004,59.6800192 440.99,64.0533088 440.99,68.96 L440.99,123 L422.11,123 Z" id="Axonomy"></path>
                <path d="M515.603334,83.3025229 C515.603334,90.120546 514.830008,96.1895285 513.283334,101.509653 C511.736659,106.829777 509.550014,111.271755 506.723334,114.835722 C503.896653,118.399689 500.536686,121.111362 496.643334,122.970823 C492.749981,124.830284 488.45669,125.76 483.763334,125.76 C479.069977,125.76 474.75002,124.856109 470.803334,123.0483 C466.856647,121.240491 463.496681,118.554643 460.723334,114.990676 C457.949986,111.42671 455.790008,107.010557 454.243334,101.742084 C452.696659,96.4736117 451.923334,90.4304546 451.923334,83.6124314 C451.923334,76.7944083 452.696659,70.7254257 454.243334,65.4053016 C455.790008,60.0851775 457.976653,55.6173733 460.803334,52.001755 C463.630014,48.3861367 467.016647,45.6486382 470.963334,43.7891773 C474.91002,41.9297165 479.229977,41 483.923334,41 C488.61669,41 492.909981,41.9297165 496.803334,43.7891773 C500.696686,45.6486382 504.029986,48.3603112 506.803334,51.9242779 C509.576681,55.4882445 511.736659,59.9043978 513.283334,65.1728702 C514.830008,70.4413426 515.603334,76.4844997 515.603334,83.3025229 Z M496.403334,83.6124314 C496.403334,76.0712847 495.39001,69.9764766 493.363334,65.3278245 C491.336657,60.6791724 488.083356,58.3548812 483.603334,58.3548812 C479.016644,58.3548812 475.79001,60.601696 473.923334,65.0953931 C472.056658,69.5890901 471.123334,75.6580727 471.123334,83.3025229 C471.123334,90.946973 472.10999,97.0417811 474.083334,101.58713 C476.056677,106.132479 479.336644,108.405119 483.923334,108.405119 C486.163345,108.405119 488.083326,107.759482 489.683334,106.46819 C491.283342,105.176898 492.563329,103.394941 493.523334,101.122267 C494.483338,98.8495925 495.203331,96.2153958 495.683334,93.2195978 C496.163336,90.2237998 496.403334,87.021443 496.403334,83.6124314 Z" id="Combined-Shape"></path>
                <path d="M600.758889,123 L600.758889,69.6 C600.758889,64.3733072 600.30556,60.7733432 599.398889,58.8 C598.492217,56.8266568 596.492237,55.84 593.398889,55.84 C591.372212,55.84 589.398898,56.5866592 587.478889,58.08 C585.558879,59.5733408 584.012228,61.1733248 582.838889,62.88 L582.838889,123 L563.958889,123 L563.958889,69.6 C563.958889,64.3733072 563.50556,60.7733432 562.598889,58.8 C561.692217,56.8266568 559.692237,55.84 556.598889,55.84 C554.572212,55.84 552.598898,56.5866592 550.678889,58.08 C548.758879,59.5733408 547.212228,61.1733248 546.038889,62.88 L546.038889,123 L527.158889,123 L527.158889,40 L546.038889,40 L546.038889,45.76 C548.172233,43.5199888 550.518876,41.7066736 553.078889,40.32 C555.638901,38.9333264 558.305541,38.24 561.078889,38.24 C566.198914,38.24 570.172208,39.0933248 572.998889,40.8 C575.825569,42.5066752 577.985548,44.7466528 579.478889,47.52 C581.825567,45.0666544 584.465541,42.906676 587.398889,41.04 C590.332237,39.173324 593.825535,38.24 597.878889,38.24 C602.358911,38.24 606.012208,38.90666 608.838889,40.24 C611.665569,41.57334 613.878881,43.5466536 615.478889,46.16 C617.078897,48.7733464 618.172219,51.9999808 618.758889,55.84 C619.345558,59.6800192 619.638889,64.0533088 619.638889,68.96 L619.638889,123 L600.758889,123 Z" id="Path"></path>
                <path d="M659.674444,152.6 L642.234444,152.6 L650.714444,121.56 L625.754444,40 L645.594444,40 L653.434444,70.36 C653.96778,72.493344 654.55444,74.8666536 655.194444,77.48 C655.834447,80.0933464 656.421108,82.6799872 656.954444,85.24 C657.48778,87.8000128 657.994441,90.1733224 658.474444,92.36 C658.954446,94.5466776 659.301109,96.2266608 659.514444,97.4 C659.727778,96.2266608 660.047775,94.5200112 660.474444,92.28 C660.901112,90.0399888 661.381108,87.6400128 661.914444,85.08 C662.44778,82.5199872 662.981108,79.9333464 663.514444,77.32 C664.04778,74.7066536 664.527775,72.4400096 664.954444,70.52 L671.994444,40 L691.674444,40 L659.674444,152.6 Z" id="Path"></path>
                <polygon id="Path-6" points="241.888428 41.095459 262.009033 41.095459 304.240234 122.900391 284.052002 122.900391"></polygon>
                <polygon id="Path-6" transform="translate(272.064331, 81.997925) scale(-1, 1) translate(-272.064331, -81.997925) " points="240.888428 41.095459 261.009033 41.095459 303.240234 122.900391 283.052002 122.900391"></polygon>
            </g>
        </g>
    </g>
</svg>