<?xml version="1.0" encoding="UTF-8"?>
<svg width="13px" height="14px" viewBox="0 0 13 14" version="1.1" xmlns="http://www.w3.org/2000/svg" xmlns:xlink="http://www.w3.org/1999/xlink">
    <title>形状</title>
    <g id="确认" stroke="none" stroke-width="1" fill="none" fill-rule="evenodd">
        <g id="EN" transform="translate(-392.000000, -436.000000)" fill="#FFFFFF" fill-rule="nonzero">
            <g id="编组-10" transform="translate(351.000000, 211.000000)">
                <g id="编组-4" transform="translate(0.000000, 209.000000)">
                    <g id="编组-12" transform="translate(41.000000, 12.000000)">
                        <path d="M5.20979021,17.8793706 C5.6013986,18.1101398 5.90909091,17.9562937 5.90909091,17.4877622 L5.90909091,12.0402098 C5.90909091,11.5716783 5.5944056,11.1031469 5.20979021,10.8723776 L0.699300703,8.06818181 C0.307692313,7.91433566 0,8.06818181 0,8.4597902 L0,13.9073427 C0,14.3758741 0.314685316,14.8444056 0.699300703,15.0751748 L5.20979021,17.8793706 L5.20979021,17.8793706 Z M1.39860141,6.35489511 C1.00699302,6.58566433 1.00699302,6.90034965 1.39860141,7.13111888 L5.83916084,9.93531468 C6.23076923,10.1660839 6.77622377,10.1660839 7.16083916,10.0122378 L11.6013986,7.7534965 C11.993007,7.52272727 11.993007,7.20804196 11.6013986,6.97727272 L6.92307693,4.17307692 C6.60839162,3.94230769 5.986014,3.94230769 5.6013986,4.17307692 L1.39860141,6.35489511 Z M7.16083916,17.4877622 C7.16083916,17.9562937 7.47552447,18.1101399 7.86013986,17.8793706 L12.3006993,15.6206294 C12.6923077,15.3898601 13,14.9213287 13,14.4527972 L13,8.99825174 C13,8.52972028 12.6853147,8.37587411 12.3006993,8.60664335 L7.86013986,10.8653846 C7.46853147,11.0961538 7.16083916,11.5646853 7.16083916,12.0332168 L7.16083916,17.4877622 L7.16083916,17.4877622 Z" id="形状"></path>
                    </g>
                </g>
            </g>
        </g>
    </g>
</svg>