<?xml version="1.0" encoding="UTF-8"?>
<svg width="35px" height="34px" viewBox="0 0 35 34" version="1.1" xmlns="http://www.w3.org/2000/svg" xmlns:xlink="http://www.w3.org/1999/xlink">
    <title>close</title>
    <g id="Mining" stroke="none" stroke-width="1" fill="none" fill-rule="evenodd">
        <g id="close" fill="#FFFFFF" fill-rule="nonzero">
            <path d="M31.2,34.0001055 C30.450232,34.0065152 29.7293978,33.7109732 29.2,33.18 L1.79,5.77 C0.68543062,4.66543048 0.685430676,2.87456958 1.79000013,1.77000013 C2.89456958,0.665430676 4.68543048,0.66543062 5.79,1.77 L33.2,29.18 C33.9963286,29.9842963 34.230124,31.1889156 33.7924765,32.232705 C33.3548289,33.2764944 32.3318191,33.9541513 31.2,33.95 L31.2,34.0001055 Z" id="路径"></path>
            <path d="M3.8,34 C2.6681809,34.0041513 1.64517109,33.3264944 1.20752354,32.282705 C0.769875984,31.2389156 1.00367145,30.0342963 1.8,29.23 L29.21,1.82 C30.3145695,0.7154305 32.1054305,0.7154305 33.21,1.82 C34.3145695,2.9245695 34.3145695,4.7154305 33.21,5.82 L5.8,33.23 C5.26242671,33.7426879 4.5425907,34.0198248 3.8,34 Z" id="路径"></path>
        </g>
    </g>
</svg>