<svg id="图层_1" data-name="图层 1" xmlns="http://www.w3.org/2000/svg" viewBox="0 0 1552 373.35"><defs><style>.cls-1{fill:#383838;}.cls-2{fill:#56d0ff;}.cls-3{fill:#3184eb;}.cls-4{fill:#2a6ce6;}.cls-5{fill:#275be4;}</style></defs><title>LOGO</title><path class="cls-1" d="M234.13,1444a26.47,26.47,0,0,1-13.64-3.79L87.26,1360.3a26.64,26.64,0,0,1-12.87-22.73V1177.12a26.64,26.64,0,0,1,12.87-22.73l133.23-79.94a26.46,26.46,0,0,1,27.27,0L381,1154.39a26.64,26.64,0,0,1,12.87,22.73v160.45A26.64,26.64,0,0,1,381,1360.29l-133.23,79.94A26.48,26.48,0,0,1,234.13,1444ZM122.78,1339.62,221,1398.56a25.51,25.51,0,0,0,26.25,0l98.22-58.93a25.51,25.51,0,0,0,12.39-21.88V1196.94a25.51,25.51,0,0,0-12.39-21.88l-98.22-58.93a25.51,25.51,0,0,0-26.25,0l-98.22,58.93a25.51,25.51,0,0,0-12.39,21.88v120.81A25.51,25.51,0,0,0,122.78,1339.62Z" transform="translate(-74.4 -1070.67)"/><path class="cls-2" d="M146.38,1288.83V1319a8.5,8.5,0,0,0,4.13,7.29l19,11.4a8.5,8.5,0,0,0,12.88-7.29v-41.52a8.5,8.5,0,0,0-8.5-8.5h-19A8.5,8.5,0,0,0,146.38,1288.83Z" transform="translate(-74.4 -1070.67)"/><path class="cls-3" d="M216.13,1258.81v102a8.5,8.5,0,0,0,4.13,7.29l9.49,5.7a8.5,8.5,0,0,0,8.75,0l9.5-5.7a8.5,8.5,0,0,0,4.13-7.29v-102a8.5,8.5,0,0,0-8.5-8.5h-19A8.5,8.5,0,0,0,216.13,1258.81Z" transform="translate(-74.4 -1070.67)"/><path class="cls-4" d="M285.87,1226.79v103.55a8.5,8.5,0,0,0,12.88,7.29l19-11.4a8.5,8.5,0,0,0,4.13-7.29v-92.16a8.5,8.5,0,0,0-8.5-8.5h-19A8.5,8.5,0,0,0,285.87,1226.79Z" transform="translate(-74.4 -1070.67)"/><path class="cls-1" d="M1283.05,1196.65a15,15,0,0,0-11.13-4.75,15.59,15.59,0,1,0,0,31.18,15,15,0,0,0,11.13-4.75,15.69,15.69,0,0,0,0-21.69Z" transform="translate(-74.4 -1070.67)"/><path class="cls-1" d="M1283.09,1232a22.54,22.54,0,0,0-22.42.12c-3.13,2.1-4.72,5.36-4.72,9.7v101.56c0,7.83,5.83,12.32,16,12.32,10,0,15.73-4.49,15.73-12.32V1241.85C1287.68,1237.35,1286.14,1234,1283.09,1232Z" transform="translate(-74.4 -1070.67)"/><path class="cls-1" d="M1355.5,1229.18c-5.91,0-55.06,2.28-55.06,54.62v60.36c0,7.32,5.73,11.52,15.73,11.52s15.73-4.2,15.73-11.52V1283c0-23.82,29.32-24.26,32.51-25.74C1376,1254.08,1377.76,1229.29,1355.5,1229.18Z" transform="translate(-74.4 -1070.67)"/><path class="cls-5" d="M438.18,1250.19h0c0-17.22,15.64-31.18,34.93-31.18H537.2c0,17.22-15.64,31.18-34.93,31.18Z" transform="translate(-74.4 -1070.67)"/><path class="cls-1" d="M630,1222.72a84.57,84.57,0,0,0-16.59-30.54,79.36,79.36,0,0,0-28.67-20.75c-11.51-5-25.31-7.59-41-7.59H488.59c-5.61,0-12.44.5-15.57,4.4-1.91,2.4-2.8,5.85-2.8,10.88v19.79a8.5,8.5,0,0,0,8.5,8.5h17.93a8.5,8.5,0,0,0,8.5-8.5v-7.44h32.54c21.8,0,37.2,5.46,47.1,16.68,10.13,11.5,15.26,28.5,15.26,50.55,0,22.8-5,40.38-14.9,52.25-9.59,11.51-22.65,17.11-39.93,17.11H505.15v-57.78a8.5,8.5,0,0,0-8.5-8.5H478.72a8.5,8.5,0,0,0-8.5,8.5v70.13c0,5,.89,8.49,2.81,10.88,3.12,3.9,10,4.4,15.56,4.4h56.63c15.32,0,28.82-2.56,40.13-7.6a77.66,77.66,0,0,0,28.22-20.92,87.14,87.14,0,0,0,16.4-30.62,130.95,130.95,0,0,0,0-73.82Z" transform="translate(-74.4 -1070.67)"/><path class="cls-1" d="M754.59,1342.49v13.24h0c17.94,0,32.48-9.63,32.48-27.68v-86.39a11.17,11.17,0,0,0-3.49-8.13c-1.81-1.8-5.34-4-11.94-4.25h-.31c-6.72,0-10.42,2.25-12.34,4.14a11.56,11.56,0,0,0-3.52,6.56l-.35,3.77-1.79-1.52a57.72,57.72,0,0,0-6.05-4.49c-8.52-5.5-19.08-8.37-31.39-8.53h-.1a91.27,91.27,0,0,0-25.8,3.63,58.15,58.15,0,0,0-21.91,11.8,57.24,57.24,0,0,0-14.57,20.09c-3.57,8-5.39,17.61-5.39,28.62a65.68,65.68,0,0,0,4.65,25.07,56.73,56.73,0,0,0,13.34,19.71,61.55,61.55,0,0,0,21.07,13,77.26,77.26,0,0,0,27.22,4.64c12.38,0,22.82-2.3,31-6.83a50.67,50.67,0,0,0,7.52-5.08Zm-25.74-16.81a39.44,39.44,0,0,1-14.64,2.43c-11.72,0-20.53-2.86-26.93-8.73-6.69-6.14-10.16-14.93-10.33-26.15a47.3,47.3,0,0,1,2.37-15.45,29.48,29.48,0,0,1,7-11.35,28.9,28.9,0,0,1,11.15-6.85,49.48,49.48,0,0,1,16.2-2.34,34,34,0,0,1,13.94,2.63,32.47,32.47,0,0,1,10.7,7.49,33.74,33.74,0,0,1,7,11.57,42.25,42.25,0,0,1,2.49,14.49,44.08,44.08,0,0,1-2.24,14.25,31.07,31.07,0,0,1-6.48,11.08A27.39,27.39,0,0,1,728.85,1325.68Z" transform="translate(-74.4 -1070.67)"/><path class="cls-1" d="M933.68,1264.72a57.4,57.4,0,0,0-14.6-20.1,58.37,58.37,0,0,0-22-11.81,91.65,91.65,0,0,0-25.87-3.63h-.1c-12.34.16-23,2.85-31.46,8.54a73.67,73.67,0,0,0-7.51,6l0-14.53h0c-17.86,0-32.33,9.51-32.33,27.45v124a11.37,11.37,0,0,0,3.27,8.05c2.54,2.68,6.76,4.14,12.52,4.35h.27c7.27,0,11-2.3,12.86-4.22a11.51,11.51,0,0,0,3.44-8.18v-38.18l2.13,1.71a51,51,0,0,0,7.24,4.84c8.22,4.54,18.69,6.83,31.1,6.83a77.52,77.52,0,0,0,27.27-4.64,61.78,61.78,0,0,0,21.12-13,56.87,56.87,0,0,0,13.37-19.73,65.71,65.71,0,0,0,4.67-25.09C939.08,1282.35,937.27,1272.71,933.68,1264.72ZM900,1319.6c-6.47,5.92-15.36,8.79-27.19,8.79a33.53,33.53,0,0,1-13.13-2.42,32.58,32.58,0,0,1-10.64-7.11,33,33,0,0,1-7.27-11.17,38.23,38.23,0,0,1-2.62-14.24,42.4,42.4,0,0,1,2.51-14.59,33.85,33.85,0,0,1,7.06-11.65,32.71,32.71,0,0,1,10.8-7.54,33.69,33.69,0,0,1,13.81-2.65,48.58,48.58,0,0,1,16.19,2.43,28.32,28.32,0,0,1,18.25,18.33,47.81,47.81,0,0,1,2.39,15.48C910.2,1304.57,906.78,1313.43,900,1319.6Z" transform="translate(-74.4 -1070.67)"/><path class="cls-1" d="M1085.78,1264.72a57.4,57.4,0,0,0-14.6-20.1,58.37,58.37,0,0,0-22-11.81,91.65,91.65,0,0,0-25.87-3.63h-.1c-12.34.16-23,2.85-31.46,8.54a73.67,73.67,0,0,0-7.51,6l0-14.53h0c-17.86,0-32.33,9.51-32.33,27.45v124a11.37,11.37,0,0,0,3.27,8.05c2.54,2.68,6.76,4.14,12.52,4.35H968c7.27,0,11-2.3,12.86-4.22a11.51,11.51,0,0,0,3.44-8.18v-38.18l2.13,1.71a51,51,0,0,0,7.24,4.84c8.22,4.54,18.69,6.83,31.1,6.83a77.52,77.52,0,0,0,27.27-4.64,61.78,61.78,0,0,0,21.12-13,56.87,56.87,0,0,0,13.37-19.73,65.71,65.71,0,0,0,4.67-25.09C1091.18,1282.35,1089.36,1272.71,1085.78,1264.72Zm-33.65,54.88c-6.47,5.92-15.36,8.79-27.19,8.79a33.53,33.53,0,0,1-13.13-2.42,32.58,32.58,0,0,1-10.64-7.11,33,33,0,0,1-7.27-11.17,38.23,38.23,0,0,1-2.62-14.24,42.4,42.4,0,0,1,2.51-14.59,33.85,33.85,0,0,1,7.06-11.65,32.71,32.71,0,0,1,10.8-7.54,33.69,33.69,0,0,1,13.81-2.65,48.58,48.58,0,0,1,16.19,2.43,28.32,28.32,0,0,1,18.25,18.33,47.81,47.81,0,0,1,2.39,15.48C1062.3,1304.57,1058.88,1313.43,1052.13,1319.6Z" transform="translate(-74.4 -1070.67)"/><path class="cls-1" d="M1243.2,1291.43a65.71,65.71,0,0,0-4.67-25.09,56.87,56.87,0,0,0-13.37-19.73,61.78,61.78,0,0,0-21.12-13,77.52,77.52,0,0,0-27.27-4.64c-12.41,0-22.88,2.3-31.1,6.83a51,51,0,0,0-7.24,4.84l-2.13,1.71v-38.18a11.51,11.51,0,0,0-3.44-8.18c-1.85-1.92-5.6-4.22-12.86-4.22h-.27c-5.76.2-10,1.67-12.52,4.35a11.37,11.37,0,0,0-3.27,8.05v124c0,17.94,14.48,27.45,32.33,27.45h0l0-14.53a73.67,73.67,0,0,0,7.51,6c8.41,5.69,19.12,8.38,31.46,8.54h.1a91.65,91.65,0,0,0,25.87-3.63,58.37,58.37,0,0,0,22-11.81,57.4,57.4,0,0,0,14.6-20.1C1241.39,1312.08,1243.2,1302.45,1243.2,1291.43Zm-28.88.09a47.81,47.81,0,0,1-2.39,15.48,28.32,28.32,0,0,1-18.25,18.33,48.58,48.58,0,0,1-16.19,2.43,33.69,33.69,0,0,1-13.81-2.65,32.71,32.71,0,0,1-10.8-7.54,33.85,33.85,0,0,1-7.06-11.65,42.4,42.4,0,0,1-2.51-14.59,38.23,38.23,0,0,1,2.62-14.24,33,33,0,0,1,7.27-11.17,32.58,32.58,0,0,1,10.64-7.11,33.53,33.53,0,0,1,13.13-2.42c11.83,0,20.72,2.88,27.19,8.79C1210.9,1271.37,1214.32,1280.22,1214.32,1291.52Z" transform="translate(-74.4 -1070.67)"/><path class="cls-1" d="M1623,1300.05h0a33.16,33.16,0,0,0-9.12-10.85,48.81,48.81,0,0,0-12.85-7c-4.4-1.65-9.16-3.21-14.18-4.65-5.38-1.48-9.88-2.81-13.36-3.95a36.42,36.42,0,0,1-7.28-3.09,6.33,6.33,0,0,1-2.31-2,6.22,6.22,0,0,1-.53-3,7,7,0,0,1,.93-3.82,10.1,10.1,0,0,1,3.09-3.07,15.59,15.59,0,0,1,4.92-2.07,28.09,28.09,0,0,1,6.39-.74c6.11.15,9.32,1.08,10.92,1.82a46.69,46.69,0,0,1,8.37,5.16c1.84,1.52,3.3,2.7,4.34,3.49a11.69,11.69,0,0,0,7.25,2.59,11.92,11.92,0,0,0,11-6.57,19.65,19.65,0,0,0,2.16-9c0-3.38-1.49-6.72-4.44-9.94a36.89,36.89,0,0,0-9.36-7,57.72,57.72,0,0,0-13.29-5.1,67.34,67.34,0,0,0-16.83-2,58.29,58.29,0,0,0-16.78,2.37,45,45,0,0,0-14.28,7.12,35.46,35.46,0,0,0-10,11.69,32.75,32.75,0,0,0-3.7,15.54,35.1,35.1,0,0,0,2.52,13.93,26.72,26.72,0,0,0,8.24,10.54,48.51,48.51,0,0,0,12.49,6.81,147,147,0,0,0,16.11,5,123,123,0,0,1,13.42,4.2,29,29,0,0,1,6.89,3.59,6.91,6.91,0,0,1,2.2,2.53,11,11,0,0,1,.69,4.18c0,3.35-1.41,5.94-4.43,8.14-3.55,2.59-7.85,3.84-13.15,3.84a34.19,34.19,0,0,1-12.17-1.8,36.11,36.11,0,0,1-8-4.13,41.1,41.1,0,0,1-5.19-4.34c-2.83-2.89-5.94-4.38-9.16-4.44l-.65,0a11.13,11.13,0,0,0-10.63,7.06,21.11,21.11,0,0,0-1.73,7.92c0,3,1.42,6.22,4.35,9.71a41.68,41.68,0,0,0,9.6,8.09,58.69,58.69,0,0,0,14.32,6.38,62.71,62.71,0,0,0,18.41,2.59,55.31,55.31,0,0,0,17.14-2.73,53.81,53.81,0,0,0,15.21-7.74,41.21,41.21,0,0,0,11.36-12.59,36.13,36.13,0,0,0,1.09-32.59Z" transform="translate(-74.4 -1070.67)"/><path class="cls-1" d="M1384.95,1320.08a57.4,57.4,0,0,0,14.6,20.1,58.37,58.37,0,0,0,22,11.81,91.65,91.65,0,0,0,25.87,3.63h.1c12.34-.16,23-2.85,31.46-8.54a73.67,73.67,0,0,0,7.51-6l0,14.53h0c17.86,0,32.33-9.51,32.33-27.45v-124a11.37,11.37,0,0,0-3.27-8.05c-2.54-2.68-6.76-4.14-12.52-4.35h-.27c-7.27,0-11,2.3-12.86,4.22a11.51,11.51,0,0,0-3.44,8.18v38.18l-2.13-1.71a51,51,0,0,0-7.24-4.84c-8.22-4.54-18.69-6.83-31.1-6.83a77.52,77.52,0,0,0-27.27,4.64,61.78,61.78,0,0,0-21.12,13,56.87,56.87,0,0,0-13.37,19.73,65.71,65.71,0,0,0-4.67,25.09C1379.55,1302.45,1381.36,1312.08,1384.95,1320.08Zm33.65-54.88c6.47-5.92,15.36-8.79,27.19-8.79a33.53,33.53,0,0,1,13.13,2.42,32.58,32.58,0,0,1,10.64,7.11,33,33,0,0,1,7.27,11.17,38.23,38.23,0,0,1,2.62,14.24,42.4,42.4,0,0,1-2.51,14.59,33.85,33.85,0,0,1-7.06,11.65,32.71,32.71,0,0,1-10.8,7.54,33.69,33.69,0,0,1-13.81,2.65,48.58,48.58,0,0,1-16.19-2.43,28.32,28.32,0,0,1-18.25-18.33,47.81,47.81,0,0,1-2.39-15.48C1408.43,1280.22,1411.85,1271.37,1418.59,1265.2Z" transform="translate(-74.4 -1070.67)"/></svg>