<?xml version="1.0" encoding="UTF-8"?>
<svg width="240px" height="60px" viewBox="0 0 240 60" version="1.1" xmlns="http://www.w3.org/2000/svg" xmlns:xlink="http://www.w3.org/1999/xlink">
    <title>7-sfinance</title>
    <g id="控件" stroke="none" stroke-width="1" fill="none" fill-rule="evenodd">
        <g id="编组-19备份" transform="translate(0.000000, -348.000000)" fill="#D4D9E0" fill-rule="nonzero">
            <g id="logo_orgin" transform="translate(47.000000, 357.000000)">
                <g id="logo">
                    <path d="M17.7709503,5.08192522e-14 L35.5419005,10.5 L35.5419005,31.5 L17.7709503,42 L0,31.5 L0,10.5 L17.7709503,5.08192522e-14 Z M17.7709503,21 L3.94910006,29.0769231 L17.7709503,37.1538462 L31.5928005,29.0769231 L25.8754552,25.736011 L17.7709503,30.4723138 L12.0537689,27.1315433 L14.4419277,25.7361147 L17.7705554,27.6812308 L23.4872964,24.3405824 L17.7709503,21 Z M17.7709503,4.84615384 L3.94910006,12.9230769 L9.66577924,16.2637253 L17.7709503,11.5276862 L23.4969762,14.8739719 L21.1092457,16.2689719 L17.7709503,14.3183654 L12.0535098,17.6591538 L17.7709503,21 L31.5928005,12.9230769 L17.7709503,4.84615384 Z" id="形状结合"></path>
                </g>
                <path d="M53.5317947,30.4489796 C54.6410772,30.4489796 55.6320906,30.2530612 56.5048349,29.8612245 C57.3775793,29.4693878 58.0627243,28.8897959 58.5602702,28.122449 C59.057816,27.355102 59.3065889,26.4244898 59.3065889,25.3306122 C59.3065889,24.6285714 59.1597721,23.9836735 58.8661385,23.3959184 C58.5725049,22.8081633 58.1891499,22.3020408 57.7160735,21.877551 C57.373501,21.5510204 57.006459,21.2693878 56.6149475,21.0326531 C56.2234361,20.7959184 55.6606383,20.4734694 54.9265543,20.0653061 C54.1598444,19.6408163 53.5521859,19.2816327 53.1035791,18.9877551 C52.6549722,18.6938776 52.2838519,18.3469388 51.9902183,17.9469388 C51.6965847,17.5469388 51.5497679,17.0938776 51.5497679,16.5877551 C51.5497679,15.8693878 51.7822278,15.3265306 52.2471477,14.9591837 C52.7120676,14.5918367 53.352352,14.4081633 54.1680009,14.4081633 C54.804207,14.4081633 55.4037089,14.5265306 55.9665067,14.7632653 C56.5293044,15 56.9656766,15.2816327 57.2756231,15.6081633 L57.2756231,15.6081633 L58.5725049,13.3795918 C57.3979705,12.4163265 55.9705849,11.9346939 54.2903482,11.9346939 C52.7243023,11.9346939 51.4274206,12.3469388 50.399703,13.1714286 C49.3719854,13.9959184 48.8581266,15.1836735 48.8581266,16.7346939 C48.8581266,18.6122449 49.649306,20.0816327 51.2316648,21.1428571 C51.5742374,21.3714286 52.2104435,21.7142857 53.1402833,22.1714286 C53.9233062,22.5632653 54.5268864,22.8938776 54.9510238,23.1632653 C55.3751612,23.4326531 55.7340467,23.7714286 56.0276803,24.1795918 C56.3213139,24.5877551 56.4681307,25.0693878 56.4681307,25.6244898 C56.4681307,26.3428571 56.1948884,26.9061224 55.6484036,27.3142857 C55.1019188,27.722449 54.3963825,27.9265306 53.5317947,27.9265306 C52.8629626,27.9265306 52.1655828,27.7591837 51.4396553,27.4244898 C50.7137278,27.0897959 50.1794778,26.7673469 49.8369052,26.4571429 L49.8369052,26.4571429 L48.5400235,28.7836735 C48.9641609,29.2081633 49.6574625,29.5918367 50.6199282,29.9346939 C51.5823939,30.277551 52.553016,30.4489796 53.5317947,30.4489796 Z M63.2706425,30.4489796 C63.7763448,30.4489796 64.196404,30.2816327 64.5308201,29.9469388 C64.8652361,29.6122449 65.0324441,29.2 65.0324441,28.7102041 C65.0324441,28.2040816 64.8652361,27.7836735 64.5308201,27.4489796 C64.196404,27.1142857 63.7763448,26.9469388 63.2706425,26.9469388 C62.7649402,26.9469388 62.344881,27.1142857 62.010465,27.4489796 C61.6760489,27.7836735 61.5088409,28.2040816 61.5088409,28.7102041 C61.5088409,29.2 61.6801272,29.6122449 62.0226997,29.9469388 C62.3652722,30.2816327 62.7812532,30.4489796 63.2706425,30.4489796 Z M70.8317078,30.2040816 L70.8317078,22.0734694 L75.2851507,22.0734694 L75.2851507,19.6734694 L70.8317078,19.6734694 L70.8317078,14.5795918 L76.557563,14.5795918 L76.557563,12.2040816 L68.1155969,12.2040816 L68.1155969,30.2040816 L70.8317078,30.2040816 Z M79.8364715,16.8571429 C80.3421739,16.8571429 80.762233,16.6857143 81.0966491,16.3428571 C81.4310651,16 81.5982732,15.5755102 81.5982732,15.0693878 C81.5982732,14.6122449 81.4269869,14.2204082 81.0844144,13.8938776 C80.7418418,13.5673469 80.3258609,13.4040816 79.8364715,13.4040816 C79.3307692,13.4040816 78.9066318,13.5673469 78.5640593,13.8938776 C78.2214867,14.2204082 78.0502005,14.6122449 78.0502005,15.0693878 C78.0502005,15.5755102 78.2214867,16 78.5640593,16.3428571 C78.9066318,16.6857143 79.3307692,16.8571429 79.8364715,16.8571429 Z M81.2312312,30.2040816 L81.2312312,18.9632653 L78.4906509,18.9632653 L78.4906509,30.2040816 L81.2312312,30.2040816 Z M86.9326169,30.2040816 L86.9326169,24.6204082 C86.9326169,23.8530612 87.0998249,23.1836735 87.434241,22.6122449 C87.768657,22.0408163 88.1887162,21.6040816 88.6944185,21.3020408 C89.2001208,21 89.6976667,20.8489796 90.187056,20.8489796 C91.0516438,20.8489796 91.6225981,21.1632653 91.8999187,21.7918367 C92.1772393,22.4204082 92.3158996,23.444898 92.3158996,24.8653061 L92.3158996,24.8653061 L92.3158996,30.2040816 L94.958602,30.2040816 L94.958602,24.7918367 C94.958602,23.4040816 94.8525677,22.277551 94.640499,21.4122449 C94.4284303,20.5469388 94.0124493,19.8734694 93.3925562,19.3918367 C92.772663,18.9102041 91.8836057,18.6693878 90.7253843,18.6693878 C89.8281705,18.6693878 89.0451476,18.8897959 88.3763155,19.3306122 C87.7074834,19.7714286 87.218094,20.3346939 86.9081475,21.0204082 L86.9081475,21.0204082 L86.883678,18.9632653 L84.2899145,18.9632653 L84.2899145,30.2040816 L86.9326169,30.2040816 Z M102.715423,30.4489796 C103.62895,30.4489796 104.452755,30.2244898 105.186839,29.7755102 C105.920923,29.3265306 106.426625,28.8081633 106.703946,28.2204082 L106.703946,28.2204082 L106.752885,30.2040816 L109.248771,30.2040816 L109.248771,18.9632653 L106.728416,18.9632653 L106.679477,20.8489796 C106.548973,20.522449 106.287965,20.1918367 105.896454,19.8571429 C105.504942,19.522449 105.023709,19.2408163 104.452755,19.0122449 C103.881801,18.7836735 103.270064,18.6693878 102.617545,18.6693878 C101.49195,18.6693878 100.513171,18.9142857 99.6812091,19.4040816 C98.8492473,19.8938776 98.2089629,20.5795918 97.760356,21.4612245 C97.3117491,22.3428571 97.0874456,23.3714286 97.0874456,24.5469388 C97.0874456,25.7387755 97.344375,26.7795918 97.8582339,27.6693878 C98.3720927,28.5591837 99.0572377,29.244898 99.9136691,29.7265306 C100.7701,30.2081633 101.704018,30.4489796 102.715423,30.4489796 Z M103.155873,28.244898 C102.09553,28.244898 101.283959,27.9061224 100.721161,27.2285714 C100.158364,26.5510204 99.8769649,25.6653061 99.8769649,24.5714286 C99.8769649,23.4938776 100.162442,22.6163265 100.733396,21.9387755 C101.30435,21.2612245 102.111843,20.922449 103.155873,20.922449 C103.759454,20.922449 104.314095,21.077551 104.819797,21.3877551 C105.325499,21.6979592 105.725167,22.1306122 106.018801,22.6857143 C106.312435,23.2408163 106.459251,23.8693878 106.459251,24.5714286 L106.459251,24.5714286 L106.459251,24.7428571 C106.459251,25.7877551 106.141148,26.6326531 105.504942,27.277551 C104.868736,27.922449 104.085713,28.244898 103.155873,28.244898 Z M114.827809,30.2040816 L114.827809,24.6204082 C114.827809,23.8530612 114.995017,23.1836735 115.329433,22.6122449 C115.663849,22.0408163 116.083908,21.6040816 116.589611,21.3020408 C117.095313,21 117.592859,20.8489796 118.082248,20.8489796 C118.946836,20.8489796 119.51779,21.1632653 119.795111,21.7918367 C120.072431,22.4204082 120.211092,23.444898 120.211092,24.8653061 L120.211092,24.8653061 L120.211092,30.2040816 L122.853794,30.2040816 L122.853794,24.7918367 C122.853794,23.4040816 122.74776,22.277551 122.535691,21.4122449 C122.323622,20.5469388 121.907641,19.8734694 121.287748,19.3918367 C120.667855,18.9102041 119.778798,18.6693878 118.620576,18.6693878 C117.723363,18.6693878 116.94034,18.8897959 116.271508,19.3306122 C115.602676,19.7714286 115.113286,20.3346939 114.80334,21.0204082 L114.80334,21.0204082 L114.77887,18.9632653 L112.185107,18.9632653 L112.185107,30.2040816 L114.827809,30.2040816 Z M130.879779,30.4489796 C131.662802,30.4489796 132.376495,30.3387755 133.020858,30.1183673 C133.66522,29.8979592 134.166844,29.6489796 134.52573,29.3714286 L134.52573,29.3714286 L133.571421,27.5102041 C133.310413,27.7061224 132.939293,27.877551 132.45806,28.0244898 C131.976827,28.1714286 131.483359,28.244898 130.977657,28.244898 C129.966253,28.244898 129.179151,27.9102041 128.616354,27.2408163 C128.053556,26.5714286 127.772157,25.6326531 127.772157,24.4244898 C127.772157,23.3632653 128.045399,22.5142857 128.591884,21.877551 C129.138369,21.2408163 129.933627,20.922449 130.977657,20.922449 C131.842245,20.922449 132.617111,21.2653061 133.302257,21.9510204 L133.302257,21.9510204 L134.476791,19.8204082 C134.117905,19.4938776 133.624438,19.2204082 132.996388,19 C132.368339,18.7795918 131.62202,18.6693878 130.757432,18.6693878 C129.615524,18.6693878 128.608197,18.9061224 127.735453,19.3795918 C126.862709,19.8530612 126.18572,20.5265306 125.704487,21.4 C125.223254,22.2734694 124.982638,23.2897959 124.982638,24.4489796 C124.982638,25.6734694 125.243645,26.7387755 125.765661,27.644898 C126.287676,28.5510204 126.993212,29.244898 127.88227,29.7265306 C128.771327,30.2081633 129.770497,30.4489796 130.879779,30.4489796 Z M141.744223,30.4489796 C142.739314,30.4489796 143.587589,30.3510204 144.289047,30.155102 C144.990505,29.9591837 145.545146,29.7306122 145.952971,29.4693878 L145.952971,29.4693878 L145.145478,27.5836735 C144.721341,27.8122449 144.256421,27.9918367 143.750719,28.122449 C143.245017,28.2530612 142.600654,28.3183673 141.817631,28.3183673 C140.871478,28.3183673 140.133316,28.0979592 139.603144,27.6571429 C139.072972,27.2163265 138.718165,26.4979592 138.538722,25.5020408 L138.538722,25.5020408 L146.613646,25.5020408 C146.662585,25.0285714 146.687055,24.5714286 146.687055,24.1306122 C146.687055,22.4 146.266996,21.0571429 145.426877,20.1020408 C144.586759,19.1469388 143.302112,18.6693878 141.572936,18.6693878 C140.463654,18.6693878 139.468562,18.9102041 138.587661,19.3918367 C137.706761,19.8734694 137.017537,20.5632653 136.519991,21.4612245 C136.022446,22.3591837 135.773673,23.4040816 135.773673,24.5959184 C135.773673,25.6571429 135.985741,26.6326531 136.409879,27.522449 C136.834016,28.4122449 137.494692,29.122449 138.391906,29.6530612 C139.289119,30.1836735 140.406558,30.4489796 141.744223,30.4489796 Z M144.117761,23.6653061 L138.538722,23.6653061 C138.79973,21.8204082 139.786665,20.8979592 141.499528,20.8979592 C142.347803,20.8979592 143.000322,21.1061224 143.457085,21.522449 C143.913849,21.9387755 144.134074,22.6530612 144.117761,23.6653061 L144.117761,23.6653061 Z" id="S.Finance"></path>
            </g>
        </g>
    </g>
</svg>