<svg id="图层_1" data-name="图层 1" xmlns="http://www.w3.org/2000/svg" xmlns:xlink="http://www.w3.org/1999/xlink" viewBox="0 0 623.18 355.55"><defs><style>.cls-1,.cls-3{fill:none;}.cls-2{opacity:0.7;}.cls-3{stroke:#e9f2f4;stroke-miterlimit:10;}.cls-4{fill:url(#未命名的渐变_17);}.cls-5{fill:url(#未命名的渐变_9);}.cls-6{fill:url(#未命名的渐变_9-2);}.cls-7{fill:url(#未命名的渐变_17-2);}.cls-8{fill:url(#未命名的渐变_17-3);}.cls-9{fill:url(#未命名的渐变_17-4);}.cls-10{isolation:isolate;}.cls-11{clip-path:url(#clip-path);}.cls-12{fill:url(#未命名的渐变_9-3);}.cls-13{fill:url(#未命名的渐变_9-4);}.cls-14{fill:url(#未命名的渐变_17-5);}.cls-15{fill:url(#未命名的渐变_9-5);}.cls-16{fill:url(#未命名的渐变_17-6);}.cls-17{fill:url(#未命名的渐变_17-7);}.cls-18{fill:url(#未命名的渐变_9-6);}.cls-19{fill:url(#未命名的渐变_9-7);}.cls-20{fill:url(#未命名的渐变_17-8);}.cls-21{fill:url(#未命名的渐变_9-8);}.cls-22{fill:url(#未命名的渐变_17-9);}.cls-23{fill:url(#未命名的渐变_9-9);}.cls-24{fill:url(#未命名的渐变_9-10);}.cls-25{fill:gray;}.cls-26{fill:url(#未命名的渐变_17-10);}.cls-27{fill:url(#未命名的渐变_17-11);}.cls-28{fill:url(#未命名的渐变_17-12);}.cls-29{clip-path:url(#clip-path-2);}.cls-30{fill:url(#未命名的渐变_9-11);}.cls-31{fill:url(#未命名的渐变_9-12);}.cls-32{fill:url(#未命名的渐变_17-13);}.cls-33{fill:url(#未命名的渐变_9-13);}.cls-34{fill:url(#未命名的渐变_17-14);}.cls-35{fill:url(#未命名的渐变_17-15);}.cls-36{fill:url(#未命名的渐变_9-14);}.cls-37{fill:url(#未命名的渐变_9-15);}.cls-38{fill:url(#未命名的渐变_17-16);}.cls-39{fill:url(#未命名的渐变_9-16);}.cls-40{fill:url(#未命名的渐变_27);}.cls-41{fill:#fff;}.cls-42{fill:url(#未命名的渐变_17-17);}.cls-43{fill:url(#未命名的渐变_9-17);}.cls-44{fill:url(#未命名的渐变_9-18);}.cls-45{fill:url(#未命名的渐变_17-18);}.cls-46{fill:url(#未命名的渐变_17-19);}.cls-47{fill:url(#未命名的渐变_17-20);}.cls-48{clip-path:url(#clip-path-3);}.cls-49{fill:url(#未命名的渐变_9-19);}.cls-50{fill:url(#未命名的渐变_9-20);}.cls-51{fill:url(#未命名的渐变_17-21);}.cls-52{fill:url(#未命名的渐变_9-21);}.cls-53{fill:url(#未命名的渐变_17-22);}.cls-54{fill:url(#未命名的渐变_17-23);}.cls-55{fill:url(#未命名的渐变_9-22);}.cls-56{fill:url(#未命名的渐变_9-23);}.cls-57{fill:url(#未命名的渐变_17-24);}.cls-58{fill:url(#未命名的渐变_9-24);}.cls-59{fill:url(#未命名的渐变_27-2);}.cls-60{fill:url(#未命名的渐变_27-3);}</style><linearGradient id="未命名的渐变_17" x1="304.59" y1="108.67" x2="319.79" y2="108.67" gradientUnits="userSpaceOnUse"><stop offset="0" stop-color="#1cbdbd"/><stop offset="1" stop-color="#72e7ff"/></linearGradient><linearGradient id="未命名的渐变_9" x1="144.86" y1="213.99" x2="144.86" y2="177.93" gradientUnits="userSpaceOnUse"><stop offset="0" stop-color="#1cbdbd"/><stop offset="1" stop-color="#1f65ba"/></linearGradient><linearGradient id="未命名的渐变_9-2" x1="1430.03" y1="353.56" x2="1561.57" y2="353.56" xlink:href="#未命名的渐变_9"/><linearGradient id="未命名的渐变_17-2" x1="321.69" y1="153.89" x2="345.51" y2="153.89" xlink:href="#未命名的渐变_17"/><linearGradient id="未命名的渐变_17-3" x1="112.04" y1="153.89" x2="135.87" y2="153.89" xlink:href="#未命名的渐变_17"/><linearGradient id="未命名的渐变_17-4" x1="1572.02" y1="392.78" x2="1588.82" y2="392.78" xlink:href="#未命名的渐变_17"/><clipPath id="clip-path" transform="translate(-1267.06 -226.43)"><path class="cls-1" d="M1419.94,393.34l-.06,22.49c-9-7.14-14.7-15.25-17-23.61l.06-22.49C1405.25,378.09,1410.91,386.2,1419.94,393.34Z"/></clipPath><linearGradient id="未命名的渐变_9-3" x1="1411.41" y1="440.41" x2="1411.41" y2="404.36" xlink:href="#未命名的渐变_9"/><linearGradient id="未命名的渐变_9-4" x1="293.59" y1="211.51" x2="293.59" y2="185.8" xlink:href="#未命名的渐变_9"/><linearGradient id="未命名的渐变_17-5" x1="302.78" y1="193.87" x2="320.27" y2="193.87" xlink:href="#未命名的渐变_17"/><linearGradient id="未命名的渐变_9-5" x1="146.49" y1="213.99" x2="146.49" y2="177.93" xlink:href="#未命名的渐变_9"/><linearGradient id="未命名的渐变_17-6" x1="155.22" y1="194.54" x2="173.63" y2="194.54" xlink:href="#未命名的渐变_17"/><linearGradient id="未命名的渐变_17-7" x1="1510.7" y1="421.45" x2="1551.47" y2="421.45" xlink:href="#未命名的渐变_17"/><linearGradient id="未命名的渐变_9-6" x1="1461.07" y1="440.41" x2="1461.07" y2="404.36" xlink:href="#未命名的渐变_9"/><linearGradient id="未命名的渐变_9-7" x1="241.45" y1="206.79" x2="243.7" y2="206.79" xlink:href="#未命名的渐变_9"/><linearGradient id="未命名的渐变_17-8" x1="216.72" y1="213.67" x2="241.51" y2="213.67" xlink:href="#未命名的渐变_17"/><linearGradient id="未命名的渐变_9-8" x1="214.38" y1="206.79" x2="216.78" y2="206.79" xlink:href="#未命名的渐变_9"/><linearGradient id="未命名的渐变_17-9" x1="384.31" y1="252.78" x2="394.74" y2="252.78" xlink:href="#未命名的渐变_17"/><linearGradient id="未命名的渐变_9-9" x1="274.71" y1="325.04" x2="274.71" y2="300.3" xlink:href="#未命名的渐变_9"/><linearGradient id="未命名的渐变_9-10" x1="1554.2" y1="491.87" x2="1644.45" y2="491.87" xlink:href="#未命名的渐变_9"/><linearGradient id="未命名的渐变_17-10" x1="396.04" y1="283.81" x2="412.38" y2="283.81" xlink:href="#未命名的渐变_17"/><linearGradient id="未命名的渐变_17-11" x1="252.19" y1="283.81" x2="268.54" y2="283.81" xlink:href="#未命名的渐变_17"/><linearGradient id="未命名的渐变_17-12" x1="1651.62" y1="518.78" x2="1663.15" y2="518.78" xlink:href="#未命名的渐变_17"/><clipPath id="clip-path-2" transform="translate(-1267.06 -226.43)"><path class="cls-1" d="M1547.28,519.17l0,15.43c-6.2-4.9-10.08-10.46-11.67-16.2l0-15.43C1537.19,508.71,1541.08,514.27,1547.28,519.17Z"/></clipPath><linearGradient id="未命名的渐变_9-11" x1="1541.42" y1="551.47" x2="1541.42" y2="526.73" xlink:href="#未命名的渐变_9"/><linearGradient id="未命名的渐变_9-12" x1="376.76" y1="323.34" x2="376.76" y2="305.7" xlink:href="#未命名的渐变_9"/><linearGradient id="未命名的渐变_17-13" x1="383.06" y1="311.24" x2="395.07" y2="311.24" xlink:href="#未命名的渐变_17"/><linearGradient id="未命名的渐变_9-13" x1="275.83" y1="325.04" x2="275.83" y2="300.3" xlink:href="#未命名的渐变_9"/><linearGradient id="未命名的渐变_17-14" x1="281.82" y1="311.7" x2="294.45" y2="311.7" xlink:href="#未命名的渐变_17"/><linearGradient id="未命名的渐变_17-15" x1="1609.55" y1="538.46" x2="1637.52" y2="538.46" xlink:href="#未命名的渐变_17"/><linearGradient id="未命名的渐变_9-14" x1="1575.49" y1="551.47" x2="1575.49" y2="526.73" xlink:href="#未命名的渐变_9"/><linearGradient id="未命名的渐变_9-15" x1="340.98" y1="320.11" x2="342.53" y2="320.11" xlink:href="#未命名的渐变_9"/><linearGradient id="未命名的渐变_17-16" x1="324.02" y1="324.83" x2="341.03" y2="324.83" xlink:href="#未命名的渐变_17"/><linearGradient id="未命名的渐变_9-16" x1="322.41" y1="320.11" x2="324.06" y2="320.11" xlink:href="#未命名的渐变_9"/><linearGradient id="未命名的渐变_27" x1="1379.09" y1="361.26" x2="1612.57" y2="361.26" gradientUnits="userSpaceOnUse"><stop offset="0" stop-color="#ff856f"/><stop offset="1" stop-color="#ff62ec"/></linearGradient><linearGradient id="未命名的渐变_17-17" x1="487.55" y1="153.08" x2="500.19" y2="153.08" xlink:href="#未命名的渐变_17"/><linearGradient id="未命名的渐变_9-17" x1="354.78" y1="240.63" x2="354.78" y2="210.66" xlink:href="#未命名的渐变_9"/><linearGradient id="未命名的渐变_9-18" x1="1636.89" y1="394.86" x2="1746.24" y2="394.86" xlink:href="#未命名的渐变_9"/><linearGradient id="未命名的渐变_17-18" x1="501.77" y1="190.68" x2="521.57" y2="190.68" xlink:href="#未命名的渐变_17"/><linearGradient id="未命名的渐变_17-19" x1="327.5" y1="190.68" x2="347.31" y2="190.68" xlink:href="#未命名的渐变_17"/><linearGradient id="未命名的渐变_17-20" x1="1754.92" y1="427.46" x2="1768.89" y2="427.46" xlink:href="#未命名的渐变_17"/><clipPath id="clip-path-3" transform="translate(-1267.06 -226.43)"><path class="cls-1" d="M1628.51,427.93l-.05,18.69c-7.51-5.93-12.22-12.68-14.14-19.62l.05-18.69C1616.29,415.25,1621,422,1628.51,427.93Z"/></clipPath><linearGradient id="未命名的渐变_9-19" x1="1621.41" y1="467.06" x2="1621.41" y2="437.09" xlink:href="#未命名的渐变_9"/><linearGradient id="未命名的渐变_9-20" x1="478.41" y1="238.57" x2="478.41" y2="217.2" xlink:href="#未命名的渐变_9"/><linearGradient id="未命名的渐变_17-21" x1="486.05" y1="223.91" x2="500.59" y2="223.91" xlink:href="#未命名的渐变_17"/><linearGradient id="未命名的渐变_9-21" x1="356.13" y1="240.63" x2="356.13" y2="210.66" xlink:href="#未命名的渐变_9"/><linearGradient id="未命名的渐变_17-22" x1="363.39" y1="224.46" x2="378.69" y2="224.46" xlink:href="#未命名的渐变_17"/><linearGradient id="未命名的渐变_17-23" x1="1703.95" y1="451.29" x2="1737.84" y2="451.29" xlink:href="#未命名的渐变_17"/><linearGradient id="未命名的渐变_9-22" x1="1662.69" y1="467.06" x2="1662.69" y2="437.09" xlink:href="#未命名的渐变_9"/><linearGradient id="未命名的渐变_9-23" x1="435.07" y1="234.65" x2="436.94" y2="234.65" xlink:href="#未命名的渐变_9"/><linearGradient id="未命名的渐变_17-24" x1="414.51" y1="240.37" x2="435.12" y2="240.37" xlink:href="#未命名的渐变_17"/><linearGradient id="未命名的渐变_9-24" x1="412.56" y1="234.65" x2="414.56" y2="234.65" xlink:href="#未命名的渐变_9"/><linearGradient id="未命名的渐变_27-2" x1="1594.55" y1="401.26" x2="1788.63" y2="401.26" xlink:href="#未命名的渐变_27"/><linearGradient id="未命名的渐变_27-3" x1="1519.25" y1="497.16" x2="1679.45" y2="497.16" xlink:href="#未命名的渐变_27"/></defs><title>产品逻辑图</title><g class="cls-2"><line class="cls-3" x1="0.25" y1="169.4" x2="324.84" y2="354.81"/><line class="cls-3" x1="22.44" y1="157.22" x2="347.03" y2="342.63"/><line class="cls-3" x1="43.92" y1="144.82" x2="368.51" y2="330.23"/><line class="cls-3" x1="65.32" y1="132.47" x2="389.91" y2="317.89"/><line class="cls-3" x1="87.09" y1="120.51" x2="411.68" y2="305.92"/><line class="cls-3" x1="107.5" y1="107.92" x2="432.1" y2="293.34"/><line class="cls-3" x1="128.71" y1="95.74" x2="453.3" y2="281.15"/><line class="cls-3" x1="150.57" y1="83.84" x2="475.16" y2="269.25"/><line class="cls-3" x1="172.01" y1="71.5" x2="496.6" y2="256.91"/><line class="cls-3" x1="192.98" y1="59.25" x2="517.57" y2="244.67"/><line class="cls-3" x1="214.36" y1="47.14" x2="538.95" y2="232.55"/><line class="cls-3" x1="235.88" y1="34.79" x2="560.47" y2="220.2"/><line class="cls-3" x1="256.47" y1="22.78" x2="581.06" y2="208.19"/><line class="cls-3" x1="277.75" y1="12.44" x2="602.34" y2="197.85"/><line class="cls-3" x1="298.34" y1="0.43" x2="622.94" y2="185.85"/><line class="cls-3" x1="621.66" y1="185.85" x2="325.05" y2="355.12"/><line class="cls-3" x1="600.67" y1="173.08" x2="303.4" y2="342.63"/><line class="cls-3" x1="578.72" y1="160.81" x2="281.93" y2="330.23"/><line class="cls-3" x1="557.15" y1="148.58" x2="260.36" y2="317.98"/><line class="cls-3" x1="535.87" y1="136.57" x2="239" y2="305.78"/><line class="cls-3" x1="515.12" y1="124.04" x2="217.78" y2="293.66"/><line class="cls-3" x1="493.61" y1="111.64" x2="196.51" y2="281.51"/><line class="cls-3" x1="471.99" y1="99.67" x2="175.17" y2="269.31"/><line class="cls-3" x1="450.96" y1="87.49" x2="153.64" y2="257.02"/><line class="cls-3" x1="429.94" y1="75.29" x2="132.44" y2="244.91"/><line class="cls-3" x1="408.41" y1="63.05" x2="111.14" y2="232.74"/><line class="cls-3" x1="386.51" y1="50.77" x2="89.57" y2="220.42"/><line class="cls-3" x1="365.75" y1="38.7" x2="68.77" y2="208.54"/><line class="cls-3" x1="340.34" y1="24.46" x2="43.47" y2="194.09"/><line class="cls-3" x1="297.95" y1="0.43" x2="1.2" y2="169.94"/><line class="cls-3" x1="319.53" y1="12.76" x2="22.51" y2="182.12"/></g><polygon class="cls-4" points="319.79 92.09 319.73 114.58 304.59 125.24 304.65 102.75 319.79 92.09"/><polygon class="cls-5" points="152.52 102.75 152.46 125.24 137.2 114.58 137.26 92.09 152.52 102.75"/><path class="cls-6" d="M1542.16,334.33q-1.16-.67-2.37-1.3l-.81-.41c-.54-.28-1.08-.55-1.64-.81l-1-.45-1.53-.69-1.09-.45-1.05-.44-.55-.21-.69-.26q-1-.38-2-.74l-.47-.17q-1.24-.42-2.51-.81l-.63-.19-1.09-.32-.61-.16-2-.53-1.22-.31c-.73-.18-1.47-.34-2.21-.5l-.83-.19-.22,0-2-.39-1.11-.21c-.89-.15-1.78-.29-2.67-.42l-.48-.08h0q-1.56-.22-3.14-.4l-.74-.07c-.81-.08-1.61-.17-2.42-.24h-.06l-1.1-.07-2-.14-1.32-.05-1.87-.07h-1.21l-2.05,0-1.35,0-1.92,0h-.35l-.89,0-2.21.11-1.33.09-2.11.18-.74.06-1,.1-.69.08q-1.37.16-2.72.35l-.4.06-2.37.37-.69.12-.56.09-1,.19-1.72.34-1.39.31-1.67.39-1.38.35-1.64.44-1.36.39-1.6.49-.7.21-1,.33-.59.2q-1.23.42-2.43.88l-.44.17q-1,.39-2,.81l-.6.26c-.78.34-1.55.68-2.31,1l-.27.13q-1,.49-2,1l-.58.31c-.74.39-1.46.79-2.18,1.2l-.8.47-.18.11-.61.38-.55.34-.59.38-.53.35-.57.39-.51.35-.55.4-.49.36-.54.41-.46.36-.52.42-.44.36-.51.43-.42.36-.49.44-.35.32,0,0q-.52.48-1,1l-.25.26-.72.74-.28.3-.74.83-.15.17q-.43.5-.82,1l-.07.08-.19.25-.44.58-.27.37-.39.56-.25.37-.37.57-.23.36-.36.62-.15.25,0,.07-.3.55-.19.35-.31.62-.14.28q-.21.45-.4.91l-.06.15c-.11.26-.21.51-.31.77v0l-.12.34c-.06.18-.13.35-.19.53l-.12.4c-.05.17-.11.34-.16.51l-.11.41c0,.17-.09.34-.13.5s-.06.28-.1.42-.08.33-.11.5l0,.09c0,.11,0,.22-.06.33s-.06.34-.09.51,0,.28-.06.42,0,.33-.07.5,0,.29,0,.43,0,.33,0,.5,0,.29,0,.43,0,.33,0,.5,0,.11,0,.16,0,.38,0,.58l-.06,22.49c0-.25,0-.49,0-.74s0-.33,0-.49,0-.29,0-.43,0-.33,0-.5,0-.29,0-.43,0-.33.07-.5,0-.28.06-.42.06-.34.09-.51,0-.28.08-.42.07-.33.11-.5.06-.28.1-.42.09-.33.13-.5l.11-.41c0-.17.1-.34.16-.51l.13-.4.19-.53.14-.38c.09-.25.2-.5.3-.75l.07-.17q.19-.46.4-.91l.14-.28.31-.62.19-.35.3-.55.19-.33.36-.62.23-.36.37-.57.25-.37.39-.56.27-.37.44-.58.26-.33q.4-.5.82-1l.15-.17.74-.83.28-.3.72-.74.25-.26q.49-.48,1-1l.39-.35.49-.44.42-.36.51-.43.44-.36.53-.42.46-.36.54-.41.49-.36.56-.4.51-.35.57-.39.53-.35.59-.38.55-.34.61-.38,1-.59c.71-.41,1.44-.81,2.18-1.2l.59-.31q1-.51,2-1l.27-.13q1.14-.54,2.31-1l.61-.26q1-.42,2-.81l.44-.17q1.2-.46,2.43-.88l.6-.2,1.67-.54,1.6-.49,1.36-.39,1.64-.44,1.38-.35,1.67-.39,1.39-.31,1.72-.34,1.53-.29.7-.12,2.37-.37.4-.06q1.36-.19,2.72-.35l.69-.08,1.7-.17,2.11-.18,1.33-.09,2.21-.11,1.25-.05,1.92,0,1.35,0,2.05,0,1.21,0,1.87.07,1.32.05,2,.14,1.17.08c.81.07,1.62.15,2.42.23l.74.07q1.58.18,3.14.4l.51.08c.89.13,1.79.27,2.67.42l1.11.21,2,.39,1.05.23c.74.16,1.48.32,2.21.5l1.22.31,2,.53,1.69.48.63.19q1.27.39,2.51.81l.47.17q1,.36,2,.74l.69.26,1.6.64,1.09.45,1.53.69,1,.45c.55.26,1.1.54,1.64.81l.81.41q1.2.63,2.37,1.3c13,7.48,19.44,17.31,19.41,27.11l.06-22.49C1561.6,351.64,1555.12,341.81,1542.16,334.33Z" transform="translate(-1267.06 -226.43)"/><polygon class="cls-7" points="345.51 141.99 345.45 164.48 321.69 165.79 321.76 143.3 345.51 141.99"/><polygon class="cls-8" points="135.87 143.3 135.81 165.79 112.04 164.48 112.11 141.99 135.87 143.3"/><path class="cls-9" d="M1588.29,393.83q.26-.8.47-1.61l.06-22.49q-.21.81-.47,1.61c-.06.18-.12.36-.18.54-.12.36-.24.71-.37,1.07s-.37,1-.57,1.45l0,.08q-.29.69-.62,1.37l-.23.48c-.16.32-.32.64-.49,1l-.3.55-.48.86-.39.66-.49.8-.42.66-.54.8-.45.65-.58.8-.48.64-.55.69-.72.88-.57.66-.77.86-.6.65-.83.86-.63.64-.89.86-.65.61-1.11,1-.55.48c-.57.49-1.15,1-1.75,1.45l-.06,22.49c.6-.48,1.18-1,1.75-1.45l.55-.48,1.11-1,.19-.17.45-.43.89-.86.63-.64.83-.86.6-.65.77-.86.57-.66.72-.88.34-.42.2-.27.48-.64.58-.8.45-.65.54-.8.42-.66.49-.8.39-.66.19-.32.29-.54.3-.55c.17-.32.33-.64.49-1l.24-.48q.32-.68.61-1.36l0-.08q.28-.68.54-1.35l0-.09c.13-.36.25-.71.37-1.07C1588.16,394.19,1588.23,394,1588.29,393.83Z" transform="translate(-1267.06 -226.43)"/><g class="cls-10"><g class="cls-11"><path class="cls-12" d="M1419.94,393.34l-.06,22.49c-9-7.14-14.7-15.25-17-23.61l.06-22.49c2.31,8.36,8,16.47,17,23.61" transform="translate(-1267.06 -226.43)"/></g></g><polygon class="cls-13" points="302.84 187.69 302.78 210.18 284.34 201.38 284.4 178.89 302.84 187.69"/><polygon class="cls-14" points="320.27 177.56 320.21 200.05 302.78 210.18 302.84 187.69 320.27 177.56"/><polygon class="cls-15" points="155.29 187.69 155.22 210.18 137.68 200.06 137.75 177.56 155.29 187.69"/><polygon class="cls-16" points="173.63 178.89 173.56 201.38 155.22 210.18 155.29 187.69 173.63 178.89"/><path class="cls-17" d="M1544.18,430.58l1.47-.52,1-.35,1.61-.61.8-.31q1.19-.47,2.37-1l.06-22.49q-1.17.5-2.37,1l-.81.31-1.6.61-1,.35-1.47.52-1.06.36-1.42.47-2.2.69-.09,0-2.33.68-.75.21-1.61.43-.9.23-1.5.37-.94.22-1.52.35-.91.2-1.66.35-.77.16-2.45.46-2.82.48-.93.14-1.91.29-1.11.15-1.75.23-1.18.14-1.71.19-1.94.19-.06,22.49,1.33-.13.61-.07,1.71-.19,1.18-.14,1.75-.23,1.11-.15,1.92-.29.93-.14,2.82-.48h0l2.45-.46.77-.16,1.66-.35.91-.2,1.52-.35.94-.22,1.5-.37.9-.23,1.61-.43.75-.21,2.33-.68.09,0,2-.63.18-.06,1.42-.47Z" transform="translate(-1267.06 -226.43)"/><path class="cls-18" d="M1477.95,437.22c1.16.13,2.33.25,3.5.36l.06-22.49c-1.17-.11-2.33-.23-3.5-.36l-.92-.11q-1.55-.18-3.09-.4l-.45-.06-.73-.11-1.79-.27-.95-.16-1.56-.27-1-.18-1.49-.28-1-.2-1.4-.29-1.2-.26-1.34-.31-1.19-.28-1.34-.33-1.17-.3-1.33-.36-1.15-.32-1.05-.3-1.72-.51-1.06-.33-1.66-.54-1-.35-1.7-.6-.94-.34-2-.75-.62-.24q-1.23-.48-2.43-1l-.06,22.49q1.2.51,2.43,1l.09,0,.54.21,2,.74.95.34,1.69.59,1,.35,1.66.54,1.06.33,1.72.51.69.21.36.1,1.15.32,1.33.36,1.17.3,1.34.33,1.19.28,1.34.31,1.2.26.77.17.63.13,1,.2,1.49.28,1,.18,1.56.27.95.16,1.79.27.73.11.12,0,.33,0q1.54.21,3.09.4Z" transform="translate(-1267.06 -226.43)"/><polygon class="cls-19" points="243.7 188.66 243.64 211.15 241.45 224.92 241.51 202.43 243.7 188.66"/><polygon class="cls-20" points="241.51 202.43 241.45 224.92 216.72 224.92 216.78 202.43 241.51 202.43"/><polygon class="cls-21" points="216.78 202.43 216.72 224.92 214.38 211.15 214.44 188.66 216.78 202.43"/><polygon class="cls-22" points="394.74 241.41 394.69 256.84 384.31 264.15 384.35 248.72 394.74 241.41"/><polygon class="cls-23" points="279.97 248.72 279.92 264.15 269.45 256.84 269.5 241.41 279.97 248.72"/><path class="cls-24" d="M1631.14,478.68q-.8-.46-1.63-.89l-.56-.28-1.12-.56-.68-.31-1.05-.47-.75-.31-.72-.3-.38-.14-.47-.18-1.4-.51-.33-.11-1.72-.56-.43-.13-.75-.22-.42-.11-1.37-.36-.84-.21-1.52-.34-.57-.13-.15,0-1.39-.27-.76-.14-1.83-.29-.33-.05h0q-1.07-.15-2.15-.27l-.51,0-1.66-.16h0l-.76-.05-1.39-.09-.91,0-1.29-.05h-3.17l-1.32,0h-.24l-.61,0-1.52.08-.91.06-1.45.12-.51,0-.66.07-.47.05-1.87.24-.27,0-1.63.25-.48.08-.38.06-.67.13-1.18.23-1,.21-1.15.27-.95.24-1.12.3-.94.27-1.1.33-.48.15-.67.23-.41.14q-.84.29-1.67.61l-.3.12-1.38.56-.42.18c-.53.23-1.06.47-1.59.71l-.19.09-1.38.69-.4.21c-.5.27-1,.54-1.49.82l-.55.33-.12.08-.42.26-.38.24-.41.26-.36.24-.39.27-.35.24-.38.27-.34.24-.37.28-.32.25-.36.29-.3.25-.35.29-.29.25-.34.3-.24.22,0,0-.69.66-.17.18-.49.51-.19.21-.51.57-.1.11-.56.69,0,.06-.13.17-.3.39-.18.25-.27.39-.17.26-.25.39-.16.25-.25.42-.1.17,0,0-.2.38-.13.24-.21.43-.09.19q-.15.31-.28.62l0,.1-.21.53v0l-.08.24-.13.36-.09.27-.11.35-.08.28-.09.35-.07.29-.08.34V494l0,.23c0,.12,0,.23-.06.35s0,.19,0,.29,0,.23,0,.34,0,.2,0,.29,0,.23,0,.34,0,.2,0,.3,0,.23,0,.34,0,.07,0,.11,0,.26,0,.4l0,15.43c0-.17,0-.34,0-.51s0-.23,0-.34,0-.2,0-.3,0-.23,0-.34,0-.2,0-.29,0-.23,0-.34,0-.19,0-.29,0-.23.06-.35l.05-.29.08-.34.07-.29.09-.34.08-.28.11-.35.09-.28.13-.36.09-.26.21-.52,0-.11q.13-.31.28-.62l.09-.19.21-.43.13-.24.2-.38.13-.22.25-.42.16-.25.25-.39.17-.26.27-.39.18-.25.3-.39.18-.23.56-.69.1-.11.51-.57.19-.21.49-.51.17-.18.69-.66.27-.24.34-.3.29-.25.35-.3.3-.24.36-.29.32-.24.37-.28.33-.24.38-.28.35-.24.39-.27.36-.24.41-.26.37-.23.42-.26.67-.4c.49-.28,1-.56,1.49-.82l.4-.21,1.38-.69.19-.09q.78-.37,1.58-.71l.42-.18,1.38-.56.3-.12q.82-.31,1.67-.6l.41-.14,1.15-.37,1.1-.33.94-.27,1.12-.3.95-.24,1.15-.27,1-.21,1.18-.23,1.05-.2.48-.08,1.63-.25.27,0,1.87-.24.47-.05,1.16-.11,1.45-.12.91-.06,1.52-.08.86,0,1.32,0h3.17l1.29.05.91,0,1.38.09.8.06,1.66.16.51,0q1.08.12,2.15.27l.35.05,1.83.29.76.14,1.39.27.72.16,1.52.34.84.21,1.37.36,1.16.33.43.13,1.72.56.33.11,1.4.51.47.18,1.1.44.75.31,1.05.47.68.31,1.12.56.56.28q.83.43,1.63.89c8.89,5.13,13.34,11.87,13.32,18.6l0-15.43C1644.47,490.56,1640,483.82,1631.14,478.68Z" transform="translate(-1267.06 -226.43)"/><polygon class="cls-25" points="252.24 275.64 252.19 291.08 252.14 281.25 252.18 265.82 252.24 275.64"/><polygon class="cls-26" points="412.38 275.64 412.34 291.07 396.04 291.97 396.09 276.54 412.38 275.64"/><polygon class="cls-27" points="268.54 276.54 268.5 291.98 252.19 291.08 252.24 275.64 268.54 276.54"/><path class="cls-28" d="M1662.78,519.51q.18-.55.32-1.11l0-15.43q-.15.55-.32,1.11l-.13.37c-.08.24-.16.49-.25.73s-.25.66-.39,1l0,.05q-.2.47-.42.94l-.16.33-.33.66-.2.38-.33.59-.27.45-.34.55-.29.45-.37.55-.31.45-.4.55-.33.44-.37.47-.5.6-.39.45-.53.59-.41.45-.57.59-.43.44-.61.59-.44.42-.76.68-.38.33c-.39.33-.79.67-1.2,1l0,15.43c.41-.33.81-.66,1.2-1l.38-.33.76-.68.13-.12.31-.3.61-.59.43-.44.57-.59.41-.45.53-.59.39-.45.5-.6.24-.29.14-.18.33-.44.4-.55.31-.45.37-.55.29-.45.34-.55.27-.45.13-.22.2-.37.2-.38.33-.66.16-.33q.22-.47.42-.94l0-.06q.2-.46.37-.93l0-.06c.09-.24.17-.49.25-.73Z" transform="translate(-1267.06 -226.43)"/><g class="cls-10"><g class="cls-29"><path class="cls-30" d="M1547.28,519.17l0,15.43c-6.2-4.9-10.08-10.46-11.67-16.2l0-15.43c1.58,5.74,5.47,11.3,11.67,16.2" transform="translate(-1267.06 -226.43)"/></g></g><polygon class="cls-31" points="383.11 307 383.06 322.43 370.41 316.39 370.46 300.96 383.11 307"/><polygon class="cls-32" points="395.07 300.05 395.02 315.48 383.06 322.43 383.11 307 395.07 300.05"/><polygon class="cls-33" points="281.87 307 281.82 322.43 269.79 315.48 269.83 300.05 281.87 307"/><polygon class="cls-34" points="294.45 300.96 294.4 316.39 281.82 322.43 281.87 307 294.45 300.96"/><path class="cls-35" d="M1632.52,544.72l1-.36.67-.24,1.1-.42.55-.21,1.63-.67,0-15.43-1.63.67-.56.21-1.09.42-.67.24-1,.36-.73.24-1,.32-1.51.47-.06,0-1.6.46-.52.14-1.11.3-.62.16-1,.26-.64.15-1,.24-.63.14-1.14.24-.53.11-1.68.32-1.93.33-.64.1-1.31.2-.76.1-1.2.15-.81.09-1.17.13-1.33.13,0,15.43.91-.09.42,0,1.17-.13.81-.09,1.2-.15.76-.1,1.31-.2.64-.1,1.93-.33h0l1.68-.32.53-.11,1.14-.24.63-.14,1-.24.64-.15,1-.26.62-.16,1.11-.3.52-.14,1.6-.46.06,0,1.39-.43.12,0,1-.32Z" transform="translate(-1267.06 -226.43)"/><path class="cls-36" d="M1587.07,549.28c.8.09,1.6.17,2.4.25l0-15.43c-.8-.07-1.6-.16-2.4-.25l-.63-.07-2.12-.27-.31,0-.5-.07-1.23-.19-.65-.11-1.07-.18-.69-.13-1-.19-.7-.14-1-.2-.82-.18-.92-.21-.81-.19-.92-.23-.8-.2L1572,531l-.79-.22-.72-.21-1.18-.35-.73-.23-1.14-.37-.71-.24-1.17-.41-.65-.23-1.35-.51-.43-.16-1.67-.68,0,15.43,1.67.68.06,0,.37.14,1.35.51.65.23,1.16.41.71.24,1.14.37.73.23,1.18.35.48.14.25.07.79.22.91.25.8.2.92.23.81.19.92.21.82.18.53.11.43.09.7.14,1,.19.69.13,1.07.18.65.11,1.23.19.5.07h.08l.23,0,2.12.27Z" transform="translate(-1267.06 -226.43)"/><polygon class="cls-37" points="342.53 307.67 342.48 323.1 340.98 332.54 341.03 317.11 342.53 307.67"/><polygon class="cls-38" points="341.03 317.11 340.98 332.54 324.02 332.54 324.06 317.11 341.03 317.11"/><polygon class="cls-39" points="324.06 317.11 324.02 332.54 322.41 323.1 322.45 307.67 324.06 317.11"/><path class="cls-40" d="M1588.82,369.73l23.75-1.31-.08-14.32-23.77-1.31c-2.3-8.36-8-16.47-17-23.61l15.14-10.65-17.54-10.13-18.35,8.8a137.84,137.84,0,0,0-40.81-9.77l-2.34-13.76h-24.73l-2.18,13.76a136.79,136.79,0,0,0-40.7,9.77l-18.45-8.8-17.43,10.13,15.26,10.65c-9,7.14-14.53,15.25-16.74,23.61l-23.75,1.31.08,14.32,23.77,1.31c2.31,8.36,8,16.47,17,23.61L1404.81,404l17.54,10.13,18.34-8.8a137.93,137.93,0,0,0,40.81,9.77l2.34,13.76h24.73l2.19-13.76a136.89,136.89,0,0,0,40.7-9.77l18.44,8.8L1587.33,404l-15.25-10.65C1581,386.2,1586.61,378.09,1588.82,369.73Z" transform="translate(-1267.06 -226.43)"/><path class="cls-41" d="M1507.12,345.26c1,.58,1.48,1.21,1.42,1.88s-.73,1.4-2,2.15l-5.93,3.45-2.15-1.24,5.91-3.44c.74-.43,1.12-.82,1.14-1.17s-.26-.69-.85-1a4.42,4.42,0,0,0-1.45-.54,4.89,4.89,0,0,0-1.53-.05l-7,4.06-2.16-1.25,9.54-5.54,2,1.14-1.25.87a8.17,8.17,0,0,1,2.33,0A5.7,5.7,0,0,1,1507.12,345.26Z" transform="translate(-1267.06 -226.43)"/><path class="cls-41" d="M1497.83,341.48c-.12,1-.9,1.88-2.33,2.71l-.18.11a10.07,10.07,0,0,1-4.68,1.36,8.31,8.31,0,0,1-4.58-1.08q-2.06-1.19-1.88-2.66t2.33-2.71l.18-.11a10.06,10.06,0,0,1,4.67-1.36,8.23,8.23,0,0,1,4.58,1.07Q1498,340,1497.83,341.48Zm-4.66,1.57.18-.11a3.7,3.7,0,0,0,1.7-1.64c.22-.56-.06-1.06-.83-1.5a3.93,3.93,0,0,0-2.56-.46,7.57,7.57,0,0,0-2.81,1l-.18.11a3.77,3.77,0,0,0-1.72,1.64c-.22.55.06,1,.83,1.49a4,4,0,0,0,2.57.47,7.6,7.6,0,0,0,2.84-1" transform="translate(-1267.06 -226.43)"/><path class="cls-41" d="M1478.13,355.21c-.12,1-.9,1.88-2.33,2.71l-.18.11a10.07,10.07,0,0,1-4.68,1.36,8.31,8.31,0,0,1-4.58-1.08q-2.06-1.19-1.88-2.66t2.33-2.71l.18-.11a10.06,10.06,0,0,1,4.67-1.36,8.23,8.23,0,0,1,4.58,1.07Q1478.31,353.74,1478.13,355.21Zm-4.66,1.57.18-.11a3.66,3.66,0,0,0,1.7-1.64c.22-.56-.06-1.06-.83-1.5a3.93,3.93,0,0,0-2.56-.46,7.57,7.57,0,0,0-2.81,1l-.18.11a3.77,3.77,0,0,0-1.72,1.64c-.22.55.06,1,.83,1.49a4,4,0,0,0,2.57.47,7.5,7.5,0,0,0,2.84-1" transform="translate(-1267.06 -226.43)"/><path class="cls-41" d="M1470.41,349.18a2.69,2.69,0,0,1,.33.23l.24.23-2.26,1-.89-.55a3.55,3.55,0,0,0-1.32-.45,4.21,4.21,0,0,0-1.4.06l-6.63,3.85-2.16-1.25,9.54-5.54,2,1.14-1.25.88a7.44,7.44,0,0,1,2.09-.12A4.16,4.16,0,0,1,1470.41,349.18Z" transform="translate(-1267.06 -226.43)"/><path class="cls-41" d="M1465,343.72c.08.89-.48,1.68-1.67,2.38a7.57,7.57,0,0,1-4.11,1,9.29,9.29,0,0,1-4.44-1.3l-2.8-1.62-4.87,2.83-2.15-1.24,12.84-7.46,5,2.86C1464.19,342,1464.94,342.83,1465,343.72Zm-6.07,1.73a4.5,4.5,0,0,0,2.22-.59,1.72,1.72,0,0,0,1-1.29c0-.49-.35-1-1.15-1.42l-2.8-1.62-4.53,2.63,2.8,1.62a4.65,4.65,0,0,0,2.43.67" transform="translate(-1267.06 -226.43)"/><polygon class="cls-41" points="225.5 106.82 212.67 114.28 210.51 113.04 219.73 107.68 219.68 107.64 206.9 110.95 205.41 110.09 211.2 102.54 211.13 102.52 201.74 107.97 199.59 106.73 212.42 99.27 215.25 100.9 209.09 108.78 209.14 108.81 222.75 105.23 225.5 106.82"/><path class="cls-41" d="M1527,354.24l-2.32,1.35,1.72,1-1.59.92-1.72-1-5.27,3.06c-.39.23-.59.44-.59.64s.16.38.44.54a2.48,2.48,0,0,0,.37.18,3.33,3.33,0,0,0,.4.14l-1.34,1a5.29,5.29,0,0,1-.89-.24,5.91,5.91,0,0,1-.87-.41c-.79-.46-1.18-.95-1.18-1.48s.51-1.08,1.49-1.66l5.27-3.06-1.46-.84,1.59-.92,1.46.84,2.32-1.35Z" transform="translate(-1267.06 -226.43)"/><path class="cls-41" d="M1514.8,356.08l-5.93-3.43h-.06a2.46,2.46,0,0,0-1.28,1.47c-.1.51.24,1,1,1.44a7.94,7.94,0,0,0,1.74.76,9.67,9.67,0,0,0,1.8.33l-.7,1.22a10.27,10.27,0,0,1-2.25-.38,10.12,10.12,0,0,1-2.42-1q-2.1-1.21-2-2.66t2.23-2.67l.35-.2a9.94,9.94,0,0,1,4.65-1.33,7.92,7.92,0,0,1,4.38,1c1.31.76,1.9,1.55,1.77,2.39s-.85,1.65-2.17,2.42Zm-2.08-4.9a6.16,6.16,0,0,0-2.2.55l0,0,3.75,2.17.17-.1a2,2,0,0,0,1.06-1.11q.13-.58-.8-1.12a3.46,3.46,0,0,0-1.95-.43" transform="translate(-1267.06 -226.43)"/><path class="cls-41" d="M1552.45,371.64l-15,4.09a11.36,11.36,0,0,1-2.78.37,5.16,5.16,0,0,1-2.66-.72,3.87,3.87,0,0,1-.52-.36c-.17-.14-.33-.28-.47-.41l1.9-.82.3.2.3.19a2.44,2.44,0,0,0,1.33.31,7.92,7.92,0,0,0,1.48-.2l1.22-.3,5.94-7.49,2.35,1.36-3.89,4.38-.74.68.05,0,8.77-2.66Z" transform="translate(-1267.06 -226.43)"/><path class="cls-41" d="M1542.54,365.71a2.79,2.79,0,0,1,.34.23l.23.22-2.26,1-.89-.55a3.52,3.52,0,0,0-1.32-.45,4.11,4.11,0,0,0-1.4.06l-6.63,3.85-2.16-1.25,9.54-5.54,2,1.14-1.25.89a7.4,7.4,0,0,1,2.08-.13A4.21,4.21,0,0,1,1542.54,365.71Z" transform="translate(-1267.06 -226.43)"/><path class="cls-41" d="M1527.34,367a5.41,5.41,0,0,0-.8.77l-2.18-1.26a6.07,6.07,0,0,1,.52-.52,4.81,4.81,0,0,1,.58-.46,9,9,0,0,1-2.29,0,5.63,5.63,0,0,1-2.08-.68c-1-.58-1.51-1.17-1.53-1.78s.41-1.17,1.3-1.69a5.29,5.29,0,0,1,3.26-.62,9.67,9.67,0,0,1,3.87,1.34l1.67,1,.84-.49c.5-.29.75-.6.73-.93s-.29-.66-.85-1a3.4,3.4,0,0,0-1.52-.47,2.33,2.33,0,0,0-1.34.27l-2.08-1.2,0,0a5,5,0,0,1,3-.58,8.27,8.27,0,0,1,3.69,1.11q1.68,1,1.86,2.06t-1.4,2l-4.24,2.47A9.4,9.4,0,0,0,1527.34,367Zm-.43-2.34,1.41-.82-1.71-1a4.13,4.13,0,0,0-1.94-.58,3,3,0,0,0-1.62.32c-.36.21-.53.45-.51.71s.27.52.72.78a5,5,0,0,0,1.87.61,4.85,4.85,0,0,0,1.79,0" transform="translate(-1267.06 -226.43)"/><path class="cls-41" d="M1487.45,356.53l-2.32,1.35,1.72,1-1.59.92-1.72-1-5.27,3.06c-.39.23-.59.44-.59.64s.15.37.43.54a2.56,2.56,0,0,0,.38.18,3.34,3.34,0,0,0,.4.14l-1.34,1a5.2,5.2,0,0,1-.89-.24,5.76,5.76,0,0,1-.86-.4c-.79-.46-1.19-1-1.18-1.48s.51-1.08,1.49-1.66l5.27-3.06-1.47-.85,1.59-.92,1.47.85,2.32-1.35Z" transform="translate(-1267.06 -226.43)"/><path class="cls-41" d="M1494.65,364.75c-.12,1-.9,1.88-2.33,2.71l-.18.11a10.07,10.07,0,0,1-4.68,1.36,8.31,8.31,0,0,1-4.58-1.08q-2.06-1.19-1.88-2.66t2.33-2.71l.18-.11a10.06,10.06,0,0,1,4.67-1.36,8.23,8.23,0,0,1,4.58,1.07Q1494.83,363.28,1494.65,364.75Zm-4.66,1.57.18-.11a3.66,3.66,0,0,0,1.7-1.64c.22-.56-.06-1.06-.83-1.5a3.93,3.93,0,0,0-2.56-.46,7.57,7.57,0,0,0-2.81,1l-.18.11a3.77,3.77,0,0,0-1.72,1.64c-.22.55.06,1,.83,1.49a4,4,0,0,0,2.57.47,7.5,7.5,0,0,0,2.84-1" transform="translate(-1267.06 -226.43)"/><path class="cls-41" d="M1514.4,376.15c-.12,1-.9,1.89-2.32,2.71l-.18.11a10.09,10.09,0,0,1-4.69,1.36,8.31,8.31,0,0,1-4.58-1.08q-2.06-1.19-1.87-2.65c.12-1,.9-1.89,2.33-2.72l.18-.11a10,10,0,0,1,4.67-1.35,8.19,8.19,0,0,1,4.58,1.06Q1514.58,374.68,1514.4,376.15Zm-4.66,1.57.18-.11a3.66,3.66,0,0,0,1.7-1.64c.22-.56-.06-1.06-.83-1.5a3.94,3.94,0,0,0-2.56-.46,7.67,7.67,0,0,0-2.81,1l-.18.11a3.77,3.77,0,0,0-1.72,1.64c-.22.55.06,1,.83,1.49a4,4,0,0,0,2.57.47,7.5,7.5,0,0,0,2.84-1" transform="translate(-1267.06 -226.43)"/><path class="cls-41" d="M1503,368c1.12.65,1.69,1.36,1.72,2.15s-.48,1.48-1.53,2.06l-.07,0-2-1.13A1.45,1.45,0,0,0,1502,370q.06-.6-.73-1.06a3.77,3.77,0,0,0-2.54-.45,7.8,7.8,0,0,0-2.7,1l-.31.18a4.1,4.1,0,0,0-1.71,1.57c-.24.53,0,1,.8,1.48a3.58,3.58,0,0,0,1.71.45,3.11,3.11,0,0,0,1.67-.38l2,1.13,0,0a6,6,0,0,1-3.38.72,7.68,7.68,0,0,1-3.63-1c-1.38-.8-2-1.68-1.84-2.64a4.11,4.11,0,0,1,2.31-2.64l.31-.18a10.07,10.07,0,0,1,4.55-1.34A8.05,8.05,0,0,1,1503,368Z" transform="translate(-1267.06 -226.43)"/><polygon class="cls-41" points="258.09 149.68 244.33 157.67 242.18 156.43 255.93 148.44 258.09 149.68"/><path class="cls-41" d="M1527.13,381.92c1.15.66,1.78,1.37,1.9,2.11a1.71,1.71,0,0,1-1.11,1.81l-.07,0-2.06-1.19a.91.91,0,0,0,.55-.85c0-.35-.29-.67-.81-1a3.35,3.35,0,0,0-1.54-.48,2.31,2.31,0,0,0-1.27.27c-.32.19-.45.41-.39.67a3.18,3.18,0,0,0,1,1.21,4.68,4.68,0,0,1,1.63,2.14c.14.61-.16,1.14-.93,1.58a5.37,5.37,0,0,1-3.18.6,8.44,8.44,0,0,1-3.63-1.15q-1.87-1.08-2-2.26a1.82,1.82,0,0,1,1.16-1.87l.07,0,2,1.16c-.53.33-.73.68-.6,1a2.07,2.07,0,0,0,1,1,4,4,0,0,0,1.61.55,2.15,2.15,0,0,0,1.32-.24c.33-.19.46-.43.39-.71a3.12,3.12,0,0,0-1-1.26,4.63,4.63,0,0,1-1.58-2.08c-.15-.6.15-1.13.9-1.56a5.49,5.49,0,0,1,3.08-.6A7.74,7.74,0,0,1,1527.13,381.92Z" transform="translate(-1267.06 -226.43)"/><polygon class="cls-25" points="327.55 180.79 327.5 199.48 327.43 187.57 327.48 168.88 327.55 180.79"/><polygon class="cls-42" points="500.19 139.31 500.14 158 487.55 166.86 487.61 148.16 500.19 139.31"/><polygon class="cls-43" points="361.14 148.16 361.09 166.86 348.41 158 348.46 139.31 361.14 148.16"/><path class="cls-44" d="M1730.1,378.87q-1-.56-2-1.08l-.67-.34-1.36-.68-.83-.38-1.27-.57-.9-.37-.87-.36-.46-.17-.57-.22-1.7-.61-.39-.14q-1-.35-2.09-.67l-.53-.16-.9-.27-.5-.13-1.66-.44-1-.25-1.84-.42-.69-.16-.19,0-1.69-.32-.92-.17c-.74-.13-1.48-.24-2.22-.35l-.4-.06h0q-1.3-.18-2.61-.33l-.62-.06-2-.2h-.05l-.92-.06-1.68-.11-1.1,0-1.56-.06h-1l-1.71,0-1.12,0-1.59,0h-.29l-.74,0-1.84.09-1.11.08-1.76.15-.62.05-.79.09-.57.06q-1.14.13-2.26.29l-.33,0-2,.31-.58.1-.46.08-.81.16-1.43.28-1.16.25-1.39.32-1.15.29-1.36.36-1.13.33-1.33.4-.58.18-.81.27-.49.17q-1,.35-2,.73l-.37.14-1.67.68-.5.21c-.65.28-1.29.57-1.92.86l-.22.11q-.85.4-1.67.83l-.49.25c-.61.32-1.22.66-1.81,1l-.67.39-.15.09-.51.31-.46.29-.49.32-.44.29-.47.33-.42.29-.46.33-.41.3-.45.34-.39.3-.44.35-.37.3-.42.36-.35.3-.41.37-.29.26,0,0-.83.8-.21.21-.6.62-.23.25-.62.69-.12.14q-.35.41-.68.83l-.06.07-.16.2-.36.48-.22.3-.33.47-.21.31-.31.48-.19.3-.3.51-.12.21,0,.06-.25.45-.16.29-.26.52-.12.24q-.18.38-.34.76l0,.12c-.09.21-.17.42-.25.64v0l-.1.29-.16.44-.1.33-.13.43-.09.34-.11.42-.08.35c0,.14-.06.28-.09.41l0,.07c0,.09,0,.18,0,.27s-.05.28-.08.42,0,.23-.05.35,0,.28-.06.42,0,.24,0,.36,0,.28,0,.41,0,.24,0,.36,0,.27,0,.41,0,.09,0,.13,0,.32,0,.48l-.05,18.69c0-.2,0-.41,0-.61s0-.27,0-.41,0-.24,0-.36,0-.28,0-.41,0-.24,0-.36,0-.28.06-.42,0-.23.05-.35,0-.28.08-.42,0-.23.07-.35.06-.28.09-.41l.08-.35.11-.42.09-.34.13-.42.11-.34.15-.44.11-.32c.08-.21.16-.42.25-.62l.05-.14q.16-.38.34-.76l.12-.24.26-.52.16-.29.25-.45.16-.27.3-.51.19-.3.31-.48.21-.31.33-.47.22-.3.36-.48.21-.27q.33-.42.68-.83l.12-.14.62-.69.23-.25.6-.62.21-.21.83-.8.32-.29.41-.37.35-.3.42-.36.36-.3.44-.35.38-.3.45-.34.4-.3.46-.33.42-.29.48-.33.44-.29.49-.32.45-.28.51-.31.82-.49c.59-.34,1.2-.67,1.81-1l.49-.25q.82-.43,1.67-.83l.23-.11q.95-.45,1.92-.86l.5-.21,1.67-.68.37-.15q1-.38,2-.73l.49-.17,1.39-.45,1.33-.4,1.13-.33,1.36-.36,1.15-.29,1.39-.32,1.16-.25,1.43-.28,1.27-.24.58-.1,2-.31.33,0q1.13-.16,2.26-.29l.57-.06,1.41-.14,1.76-.15,1.11-.08,1.84-.09,1,0,1.59,0,1.12,0,1.71,0h1l1.56.06,1.1,0,1.68.11,1,.07,2,.2.62.06q1.31.15,2.61.33l.42.07c.74.11,1.48.22,2.22.35l.92.17,1.69.32.88.19,1.84.42,1,.25,1.66.44,1.41.4.53.16q1.05.32,2.09.67l.39.14,1.7.61.57.22,1.33.54.9.37,1.27.57.83.38,1.36.68.67.34q1,.52,2,1.08c10.77,6.22,16.16,14.39,16.13,22.54l.05-18.69C1746.26,393.26,1740.88,385.1,1730.1,378.87Z" transform="translate(-1267.06 -226.43)"/><polygon class="cls-45" points="521.57 180.78 521.52 199.48 501.77 200.57 501.83 181.87 521.57 180.78"/><polygon class="cls-46" points="347.31 181.88 347.25 200.57 327.5 199.48 327.55 180.79 347.31 181.88"/><path class="cls-47" d="M1768.45,428.34q.21-.67.39-1.34l.05-18.69q-.18.67-.39,1.34c0,.15-.1.3-.15.45s-.2.59-.31.89-.31.8-.48,1.2l0,.06q-.24.57-.51,1.14l-.19.4c-.13.27-.26.54-.4.8l-.25.46-.4.72-.33.55-.41.67-.35.55-.45.66-.38.54-.48.66-.4.53-.45.57-.6.73-.47.55-.64.72-.5.54-.69.71-.53.53-.74.71-.54.5-.93.82-.46.4c-.47.4-1,.81-1.46,1.2l-.05,18.69c.5-.4,1-.8,1.46-1.2l.46-.4.93-.83.16-.14.38-.36.74-.71.53-.53.69-.71.5-.54.64-.72.47-.55.6-.73.29-.35.17-.22.4-.53.48-.66.38-.54.45-.66.35-.55.41-.67.33-.55.16-.27.24-.45.25-.46c.14-.27.27-.53.4-.8l.2-.4q.27-.56.51-1.13l0-.07q.24-.56.45-1.13l0-.08c.11-.3.21-.59.31-.89S1768.4,428.48,1768.45,428.34Z" transform="translate(-1267.06 -226.43)"/><g class="cls-10"><g class="cls-48"><path class="cls-49" d="M1628.51,427.93l-.05,18.69c-7.51-5.93-12.22-12.68-14.14-19.62l.05-18.69c1.92,6.95,6.63,13.69,14.14,19.62" transform="translate(-1267.06 -226.43)"/></g></g><polygon class="cls-50" points="486.1 218.77 486.05 237.47 470.72 230.15 470.77 211.46 486.1 218.77"/><polygon class="cls-51" points="500.59 210.35 500.54 229.05 486.05 237.47 486.1 218.77 500.59 210.35"/><polygon class="cls-52" points="363.44 218.77 363.39 237.47 348.81 229.05 348.86 210.36 363.44 218.77"/><polygon class="cls-53" points="378.69 211.46 378.64 230.15 363.39 237.47 363.44 218.77 378.69 211.46"/><path class="cls-54" d="M1731.78,458.88l1.22-.44.81-.29,1.33-.51.67-.26,2-.81.05-18.69-2,.81-.68.26-1.33.51-.82.29-1.22.44-.88.3-1.18.39-1.83.57-.07,0-1.94.56-.63.17-1.34.36-.75.19-1.25.31-.78.19-1.26.29-.76.17-1.38.29-.64.13-2,.39-2.34.4-.77.12-1.59.24-.93.12-1.46.19-1,.11-1.42.16L1704,446,1704,464.7l1.11-.11.5-.05,1.42-.16,1-.11,1.46-.19.93-.12,1.59-.24.77-.12,2.34-.4h0l2-.39.64-.13,1.38-.29.76-.17,1.26-.29.78-.19,1.25-.31.75-.19,1.34-.36.63-.17,1.94-.56.07,0,1.68-.52.15,0,1.18-.39Z" transform="translate(-1267.06 -226.43)"/><path class="cls-55" d="M1676.72,464.4c1,.11,1.94.21,2.91.3l.05-18.69c-1-.09-1.94-.19-2.91-.3l-.76-.09-2.57-.33-.38-.05-.61-.09-1.49-.23-.79-.13-1.3-.22-.84-.15-1.24-.23L1666,444l-1.16-.24-1-.22-1.12-.25-1-.23-1.11-.28-1-.25-1.11-.3-1-.26-.88-.25-1.43-.43-.88-.27-1.38-.45-.86-.29-1.41-.49-.78-.28-1.64-.62-.52-.2-2-.82-.05,18.69,2,.82.07,0,.45.17,1.63.62.79.28,1.41.49.86.29,1.38.45.88.27,1.43.43.58.17.3.08,1,.26,1.11.3,1,.25,1.11.28,1,.23,1.12.25,1,.22.64.14.52.1.84.17,1.24.23.84.15,1.3.22.79.13,1.49.23.61.09.1,0,.28,0,2.57.33Z" transform="translate(-1267.06 -226.43)"/><polygon class="cls-56" points="436.94 219.58 436.88 238.28 435.07 249.72 435.12 231.02 436.94 219.58"/><polygon class="cls-57" points="435.12 231.02 435.07 249.72 414.51 249.72 414.56 231.02 435.12 231.02"/><polygon class="cls-58" points="414.56 231.02 414.51 249.72 412.56 238.28 412.62 219.58 414.56 231.02"/><path class="cls-59" d="M1768.89,408.3l19.74-1.09-.07-11.91-19.76-1.09c-1.91-6.95-6.62-13.69-14.14-19.62l12.58-8.86-14.58-8.42-15.25,7.32a114.58,114.58,0,0,0-33.93-8.12l-1.94-11.44H1681l-1.82,11.44a113.71,113.71,0,0,0-33.83,8.12L1630,357.31l-14.49,8.42,12.68,8.86c-7.45,5.93-12.08,12.68-13.92,19.63l-19.75,1.09.07,11.91,19.76,1.09c1.92,6.95,6.63,13.69,14.14,19.62l-12.58,8.86,14.58,8.42,15.25-7.32a114.66,114.66,0,0,0,33.93,8.12l1.95,11.44h20.56L1704,446a113.79,113.79,0,0,0,33.84-8.12l15.33,7.32,14.49-8.42L1755,427.92C1762.41,422,1767,415.25,1768.89,408.3Z" transform="translate(-1267.06 -226.43)"/><path class="cls-60" d="M1663.15,503l16.3-.9-.06-9.83-16.31-.9c-1.58-5.74-5.47-11.3-11.67-16.2l10.39-7.31-12-6.95-12.59,6a94.58,94.58,0,0,0-28-6.71l-1.6-9.44h-17l-1.5,9.44a93.86,93.86,0,0,0-27.93,6.71l-12.66-6-12,6.95,10.47,7.31c-6.15,4.9-10,10.46-11.49,16.2l-16.3.9.06,9.83,16.31.9c1.58,5.74,5.47,11.3,11.67,16.2l-10.38,7.31,12,6.95,12.58-6a94.64,94.64,0,0,0,28,6.71l1.61,9.44h17l1.5-9.44a93.92,93.92,0,0,0,27.93-6.71l12.65,6,12-6.95-10.46-7.31C1657.81,514.27,1661.63,508.7,1663.15,503Z" transform="translate(-1267.06 -226.43)"/><path class="cls-41" d="M1720.57,396.43l1.88,1.09-11.94,6.94-1.53-.88.82-.74a6.85,6.85,0,0,1-1.88,0,4.85,4.85,0,0,1-1.63-.58c-1-.59-1.46-1.27-1.3-2a3.84,3.84,0,0,1,2.06-2.19l.16-.09a10,10,0,0,1,4-1.36,5.9,5.9,0,0,1,3.63.69,2.51,2.51,0,0,1,.95.86,1.36,1.36,0,0,1,.15,1ZM1711,402l3.61-2.1a1,1,0,0,0,0-.81,1.62,1.62,0,0,0-.74-.72,3.28,3.28,0,0,0-2.21-.35,7.34,7.34,0,0,0-2.54.95l-.16.09a3,3,0,0,0-1.39,1.32c-.16.43.09.84.73,1.21a3.48,3.48,0,0,0,1.26.43,4.74,4.74,0,0,0,1.4,0" transform="translate(-1267.06 -226.43)"/><polygon class="cls-41" points="432.5 171.71 440.78 166.9 442.66 167.99 434.38 172.8 432.5 171.71"/><path class="cls-41" d="M1705.75,392.11l-8.28,4.81-1.62-.93,1.05-.81a6.9,6.9,0,0,1-2,0,4.92,4.92,0,0,1-1.77-.6c-.89-.52-1.31-1.09-1.22-1.72s.72-1.3,2-2l4.84-2.81,1.88,1.08-4.86,2.82c-.79.46-1.22.84-1.28,1.15s.15.6.64.88a4.31,4.31,0,0,0,1.38.52,4.26,4.26,0,0,0,1.43,0l6-3.48Z" transform="translate(-1267.06 -226.43)"/><g class="cls-10"><polygon class="cls-41" points="414.77 148.56 405.11 154.17 410.39 157.22 408.9 158.09 401.74 153.95 412.88 147.48 414.77 148.56"/><polygon class="cls-41" points="410.43 158.97 418.71 154.15 420.59 155.24 412.31 160.05 410.43 158.97"/><path class="cls-41" d="M1695.14,386l1.53.88-11.47,6.66-1.88-1.09,4-2.31a6,6,0,0,1-1.62-.12,5,5,0,0,1-1.44-.56c-1-.59-1.46-1.27-1.3-2a3.84,3.84,0,0,1,2.06-2.19l.16-.09a10,10,0,0,1,4-1.36,5.9,5.9,0,0,1,3.64.69,2.43,2.43,0,0,1,1,.92,1.35,1.35,0,0,1,.09,1Zm-6.43,3.33,3.86-2.24a.92.92,0,0,0,0-.76,1.64,1.64,0,0,0-.72-.69,3.28,3.28,0,0,0-2.24-.35,7.56,7.56,0,0,0-2.55,1l-.16.09a3,3,0,0,0-1.4,1.33c-.17.44.07.85.71,1.22a3.42,3.42,0,0,0,1.2.43,4.24,4.24,0,0,0,1.32,0" transform="translate(-1267.06 -226.43)"/></g><polygon class="cls-41" points="422.36 152.03 424.25 153.12 422.62 154.06 420.74 152.97 422.36 152.03"/><polygon class="cls-41" points="444.44 164.77 446.32 165.86 444.69 166.81 442.81 165.72 444.44 164.77"/><polygon class="cls-41" points="457.52 172.33 459.41 173.42 457.78 174.36 455.9 173.28 457.52 172.33"/><polygon class="cls-41" points="445.59 179.27 453.87 174.45 455.75 175.54 447.47 180.35 445.59 179.27"/><path class="cls-41" d="M1737.26,410.3l-13,3.54a9.78,9.78,0,0,1-2.41.32,4.53,4.53,0,0,1-2.32-.63,3.69,3.69,0,0,1-.46-.32q-.22-.18-.41-.36l1.65-.71.26.18.26.17a2.11,2.11,0,0,0,1.16.27,6.69,6.69,0,0,0,1.3-.17l1.06-.26,5.14-6.51,2.05,1.19-3.37,3.8-.64.59,0,0,7.62-2.31Z" transform="translate(-1267.06 -226.43)"/><path class="cls-41" d="M1729.34,403.4l-2,1.17,1.5.87-1.38.8-1.5-.87-4.57,2.66c-.34.2-.51.39-.51.56s.13.33.38.47a2.67,2.67,0,0,0,.33.16l.35.12-1.16.91a4.17,4.17,0,0,1-.77-.21,5,5,0,0,1-.76-.36c-.69-.4-1-.83-1-1.29s.43-.94,1.29-1.44l4.57-2.66-1.27-.73,1.38-.8,1.27.73,2-1.17Z" transform="translate(-1267.06 -226.43)"/><polygon class="cls-41" points="449.31 189.38 437.37 196.31 435.49 195.23 447.43 188.29 449.31 189.38"/><path class="cls-41" d="M1718.12,420.87c1,.58,1.56,1.19,1.66,1.84a1.47,1.47,0,0,1-1,1.57h-.06l-1.8-1a.78.78,0,0,0,.47-.74c0-.3-.26-.58-.71-.84a2.91,2.91,0,0,0-1.34-.42,2,2,0,0,0-1.11.23c-.28.16-.39.36-.34.58a2.77,2.77,0,0,0,.92,1.06,4.11,4.11,0,0,1,1.42,1.86c.13.53-.14,1-.8,1.38a4.68,4.68,0,0,1-2.76.52,7.45,7.45,0,0,1-3.17-1q-1.63-.94-1.75-2a1.58,1.58,0,0,1,1-1.62l.06,0,1.75,1c-.46.29-.63.59-.52.91a1.8,1.8,0,0,0,.88.89,3.46,3.46,0,0,0,1.4.48,1.88,1.88,0,0,0,1.15-.2.56.56,0,0,0,.34-.63,2.81,2.81,0,0,0-.89-1.09,4,4,0,0,1-1.38-1.82c-.13-.53.12-1,.78-1.36a4.75,4.75,0,0,1,2.66-.52A6.77,6.77,0,0,1,1718.12,420.87Z" transform="translate(-1267.06 -226.43)"/><path class="cls-41" d="M1707,415.83a3.5,3.5,0,0,1-2,2.36l-.16.09a8.69,8.69,0,0,1-4.06,1.18,7.2,7.2,0,0,1-4-.94c-1.2-.69-1.75-1.46-1.65-2.31s.78-1.64,2-2.36l.16-.09a8.67,8.67,0,0,1,4.06-1.18,7.2,7.2,0,0,1,4,.93C1706.57,414.2,1707.12,415,1707,415.83Zm-4,1.37.16-.09a3.13,3.13,0,0,0,1.47-1.42c.19-.49-.05-.92-.72-1.31a3.47,3.47,0,0,0-2.24-.4,6.59,6.59,0,0,0-2.44.86l-.16.09a3.26,3.26,0,0,0-1.5,1.42c-.19.48.06.91.73,1.3a3.45,3.45,0,0,0,2.24.41,6.43,6.43,0,0,0,2.46-.86" transform="translate(-1267.06 -226.43)"/><path class="cls-41" d="M1697,408.7c1,.56,1.48,1.19,1.5,1.88s-.41,1.29-1.32,1.8h-.06l-1.7-1a1.25,1.25,0,0,0,.73-.92c0-.35-.18-.66-.64-.92a3.29,3.29,0,0,0-2.22-.39,6.71,6.71,0,0,0-2.34.85l-.27.16a3.5,3.5,0,0,0-1.48,1.37c-.22.47,0,.89.7,1.29a3.14,3.14,0,0,0,1.49.4,2.67,2.67,0,0,0,1.45-.33l1.7,1,0,0a5.21,5.21,0,0,1-2.94.63,6.69,6.69,0,0,1-3.16-.85c-1.21-.7-1.75-1.47-1.61-2.3a3.54,3.54,0,0,1,2-2.3l.27-.16a8.72,8.72,0,0,1,4-1.16A7,7,0,0,1,1697,408.7Z" transform="translate(-1267.06 -226.43)"/><path class="cls-41" d="M1689.79,405.88q-.15,1.28-2,2.36l-.16.09a8.65,8.65,0,0,1-4.07,1.17,7.17,7.17,0,0,1-4-.94c-1.2-.69-1.75-1.46-1.65-2.31s.77-1.64,2-2.36l.16-.09a8.69,8.69,0,0,1,4.07-1.17,7.17,7.17,0,0,1,4,.93C1689.34,404.26,1689.9,405,1689.79,405.88Zm-4,1.37.16-.09a3.17,3.17,0,0,0,1.47-1.42c.18-.49-.06-.93-.72-1.31a3.45,3.45,0,0,0-2.24-.4,6.51,6.51,0,0,0-2.44.86l-.16.09a3.26,3.26,0,0,0-1.5,1.42q-.28.72.73,1.3a3.48,3.48,0,0,0,2.24.41,6.53,6.53,0,0,0,2.46-.86" transform="translate(-1267.06 -226.43)"/><g class="cls-10"><path class="cls-41" d="M1663.94,387.55c.07.78-.41,1.47-1.45,2.07a6.56,6.56,0,0,1-3.57.85,8.11,8.11,0,0,1-3.87-1.14l-2.44-1.41-4.23,2.46-1.88-1.09,11.14-6.48,4.32,2.49Q1663.83,386.39,1663.94,387.55Zm-5.28,1.5a3.92,3.92,0,0,0,1.93-.51,1.51,1.51,0,0,0,.89-1.13c0-.42-.31-.83-1-1.24l-2.44-1.41-3.93,2.29,2.44,1.41a4.1,4.1,0,0,0,2.12.59" transform="translate(-1267.06 -226.43)"/><path class="cls-41" d="M1668.65,392.31a2.12,2.12,0,0,1,.29.2,1.67,1.67,0,0,1,.21.19l-2,.88-.78-.48a3.07,3.07,0,0,0-1.15-.4,3.63,3.63,0,0,0-1.23,0l-5.75,3.34L1656.4,395l8.28-4.81,1.72,1-1.08.77a6.51,6.51,0,0,1,1.82-.11A3.7,3.7,0,0,1,1668.65,392.31Z" transform="translate(-1267.06 -226.43)"/><path class="cls-41" d="M1675.38,397.56c-.1.85-.78,1.64-2,2.36l-.16.09a8.63,8.63,0,0,1-4.06,1.18,7.2,7.2,0,0,1-4-.94c-1.2-.69-1.75-1.46-1.65-2.31a3.5,3.5,0,0,1,2-2.36l.16-.09a8.73,8.73,0,0,1,4.06-1.18,7.21,7.21,0,0,1,4,.94Q1675.54,396.28,1675.38,397.56Zm-4,1.37.16-.09a3.17,3.17,0,0,0,1.47-1.42c.18-.49-.06-.93-.72-1.31a3.44,3.44,0,0,0-2.24-.4,6.51,6.51,0,0,0-2.44.86l-.16.09a3.26,3.26,0,0,0-1.5,1.42c-.19.48.06.91.73,1.3a3.49,3.49,0,0,0,2.24.41,6.53,6.53,0,0,0,2.46-.86" transform="translate(-1267.06 -226.43)"/></g><path class="cls-41" d="M1683.5,398.73l-2,1.17,1.5.87-1.38.8-1.5-.87-4.57,2.66c-.34.2-.52.38-.51.56s.13.33.37.47a2.67,2.67,0,0,0,.34.16l.35.12-1.16.91a4.1,4.1,0,0,1-.78-.21,4.94,4.94,0,0,1-.75-.35q-1-.6-1-1.29c0-.46.44-.94,1.3-1.44l4.57-2.66-1.28-.74,1.38-.8,1.28.74,2-1.17Z" transform="translate(-1267.06 -226.43)"/><polygon class="cls-41" points="319.33 257.13 327.2 252.55 328.99 253.59 321.12 258.16 319.33 257.13"/><path class="cls-41" d="M1600.09,487.44l-4.92-2.84h-.05a2,2,0,0,0-1.06,1.21c-.08.42.21.82.86,1.19a6.5,6.5,0,0,0,1.44.62,7.51,7.51,0,0,0,1.49.28l-.57,1a8.72,8.72,0,0,1-1.87-.31,8.38,8.38,0,0,1-2-.84q-1.75-1-1.64-2.2t1.84-2.21l.29-.17a8.14,8.14,0,0,1,3.84-1.09,6.58,6.58,0,0,1,3.63.8c1.09.63,1.58,1.29,1.47,2s-.7,1.36-1.79,2Zm-1.74-4.05a5,5,0,0,0-1.82.45l0,0,3.11,1.79.14-.08a1.65,1.65,0,0,0,.87-.92q.11-.48-.66-.92a2.89,2.89,0,0,0-1.62-.36" transform="translate(-1267.06 -226.43)"/><polygon class="cls-41" points="328.64 250.24 318.04 252.09 314.34 254.25 312.56 253.22 316.37 251 319.49 244.95 321.48 246.1 318.92 250.59 326.65 249.08 328.64 250.24"/><polygon class="cls-41" points="330.67 250.53 332.46 251.57 330.91 252.47 329.13 251.43 330.67 250.53"/><polygon class="cls-41" points="344.25 258.38 332.91 264.97 331.12 263.94 342.46 257.34 344.25 258.38"/><polygon class="cls-41" points="343.56 271.11 351.43 266.54 353.21 267.57 345.34 272.15 343.56 271.11"/><path class="cls-41" d="M1618.14,488.74l1.79,1-11.34,6.59-1.45-.84.79-.7a6.25,6.25,0,0,1-1.78,0,4.52,4.52,0,0,1-1.55-.55q-1.47-.85-1.23-1.93a3.62,3.62,0,0,1,2-2.08l.15-.09a9.52,9.52,0,0,1,3.85-1.29,5.62,5.62,0,0,1,3.44.66,2.32,2.32,0,0,1,.9.82,1.3,1.3,0,0,1,.15.94ZM1609,494l3.43-2a.92.92,0,0,0,0-.77,1.54,1.54,0,0,0-.7-.69,3.09,3.09,0,0,0-2.1-.33,7,7,0,0,0-2.42.9l-.15.09a2.83,2.83,0,0,0-1.32,1.26c-.15.41.09.8.7,1.15a3.27,3.27,0,0,0,1.2.42,4.44,4.44,0,0,0,1.32,0" transform="translate(-1267.06 -226.43)"/><polygon class="cls-41" points="354.9 264.52 356.69 265.55 355.14 266.45 353.35 265.42 354.9 264.52"/><g class="cls-10"><path class="cls-41" d="M1614.35,509a3.31,3.31,0,0,1-1.91,2.24l-.15.09a8.28,8.28,0,0,1-3.87,1.12,6.88,6.88,0,0,1-3.79-.9q-1.7-1-1.56-2.2c.1-.8.74-1.55,1.91-2.24l.15-.09a8.29,8.29,0,0,1,3.85-1.11,6.85,6.85,0,0,1,3.79.89Q1614.5,507.75,1614.35,509Zm-3.84,1.3.15-.09a3,3,0,0,0,1.39-1.35c.18-.46-.06-.87-.68-1.24a3.25,3.25,0,0,0-2.12-.38,6.23,6.23,0,0,0-2.32.81l-.15.09a3.1,3.1,0,0,0-1.42,1.35c-.18.45.06.87.69,1.23a3.29,3.29,0,0,0,2.12.39,6.16,6.16,0,0,0,2.35-.82" transform="translate(-1267.06 -226.43)"/><polygon class="cls-41" points="356.18 282.51 344.83 289.11 343.05 288.07 354.39 281.48 356.18 282.51"/><path class="cls-41" d="M1624.9,513.75c.95.55,1.47,1.13,1.58,1.75a1.42,1.42,0,0,1-.91,1.49l-.06,0-1.71-1a.75.75,0,0,0,.45-.7c0-.29-.24-.55-.67-.8a2.77,2.77,0,0,0-1.28-.4,1.88,1.88,0,0,0-1,.22c-.27.16-.37.34-.33.55a2.71,2.71,0,0,0,.87,1,3.82,3.82,0,0,1,1.35,1.77q.18.75-.77,1.3a4.43,4.43,0,0,1-2.62.49,7,7,0,0,1-3-1q-1.56-.9-1.66-1.87a1.49,1.49,0,0,1,.95-1.54h.06l1.66,1c-.43.28-.6.57-.49.87a1.75,1.75,0,0,0,.84.85,3.31,3.31,0,0,0,1.33.46,1.81,1.81,0,0,0,1.09-.2.52.52,0,0,0,.32-.59,2.72,2.72,0,0,0-.84-1,3.8,3.8,0,0,1-1.32-1.72c-.13-.5.12-.93.74-1.29a4.53,4.53,0,0,1,2.54-.5A6.52,6.52,0,0,1,1624.9,513.75Z" transform="translate(-1267.06 -226.43)"/></g><path class="cls-41" d="M1636,503.07l1.49.86-7.87,4.57a6,6,0,0,1-3.3.81,7.57,7.57,0,0,1-3.52-1.07,6,6,0,0,1-1.09-.82,4.61,4.61,0,0,1-.78-1l1.68-.64a3.64,3.64,0,0,0,.67.8,5.82,5.82,0,0,0,1,.73,3.86,3.86,0,0,0,1.83.58,3.24,3.24,0,0,0,1.71-.47l.81-.47a5.93,5.93,0,0,1-1.61-.09,4.69,4.69,0,0,1-1.41-.54c-1-.56-1.39-1.21-1.22-1.93a3.61,3.61,0,0,1,1.95-2.08l.15-.09a9.54,9.54,0,0,1,3.86-1.29,5.6,5.6,0,0,1,3.44.66,2.27,2.27,0,0,1,1,.9,1.3,1.3,0,0,1,0,1Zm-6,3.12,3.45-2a.93.93,0,0,0,0-.76,1.53,1.53,0,0,0-.7-.69,3.12,3.12,0,0,0-2.11-.34,7.08,7.08,0,0,0-2.42.9l-.15.09a2.77,2.77,0,0,0-1.32,1.26c-.14.42.09.8.7,1.15a3.36,3.36,0,0,0,1.21.43,4.29,4.29,0,0,0,1.32,0" transform="translate(-1267.06 -226.43)"/><path class="cls-41" d="M1626.46,497.4q1.24.72,1.19,1.56t-1.68,1.78l-4.89,2.84-1.79-1,4.88-2.84c.61-.35.93-.68.94-1s-.22-.57-.71-.85a3.8,3.8,0,0,0-1.2-.45,4.05,4.05,0,0,0-1.27,0l-5.76,3.35-1.79-1,7.87-4.57,1.63.94-1,.72a6.75,6.75,0,0,1,1.92,0A4.75,4.75,0,0,1,1626.46,497.4Z" transform="translate(-1267.06 -226.43)"/><g class="cls-10"><path class="cls-41" d="M1598,499.52a3.31,3.31,0,0,1-1.91,2.24l-.15.09a8.28,8.28,0,0,1-3.87,1.12,6.89,6.89,0,0,1-3.79-.9q-1.71-1-1.56-2.2c.09-.81.74-1.55,1.91-2.24l.15-.09a8.23,8.23,0,0,1,3.85-1.11,6.83,6.83,0,0,1,3.79.89Q1598.13,498.3,1598,499.52Zm-3.84,1.29.15-.09a3,3,0,0,0,1.39-1.35c.18-.46-.06-.87-.69-1.24a3.26,3.26,0,0,0-2.12-.38,6.33,6.33,0,0,0-2.32.81l-.15.09A3,3,0,0,0,1589,500c-.18.45,0,.86.69,1.23a3.29,3.29,0,0,0,2.12.39,6.14,6.14,0,0,0,2.34-.82" transform="translate(-1267.06 -226.43)"/><path class="cls-41" d="M1604.88,502.19q1.39.8,1.44,1.78c0,.66-.4,1.22-1.26,1.7l-.06,0-1.62-.93a1.2,1.2,0,0,0,.7-.87c0-.33-.17-.62-.61-.87a3.12,3.12,0,0,0-2.1-.37,6.49,6.49,0,0,0-2.23.81l-.26.15a3.28,3.28,0,0,0-1.4,1.3q-.31.66.66,1.22a2.94,2.94,0,0,0,1.41.38,2.57,2.57,0,0,0,1.38-.31l1.62.93,0,0a5,5,0,0,1-2.8.6,6.39,6.39,0,0,1-3-.81q-1.72-1-1.53-2.18a3.37,3.37,0,0,1,1.9-2.18l.26-.15a8.31,8.31,0,0,1,3.76-1.11A6.66,6.66,0,0,1,1604.88,502.19Z" transform="translate(-1267.06 -226.43)"/></g><path class="cls-41" d="M1592,492.71l-1.92,1.11,1.43.82-1.31.76-1.43-.82-4.35,2.53c-.32.19-.48.36-.48.53s.13.31.36.45a2.45,2.45,0,0,0,.31.15l.34.11-1.1.86a4.37,4.37,0,0,1-.74-.2,4.77,4.77,0,0,1-.72-.34q-1-.57-1-1.23c0-.43.42-.89,1.23-1.37l4.35-2.53-1.21-.7,1.31-.76,1.21.7,1.92-1.11Z" transform="translate(-1267.06 -226.43)"/><g class="cls-10"><path class="cls-41" d="M1573.42,482.1q.1,1.11-1.37,2a6.25,6.25,0,0,1-3.4.81,7.75,7.75,0,0,1-3.68-1.08l-2.32-1.34-4,2.33-1.79-1,10.59-6.15,4.1,2.37Q1573.32,481,1573.42,482.1Zm-5,1.42a3.7,3.7,0,0,0,1.83-.48,1.42,1.42,0,0,0,.85-1.07c0-.4-.3-.79-1-1.17l-2.32-1.34-3.74,2.17,2.32,1.34a3.85,3.85,0,0,0,2,.56" transform="translate(-1267.06 -226.43)"/><path class="cls-41" d="M1577.9,486.62a2,2,0,0,1,.28.19l.2.18-1.87.84-.74-.46a2.92,2.92,0,0,0-1.09-.38,3.37,3.37,0,0,0-1.15,0l-5.47,3.18-1.79-1,7.87-4.57,1.63.94-1,.73a6.14,6.14,0,0,1,1.72-.1A3.44,3.44,0,0,1,1577.9,486.62Z" transform="translate(-1267.06 -226.43)"/><path class="cls-41" d="M1584.29,491.61a3.29,3.29,0,0,1-1.9,2.24l-.15.09a8.24,8.24,0,0,1-3.87,1.12,6.86,6.86,0,0,1-3.79-.89q-1.71-1-1.56-2.2c.09-.81.73-1.56,1.91-2.24l.15-.09a8.25,8.25,0,0,1,3.86-1.11,6.81,6.81,0,0,1,3.79.89C1583.87,490.07,1584.4,490.8,1584.29,491.61Zm-3.84,1.3.15-.09a3,3,0,0,0,1.39-1.35c.18-.46-.06-.87-.69-1.24a3.26,3.26,0,0,0-2.12-.38,6.33,6.33,0,0,0-2.32.81l-.15.09a3,3,0,0,0-1.42,1.36c-.18.45,0,.86.69,1.23a3.31,3.31,0,0,0,2.12.39,6.23,6.23,0,0,0,2.34-.82" transform="translate(-1267.06 -226.43)"/></g></svg>