<?xml version="1.0" encoding="UTF-8"?>
<svg width="240px" height="60px" viewBox="0 0 240 60" version="1.1" xmlns="http://www.w3.org/2000/svg" xmlns:xlink="http://www.w3.org/1999/xlink">
    <title>2-DFI.money(YFII)</title>
    <g id="控件" stroke="none" stroke-width="1" fill="none" fill-rule="evenodd">
        <g id="编组-19备份" transform="translate(-379.000000, 33.000000)" fill="#D4D9E0">
            <g id="编组-20备份-2" transform="translate(383.000000, -23.000000)">
                <text id="DFI.money(YFII)" font-family="HomepageBaukasten-Book, HomepageBaukasten" font-size="23.5294118" font-weight="300">
                    <tspan x="49.627451" y="24.1215686">DFI.money</tspan>
                    <tspan x="175.392157" y="24.1215686" font-family="PingFangSC-Regular, PingFang SC" font-weight="normal">(YFII)</tspan>
                </text>
                <g id="编组" transform="translate(20.832511, 20.132511) rotate(-270.000000) translate(-20.832511, -20.132511) translate(1.332511, 0.132511)">
                    <g transform="translate(0.000000, 0.380772)" id="形状结合">
                        <path d="M38.397004,18.460355 C38.7724797,28.8198224 30.4205607,37.5364669 20.3261074,38.0222483 C9.63595647,38.5367746 0.413666182,29.9630757 0.458879474,19.1793675 C0.398787374,9.34385221 8.00170248,0.613029977 18.4500533,0.107384203 C29.4788334,-0.426305398 38.0234758,8.15448236 38.397004,18.460355 Z M19.1826204,1.76454066 C9.45616438,1.83239114 1.87046508,9.93137037 2.09177761,19.4995345 C2.30514439,28.7245513 10.0145481,36.6068141 19.7803434,36.3887733 C29.3037153,36.1760297 36.8292762,28.4734812 36.7148418,18.8459576 C36.6011085,9.28472647 28.7342698,1.63507166 19.1826204,1.76454066 Z M21.1777828,19.4826615 C22.0405979,20.1624906 23.0056171,20.7484508 23.7431698,21.5449733 C26.9057344,24.9608672 25.2169508,30.3395174 20.9360606,31.6375571 C18.0462222,32.5137708 15.0343152,31.2827247 13.6489502,28.6987977 C12.699355,26.9276743 12.5835964,25.1235993 13.5670778,23.3123576 C13.6285405,23.1992475 13.6765266,23.0786591 13.7260707,22.9595507 C13.7334711,22.9417117 13.7145416,22.9128889 13.6942098,22.8416887 C12.9546318,22.986426 12.2111588,23.1320981 11.3990563,23.291091 C11.2942814,22.7637113 11.1779774,22.2414729 11.1036613,21.7133142 C11.0954819,21.6550454 11.318664,21.5220709 11.449691,21.4935597 C11.9801867,21.37858 12.5183166,21.2992004 13.0504482,21.1912316 C14.166203,20.9650114 15.2828147,20.7414398 16.3926491,20.4888896 C16.6994953,20.4190137 16.785029,20.5184135 16.8208628,20.7907502 C17.0013559,22.162327 17.1894054,23.5329691 17.3764421,24.9037669 C17.4200659,25.2240118 17.4861246,25.542465 17.5078586,25.8640342 C17.5154928,25.9767548 17.4384501,26.1854477 17.3705218,26.1986906 C16.8686931,26.2966882 16.359386,26.3562813 15.813622,26.4334797 C15.6822055,25.5013341 15.5570989,24.6146039 15.4320701,23.7278736 C14.8705704,24.5424689 14.5204121,25.3820699 14.6787039,26.3777816 C14.9896009,28.3332153 16.678774,29.9770509 18.7125747,30.1424316 C21.0074945,30.3290788 22.6954991,28.8825627 23.3278095,27.2857005 C24.0417586,25.4824824 23.4433345,23.2833011 21.8516137,22.1775174 C21.2126818,21.7335681 20.8960203,21.269209 21.0156739,20.4959005 C21.0661528,20.1702805 21.024165,19.830327 21.024165,19.4900619 C21.1081407,19.4847648 21.1568279,19.4661468 21.1777828,19.4826615 Z M20.2475616,11.3849209 C20.2355492,13.7296185 20.2383536,16.0744719 20.2366398,18.4193253 C20.2364061,18.6524785 20.2365619,18.8856318 20.2361724,19.1187851 C20.2357829,21.6579978 20.2300962,24.1971326 20.2424823,26.7361895 C20.244196,27.081518 20.1657512,27.2413678 19.7908208,27.1992242 C19.5222233,27.169155 19.2475496,27.1946281 18.9754466,27.1942386 C18.4566358,27.1933817 18.4560126,27.1930701 18.4560126,26.6897614 C18.4562463,24.4616014 18.4570253,22.2333636 18.4574148,20.0052037 L18.4579698,15.7689889 L18.4579698,15.7689889 L18.4583496,11.5327741 C18.4584275,10.9898924 18.4581159,10.9907493 18.9826133,10.9958128 C19.2675698,10.9985392 19.5536947,11.0140413 19.8371711,10.9939432 C20.1359157,10.9726766 20.2491037,11.0710637 20.2475616,11.3849209 Z M25.2301859,11.1675578 C25.4579641,12.3173547 25.4253242,13.460686 25.0200909,14.5765966 C24.9865941,14.6687517 24.9656391,14.7655029 24.9244303,14.9114087 C25.0560026,14.8883504 25.1406793,14.8850787 25.2172546,14.8582033 C25.7669136,14.6650904 26.3165726,14.4719775 26.8623366,14.2683482 C27.0704841,14.1906044 27.1994078,14.2122605 27.276762,14.4472055 C27.3982074,14.8157481 27.5608616,15.1713594 27.667506,15.5434075 C27.6956277,15.6417167 27.6111068,15.8596795 27.5300913,15.8888918 C25.8024357,16.5116985 24.0677693,17.1154198 22.2862073,17.7397065 C22.1536223,17.3073642 22.0157402,16.8825002 21.8931263,16.4533518 L21.1530578,13.8374282 C21.0290475,13.4016468 20.9038024,12.9662317 20.7759693,12.5315784 C20.6976024,12.2650841 20.7659982,12.1444957 21.0166788,12.0785148 C21.3670709,11.9862818 21.7160607,11.8883621 22.0635705,11.7856905 C22.2875316,11.7195538 22.3972141,11.7994787 22.4567293,12.0222713 C22.6337949,12.6848068 22.8242593,13.3437588 23.0124645,14.0032561 C23.0433127,14.1112248 23.0891176,14.2149091 23.1279116,14.3206187 L23.2759986,14.3275518 C23.3761773,13.9611904 23.5094634,13.6002819 23.5712377,13.2275327 C24.0155766,10.547244 22.018155,8.08530759 19.3081866,7.95708498 C17.5241318,7.8726419 15.7583055,8.97826977 15.0234015,10.6400223 C14.2976117,12.2810535 14.6384221,14.2999754 15.8983689,15.5412263 C16.3282184,15.9646881 16.8327736,16.3170276 17.3267344,16.668666 C17.5897232,16.8559365 17.6938749,17.0605006 17.6799309,17.3805897 C17.6559378,17.931573 17.6732315,18.4844259 17.6732315,19.1236694 C16.8397067,18.5065494 16.0794074,17.9353122 15.3099938,17.3766948 C14.6808773,16.9199699 14.1816193,16.3485769 13.7829295,15.687989 C12.1407298,12.9667251 12.8070823,9.46802404 15.3311825,7.53728447 C18.9870848,4.74061386 24.3456369,6.70220164 25.2301859,11.1675578 Z"></path>
                    </g>
                </g>
            </g>
        </g>
    </g>
</svg>