<?xml version="1.0" encoding="UTF-8"?>
<svg width="17px" height="12px" viewBox="0 0 17 12" version="1.1" xmlns="http://www.w3.org/2000/svg" xmlns:xlink="http://www.w3.org/1999/xlink">
    <title>形状</title>
    <g id="页面-1" stroke="none" stroke-width="1" fill="none" fill-rule="evenodd">
        <g id="EN" transform="translate(-1534.000000, -4549.000000)" fill="#D4D9E0" fill-rule="nonzero">
            <g id="编组-30" transform="translate(1274.000000, 4547.000000)">
                <path d="M271.171672,10.4672168 C270.363363,10.4672168 269.708208,9.77072981 269.708208,8.91480608 C269.708208,8.05888235 270.363363,7.36239539 271.171672,7.36239539 C271.97998,7.36239539 272.635135,8.05888233 272.635135,8.91480608 C272.626627,9.77072981 271.971471,10.4672168 271.171672,10.4672168 Z M265.81982,10.4672168 C265.011512,10.4672168 264.356356,9.77072981 264.356356,8.91480608 C264.356356,8.05888235 265.011511,7.36239539 265.81982,7.36239539 C266.628128,7.36239539 267.283283,8.05888233 267.283283,8.91480608 C267.283283,9.77072983 266.628128,10.4672168 265.81982,10.4672168 Z M276.515015,7.89944558 C276.004505,5.5162854 274.898398,3.51073861 274.898398,3.51073861 C272.771271,1.9415451 270.788789,2.00028497 270.788789,2.00028497 L270.661161,2.2100702 C272.983984,2.74712039 274.447447,4.06457161 274.447447,4.06457161 C272.541542,2.99047125 269.963463,2.62124924 268.491491,2.62124926 C267.019519,2.62124928 264.441441,2.99047125 262.544044,4.06457161 C262.544044,4.06457161 264.007508,2.74712037 266.33033,2.2100702 L266.202703,2.00028497 C266.202703,2.00028497 264.211712,1.9415451 262.093093,3.51073861 C262.093093,3.51073861 260.986987,5.52467679 260.476476,7.89944558 C260.034034,9.9553408 260,11.826625 260,11.826625 C260,11.826625 260.757257,12.8839426 261.871872,13.4042099 C262.943944,13.9076945 263.743744,13.9916086 264.424424,14 L265.41992,12.8252027 C265.41992,12.8252027 263.752252,12.338501 262.875876,11.1637037 C262.875876,11.1637037 265.232733,12.7748543 268.5,12.7748543 C271.767267,12.7748543 274.124124,11.1637037 274.124124,11.1637037 C273.247748,12.338501 271.58008,12.8252027 271.58008,12.8252027 L272.575576,14 C273.256256,13.9916086 274.056056,13.8993031 275.128128,13.4042099 C276.242743,12.8839426 277,11.826625 277,11.826625 C277,11.826625 276.957457,9.9553408 276.515015,7.89944558 L276.515015,7.89944558 Z" id="形状"></path>
            </g>
        </g>
    </g>
</svg>