<?xml version="1.0" encoding="UTF-8"?>
<svg width="20px" height="20px" viewBox="0 0 20 20" version="1.1" xmlns="http://www.w3.org/2000/svg" xmlns:xlink="http://www.w3.org/1999/xlink">
    <title>5</title>
    <g id="控件" stroke="none" stroke-width="1" fill="none" fill-rule="evenodd">
        <g id="编组-30" transform="translate(2.000000, -34.000000)" fill="#D4D9E0" fill-rule="nonzero">
            <g transform="translate(-2.000000, -2.000000)" id="形状">
                <path d="M15.8179719,39.3657272 L14.756192,39.2531918 C11.5792572,38.9156027 8.37710798,38.9156027 5.20017319,39.2531918 L4.18202811,39.3657272 C2.92499559,39.5122953 1.98105684,40.6191567 2.00028865,41.9240322 L2.00028865,48.0759678 C1.98105684,49.3808433 2.92499559,50.4877047 4.18202811,50.6342728 L5.24380798,50.7468082 C8.42074277,51.0843973 11.622892,51.0843973 14.7998268,50.7468082 L15.8179719,50.6342728 C17.0750044,50.4877047 18.0189432,49.3808433 17.9997113,48.0759678 L17.9997113,41.9240322 C18.0189432,40.6191567 17.0750044,39.5122953 15.8179719,39.3657272 L15.8179719,39.3657272 Z M12.1817395,45.4651464 L9.35275063,47.4157601 C9.18802374,47.5090543 8.98834432,47.508301 8.82428327,47.4137664 C8.66022222,47.3192319 8.55488766,47.1442314 8.54550703,46.9506138 L8.54550703,43.0493862 C8.54587491,42.8414135 8.6574147,42.6506095 8.83554947,42.5532292 C9.01368423,42.455849 9.22936138,42.4677746 9.39638542,42.5842399 L12.2253742,44.5348536 C12.3778129,44.6373196 12.4697435,44.8123056 12.4697435,45 C12.4697435,45.1876944 12.3778129,45.3626804 12.2253742,45.4651464 L12.1817395,45.4651464 Z"></path>
            </g>
        </g>
    </g>
</svg>