<svg id="图层_1" data-name="图层 1" xmlns="http://www.w3.org/2000/svg" xmlns:xlink="http://www.w3.org/1999/xlink" viewBox="0 0 70.19 75.11"><defs><style>.cls-1,.cls-10,.cls-11,.cls-2,.cls-4,.cls-5,.cls-7,.cls-8{fill:none;}.cls-1,.cls-6{stroke:#24408c;}.cls-1,.cls-10,.cls-11,.cls-2,.cls-4,.cls-5,.cls-6,.cls-7,.cls-8,.cls-9{stroke-miterlimit:10;stroke-width:2.6px;}.cls-2{stroke:url(#未命名的渐变_29);}.cls-3{fill:#24408c;}.cls-4,.cls-9{stroke:#d5a24e;}.cls-5{stroke:url(#未命名的渐变_15);}.cls-6,.cls-9{fill:#fff;}.cls-7{stroke:url(#未命名的渐变_6);}.cls-8{stroke:url(#未命名的渐变_6-2);}.cls-10{stroke:url(#未命名的渐变_15-2);}.cls-11{stroke:url(#未命名的渐变_6-3);}</style><linearGradient id="未命名的渐变_29" x1="33.52" y1="48.59" x2="4.59" y2="48.59" gradientUnits="userSpaceOnUse"><stop offset="0" stop-color="#fff"/><stop offset="1" stop-color="#4ce4e5"/></linearGradient><linearGradient id="未命名的渐变_15" x1="46.88" y1="11.91" x2="46.88" y2="42.45" gradientUnits="userSpaceOnUse"><stop offset="0" stop-color="#fff"/><stop offset="1" stop-color="#d5a24e"/></linearGradient><linearGradient id="未命名的渐变_6" x1="46.88" y1="11.91" x2="46.88" y2="46.45" gradientUnits="userSpaceOnUse"><stop offset="0" stop-color="#fff"/><stop offset="1" stop-color="#24408c"/></linearGradient><linearGradient id="未命名的渐变_6-2" x1="34.37" y1="18.91" x2="34.37" y2="38.45" xlink:href="#未命名的渐变_6"/><linearGradient id="未命名的渐变_15-2" x1="21.86" y1="12.91" x2="21.86" y2="28.45" xlink:href="#未命名的渐变_15"/><linearGradient id="未命名的渐变_6-3" x1="21.86" y1="8.91" x2="21.86" y2="32.45" xlink:href="#未命名的渐变_6"/></defs><title>icon-composability</title><path class="cls-1" d="M456.6,889l-.07,14.89a1.78,1.78,0,0,0,1,1.46l30.31,17.5a3.86,3.86,0,0,0,.51.25h0l.09,0,.32.11.18,0,.1,0,.09,0,.35.06h.34l.35,0h.36l.39,0h.15l.3,0,.13,0,.36-.09.19,0,.08,0a4,4,0,0,0,.7-.31L523,905.32l0,0,.18-.13a2.77,2.77,0,0,0,.25-.18l0,0a2,2,0,0,0,.22-.24l0-.06,0-.06.06-.1a1.44,1.44,0,0,0,.09-.2v-.07a1.29,1.29,0,0,0,0-.13,1.22,1.22,0,0,0,0-.2v0l.07-14.89" transform="translate(-455.24 -849.61)"/><path class="cls-1" d="M456.61,889.13a1.68,1.68,0,0,1,1-1.61L487.75,870a5.52,5.52,0,0,1,5,0l30.31,17.5a1.74,1.74,0,0,1,1,1.53" transform="translate(-455.24 -849.61)"/><line class="cls-2" x1="32.87" y1="56.55" x2="5.24" y2="40.63"/><circle class="cls-3" cx="35.09" cy="57.48" r="2.2"/><path class="cls-1" d="M456.6,889l-.07,14.89a1.78,1.78,0,0,0,1,1.46l30.31,17.5a3.86,3.86,0,0,0,.51.25h0l.09,0,.32.11.18,0,.1,0,.09,0,.35.06h.34l.35,0h.36l.39,0h.15l.3,0,.13,0,.36-.09.19,0,.08,0a4,4,0,0,0,.7-.31L523,905.32l0,0,.18-.13a2.77,2.77,0,0,0,.25-.18l0,0a2,2,0,0,0,.22-.24l0-.06,0-.06.06-.1a1.44,1.44,0,0,0,.09-.2v-.07a1.29,1.29,0,0,0,0-.13,1.22,1.22,0,0,0,0-.2v0l.07-14.89" transform="translate(-455.24 -849.61)"/><line class="cls-2" x1="32.87" y1="56.55" x2="5.24" y2="40.63"/><circle class="cls-3" cx="35.09" cy="57.48" r="2.2"/><path class="cls-4" d="M496.17,889.17V857.44l6-4.47a.48.48,0,0,1,.48,0l6,4.47v31.72" transform="translate(-455.24 -849.61)"/><line class="cls-5" x1="46.88" y1="42.45" x2="46.88" y2="11.91"/><path class="cls-6" d="M496.17,893.17V857.44l6-4.47a.48.48,0,0,1,.48,0l6,4.47v35.72" transform="translate(-455.24 -849.61)"/><line class="cls-7" x1="46.88" y1="46.45" x2="46.88" y2="11.91"/><path class="cls-4" d="M483.66,881.17V864.44l6-4.47a.48.48,0,0,1,.48,0l6,4.47v16.72" transform="translate(-455.24 -849.61)"/><path class="cls-6" d="M483.66,885.17V864.44l6-4.47a.48.48,0,0,1,.48,0l6,4.47v20.72" transform="translate(-455.24 -849.61)"/><line class="cls-8" x1="34.37" y1="38.45" x2="34.37" y2="18.91"/><path class="cls-9" d="M471.15,875.17V855.44l6-4.47a.48.48,0,0,1,.48,0l6,4.47v19.72" transform="translate(-455.24 -849.61)"/><line class="cls-10" x1="21.86" y1="28.45" x2="21.86" y2="12.91"/><path class="cls-6" d="M471.15,879.17V855.44l6-4.47a.48.48,0,0,1,.48,0l6,4.47v23.72" transform="translate(-455.24 -849.61)"/><line class="cls-11" x1="21.86" y1="32.45" x2="21.86" y2="8.91"/><path class="cls-1" d="M470.66,878.32l6.43,3.74a.52.52,0,0,0,.52,0l6.49-3.74" transform="translate(-455.24 -849.61)"/><path class="cls-1" d="M483.17,884.32l6.43,3.74a.52.52,0,0,0,.52,0l6.49-3.74" transform="translate(-455.24 -849.61)"/><path class="cls-1" d="M495.68,892.32l6.43,3.74a.52.52,0,0,0,.52,0l6.49-3.74" transform="translate(-455.24 -849.61)"/></svg>