<svg id="图层_1" data-name="图层 1" xmlns="http://www.w3.org/2000/svg" viewBox="0 0 63 63"><defs><style>.cls-1{fill:none;stroke:#d5a24e;stroke-miterlimit:10;}.cls-2{fill:#d5a24e;}</style></defs><title>icon-reddit</title><circle class="cls-1" cx="31.5" cy="31.5" r="31"/><path class="cls-2" d="M50.58,31.3a4.06,4.06,0,0,0-4.06-4.06h0a4.06,4.06,0,0,0-2.86,1.14,20.3,20.3,0,0,0-11-3.49l1.89-8.81,6.09,1.32A2.94,2.94,0,1,0,41,16l-6.82-1.44a.71.71,0,0,0-.55,0,.65.65,0,0,0-.3.47l-2,9.8A20.3,20.3,0,0,0,20.12,28.3,4.06,4.06,0,1,0,15.59,35a7.4,7.4,0,0,0,0,1.24c0,6.31,7.35,11.45,16.42,11.45s16.32-5,16.32-11.41a7.71,7.71,0,0,0,0-1.24A4.06,4.06,0,0,0,50.58,31.3ZM22.43,34.22a2.92,2.92,0,1,1,2.92,2.92,2.92,2.92,0,0,1-2.92-2.92ZM38.79,42a12.32,12.32,0,0,1-13.9,0,.75.75,0,0,1,0-1.06h0a.75.75,0,0,1,1.06,0h0a10.94,10.94,0,0,0,11.75,0,.75.75,0,0,1,1.06,0h0a.81.81,0,0,1,0,1.08Zm-.55-4.81a2.92,2.92,0,1,1,2.92-2.92,2.92,2.92,0,0,1-2.92,2.92h-.08Z" transform="translate(-0.5 0.5)"/></svg>