<svg id="图层_1" data-name="图层 1" xmlns="http://www.w3.org/2000/svg" xmlns:xlink="http://www.w3.org/1999/xlink" viewBox="0 0 70.19 72.87"><defs><style>.cls-1,.cls-2{fill:none;stroke-miterlimit:10;stroke-width:2.6px;}.cls-1{stroke:#24408c;}.cls-2{stroke:url(#未命名的渐变_29);}.cls-3{fill:#24408c;}.cls-4{fill:url(#未命名的渐变_9);}.cls-5{fill:#fff;}</style><linearGradient id="未命名的渐变_29" x1="33.52" y1="46.35" x2="4.59" y2="46.35" gradientUnits="userSpaceOnUse"><stop offset="0" stop-color="#fff"/><stop offset="1" stop-color="#4ce4e5"/></linearGradient><linearGradient id="未命名的渐变_9" x1="1123.1" y1="895.09" x2="1098.99" y2="853.33" gradientUnits="userSpaceOnUse"><stop offset="0" stop-color="#fff"/><stop offset="0.25" stop-color="#24408c"/><stop offset="1" stop-color="#24408c"/></linearGradient></defs><title>icon-cost efficiency</title><path class="cls-1" d="M1076.6,889l-.07,14.89a1.78,1.78,0,0,0,1,1.46l30.31,17.5a3.86,3.86,0,0,0,.51.25h0l.09,0,.32.11.18,0,.1,0,.09,0,.35.06h.34l.35,0h.36l.39,0h.15l.3,0,.13,0,.36-.09.19,0,.08,0a4,4,0,0,0,.7-.31l30.11-17.5,0,0,.18-.13a2.77,2.77,0,0,0,.25-.18l0,0a2,2,0,0,0,.22-.24l0-.06,0-.06.06-.1a1.44,1.44,0,0,0,.09-.2v-.07a1.29,1.29,0,0,0,0-.13,1.22,1.22,0,0,0,0-.2v0l.07-14.89" transform="translate(-1075.24 -851.85)"/><path class="cls-1" d="M1076.61,889.13a1.68,1.68,0,0,1,1-1.61l30.11-17.5a5.52,5.52,0,0,1,5,0l30.31,17.5a1.74,1.74,0,0,1,1,1.53" transform="translate(-1075.24 -851.85)"/><line class="cls-2" x1="32.87" y1="54.32" x2="5.24" y2="38.39"/><circle class="cls-3" cx="35.09" cy="55.24" r="2.2"/><path class="cls-4" d="M1112,854.57c9.17,5.9,16.19,19.5,15.64,30.34s-8.45,14.86-17.62,9-16.2-19.5-15.65-30.34S1102.86,848.67,1112,854.57Zm-1.81,35.91c7.59,4.87,14.13,1.55,14.58-7.41s-5.36-20.23-12.94-25.1-14.13-1.55-14.58,7.41,5.34,20.22,12.94,25.1" transform="translate(-1075.24 -851.85)"/><path class="cls-5" d="M1111.63,857.14c7.76,5.05,13.69,16.73,13.22,26s-7.16,12.77-14.92,7.72-13.7-16.74-13.23-26.06S1103.86,852.08,1111.63,857.14Z" transform="translate(-1075.24 -851.85)"/><path class="cls-3" d="M1114.38,876.1a9.47,9.47,0,0,1,2.31,6.16c-.1,1.94-.77,3.05-2,3.3a5.49,5.49,0,0,1-3.33-.88l-.12,2.31-1.78-1.14.12-2.33a11.12,11.12,0,0,1-3.21-3.81,13.52,13.52,0,0,1-1.38-6v-.45l2.46,1.58,0,.38a9.18,9.18,0,0,0,.8,3.76,6,6,0,0,0,1.46,1.86l.33-6.48c-.75-.82-1.43-1.58-2.06-2.26a9.37,9.37,0,0,1-2.36-6.18c.09-1.85.75-2.89,1.93-3.11a4.41,4.41,0,0,1,3,.67l.11-2.16,1.78,1.14-.11,2.17a11.36,11.36,0,0,1,2.93,3.32,12.34,12.34,0,0,1,1.56,5.44l0,.5-2.46-1.58,0-.37a7.07,7.07,0,0,0-.92-3.17,6.47,6.47,0,0,0-1.27-1.51l-.31,6.06C1113.24,874.8,1114.09,875.75,1114.38,876.1Zm-1.12,6.28c.59-.17.9-.71,1-1.66.06-1.11-.59-2.4-2-4l-.44-.48-.29,5.75a2.73,2.73,0,0,0,1.77.35m-3.07-10.9.27-5.35a2.16,2.16,0,0,0-1.38-.26c-.61.1-.91.66-1,1.69s.62,2.25,2,3.82l.08.1" transform="translate(-1075.24 -851.85)"/></svg>