<svg id="图层_1" data-name="图层 1" xmlns="http://www.w3.org/2000/svg" viewBox="0 0 63 63"><defs><style>.cls-1{fill:none;stroke:#d5a24e;stroke-miterlimit:10;}.cls-2{fill:#d5a24e;}</style></defs><title>icon-medium</title><circle class="cls-1" cx="31.5" cy="31.5" r="31"/><polygon class="cls-2" points="26.6 36.9 37.6 42.2 26.6 25.1 26.6 36.9"/><path class="cls-2" d="M47,42.5l-10.6-5a1.63,1.63,0,0,0-.9-.4.6.6,0,0,0-.6.3,1.45,1.45,0,0,0-.2.7V60.7a1.9,1.9,0,0,0,.3.9,1.85,1.85,0,0,0,.8.7l9.7,4.6a1.48,1.48,0,0,0,.7.1,1.14,1.14,0,0,0,.8-.3,1.22,1.22,0,0,0,.3-.9V42.6A.44.44,0,0,1,47,42.5Z" transform="translate(-21.8 -19.5)"/><path class="cls-2" d="M69.9,66.5a1.61,1.61,0,0,0,.9.3,1.14,1.14,0,0,0,.8-.3,1,1,0,0,0,.3-.8V45L60.7,62.2Z" transform="translate(-21.8 -19.5)"/><path class="cls-2" d="M71.8,42.5,60.5,37.1a1.27,1.27,0,0,0-.6-.1,1.23,1.23,0,0,0-1,.5L52.1,48l8.1,12.5c.6-1,2.7-4.2,6.3-9.7S71.8,42.5,71.8,42.5Z" transform="translate(-21.8 -19.5)"/></svg>