<svg id="图层_1" data-name="图层 1" xmlns="http://www.w3.org/2000/svg" xmlns:xlink="http://www.w3.org/1999/xlink" viewBox="0 0 70.19 75.41"><defs><style>.cls-1,.cls-2,.cls-4,.cls-6{fill:none;}.cls-1,.cls-5{stroke:#24408c;}.cls-1,.cls-2,.cls-4,.cls-5,.cls-6{stroke-miterlimit:10;stroke-width:2.6px;}.cls-2{stroke:url(#未命名的渐变_29);}.cls-3{fill:#24408c;}.cls-4{stroke:url(#未命名的渐变_18);}.cls-5{fill:#fff;}.cls-6{stroke:url(#未命名的渐变_14);}</style><linearGradient id="未命名的渐变_29" x1="33.52" y1="48.9" x2="4.59" y2="48.9" gradientUnits="userSpaceOnUse"><stop offset="0" stop-color="#fff"/><stop offset="1" stop-color="#4ce4e5"/></linearGradient><linearGradient id="未命名的渐变_18" x1="19.64" y1="5.78" x2="29.76" y2="2.1" gradientUnits="userSpaceOnUse"><stop offset="0" stop-color="#fff"/><stop offset="1" stop-color="#24408c"/></linearGradient><linearGradient id="未命名的渐变_14" x1="44.28" y1="48.67" x2="44.28" y2="20.66" xlink:href="#未命名的渐变_18"/></defs><title>icon-contracts</title><path class="cls-1" d="M696.6,889l-.07,14.89a1.78,1.78,0,0,0,1,1.46l30.31,17.5a3.86,3.86,0,0,0,.51.25h0l.09,0,.32.11.18,0,.1,0,.09,0,.35.06h.34l.35,0h.36l.39,0h.15l.3,0,.13,0,.36-.09.19,0,.08,0a4,4,0,0,0,.7-.31L763,905.32l0,0,.18-.13a2.77,2.77,0,0,0,.25-.18l0,0a2,2,0,0,0,.22-.24l0-.06,0-.06.06-.1a1.44,1.44,0,0,0,.09-.2v-.07a1.29,1.29,0,0,0,0-.13,1.22,1.22,0,0,0,0-.2v0l.07-14.89" transform="translate(-695.24 -849.3)"/><path class="cls-1" d="M696.61,889.13a1.68,1.68,0,0,1,1-1.61L727.75,870a5.52,5.52,0,0,1,5,0l30.31,17.5a1.74,1.74,0,0,1,1,1.53" transform="translate(-695.24 -849.3)"/><line class="cls-2" x1="32.87" y1="56.86" x2="5.24" y2="40.93"/><circle class="cls-3" cx="35.09" cy="57.78" r="2.2"/><path class="cls-1" d="M724.47,850.61a.06.06,0,0,1,.06,0l24.12,13.93a.06.06,0,0,1,0,.11l-9.06,5.26a.06.06,0,0,1-.06,0L715.41,856" transform="translate(-695.24 -849.3)"/><line class="cls-4" x1="20.17" y1="6.57" x2="29.23" y2="1.31"/><path class="cls-5" d="M739.47,900.8a.19.19,0,0,1-.29.17l-24-13.83.09-31a.1.1,0,0,1,.15-.08l24.1,13.92" transform="translate(-695.24 -849.3)"/><polyline class="cls-1" points="27.64 33 25.63 25.58 30.03 24.42"/><polyline class="cls-1" points="38.05 26.83 39.35 34.59 34.95 35.3"/><path class="cls-5" d="M739.56,870a.06.06,0,0,1,0-.06l9.06-5.26a.06.06,0,0,1,.1.06l-.09,31a.06.06,0,0,1,0,.06l-9.06,5.26a.06.06,0,0,1-.1-.06" transform="translate(-695.24 -849.3)"/><line class="cls-6" x1="44.24" y1="48.66" x2="44.33" y2="20.67"/><line class="cls-1" x1="29.88" y1="37.11" x2="35.43" y2="23.33"/></svg>