<?xml version="1.0" encoding="UTF-8"?>
<svg width="20px" height="20px" viewBox="0 0 20 20" version="1.1" xmlns="http://www.w3.org/2000/svg" xmlns:xlink="http://www.w3.org/1999/xlink">
    <title>1</title>
    <g id="控件" stroke="none" stroke-width="1" fill="none" fill-rule="evenodd">
        <g id="编组-30" transform="translate(2.000000, 2.000000)" fill="#D4D9E0" fill-rule="nonzero">
            <g transform="translate(-2.000000, -2.000000)" id="twitter">
                <path d="M19,4.6579514 C18.37525,4.93930073 17.7023333,5.12878089 16.9968333,5.21490823 C17.7179167,4.77709423 18.269,4.08520455 18.5310833,3.25981749 C17.85675,3.66461602 17.1101667,3.95888445 16.3154167,4.11678458 C15.68075,3.42920127 14.7726667,3 13.7710833,3 C11.5185833,3 9.86391667,5.12878089 10.3725,7.33938275 C7.47541667,7.19153081 4.90416667,5.78478417 3.18433333,3.64739055 C2.27058333,5.23500461 2.71116667,7.31354455 4.26383333,8.36573362 C3.69291667,8.3470727 3.156,8.18773711 2.68566667,7.92361325 C2.64741667,9.56003281 3.80625,11.0916641 5.48358333,11.4333026 C4.99341667,11.5682354 4.45508333,11.5998154 3.90825,11.4935917 C4.35166667,12.8974674 5.64225,13.9180765 7.16658333,13.9467856 C5.6975,15.1123757 3.85158333,15.6334461 2,15.4123859 C3.54416667,16.4157695 5.37591667,17 7.34508333,17 C13.8220833,17 17.4799167,11.4577053 17.2589167,6.48672203 C17.94175,5.99005434 18.5325,5.36706654 19,4.6579514 L19,4.6579514 Z"></path>
            </g>
        </g>
    </g>
</svg>