<svg id="图层_1" data-name="图层 1" xmlns="http://www.w3.org/2000/svg" xmlns:xlink="http://www.w3.org/1999/xlink" viewBox="0 0 70.19 75.13"><defs><style>.cls-1,.cls-2,.cls-5{fill:none;}.cls-1,.cls-4{stroke:#24408c;}.cls-1,.cls-2,.cls-4,.cls-5{stroke-miterlimit:10;stroke-width:2.6px;}.cls-2{stroke:url(#未命名的渐变_29);}.cls-3{fill:#24408c;}.cls-4{fill:#fff;}.cls-5{stroke:url(#未命名的渐变_6);}</style><linearGradient id="未命名的渐变_29" x1="33.52" y1="48.62" x2="4.59" y2="48.62" gradientUnits="userSpaceOnUse"><stop offset="0" stop-color="#fff"/><stop offset="1" stop-color="#4ce4e5"/></linearGradient><linearGradient id="未命名的渐变_6" x1="602.84" y1="869.42" x2="602.84" y2="880.79" gradientTransform="matrix(-1, 0, 0, 1, 638.06, -849.59)" gradientUnits="userSpaceOnUse"><stop offset="0" stop-color="#fff"/><stop offset="1" stop-color="#24408c"/></linearGradient></defs><title>icon-permission</title><path class="cls-1" d="M566.6,889l-.07,14.89a1.78,1.78,0,0,0,1,1.46l30.31,17.5a3.86,3.86,0,0,0,.51.25h0l.09,0,.32.11.18,0,.1,0,.09,0,.35.06h.34l.35,0h.36l.39,0h.15l.3,0,.13,0,.36-.09.19,0,.08,0a4,4,0,0,0,.7-.31L633,905.32l0,0,.18-.13a2.77,2.77,0,0,0,.25-.18l0,0a2,2,0,0,0,.22-.24l0-.06,0-.06.06-.1a1.44,1.44,0,0,0,.09-.2v-.07a1.29,1.29,0,0,0,0-.13,1.22,1.22,0,0,0,0-.2v0l.07-14.89" transform="translate(-565.24 -849.59)"/><path class="cls-1" d="M566.61,889.13a1.68,1.68,0,0,1,1-1.61L597.75,870a5.52,5.52,0,0,1,5,0l30.31,17.5a1.74,1.74,0,0,1,1,1.53" transform="translate(-565.24 -849.59)"/><line class="cls-2" x1="32.87" y1="56.58" x2="5.24" y2="40.65"/><circle class="cls-3" cx="35.09" cy="57.5" r="2.2"/><path class="cls-1" d="M566.6,889l-.07,14.89a1.78,1.78,0,0,0,1,1.46l30.31,17.5a3.86,3.86,0,0,0,.51.25h0l.09,0,.32.11.18,0,.1,0,.09,0,.35.06h.34l.35,0h.36l.39,0h.15l.3,0,.13,0,.36-.09.19,0,.08,0a4,4,0,0,0,.7-.31L633,905.32l0,0,.18-.13a2.77,2.77,0,0,0,.25-.18l0,0a2,2,0,0,0,.22-.24l0-.06,0-.06.06-.1a1.44,1.44,0,0,0,.09-.2v-.07a1.29,1.29,0,0,0,0-.13,1.22,1.22,0,0,0,0-.2v0l.07-14.89" transform="translate(-565.24 -849.59)"/><line class="cls-2" x1="32.87" y1="56.58" x2="5.24" y2="40.65"/><circle class="cls-3" cx="35.09" cy="57.5" r="2.2"/><path class="cls-4" d="M587.15,850.89a.85.85,0,0,0-.85.85v33.17a.85.85,0,0,0,.85.85h29a.85.85,0,0,0,.85-.85V851.74a.85.85,0,0,0-.85-.85H616" transform="translate(-565.24 -849.59)"/><line class="cls-4" x1="51.07" y1="1.3" x2="21.91" y2="1.3"/><path class="cls-4" d="M587.65,851.55a.92.92,0,0,0-1.36.7v33a.79.79,0,0,0,.47.7L607.5,896.1a.92.92,0,0,0,1.36-.7v-33a.79.79,0,0,0-.47-.7" transform="translate(-565.24 -849.59)"/><line class="cls-4" x1="43.15" y1="12.07" x2="22.42" y2="1.96"/><polyline class="cls-5" points="35.22 31.21 35.22 31.21 35.22 19.83"/></svg>