<svg id="图层_1" data-name="图层 1" xmlns="http://www.w3.org/2000/svg" xmlns:xlink="http://www.w3.org/1999/xlink" viewBox="0 0 70.19 75.71"><defs><style>.cls-1,.cls-2,.cls-5{fill:none;}.cls-1,.cls-4,.cls-7,.cls-9{stroke:#24408c;}.cls-1,.cls-2,.cls-4,.cls-5,.cls-7,.cls-9{stroke-miterlimit:10;}.cls-1,.cls-2,.cls-4,.cls-5{stroke-width:2.6px;}.cls-2{stroke:url(#未命名的渐变_29);}.cls-3,.cls-7,.cls-9{fill:#24408c;}.cls-4{fill:#fff;}.cls-5{stroke:url(#未命名的渐变_2);}.cls-6{fill:url(#未命名的渐变_2-2);}.cls-8{fill:url(#未命名的渐变_2-3);}.cls-9{stroke-width:0.6px;}</style><linearGradient id="未命名的渐变_29" x1="33.52" y1="49.2" x2="4.59" y2="49.2" gradientUnits="userSpaceOnUse"><stop offset="0" stop-color="#fff"/><stop offset="1" stop-color="#4ce4e5"/></linearGradient><linearGradient id="未命名的渐变_2" x1="943.29" y1="864.63" x2="922.11" y2="864.63" gradientTransform="translate(84.01 -81.87) rotate(5.26)" gradientUnits="userSpaceOnUse"><stop offset="0" stop-color="#fff"/><stop offset="1" stop-color="#24408c"/></linearGradient><linearGradient id="未命名的渐变_2-2" x1="925.25" y1="870.62" x2="931.78" y2="870.62" gradientTransform="matrix(0.99, 0.12, -0.12, 0.99, 112.29, -106.09)" xlink:href="#未命名的渐变_2"/><linearGradient id="未命名的渐变_2-3" x1="922.28" y1="865.34" x2="927.25" y2="865.34" gradientTransform="matrix(0.99, 0.12, -0.12, 0.99, 112.29, -106.09)" xlink:href="#未命名的渐变_2"/></defs><title>icon-non-custody</title><path class="cls-1" d="M896.6,889l-.07,14.89a1.78,1.78,0,0,0,1,1.46l30.31,17.5a3.86,3.86,0,0,0,.51.25h0l.09,0,.32.11.18,0,.1,0,.09,0,.35.06h.34l.35,0h.36l.39,0h.15l.3,0,.13,0,.36-.09.19,0,.08,0a4,4,0,0,0,.7-.31L963,905.32l0,0,.18-.13a2.77,2.77,0,0,0,.25-.18l0,0a2,2,0,0,0,.22-.24l0-.06,0-.06.06-.1a1.44,1.44,0,0,0,.09-.2v-.07a1.29,1.29,0,0,0,0-.13,1.22,1.22,0,0,0,0-.2v0l.07-14.89" transform="translate(-895.24 -849)"/><path class="cls-1" d="M896.61,889.13a1.68,1.68,0,0,1,1-1.61L927.75,870a5.52,5.52,0,0,1,5,0l30.31,17.5a1.74,1.74,0,0,1,1,1.53" transform="translate(-895.24 -849)"/><line class="cls-2" x1="32.87" y1="57.16" x2="5.24" y2="41.23"/><circle class="cls-3" cx="35.09" cy="58.08" r="2.2"/><path class="cls-4" d="M934.15,895.69l9.41-2.66a7.5,7.5,0,0,0,1-.39l.3-.15a7.88,7.88,0,0,0,.71-.41l.3-.2a8.65,8.65,0,0,0,.79-.63l.12-.1,0,0a9.85,9.85,0,0,0,.84-.89l0,0,.08-.11c.16-.2.32-.41.48-.63l.22-.35.13-.2.12-.18q.21-.35.4-.72l.13-.27.08-.17.13-.26q.15-.34.29-.7l.15-.4.05-.14.06-.17q.12-.34.23-.7t.21-.73v0q.09-.34.17-.69t.15-.74c0-.11,0-.23.06-.34l0-.15,0-.26q.06-.38.11-.76t.09-.79v-.05c0-.25,0-.5.06-.75s0-.55,0-.83c0-.1,0-.2,0-.3s0-.12,0-.18,0-.25,0-.37q0-.43,0-.86c0-.21,0-.42,0-.63,0,0,0-.08,0-.12s0-.08,0-.11q0-.42-.05-.85t-.07-.84l0-.16v-.13c0-.18,0-.35-.06-.53s-.07-.54-.11-.81-.06-.39-.09-.58l0-.1,0-.12q-.07-.41-.15-.82t-.18-.89l0-.13,0-.18c-.05-.24-.11-.48-.16-.72s-.16-.59-.24-.89l-.12-.46,0-.18c-.08-.26-.17-.52-.25-.78s-.23-.75-.36-1.12l-.06-.18q-.28-.81-.61-1.6h0q-.22-.53-.45-1.06l-.38-.84v0h0l-.41-.84-.42-.8-.07-.13-.08-.13-.31-.55-.48-.8-.15-.23-.12-.18-.24-.37-.52-.76-.24-.32-.12-.16-.18-.24-.54-.68-.4-.47-.07-.09-.07-.08-.53-.59-.54-.56-.13-.12-.41-.39-.54-.48-.35-.29-.09-.07-.1-.09-.54-.41-.55-.39-.1-.06-.08-.05-.38-.24-.58-.33-.28-.14-.12-.06-.18-.09-.64-.28-.39-.14-.14-.05-.13,0-.71-.21-.31-.06-.24,0-.25-.05a8.58,8.58,0,0,0-.91-.1h-.22a8,8,0,0,0-.92,0h-.11l-.15,0a7.51,7.51,0,0,0-1.12.22l-9.41,2.66" transform="translate(-895.24 -849)"/><path class="cls-4" d="M941.63,877l0,.31a28.07,28.07,0,0,1-.59,9.82c-2.49,9.62-10.3,11.75-17.43,4.77s-10.89-20.43-8.4-30c1.48-5.7,4.83-8.78,8.8-8.87q.38,0,.77,0" transform="translate(-895.24 -849)"/><path class="cls-5" d="M924.07,853c2.71-.05,5.71,1.28,8.6,4.1,4.92,4.81,8.23,12.69,9,20.27" transform="translate(-895.24 -849)"/><path class="cls-6" d="M932.08,869.32a2,2,0,0,0-.64-.89,1,1,0,0,0-.87-.2l-4.3,1.2a.85.85,0,0,0-.53.45,1.66,1.66,0,0,0,0,1.29,2,2,0,0,0,.64.9,1.13,1.13,0,0,0,.54.23.88.88,0,0,0,.33,0l4.3-1.2a.85.85,0,0,0,.53-.45A1.67,1.67,0,0,0,932.08,869.32Z" transform="translate(-895.24 -849)"/><path class="cls-7" d="M930.87,876.41c2.5,2.12,4.06,6.28,3.49,9.26s-2.85,3.62-5.23,1.83l-.33-.26a10.89,10.89,0,0,1-3.49-9.27,3.38,3.38,0,0,1,1.59-2.5l.29.77a1.3,1.3,0,0,0,.41.57.48.48,0,0,0,.4.11c.27-.08.35-.51.18-1l-.29-.77a4.12,4.12,0,0,1,2.66,1Zm2.35,8.29a8.14,8.14,0,0,0-2.61-6.92l-.25-.2c-1.78-1.34-3.5-.76-3.91,1.36a8.12,8.12,0,0,0,2.61,6.92l.25.2c1.77,1.33,3.5.77,3.92-1.36" transform="translate(-895.24 -849)"/><path class="cls-8" d="M928.2,864a2.05,2.05,0,0,0-.66-1,1,1,0,0,0-.8-.22l-2.66.5a.84.84,0,0,0-.57.42,1.58,1.58,0,0,0,0,1.28,2,2,0,0,0,.66,1,1.13,1.13,0,0,0,.54.23.93.93,0,0,0,.27,0l2.64-.51a.82.82,0,0,0,.57-.4A1.62,1.62,0,0,0,928.2,864Z" transform="translate(-895.24 -849)"/><path class="cls-9" d="M928.32,875.68l-1.72-4.56h0l-.36-1h0l-1.52-4h0l-.36-.95h0l-1.43-3.8a1.91,1.91,0,0,0-.22-.41v0a1.49,1.49,0,0,0-.31-.32h0a.84.84,0,0,0-.56-.17.56.56,0,0,0-.61.38,1,1,0,0,0-.08.23s0,0,0,.06a1.26,1.26,0,0,0,0,.21h0a1.69,1.69,0,0,0,.11.56l1.72,4.56h0l.36,1h0l1.52,4h0l.36.95h0l1.43,3.8a1.7,1.7,0,0,0,.54.75h0a.94.94,0,0,0,.45.19h.1a.72.72,0,0,0,.18,0,.71.71,0,0,0,.44-.37A1.39,1.39,0,0,0,928.32,875.68Z" transform="translate(-895.24 -849)"/></svg>