<?xml version="1.0" encoding="UTF-8"?>
<svg width="20px" height="20px" viewBox="0 0 20 20" version="1.1" xmlns="http://www.w3.org/2000/svg" xmlns:xlink="http://www.w3.org/1999/xlink">
    <title>6</title>
    <g id="控件" stroke="none" stroke-width="1" fill="none" fill-rule="evenodd">
        <g id="编组-30" transform="translate(-61.000000, -33.000000)" fill="#D4D9E0">
            <g transform="translate(-2.000000, -2.000000)" id="形状结合">
                <path d="M73.403092,39 C76.5711495,39 79.1486125,41.6915713 79.1486125,45 C79.1486125,48.3084287 76.5711495,51 73.403092,51 L73.403092,51 L70.237428,51 L70.237428,43.7862087 L71.696578,43.7862087 L71.696578,49.4854777 L73.403092,49.4854777 C75.7665696,49.4854777 77.6893978,47.4733812 77.6893978,45 C77.6893978,42.5266835 75.7665696,40.5144576 73.403092,40.5144576 L73.403092,40.5144576 L69.9254415,40.5144576 L69.9254415,39 Z M72.9820816,41.3569571 C74.8662268,41.3569571 76.3989909,42.9567372 76.3989909,44.9230351 C76.3989909,46.8893978 74.8662268,48.4892425 72.9820816,48.4892425 L72.9820816,48.4892425 L72.3837894,48.4892425 L72.3837894,46.9747202 L72.9820816,46.9747202 C74.0615822,46.9747202 74.9398409,46.0543502 74.9398409,44.9230351 C74.9398409,43.7918494 74.0615822,42.8714794 72.9820816,42.8714794 L72.9820816,42.8714794 L69.45915,42.8714794 L69.45915,49.0585549 L68,49.0585549 L68,41.3569571 Z"></path>
            </g>
        </g>
    </g>
</svg>