<svg id="图层_1" data-name="图层 1" xmlns="http://www.w3.org/2000/svg" viewBox="0 0 36.51 36.81"><defs><style>.cls-1{fill:#0e0d28;fill-rule:evenodd;}</style></defs><title>logo-USDx</title><path class="cls-1" d="M128.07,280.67H126.8v8.43c2.41.06,4.83-.11,6.39.07l-.1,5s-4.95.27-7,.29c-1.57,0-1,.89-.3,1a38.79,38.79,0,0,1,5.68,1.62c1.25.61,2,1.09,2.43,4.06s-.67,7.29-6.79,7.4h-.3v8.92h1.27a18.41,18.41,0,1,0,0-36.81Z" transform="translate(-109.97 -280.67)"/><path class="cls-1" d="M118.59,308.24l.2-5.07a65.19,65.19,0,0,0,7.71-.09c1.32-.18.61-.81.61-.81a33.6,33.6,0,0,1-6.09-1.62c-1.53-.8-3.29-2.4-2.33-7.63.5-2.7,3.27-3.75,6.39-3.9v-8.45H113.46a3.5,3.5,0,0,0-3.5,3.5V314a3.5,3.5,0,0,0,3.5,3.5h11.61v-8.94C120.55,308.41,118.59,308.24,118.59,308.24Z" transform="translate(-109.97 -280.67)"/></svg>