<svg id="图层_1" data-name="图层 1" xmlns="http://www.w3.org/2000/svg" viewBox="0 0 409.07 57.13"><defs><style>.cls-1{fill:#2e1a4e;}</style></defs><title>logo-defipulse</title><g id="Purple-else"><g id="Desktop"><path id="DeFi-Pulse" class="cls-1" d="M40.59,15.2a23.69,23.69,0,0,1,7.32,17.86c0,14-10.2,23.81-24.81,23.81H8.79L.46,48.54V1.06H15c7.83,0,14.41,2.81,18.89,7.52ZM8.35,8.55h-.1v1.67l7.12,7.06V15.57Zm8.23,6.79L9.79,8.55h-1l6.79,6.79Zm2.37,0L12.17,8.55H10.26L17,15.34ZM15.14,8.55H12.63l6.79,6.79h2.51Zm9.23,6.82L17.72,8.72c-.7-.1-1.37-.13-2.11-.17l6.79,6.79h.7C23.54,15.34,24,15.34,24.37,15.37Zm2.14.23L20,9.12c-.57-.13-1.17-.23-1.77-.33l6.62,6.62C25.44,15.44,26,15.54,26.51,15.6Zm1.94.47L22.13,9.75c-.47-.17-1-.33-1.47-.47l6.45,6.45C27.58,15.84,28,15.94,28.45,16.07Zm.74.23c.43.2.9.4,1.3.6l-6.15-6.15c-.43-.23-.9-.47-1.37-.67ZM8.25,23.43l1.2,1.2-.27.27L8.25,24V41.49h7.12V17.74l-7.12-7v1.64L15,19.12l-.27.23L8.25,12.9v1.67l5.62,5.65-.23.27L8.25,15.07v1.71l4.51,4.55-.23.27L8.25,17.28V19l3.41,3.44-.23.27L8.25,19.48v1.74l2.31,2.31-.27.27-2-2.07ZM30,15.9a14.84,14.84,0,0,0-4.45-4.45Zm10,0L37.21,13.1a25.61,25.61,0,0,1,3,11.9c0,.47,0,.94,0,1.37L47,33.23v-.17A23.06,23.06,0,0,0,39.92,15.87ZM16.31,41.45c9.73-.54,16-6.92,16-16.45a18.13,18.13,0,0,0-1.24-6.75c-2-1.4-4.38-2-8-2H16.31Zm22.44-7.86,7.09,7.09a26.12,26.12,0,0,0,1.14-7l-6.86-6.86A25.77,25.77,0,0,1,38.75,33.59Zm7,7.42-7.09-7.09a21.82,21.82,0,0,1-2.41,4.65l7.22,7.22A21.68,21.68,0,0,0,45.71,41Zm-5.22,8.39a20.28,20.28,0,0,0,2.74-3.34L36,38.88a20.17,20.17,0,0,1-2.84,3.24ZM30,44.63,37.35,52a24.49,24.49,0,0,0,2.91-2.31L33,42.36A19.7,19.7,0,0,1,30,44.63ZM26.81,46.4l7.32,7.32A30.38,30.38,0,0,0,37,52.15l-7.32-7.32A20.14,20.14,0,0,1,26.81,46.4Zm-3.14,1.17L31,54.86a25.94,25.94,0,0,0,2.84-1l-7.32-7.32A20.13,20.13,0,0,1,23.67,47.57Zm-3,.74,7.26,7.26q1.4-.25,2.71-.6l-7.26-7.26Q22,48.06,20.63,48.31Zm-.43.07a20,20,0,0,1-2.47.33l7.19,7.16c.87,0,1.71-.13,2.54-.23Zm1.94,7.56h1c.47,0,.9,0,1.34,0l-7.16-7.16c-.74,0-1.47.07-2.24.07h0ZM2.07,48.81l7.12,7.12h.47L2.57,48.81Zm1,0,7.12,7.12h.6L3.64,48.81Zm1.07,0,7.12,7.12H12L4.88,48.81Zm1.24,0,7.12,7.12h1L6.31,48.81Zm1.44,0,7.12,7.12h1.17L8,48.81Zm1.64,0,7.12,7.12h1.4L9.83,48.81Zm1.91,0,7.12,7.12h1.71L12,48.81Zm2.17,0,7.12,7.12h2l-7.16-7.12Zm72.23-7.26,8.33,8.33v7H60.89l-8.33-8.33V1.06h31.2l8.33,8.33V16H68.38l0,4.78H80l8.33,8.33V35.8H68.35v5.75ZM91.15,9.79,84,2.66V8.25L91.15,15ZM68.11,15,61,8.25h-.5L67.61,15Zm1.34,0L62.33,8.25h-.8L68.61,15Zm1.67,0L64,8.25H62.83L70,15Zm2,0L66,8.25H64.5L71.62,15Zm2.68,0L68.65,8.25H66.54L73.63,15Zm2.68,0L71.32,8.25H69.18L76.31,15Zm2.78,0L74.13,8.25H71.86L79,15Zm2.68,0L76.87,8.25H74.63L81.76,15Zm2.34,0L79.18,8.25H77.34L84.46,15Zm2,0L81.19,8.25H79.65L86.81,15Zm1.34,0L82.56,8.25h-.9L88.81,15Zm1,0L83.56,8.25H83L90.15,15ZM60.29,18l1.64,1.57-.27.23-1.37-1.3v2.24h7.12V15.3L60.29,8.51v1.4l6.19,5.92-.3.2-5.89-5.62V12l5,4.82L65,17l-4.75-4.58V14l3.91,3.75-.3.23-3.61-3.48V16l2.78,2.64-.27.23-2.51-2.41Zm19.93,4.35v5.72h0l7.16,6.79V29.48ZM67.64,34.87h.6l-7.12-6.79h-.6Zm-6-6.79,7.12,6.79h1.17l-7.09-6.79Zm1.71,0,7.09,6.79h1.84L65.1,28.08Zm2.31,0,7.12,6.79h2.51l-7.09-6.79Zm12.84,6.79-7.06-6.79H68.68l7.09,6.79Zm3.21,0-7.12-6.79H71.89L79,34.87Zm2.31,0-7.06-6.79H75.07l7.12,6.79Zm1.67,0-7.09-6.79H77.41l7.12,6.79ZM79,28.08l7.16,6.79h.6l-7.09-6.79ZM60.29,39.95l.87.84-.27.27-.6-.57v1.07h7.12V35.1l-7.12-6.79v1.47l6.19,6-.23.23-6-5.68v1.57l5.15,4.92-.27.23-4.88-4.68v1.54l4.08,3.91L64.1,38l-3.81-3.64V35.9l3,2.88L63,39,60.29,36.4v1.54l1.94,1.84L62,40l-1.67-1.61ZM85,43.16v5.65l7.12,7.12V50.28ZM57.41,48.81H54.17l7.12,7.12h3.24Zm3.38,0H57.88L65,55.93h2.94Zm.47,0,7.16,7.12H71l-7.16-7.12Zm3.08,0,7.16,7.12H73.8l-7.12-7.12Zm4.85,0h-2l7.12,7.12h2.07Zm9.43,7.12-7.12-7.12H69.65l7.16,7.12ZM72,48.81l7.12,7.12h1.61l-7.12-7.12Zm2.07,0,7.12,7.12h1.44l-7.16-7.12Zm1.87,0,7.16,7.12H84.3l-7.16-7.12Zm1.71,0,7.16,7.12h1.07l-7.16-7.12Zm1.54,0,7.16,7.12h.94l-7.16-7.12Zm1.4,0,7.16,7.12h.8l-7.16-7.12Zm1.27,0L89,55.93h.67l-7.12-7.12Zm1.17,0,7.12,7.12h.6l-7.16-7.12Zm1,0,7.16,7.12h.47L84.5,48.81ZM137.7,16.24H113.06v6.12h12.17l8.33,8.33v6.82h-20.5V56.87h-7.42l-8.33-8.33V1.06h32.07l8.33,8.33ZM129.64,2.66V8.51l7.09,6.79h0V9.79ZM112.32,15.3h.54l-7.12-6.79h-.47Zm1.84,0L107,8.51h-.74l7.06,6.79Zm1.71,0-7.16-6.79h-1.17l7.09,6.79Zm2.17,0-7.12-6.79h-1.67l7.09,6.79Zm3,0-7.12-6.79h-2.47l7.06,6.79Zm2.88,0L116.8,8.51h-2.37l7.12,6.79Zm3.14,0-7.12-6.79H117.3l7.12,6.79Zm3,0L123,8.51h-2.54l7.16,6.79Zm2.21,0-7.12-6.79h-1.67l7.09,6.79Zm1.71,0-7.12-6.79h-1.2l7.12,6.79Zm1.27,0-7.09-6.79h-.8l7.12,6.79Zm-6.59-6.79,7.09,6.79h.5l-7.09-6.79ZM105,22.36h7.12V15.57L105,8.75V9.89L111.35,16l-.23.23L105,10.39v1.54L110.31,17l-.27.27-5-4.88V14l4.28,4.11-.27.27-4-3.88V16l3.24,3.11-.23.23-3-2.88V18l2.21,2.11-.23.23-2-1.87v1.54l1.17,1.14-.23.23-.94-.9ZM125.5,24v5.82l7.12,6.79V31.09Zm-20.3,5.82,7.09,6.79H113l-7.12-6.79Zm1.14,0,7.09,6.79h1.14l-7.09-6.79Zm1.64,0L115,36.57h2.11L110,29.78Zm2.51,0,7.12,6.79h2.61l-7.09-6.79Zm3.14,0,7.06,6.79h3l-7.06-6.79Zm3.48,0,7.09,6.79h2.64l-7.12-6.79Zm3.08,0,7.16,6.79h2l-7.06-6.79Zm2.57,0,7.09,6.79H131l-7.09-6.79Zm1.61,0,7.12,6.79h.64L125,29.78ZM105,48.81l7.12,7.12V36.74l-.07.07L105,30.08v1.1l6.39,6.15-.23.23L105,31.69v1.54l5.35,5.15-.27.27L105,33.73v1.54l4.31,4.15-.27.27-4-3.91v1.54l3.28,3.14-.23.23-3-2.91v1.57l2.24,2.14-.23.23-2-1.91v1.57l1.2,1.14-.23.23-1-.94Zm-6.09,0L106,55.93h1.37l-7.09-7.12Zm3.08,0h-1.2l7.12,7.12h1.2Zm.47,0,7.16,7.12h.87l-7.09-7.12Zm1.4,0L111,55.93h.64l-7.09-7.12Zm45-47.75,8.33,8.33V56.87h-7.56l-8.33-8.33V1.06Zm.27,2.14,7.12,7.12V9.79l-7.12-7.12Zm0,1.44,7.12,7.12v-.94L149.14,3.7Zm0,2,7.12,7.12v-1.5L149.14,5.1Zm0,2.78,7.12,7.12V14.23l-7.12-7.12Zm0,3.78,7.12,7.12V17l-7.12-7.12Zm0,5.22,7.12,7.12V20.75l-7.12-7.12Zm0,30.43,7.12,7.12V26l-7.12-7.12Zm-4.68,0h-1.54L150,55.93h1.5Zm8.79,7.12-7.12-7.12h-1.2L152,55.93Zm-6.65-7.12,7.16,7.12h.87l-7.09-7.12Zm1.4,0,7.12,7.12h.64l-7.09-7.12Zm73.57-36.48a15.16,15.16,0,0,1,4.78,11.37c0,9.36-7.16,16.19-17.09,16.19h-8.49v17h-7.52l-8.33-8.33V1.06h16.85c5.89,0,10.6,2.11,13.14,4.65Zm-28.86,7.79.7.7-.27.27-.43-.43V25.3h6.79V15l-6.79-6.79V9.65l5.85,6-.23.23-5.62-5.68v1.61l4.82,4.88-.23.23-4.58-4.61v1.57l3.81,3.85-.27.23-3.54-3.58v1.57l2.78,2.81-.27.23-2.51-2.54V18l1.74,1.77-.27.23-1.47-1.47Zm7.62-5.45-6.42-6.45h-.74l6.49,6.49.3,0Zm1.5,0-6.45-6.45h-1l6.45,6.45Zm1.91,0-6.45-6.45h-1.44l6.45,6.45Zm2.21,0L199.5,8.21h-1.74l6.45,6.45Zm-4-6.45H200l6.45,6.45h1.94Zm8.36,6.45L204,8.41a12.42,12.42,0,0,0-1.61-.17l6.42,6.42Zm.7-.77L206,8.95a9.69,9.69,0,0,0-1.4-.4l6.19,6.19a1.63,1.63,0,0,1,.4,0A8.37,8.37,0,0,0,211,13.9Zm-.3-.77a7.62,7.62,0,0,0-3.78-3.81ZM220.9,13,218,10a15.88,15.88,0,0,1,1.34,6.29c0,.4,0,.8,0,1.17l6.15,5.58A14.41,14.41,0,0,0,220.9,13ZM201.57,25.3c5.79,0,9.83-3.58,9.83-8.66a8.15,8.15,0,0,0,0-.9,10.16,10.16,0,0,0-1.74-.13h-9.2v9.7Zm22.91,3.88a16.13,16.13,0,0,0,.94-5.48v-.17l-6.19-5.65a16,16,0,0,1-1.37,5.28Zm-6.79-5.72a14.27,14.27,0,0,1-2.24,3.34l6.89,6.25a15.4,15.4,0,0,0,2-3.54Zm2,12.17a16.17,16.17,0,0,0,2.44-2.34L215.22,27a16.06,16.06,0,0,1-2.54,2.21Zm-9.86-4.82L217,37.31a15.1,15.1,0,0,0,2.47-1.47l-7.06-6.39A20.48,20.48,0,0,1,209.83,30.82Zm-2.81,1,7.19,6.52a19.17,19.17,0,0,0,2.44-.87L209.5,31A21.52,21.52,0,0,1,207,31.79Zm-2.71.5,7.22,6.52q1.2-.15,2.31-.4l-7.19-6.55A18.06,18.06,0,0,1,204.31,32.29Zm4.58,6.65h.37c.6,0,1.2,0,1.77-.07l-7.19-6.52c-.67.07-1.37.1-2.07.13Zm-9.46-6.45,7.12,6.45h1.81l-7.09-6.45Zm.4,23.44v-17h0l-7.12-6.45h0V34.2l6.19,5.62-.27.23-5.92-5.38v1.77l5,4.55-.27.23-4.75-4.31v1.74l3.85,3.51-.23.23-3.61-3.28v1.77l2.68,2.44-.23.23-2.44-2.21v1.71l1.54,1.4-.23.27-1.3-1.17v5.25Zm-6.59-23.44,7.09,6.45h.74l-7.12-6.45Zm1.17,0,7.12,6.45h.9l-7.12-6.45Zm1.44,0,7.09,6.45h1.14L197,32.49Zm1.57,0,7.16,6.45h1.47L199,32.49Zm-10.9,16.32,7.12,7.12h1.47L188,48.81Zm3.18,0h-1.2l7.12,7.12h1.2Zm.47,0,7.16,7.12h.87l-7.09-7.12Zm1.4,0,7.12,7.12h.64l-7.09-7.12ZM270.59,1l8,8V35.43c0,13.38-8,22.14-20,22.14-6.39,0-11-1.81-15.11-6l-6.86-6.79c-3.78-3.71-5.82-9.3-5.82-16.45V1h7.52l8.33,8.33V36.17a20.87,20.87,0,0,0,.77,5.89,15.2,15.2,0,0,0,3.58.43c7.56,0,12.11-5.35,12.11-14.38V1ZM245.68,9.75l-7.12-7.12v.54l7.12,7.12ZM270.86,3.2,277.65,10V9.42l-6.79-6.75Zm-25.18,8.53v-.94l-7.12-7.12V4.6Zm25.18-7.09,6.79,6.79v-.94L270.86,3.7ZM245.68,13.7v-1.5l-7.12-7.12v1.5Zm25.18-7.09,6.79,6.79v-1.5L270.86,5.1Zm-25.18,9.86V14.2l-7.12-7.12V9.35Zm25.18-7.09,6.79,6.79V13.9l-6.79-6.79ZM245.68,20.25V16.94l-7.12-7.12v3.31Zm25.18-7.09L277.65,20V16.64l-6.79-6.79ZM245.68,25.47V20.72l-7.12-7.12v4.75Zm32-5-6.79-6.79v4.75l6.79,6.79Zm-39.09-1.61v9.3c0,7,2.88,11.8,7.79,13.61a23,23,0,0,1-.67-5.55V25.94Zm38,24.71a28,28,0,0,0,1.14-8.09v-9.8l-6.79-6.79v9.53a29.5,29.5,0,0,1-1.1,8.39Zm-6.89-6.42a18,18,0,0,1-2,4.45l6.72,6.72a19,19,0,0,0,2-4.41Zm2.14,14.45a17.36,17.36,0,0,0,2.41-3l-6.72-6.72a17.36,17.36,0,0,1-2.41,3ZM262.23,47,269,53.76a15.89,15.89,0,0,0,2.51-2L264.77,45A14.58,14.58,0,0,1,262.23,47Zm-2.78,1.4,6.82,6.82a16.91,16.91,0,0,0,2.44-1.27l-6.79-6.79A19,19,0,0,1,259.46,48.38Zm-19-.9L244.11,51a25.28,25.28,0,0,0,2.11,1.81l-4.88-4.88Zm2.64,1.07c-.33-.13-.67-.23-1-.37l5.62,5.62a16.43,16.43,0,0,0,1.47.84Zm13.61.67,6.86,6.86a19,19,0,0,0,2.34-.74l-6.82-6.82C258.32,48.78,257.52,49,256.72,49.21Zm-12.94-.47,6.32,6.32c.43.17.87.37,1.34.5l-6.49-6.49C244.54,49,244.18,48.88,243.77,48.74Zm1.84.5,6.55,6.55c.47.13.94.27,1.44.37L247,49.51C246.48,49.41,246,49.34,245.61,49.24Zm8.49.4L261,56.5a15.19,15.19,0,0,0,2.21-.37l-6.86-6.86A15.2,15.2,0,0,1,254.11,49.65Zm-6.62-.07,6.69,6.69c.54.1,1.07.17,1.61.23l-6.72-6.72A12.63,12.63,0,0,1,247.49,49.58Zm4.28.27,6.79,6.79a19,19,0,0,0,2-.1l-6.82-6.82C253.07,49.78,252.4,49.81,251.77,49.85Zm-2.21,0,6.72,6.72a15.9,15.9,0,0,0,1.81.1l-6.79-6.79h-.47C250.4,49.85,250,49.85,249.56,49.81Zm66.14-8.43L324,49.71v7.16H293.57l-8.33-8.33V1.06h7.52l8.33,8.33v32ZM300.15,9.79,293,2.66v.5l7.12,7.12Zm0,1.94v-.94L293,3.67V4.6Zm0,2v-1.5L293,5.07v1.5Zm0,2.78V14.2L293,7.08V9.35Zm0,3.78V16.94L293,9.82v3.31Zm0,5.22V20.72L293,13.6v4.75ZM293,41.39h7.12V25.94L293,18.81Zm30.06,14.55V50.11L316,43v5.82Zm-36.25-7.12L294,55.93h3.11l-7.16-7.12Zm3.54,0,7.16,7.12h2.81l-7.16-7.12Zm3.28,0,7.16,7.12h2.51l-7.16-7.12Zm3,0,7.16,7.12H306l-7.12-7.12Zm2.71,0,7.16,7.12h2l-7.12-7.12Zm2.47,0,7.12,7.12h1.77l-7.16-7.12Zm2.21,0,7.16,7.12h1.57l-7.16-7.12Zm2,0,7.16,7.12h1.37l-7.16-7.12Zm1.84,0,7.16,7.12h1.2l-7.12-7.12Zm1.71,0,7.12,7.12h1.07l-7.16-7.12Zm1.5,0,7.16,7.12h.9l-7.12-7.12Zm1.4,0,7.12,7.12h.8l-7.16-7.12Zm1.27,0,7.12,7.12h.67l-7.12-7.12Zm1.14,0,7.12,7.12h.57l-7.12-7.12Zm45-14.78a12.15,12.15,0,0,1,3.68,9.33c0,8.39-6.62,14.21-16.22,14.21-7,.13-12.14-1.91-15.38-4.38L323.8,45V37.07l.8-.33A20.33,20.33,0,0,0,338.44,42c4.35,0,7.86-1.57,9.23-3.95-5.22-2.54-11.34-3.95-14.78-8.33l-5-6.42c-2.41-3.08-3.58-5.32-3.58-9,0-8.23,6.55-13.88,16.12-13.88A24.21,24.21,0,0,1,353.69,4L362,12.23v7.49l-.74.37a21,21,0,0,0-12.11-4.35c-4.61,0-8.06,1.84-9,4.72,4.68,1.67,9.7,3.34,12.87,6.59ZM353.89,5.5v6.15h0L361,18.81V12.63ZM341.82,7.71a6.18,6.18,0,0,0-.77,0c-.5,0-1,0-1.5.07L346.77,15a14.61,14.61,0,0,1,2.14-.17Zm9.46,7.22L344.36,8a20.62,20.62,0,0,0-2.07-.3l7.09,7.09A18.25,18.25,0,0,1,351.28,14.94Zm-4.92.1-7.26-7.26a17.44,17.44,0,0,0-2.44.54L344,15.64A13,13,0,0,1,346.37,15Zm7.16.33-6.69-6.69A17.22,17.22,0,0,0,345,8.15L351.85,15A16.43,16.43,0,0,1,353.52,15.37Zm-9.86.4-7.32-7.32a7.49,7.49,0,0,0-2.44,1.37l7.39,7.39A9.76,9.76,0,0,1,343.66,15.77Zm12,.27-6.32-6.32c-.57-.27-1.17-.54-1.77-.77l6.59,6.59A13.23,13.23,0,0,1,355.67,16Zm-16.42,4.08A6.27,6.27,0,0,1,341,17.41L333.63,10a5.27,5.27,0,0,0-1.71,3.11l6.79,6.79Zm18.43-3.24-5.62-5.62a18.33,18.33,0,0,0-1.74-1l6.12,6.12C356.84,16.51,357.27,16.67,357.67,16.87ZM353.26,12l5.38,5.38a12,12,0,0,1,1.07.6l-6.15-6.15Zm-21.37,1.84c0,2.81,2.57,4.38,6.05,5.79l-6.05-6.05ZM334.36,30a16.09,16.09,0,0,0,4.78,3.28l-7.69-7.69c-.4-.23-.8-.47-1.17-.7A54.61,54.61,0,0,0,334.36,30Zm.43-2.81c-.8-.33-1.61-.7-2.34-1.07L340,33.69q1.1.5,2.31,1Zm.77.3L343.16,35c.6.27,1.2.5,1.81.77l-7.66-7.66C336.74,27.94,336.17,27.71,335.57,27.48Zm2.47.94,7.76,7.76c.5.2,1,.43,1.5.67l-7.93-8C338.94,28.75,338.48,28.58,338,28.41Zm10.07,8.73c0-.17.1-.33.13-.5l-7.06-7.09c-.33-.13-.7-.27-1-.37ZM342,29.85l6.32,6.32a1.91,1.91,0,0,0,0-.43v0l-5.48-5.48Zm6.32,5.35-.1-.5L344.46,31c-.23-.13-.5-.23-.77-.37Zm11-.5-3.78-3.78a12.52,12.52,0,0,1,.74,4.38,14.73,14.73,0,0,1-.2,2.44l6.62,6.62c0-.33,0-.67,0-1A11.13,11.13,0,0,0,359.28,34.7Zm-11.34-.77a6.38,6.38,0,0,0-2.37-2.34ZM362.62,44.8,356,38.14a13.17,13.17,0,0,1-1.71,4.25l7,7A13.19,13.19,0,0,0,362.62,44.8Zm-3.71,7.72a11.72,11.72,0,0,0,2.17-2.81l-7-7a12.53,12.53,0,0,1-2.31,2.68ZM349,47.24l7.26,7.29a14.73,14.73,0,0,0,2.44-1.77l-7.19-7.19A14.24,14.24,0,0,1,349,47.24Zm-21.7-.13,5.35,5.35a18.46,18.46,0,0,0,1.57,1.07l-6.05-6Zm18.89,1.34,7.29,7.29a14.93,14.93,0,0,0,2.47-1.07l-7.26-7.26A14.08,14.08,0,0,1,346.17,48.44ZM329,47.84l6.29,6.29c.37.17.74.37,1.14.54l-6.49-6.49Zm1.64.54L337.21,55c.4.13.84.3,1.27.43l-6.75-6.75Zm12.84.74,7.26,7.26a16.48,16.48,0,0,0,2.37-.54l-7.26-7.26C345.06,48.78,344.3,49,343.46,49.11Zm-11.1-.27,6.79,6.79c.47.13.94.27,1.44.37l-6.92-6.92C333.23,49,332.79,48.91,332.36,48.84Zm1.87.33,6.92,6.92c.54.1,1,.2,1.57.27l-7-7C335.2,49.31,334.73,49.24,334.23,49.18Zm16.05,7.26-7.22-7.26c-.7.13-1.44.2-2.17.27l7.19,7.19Q349.23,56.58,350.28,56.43Zm-14-7,7.06,7c.6.07,1.17.13,1.77.17L338,49.48C337.41,49.48,336.84,49.45,336.27,49.41Zm9.3,7.19c.6,0,1.24,0,1.84,0h.17l-7.16-7.19c-.37,0-.7,0-1.07,0h-.9Zm55.64-15,8.33,8.33v7H377.37L369,48.54V1.06h31.2l8.33,8.33V16H384.86l0,4.78h11.6l8.33,8.33V35.8H384.82v5.75Zm6.42-31.77-7.12-7.12V8.25L407.63,15Zm-23,5.25L377.5,8.25H377L384.09,15Zm1.34,0-7.12-6.79H378L385.09,15Zm1.67,0-7.12-6.79h-1.17L386.43,15Zm2,0-7.09-6.79H381L388.1,15Zm2.68,0-7.16-6.79H383L390.11,15ZM395,15,387.8,8.25h-2.14L392.78,15Zm2.78,0-7.12-6.79h-2.27L395.46,15Zm2.68,0-7.06-6.79h-2.24L398.23,15Zm2.34,0-7.09-6.79h-1.84L400.94,15Zm2,0-7.09-6.79h-1.54L403.28,15Zm1.34,0L399,8.25h-.9L405.29,15Zm1,0L400,8.25h-.54L406.63,15Zm-30.33,3,1.64,1.57-.27.23-1.37-1.3v2.24h7.12V15.3l-7.12-6.79v1.4L383,15.84l-.3.2-5.89-5.62V12l5,4.82-.3.23-4.75-4.58V14l3.91,3.75-.3.23-3.61-3.48V16l2.78,2.64-.27.23-2.51-2.41Zm19.93,4.35v5.72h0l7.16,6.79V29.48ZM384.12,34.87h.6l-7.12-6.79H377Zm-6-6.79,7.12,6.79h1.17l-7.09-6.79Zm1.71,0,7.09,6.79h1.84l-7.16-6.79Zm2.31,0,7.12,6.79h2.51l-7.09-6.79ZM395,34.87l-7.06-6.79h-2.74l7.09,6.79Zm3.21,0L391,28.08h-2.68l7.12,6.79Zm2.31,0-7.06-6.79h-1.87l7.12,6.79Zm1.67,0-7.09-6.79h-1.17L401,34.87Zm-6.62-6.79,7.16,6.79h.6l-7.09-6.79ZM376.77,39.95l.87.84-.27.27-.6-.57v1.07h7.12V35.1l-7.12-6.79v1.47l6.19,6-.23.23-6-5.68v1.57l5.15,4.92-.27.23-4.88-4.68v1.54l4.08,3.91-.27.23-3.81-3.64V35.9l3,2.88-.27.23-2.74-2.61v1.54l1.94,1.84-.27.23-1.67-1.61Zm24.71,3.21v5.65l7.12,7.12V50.28Zm-27.59,5.65h-3.24l7.12,7.12H381Zm3.38,0h-2.91l7.12,7.12h2.94Zm.47,0,7.16,7.12h2.61l-7.16-7.12Zm3.08,0L388,55.93h2.31l-7.12-7.12Zm4.85,0h-2l7.12,7.12h2.07Zm9.43,7.12L388,48.81h-1.84l7.16,7.12Zm-6.65-7.12,7.12,7.12h1.61L390,48.81Zm2.07,0,7.12,7.12h1.44l-7.16-7.12Zm1.87,0,7.16,7.12h1.24l-7.16-7.12Zm1.71,0,7.16,7.12h1.07l-7.16-7.12Zm1.54,0,7.16,7.12h.94l-7.16-7.12Zm1.4,0,7.16,7.12h.8l-7.16-7.12Zm1.27,0,7.16,7.12h.67L399,48.81Zm1.17,0,7.12,7.12h.6L400,48.81Zm1,0,7.16,7.12h.47L401,48.81Z" transform="translate(-0.46 -0.45)"/></g></g></svg>