<svg id="图层_1" data-name="图层 1" xmlns="http://www.w3.org/2000/svg" viewBox="0 0 732.53 851.08"><defs><style>.cls-1{fill:none;stroke:#070237;stroke-miterlimit:10;stroke-width:73.59px;}.cls-2{fill:#d5a24e;}</style></defs><title>32432</title><g id="_编组_" data-name="&lt;编组&gt;"><g id="_编组_2" data-name="&lt;编组&gt;"><path id="_路径_" data-name="&lt;路径&gt;" class="cls-1" d="M259.73,125.25h202c108.72,0,200.61,34.8,273.09,103.44S844.29,390.37,844.29,504.84c0,118.87-36.64,215.88-108.91,288.32C662.84,865.88,568.44,902.75,454.8,902.75H296.73v-588" transform="translate(-148.55 -88.46)"/></g><path id="_路径_2" data-name="&lt;路径&gt;" class="cls-2" d="M371.69,816h0c108.17,0,198.16-28.78,267.48-85.54,70.27-57.54,105.9-134.82,105.9-229.71,0-91.44-35.8-165.5-106.39-220.11-69.24-53.55-156.81-77.26-260.27-77.26H148.55V816h72.63V274.74H385.71c41.64,0,80.18,5.38,114.56,16,34,10.49,65,23,92.09,43.94,26.61,20.59,46.81,44.94,60,72.38,13.31,27.63,20.06,59.4,20.06,94.45,0,36.81-6.8,70.28-20.21,99.47-13.3,29-33.6,54.74-60.32,76.62-27,22.14-58.43,39-93.32,50.07-35.32,11.23-75.32,16.92-118.89,16.92l-8,.25Z" transform="translate(-148.55 -88.46)"/></g></svg>