<?xml version="1.0" encoding="UTF-8"?>
<svg width="93px" height="22px" viewBox="0 0 93 22" version="1.1" xmlns="http://www.w3.org/2000/svg" xmlns:xlink="http://www.w3.org/1999/xlink">
    <title>形状结合</title>
    <g id="确认" stroke="none" stroke-width="1" fill="none" fill-rule="evenodd">
        <g id="EN" transform="translate(-20.000000, -20.000000)" fill="#FFFFFF">
            <g id="编组-6" transform="translate(20.000000, 19.000000)">
                <path d="M9.90566876,1 C15.7137741,1 20.4391228,5.9345473 20.4391228,12 C20.4391228,18.0654527 15.7137741,23 9.90566876,23 L9.90566876,23 L4.1019514,23 L4.1019514,9.77471592 L6.77705975,9.77471592 L6.77705975,20.2233758 L9.90566876,20.2233758 C14.238711,20.2233758 17.7638959,16.5345322 17.7638959,12 C17.7638959,7.46558639 14.238711,3.7765056 9.90566876,3.7765056 L9.90566876,3.7765056 L3.52997607,3.7765056 L3.52997607,1 Z M76.2390924,8.72807036 C77.0190646,8.72807036 77.7602931,8.87568166 78.4421598,9.16682597 C78.9871937,9.39957959 79.4837042,9.70682435 79.9219178,10.0819969 L80.1361213,10.2752135 L80.28985,10.4212388 L78.3978651,12.3132237 L78.2519531,12.1784137 C77.6944741,11.6626238 77.0171387,11.401047 76.2390924,11.401047 C75.4439399,11.401047 74.7349978,11.6932109 74.131638,12.2693821 C73.5580724,12.8428345 73.2655686,13.5522297 73.2655686,14.374684 C73.2655686,15.1828644 73.5573927,15.8844429 74.1326576,16.4598211 C74.4208565,16.7477934 74.7472326,16.9665481 75.1028365,17.1100812 C75.4590069,17.253954 75.8412329,17.32691 76.2390924,17.32691 C76.9500396,17.32691 77.5695007,17.1156752 78.0840142,16.6986562 L78.2516133,16.5520357 L78.397412,16.4143935 L80.28985,18.3067183 L80.1361213,18.4528569 C79.6474067,18.9171018 79.0775795,19.2900384 78.4421598,19.5612444 C77.7601798,19.8522754 77.0189513,20 76.2390924,20 C75.4591201,20 74.7178916,19.8522754 74.0359116,19.5612444 C73.3552909,19.2707798 72.7509116,18.8641973 72.2395398,18.3529388 C71.7281681,17.8415671 71.3216989,17.2371877 71.0312343,16.5565671 C70.7402033,15.8754933 70.592592,15.1411753 70.592592,14.374684 C70.592592,13.5939188 70.7402033,12.852577 71.0312343,12.17139 C71.3215856,11.4907693 71.7281681,10.88639 72.2395398,10.3750182 C72.7504585,9.8642129 73.3547245,9.45774372 74.0359116,9.16671269 C74.7178916,8.87556838 75.4591201,8.72807036 76.2390924,8.72807036 Z M87.0347122,8.72803638 C87.8146844,8.72803638 88.5560262,8.87564768 89.2380062,9.16679199 C89.9194199,9.4579363 90.5236859,9.86440548 91.034378,10.3749842 C91.5451833,10.8856763 91.9516525,11.4901689 92.2426835,12.171356 C92.5337145,12.8533361 92.6813258,13.5946778 92.6813258,14.3746501 C92.6813258,14.6837502 92.657812,14.9833555 92.61131,15.2689258 L92.5571647,15.5496496 L92.5211398,15.7110818 L84.3745368,15.7110818 C84.5085538,15.9865926 84.6940025,16.2376338 84.9272578,16.4583144 C85.2176091,16.748779 85.5429657,16.9667407 85.8985696,17.1100472 C86.2549665,17.25392 86.6370793,17.3267628 87.0347122,17.3267628 C87.4964324,17.3267628 87.9214481,17.2378728 88.3009843,17.0621617 L88.4869219,16.9670806 L88.573019,16.9185943 L91.3401361,18.0252825 L91.1365617,18.2458498 C90.6510191,18.7717222 90.06975,19.1926919 89.4087278,19.497204 C88.6841523,19.8308304 87.885488,19.999966 87.0347122,19.999966 C86.2550798,19.999966 85.5138513,19.8523547 84.8316447,19.5610971 C84.151024,19.2708591 83.5466447,18.8642766 83.0353862,18.3529049 C82.5240144,17.8416464 82.1175453,17.2371538 81.8270807,16.5566464 C81.5359364,15.8753461 81.3884383,15.1412546 81.3884383,14.3746501 C81.3884383,13.5938848 81.5359364,12.8526563 81.8269674,12.1714693 C82.117432,11.4908486 82.5240144,10.8864693 83.0353862,10.3749842 C83.545965,9.86440548 84.1503443,9.4579363 84.8316447,9.1666787 C85.5138513,8.87564768 86.2549665,8.72803638 87.0347122,8.72803638 Z M9.13381633,5.32108804 C12.5880825,5.32108804 15.3981499,8.25401816 15.3981499,11.8588977 C15.3981499,15.4638959 12.5880825,18.3969446 9.13381633,18.3969446 L9.13381633,18.3969446 L8.03694719,18.3969446 L8.03694719,15.6203204 L9.13381633,15.6203204 C11.1129008,15.6203204 12.7230416,13.9329754 12.7230416,11.8588977 C12.7230416,9.78505725 11.1129008,8.09771223 9.13381633,8.09771223 L9.13381633,8.09771223 L2.67510835,8.09771223 L2.67510835,19.440684 L0,19.440684 L0,5.32108804 Z M37.2718164,4 L37.2718164,18.9480514 L34.5988397,18.9480514 L34.5988397,13.5973401 C34.5988397,12.7617445 34.3072422,12.0532556 33.7322039,11.4916983 C33.1558061,10.9151872 32.4546808,10.6238163 31.6463871,10.6238163 C30.8242726,10.6238163 30.1155571,10.9156404 29.5401789,11.4910186 C28.9648007,12.06651 28.6729767,12.7751123 28.6729767,13.5973401 C28.6729767,14.4055204 28.9648007,15.1069856 29.5401789,15.6824771 C29.8154632,15.9716956 30.1369681,16.1893174 30.4992559,16.3326239 C30.8624499,16.4767233 31.2484144,16.5496793 31.6463871,16.5496793 C31.9258856,16.5496793 32.1913186,16.515313 32.4381039,16.4473343 L32.6196248,16.3900597 L32.8067728,16.3233345 L33.7638106,18.7049402 L33.5852723,18.7871857 C32.9577827,19.0761776 32.2344533,19.222656 31.4351092,19.222656 C30.655137,19.222656 29.9243308,19.0750447 29.263082,18.7836738 C28.602513,18.4927561 28.0227166,18.0857205 27.5398929,17.5742354 C27.0571824,17.0633168 26.6757493,16.4588242 26.4061293,15.7776371 C26.1366226,15.0966766 26,14.3632648 26,13.5973401 C26,12.8173678 26.1366226,12.0768191 26.4062426,11.3958586 C26.6755228,10.7151246 27.0568425,10.1105187 27.5400061,9.59914696 C28.0223768,9.08822834 28.6019465,8.68130601 29.2628555,8.38982184 C29.9242175,8.09845096 30.6550237,7.95083966 31.4351092,7.95083966 C32.1165229,7.95083966 32.7363091,8.05914081 33.2773617,8.27257112 C33.6697834,8.42754599 34.032334,8.61485714 34.3598512,8.83160445 L34.5988397,8.9996389 L34.5988397,4 L37.2718164,4 Z M55.4779086,7.95087365 C56.2578808,7.95087365 56.9991093,8.09837166 57.6810894,8.38962926 C58.362503,8.68066029 58.9668823,9.08724275 59.4774611,9.59782152 C59.9882664,10.1085136 60.3947356,10.7128929 60.6857666,11.3941933 C60.9767977,12.0762866 61.124409,12.8174018 61.124409,13.597374 C61.124409,14.3631855 60.9767977,15.0973903 60.6857666,15.7792571 C60.3946223,16.460784 59.9881531,17.0650501 59.4774611,17.5757421 C58.9660893,18.0871139 58.36171,18.4934698 57.6810894,18.7840477 C56.9991093,19.0750787 56.2577675,19.22269 55.4779086,19.22269 C54.6980496,19.22269 53.9568211,19.0750787 53.2748411,18.7839344 C52.5942204,18.4934698 51.9898411,18.0871139 51.4784693,17.5757421 C50.9672109,17.0643704 50.5606284,16.459991 50.2702771,15.7792571 C49.9791328,15.0981833 49.8314082,14.3639785 49.8314082,13.597374 C49.8314082,12.8166088 49.9791328,12.0753803 50.2701638,11.3941933 C50.5605151,10.7136859 50.9670976,10.1091933 51.4784693,9.59782152 C51.9890481,9.08724275 52.5934274,8.68066029 53.2748411,8.38951597 C53.9568211,8.09837166 54.6980496,7.95087365 55.4779086,7.95087365 Z M49.7578744,4.02111646 L49.7578744,6.69420643 L42.3421909,6.69420643 L42.3421909,10.1480616 L47.8413065,10.1480616 L48.5096923,12.8210383 L42.3421909,12.8210383 L42.3421909,18.9479834 L39.6692142,18.9479834 L39.6692142,4.02111646 L49.7578744,4.02111646 Z M69.5097164,7.9260754 L69.5097164,10.5976927 L68.4047274,10.6051695 C67.6380096,10.6341707 66.9730224,10.9252017 66.4282314,11.4698794 C65.9061902,12.0170495 65.6167124,12.6533501 65.5683944,13.3615885 L65.5611424,13.5762009 L65.5611424,18.9479834 L62.8880525,18.9479834 L62.8880525,8.22548957 L65.5611424,8.22548957 L65.5611424,8.9752145 C65.9317,8.68803519 66.3501775,8.44515059 66.8070588,8.25211172 C67.1965729,8.08737539 67.631716,7.98502489 68.1038998,7.94676473 L68.3915863,7.93151311 L69.5097164,7.9260754 Z M55.4779086,10.6238503 C54.6556808,10.6238503 53.9471919,10.9155611 53.3715871,11.4910526 C52.7962089,12.066544 52.5044982,12.7751462 52.5044982,13.597374 C52.5044982,14.4055544 52.7962089,15.1070196 53.3715871,15.6825111 C53.6469847,15.9717295 53.9686029,16.1893514 54.3307773,16.3326579 C54.6938581,16.4767573 55.0799358,16.5496 55.4779086,16.5496 C55.8754282,16.5496 56.2577675,16.4767573 56.6142777,16.3327712 C56.9699949,16.1891249 57.2964843,15.9703701 57.5843433,15.6825111 C58.1596083,15.1071329 58.4514323,14.4056677 58.4514323,13.597374 C58.4514323,12.775033 58.1596083,12.0664307 57.5843433,11.4910526 C56.9825696,10.9168072 56.2727212,10.6238503 55.4779086,10.6238503 Z M87.0347122,11.4011263 C86.2398995,11.4011263 85.5308442,11.6931769 84.9274844,12.2694614 C84.7418771,12.4549781 84.5854159,12.657823 84.461349,12.8737619 L84.3744235,13.0381051 L89.6951141,13.0381051 C89.5605307,12.7606683 89.3746288,12.502037 89.1411469,12.2682153 C88.565882,11.6928371 87.8571665,11.4011263 87.0347122,11.4011263 Z" id="形状结合"></path>
            </g>
        </g>
    </g>
</svg>