<svg id="图层_1" data-name="图层 1" xmlns="http://www.w3.org/2000/svg" viewBox="0 0 72.26 48.88"><defs><style>.cls-1{fill:#29bb92;}.cls-2{fill:#345af7;}</style></defs><title>logo-X-Swap</title><path class="cls-1" d="M484.79,389.9c-.67-.49-1.35-1-2-1.49-2.23-1.71-2.78-4.19-1.36-6.15s4.05-2.14,6.28-.52c3.56,2.59,7.09,5.2,10.64,7.8s7.23,5.27,10.86,7.89c6.3,4.56,6.41,11,.13,15.48-7.33,5.25-14.75,10.38-22.16,15.53-2.4,1.67-4.78,1.34-6.18-.72s-.73-4.41,1.61-6.06c6.74-4.78,13.51-9.52,20.26-14.29,2.26-1.6,2.26-2.66,0-4.29q-7.69-5.65-15.4-11.28C486.68,391,485.62,390.62,484.79,389.9Z" transform="translate(-480.28 -380.65)"/><path class="cls-2" d="M518.92,404.69a7.55,7.55,0,0,1,3.1-5.95c7.75-5.71,15.5-11.41,23.32-17,2.3-1.66,4.68-1.31,6.06.58s.93,4.37-1.42,6.1c-6.53,4.82-13.09,9.57-19.64,14.36-2.7,2-2.72,3,0,4.95,6.32,4.45,12.66,8.87,19,13.31a17.75,17.75,0,0,1,1.64,1.22,4.08,4.08,0,0,1,.74,5.7,4,4,0,0,1-5.5.9c-3.36-2.2-6.62-4.55-9.91-6.86q-6.7-4.7-13.39-9.42A9,9,0,0,1,518.92,404.69Z" transform="translate(-480.28 -380.65)"/></svg>