<svg id="图层_1" data-name="图层 1" xmlns="http://www.w3.org/2000/svg" xmlns:xlink="http://www.w3.org/1999/xlink" viewBox="0 0 142.45 142.45"><defs><style>.cls-1{fill:url(#未命名的渐变_11);}.cls-2{fill:#30284f;}</style><linearGradient id="未命名的渐变_11" x1="433.82" y1="166.07" x2="508.02" y2="166.07" gradientUnits="userSpaceOnUse"><stop offset="0" stop-color="#a166ff"/><stop offset="1" stop-color="#7878ff"/></linearGradient></defs><title>logo-lendf.me</title><path class="cls-1" d="M504.41,129h-67a3.61,3.61,0,0,0-3.61,3.61V155a3.61,3.61,0,0,0,3.61,3.61h39.63a1.28,1.28,0,0,1,1.28,1.28v39.63a3.61,3.61,0,0,0,3.61,3.61h22.46a3.61,3.61,0,0,0,3.61-3.61v-67A3.61,3.61,0,0,0,504.41,129Z" transform="translate(-365.56 -128.98)"/><path class="cls-2" d="M500.5,226.91H411.36a1.28,1.28,0,0,1-1.28-1.28V136.49a3.61,3.61,0,0,0-5.87-2.82l-37.29,29.83a3.61,3.61,0,0,0-1.36,2.82V267.82a3.61,3.61,0,0,0,3.61,3.61H470.67a3.61,3.61,0,0,0,2.82-1.36l29.83-37.29A3.61,3.61,0,0,0,500.5,226.91Z" transform="translate(-365.56 -128.98)"/></svg>