<svg id="图层_1" data-name="图层 1" xmlns="http://www.w3.org/2000/svg" viewBox="0 0 68 68"><defs><style>.cls-1,.cls-3{fill:#01bfc9;}.cls-2{fill:#fff;}.cls-3{stroke:#01bfc9;stroke-miterlimit:10;stroke-width:0.25px;}</style></defs><title>nst</title><circle class="cls-1" cx="34" cy="34" r="34"/><circle class="cls-2" cx="34.23" cy="33.77" r="26.51"/><path class="cls-3" d="M272.51,459v2.1a3.88,3.88,0,0,1-.92.11,4.66,4.66,0,0,1-1.07-.12,3.92,3.92,0,0,1-.49-.15,4.14,4.14,0,0,1-.44-.21,4,4,0,0,1-1.74-2,4,4,0,0,1-.32-1.59,4,4,0,0,1,2-3.49,4,4,0,0,1,2-.53,3.75,3.75,0,0,1,1,.12v2.09a3.93,3.93,0,0,0-.48-.12,2.33,2.33,0,0,0-.44,0,2,2,0,0,0-1,.26,2,2,0,0,0-.73,2.71,1.82,1.82,0,0,0,.74.71,2.09,2.09,0,0,0,1,.26A2.94,2.94,0,0,0,272.51,459Z" transform="translate(-254.26 -427.81)"/><path class="cls-3" d="M273.14,457.17a4,4,0,0,1,6-3.48,4,4,0,0,1,1.47,1.47,4,4,0,0,1-1.47,5.5,3.91,3.91,0,0,1-2,.54,4,4,0,0,1-4-4Zm2.06,0a1.91,1.91,0,0,0,.27,1,2,2,0,0,0,.71.71,1.95,1.95,0,0,0,2,0,2,2,0,0,0,.72-.71,2,2,0,0,0,0-2,2,2,0,0,0-.72-.71,2,2,0,0,0-2,0,2,2,0,0,0-.71.71A1.91,1.91,0,0,0,275.2,457.17Z" transform="translate(-254.26 -427.81)"/><path class="cls-3" d="M284.15,456.55V461h-2.07v-4.68a4.32,4.32,0,0,1,.09-.9,2.75,2.75,0,0,1,.25-.73,3.16,3.16,0,0,1,.45-.63,3,3,0,0,1,1-.71,3.06,3.06,0,0,1,1.21-.25,3,3,0,0,1,1.72.54,3,3,0,0,1,1.73-.54,3.11,3.11,0,0,1,.88.12,3,3,0,0,1,.82.39,3.23,3.23,0,0,1,.67.6,3,3,0,0,1,.38.58,2.63,2.63,0,0,1,.21.66,4.22,4.22,0,0,1,.07.79V461h-2.06v-4.73a1.45,1.45,0,0,0-.14-.74.71.71,0,0,0-.28-.27.89.89,0,0,0-.4-.1.77.77,0,0,0-.69.4,1.64,1.64,0,0,0-.13.78V461h-2.06v-4.66a1.73,1.73,0,0,0-.13-.78.75.75,0,0,0-.29-.29.8.8,0,0,0-.41-.1.78.78,0,0,0-.48.14.68.68,0,0,0-.27.39,2.33,2.33,0,0,0-.06.49v.1a.63.63,0,0,0,0,.1Z" transform="translate(-254.26 -427.81)"/><path class="cls-3" d="M294.83,461h-2.07V453.3h2.07Z" transform="translate(-254.26 -427.81)"/><path class="cls-3" d="M298.09,456.42V461H296v-4.62a4.25,4.25,0,0,1,.2-1.37,2.7,2.7,0,0,1,.64-1,2.88,2.88,0,0,1,2.16-.9,3.11,3.11,0,0,1,1.26.26,3,3,0,0,1,1.58,1.73,4.19,4.19,0,0,1,.17,1.29V461H300v-4.82a1.14,1.14,0,0,0-.23-.77.88.88,0,0,0-.68-.26.9.9,0,0,0-.69.28,1.07,1.07,0,0,0-.27.75Z" transform="translate(-254.26 -427.81)"/><path class="cls-3" d="M307,459.1v-2.55h2V461l-.62.1-.61.07-.6,0A4.17,4.17,0,0,1,304,460a3.82,3.82,0,0,1-.82-1.26,4,4,0,0,1-.28-1.49,4.12,4.12,0,0,1,.12-1,4.2,4.2,0,0,1,.36-.92,4.29,4.29,0,0,1,.57-.82,3.94,3.94,0,0,1,.71-.62,3.73,3.73,0,0,1,1.16-.53,5.76,5.76,0,0,1,1.45-.16q.43,0,.81,0l.9.12v2.08a5.56,5.56,0,0,0-1.49-.2,2.91,2.91,0,0,0-1.8.49,1.64,1.64,0,0,0-.51.65,1.94,1.94,0,0,0-.19.84,2,2,0,0,0,.25,1,2.23,2.23,0,0,0,.2.31,1.71,1.71,0,0,0,.22.23l.24.18a1.69,1.69,0,0,0,.48.2A2.71,2.71,0,0,0,307,459.1Z" transform="translate(-254.26 -427.81)"/><path class="cls-3" d="M275.41,474.27v-1.92a1.68,1.68,0,0,0,.73.19,1,1,0,0,0,.61-.17.5.5,0,0,0,.24-.43,1.46,1.46,0,0,0-.32-.74l-.43-.65a4.9,4.9,0,0,1-.26-.45,2.78,2.78,0,0,1-.31-1.24,2.37,2.37,0,0,1,.33-1.25,2.32,2.32,0,0,1,.93-.87,2.78,2.78,0,0,1,1.32-.32l.43,0a2.94,2.94,0,0,1,.43.09v1.95a1.63,1.63,0,0,0-.5-.1.9.9,0,0,0-.58.18.6.6,0,0,0-.23.48,2.06,2.06,0,0,0,.41,1,11.69,11.69,0,0,1,.66,1.09,2.61,2.61,0,0,1,.23,1.08,2.25,2.25,0,0,1-.31,1.19,2.07,2.07,0,0,1-.88.81,3,3,0,0,1-1.32.28A3.93,3.93,0,0,1,275.41,474.27Z" transform="translate(-254.26 -427.81)"/><path class="cls-3" d="M279.85,470.44a4,4,0,0,1,6-3.48,4,4,0,0,1,1.47,1.47,4,4,0,0,1-1.47,5.5,3.91,3.91,0,0,1-2,.54,4,4,0,0,1-4-4Zm2.06,0a1.91,1.91,0,0,0,.27,1,2,2,0,0,0,.71.71,1.95,1.95,0,0,0,2,0,2,2,0,0,0,.72-.71,2,2,0,0,0,0-2,2,2,0,0,0-.72-.71,2,2,0,0,0-2,0,2,2,0,0,0-.71.71A1.91,1.91,0,0,0,281.91,470.44Z" transform="translate(-254.26 -427.81)"/><path class="cls-3" d="M288.52,470.44a4,4,0,0,1,6-3.48,4,4,0,0,1,1.47,1.47,4,4,0,0,1-1.47,5.5,3.91,3.91,0,0,1-2,.54,4,4,0,0,1-4-4Zm2.06,0a1.91,1.91,0,0,0,.27,1,2,2,0,0,0,.71.71,1.95,1.95,0,0,0,2,0,2,2,0,0,0,.72-.71,2,2,0,0,0,0-2,2,2,0,0,0-.72-.71,2,2,0,0,0-2,0,2,2,0,0,0-.71.71A1.91,1.91,0,0,0,290.58,470.44Z" transform="translate(-254.26 -427.81)"/><path class="cls-3" d="M299.53,469.7v4.62h-2.07V469.7a4.25,4.25,0,0,1,.2-1.37,2.7,2.7,0,0,1,.64-1,2.88,2.88,0,0,1,2.16-.9,3.11,3.11,0,0,1,1.26.26,3,3,0,0,1,1.58,1.73,4.19,4.19,0,0,1,.17,1.29v4.62H301.4V469.5a1.14,1.14,0,0,0-.23-.77.88.88,0,0,0-.68-.26.9.9,0,0,0-.69.28,1.07,1.07,0,0,0-.27.75Z" transform="translate(-254.26 -427.81)"/></svg>