<svg id="图层_1" data-name="图层 1" xmlns="http://www.w3.org/2000/svg" viewBox="0 0 131.21 23.76"><defs><style>.cls-1{fill:#29aeff;}.cls-2{fill:#2761e7;}.cls-3{fill:#222;}</style></defs><title>p100</title><g id="_编组_2" data-name=" 编组 2"><path id="_路径_" data-name=" 路径 " class="cls-1" d="M12.7,20.85V15.56H2.91a.34.34,0,0,0-.34.34h0v7.47h0a.34.34,0,0,0,.34.34H6.65V37.29h0a.34.34,0,0,0,.34.34H13.1a.34.34,0,0,0,.34-.34h0V20.85Z" transform="translate(-2.57 -13.86)"/><path id="_路径_2" data-name=" 路径 2" class="cls-2" d="M19.51,13.86H10.71a.34.34,0,0,0-.34.34h0V35.59h0a.34.34,0,0,0,.34.34h6.11a.34.34,0,0,0,.34-.34h0V30.16h2.35a8.15,8.15,0,0,0,0-16.3Z" transform="translate(-2.57 -13.86)"/></g><g id="_编组_3" data-name=" 编组 3"><polygon id="_路径_3" data-name=" 路径 3" class="cls-3" points="32.64 6.75 30.66 6.75 30.66 8.93 32.64 8.93 32.64 17 34.81 17 34.81 8.93 36.79 8.93 36.79 6.75 34.81 6.75 32.64 6.75"/><polygon id="_路径_4" data-name=" 路径 4" class="cls-3" points="60.2 6.75 58.03 6.75 58.03 6.75 58.03 8.93 58.03 10.79 58.03 12.96 58.03 14.84 58.03 17 58.03 17.02 64.16 17.02 64.16 14.84 60.2 14.84 60.2 12.96 64.16 12.96 64.16 10.79 60.2 10.79 60.2 8.93 64.16 8.93 64.16 6.75 60.2 6.75 60.2 6.75"/><rect id="_路径_5" data-name=" 路径 5" class="cls-3" x="48.79" y="6.74" width="2.17" height="10.26"/><polygon id="_路径_6" data-name=" 路径 6" class="cls-3" points="56.78 6.75 54.87 6.75 54.61 6.75 50.97 11.88 54.61 17.02 54.87 17.02 56.78 17.02 57.04 17.02 53.41 11.88 57.04 6.75 56.78 6.75"/><polygon id="_路径_7" data-name=" 路径 7" class="cls-3" points="71.23 12.91 67.32 6.75 67.32 6.75 65.15 6.75 65.15 17.02 67.32 17.02 67.32 10.85 71.23 17.02 73.4 17.02 73.4 6.75 71.23 6.75 71.23 12.91"/><path id="_复合路径_" data-name=" 复合路径 " class="cls-3" d="M45.12,20.5a5.25,5.25,0,1,0,5.25,5.25h0A5.25,5.25,0,0,0,45.12,20.5Zm0,8.33a3.08,3.08,0,1,1,3.08-3.08,3.08,3.08,0,0,1-3.08,3.08Z" transform="translate(-2.57 -13.86)"/><polygon id="_路径_8" data-name=" 路径 8" class="cls-3" points="131.21 6.75 129.23 6.75 127.06 6.75 125.08 6.75 125.08 8.93 127.06 8.93 127.06 17 129.23 17 129.23 8.93 131.21 8.93 131.21 6.75"/><polygon id="_路径_9" data-name=" 路径 9" class="cls-3" points="119.82 6.75 117.65 6.75 117.65 6.75 117.65 8.93 117.65 10.79 117.65 12.96 117.65 14.84 117.65 17 117.65 17.02 123.78 17.02 123.78 14.84 119.82 14.84 119.82 12.96 123.78 12.96 123.78 10.79 119.82 10.79 119.82 8.93 123.78 8.93 123.78 6.75 119.82 6.75 119.82 6.75"/><rect id="_路径_10" data-name=" 路径 10" class="cls-3" x="107.92" y="6.74" width="2.17" height="10.26"/><polygon id="_路径_11" data-name=" 路径 11" class="cls-3" points="115.91 6.75 114 6.75 113.74 6.75 110.1 11.88 113.74 17.02 114 17.02 115.91 17.02 116.17 17.02 112.54 11.88 116.17 6.75 115.91 6.75"/><path id="_复合路径_2" data-name=" 复合路径 2" class="cls-3" d="M93.75,20.5A5.25,5.25,0,1,0,99,25.75h0A5.25,5.25,0,0,0,93.75,20.5Zm0,8.33a3.08,3.08,0,1,1,3.08-3.08,3.08,3.08,0,0,1-3.08,3.08Z" transform="translate(-2.57 -13.86)"/><path id="_路径_12" data-name=" 路径 12" class="cls-3" d="M104.71,22.68a3.06,3.06,0,0,1,2.27,1h2.57a5.25,5.25,0,1,0,0,4.13H107a3.08,3.08,0,1,1-2.27-5.15Z" transform="translate(-2.57 -13.86)"/><path id="_复合路径_3" data-name=" 复合路径 3" class="cls-3" d="M84.1,20.62H80.37V30.88h2.18v-2.8h1.56a3.73,3.73,0,1,0,0-7.46ZM84,26.17H82.55V22.79H84a1.69,1.69,0,0,1,0,3.38h0Z" transform="translate(-2.57 -13.86)"/></g></svg>