<svg id="图层_1" data-name="图层 1" xmlns="http://www.w3.org/2000/svg" viewBox="0 0 772.34 201.55"><defs><style>.cls-1{fill:#fd997f;}.cls-2{fill:#fe6238;}.cls-3{fill:#de866f;}.cls-4{fill:#19233c;}.cls-5{fill:#757b8a;}.cls-6{fill:#7c8290;}.cls-7{fill:#767c8b;}.cls-8{fill:#7a808e;}.cls-9{fill:#787e8d;}.cls-10{fill:#de876f;}.cls-11{fill:#fefefe;}.cls-12{fill:#fdfdfd;}.cls-13{fill:#fbfbfb;}.cls-14{fill:#fafafb;}.cls-15{fill:#fcfcfc;}.cls-16{fill:none;isolation:isolate;}</style></defs><title>logo-debank2</title><path class="cls-1" d="M125.19.22c7.15,2,14.41,3.42,21.13,6.87A59.74,59.74,0,0,1,165.95,98c-1.63,2-1.94,3.27-.17,5.48,29.39,36.81,8.27,90-39,97.52-1.8.29-3.65.25-5.47.37-1.78.62-3.63.31-5.44.31q-44.39,0-88.76,0c-1-.1-2.79.14-1.44-1.68.92-1.24,2.72-1,4.17-1.28,20.78-3.64,39.73-11.5,56.49-24.46,5.4-4.17,9.33-9.9,15-13.77,5.59-1.3,11.27-.34,16.91-.66,14.69-.84,23-14.68,16.51-27.44a17.85,17.85,0,0,0-8.51-8.12c-1.77-.84-3.83-1.36-4.53-3.59a95.07,95.07,0,0,1,1.43-13.8c1-6.74-.4-13.19-.95-19.76-.27-3.27-2.05-4.42-5.28-4.5-4.76-.11-9.61.88-14.28-.83a1.38,1.38,0,0,1-.65-1.42c1.49-1.8,3.59-1.46,5.54-1.51,3.65-.1,7.31,0,11,0,9.35-.18,17.32-7.09,18.27-15.78,1.08-9.92-5-18.33-14.82-20.57a50.59,50.59,0,0,0-10.89-.9c-3.14,0-6.32.37-9.41-.52-5.43-3.35-9.12-8.64-14.07-12.57a121.3,121.3,0,0,0-63.66-26c-1.46-.16-3.58.38-3.66-2.22Z" transform="translate(-2.19 -0.22)"/><path class="cls-2" d="M102.22,80.18v1c2.61,2.12,2.71,5.27,3,8.16.91,10.4,1.07,20.81-1.41,31.06-3.07,15.19-9.64,28.8-18.63,41.33-14.4,17.63-31.68,31-54.16,36.76-5.59,1.43-11.19,2.85-17,3.17-3.93-.29-7.91.58-11.81-.49v-40c2.72-2.09,6.08-1.47,9.13-2,26.39-4.54,45.27-23,50-49C67.27,77.51,41.41,44.38,8.51,42.53c-2.37-.13-4.68-.25-6.32-2.31V.22h10C18,1.24,23.9,1.64,29.65,3.08,52.67,8.84,71,21.56,85.2,40.4c8.15,10.29,13.48,22,17,34.54C102.62,76.63,103.5,78.42,102.22,80.18Z" transform="translate(-2.19 -0.22)"/><path class="cls-3" d="M84.27,41.15Q57.51,6.31,13.88,1.11a5.58,5.58,0,0,1-1.7-.88h8C28.5,2,37,2.81,45.21,5.21c21.93,6.43,41,17.5,56,35C95.69,43.1,89.95,41.47,84.27,41.15Z" transform="translate(-2.19 -0.22)"/><path class="cls-4" d="M260.77,65.15q0-22.23,0-44.45c0-1.9-.6-4.19,2.7-4.1,15.79.46,31.65-1.19,47.35,1.47,25.88,4.39,39.94,20.15,40.48,45.18.54,25.23-13.89,43.6-38.77,48.83-16.29,3.42-32.86,1.36-49.3,1.83-3.37.1-2.43-2.54-2.43-4.3C260.74,94.78,260.77,80,260.77,65.15Z" transform="translate(-2.19 -0.22)"/><path class="cls-4" d="M505.2,62.76c20,7,26,27.83,12,41.54-5.45,5.35-12.4,7.81-19.74,8.7-15.25,1.85-30.6.6-45.9.94-3.79.08-2.66-2.69-2.67-4.57q-.09-35.71,0-71.42c0-6,.11-12,0-18-.07-2.64.86-3.46,3.45-3.4,13.48.29,27-.41,40.44.45a40.44,40.44,0,0,1,13.06,3c8.93,3.71,14.21,10,14.68,20,.48,10.16-3.82,17.25-13,21.52C506.75,61.82,506.06,62.27,505.2,62.76Z" transform="translate(-2.19 -0.22)"/><path class="cls-4" d="M725,72.29c6.16-7.84,12.42-15.61,18.43-23.57a7.63,7.63,0,0,1,7.12-3.39c7.25.25,14.51.08,22.91.08-7.79,9.14-14.62,17.69-22.07,25.65-3.79,4.05-3.79,6.68-.35,11,8,10,15.25,20.57,23.46,31.8-9.5,0-18.18.08-26.86-.06-1.88,0-2.44-2.12-3.35-3.44-6.5-9.43-12.93-18.91-20.36-28.29q0,10.76,0,21.52c0,10.32,0,10.39-10.45,10.28-4,0-9.07,1.74-11.55-.76s-.73-7.6-.74-11.55c-.07-28.83.07-57.66-.15-86.48,0-4.31,1.19-5.39,5.24-5a81.93,81.93,0,0,0,13,0c3.66-.27,4.81.71,4.76,4.6-.23,17.49-.1,35-.1,52.49q0,2.42,0,4.83Z" transform="translate(-2.19 -0.22)"/><path class="cls-4" d="M638.29,54.83c6.64-8.55,14.48-12.14,24.12-11,11.21,1.29,18.72,8.53,20.75,19.75,1.92,10.58.63,21.28.93,31.92.15,5-.08,10,.07,15,.08,2.49-.54,3.61-3.29,3.51-5.33-.19-10.67-.2-16,0-3,.12-3.63-1-3.59-3.77.13-10.83.09-21.66,0-32.49a38.6,38.6,0,0,0-.6-7.44c-.86-4.21-3.08-7.42-7.74-8-4.91-.61-8.88,1-11.45,5.39a19.06,19.06,0,0,0-2.34,10.08c.05,10.67-.09,21.33.09,32,.05,3.13-.59,4.47-4.05,4.26-5-.31-10-.2-15,0-2.71.09-3.83-.59-3.82-3.57q.16-30.75,0-61.49c0-3,1.11-3.67,3.81-3.56a98.37,98.37,0,0,0,13,0c4.19-.38,5.85,1,5.12,5.15A34,34,0,0,0,638.29,54.83Z" transform="translate(-2.19 -0.22)"/><path class="cls-4" d="M408.51,85.92c-7,0-14,.13-21-.05-3.65-.09-3.87,1.18-2.49,4.08,4.38,9.18,18.74,11.87,27.14,4.61,2.69-2.33,4.4-2.7,7.07-.49a58.94,58.94,0,0,0,6.29,4c5.91,3.72,5.91,3.72,1,8.42-12.58,12.07-36.67,12.85-51.28,1.67C361.85,97.9,358.18,76.91,367,61.12c7.8-13.9,24.47-20.67,41.36-16.79,14.15,3.25,24,15.8,24.9,31.78.56,9.81.56,9.81-9.3,9.81Z" transform="translate(-2.19 -0.22)"/><path class="cls-4" d="M579.57,106.34C569.42,116.4,555,118.07,544,111.46A19.74,19.74,0,0,1,543,78.35c4.9-3.38,10.53-4.91,16.28-5.86,4.26-.71,8.62-.71,12.9-1.34,2.06-.3,5.28,1.48,6-1.42.87-3.55-1.22-6.49-4.59-8-7-3.16-13.91-2-19.81,2.31-4,3-6.26,2-8.68-1.46a17.64,17.64,0,0,0-1.69-1.83C537.16,54.1,537.08,54,545,49.5a47.12,47.12,0,0,1,35.21-4.88c11,2.62,17.34,10.57,18.86,23.61,1.67,14.26.55,28.61.86,42.91,0,2.27-1,2.84-3,2.8a87,87,0,0,0-11,.06C580.87,114.53,577.68,113.63,579.57,106.34Z" transform="translate(-2.19 -0.22)"/><path class="cls-5" d="M595.82,174.11c3-9.81,6-19.36,8.66-29,.89-3.25,2.4-4.08,5.56-4s4.76.58,5.66,3.95c2.66,9.94,5.75,19.76,9,30.88,2.72-10.13,5.14-19,7.51-28,2-7.48,2-7.48,10.6-6.25q-6.47,22.3-12.91,44.51c-.9,3.11-3.46,1.8-5.42,2.06-2.24.3-3.63-.35-4.37-2.84-2.84-9.56-5.93-19-8.91-28.56a2.89,2.89,0,0,0-1.7-2.38c-3.1,9.73-6.6,19.29-9.07,29.1-1.3,5.15-4.34,4.84-8,4.69-1.38-.06-2-.7-2.37-2q-6.42-22.24-13-44.49c8.87-1.41,8.86-1.41,10.91,6.41q3.29,12.53,6.63,25C594.73,173.4,595.14,173.56,595.82,174.11Z" transform="translate(-2.19 -0.22)"/><path class="cls-5" d="M421.86,164.47q0-10,0-20c0-1.74,0-3.43,2.48-3.33,7.3.3,14.65-.75,21.89.89,11.57,2.61,18,10.26,18.13,21.72.18,11.86-6.37,20.56-17.62,23.41-7.39,1.87-14.91.75-22.37,1.06-2.52.1-2.52-1.52-2.51-3.28Q421.87,174.71,421.86,164.47Z" transform="translate(-2.19 -0.22)"/><path class="cls-5" d="M511.06,164.84c0-6.67.1-13.33-.05-20-.06-2.74.69-3.83,3.62-3.76,7.83.18,15.67.16,23.5,0,2.82-.06,3.29,1.21,3.26,3.6s-.27,3.79-3.19,3.68c-5.16-.19-10.33.06-15.5-.1-2.59-.08-3.39.79-3.49,3.41-.36,9.6-.47,9.59,9.25,9.59,2.5,0,5,.08,7.5,0s4.36-.07,4.36,3.52-1.69,3.65-4.31,3.58c-4.16-.12-8.34.15-12.49-.09-3.19-.18-4.52.71-4.3,4.12.27,4.32-.09,8.67.11,13,.15,3.24-1.92,2.91-3.92,2.84s-4.48.81-4.39-2.88C511.18,178.51,511.06,171.68,511.06,164.84Z" transform="translate(-2.19 -0.22)"/><path class="cls-5" d="M736.56,175c-3,0-6,.09-9,0-3.48-.12-3.09,1.54-1.78,3.63,2.57,4.12,9.4,5.57,13.75,2.18,3.23-2.51,5.06-.76,6.54,1.22,1.85,2.47-1.22,3.3-2.5,4.25-6.21,4.61-16.5,3.8-22.22-1.52-5.39-5-6.54-14.45-2.58-21.23a16.77,16.77,0,0,1,19.94-7.24c6.24,2.09,10.83,9.47,10.23,16.18-.18,2-1.13,2.56-2.89,2.55C742.89,174.93,739.73,175,736.56,175Z" transform="translate(-2.19 -0.22)"/><path class="cls-5" d="M490.42,175c-2.83,0-5.67,0-8.5,0-1.05,0-2.54-.58-3,.92-.34,1.15.45,2.21,1.17,3.15a9.89,9.89,0,0,0,13.49,1.63c3.31-2.62,5.15-.56,6.51,1.37,1.64,2.34-1.3,3.25-2.65,4.22-6.32,4.57-16.53,3.71-22.21-1.66-5.39-5.1-6.48-14.5-2.46-21.23a16.85,16.85,0,0,1,20-7.14c6.22,2.13,10.72,9.49,10.11,16.27-.18,2.05-1.29,2.45-3,2.43C496.75,174.94,493.59,175,490.42,175Z" transform="translate(-2.19 -0.22)"/><path class="cls-5" d="M260.16,141.67c7-1.91,11.32.11,14,6.33,1.85,4.22,4.67,8,7.29,12.4a48.54,48.54,0,0,0,8.29-13c2.76-5.91,6.76-7.59,13.32-5.74-4.24,6.39-8.19,12.87-12.67,18.95-3.43,4.64-5.22,9.44-4.55,15.22.29,2.46-.24,5,.11,7.47.65,4.59-1.66,5.15-5.45,5-2.72-.12-3.68-1.13-3.23-3.58,2.41-13.23-3.13-23.8-11-33.71C264.1,148.22,262.34,145,260.16,141.67Z" transform="translate(-2.19 -0.22)"/><path class="cls-5" d="M299.13,172c.05-9.69,7.39-16.74,17.35-16.67s17.31,7.3,17.31,16.88-7.82,17.18-17.76,17S299.08,181.77,299.13,172Z" transform="translate(-2.19 -0.22)"/><path class="cls-5" d="M673.19,176.55c0,2.5.13,5-.05,7.49-.11,1.44,1.07,3.87-1.45,4-1.92.11-4.74,1.77-5.78-1.69-.69-2.3-1.54-.56-2.23,0-4.25,3.19-8.86,3.54-13.7,1.7a9.19,9.19,0,0,1-6.34-8.74c-.16-3.92,2-6.54,5.4-8.23,4-2,8.25-2.37,12.58-2.73,1.31-.11,3.33.79,3.66-1.45.31-2.08-1-3.5-2.81-4.27-3.62-1.55-7.4-1.37-10.45,1s-4.17,0-5.33-1.75c-1.72-2.52,1-3.12,2.34-3.86a19.47,19.47,0,0,1,14.45-2.08c6.11,1.57,9.36,5.41,9.68,11.69.15,3,0,6,0,9Z" transform="translate(-2.19 -0.22)"/><path class="cls-5" d="M363.3,183.6c-5.13,5.38-9.92,7.06-15.46,4.45s-6.62-7.49-6.62-12.92.15-10.64-.06-16c-.14-3.66,2.29-2.82,4.32-2.94s3.91-.1,3.78,3c-.2,4.81-.11,9.64,0,14.46.12,6,1.91,8.58,5.92,8.69,4.34.12,6.91-2.4,7.44-8.2a106.68,106.68,0,0,0,.21-14.44c-.16-3.56,1.8-3.47,4.34-3.56,2.73-.09,3.85.67,3.79,3.61-.17,8.14,0,16.29-.06,24.44,0,1.93.53,4.3-2.74,4C365.79,188,362.25,189.62,363.3,183.6Z" transform="translate(-2.19 -0.22)"/><path class="cls-6" d="M690.87,163.66c0,7-.17,14,.07,21,.12,3.47-1.57,3.68-4.26,3.68s-4.3-.24-4.25-3.69q.27-21.48,0-43c0-3.35,1.5-3.76,4.25-3.76s4.34.42,4.24,3.77C690.73,149,690.87,156.33,690.87,163.66Z" transform="translate(-2.19 -0.22)"/><path class="cls-5" d="M768.63,189c-6.52,0-9.73-2.81-10.72-8.67-.81-4.8-.32-9.62-.45-14.43,0-1.78-.08-3.5-2.52-3.33-2.62.18-2.89-1.33-2.91-3.43s.6-3.1,2.83-2.94c3.38.25,2.54-2.34,2.54-4.14,0-2.75-.39-5.11,3.88-5.11,4,0,4.46,1.82,4,4.84-.48,3.43.75,5,4.33,4.46,2.19-.31,3.79,0,3.76,3,0,2.74-1.17,3.61-3.6,3.26-4-.59-4.78,1.51-4.53,5s-.06,6.66.13,10c.13,2.38.65,5,3.85,4.76,2.89-.18,4.26.44,4,3.73C772.93,189.77,769.87,188.17,768.63,189Z" transform="translate(-2.19 -0.22)"/><path class="cls-7" d="M700.42,163.06c0-7.15.16-14.31-.07-21.45-.11-3.46,1.66-3.63,4.3-3.67s3.85.66,3.83,3.61q-.18,21.7,0,43.4c0,3.27-1.63,3.35-4,3.33s-4.19.06-4.11-3.27C700.56,177.7,700.42,170.38,700.42,163.06Z" transform="translate(-2.19 -0.22)"/><path class="cls-5" d="M387.91,161.11c2.32-2.35,3.52-4,5.42-4.74,1.69-.67,3.69-1.78,5.22-.71s.74,3.4.74,5.17c0,2.95-2.45,1.47-3.75,1.76-4.83,1.08-7,4.27-7.19,8.86a125.39,125.39,0,0,0,0,12.93c.17,3.07-.85,3.95-3.91,4s-4.33-.84-4.23-4.17c.23-8,.09-15.92.06-23.88,0-2.24-.26-4.28,3.17-4.15C386.3,156.27,389,156,387.91,161.11Z" transform="translate(-2.19 -0.22)"/><path class="cls-8" d="M555.87,172.4c0,4.16-.19,8.33.06,12.48.23,3.72-2.07,3.33-4.47,3.42s-4-.25-4-3.41q.28-12.48,0-25c-.07-3.75,2.08-3.66,4.78-3.78,2.94-.12,3.74,1,3.63,3.78C555.74,164.07,555.87,168.24,555.87,172.4Z" transform="translate(-2.19 -0.22)"/><path class="cls-9" d="M551.82,140.7c2.69.26,4.83,1.56,4.88,4.5,0,3.1-2,4.95-5,4.93s-5-1.92-5-5C546.8,142.22,548.92,140.89,551.82,140.7Z" transform="translate(-2.19 -0.22)"/><path class="cls-10" d="M122.19,121.17l-19.92.15c2.54-13.37,3-26.73-.06-40.1,5,0,10,.24,14.91,0,4.07-.23,5.84.56,6.52,5.33C125.34,98.25,125.34,109.73,122.19,121.17Z" transform="translate(-2.19 -0.22)"/><path class="cls-10" d="M84.3,161.18l16.82.23c-17.81,20.86-40.81,32.5-67.35,37.82-2.87.58-5.72,1.24-8.58,1.86h-10c5.91-1.4,11.89-2.56,17.72-4.24C54,190.73,70.35,177.67,84.3,161.18Z" transform="translate(-2.19 -0.22)"/><path class="cls-11" d="M283.61,64.91c0-7.82.25-15.65-.1-23.45-.19-4.14,1.29-5.06,5.08-4.87,6.14.31,12.31,0,18.34,1.54,13.3,3.33,20.21,12.62,20.14,27.07-.07,14.19-7.41,23.84-20.48,27-6.71,1.6-13.54,1.17-20.35,1.32-2.89.07-2.64-1.75-2.64-3.62Q283.62,77.39,283.61,64.91Z" transform="translate(-2.19 -0.22)"/><path class="cls-12" d="M471.35,84c0-11.49,0-11.52,11.39-11.34A39.61,39.61,0,0,1,494.09,74c4.32,1.35,6.74,4.16,7,8.66s-1.59,8.26-5.83,10.15c-7.11,3.17-14.73,2-22.18,2.08-2,0-1.68-1.69-1.69-3C471.33,89.3,471.35,86.63,471.35,84Z" transform="translate(-2.19 -0.22)"/><path class="cls-12" d="M480.54,55.31c-9.19,0-9.19,0-9.19-9.42,0-10.68,0-10.65,10.52-10.63a35.49,35.49,0,0,1,8.89,1c4.09,1.06,6.85,3.48,7.12,7.87a9.37,9.37,0,0,1-6,9.91C488.22,55.59,484.36,55.29,480.54,55.31Z" transform="translate(-2.19 -0.22)"/><path class="cls-13" d="M398.57,71.93c-4,0-8-.07-12,0-2,0-2.7-.61-2.34-2.63.93-5.24,7.15-9.94,13.83-10.34,7.36-.44,12.32,2.57,14.07,8.5.83,2.81,1,4.89-3.1,4.51C405.58,71.68,402.06,71.93,398.57,71.93Z" transform="translate(-2.19 -0.22)"/><path class="cls-12" d="M564.31,100.29a11.38,11.38,0,0,1-5.09-1.06,6.43,6.43,0,0,1-3.88-5.41c-.26-3,1.2-5.13,3.68-6.59,5.75-3.36,12.16-3,18.47-3.09,2.19,0,1.65,1.59,1.67,2.82C579.3,95,573.68,100.35,564.31,100.29Z" transform="translate(-2.19 -0.22)"/><path class="cls-11" d="M430.18,164.54c0-4.49.08-9,0-13.45-.05-2.14.7-3,2.87-2.87,3,.22,6,0,8.93.5,9.33,1.63,13.44,6.73,13.38,16.15-.05,8.87-4.45,13.91-13.55,15.56-11.61,2.09-11.61,2.09-11.61-9.39Q430.17,167.78,430.18,164.54Z" transform="translate(-2.19 -0.22)"/><path class="cls-14" d="M731.87,169.17a11.14,11.14,0,0,1-2,0c-1.7-.31-4.33,1.06-4.93-.85-.75-2.38,1.4-4.22,3.36-5.54,3.56-2.37,8.5-1.78,10.86,1.16a4.47,4.47,0,0,1,1.09,4.15c-.54,1.71-2.22,1-3.43,1.06C735.18,169.25,733.52,169.16,731.87,169.17Z" transform="translate(-2.19 -0.22)"/><path class="cls-14" d="M486.3,169.16a30,30,0,0,1-3.48,0c-1.38-.16-3.38.83-4-.85s.74-3.09,1.93-4.29c3.08-3.11,8.17-3.61,11.33-1.08,1.67,1.33,2.77,3.11,2.1,5.18-.61,1.87-2.56.89-3.92,1A36.21,36.21,0,0,1,486.3,169.16Z" transform="translate(-2.19 -0.22)"/><path class="cls-11" d="M316.22,162.07c5.74-.05,9.2,3.67,9.25,10s-3.33,10.24-8.91,10.34c-5.42.1-9.29-4-9.37-10S310.83,162.12,316.22,162.07Z" transform="translate(-2.19 -0.22)"/><path class="cls-15" d="M661.14,173.86c2,.11,4.19-1.18,4.28,2.07.1,3.66-3.28,7-7.54,7.11-2.76,0-6.23-.51-6-3.73C652.23,173.39,657.62,174.61,661.14,173.86Z" transform="translate(-2.19 -0.22)"/><path class="cls-16" transform="translate(-2.19 -0.22)"/></svg>