<svg id="圖層_1" data-name="圖層 1" xmlns="http://www.w3.org/2000/svg" xmlns:xlink="http://www.w3.org/1999/xlink" viewBox="0 0 470.63 160.55"><defs><style>.cls-1,.cls-2{fill:#478be7;}.cls-1{clip-rule:evenodd;}.cls-2{fill-rule:evenodd;}.cls-3{clip-path:url(#clip-path);}.cls-4{clip-path:url(#clip-path-2);}.cls-5{clip-path:url(#clip-path-3);}.cls-6{clip-path:url(#clip-path-4);}.cls-7{clip-path:url(#clip-path-5);}.cls-8{clip-path:url(#clip-path-6);}.cls-9{clip-path:url(#clip-path-7);}.cls-10{clip-path:url(#clip-path-8);}</style><clipPath id="clip-path" transform="translate(-14.37 -42.75)"><path class="cls-1" d="M108.17,200.07h0a7,7,0,0,1,1.45-9.26,46.79,46.79,0,0,0,17.84-38.61,7,7,0,0,1,14.08-.54,60,60,0,0,1-23,50.07,7.07,7.07,0,0,1-10.36-1.67"/></clipPath><clipPath id="clip-path-2" transform="translate(-14.37 -42.75)"><path class="cls-1" d="M49.73,187.07h0a7,7,0,0,1,7.57-5.51,46.79,46.79,0,0,0,39.92-14.68,7,7,0,0,1,10.33,9.58,60,60,0,0,1-51.69,19.13,7.07,7.07,0,0,1-6.14-8.51"/></clipPath><clipPath id="clip-path-3" transform="translate(-14.37 -42.75)"><path class="cls-1" d="M17.6,136.56h0A7,7,0,0,1,26.85,138a46.78,46.78,0,0,0,38.61,17.84A7,7,0,0,1,66,169.93a60,60,0,0,1-50.07-23,7.07,7.07,0,0,1,1.67-10.36"/></clipPath><clipPath id="clip-path-4" transform="translate(-14.37 -42.75)"><path class="cls-1" d="M30.6,78.11h0a7,7,0,0,1,5.52,7.57A46.78,46.78,0,0,0,50.8,125.61a7,7,0,0,1-9.58,10.33A60,60,0,0,1,22.09,84.25a7.07,7.07,0,0,1,8.51-6.14"/></clipPath><clipPath id="clip-path-5" transform="translate(-14.37 -42.75)"><path class="cls-1" d="M81.11,46h0a7,7,0,0,1-1.45,9.25A46.78,46.78,0,0,0,61.81,93.85a7,7,0,0,1-14.08.54,60,60,0,0,1,23-50.08A7.07,7.07,0,0,1,81.11,46"/></clipPath><clipPath id="clip-path-6" transform="translate(-14.37 -42.75)"><path class="cls-1" d="M139.55,59h0A7,7,0,0,1,132,64.49,46.79,46.79,0,0,0,92.06,79.18,7,7,0,0,1,81.73,69.6a60,60,0,0,1,51.69-19.13A7.07,7.07,0,0,1,139.55,59"/></clipPath><clipPath id="clip-path-7" transform="translate(-14.37 -42.75)"><path class="cls-1" d="M171.69,109.5h0a7,7,0,0,1-9.25-1.45A46.79,46.79,0,0,0,123.82,90.2a7,7,0,0,1-.54-14.08,60,60,0,0,1,50.07,23,7.07,7.07,0,0,1-1.67,10.36"/></clipPath><clipPath id="clip-path-8" transform="translate(-14.37 -42.75)"><path class="cls-1" d="M158.69,167.94h0a7,7,0,0,1-5.52-7.57,46.77,46.77,0,0,0-14.68-39.92,7,7,0,0,1,9.58-10.33A60,60,0,0,1,167.2,161.8a7.07,7.07,0,0,1-8.51,6.14"/></clipPath></defs><title>portto-logo-colored</title><path class="cls-2" d="M108.17,200.07h0a7,7,0,0,1,1.45-9.26,46.79,46.79,0,0,0,17.84-38.61,7,7,0,0,1,14.08-.54,60,60,0,0,1-23,50.07,7.07,7.07,0,0,1-10.36-1.67" transform="translate(-14.37 -42.75)"/><path class="cls-2" d="M49.73,187.07h0a7,7,0,0,1,7.57-5.51,46.79,46.79,0,0,0,39.92-14.68,7,7,0,0,1,10.33,9.58,60,60,0,0,1-51.69,19.13,7.07,7.07,0,0,1-6.14-8.51" transform="translate(-14.37 -42.75)"/><path class="cls-2" d="M17.6,136.56h0A7,7,0,0,1,26.85,138a46.78,46.78,0,0,0,38.61,17.84A7,7,0,0,1,66,169.93a60,60,0,0,1-50.07-23,7.07,7.07,0,0,1,1.67-10.36" transform="translate(-14.37 -42.75)"/><path class="cls-2" d="M30.6,78.11h0a7,7,0,0,1,5.52,7.57A46.78,46.78,0,0,0,50.8,125.61a7,7,0,0,1-9.58,10.33A60,60,0,0,1,22.09,84.25a7.07,7.07,0,0,1,8.51-6.14" transform="translate(-14.37 -42.75)"/><path class="cls-2" d="M81.11,46h0a7,7,0,0,1-1.45,9.25A46.78,46.78,0,0,0,61.81,93.85a7,7,0,0,1-14.08.54,60,60,0,0,1,23-50.08A7.07,7.07,0,0,1,81.11,46" transform="translate(-14.37 -42.75)"/><path class="cls-2" d="M139.55,59h0A7,7,0,0,1,132,64.49,46.79,46.79,0,0,0,92.06,79.18,7,7,0,0,1,81.73,69.6a60,60,0,0,1,51.69-19.13A7.07,7.07,0,0,1,139.55,59" transform="translate(-14.37 -42.75)"/><path class="cls-2" d="M171.69,109.5h0a7,7,0,0,1-9.25-1.45A46.79,46.79,0,0,0,123.82,90.2a7,7,0,0,1-.54-14.08,60,60,0,0,1,50.07,23,7.07,7.07,0,0,1-1.67,10.36" transform="translate(-14.37 -42.75)"/><path class="cls-2" d="M158.69,167.94h0a7,7,0,0,1-5.52-7.57,46.77,46.77,0,0,0-14.68-39.92,7,7,0,0,1,9.58-10.33A60,60,0,0,1,167.2,161.8a7.07,7.07,0,0,1-8.51,6.14" transform="translate(-14.37 -42.75)"/><path d="M225.33,142.83a19.9,19.9,0,0,1-8.29-1.52v18.55H203.93V95.57a51.14,51.14,0,0,1,18.82-3.21c14.89,0,24.25,9.19,24.25,25.15C247,132.84,238.79,142.83,225.33,142.83Zm-2.76-40.66a17.34,17.34,0,0,0-5.53.62v29a14.44,14.44,0,0,0,6,1.34c7.58,0,10.79-5.8,10.79-15.43C233.8,107.78,230.14,102.17,222.56,102.17Z" transform="translate(-14.37 -42.75)"/><path d="M280.88,143.1c-13.91,0-22.29-10.43-22.29-25.41s8.56-25.41,22.29-25.41,22.29,10.43,22.29,25.41S294.88,143.1,280.88,143.1Zm0-40.84c-6.51,0-9.09,6.69-9.09,15.34s2.67,15.16,9.09,15.16,9-6.42,9-15.16S287.3,102.26,280.88,102.26Z" transform="translate(-14.37 -42.75)"/><path d="M343.31,103.06a22.66,22.66,0,0,0-6.24-.8,17.53,17.53,0,0,0-6.42,1V142h-13.2V96A47.34,47.34,0,0,1,335,92.45a48.69,48.69,0,0,1,10.61,1.07C344.91,96.64,344.11,99.85,343.31,103.06Z" transform="translate(-14.37 -42.75)"/><path d="M378.17,142.74c-14.71.53-16.94-9.09-17.48-19.44-.09-5.26-.18-14.62-.18-20h-6.24v-9.9h6.24V80.68h13.2V93.25h12.22v10H373.71v19.44c0,6.69.8,9.45,5.08,9.81a14.16,14.16,0,0,0,7.13-1.34c.36,3.21.71,6.33,1.07,9.54A24.26,24.26,0,0,1,378.17,142.74Z" transform="translate(-14.37 -42.75)"/><path d="M421.87,142.74c-14.71.53-16.94-9.09-17.48-19.44-.09-5.26-.18-14.62-.18-20H398v-9.9h6.24V80.68h13.2V93.25h12.22v10H417.41v19.44c0,6.69.8,9.45,5.08,9.81a14.17,14.17,0,0,0,7.13-1.34c.36,3.21.71,6.33,1.07,9.54A24.25,24.25,0,0,1,421.87,142.74Z" transform="translate(-14.37 -42.75)"/><path d="M462.71,143.1c-13.91,0-22.29-10.43-22.29-25.41S449,92.27,462.71,92.27,485,102.7,485,117.68,476.71,143.1,462.71,143.1Zm0-40.84c-6.51,0-9.09,6.69-9.09,15.34s2.67,15.16,9.09,15.16,9-6.42,9-15.16S469.13,102.26,462.71,102.26Z" transform="translate(-14.37 -42.75)"/></svg>