<?xml version="1.0" encoding="UTF-8"?>
<svg width="240px" height="60px" viewBox="0 0 240 60" version="1.1" xmlns="http://www.w3.org/2000/svg" xmlns:xlink="http://www.w3.org/1999/xlink">
    <title>3-certora</title>
    <g id="控件" stroke="none" stroke-width="1" fill="none" fill-rule="evenodd">
        <g id="logo-trail-of-bits" transform="translate(-12.000000, -211.000000)">
            <g id="certora" transform="translate(49.000000, 223.000000)">
                <path d="M47.9495488,21.704128 L47.9495488,8.635072 L51.0239902,5.56 L59.6434061,5.56 L62.6080459,8.525248 L62.6080459,10.694272 L59.9728105,10.694272 L59.9728105,9.458752 L58.3806891,7.866304 L52.2867071,7.866304 L50.5847842,9.568576 L50.5847842,20.770624 L52.2867071,22.472896 L58.3806891,22.472896 L59.9728105,20.880448 L59.9728105,19.644928 L62.6080459,19.644928 L62.6080459,21.813952 L59.6434061,24.7792 L51.0239902,24.7792 L47.9495488,21.704128 Z M65.7648384,5.56 L78.6665119,5.56 L78.6665119,7.866304 L68.4000738,7.866304 L68.4000738,13.988992 L77.8704512,13.988992 L77.8704512,16.26784 L68.4000738,16.26784 L68.4000738,22.472896 L78.6665119,22.472896 L78.6665119,24.7792 L65.7648384,24.7792 L65.7648384,5.56 Z M96.0700459,18.73888 L96.0700459,24.7792 L93.4348105,24.7792 L93.4348105,19.397824 L91.1564299,16.95424 L84.5957916,16.95424 L84.5957916,24.7792 L81.9605562,24.7792 L81.9605562,5.56 L93.2975587,5.56 L95.9602445,8.223232 L95.9602445,14.20864 L93.846566,16.322752 L96.0700459,18.73888 Z M84.5957916,14.702848 L92.1171928,14.702848 L93.3524594,13.494784 L93.3524594,9.019456 L92.1171928,7.811392 L84.5957916,7.811392 L84.5957916,14.702848 Z M104.058103,7.838848 L98.2660755,7.838848 L98.2660755,5.56 L112.485367,5.56 L112.485367,7.838848 L106.693339,7.838848 L106.693339,24.7792 L104.058103,24.7792 L104.058103,7.838848 Z M114.544144,21.704128 L114.544144,8.635072 L117.618586,5.56 L126.677208,5.56 L129.751649,8.635072 L129.751649,21.704128 L126.677208,24.7792 L117.618586,24.7792 L114.544144,21.704128 Z M125.414491,22.472896 L127.116413,20.770624 L127.116413,9.568576 L125.414491,7.866304 L118.881303,7.866304 L117.17938,9.568576 L117.17938,20.770624 L118.881303,22.472896 L125.414491,22.472896 Z M147.70419,18.73888 L147.70419,24.7792 L145.068955,24.7792 L145.068955,19.397824 L142.790574,16.95424 L136.229936,16.95424 L136.229936,24.7792 L133.594701,24.7792 L133.594701,5.56 L144.931703,5.56 L147.594389,8.223232 L147.594389,14.20864 L145.48071,16.322752 L147.70419,18.73888 Z M136.229936,14.702848 L143.751337,14.702848 L144.986604,13.494784 L144.986604,9.019456 L143.751337,7.811392 L136.229936,7.811392 L136.229936,14.702848 Z M156.927514,5.56 L159.56275,5.56 L166.480243,24.7792 L163.762656,24.7792 L162.060733,19.892032 L154.456981,19.892032 L152.755058,24.7792 L150.037472,24.7792 L156.927514,5.56 Z M161.374474,17.668096 L158.272582,8.689984 L158.217682,8.689984 L155.170691,17.668096 L161.374474,17.668096 Z" id="Certora" fill="#FFFFFF" fill-rule="nonzero"></path>
                <g id="Group" stroke="#D4D9E0" stroke-width="1.44">
                    <g id="Group-4">
                        <polygon id="Polygon-Copy" fill-rule="nonzero" points="30.72254 0.434634146 30.72254 26.9473171 15.6567884 35.64 0.591036736 26.9473171 0.591036736 0.434634146"></polygon>
                        <line x1="0.961922249" y1="9.7257231" x2="30.493846" y2="26.8720169" id="Path-3"></line>
                        <line x1="0.961923112" y1="9.7257231" x2="30.4938469" y2="26.8720169" id="Path-3-Copy" transform="translate(15.727885, 18.298870) scale(-1, 1) translate(-15.727885, -18.298870) "></line>
                        <line x1="15.727885" y1="1.24465142" x2="15.727885" y2="35.1533538" id="Path-3-Copy-2" transform="translate(15.727885, 18.199003) scale(-1, 1) translate(-15.727885, -18.199003) "></line>
                        <line x1="0.902009712" y1="1.0403938" x2="15.6657055" y2="26.7928674" id="Path-3-Copy-3" transform="translate(8.283858, 13.916631) scale(-1, 1) translate(-8.283858, -13.916631) "></line>
                        <line x1="15.6096973" y1="0.850697359" x2="30.514851" y2="26.7928674" id="Path-3-Copy-4"></line>
                        <polygon id="Polygon-Copy-3" points="15.6567884 0.869268293 30.72254 9.56195118 30.72254 26.9473171 15.6567884 35.64 0.591036736 26.9473171 0.591036736 9.56195118"></polygon>
                    </g>
                </g>
            </g>
        </g>
    </g>
</svg>