<?xml version="1.0" encoding="UTF-8"?>
<svg width="240px" height="60px" viewBox="0 0 240 60" version="1.1" xmlns="http://www.w3.org/2000/svg" xmlns:xlink="http://www.w3.org/1999/xlink">
    <title>Diligence</title>
    <g id="控件" stroke="none" stroke-width="1" fill="none" fill-rule="evenodd">
        <g id="logo" transform="translate(33.000000, 7.000000)" fill="#D4D9E0" fill-rule="nonzero">
            <path d="M49.2183343,9.96668664 L49.2183343,9.90413421 C49.2183343,8.21521869 50.3859796,7.02672259 51.9497903,7.02672259 C53.2425404,7.02672259 54.2433793,7.67309766 54.3684841,8.99712403 L53.3050929,8.99712403 C53.1904134,8.24649491 52.7733972,7.86075494 51.9602157,7.86075494 C50.9698023,7.86075494 50.3234272,8.63223487 50.3234272,9.89370881 L50.3234272,9.95626123 C50.3234272,11.2281606 50.9281007,11.9683643 51.9706411,11.9683643 C52.7525464,11.9683643 53.3050929,11.5721989 53.4093469,10.7798682 L54.4310365,10.7798682 C54.2642301,12.1351708 53.3050929,12.8232475 51.9706411,12.8232475 C50.2087478,12.8232475 49.2183343,11.6973038 49.2183343,9.96668664 Z" id="路径"></path>
            <path d="M55.4840024,9.96668664 L55.4840024,9.90413421 C55.4840024,8.25692031 56.6620731,7.03714799 58.3301378,7.03714799 C59.9982025,7.03714799 61.1658478,8.2256441 61.1658478,9.872858 L61.1658478,9.93541043 C61.1658478,11.5826243 60.0399041,12.812822 58.3301378,12.812822 C56.6099461,12.8232475 55.4840024,11.5930497 55.4840024,9.96668664 Z M60.0816058,9.95626123 L60.0816058,9.89370881 C60.0816058,8.73648892 59.4352307,7.88160575 58.3301378,7.88160575 C57.2250449,7.88160575 56.5786699,8.6947873 56.5786699,9.90413421 L56.5786699,9.96668664 C56.5786699,11.1968844 57.329299,11.9892151 58.3509886,11.9892151 C59.4143799,11.9787897 60.0816058,11.1760336 60.0816058,9.95626123 L60.0816058,9.95626123 Z" id="形状"></path>
            <polygon id="路径" points="62.4481726 7.12055123 63.6992211 7.12055123 66.0657879 11.186459 66.0657879 7.12055123 67.0144997 7.12055123 67.0144997 12.7502696 65.9302576 12.7502696 63.3968844 8.43415219 63.3968844 12.7502696 62.4481726 12.7502696"></polygon>
            <path d="M68.3593769,10.9988017 L69.3706411,10.9988017 C69.4436189,11.5617735 69.6729778,12.0413421 70.6216896,12.0413421 C71.2472139,12.0413421 71.6850809,11.6973038 71.6850809,11.1760336 C71.6850809,10.6547633 71.4244458,10.4566806 70.5174356,10.310725 C69.1725584,10.1334931 68.5366087,9.71647693 68.5366087,8.66351108 C68.5366087,7.74607549 69.3185141,7.0475734 70.4965848,7.0475734 C71.7059317,7.0475734 72.43571,7.60011983 72.5399641,8.67393649 L71.5808268,8.67393649 C71.4765728,8.07968844 71.1429599,7.82947873 70.4965848,7.82947873 C69.8502097,7.82947873 69.5270222,8.13181546 69.5270222,8.56968244 C69.5270222,9.02840024 69.7146794,9.25775914 70.6946675,9.39328939 C72.0186938,9.57052127 72.7067705,9.95626123 72.7067705,11.0822049 C72.7067705,12.0621929 71.8831636,12.8232475 70.632115,12.8232475 C69.0787298,12.8232475 68.4323547,12.0621929 68.3593769,10.9988017 Z" id="路径"></path>
            <polygon id="路径" points="74.0516477 7.12055123 77.5754344 7.12055123 77.5754344 7.94415818 75.1046135 7.94415818 75.1046135 9.48711803 77.0854404 9.48711803 77.0854404 10.2794488 75.1046135 10.2794488 75.1046135 11.9266627 77.7109646 11.9266627 77.7109646 12.7502696 74.0620731 12.7502696"></polygon>
            <polygon id="路径" points="79.0454164 7.12055123 80.2964649 7.12055123 82.6630318 11.186459 82.6630318 7.12055123 83.6117436 7.12055123 83.6117436 12.7502696 82.5275015 12.7502696 79.9941282 8.43415219 79.9941282 12.7502696 79.0454164 12.7502696 79.0454164 7.12055123"></polygon>
            <path d="M84.9566207,10.9988017 L85.967885,10.9988017 C86.0408628,11.5617735 86.2702217,12.0413421 87.2189335,12.0413421 C87.8444578,12.0413421 88.2823247,11.6973038 88.2823247,11.1760336 C88.2823247,10.6547633 88.0216896,10.4566806 87.1146794,10.310725 C85.7698023,10.1334931 85.1338526,9.71647693 85.1338526,8.66351108 C85.1338526,7.74607549 85.9157579,7.0475734 87.0938286,7.0475734 C88.3031756,7.0475734 89.0329539,7.60011983 89.1372079,8.67393649 L88.1780707,8.67393649 C88.0738167,8.07968844 87.7402037,7.82947873 87.0938286,7.82947873 C86.4474536,7.82947873 86.124266,8.13181546 86.124266,8.56968244 C86.124266,9.02840024 86.3119233,9.25775914 87.2919113,9.39328939 C88.6159377,9.57052127 89.293589,9.95626123 89.293589,11.0822049 C89.293589,12.0621929 88.469982,12.8232475 87.2293589,12.8232475 C85.6759736,12.8232475 85.0295986,12.0621929 84.9566207,10.9988017 Z" id="路径"></path>
            <polygon id="路径" points="91.7331336 10.310725 89.8669862 7.12055123 91.0242061 7.12055123 92.2961055 9.44541642 93.5263032 7.12055123 94.5479928 7.12055123 92.7860995 10.310725 92.7860995 12.7398442 91.7331336 12.7398442"></polygon>
            <path d="M95.1318155,10.9988017 L96.1430797,10.9988017 C96.2160575,11.5617735 96.4454164,12.0413421 97.3941282,12.0413421 C98.0196525,12.0413421 98.4575195,11.6973038 98.4575195,11.1760336 C98.4575195,10.6547633 98.1968844,10.4566806 97.2898742,10.310725 C95.944997,10.1334931 95.3090473,9.71647693 95.3090473,8.66351108 C95.3090473,7.74607549 96.0909527,7.0475734 97.2690234,7.0475734 C98.4783703,7.0475734 99.2081486,7.60011983 99.3124026,8.67393649 L98.3532654,8.67393649 C98.2490114,8.07968844 97.9153984,7.82947873 97.2690234,7.82947873 C96.6226483,7.82947873 96.2994608,8.13181546 96.2994608,8.56968244 C96.2994608,9.02840024 96.487118,9.25775914 97.4671061,9.39328939 C98.7911324,9.57052127 99.4792091,9.95626123 99.4792091,11.0822049 C99.4792091,12.0621929 98.6556022,12.8232475 97.4045536,12.8232475 C95.8615938,12.8232475 95.2152187,12.0621929 95.1318155,10.9988017 Z" id="路径"></path>
            <path d="M49.6457759,17.3374476 C49.6457759,17.1602157 49.7917316,17.01426 49.9689635,17.01426 L56.6412223,17.01426 C64.1475135,17.01426 67.8485321,21.0801678 67.8485321,27.4709407 L67.8485321,27.710725 C67.8485321,34.1119233 64.1162373,38.3863391 56.6099461,38.3863391 L49.9689635,38.3863391 C49.7917316,38.3863391 49.6457759,38.2403835 49.6457759,38.0631516 C49.6457759,38.0631516 49.6457759,38.0631516 49.6457759,38.0631516 L49.6457759,17.3374476 Z M56.4639904,34.6123427 C60.7696824,34.6123427 62.8026363,32.1936489 62.8026363,27.7732774 L62.8026363,27.5334931 C62.8026363,23.1443978 60.9156381,20.777831 56.4118634,20.777831 L54.493589,20.777831 L54.493589,34.6123427 L56.4639904,34.6123427 Z" id="形状"></path>
            <path d="M69.3497903,18.2653086 C69.3497903,16.9204314 70.423607,15.9091672 71.7997603,15.9091672 C73.2071899,15.9091672 74.2810066,16.9308568 74.2810066,18.2653086 C74.2810066,19.5997603 73.2071899,20.62145 71.7997603,20.62145 C70.423607,20.6318754 69.3497903,19.6101857 69.3497903,18.2653086 Z M69.9961654,22.7482325 L73.6554823,22.7482325 C73.8327142,22.7482325 73.9786699,22.8941881 73.9786699,23.07142 C73.9786699,23.07142 73.9786699,23.07142 73.9786699,23.07142 L73.9786699,38.0631516 C73.9786699,38.2403835 73.8327142,38.3863391 73.6554823,38.3863391 C73.6554823,38.3863391 73.6554823,38.3863391 73.6554823,38.3863391 L69.9961654,38.3863391 C69.8189335,38.3863391 69.6729778,38.2403835 69.6729778,38.0631516 C69.6729778,38.0631516 69.6729778,38.0631516 69.6729778,38.0631516 L69.6729778,23.07142 C69.6729778,22.8941881 69.8189335,22.7482325 69.9961654,22.7482325 C69.9961654,22.7482325 69.9961654,22.7482325 69.9961654,22.7482325 L69.9961654,22.7482325 Z" id="形状"></path>
            <path d="M77.3460755,15.6693829 L81.0053925,15.6693829 C81.1826243,15.6693829 81.32858,15.8153385 81.32858,15.9925704 L81.32858,15.9925704 L81.32858,38.0631516 C81.32858,38.2403835 81.1826243,38.3863391 81.0053925,38.3863391 C81.0053925,38.3863391 81.0053925,38.3863391 81.0053925,38.3863391 L77.3460755,38.3863391 C77.1688436,38.3863391 77.022888,38.2403835 77.022888,38.0631516 C77.022888,38.0631516 77.022888,38.0631516 77.022888,38.0631516 L77.022888,15.9925704 C77.022888,15.8153385 77.1688436,15.6693829 77.3460755,15.6693829 L77.3460755,15.6693829 Z" id="路径"></path>
            <path d="M84.0183343,18.2653086 C84.0183343,16.9204314 85.092151,15.9091672 86.4683044,15.9091672 C87.875734,15.9091672 88.9495506,16.9308568 88.9495506,18.2653086 C88.9495506,19.5997603 87.875734,20.62145 86.4683044,20.62145 C85.092151,20.6318754 84.0183343,19.6101857 84.0183343,18.2653086 Z M84.6647094,22.7482325 L88.3240264,22.7482325 C88.5012582,22.7482325 88.6472139,22.8941881 88.6472139,23.07142 C88.6472139,23.07142 88.6472139,23.07142 88.6472139,23.07142 L88.6472139,38.0631516 C88.6472139,38.2403835 88.5012582,38.3863391 88.3240264,38.3863391 C88.3240264,38.3863391 88.3240264,38.3863391 88.3240264,38.3863391 L84.6647094,38.3863391 C84.4874775,38.3863391 84.3415219,38.2403835 84.3415219,38.0631516 C84.3415219,38.0631516 84.3415219,38.0631516 84.3415219,38.0631516 L84.3415219,23.07142 C84.3519473,22.8941881 84.4874775,22.7482325 84.6647094,22.7482325 C84.6647094,22.7482325 84.6647094,22.7482325 84.6647094,22.7482325 L84.6647094,22.7482325 Z" id="形状"></path>
            <path d="M91.2118634,38.7095267 L94.8816058,38.7095267 C95.0275614,38.7095267 95.1526663,38.8033553 95.1943679,38.949311 C95.5279808,40.1899341 96.5288197,40.9822648 98.6034751,40.9822648 C101.230677,40.9822648 102.544278,39.6061114 102.544278,37.1561414 L102.544278,34.8 C101.501738,36.5827442 99.5938886,37.687837 97.5192331,37.6982624 C93.7243859,37.6982624 90.7010186,34.8625524 90.7010186,30.2232475 L90.7010186,30.0147394 C90.7010186,25.5318155 93.6931096,22.3937687 97.5713601,22.3937687 C100.115159,22.3937687 101.637268,23.4988616 102.533853,25.0835231 L102.533853,23.07142 C102.533853,22.8941881 102.679808,22.7482325 102.85704,22.7482325 C102.85704,22.7482325 102.85704,22.7482325 102.85704,22.7482325 L106.516357,22.7482325 C106.693589,22.7482325 106.839545,22.8941881 106.839545,23.07142 C106.839545,23.07142 106.839545,23.07142 106.839545,23.07142 L106.839545,37.1561414 C106.808268,41.785021 103.732774,44.1515878 98.5930497,44.1515878 C93.7452367,44.1515878 91.4307969,42.1082085 90.8782504,39.0952666 C90.8469742,38.9180348 90.9616537,38.7512283 91.1388856,38.7199521 C91.1701618,38.7095267 91.1910126,38.7095267 91.2118634,38.7095267 Z M102.669383,30.160695 L102.669383,29.9521869 C102.669383,27.2937088 101.261953,25.6777711 98.9058119,25.6777711 C96.487118,25.6777711 95.1422409,27.4083883 95.1422409,29.9834632 L95.1422409,30.2232475 C95.1422409,32.8191732 96.6643499,34.4351108 98.8224086,34.4351108 C101.084721,34.4351108 102.669383,32.8191732 102.669383,30.160695 L102.669383,30.160695 Z" id="形状"></path>
            <path d="M108.382504,30.7653685 L108.382504,30.5255842 C108.382504,25.5943679 111.875015,22.3937687 116.420491,22.3937687 C120.455123,22.3937687 124.041462,24.7499101 124.041462,30.3483523 L124.041462,31.2240863 C124.041462,31.4013182 123.895506,31.5472738 123.718274,31.5472738 C123.718274,31.5472738 123.718274,31.5472738 123.718274,31.5472738 L112.7716,31.5472738 C112.896705,34.1431995 114.293709,35.6444578 116.660276,35.6444578 C118.536848,35.6444578 119.527262,34.8834032 119.860875,33.6949071 C119.902576,33.5593769 120.027681,33.4655482 120.163212,33.4655482 L123.624446,33.4655482 C123.801678,33.4655482 123.947633,33.6115039 123.947633,33.7887358 C123.947633,33.8095866 123.947633,33.8304374 123.937208,33.8512882 C123.290833,36.9789095 120.64278,38.7199521 116.535171,38.7199521 C111.812463,38.7095267 108.382504,35.7487118 108.382504,30.7653685 Z M119.819173,28.8783703 C119.673217,26.5222289 118.474296,25.3858598 116.410066,25.3858598 C114.470941,25.3858598 113.15734,26.6681845 112.823727,28.8783703 L119.819173,28.8783703 Z" id="形状"></path>
            <path d="M125.938886,22.7482325 L129.629479,22.7482325 C129.806711,22.7482325 129.952666,22.8941881 129.952666,23.07142 L129.952666,25.2294787 C130.724146,23.6760935 132.433913,22.3937687 135.029838,22.3937687 C138.105333,22.3937687 140.294667,24.2494907 140.294667,28.4300779 L140.294667,38.0631516 C140.294667,38.2403835 140.148712,38.3863391 139.97148,38.3863391 C139.97148,38.3863391 139.97148,38.3863391 139.97148,38.3863391 L136.280887,38.3863391 C136.103655,38.3863391 135.957699,38.2403835 135.957699,38.0631516 C135.957699,38.0631516 135.957699,38.0631516 135.957699,38.0631516 L135.957699,29.0660276 C135.957699,26.9392451 135.123667,25.9279808 133.205392,25.9279808 C131.34967,25.9279808 129.952666,27.0643499 129.952666,29.3683643 L129.952666,38.073577 C129.952666,38.2508089 129.806711,38.3967645 129.629479,38.3967645 L125.938886,38.3967645 C125.761654,38.3967645 125.615698,38.2508089 125.615698,38.073577 C125.615698,38.073577 125.615698,38.073577 125.615698,38.073577 L125.615698,23.07142 C125.615698,22.8941881 125.761654,22.7482325 125.938886,22.7482325 C125.938886,22.7482325 125.938886,22.7482325 125.938886,22.7482325 Z" id="路径"></path>
            <path d="M141.670821,30.7653685 L141.670821,30.5255842 C141.670821,25.4796884 145.288436,22.3937687 149.740084,22.3937687 C153.253445,22.3937687 156.516597,23.895027 157.058718,28.0964649 C157.079569,28.2736968 156.954464,28.4405033 156.777232,28.4613541 C156.766806,28.4613541 156.745956,28.4613541 156.73553,28.4613541 L153.263871,28.4613541 C153.117915,28.4613541 152.982385,28.3571001 152.951108,28.2111444 C152.596645,26.5639305 151.512403,25.802876 149.833913,25.802876 C147.592451,25.802876 146.101618,27.4813661 146.101618,30.4630318 L146.101618,30.7028161 C146.101618,33.8408628 147.509047,35.4568005 149.927741,35.4568005 C151.58538,35.4568005 152.940683,34.5289395 153.24302,32.7044937 C153.263871,32.5481126 153.399401,32.4438586 153.555782,32.4438586 L156.839784,32.4438586 C157.017016,32.4438586 157.162972,32.5898143 157.162972,32.7670461 C157.162972,32.7774715 157.162972,32.7878969 157.162972,32.7983223 C156.777232,36.3116836 154.118754,38.7199521 149.719233,38.7199521 C145.142481,38.7095267 141.670821,35.8738167 141.670821,30.7653685 Z" id="路径"></path>
            <path d="M158.257639,30.7653685 L158.257639,30.5255842 C158.257639,25.5943679 161.75015,22.3937687 166.295626,22.3937687 C170.330258,22.3937687 173.916597,24.7499101 173.916597,30.3483523 L173.916597,31.2240863 C173.916597,31.4013182 173.770641,31.5472738 173.593409,31.5472738 L162.646735,31.5472738 C162.771839,34.1431995 164.168844,35.6444578 166.53541,35.6444578 C168.411983,35.6444578 169.402397,34.8834032 169.73601,33.6949071 C169.777711,33.5593769 169.902816,33.4551228 170.048772,33.4655482 L173.510006,33.4655482 C173.687238,33.4655482 173.833194,33.6115039 173.833194,33.7887358 C173.833194,33.8095866 173.833194,33.8304374 173.822768,33.8512882 C173.176393,36.9789095 170.52834,38.7199521 166.420731,38.7199521 C161.698023,38.7095267 158.257639,35.7487118 158.257639,30.7653685 Z M169.704733,28.8783703 C169.558778,26.5222289 168.359856,25.3858598 166.295626,25.3858598 C164.356501,25.3858598 163.0429,26.6681845 162.709287,28.8783703 L169.704733,28.8783703 Z" id="形状"></path>
            <path d="M22.5710006,0 C10.1126423,0 0,10.1126423 0,22.5710006 C0,35.0293589 10.1126423,45.1524266 22.5710006,45.1524266 C35.0293589,45.1524266 45.1524266,35.0397843 45.1524266,22.5710006 C45.1524266,10.1022169 35.0397843,0 22.5710006,0 Z M16.7014979,34.9355303 C16.7014979,35.0502097 16.6076693,35.1440383 16.4929898,35.1440383 L12.0934691,35.1440383 C11.9787897,35.1440383 11.8849611,35.0502097 11.8849611,34.9355303 L11.8849611,17.8691432 C11.8849611,17.7544638 11.9787897,17.6606351 12.0934691,17.6606351 L16.4929898,17.6606351 C16.6076693,17.6606351 16.7014979,17.7544638 16.7014979,17.8691432 L16.7014979,34.9355303 Z M14.2828041,15.2836429 C12.7502696,15.2836429 11.5409227,14.1472738 11.5409227,12.6460156 C11.5409227,11.1447573 12.7502696,10.0083883 14.2828041,10.0083883 C15.8570401,10.0083883 17.0559617,11.1447573 17.0559617,12.6460156 C17.0559617,14.1472738 15.8570401,15.2836429 14.2828041,15.2836429 Z M25.0418214,34.9251049 C25.0418214,35.0397843 24.9479928,35.1336129 24.8333134,35.1336129 L20.4337927,35.1336129 C20.3191132,35.1336129 20.2252846,35.0397843 20.2252846,34.9251049 L20.2252846,10.2168963 C20.2252846,10.1022169 20.3191132,10.0083883 20.4337927,10.0083883 L24.8333134,10.0083883 C24.9479928,10.0083883 25.0418214,10.1022169 25.0418214,10.2168963 L25.0418214,34.9251049 Z M33.3717196,34.9355303 C33.3717196,35.0502097 33.277891,35.1440383 33.1632115,35.1440383 L28.7741162,35.1440383 C28.6594368,35.1440383 28.5656081,35.0502097 28.5656081,34.9355303 L28.5656081,17.8691432 C28.5656081,17.7544638 28.6594368,17.6606351 28.7741162,17.6606351 L33.1736369,17.6606351 C33.2883164,17.6606351 33.382145,17.7544638 33.382145,17.8691432 L33.382145,34.9355303 L33.3717196,34.9355303 Z M33.6115039,15.0855602 C33.6115039,15.2002397 33.5176753,15.2940683 33.4029958,15.2940683 L28.5447573,15.2940683 C28.4300779,15.2940683 28.3362493,15.2002397 28.3362493,15.0855602 L28.3362493,10.2168963 C28.3362493,10.1022169 28.4300779,10.0083883 28.5447573,10.0083883 L33.4029958,10.0083883 C33.5176753,10.0083883 33.6115039,10.1022169 33.6115039,10.2168963 L33.6115039,15.0855602 Z" id="形状"></path>
        </g>
    </g>
</svg>