<?xml version="1.0" encoding="UTF-8"?>
<svg width="240px" height="60px" viewBox="0 0 240 60" version="1.1" xmlns="http://www.w3.org/2000/svg" xmlns:xlink="http://www.w3.org/1999/xlink">
    <title>5-peckshield</title>
    <g id="控件" stroke="none" stroke-width="1" fill="none" fill-rule="evenodd">
        <g id="logo-trail-of-bits" transform="translate(-372.000000, -211.000000)" fill="#D4D9E0">
            <path d="M410.31265,223.880946 C415.466028,221.405201 420.570077,221.36088 425.767114,223.822419 C427.709057,224.742371 429.847178,225.250362 431.857727,226.040759 C432.58064,226.32487 433.190722,226.886842 434.245892,227.580642 C432.920834,228.540369 431.972259,229.22735 430.843381,230.045022 C430.360305,229.405772 429.945835,228.858574 429.235395,227.919302 C427.339946,229.760343 425.299913,231.409324 423.697598,233.40208 C422.41223,235.001057 421.325876,235.176638 419.678768,234.175998 C416.923761,232.503152 414.448846,232.225859 412.458142,235.472682 C411.947284,236.306264 410.630165,236.657994 409.155989,237.550671 C410.614856,237.396115 411.484619,237.365431 412.327734,237.201783 C414.064994,236.864258 415.010734,237.604084 415.445049,239.21954 C416.284762,242.344763 418.080422,244.434685 421.44948,245.226787 C422.380479,245.445553 423.050661,246.750191 424.19088,247.91391 C428.142804,246.772352 428.476762,246.161513 426.877848,241.565162 C428.001624,241.173089 429.154883,240.836701 430.250876,240.369622 C431.355373,239.899134 432.403739,239.298523 433.656788,238.664387 C433.727662,242.357264 433.218505,245.609769 430.563287,248.135517 C426.563168,251.940334 422.513154,255.694011 417.918262,260 C413.176519,255.270685 408.458023,251.007313 404.356413,246.22629 C403.447872,245.167544 403.165138,243.56042 402.957739,241.918125 L402.877493,241.260549 C402.798655,240.603529 402.720127,239.951831 402.60668,239.338299 C402.273856,237.539307 402.192777,235.694857 402,233.870863 L402,233.870863 L402,227.707355 C404.772017,226.434537 407.563879,225.201495 410.31265,223.880946 Z M493.384943,231.225504 L493.384943,240.846077 C496.328758,237.615733 498.952224,235.3758 503.58794,237.062284 C501.518991,238.412949 499.666065,239.622694 497.791594,240.846077 C500.003992,244.045169 501.508785,246.219755 503.013011,248.394911 C502.869562,248.702319 502.726114,249.009159 502.582665,249.316567 C502.156146,249.193263 501.711661,249.094002 501.263889,248.999153 L500.591601,248.857736 C499.473129,248.619376 498.379989,248.347251 497.541551,247.734636 C496.038459,246.636831 495.126171,244.749764 493.5437,242.660411 C493.399685,245.081038 493.294224,246.857301 493.180259,248.771074 L488.932365,248.771074 L488.932365,231.225504 L493.384943,231.225504 Z M559.974251,236.843746 L559.974251,244.56816 C557.712526,244.56816 555.406008,244.46929 553.118768,244.629528 C552.44575,244.676691 551.825462,245.457997 551.181361,245.902915 C551.806184,246.276237 552.414565,246.935375 553.059801,246.971741 C555.381627,247.102432 557.715928,247.022881 560.045125,247.022881 C560.154554,247.275172 560.264551,247.526894 560.374547,247.779185 C559.792814,248.279221 559.225257,249.19349 558.627082,249.213378 C554.702372,249.343501 550.770292,249.280428 546.6993,249.280428 L546.6993,236.843746 L559.974251,236.843746 Z M583,231.629851 L583,249.200423 L583,249.200423 L569.37059,249.200423 L569.37059,236.938184 L578.263838,236.938184 L578.263838,231.629851 L578.263838,231.629851 L583,231.629851 Z M567.304476,231.645193 L567.304476,249.129395 L562.769118,249.129395 L562.769118,231.645193 L567.304476,231.645193 Z M522.019955,231.347785 L522.470145,232.140456 C521.672956,232.618899 520.896746,233.464982 520.074043,233.51044 C517.079765,233.677497 514.069612,233.576353 510.749882,233.576353 L510.749882,238.842638 L521.777283,238.842638 L521.777283,249.004727 C516.65112,249.004727 511.687117,249.03257 506.724815,248.949609 C506.340396,248.942791 505.969017,248.154666 505.591401,247.729636 C506.05123,247.381316 506.496885,246.755703 506.972023,246.732974 C509.135092,246.628421 511.3061,246.694903 513.474272,246.698312 C513.730126,246.698739 513.985981,246.698987 514.245556,246.69912 L515.877426,246.699032 C516.166769,246.698952 516.467274,246.698881 516.782662,246.698881 L516.782662,241.22349 L505.867525,241.22349 L505.867525,231.347785 L522.019955,231.347785 Z M544.505783,236.8467 L544.505783,248.992453 L540.113306,248.992453 L540.113306,236.8467 L544.505783,236.8467 Z M529.007491,231.500239 C529.101044,233.108309 529.195165,234.723765 529.312532,236.742091 L537.919449,236.742091 L537.919449,248.975918 L533.545117,248.975918 L533.545117,239.137716 L529.074396,239.137716 L529.074396,248.936142 L524.616715,248.936142 L524.616715,231.500239 L529.007491,231.500239 Z M486.230598,236.509233 C486.352501,236.822324 486.473837,237.134846 486.595173,237.447936 C484.435506,240.296435 480.813003,237.701932 478.052892,239.109419 L478.052892,246.48665 L486.124571,246.48665 C486.260649,246.804854 486.396727,247.123059 486.532804,247.441263 C485.733915,247.92482 484.953168,248.790223 484.134434,248.826589 C480.659348,248.98285 477.172923,248.893071 473.409239,248.893071 L473.409239,236.509233 L486.230598,236.509233 Z M470.642948,236.419284 L470.642948,244.043123 C468.316019,244.043123 466.093416,243.945957 463.888956,244.09824 C463.168878,244.148244 462.495293,244.847726 461.800162,245.249459 C462.476582,245.672785 463.130322,246.410905 463.833391,246.460341 C466.073571,246.61717 468.331328,246.5183 470.582847,246.5183 L471.017729,247.289945 C470.373061,247.784867 469.742,248.684363 469.079755,248.70766 C465.224786,248.843465 461.362446,248.774142 457.285783,248.774142 L457.285783,236.419284 L470.642948,236.419284 Z M455.193984,231.097995 L455.193984,241.736254 L444.993256,241.736254 L444.993256,248.506623 L440.298573,248.506623 L440.298573,231.097995 L455.193984,231.097995 Z M578.20317,239.255963 L574.100993,239.255963 L574.100993,246.908782 L578.20317,246.908782 L578.20317,239.255963 Z M555.382761,239.282556 L551.19837,239.282556 C551.260172,240.328653 551.307799,241.126438 551.362231,242.046958 L555.510334,242.046958 C555.461573,240.986087 555.421884,240.129207 555.382761,239.282556 Z M466.087179,238.744449 L462.100101,238.744449 L462.100101,241.558855 L465.948266,241.558855 C465.994192,240.631516 466.032748,239.844528 466.087179,238.744449 Z M407.61831,237.873421 C407.331413,237.860352 407.057556,237.840464 406.77236,237.884786 C406.186092,237.976838 405.526682,238.221742 405.241485,238.802465 C405.068553,239.155331 405.035668,239.743441 405.34808,240.030393 C405.612297,240.273024 406.076096,240.270752 406.401548,240.201997 C407.235592,240.026984 407.702792,239.134307 408.026543,238.399027 C408.097417,238.237652 408.162054,238.071731 408.220454,237.901264 C408.211382,237.928539 407.662536,237.875694 407.61831,237.873421 Z M450.168746,233.413501 L445.224588,233.413501 L445.224588,239.270737 L450.168746,239.270737 L450.168746,233.413501 Z M544.637892,231.578143 L544.637892,235.106235 L540.294176,235.106235 L540.294176,231.578143 L544.637892,231.578143 Z" id="形状结合"></path>
        </g>
    </g>
</svg>