<?xml version="1.0" encoding="UTF-8"?>
<svg width="240px" height="60px" viewBox="0 0 240 60" version="1.1" xmlns="http://www.w3.org/2000/svg" xmlns:xlink="http://www.w3.org/1999/xlink">
    <title>3-huobi</title>
    <defs>
        <polygon id="path-1" points="0.40473308 0.634418605 8.2925019 0.634418605 8.2925019 20.8509768 0.40473308 20.8509768"></polygon>
        <polygon id="path-3" points="0.000315381027 0.663813953 11.3715833 0.663813953 11.3715833 27.7317796 0.000315381027 27.7317796"></polygon>
    </defs>
    <g id="控件" stroke="none" stroke-width="1" fill="none" fill-rule="evenodd">
        <g id="图层-0备份" transform="translate(-767.000000, 8.000000)">
            <g id="logo.55bde23备份" transform="translate(791.000000, 6.000000)">
                <path d="M164.594373,27.0928372 L164.594373,24.7501395 C164.594373,24.195721 164.15343,23.7469768 163.609551,23.7484652 C163.059103,23.7506977 162.369217,23.7529302 161.785187,23.7529302 C160.298099,23.7529302 159.445414,22.9946047 159.445414,21.0306977 L159.445414,15.107721 L164.594373,15.107721 L164.594373,12.7687442 C164.594373,12.215814 164.154159,11.7670698 163.611741,11.7670698 L159.445414,11.7670698 L159.445414,7.87795348 C159.445414,7.32502326 159.005202,6.87627907 158.462783,6.87627907 L155.783544,6.87627907 L155.783544,21.4794419 C155.783544,25.015814 157.599878,27.0928372 161.344973,27.0928372 C162.791909,27.0928372 163.841704,27.0511628 164.594373,27.0928372 Z" id="Fill-3" fill="#D4D9E0" fill-rule="nonzero"></path>
                <path d="M126.46091,20.0870698 L126.46091,24.0089302 C126.173274,24.0662326 125.855708,24.1108837 125.51259,24.1428837 C124.669396,24.224 123.913077,24.2388837 123.036301,24.1570232 C122.693183,24.1257674 122.375617,24.0364652 122.093822,23.8935814 C121.821518,23.7559069 121.598126,23.5594419 121.412697,23.292279 C121.236757,23.04 121.147693,22.6664186 121.147693,22.1834419 C121.147693,21.4303256 121.411236,20.8915348 121.952925,20.5350698 C122.530385,20.1547907 123.40424,19.9620465 124.55113,19.9620465 C124.860666,19.9620465 125.237366,19.9799069 125.683419,20.0156279 C125.974704,20.040186 126.233868,20.0632558 126.46091,20.0870698 M128.453914,12.860279 C127.349366,11.9605581 125.735252,11.5051163 123.654643,11.5051163 C122.881533,11.5051163 122.068271,11.5624186 121.238217,11.6755349 C120.572423,11.7663256 119.629944,11.895814 118.97583,12.0491163 C118.710826,12.1116279 118.661913,12.3237209 118.661913,12.5782326 L118.661913,14.6053953 C118.661913,14.9670698 118.665564,15.296 119.040803,15.2022326 C119.74091,15.0288372 121.09951,14.7222326 121.468179,14.659721 C122.05148,14.5622326 122.686613,14.5123721 123.356058,14.5123721 C124.397822,14.5123721 125.192833,14.7028837 125.717731,15.0764652 C126.211236,15.4284652 126.46091,16.0989768 126.46091,17.0679069 L126.46091,17.1854884 C126.27548,17.1683721 126.071799,17.1512558 125.849868,17.1363721 C125.433746,17.1080931 124.901548,17.0932093 124.252545,17.0932093 C123.366278,17.0932093 122.507024,17.1951628 121.700332,17.3975814 C120.881959,17.603721 120.146081,17.9207442 119.512408,18.3434419 C118.868514,18.7735814 118.351647,19.319814 117.977138,19.9672558 C117.598978,20.6206511 117.407708,21.3849302 117.407708,22.2392558 C117.407708,23.1069768 117.571236,23.8615814 117.894643,24.4829768 C118.22024,25.1103256 118.688925,25.6327442 119.286096,26.0368372 C119.874506,26.4349768 120.596514,26.7259535 121.430948,26.903814 C122.24275,27.075721 123.161868,27.1627907 124.16275,27.1627907 C124.891328,27.1627907 130.141032,27.0876279 130.141032,24.540279 L130.141032,17.1787907 C130.141032,15.2253023 129.573792,13.7726511 128.453914,12.860279" id="Fill-5" fill="#D4D9E0" fill-rule="nonzero"></path>
                <path d="M176.467054,20.0870698 L176.467054,24.0089302 C176.180148,24.0662326 175.862583,24.1108837 175.518734,24.1428837 C174.67554,24.224 173.919951,24.2388837 173.042446,24.1570232 C172.699328,24.1257674 172.381761,24.0364652 172.099967,23.8935814 C171.827662,23.7559069 171.605001,23.5594419 171.419571,23.292279 C171.243631,23.04 171.154568,22.6664186 171.154568,22.1834419 C171.154568,21.4303256 171.417381,20.8915348 171.959799,20.5350698 C172.536529,20.1547907 173.410385,19.9620465 174.557275,19.9620465 C174.86754,19.9620465 175.24351,19.9799069 175.689563,20.0156279 C175.980849,20.040186 176.240742,20.0632558 176.467054,20.0870698 M178.460058,12.860279 C177.356241,11.9605581 175.741396,11.5051163 173.660787,11.5051163 C172.887677,11.5051163 172.074415,11.5624186 171.244362,11.6755349 C170.578568,11.7663256 169.636088,11.895814 168.982705,12.0491163 C168.71697,12.1116279 168.668787,12.3237209 168.668787,12.5782326 L168.668787,14.6053953 C168.668787,14.9670698 168.672438,15.296 169.047677,15.2022326 C169.747054,15.0288372 171.105655,14.7222326 171.474324,14.659721 C172.057624,14.5622326 172.693487,14.5123721 173.362203,14.5123721 C174.403967,14.5123721 175.198979,14.7028837 175.723876,15.0764652 C176.217381,15.4284652 176.467054,16.0989768 176.467054,17.0679069 L176.467054,17.1854884 C176.282354,17.1683721 176.077944,17.1512558 175.856013,17.1363721 C175.440621,17.1080931 174.907693,17.0932093 174.258689,17.0932093 C173.372422,17.0932093 172.513169,17.1951628 171.707206,17.3975814 C170.888104,17.603721 170.152225,17.9207442 169.518552,18.3434419 C168.874659,18.7735814 168.358522,19.319814 167.983282,19.9672558 C167.605123,20.6206511 167.413852,21.3849302 167.413852,22.2392558 C167.413852,23.1069768 167.577381,23.8615814 167.900787,24.4829768 C168.226385,25.1103256 168.695799,25.6327442 169.29297,26.0368372 C169.881381,26.4349768 170.602659,26.7259535 171.437821,26.903814 C172.249624,27.075721 173.168013,27.1627907 174.169624,27.1627907 C174.897472,27.1627907 180.147905,27.0876279 180.147905,24.540279 L180.147905,17.1787907 C180.147905,15.2253023 179.579936,13.7726511 178.460058,12.860279" id="Fill-7" fill="#D4D9E0" fill-rule="nonzero"></path>
                <g id="Fill-12-Clipped" transform="translate(182.509505, 6.034010)">
                    <mask id="mask-2" fill="white">
                        <use xlink:href="#path-1"></use>
                    </mask>
                    <g id="path-3"></g>
                    <path d="M8.29279392,20.8509768 L8.29279392,18.508279 C8.29279392,17.9538605 7.85185096,17.5043721 7.30797262,17.5066047 C6.75825399,17.5088372 6.06763803,17.5110698 5.48433764,17.5110698 C3.99725019,17.5110698 4.0666038,16.7527442 4.0666038,14.7880931 L4.0666038,5.52520931 L4.0666038,1.63609302 C4.0666038,1.08316279 3.62639087,0.634418605 3.08397262,0.634418605 L0.40473308,0.634418605 L0.40473308,15.2375814 C0.40473308,18.7739535 1.29902966,20.8509768 5.04339468,20.8509768 C6.49033004,20.8509768 7.54012471,20.8093023 8.29279392,20.8509768 C8.29279392,20.8509768 8.29279392,20.8509768 8.29279392,20.8509768" id="Fill-12" fill="#FFFFFF" fill-rule="nonzero" mask="url(#mask-2)"></path>
                </g>
                <path d="M142.961229,20.1092465 C142.961229,21.9272931 141.501883,23.1373395 139.71913,23.1373395 C137.935647,23.1373395 136.476301,21.9272931 136.476301,20.1092465 L136.476301,17.515014 C136.476301,15.6977116 137.935647,14.486921 139.71913,14.486921 C141.501883,14.486921 142.961229,15.6977116 142.961229,17.515014 L142.961229,20.1092465 Z M139.71913,11.1886884 C135.948484,11.1886884 132.863343,14.3328744 132.863343,18.1765953 L132.863343,30.2815256 C132.863343,30.8642232 133.326917,31.3360372 133.898537,31.3360372 L136.458051,31.3360372 L136.458051,25.6809674 C137.429001,26.1676652 138.540119,26.4355721 139.71913,26.4355721 C143.489046,26.4355721 146.574188,23.291386 146.574188,19.4476652 L146.574188,18.1765953 C146.574188,14.3172465 143.505107,11.1886884 139.71913,11.1886884 Z" id="Fill-15" fill="#D4D9E0" fill-rule="nonzero"></path>
                <path d="M114.851626,12.3072744 C113.629542,10.6842046 111.184645,10.1625302 109.507017,10.1625302 C106.038607,10.1625302 103.451352,12.7128558 103.451352,16.5677395 C103.451352,21.2330419 105.981664,23.5809489 109.649375,23.5809489 C111.581786,23.5809489 113.742698,22.7980652 114.794683,21.6683907 L114.93704,21.6683907 L114.93704,24.4122047 C114.93704,25.5753674 112.773208,27.0295069 109.136888,27.0295069 C103.962379,27.0295069 99.5281277,23.0882977 99.5281277,17.1467163 C99.5281277,11.0324837 103.536036,6.7139721 109.478546,6.7139721 C112.662242,6.7139721 114.993983,7.86894884 114.993983,8.77387907 L114.993983,12.3072744 L114.851626,12.3072744 Z" id="Fill-17" fill="#D4D9E0" fill-rule="nonzero"></path>
                <path d="M150.424919,26.9235348 L153.017284,26.9235348 L153.017284,13.5430698 C153.017284,12.9789768 152.569041,12.5213023 152.015671,12.5213023 L149.422577,12.5213023 L149.422577,25.9025116 C149.422577,26.4666047 149.871549,26.9235348 150.424919,26.9235348" id="Fill-19" fill="#D4D9E0" fill-rule="nonzero"></path>
                <path d="M151.220148,11.1084651 C152.328347,11.1084651 153.226294,10.1931163 153.226294,9.06344186 C153.226294,7.93451163 152.328347,7.0184186 151.220148,7.0184186 C150.111951,7.0184186 149.214004,7.93451163 149.214004,9.06344186 C149.214004,10.1931163 150.111951,11.1084651 151.220148,11.1084651" id="Fill-21" fill="#D4D9E0" fill-rule="nonzero"></path>
                <path d="M33.7835315,7.04528372 L33.7835315,14.9232372 L26.1028015,14.9232372 L26.1028015,8.06705116 C26.1028015,7.50295814 25.6538281,7.04528372 25.1004593,7.04528372 L22.5080943,7.04528372 L22.5080943,25.902214 C22.5080943,26.4663069 22.9563377,26.9232372 23.5104365,26.9232372 L26.1028015,26.9232372 L26.1028015,18.1247256 L33.7835315,18.1247256 L33.7835315,25.902214 C33.7835315,26.4663069 34.232505,26.9232372 34.7858738,26.9232372 L37.3782387,26.9232372 L37.3782387,8.06705116 C37.3782387,7.50295814 36.9292654,7.04528372 36.3758966,7.04528372 L33.7835315,7.04528372 Z" id="Fill-23" fill="#D4D9E0" fill-rule="nonzero"></path>
                <path d="M49.0266524,11.9744 L49.0266524,21.4233302 C49.0266524,22.282121 48.5973901,23.0955163 47.8680822,23.5249116 C45.8327361,24.7237953 43.7258464,23.2264931 43.7258464,21.2521674 L43.7258464,12.9961674 C43.7258464,12.4320744 43.2776031,11.9744 42.7242342,11.9744 L40.1216486,11.9744 L40.1209187,11.9744 L40.1209187,21.5885395 C40.1209187,24.682121 42.6037779,27.2130977 45.638546,27.2130977 L47.1139529,27.2130977 C50.1487209,27.2130977 52.6315803,24.682121 52.6315803,21.5885395 L52.6315803,12.9961674 C52.6315803,12.4320744 52.1826068,11.9744 51.629238,11.9744 L49.0266524,11.9744 Z" id="Fill-25" fill="#D4D9E0" fill-rule="nonzero"></path>
                <path d="M88.3470844,26.9235348 L90.9394495,26.9235348 L90.9394495,13.5430698 C90.9394495,12.9789768 90.4912061,12.5213023 89.9378373,12.5213023 L87.3447421,12.5213023 L87.3447421,25.9025116 C87.3447421,26.4666047 87.7937156,26.9235348 88.3470844,26.9235348" id="Fill-27" fill="#D4D9E0" fill-rule="nonzero"></path>
                <path d="M89.1423149,11.1084651 C90.2505125,11.1084651 91.1484593,10.1931163 91.1484593,9.06344186 C91.1484593,7.93451163 90.2505125,7.0184186 89.1423149,7.0184186 C88.0341171,7.0184186 87.1361704,7.93451163 87.1361704,9.06344186 C87.1361704,10.1931163 88.0341171,11.1084651 89.1423149,11.1084651" id="Fill-29" fill="#D4D9E0" fill-rule="nonzero"></path>
                <path d="M65.163705,20.8861023 C65.163705,22.7041489 63.7043589,23.9141953 61.9216061,23.9141953 C60.1381231,23.9141953 58.6787772,22.7041489 58.6787772,20.8861023 L58.6787772,18.2918698 C58.6787772,16.4738232 60.1381231,15.2637768 61.9216061,15.2637768 C63.7043589,15.2637768 65.163705,16.4738232 65.163705,18.2918698 L65.163705,20.8861023 Z M61.9216061,11.9655442 C58.1509597,11.9655442 55.065819,14.7145674 55.065819,18.5582884 L55.065819,20.6368 C55.065819,24.480521 58.1509597,27.2124279 61.9216061,27.2124279 C65.6915224,27.2124279 68.7766632,24.480521 68.7766632,20.6368 L68.7766632,18.5582884 C68.7766632,14.7145674 65.6915224,11.9655442 61.9216061,11.9655442 Z" id="Fill-31" fill="#D4D9E0" fill-rule="nonzero"></path>
                <path d="M81.3076197,20.8861023 C81.3076197,22.7041489 79.8482738,23.9141953 78.0655209,23.9141953 C76.282038,23.9141953 74.8234221,22.7041489 74.8234221,20.8861023 L74.8234221,18.2918698 C74.8234221,16.4745674 76.282038,15.2637768 78.0655209,15.2637768 C79.8482738,15.2637768 81.3076197,16.4745674 81.3076197,18.2918698 L81.3076197,20.8861023 Z M78.0655209,11.9655442 C76.8872396,11.9655442 75.7753916,12.2341954 74.8044411,12.7201488 L74.8044411,8.08610232 C74.8044411,7.52200931 74.3561978,7.06507907 73.8028289,7.06507907 L71.2097339,7.06507907 L71.2097339,20.6368 C71.2097339,24.480521 74.2948745,27.2124279 78.0655209,27.2124279 C81.8354373,27.2124279 84.9205779,24.480521 84.9205779,20.6368 L84.9205779,18.5582884 C84.9205779,14.7145674 81.8354373,11.9655442 78.0655209,11.9655442 Z" id="Fill-33" fill="#D4D9E0" fill-rule="nonzero"></path>
                <g id="Fill-35-Clipped" transform="translate(0.000000, 0.080521)">
                    <mask id="mask-4" fill="white">
                        <use xlink:href="#path-3"></use>
                    </mask>
                    <g id="path-5"></g>
                    <path d="M11.3715833,8.99453023 C11.3715833,5.10764652 9.51436654,1.76550698 8.10174296,0.677506977 C8.09590266,0.673786047 7.99369734,0.614995348 8.00245779,0.770530232 C8.00245779,0.77276279 8.00026769,0.773506977 8.00026769,0.775739535 C7.88273156,8.27936744 4.1223057,10.3132279 2.05483803,13.053321 C-2.71596046,19.3751814 1.72121065,26.3072744 6.23941597,27.5880186 C8.76753764,28.3046698 5.65538555,26.3199256 5.25459468,22.1264372 C4.76984943,17.0585302 11.3715833,13.1902511 11.3715833,8.99453023" id="Fill-35" fill="#BBC0C7" fill-rule="nonzero" mask="url(#mask-4)"></path>
                </g>
                <path d="M13.8504274,11.6295442 C13.8197658,11.6094512 13.7752334,11.5960558 13.7453019,11.6436837 C13.6620776,12.5888 12.6517049,14.608521 11.3712183,16.464521 C7.02822205,22.7581023 9.50305096,25.7914047 10.8952335,27.4211721 C11.7033855,28.3670326 10.8952335,27.4211721 12.9145187,26.4544744 C13.0736669,26.3785674 16.8559939,24.3528931 17.2655452,19.7367069 C17.6619558,15.2656372 14.8513096,12.4481488 13.8504274,11.6295442" id="Fill-38" fill="#D4D9E0" fill-rule="nonzero" opacity="0.495326451"></path>
            </g>
        </g>
    </g>
</svg>